<svg xmlns="http://www.w3.org/2000/svg" width="1032" height="290" viewBox="0 0 1032 290">
  <g id="Grupo_957985" data-name="Grupo 957985" transform="translate(-283 -2360)">
    <path id="Trazado_725453" data-name="Trazado 725453" d="M0,0H1032V290H0Z" transform="translate(283 2360)" fill="#fff"/>
    <path id="Trazado_725454" data-name="Trazado 725454" d="M15.094,19.223a6.231,6.231,0,0,1-.961,3.146,5.8,5.8,0,0,1-2.467,2.115,8.4,8.4,0,0,1-3.627.75,6.7,6.7,0,0,1-5.3-2.191A9.048,9.048,0,0,1,.809,16.855v-.844a10.328,10.328,0,0,1,.873-4.389A6.615,6.615,0,0,1,4.2,8.717a7.013,7.013,0,0,1,3.8-1.025,7.354,7.354,0,0,1,4.992,1.635,6.459,6.459,0,0,1,2.145,4.506h-4.1a3.056,3.056,0,0,0-.785-2.238,3.229,3.229,0,0,0-2.25-.68,2.457,2.457,0,0,0-2.25,1.148,7.381,7.381,0,0,0-.75,3.668v1.207a8.167,8.167,0,0,0,.686,3.9,2.509,2.509,0,0,0,2.361,1.172,3.159,3.159,0,0,0,2.168-.668,2.835,2.835,0,0,0,.8-2.121ZM24,25a4.459,4.459,0,0,1-.375-1.137,3.672,3.672,0,0,1-3.047,1.371,4.5,4.5,0,0,1-3.047-1.084,3.45,3.45,0,0,1-1.254-2.725A3.546,3.546,0,0,1,17.8,18.309a7.761,7.761,0,0,1,4.43-1.055h1.219v-.671q0-1.755-1.512-1.755a1.236,1.236,0,0,0-1.406,1.39H16.582a3.54,3.54,0,0,1,1.564-2.985,6.575,6.575,0,0,1,3.99-1.147,5.764,5.764,0,0,1,3.832,1.184,4.115,4.115,0,0,1,1.441,3.246v5.613a5.748,5.748,0,0,0,.539,2.672V25Zm-2.473-2.578a2.2,2.2,0,0,0,1.225-.316,1.983,1.983,0,0,0,.7-.715V19.363H22.3q-2.062,0-2.062,1.852a1.131,1.131,0,0,0,.363.873A1.315,1.315,0,0,0,21.527,22.422Zm74.953-7.1h4v3.387h-4v4.582H92.789V18.707H88.781V15.32h4.008V10.867H96.48ZM155.859,25H143.953V22.422l5.484-5.766q2.027-2.309,2.027-3.668a2.551,2.551,0,0,0-.48-1.676,1.715,1.715,0,0,0-1.395-.574,1.737,1.737,0,0,0-1.465.768,3.155,3.155,0,0,0-.562,1.916H143.6a5.6,5.6,0,0,1,.785-2.9,5.506,5.506,0,0,1,2.18-2.08,6.475,6.475,0,0,1,3.117-.75,6.369,6.369,0,0,1,4.26,1.277,4.56,4.56,0,0,1,1.494,3.668,5.326,5.326,0,0,1-.375,1.963,8.608,8.608,0,0,1-1.166,2,29.372,29.372,0,0,1-2.549,2.807l-2.2,2.543h6.715Zm16.5,0h-4.09V17.875h-6.059V25H158.1V7.938h4.113v6.773h6.059V7.938h4.09Zm29-8.18a10.062,10.062,0,0,1-.926,4.418,6.842,6.842,0,0,1-2.631,2.959,7.326,7.326,0,0,1-3.885,1.037,7.429,7.429,0,0,1-3.867-1,6.831,6.831,0,0,1-2.631-2.865,9.772,9.772,0,0,1-.99-4.277v-.961a10.106,10.106,0,0,1,.92-4.424,6.825,6.825,0,0,1,2.637-2.959,7.805,7.805,0,0,1,7.775-.012,6.948,6.948,0,0,1,2.643,2.936,9.816,9.816,0,0,1,.955,4.365Zm-4.184-.715a7.175,7.175,0,0,0-.85-3.861,2.725,2.725,0,0,0-2.432-1.318q-3.094,0-3.27,4.641l-.012,1.254a7.379,7.379,0,0,0,.832,3.855,2.721,2.721,0,0,0,2.473,1.348,2.688,2.688,0,0,0,2.4-1.324,7.178,7.178,0,0,0,.855-3.809Z" transform="translate(464 2446)" fill="#0e494d"/>
    <path id="Trazado_725455" data-name="Trazado 725455" d="M1.172,15.219a14.924,14.924,0,0,1,.635-4.434A10.7,10.7,0,0,1,3.56,7.309,6.225,6.225,0,0,1,6.045,5.316L6.67,6.938a6.367,6.367,0,0,0-2.114,3.14,15.313,15.313,0,0,0-.757,5v.43a15.612,15.612,0,0,0,.747,5.1A6.34,6.34,0,0,0,6.67,23.773l-.625,1.621a6.163,6.163,0,0,1-2.485-2,10.538,10.538,0,0,1-1.753-3.462,15,15,0,0,1-.635-4.277Zm12.344,2.813a.76.76,0,0,0-.439-.674,6.684,6.684,0,0,0-1.67-.527,7.615,7.615,0,0,1-2.031-.718,3.4,3.4,0,0,1-1.221-1.079,2.577,2.577,0,0,1-.42-1.455,2.92,2.92,0,0,1,1.2-2.4,4.948,4.948,0,0,1,3.145-.942,5.482,5.482,0,0,1,3.359.947,2.962,2.962,0,0,1,1.27,2.49h-3.3q0-1.27-1.338-1.27a1.326,1.326,0,0,0-.869.288.892.892,0,0,0-.352.718.819.819,0,0,0,.43.713,4.06,4.06,0,0,0,1.372.449,11.857,11.857,0,0,1,1.655.42,3.007,3.007,0,0,1,2.383,2.939,2.767,2.767,0,0,1-1.284,2.354,5.632,5.632,0,0,1-3.325.908,5.747,5.747,0,0,1-2.422-.488A4.05,4.05,0,0,1,8,19.379a3.007,3.007,0,0,1-.6-1.768h3.076a1.272,1.272,0,0,0,.488,1.069,2.009,2.009,0,0,0,1.2.337,1.58,1.58,0,0,0,1.011-.273A.875.875,0,0,0,13.516,18.031Zm9.9-2.539a13.925,13.925,0,0,1-.674,4.355,11.12,11.12,0,0,1-1.86,3.54,6.193,6.193,0,0,1-2.563,2.007L17.7,23.773a6.43,6.43,0,0,0,2.1-3.125,15.085,15.085,0,0,0,.771-4.854v-.6a15.612,15.612,0,0,0-.747-5.1A6.34,6.34,0,0,0,17.7,6.938l.625-1.621A6.307,6.307,0,0,1,20.864,7.3,10.984,10.984,0,0,1,22.72,10.79a13.807,13.807,0,0,1,.7,4.272ZM154.668,21h-9.922V18.852l4.57-4.8q1.689-1.924,1.689-3.057a2.126,2.126,0,0,0-.4-1.4,1.43,1.43,0,0,0-1.162-.479,1.447,1.447,0,0,0-1.221.64,2.629,2.629,0,0,0-.469,1.6h-3.3a4.669,4.669,0,0,1,.654-2.417A4.588,4.588,0,0,1,146.924,7.2a5.4,5.4,0,0,1,2.6-.625,5.308,5.308,0,0,1,3.55,1.064,3.8,3.8,0,0,1,1.245,3.057A4.439,4.439,0,0,1,154,12.333a7.173,7.173,0,0,1-.972,1.67,24.476,24.476,0,0,1-2.124,2.339l-1.836,2.119h5.6Zm16.9-5.781a14.924,14.924,0,0,1,.635-4.434,10.7,10.7,0,0,1,1.753-3.477,6.225,6.225,0,0,1,2.485-1.992l.625,1.621a6.367,6.367,0,0,0-2.114,3.14,15.313,15.313,0,0,0-.757,5v.43a15.612,15.612,0,0,0,.747,5.1,6.34,6.34,0,0,0,2.124,3.164l-.625,1.621a6.163,6.163,0,0,1-2.485-2,10.538,10.538,0,0,1-1.753-3.462,15,15,0,0,1-.635-4.277Zm7.939,7h-2.334l4.854-15.439h2.344ZM190.6,15.492a13.925,13.925,0,0,1-.674,4.355,11.12,11.12,0,0,1-1.86,3.54,6.193,6.193,0,0,1-2.563,2.007l-.625-1.621a6.43,6.43,0,0,0,2.1-3.125,15.085,15.085,0,0,0,.771-4.854v-.6A15.612,15.612,0,0,0,187,10.1a6.34,6.34,0,0,0-2.124-3.164l.625-1.621A6.307,6.307,0,0,1,188.042,7.3,10.984,10.984,0,0,1,189.9,10.79a13.807,13.807,0,0,1,.7,4.272Z" transform="translate(494 2464)" fill="#12263f"/>
    <path id="Trazado_725456" data-name="Trazado 725456" d="M15.094,19.223a6.231,6.231,0,0,1-.961,3.146,5.8,5.8,0,0,1-2.467,2.115,8.4,8.4,0,0,1-3.627.75,6.7,6.7,0,0,1-5.3-2.191A9.048,9.048,0,0,1,.809,16.855v-.844a10.328,10.328,0,0,1,.873-4.389A6.615,6.615,0,0,1,4.2,8.717a7.013,7.013,0,0,1,3.8-1.025,7.354,7.354,0,0,1,4.992,1.635,6.459,6.459,0,0,1,2.145,4.506h-4.1a3.056,3.056,0,0,0-.785-2.238,3.229,3.229,0,0,0-2.25-.68,2.457,2.457,0,0,0-2.25,1.148,7.381,7.381,0,0,0-.75,3.668v1.207a8.167,8.167,0,0,0,.686,3.9,2.509,2.509,0,0,0,2.361,1.172,3.159,3.159,0,0,0,2.168-.668,2.835,2.835,0,0,0,.8-2.121ZM24,25a4.459,4.459,0,0,1-.375-1.137,3.672,3.672,0,0,1-3.047,1.371,4.5,4.5,0,0,1-3.047-1.084,3.45,3.45,0,0,1-1.254-2.725A3.546,3.546,0,0,1,17.8,18.309a7.761,7.761,0,0,1,4.43-1.055h1.219v-.671q0-1.755-1.512-1.755a1.236,1.236,0,0,0-1.406,1.39H16.582a3.54,3.54,0,0,1,1.564-2.985,6.575,6.575,0,0,1,3.99-1.147,5.764,5.764,0,0,1,3.832,1.184,4.115,4.115,0,0,1,1.441,3.246v5.613a5.748,5.748,0,0,0,.539,2.672V25Zm-2.473-2.578a2.2,2.2,0,0,0,1.225-.316,1.983,1.983,0,0,0,.7-.715V19.363H22.3q-2.062,0-2.062,1.852a1.131,1.131,0,0,0,.363.873A1.315,1.315,0,0,0,21.527,22.422Zm8.367-4.359a17.909,17.909,0,0,1,.762-5.32,12.839,12.839,0,0,1,2.1-4.172A7.47,7.47,0,0,1,35.742,6.18l.75,1.945a7.64,7.64,0,0,0-2.537,3.768,18.376,18.376,0,0,0-.908,6.006v.516a18.734,18.734,0,0,0,.9,6.117,7.608,7.608,0,0,0,2.549,3.8l-.75,1.945a7.4,7.4,0,0,1-2.982-2.4,12.646,12.646,0,0,1-2.1-4.154,18,18,0,0,1-.762-5.133ZM52.7,16.82a10.062,10.062,0,0,1-.926,4.418A6.842,6.842,0,0,1,49.143,24.2a7.326,7.326,0,0,1-3.885,1.037,7.429,7.429,0,0,1-3.867-1,6.831,6.831,0,0,1-2.631-2.865,9.772,9.772,0,0,1-.99-4.277v-.961a10.106,10.106,0,0,1,.92-4.424,6.825,6.825,0,0,1,2.637-2.959A7.805,7.805,0,0,1,49.1,8.734a6.948,6.948,0,0,1,2.643,2.936,9.816,9.816,0,0,1,.955,4.365Zm-4.184-.715a7.175,7.175,0,0,0-.85-3.861,2.725,2.725,0,0,0-2.432-1.318q-3.094,0-3.27,4.641l-.012,1.254a7.379,7.379,0,0,0,.832,3.855,2.721,2.721,0,0,0,2.473,1.348,2.688,2.688,0,0,0,2.4-1.324,7.178,7.178,0,0,0,.855-3.809ZM69.082,25h-4.09V17.875H58.934V25H54.82V7.938h4.113v6.773h6.059V7.938h4.09Zm8.648-6.609a16.71,16.71,0,0,1-.809,5.227,13.344,13.344,0,0,1-2.232,4.248,7.432,7.432,0,0,1-3.076,2.408l-.75-1.945a7.716,7.716,0,0,0,2.52-3.75,18.1,18.1,0,0,0,.926-5.824v-.715a18.734,18.734,0,0,0-.9-6.117,7.608,7.608,0,0,0-2.549-3.8l.75-1.945a7.568,7.568,0,0,1,3.053,2.385,13.18,13.18,0,0,1,2.227,4.184,16.568,16.568,0,0,1,.838,5.127Zm63.129-3.07h4v3.387h-4v4.582h-3.691V18.707H133.16V15.32h4.008V10.867h3.691ZM208.816,25h-4.09V17.875h-6.059V25h-4.113V7.938h4.113v6.773h6.059V7.938h4.09Z" transform="translate(870 2446)" fill="#0e494d"/>
    <path id="Trazado_725457" data-name="Trazado 725457" d="M10.791,21H.869V18.852l4.57-4.8q1.689-1.924,1.689-3.057a2.126,2.126,0,0,0-.4-1.4,1.43,1.43,0,0,0-1.162-.479,1.447,1.447,0,0,0-1.221.64,2.629,2.629,0,0,0-.469,1.6H.576A4.67,4.67,0,0,1,1.23,8.935,4.588,4.588,0,0,1,3.047,7.2a5.4,5.4,0,0,1,2.6-.625,5.308,5.308,0,0,1,3.55,1.064A3.8,3.8,0,0,1,10.439,10.7a4.439,4.439,0,0,1-.312,1.636A7.173,7.173,0,0,1,9.155,14a24.477,24.477,0,0,1-2.124,2.339L5.2,18.461h5.6ZM141.9,21h-9.922V18.852l4.57-4.8q1.689-1.924,1.689-3.057a2.126,2.126,0,0,0-.4-1.4,1.43,1.43,0,0,0-1.162-.479,1.447,1.447,0,0,0-1.221.64,2.629,2.629,0,0,0-.469,1.6h-3.3a4.669,4.669,0,0,1,.654-2.417A4.588,4.588,0,0,1,134.16,7.2a5.4,5.4,0,0,1,2.6-.625,5.308,5.308,0,0,1,3.55,1.064,3.8,3.8,0,0,1,1.245,3.057,4.439,4.439,0,0,1-.312,1.636,7.173,7.173,0,0,1-.972,1.67,24.476,24.476,0,0,1-2.124,2.339l-1.836,2.119h5.6Zm6.943-5.781a14.924,14.924,0,0,1,.635-4.434,10.7,10.7,0,0,1,1.753-3.477,6.225,6.225,0,0,1,2.485-1.992l.625,1.621a6.367,6.367,0,0,0-2.114,3.14,15.313,15.313,0,0,0-.757,5v.43a15.612,15.612,0,0,0,.747,5.1,6.34,6.34,0,0,0,2.124,3.164l-.625,1.621a6.163,6.163,0,0,1-2.485-2,10.538,10.538,0,0,1-1.753-3.462,15,15,0,0,1-.635-4.277Zm6.426.42a7.134,7.134,0,0,1,.527-2.832,4.245,4.245,0,0,1,1.514-1.9,3.99,3.99,0,0,1,2.295-.669,3.173,3.173,0,0,1,2.578,1.113l.117-.918h2.988V20.6a4.455,4.455,0,0,1-.649,2.427,4.167,4.167,0,0,1-1.88,1.582,6.91,6.91,0,0,1-2.852.552,5.961,5.961,0,0,1-2.251-.439A4.063,4.063,0,0,1,156,23.578l1.377-1.934a3.018,3.018,0,0,0,2.422,1.084,1.96,1.96,0,0,0,2.188-2.246V20.15A3.09,3.09,0,0,1,159.59,21.2a3.819,3.819,0,0,1-3.125-1.479,6.13,6.13,0,0,1-1.191-3.96Zm3.3.205a3.759,3.759,0,0,0,.488,2.056,1.541,1.541,0,0,0,1.367.757,1.748,1.748,0,0,0,1.553-.713V13.5a1.7,1.7,0,0,0-1.533-.723,1.551,1.551,0,0,0-1.377.786A4.287,4.287,0,0,0,158.574,15.844Zm13.779-.352a13.925,13.925,0,0,1-.674,4.355,11.12,11.12,0,0,1-1.86,3.54,6.193,6.193,0,0,1-2.563,2.007l-.625-1.621a6.43,6.43,0,0,0,2.1-3.125,15.085,15.085,0,0,0,.771-4.854v-.6a15.612,15.612,0,0,0-.747-5.1,6.34,6.34,0,0,0-2.124-3.164l.625-1.621A6.307,6.307,0,0,1,169.8,7.3a10.984,10.984,0,0,1,1.855,3.486,13.807,13.807,0,0,1,.7,4.272Z" transform="translate(951 2464)" fill="#12263f"/>
    <path id="Trazado_725458" data-name="Trazado 725458" d="M27.715,12.836H25.848V17H23.5V5.625H27.73a4.778,4.778,0,0,1,3.109.9,3.1,3.1,0,0,1,1.094,2.539A3.5,3.5,0,0,1,31.43,11,3.437,3.437,0,0,1,29.9,12.242l2.461,4.648V17H29.848Zm-1.867-1.9h1.891a1.936,1.936,0,0,0,1.367-.449A1.606,1.606,0,0,0,29.59,9.25a1.719,1.719,0,0,0-.457-1.266,1.9,1.9,0,0,0-1.4-.461H25.848ZM40.559,12.07h-4.5v3.047H41.34V17H33.715V5.625h7.609v1.9H36.059v2.711h4.5Zm8.578,2.586H45.027L44.246,17H41.754L45.988,5.625H48.16L52.418,17H49.926Zm-3.477-1.9H48.5L47.074,8.5Zm16.75.453A4.025,4.025,0,0,1,61.055,16.1a4.76,4.76,0,0,1-3.223,1.055,4.28,4.28,0,0,1-3.441-1.473,6.038,6.038,0,0,1-1.254-4.043v-.7a6.819,6.819,0,0,1,.578-2.891,4.332,4.332,0,0,1,1.652-1.918,5.164,5.164,0,0,1,5.668.387,4.326,4.326,0,0,1,1.391,2.961H60.082a2.376,2.376,0,0,0-.613-1.6,2.271,2.271,0,0,0-1.605-.5,1.991,1.991,0,0,0-1.754.84,4.707,4.707,0,0,0-.6,2.605V11.7a5.038,5.038,0,0,0,.559,2.7,1.954,1.954,0,0,0,1.762.852,2.314,2.314,0,0,0,1.621-.5,2.241,2.241,0,0,0,.613-1.535Zm9.875-5.687H68.8V17H66.457V7.523H63.02v-1.9h9.266ZM76.113,17H73.77V5.625h2.344Zm6.375-2.82,2.578-8.555h2.609L83.715,17H81.27L77.324,5.625h2.6Zm15.5-2.609a6.867,6.867,0,0,1-.594,2.945,4.472,4.472,0,0,1-1.7,1.953,5.021,5.021,0,0,1-5.059.008,4.515,4.515,0,0,1-1.719-1.941,6.67,6.67,0,0,1-.617-2.9V11.07a6.831,6.831,0,0,1,.605-2.957,4.508,4.508,0,0,1,1.711-1.961,5.014,5.014,0,0,1,5.055,0,4.508,4.508,0,0,1,1.711,1.961,6.811,6.811,0,0,1,.605,2.949Zm-2.375-.516a4.787,4.787,0,0,0-.641-2.719,2.263,2.263,0,0,0-3.648-.012,4.732,4.732,0,0,0-.648,2.691v.555a4.847,4.847,0,0,0,.641,2.7,2.243,2.243,0,0,0,3.656.035,4.819,4.819,0,0,0,.641-2.7Zm9.977,2.961a1.2,1.2,0,0,0-.469-1.02,6.148,6.148,0,0,0-1.687-.75,11.963,11.963,0,0,1-1.93-.777,3.153,3.153,0,0,1-1.937-2.82A2.747,2.747,0,0,1,100.086,7a3.389,3.389,0,0,1,1.492-1.129,5.616,5.616,0,0,1,2.184-.406,5.112,5.112,0,0,1,2.172.441,3.458,3.458,0,0,1,1.48,1.246,3.261,3.261,0,0,1,.527,1.828H105.6a1.534,1.534,0,0,0-.492-1.215,2.023,2.023,0,0,0-1.383-.434,2.162,2.162,0,0,0-1.336.363,1.146,1.146,0,0,0-.477.957,1.1,1.1,0,0,0,.559.93,6.311,6.311,0,0,0,1.645.7,7.106,7.106,0,0,1,2.914,1.492A2.972,2.972,0,0,1,107.941,14a2.737,2.737,0,0,1-1.117,2.316,4.891,4.891,0,0,1-3.008.84,5.808,5.808,0,0,1-2.391-.48,3.783,3.783,0,0,1-1.645-1.316,3.371,3.371,0,0,1-.566-1.937h2.352q0,1.883,2.25,1.883a2.189,2.189,0,0,0,1.3-.34A1.106,1.106,0,0,0,105.59,14.016Z" transform="translate(503 2404)" fill="#0e494d"/>
    <path id="Trazado_725459" data-name="Trazado 725459" d="M22.2,12.992V17H19.859V5.625H24.3a5.134,5.134,0,0,1,2.254.469,3.454,3.454,0,0,1,1.5,1.332,3.714,3.714,0,0,1,.523,1.965,3.266,3.266,0,0,1-1.145,2.637,4.767,4.767,0,0,1-3.168.965Zm0-1.9H24.3a2.059,2.059,0,0,0,1.418-.437,1.591,1.591,0,0,0,.488-1.25,1.876,1.876,0,0,0-.492-1.352,1.839,1.839,0,0,0-1.359-.531H22.2Zm12.188,1.742H32.523V17H30.18V5.625h4.227a4.778,4.778,0,0,1,3.109.9,3.1,3.1,0,0,1,1.094,2.539,3.5,3.5,0,0,1-.5,1.941,3.437,3.437,0,0,1-1.527,1.238l2.461,4.648V17H36.523Zm-1.867-1.9h1.891a1.936,1.936,0,0,0,1.367-.449,1.606,1.606,0,0,0,.484-1.238,1.719,1.719,0,0,0-.457-1.266,1.9,1.9,0,0,0-1.4-.461H32.523Zm17.211.633a6.867,6.867,0,0,1-.594,2.945,4.472,4.472,0,0,1-1.7,1.953,5.021,5.021,0,0,1-5.059.008,4.515,4.515,0,0,1-1.719-1.941,6.67,6.67,0,0,1-.617-2.9V11.07a6.831,6.831,0,0,1,.605-2.957,4.508,4.508,0,0,1,1.711-1.961,5.014,5.014,0,0,1,5.055,0,4.508,4.508,0,0,1,1.711,1.961,6.811,6.811,0,0,1,.605,2.949Zm-2.375-.516a4.787,4.787,0,0,0-.641-2.719,2.263,2.263,0,0,0-3.648-.012,4.732,4.732,0,0,0-.648,2.691v.555a4.847,4.847,0,0,0,.641,2.7,2.243,2.243,0,0,0,3.656.035,4.819,4.819,0,0,0,.641-2.7ZM51.438,17V5.625h3.5a5.315,5.315,0,0,1,2.684.676,4.712,4.712,0,0,1,1.848,1.922,5.928,5.928,0,0,1,.664,2.832v.523a5.945,5.945,0,0,1-.652,2.82,4.672,4.672,0,0,1-1.84,1.914,5.355,5.355,0,0,1-2.68.688Zm2.344-9.477v7.594h1.133a2.545,2.545,0,0,0,2.1-.9,4.06,4.06,0,0,0,.742-2.57v-.6a4.124,4.124,0,0,0-.719-2.629,2.537,2.537,0,0,0-2.1-.895Zm16.664-1.9v7.492a3.836,3.836,0,0,1-1.168,2.953,4.5,4.5,0,0,1-3.191,1.086A4.553,4.553,0,0,1,62.922,16.1a3.77,3.77,0,0,1-1.2-2.9V5.625H64.07v7.508a2.167,2.167,0,0,0,.535,1.629,2.054,2.054,0,0,0,1.48.512q1.977,0,2.008-2.078V5.625ZM81.3,13.211A4.025,4.025,0,0,1,79.941,16.1a4.76,4.76,0,0,1-3.223,1.055,4.28,4.28,0,0,1-3.441-1.473,6.038,6.038,0,0,1-1.254-4.043v-.7A6.819,6.819,0,0,1,72.6,8.055a4.332,4.332,0,0,1,1.652-1.918,5.164,5.164,0,0,1,5.668.387,4.326,4.326,0,0,1,1.391,2.961H78.969a2.376,2.376,0,0,0-.613-1.6,2.271,2.271,0,0,0-1.605-.5A1.991,1.991,0,0,0,75,8.23a4.707,4.707,0,0,0-.6,2.605V11.7a5.038,5.038,0,0,0,.559,2.7,1.954,1.954,0,0,0,1.762.852,2.314,2.314,0,0,0,1.621-.5,2.241,2.241,0,0,0,.613-1.535Zm9.875-5.687H87.688V17H85.344V7.523H81.906v-1.9h9.266Zm10.461,4.047a6.867,6.867,0,0,1-.594,2.945,4.472,4.472,0,0,1-1.7,1.953,5.021,5.021,0,0,1-5.059.008,4.515,4.515,0,0,1-1.719-1.941,6.67,6.67,0,0,1-.617-2.9V11.07a6.831,6.831,0,0,1,.605-2.957,4.508,4.508,0,0,1,1.711-1.961,5.014,5.014,0,0,1,5.055,0,4.508,4.508,0,0,1,1.711,1.961,6.811,6.811,0,0,1,.605,2.949Zm-2.375-.516a4.787,4.787,0,0,0-.641-2.719,2.263,2.263,0,0,0-3.648-.012,4.732,4.732,0,0,0-.648,2.691v.555a4.847,4.847,0,0,0,.641,2.7,2.243,2.243,0,0,0,3.656.035,4.819,4.819,0,0,0,.641-2.7Zm9.977,2.961a1.2,1.2,0,0,0-.469-1.02,6.148,6.148,0,0,0-1.687-.75,11.963,11.963,0,0,1-1.93-.777,3.153,3.153,0,0,1-1.937-2.82A2.747,2.747,0,0,1,103.73,7a3.389,3.389,0,0,1,1.492-1.129,5.616,5.616,0,0,1,2.184-.406,5.112,5.112,0,0,1,2.172.441,3.458,3.458,0,0,1,1.48,1.246,3.261,3.261,0,0,1,.527,1.828h-2.344a1.534,1.534,0,0,0-.492-1.215,2.023,2.023,0,0,0-1.383-.434,2.162,2.162,0,0,0-1.336.363,1.146,1.146,0,0,0-.477.957,1.1,1.1,0,0,0,.559.93,6.311,6.311,0,0,0,1.645.7,7.106,7.106,0,0,1,2.914,1.492A2.972,2.972,0,0,1,111.586,14a2.737,2.737,0,0,1-1.117,2.316,4.891,4.891,0,0,1-3.008.84,5.808,5.808,0,0,1-2.391-.48,3.783,3.783,0,0,1-1.645-1.316,3.371,3.371,0,0,1-.566-1.937h2.352q0,1.883,2.25,1.883a2.189,2.189,0,0,0,1.3-.34A1.106,1.106,0,0,0,109.234,14.016Z" transform="translate(926 2404)" fill="#0e494d"/>
    <path id="Trazado_725460" data-name="Trazado 725460" d="M17.639,16.361h-5.93V20.1h7V23H7.939V7.359h10.8v2.911H11.709v3.3h5.93Zm7.154,4.061a1.61,1.61,0,0,0,1.182-.414,1.517,1.517,0,0,0,.408-1.155h3.395a4.018,4.018,0,0,1-1.37,3.137,5.1,5.1,0,0,1-3.529,1.225,5.158,5.158,0,0,1-4-1.59,6.264,6.264,0,0,1-1.461-4.4v-.15a7.08,7.08,0,0,1,.65-3.11,4.732,4.732,0,0,1,1.875-2.073,5.589,5.589,0,0,1,2.9-.725,5.03,5.03,0,0,1,3.6,1.257,4.458,4.458,0,0,1,1.332,3.405H26.383a1.987,1.987,0,0,0-.44-1.386,1.52,1.52,0,0,0-1.182-.483q-1.407,0-1.644,1.794a12.658,12.658,0,0,0-.075,1.568,4.972,4.972,0,0,0,.419,2.428A1.45,1.45,0,0,0,24.793,20.422Zm13.438,1.321a3.732,3.732,0,0,1-3.1,1.472,3.661,3.661,0,0,1-2.9-1.112,4.676,4.676,0,0,1-.983-3.2v-7.53h3.62v7.552a1.3,1.3,0,0,0,1.45,1.493,1.892,1.892,0,0,0,1.772-.892V11.377h3.642V23H38.339ZM50.263,23a4.088,4.088,0,0,1-.344-1.042,3.366,3.366,0,0,1-2.793,1.257,4.124,4.124,0,0,1-2.793-.994,3.163,3.163,0,0,1-1.149-2.5,3.251,3.251,0,0,1,1.4-2.857,7.114,7.114,0,0,1,4.061-.967h1.117v-.615q0-1.608-1.386-1.608a1.133,1.133,0,0,0-1.289,1.274h-3.62A3.245,3.245,0,0,1,44.9,12.214a6.027,6.027,0,0,1,3.658-1.051,5.284,5.284,0,0,1,3.513,1.085,3.772,3.772,0,0,1,1.321,2.976v5.146a5.269,5.269,0,0,0,.494,2.449V23ZM48,20.637a2.019,2.019,0,0,0,1.123-.29,1.818,1.818,0,0,0,.639-.655V17.833H48.706q-1.891,0-1.891,1.7a1.036,1.036,0,0,0,.333.8A1.205,1.205,0,0,0,48,20.637Zm12.311-.215a1.61,1.61,0,0,0,1.182-.414,1.517,1.517,0,0,0,.408-1.155h3.395a4.018,4.018,0,0,1-1.37,3.137,5.1,5.1,0,0,1-3.529,1.225,5.158,5.158,0,0,1-4-1.59,6.264,6.264,0,0,1-1.461-4.4v-.15a7.08,7.08,0,0,1,.65-3.11,4.732,4.732,0,0,1,1.875-2.073,5.589,5.589,0,0,1,2.9-.725,5.03,5.03,0,0,1,3.6,1.257,4.458,4.458,0,0,1,1.332,3.405H61.9a1.987,1.987,0,0,0-.44-1.386,1.52,1.52,0,0,0-1.182-.483q-1.407,0-1.644,1.794a12.659,12.659,0,0,0-.075,1.568,4.972,4.972,0,0,0,.419,2.428A1.45,1.45,0,0,0,60.307,20.422ZM70.641,23H67.01V11.377h3.631ZM66.8,8.38a1.616,1.616,0,0,1,.559-1.268,2.375,2.375,0,0,1,2.9,0,1.616,1.616,0,0,1,.559,1.268,1.616,1.616,0,0,1-.559,1.268,2.375,2.375,0,0,1-2.9,0A1.616,1.616,0,0,1,66.8,8.38Zm5.618,8.7a6.86,6.86,0,0,1,.677-3.1,4.84,4.84,0,0,1,1.944-2.089,5.856,5.856,0,0,1,2.976-.73,5.344,5.344,0,0,1,4.114,1.617,6.2,6.2,0,0,1,1.5,4.4v.129a6.019,6.019,0,0,1-1.509,4.313,5.359,5.359,0,0,1-4.087,1.6,5.42,5.42,0,0,1-3.985-1.488,5.819,5.819,0,0,1-1.622-4.034Zm3.62.226a4.325,4.325,0,0,0,.5,2.363,1.682,1.682,0,0,0,1.493.752q1.934,0,1.977-2.976v-.365q0-3.126-2-3.126-1.815,0-1.966,2.7ZM78.5,6.5h3.824L79.342,9.873l-2.954-.005Zm10.044,4.877.118,1.364a3.942,3.942,0,0,1,3.319-1.579A3.316,3.316,0,0,1,94.7,12.247a5.165,5.165,0,0,1,.929,3.266V23H92V15.663a1.961,1.961,0,0,0-.354-1.294,1.64,1.64,0,0,0-1.289-.414,1.726,1.726,0,0,0-1.579.838V23h-3.62V11.377Zm14.1,5.693a6.977,6.977,0,0,1,1.2-4.34,3.952,3.952,0,0,1,3.319-1.568,3.375,3.375,0,0,1,2.857,1.461l.258-1.246h3.137V27.469H109.8V22.033a3.37,3.37,0,0,1-2.643,1.182,3.917,3.917,0,0,1-3.282-1.6A7.366,7.366,0,0,1,102.653,17.07Zm3.62.226q0,3.126,1.8,3.126a1.748,1.748,0,0,0,1.719-.945v-4.6a1.71,1.71,0,0,0-1.7-.924q-1.687,0-1.815,2.7ZM122.4,21.743a3.732,3.732,0,0,1-3.1,1.472,3.661,3.661,0,0,1-2.9-1.112,4.676,4.676,0,0,1-.983-3.2v-7.53h3.62v7.552a1.3,1.3,0,0,0,1.45,1.493,1.892,1.892,0,0,0,1.772-.892V11.377H125.9V23H122.5ZM131.829,23h-3.642V11.377h3.642ZM130.475,6.715H134.3l-2.986,3.373-2.954-.005Zm7.1,4.662.118,1.364a4,4,0,0,1,3.319-1.579,2.942,2.942,0,0,1,2.976,1.751,3.868,3.868,0,0,1,3.416-1.751q3.534,0,3.631,4.275V23H147.4V15.663a2.216,2.216,0,0,0-.3-1.3,1.28,1.28,0,0,0-1.1-.408,1.715,1.715,0,0,0-1.6.956l.011.15V23h-3.631V15.685a2.329,2.329,0,0,0-.29-1.321,1.277,1.277,0,0,0-1.106-.408,1.736,1.736,0,0,0-1.59.956V23h-3.62V11.377ZM156.922,23h-3.631V11.377h3.631ZM153.077,8.38a1.616,1.616,0,0,1,.559-1.268,2.375,2.375,0,0,1,2.9,0,1.616,1.616,0,0,1,.559,1.268,1.616,1.616,0,0,1-.559,1.268,2.375,2.375,0,0,1-2.9,0A1.616,1.616,0,0,1,153.077,8.38Zm10.989,12.042a1.61,1.61,0,0,0,1.182-.414,1.517,1.517,0,0,0,.408-1.155h3.395a4.018,4.018,0,0,1-1.37,3.137,5.1,5.1,0,0,1-3.529,1.225,5.158,5.158,0,0,1-4-1.59,6.264,6.264,0,0,1-1.461-4.4v-.15a7.08,7.08,0,0,1,.65-3.11,4.732,4.732,0,0,1,1.875-2.073,5.589,5.589,0,0,1,2.9-.725,5.03,5.03,0,0,1,3.6,1.257,4.458,4.458,0,0,1,1.332,3.405h-3.395a1.987,1.987,0,0,0-.44-1.386,1.52,1.52,0,0,0-1.182-.483q-1.407,0-1.644,1.794a12.659,12.659,0,0,0-.075,1.568,4.972,4.972,0,0,0,.419,2.428A1.45,1.45,0,0,0,164.066,20.422ZM177.128,23a4.088,4.088,0,0,1-.344-1.042,3.366,3.366,0,0,1-2.793,1.257,4.124,4.124,0,0,1-2.793-.994,3.163,3.163,0,0,1-1.149-2.5,3.251,3.251,0,0,1,1.4-2.857,7.114,7.114,0,0,1,4.061-.967h1.117v-.615q0-1.608-1.386-1.608a1.133,1.133,0,0,0-1.289,1.274h-3.62a3.245,3.245,0,0,1,1.434-2.736,6.027,6.027,0,0,1,3.658-1.051,5.284,5.284,0,0,1,3.513,1.085,3.772,3.772,0,0,1,1.321,2.976v5.146a5.269,5.269,0,0,0,.494,2.449V23Zm-2.267-2.363a2.019,2.019,0,0,0,1.123-.29,1.818,1.818,0,0,0,.639-.655V17.833h-1.053q-1.891,0-1.891,1.7a1.036,1.036,0,0,0,.333.8A1.205,1.205,0,0,0,174.862,20.637Z" transform="translate(689 2390)" fill="#0e494d"/>
    <path id="Trazado_725461" data-name="Trazado 725461" d="M14.617,13.211A4.025,4.025,0,0,1,13.262,16.1a4.76,4.76,0,0,1-3.223,1.055A4.28,4.28,0,0,1,6.6,15.684a6.038,6.038,0,0,1-1.254-4.043v-.7a6.819,6.819,0,0,1,.578-2.891A4.332,4.332,0,0,1,7.574,6.137a4.629,4.629,0,0,1,2.5-.668,4.637,4.637,0,0,1,3.172,1.055,4.326,4.326,0,0,1,1.391,2.961H12.289a2.376,2.376,0,0,0-.613-1.6,2.271,2.271,0,0,0-1.605-.5,1.991,1.991,0,0,0-1.754.84,4.707,4.707,0,0,0-.6,2.605V11.7a5.038,5.038,0,0,0,.559,2.7,1.954,1.954,0,0,0,1.762.852,2.314,2.314,0,0,0,1.621-.5,2.241,2.241,0,0,0,.613-1.535ZM25.5,11.57a6.867,6.867,0,0,1-.594,2.945,4.472,4.472,0,0,1-1.7,1.953,5.021,5.021,0,0,1-5.059.008,4.515,4.515,0,0,1-1.719-1.941,6.67,6.67,0,0,1-.617-2.9V11.07a6.831,6.831,0,0,1,.605-2.957,4.508,4.508,0,0,1,1.711-1.961,5.014,5.014,0,0,1,5.055,0,4.508,4.508,0,0,1,1.711,1.961,6.811,6.811,0,0,1,.605,2.949Zm-2.375-.516a4.787,4.787,0,0,0-.641-2.719,2.263,2.263,0,0,0-3.648-.012,4.732,4.732,0,0,0-.648,2.691v.555a4.847,4.847,0,0,0,.641,2.7,2.243,2.243,0,0,0,3.656.035,4.819,4.819,0,0,0,.641-2.7ZM34.047,12.07h-4.5v3.047h5.281V17H27.2V5.625h7.609v1.9H29.547v2.711h4.5Zm9,.281h-4.5V17H36.2V5.625h7.406v1.9H38.547v2.938h4.5ZM47.461,17H45.117V5.625h2.344Zm11.1-3.789A4.025,4.025,0,0,1,57.207,16.1a4.76,4.76,0,0,1-3.223,1.055,4.28,4.28,0,0,1-3.441-1.473,6.038,6.038,0,0,1-1.254-4.043v-.7a6.819,6.819,0,0,1,.578-2.891A4.332,4.332,0,0,1,51.52,6.137a5.164,5.164,0,0,1,5.668.387,4.326,4.326,0,0,1,1.391,2.961H56.234a2.376,2.376,0,0,0-.613-1.6,2.271,2.271,0,0,0-1.605-.5,1.991,1.991,0,0,0-1.754.84,4.707,4.707,0,0,0-.6,2.605V11.7a5.038,5.038,0,0,0,.559,2.7,1.954,1.954,0,0,0,1.762.852,2.314,2.314,0,0,0,1.621-.5,2.241,2.241,0,0,0,.613-1.535ZM62.594,17H60.25V5.625h2.344Zm9.016-4.93h-4.5v3.047h5.281V17H64.766V5.625h7.609v1.9H67.109v2.711h4.5ZM83.016,17H80.672L76.109,9.516V17H73.766V5.625h2.344l4.57,7.5v-7.5h2.336ZM93.625,7.523H90.141V17H87.8V7.523H84.359v-1.9h9.266Zm8.18,4.547H97.3v3.047h5.281V17H94.961V5.625h7.609v1.9H97.3v2.711h4.5ZM107.945,17V5.625h3.5a5.315,5.315,0,0,1,2.684.676,4.712,4.712,0,0,1,1.848,1.922,5.928,5.928,0,0,1,.664,2.832v.523a5.945,5.945,0,0,1-.652,2.82,4.672,4.672,0,0,1-1.84,1.914,5.355,5.355,0,0,1-2.68.688Zm2.344-9.477v7.594h1.133a2.545,2.545,0,0,0,2.1-.9,4.06,4.06,0,0,0,.742-2.57v-.6a4.124,4.124,0,0,0-.719-2.629,2.537,2.537,0,0,0-2.1-.895Zm14.9,4.547h-4.5v3.047h5.281V17h-7.625V5.625h7.609v1.9h-5.266v2.711h4.5ZM25.332,41V29.625h3.984a5.232,5.232,0,0,1,3.141.793,2.712,2.712,0,0,1,1.07,2.324,2.57,2.57,0,0,1-.43,1.473,2.482,2.482,0,0,1-1.2.934,2.4,2.4,0,0,1,1.379.883,2.61,2.61,0,0,1,.5,1.625,3,3,0,0,1-1.047,2.484A4.713,4.713,0,0,1,29.754,41Zm2.344-4.953v3.07h2.008a1.938,1.938,0,0,0,1.293-.395,1.353,1.353,0,0,0,.465-1.09,1.428,1.428,0,0,0-1.617-1.586Zm0-1.656H29.41q1.773-.031,1.773-1.414a1.307,1.307,0,0,0-.449-1.113,2.363,2.363,0,0,0-1.418-.34H27.676Zm14.289,4.266H37.855L37.074,41H34.582l4.234-11.375h2.172L45.246,41H42.754Zm-3.477-1.9h2.844L39.9,32.5Zm10.164,2.359h4.977V41h-7.32V29.625h2.344Zm12.891-.461H57.434L56.652,41H54.16l4.234-11.375h2.172L64.824,41H62.332Zm-3.477-1.9H60.91L59.48,32.5ZM75.137,41H72.793L68.23,33.516V41H65.887V29.625H68.23l4.57,7.5v-7.5h2.336Zm10.977-3.789A4.025,4.025,0,0,1,84.758,40.1a4.76,4.76,0,0,1-3.223,1.055,4.28,4.28,0,0,1-3.441-1.473,6.038,6.038,0,0,1-1.254-4.043v-.7a6.819,6.819,0,0,1,.578-2.891,4.332,4.332,0,0,1,1.652-1.918,5.164,5.164,0,0,1,5.668.387,4.326,4.326,0,0,1,1.391,2.961H83.785a2.376,2.376,0,0,0-.613-1.6,2.271,2.271,0,0,0-1.605-.5,1.991,1.991,0,0,0-1.754.84,4.707,4.707,0,0,0-.6,2.605V35.7a5.038,5.038,0,0,0,.559,2.7,1.954,1.954,0,0,0,1.762.852,2.314,2.314,0,0,0,1.621-.5,2.241,2.241,0,0,0,.613-1.535ZM94.5,36.07H90v3.047h5.281V41H87.652V29.625h7.609v1.9H90v2.711h4.5Zm11.5-.5a6.867,6.867,0,0,1-.594,2.945,4.472,4.472,0,0,1-1.7,1.953,5.021,5.021,0,0,1-5.059.008,4.515,4.515,0,0,1-1.719-1.941,6.67,6.67,0,0,1-.617-2.9V35.07a6.831,6.831,0,0,1,.605-2.957,4.508,4.508,0,0,1,1.711-1.961,5.014,5.014,0,0,1,5.055,0,4.508,4.508,0,0,1,1.711,1.961A6.811,6.811,0,0,1,106,35.063Zm-2.375-.516a4.787,4.787,0,0,0-.641-2.719,2.263,2.263,0,0,0-3.648-.012,4.732,4.732,0,0,0-.648,2.691v.555a4.847,4.847,0,0,0,.641,2.7,2.243,2.243,0,0,0,3.656.035,4.819,4.819,0,0,0,.641-2.7Z" transform="translate(571 2578)" fill="#0e494d"/>
    <path id="Trazado_725462" data-name="Trazado 725462" d="M14.673,14.474H13V19H9.918V6.2h5.036a5.621,5.621,0,0,1,3.56,1.01A3.421,3.421,0,0,1,19.8,10.066a4.155,4.155,0,0,1-.541,2.213A3.837,3.837,0,0,1,17.564,13.7l2.672,5.167V19h-3.3ZM13,12.1h1.951a1.751,1.751,0,0,0,1.323-.463,1.788,1.788,0,0,0,.444-1.291,1.809,1.809,0,0,0-.448-1.3,1.735,1.735,0,0,0-1.318-.471H13ZM29.6,13.568H24.745v3.059h5.73V19H21.66V6.2h8.833V8.585H24.745v2.7H29.6ZM39,16.609H34.773L34.035,19h-3.3L35.433,6.2h2.9L43.062,19H39.748Zm-3.489-2.382h2.751l-1.38-4.438Zm18.835.439a4.673,4.673,0,0,1-.721,2.36,4.35,4.35,0,0,1-1.85,1.586,6.3,6.3,0,0,1-2.72.563,5.025,5.025,0,0,1-3.973-1.644,6.786,6.786,0,0,1-1.45-4.641v-.633a7.746,7.746,0,0,1,.655-3.292,4.961,4.961,0,0,1,1.885-2.18,5.26,5.26,0,0,1,2.848-.769,5.516,5.516,0,0,1,3.744,1.226,4.844,4.844,0,0,1,1.608,3.379H51.3a2.292,2.292,0,0,0-.589-1.679,2.422,2.422,0,0,0-1.687-.51,1.843,1.843,0,0,0-1.687.861,5.536,5.536,0,0,0-.562,2.751v.905a6.126,6.126,0,0,0,.514,2.927,1.882,1.882,0,0,0,1.771.879,2.369,2.369,0,0,0,1.626-.5,2.126,2.126,0,0,0,.6-1.591Zm11.813,0a4.673,4.673,0,0,1-.721,2.36,4.35,4.35,0,0,1-1.85,1.586,6.3,6.3,0,0,1-2.72.563A5.025,5.025,0,0,1,56.9,17.532a6.786,6.786,0,0,1-1.45-4.641v-.633A7.746,7.746,0,0,1,56.1,8.967a4.961,4.961,0,0,1,1.885-2.18,5.26,5.26,0,0,1,2.848-.769,5.516,5.516,0,0,1,3.744,1.226,4.844,4.844,0,0,1,1.608,3.379H63.109a2.292,2.292,0,0,0-.589-1.679,2.422,2.422,0,0,0-1.687-.51,1.843,1.843,0,0,0-1.687.861,5.536,5.536,0,0,0-.562,2.751v.905A6.126,6.126,0,0,0,59.1,15.88a1.882,1.882,0,0,0,1.771.879,2.369,2.369,0,0,0,1.626-.5,2.126,2.126,0,0,0,.6-1.591ZM70.905,19H67.829V6.2h3.076Zm12.981-6.135a7.546,7.546,0,0,1-.694,3.313A5.132,5.132,0,0,1,81.219,18.4a5.494,5.494,0,0,1-2.914.778,5.572,5.572,0,0,1-2.9-.751,5.123,5.123,0,0,1-1.973-2.149,7.329,7.329,0,0,1-.743-3.208v-.721a7.58,7.58,0,0,1,.69-3.318A5.119,5.119,0,0,1,75.357,6.81,5.854,5.854,0,0,1,81.188,6.8,5.211,5.211,0,0,1,83.17,9a7.362,7.362,0,0,1,.716,3.274Zm-3.138-.536a5.381,5.381,0,0,0-.637-2.9,2.044,2.044,0,0,0-1.824-.989q-2.32,0-2.452,3.48l-.009.94a5.535,5.535,0,0,0,.624,2.892,2.041,2.041,0,0,0,1.854,1.011,2.016,2.016,0,0,0,1.8-.993,5.383,5.383,0,0,0,.642-2.856ZM96.165,19H93.1l-4.535-7.963V19H85.478V6.2h3.085l4.526,7.963V6.2h3.076Zm9.22-2.391h-4.228L100.419,19h-3.3l4.693-12.8h2.9L109.445,19h-3.313ZM101.9,14.228h2.751l-1.38-4.438ZM121.064,19H118l-4.535-7.963V19h-3.085V6.2h3.085l4.526,7.963V6.2h3.076ZM65.5,36.758,67.855,31.2h3.331l-4.122,8.2V44H63.936V39.4l-4.113-8.2h3.313Zm-42.952,27.9V69H19.463V56.2h5.106a5.948,5.948,0,0,1,2.6.541,4.074,4.074,0,0,1,1.749,1.538,4.2,4.2,0,0,1,.62,2.263,3.7,3.7,0,0,1-1.34,2.993,5.561,5.561,0,0,1-3.678,1.121Zm0-2.382h2.021a1.906,1.906,0,0,0,1.367-.448,1.665,1.665,0,0,0,.47-1.266,2.059,2.059,0,0,0-.483-1.433,1.712,1.712,0,0,0-1.318-.545H22.548Zm13.386,2.2h-1.67V69H31.179V56.2h5.036a5.621,5.621,0,0,1,3.56,1.01,3.421,3.421,0,0,1,1.283,2.853,4.155,4.155,0,0,1-.541,2.213A3.837,3.837,0,0,1,38.825,63.7L41.5,68.868V69h-3.3ZM34.264,62.1h1.951a1.751,1.751,0,0,0,1.323-.463,1.788,1.788,0,0,0,.444-1.291,1.809,1.809,0,0,0-.448-1.3,1.735,1.735,0,0,0-1.318-.471H34.264Zm19.494.765a7.546,7.546,0,0,1-.694,3.313A5.132,5.132,0,0,1,51.09,68.4a5.494,5.494,0,0,1-2.914.778,5.572,5.572,0,0,1-2.9-.751A5.123,5.123,0,0,1,43.3,66.275a7.329,7.329,0,0,1-.743-3.208v-.721a7.58,7.58,0,0,1,.69-3.318,5.119,5.119,0,0,1,1.978-2.219A5.854,5.854,0,0,1,51.06,56.8,5.211,5.211,0,0,1,53.042,59a7.362,7.362,0,0,1,.716,3.274Zm-3.138-.536a5.381,5.381,0,0,0-.637-2.9,2.044,2.044,0,0,0-1.824-.989q-2.32,0-2.452,3.48l-.009.94a5.535,5.535,0,0,0,.624,2.892,2.041,2.041,0,0,0,1.854,1.011,2.016,2.016,0,0,0,1.8-.993,5.383,5.383,0,0,0,.642-2.856ZM55.349,69V56.2h4.122a6.064,6.064,0,0,1,3.05.769,5.406,5.406,0,0,1,2.114,2.171,6.554,6.554,0,0,1,.769,3.142v.589a6.592,6.592,0,0,1-.743,3.151,5.429,5.429,0,0,1-2.092,2.18,5.93,5.93,0,0,1-3.01.8Zm3.085-10.415v8.042h1.072a2.4,2.4,0,0,0,2.039-.945,4.63,4.63,0,0,0,.712-2.808V62.32a4.592,4.592,0,0,0-.712-2.795,2.442,2.442,0,0,0-2.074-.94ZM77.022,56.2v8.376a4.814,4.814,0,0,1-.606,2.465,3.929,3.929,0,0,1-1.74,1.586A6.131,6.131,0,0,1,72,69.176a5.3,5.3,0,0,1-3.683-1.213,4.326,4.326,0,0,1-1.371-3.322V56.2h3.1v8.5Q70.1,66.8,72,66.8a1.889,1.889,0,0,0,1.45-.527,2.465,2.465,0,0,0,.492-1.714V56.2ZM89.3,64.667a4.673,4.673,0,0,1-.721,2.36,4.35,4.35,0,0,1-1.85,1.586,6.3,6.3,0,0,1-2.72.563,5.025,5.025,0,0,1-3.973-1.644,6.786,6.786,0,0,1-1.45-4.641v-.633a7.746,7.746,0,0,1,.655-3.292,4.961,4.961,0,0,1,1.885-2.18,5.26,5.26,0,0,1,2.848-.769,5.516,5.516,0,0,1,3.744,1.226,4.844,4.844,0,0,1,1.608,3.379H86.251a2.292,2.292,0,0,0-.589-1.679,2.422,2.422,0,0,0-1.687-.51,1.843,1.843,0,0,0-1.687.861,5.536,5.536,0,0,0-.562,2.751v.905a6.126,6.126,0,0,0,.514,2.927,1.882,1.882,0,0,0,1.771.879,2.369,2.369,0,0,0,1.626-.5,2.126,2.126,0,0,0,.6-1.591Zm9.4-1.1H93.845v3.059h5.73V69H90.76V56.2h8.833v2.382H93.845v2.7H98.7ZM111.52,69h-3.067l-4.535-7.963V69h-3.085V56.2h3.085l4.526,7.963V56.2h3.076Z" transform="translate(718 2516)" fill="#12263f"/>
    <path id="Trazado_725463" data-name="Trazado 725463" d="M7.859,12.07h-4.5v3.047H8.641V17H1.016V5.625H8.625v1.9H3.359v2.711h4.5Zm8.055,1.945A1.2,1.2,0,0,0,15.445,13a6.148,6.148,0,0,0-1.687-.75,11.963,11.963,0,0,1-1.93-.777,3.153,3.153,0,0,1-1.937-2.82A2.747,2.747,0,0,1,10.41,7,3.389,3.389,0,0,1,11.9,5.875a5.616,5.616,0,0,1,2.184-.406,5.112,5.112,0,0,1,2.172.441,3.458,3.458,0,0,1,1.48,1.246,3.261,3.261,0,0,1,.527,1.828H15.922A1.534,1.534,0,0,0,15.43,7.77a2.023,2.023,0,0,0-1.383-.434,2.162,2.162,0,0,0-1.336.363,1.146,1.146,0,0,0-.477.957,1.1,1.1,0,0,0,.559.93,6.311,6.311,0,0,0,1.645.7,7.106,7.106,0,0,1,2.914,1.492A2.972,2.972,0,0,1,18.266,14a2.737,2.737,0,0,1-1.117,2.316,4.891,4.891,0,0,1-3.008.84,5.808,5.808,0,0,1-2.391-.48,3.783,3.783,0,0,1-1.645-1.316,3.371,3.371,0,0,1-.566-1.937h2.352q0,1.883,2.25,1.883a2.189,2.189,0,0,0,1.3-.34A1.106,1.106,0,0,0,15.914,14.016Zm12.5-6.492H24.93V17H22.586V7.523H19.148v-1.9h9.266Zm6.82,7.133H31.125L30.344,17H27.852L32.086,5.625h2.172L38.516,17H36.023Zm-3.477-1.9H34.6L33.172,8.5ZM39.578,17V5.625h3.5a5.315,5.315,0,0,1,2.684.676,4.712,4.712,0,0,1,1.848,1.922,5.928,5.928,0,0,1,.664,2.832v.523a5.945,5.945,0,0,1-.652,2.82,4.672,4.672,0,0,1-1.84,1.914A5.355,5.355,0,0,1,43.1,17Zm2.344-9.477v7.594h1.133a2.545,2.545,0,0,0,2.1-.9,4.06,4.06,0,0,0,.742-2.57v-.6a4.124,4.124,0,0,0-.719-2.629,2.537,2.537,0,0,0-2.1-.895Zm17.4,4.047a6.867,6.867,0,0,1-.594,2.945,4.472,4.472,0,0,1-1.7,1.953,5.021,5.021,0,0,1-5.059.008,4.515,4.515,0,0,1-1.719-1.941,6.67,6.67,0,0,1-.617-2.9V11.07a6.831,6.831,0,0,1,.605-2.957,4.508,4.508,0,0,1,1.711-1.961,5.014,5.014,0,0,1,5.055,0,4.508,4.508,0,0,1,1.711,1.961,6.811,6.811,0,0,1,.605,2.949Zm-2.375-.516A4.787,4.787,0,0,0,56.3,8.336a2.263,2.263,0,0,0-3.648-.012,4.732,4.732,0,0,0-.648,2.691v.555a4.847,4.847,0,0,0,.641,2.7,2.243,2.243,0,0,0,3.656.035,4.819,4.819,0,0,0,.641-2.7ZM65.008,17V5.625h3.5a5.315,5.315,0,0,1,2.684.676,4.712,4.712,0,0,1,1.848,1.922,5.928,5.928,0,0,1,.664,2.832v.523a5.945,5.945,0,0,1-.652,2.82,4.672,4.672,0,0,1-1.84,1.914,5.355,5.355,0,0,1-2.68.688Zm2.344-9.477v7.594h1.133a2.545,2.545,0,0,0,2.1-.9,4.06,4.06,0,0,0,.742-2.57v-.6a4.124,4.124,0,0,0-.719-2.629,2.537,2.537,0,0,0-2.1-.895Zm14.9,4.547h-4.5v3.047h5.281V17H75.406V5.625h7.609v1.9H77.75v2.711h4.5Zm12.563,2.586H90.7L89.922,17H87.43L91.664,5.625h2.172L98.094,17H95.6Zm-3.477-1.9H94.18L92.75,8.5Zm16.82,2.8a4.068,4.068,0,0,1-1.789,1.176,7.492,7.492,0,0,1-2.562.418,5.076,5.076,0,0,1-2.59-.645A4.3,4.3,0,0,1,99.5,14.641a6.585,6.585,0,0,1-.621-2.883v-.773a6.994,6.994,0,0,1,.574-2.949,4.248,4.248,0,0,1,1.656-1.906,5.453,5.453,0,0,1,5.7.3,4.123,4.123,0,0,1,1.352,2.809h-2.281a2.268,2.268,0,0,0-.691-1.43,2.208,2.208,0,0,0-1.473-.453,2.078,2.078,0,0,0-1.82.9,4.724,4.724,0,0,0-.633,2.672v.727a4.5,4.5,0,0,0,.68,2.7,2.327,2.327,0,0,0,1.992.914,2.6,2.6,0,0,0,1.883-.562V12.75H103.68V11.023h4.477Zm6.109-2.727H112.4V17h-2.344V5.625h4.227a4.778,4.778,0,0,1,3.109.9,3.1,3.1,0,0,1,1.094,2.539,3.5,3.5,0,0,1-.5,1.941,3.437,3.437,0,0,1-1.527,1.238l2.461,4.648V17H116.4Zm-1.867-1.9h1.891a1.936,1.936,0,0,0,1.367-.449,1.606,1.606,0,0,0,.484-1.238,1.719,1.719,0,0,0-.457-1.266,1.9,1.9,0,0,0-1.4-.461H112.4Zm14.711,1.133h-4.5v3.047h5.281V17h-7.625V5.625h7.609v1.9h-5.266v2.711h4.5Zm11.156,3.492a4.068,4.068,0,0,1-1.789,1.176,7.492,7.492,0,0,1-2.562.418,5.076,5.076,0,0,1-2.59-.645,4.3,4.3,0,0,1-1.719-1.871,6.585,6.585,0,0,1-.621-2.883v-.773a6.994,6.994,0,0,1,.574-2.949,4.248,4.248,0,0,1,1.656-1.906,5.453,5.453,0,0,1,5.7.3,4.123,4.123,0,0,1,1.352,2.809h-2.281a2.268,2.268,0,0,0-.691-1.43,2.208,2.208,0,0,0-1.473-.453,2.078,2.078,0,0,0-1.82.9,4.724,4.724,0,0,0-.633,2.672v.727a4.5,4.5,0,0,0,.68,2.7,2.327,2.327,0,0,0,1.992.914,2.6,2.6,0,0,0,1.883-.562V12.75h-2.133V11.023h4.477Zm8.32-.906h-4.109L141.7,17H139.2l4.234-11.375h2.172L149.867,17h-2.492Zm-3.477-1.9h2.844L144.523,8.5Zm16.75.453A4.025,4.025,0,0,1,158.5,16.1a4.76,4.76,0,0,1-3.223,1.055,4.281,4.281,0,0,1-3.441-1.473,6.038,6.038,0,0,1-1.254-4.043v-.7a6.819,6.819,0,0,1,.578-2.891,4.332,4.332,0,0,1,1.652-1.918,5.164,5.164,0,0,1,5.668.387,4.326,4.326,0,0,1,1.391,2.961h-2.344a2.376,2.376,0,0,0-.613-1.6,2.271,2.271,0,0,0-1.605-.5,1.991,1.991,0,0,0-1.754.84,4.707,4.707,0,0,0-.6,2.605V11.7a5.038,5.038,0,0,0,.559,2.7,1.954,1.954,0,0,0,1.762.852,2.314,2.314,0,0,0,1.621-.5,2.241,2.241,0,0,0,.613-1.535ZM163.891,17h-2.344V5.625h2.344Zm11.516-5.43a6.867,6.867,0,0,1-.594,2.945,4.471,4.471,0,0,1-1.7,1.953,5.021,5.021,0,0,1-5.059.008,4.515,4.515,0,0,1-1.719-1.941,6.67,6.67,0,0,1-.617-2.9V11.07a6.831,6.831,0,0,1,.605-2.957,4.508,4.508,0,0,1,1.711-1.961,5.014,5.014,0,0,1,5.055,0A4.508,4.508,0,0,1,174.8,8.113a6.811,6.811,0,0,1,.605,2.949Zm-2.375-.516a4.787,4.787,0,0,0-.641-2.719,2.263,2.263,0,0,0-3.648-.012,4.732,4.732,0,0,0-.648,2.691v.555a4.847,4.847,0,0,0,.641,2.7,2.243,2.243,0,0,0,3.656.035,4.819,4.819,0,0,0,.641-2.7Zm-2.016-8.477h2.461L171.313,5h-1.836ZM186.359,17h-2.344l-4.562-7.484V17h-2.344V5.625h2.344l4.57,7.5v-7.5h2.336Z" transform="translate(945 2578)" fill="#12263f"/>
    <path id="Trazado_725464" data-name="Trazado 725464" d="M0,0H47.284" transform="translate(1040.96 2413.5)" fill="none" stroke="#feb12e" stroke-width="2" stroke-dasharray="6"/>
    <path id="Trazado_725465" data-name="Trazado 725465" d="M0,23V0" transform="translate(1088.244 2412.5)" fill="none" stroke="#feb12e" stroke-width="2" stroke-dasharray="6"/>
    <g id="Trazado_725466" data-name="Trazado 725466" transform="matrix(-1, 0.017, -0.017, -1, 1096.274, 2445.19)" fill="#feb12e">
      <path d="M 14.45575714111328 9.803838729858398 L 0.999997615814209 9.803838729858398 L 7.727877616882324 0.8333317637443542 L 14.45575714111328 9.803838729858398 Z" stroke="none"/>
      <path d="M 7.727877616882324 1.666665077209473 L 1.999998092651367 9.303838729858398 L 13.45575714111328 9.303838729858398 L 7.727877616882324 1.666665077209473 M 7.727877616882324 -1.9073486328125e-06 L 15.45575714111328 10.3038387298584 L -1.9073486328125e-06 10.3038387298584 L 7.727877616882324 -1.9073486328125e-06 Z" stroke="none" fill="#feb12e"/>
    </g>
    <path id="Trazado_725467" data-name="Trazado 725467" d="M0,0H112" transform="translate(718.244 2460.5)" fill="none" stroke="#707070" stroke-width="3" stroke-dasharray="6"/>
    <g id="Trazado_725468" data-name="Trazado 725468" transform="matrix(0.017, 1, -1, 0.017, 839.546, 2452.684)" fill="#707070">
      <path d="M 14.45575714111328 9.803838729858398 L 0.999997615814209 9.803838729858398 L 7.727877616882324 0.8333317637443542 L 14.45575714111328 9.803838729858398 Z" stroke="none"/>
      <path d="M 7.727877616882324 1.666665077209473 L 1.999998092651367 9.303838729858398 L 13.45575714111328 9.303838729858398 L 7.727877616882324 1.666665077209473 M 7.727877616882324 -1.9073486328125e-06 L 15.45575714111328 10.3038387298584 L -1.9073486328125e-06 10.3038387298584 L 7.727877616882324 -1.9073486328125e-06 Z" stroke="none" fill="#707070"/>
    </g>
    <path id="Trazado_725469" data-name="Trazado 725469" d="M46.47,0H0" transform="translate(894.274 2413.5)" fill="none" stroke="#feb12e" stroke-width="2" stroke-dasharray="6"/>
    <path id="Trazado_725470" data-name="Trazado 725470" d="M0,23V0" transform="translate(894.274 2412.5)" fill="none" stroke="#feb12e" stroke-width="2" stroke-dasharray="6"/>
    <g id="Trazado_725471" data-name="Trazado 725471" transform="matrix(-1, -0.017, 0.017, -1, 901.697, 2445.46)" fill="#feb12e">
      <path d="M 14.45575428009033 9.80376148223877 L 1.000003218650818 9.80376148223877 L 7.727878570556641 0.8333303928375244 L 14.45575428009033 9.80376148223877 Z" stroke="none"/>
      <path d="M 7.727878570556641 1.666659355163574 L 2.000007629394531 9.30376148223877 L 13.45574951171875 9.30376148223877 L 7.727878570556641 1.666659355163574 M 7.727878570556641 9.5367431640625e-07 L 15.4557580947876 10.30376148223877 L -9.5367431640625e-07 10.30376148223877 L 7.727878570556641 9.5367431640625e-07 Z" stroke="none" fill="#feb12e"/>
    </g>
    <path id="Trazado_725472" data-name="Trazado 725472" d="M0,0H49.076" transform="translate(614.168 2413.5)" fill="none" stroke="#feb12e" stroke-width="2" stroke-dasharray="6"/>
    <path id="Trazado_725473" data-name="Trazado 725473" d="M0,23V0" transform="translate(663.244 2412.5)" fill="none" stroke="#feb12e" stroke-width="2" stroke-dasharray="6"/>
    <g id="Trazado_725474" data-name="Trazado 725474" transform="matrix(-1, 0.017, -0.017, -1, 671.274, 2445.19)" fill="#feb12e">
      <path d="M 14.45575714111328 9.803838729858398 L 0.999997615814209 9.803838729858398 L 7.727877616882324 0.8333317637443542 L 14.45575714111328 9.803838729858398 Z" stroke="none"/>
      <path d="M 7.727877616882324 1.666665077209473 L 1.999998092651367 9.303838729858398 L 13.45575714111328 9.303838729858398 L 7.727877616882324 1.666665077209473 M 7.727877616882324 -1.9073486328125e-06 L 15.45575714111328 10.3038387298584 L -1.9073486328125e-06 10.3038387298584 L 7.727877616882324 -1.9073486328125e-06 Z" stroke="none" fill="#feb12e"/>
    </g>
    <path id="Trazado_725475" data-name="Trazado 725475" d="M49.44,0H0" transform="translate(473.274 2413.5)" fill="none" stroke="#feb12e" stroke-width="2" stroke-dasharray="6"/>
    <path id="Trazado_725476" data-name="Trazado 725476" d="M0,23V0" transform="translate(473.274 2412.5)" fill="none" stroke="#feb12e" stroke-width="2" stroke-dasharray="6"/>
    <g id="Trazado_725477" data-name="Trazado 725477" transform="matrix(-1, -0.017, 0.017, -1, 480.697, 2445.46)" fill="#feb12e">
      <path d="M 14.45575428009033 9.80376148223877 L 1.000003218650818 9.80376148223877 L 7.727878570556641 0.8333303928375244 L 14.45575428009033 9.80376148223877 Z" stroke="none"/>
      <path d="M 7.727878570556641 1.666659355163574 L 2.000007629394531 9.30376148223877 L 13.45574951171875 9.30376148223877 L 7.727878570556641 1.666659355163574 M 7.727878570556641 9.5367431640625e-07 L 15.4557580947876 10.30376148223877 L -9.5367431640625e-07 10.30376148223877 L 7.727878570556641 9.5367431640625e-07 Z" stroke="none" fill="#feb12e"/>
    </g>
    <path id="Trazado_725478" data-name="Trazado 725478" d="M0,0V66.04" transform="translate(1088.244 2504.46)" fill="none" stroke="#feb12e" stroke-width="2" stroke-dasharray="6"/>
    <g id="Trazado_725479" data-name="Trazado 725479" transform="matrix(1, 0.017, -0.017, 1, 1080.82, 2494.5)" fill="#feb12e">
      <path d="M 14.45575428009033 9.80376148223877 L 1.000003218650818 9.80376148223877 L 7.727878570556641 0.8333303928375244 L 14.45575428009033 9.80376148223877 Z" stroke="none"/>
      <path d="M 7.727878570556641 1.666659355163574 L 2.000007629394531 9.30376148223877 L 13.45574951171875 9.30376148223877 L 7.727878570556641 1.666659355163574 M 7.727878570556641 9.5367431640625e-07 L 15.4557580947876 10.30376148223877 L -9.5367431640625e-07 10.30376148223877 L 7.727878570556641 9.5367431640625e-07 Z" stroke="none" fill="#feb12e"/>
    </g>
    <path id="Trazado_725480" data-name="Trazado 725480" d="M0,0V66.04" transform="translate(663.244 2504.46)" fill="none" stroke="#feb12e" stroke-width="2" stroke-dasharray="6"/>
    <g id="Trazado_725481" data-name="Trazado 725481" transform="matrix(1, 0.017, -0.017, 1, 655.82, 2494.5)" fill="#feb12e">
      <path d="M 14.45575428009033 9.80376148223877 L 1.000003218650818 9.80376148223877 L 7.727878570556641 0.8333303928375244 L 14.45575428009033 9.80376148223877 Z" stroke="none"/>
      <path d="M 7.727878570556641 1.666659355163574 L 2.000007629394531 9.30376148223877 L 13.45574951171875 9.30376148223877 L 7.727878570556641 1.666659355163574 M 7.727878570556641 9.5367431640625e-07 L 15.4557580947876 10.30376148223877 L -9.5367431640625e-07 10.30376148223877 L 7.727878570556641 9.5367431640625e-07 Z" stroke="none" fill="#feb12e"/>
    </g>
  </g>
</svg>
