<svg xmlns="http://www.w3.org/2000/svg" width="505" height="58" viewBox="0 0 505 58">
  <g id="Grupo_957986" data-name="Grupo 957986" transform="translate(-180 -16875)">
    <path id="Trazado_725454" data-name="Trazado 725454" d="M20,0H485a20,20,0,0,1,20,20V38a20,20,0,0,1-20,20H20A20,20,0,0,1,0,38V20A20,20,0,0,1,20,0Z" transform="translate(180 16875)" fill="#badc61"/>
    <path id="Trazado_725456" data-name="Trazado 725456" d="M.539-4.289a4.954,4.954,0,0,1,.926-3.133,3,3,0,0,1,2.5-1.187,2.631,2.631,0,0,1,2.164.953l.094-.8H8.266V-.281a3.613,3.613,0,0,1-.5,1.93A3.236,3.236,0,0,1,6.344,2.9a4.985,4.985,0,0,1-2.141.43,4.635,4.635,0,0,1-1.812-.371A3.217,3.217,0,0,1,1.055,2l1-1.375A2.645,2.645,0,0,0,4.1,1.57a1.936,1.936,0,0,0,1.4-.48A1.8,1.8,0,0,0,6-.273V-.727A2.612,2.612,0,0,1,3.945.156,2.992,2.992,0,0,1,1.48-1.035,4.953,4.953,0,0,1,.539-4.2ZM2.8-4.121a3.085,3.085,0,0,0,.461,1.8,1.466,1.466,0,0,0,1.266.653A1.568,1.568,0,0,0,6-2.439V-6a1.564,1.564,0,0,0-1.461-.775,1.476,1.476,0,0,0-1.277.665A3.477,3.477,0,0,0,2.8-4.121Zm20.266.332A4.025,4.025,0,0,1,21.707-.9,4.76,4.76,0,0,1,18.484.156a4.28,4.28,0,0,1-3.441-1.473,6.038,6.038,0,0,1-1.254-4.043v-.7a6.819,6.819,0,0,1,.578-2.891,4.332,4.332,0,0,1,1.652-1.918,4.629,4.629,0,0,1,2.5-.668,4.637,4.637,0,0,1,3.172,1.055,4.326,4.326,0,0,1,1.391,2.961H20.734a2.376,2.376,0,0,0-.613-1.6,2.271,2.271,0,0,0-1.605-.5,1.991,1.991,0,0,0-1.754.84,4.707,4.707,0,0,0-.6,2.605V-5.3a5.038,5.038,0,0,0,.559,2.7,1.954,1.954,0,0,0,1.762.852,2.314,2.314,0,0,0,1.621-.5,2.241,2.241,0,0,0,.613-1.535ZM27.61-1.7V-.619h-.128a2.237,2.237,0,0,0-1.438.465A1.889,1.889,0,0,0,25.391,1.1,1.794,1.794,0,0,1,26.726.561a1.69,1.69,0,0,1,1.376.62,2.484,2.484,0,0,1,.51,1.631,2.444,2.444,0,0,1-.28,1.171,2.01,2.01,0,0,1-.793.816,2.3,2.3,0,0,1-1.16.292,2.152,2.152,0,0,1-1.693-.729,2.83,2.83,0,0,1-.645-1.946V1.942A4.259,4.259,0,0,1,24.449.035a2.991,2.991,0,0,1,1.171-1.281,3.432,3.432,0,0,1,1.77-.458ZM26.325,1.623a1.052,1.052,0,0,0-.579.166,1,1,0,0,0-.383.439v.4a1.773,1.773,0,0,0,.26,1.03.839.839,0,0,0,.729.371.83.83,0,0,0,.686-.334,1.363,1.363,0,0,0,.262-.866,1.361,1.361,0,0,0-.264-.873A.861.861,0,0,0,26.325,1.623ZM43.2,0H40.855V-4.875h-4.57V0H33.94V-11.375h2.344v4.609h4.57v-4.609H43.2ZM47.88,5H46.563V-.077L44.991.411V-.66l2.748-.984h.141Zm6.7,0H50.035V4.1L52.182,1.81a5.3,5.3,0,0,0,.654-.843,1.354,1.354,0,0,0,.212-.684,1.013,1.013,0,0,0-.223-.695.806.806,0,0,0-.638-.253.869.869,0,0,0-.7.308,1.218,1.218,0,0,0-.257.809H49.9a2.175,2.175,0,0,1,.289-1.107,2.04,2.04,0,0,1,.818-.786,2.486,2.486,0,0,1,1.2-.285,2.354,2.354,0,0,1,1.593.492,1.741,1.741,0,0,1,.567,1.39,2.231,2.231,0,0,1-.255,1,5.571,5.571,0,0,1-.875,1.189L51.73,3.938h2.853ZM61.907-8.453l.07.945a2.971,2.971,0,0,1,2.43-1.1A2.255,2.255,0,0,1,66.649-7.32a2.9,2.9,0,0,1,2.539-1.289,2.521,2.521,0,0,1,2.047.8,3.681,3.681,0,0,1,.672,2.41V0H69.642V-5.391a1.61,1.61,0,0,0-.281-1.051,1.246,1.246,0,0,0-.992-.332,1.409,1.409,0,0,0-1.406.969L66.97,0H64.712V-5.383a1.59,1.59,0,0,0-.289-1.062,1.259,1.259,0,0,0-.984-.328,1.463,1.463,0,0,0-1.391.8V0H59.79V-8.453ZM73.29-4.3a5.013,5.013,0,0,1,.484-2.242A3.546,3.546,0,0,1,75.169-8.07a4.069,4.069,0,0,1,2.113-.539,3.849,3.849,0,0,1,2.793,1.047,4.2,4.2,0,0,1,1.207,2.844l.016.578A4.418,4.418,0,0,1,80.212-1.02,3.775,3.775,0,0,1,77.3.156,3.793,3.793,0,0,1,74.38-1.016,4.5,4.5,0,0,1,73.29-4.2Zm2.258.16A3.16,3.16,0,0,0,76-2.3a1.5,1.5,0,0,0,1.3.638,1.5,1.5,0,0,0,1.281-.63,3.457,3.457,0,0,0,.461-2.015,3.128,3.128,0,0,0-.461-1.831,1.5,1.5,0,0,0-1.3-.649A1.474,1.474,0,0,0,76-6.144,3.516,3.516,0,0,0,75.548-4.144ZM85.071,0H82.806V-12h2.266ZM99.993-3.789A4.025,4.025,0,0,1,98.638-.9,4.76,4.76,0,0,1,95.415.156a4.28,4.28,0,0,1-3.441-1.473A6.038,6.038,0,0,1,90.72-5.359v-.7A6.819,6.819,0,0,1,91.3-8.945a4.332,4.332,0,0,1,1.652-1.918,4.629,4.629,0,0,1,2.5-.668,4.637,4.637,0,0,1,3.172,1.055,4.326,4.326,0,0,1,1.391,2.961H97.665a2.376,2.376,0,0,0-.613-1.6,2.271,2.271,0,0,0-1.605-.5,1.991,1.991,0,0,0-1.754.84,4.707,4.707,0,0,0-.6,2.605V-5.3a5.038,5.038,0,0,0,.559,2.7,1.954,1.954,0,0,0,1.762.852,2.314,2.314,0,0,0,1.621-.5,2.241,2.241,0,0,0,.613-1.535ZM104.541-1.7V-.619h-.128a2.237,2.237,0,0,0-1.438.465,1.889,1.889,0,0,0-.654,1.253,1.794,1.794,0,0,1,1.335-.538,1.69,1.69,0,0,1,1.376.62,2.484,2.484,0,0,1,.51,1.631,2.444,2.444,0,0,1-.28,1.171,2.01,2.01,0,0,1-.793.816,2.3,2.3,0,0,1-1.16.292,2.152,2.152,0,0,1-1.693-.729,2.83,2.83,0,0,1-.645-1.946V1.942A4.259,4.259,0,0,1,101.38.035a2.991,2.991,0,0,1,1.171-1.281,3.432,3.432,0,0,1,1.77-.458Zm-1.285,3.327a1.052,1.052,0,0,0-.579.166,1,1,0,0,0-.383.439v.4a1.773,1.773,0,0,0,.26,1.03.839.839,0,0,0,.729.371.83.83,0,0,0,.686-.334,1.363,1.363,0,0,0,.262-.866,1.361,1.361,0,0,0-.264-.873A.861.861,0,0,0,103.255,1.623ZM120.129,0h-2.344V-4.875h-4.57V0h-2.344V-11.375h2.344v4.609h4.57v-4.609h2.344Zm4.681,5h-1.317V-.077l-1.572.488V-.66l2.748-.984h.141Zm6.7,0h-4.548V4.1l2.146-2.288a5.3,5.3,0,0,0,.654-.843,1.354,1.354,0,0,0,.212-.684,1.013,1.013,0,0,0-.223-.695.806.806,0,0,0-.638-.253.869.869,0,0,0-.7.308,1.218,1.218,0,0,0-.257.809h-1.322a2.175,2.175,0,0,1,.289-1.107,2.04,2.04,0,0,1,.818-.786,2.486,2.486,0,0,1,1.2-.285,2.354,2.354,0,0,1,1.593.492A1.741,1.741,0,0,1,131.3.156a2.231,2.231,0,0,1-.255,1,5.572,5.572,0,0,1-.875,1.189l-1.508,1.59h2.853Zm7.324-13.453.07.945a2.971,2.971,0,0,1,2.43-1.1A2.255,2.255,0,0,1,143.58-7.32a2.9,2.9,0,0,1,2.539-1.289,2.521,2.521,0,0,1,2.047.8,3.681,3.681,0,0,1,.672,2.41V0h-2.266V-5.391a1.61,1.61,0,0,0-.281-1.051,1.246,1.246,0,0,0-.992-.332,1.409,1.409,0,0,0-1.406.969L143.9,0h-2.258V-5.383a1.59,1.59,0,0,0-.289-1.062,1.259,1.259,0,0,0-.984-.328,1.463,1.463,0,0,0-1.391.8V0h-2.258V-8.453ZM150.221-4.3a5.013,5.013,0,0,1,.484-2.242A3.546,3.546,0,0,1,152.1-8.07a4.069,4.069,0,0,1,2.113-.539,3.849,3.849,0,0,1,2.793,1.047,4.2,4.2,0,0,1,1.207,2.844l.016.578a4.418,4.418,0,0,1-1.086,3.121A3.775,3.775,0,0,1,154.229.156a3.793,3.793,0,0,1-2.918-1.172,4.5,4.5,0,0,1-1.09-3.187Zm2.258.16a3.16,3.16,0,0,0,.453,1.843,1.5,1.5,0,0,0,1.3.638,1.5,1.5,0,0,0,1.281-.63,3.457,3.457,0,0,0,.461-2.015,3.128,3.128,0,0,0-.461-1.831,1.5,1.5,0,0,0-1.3-.649,1.474,1.474,0,0,0-1.281.646A3.516,3.516,0,0,0,152.479-4.144ZM162,0h-2.266V-12H162Z" transform="translate(228 16908)" fill="#12263f"/>
    <path id="Trazado_725455" data-name="Trazado 725455" d="M10.273,0H7.93V-4.875H3.359V0H1.016V-11.375H3.359v4.609H7.93v-4.609h2.344ZM16.3,5H11.756V4.1L13.9,1.81a5.3,5.3,0,0,0,.654-.843,1.354,1.354,0,0,0,.212-.684,1.013,1.013,0,0,0-.223-.695.806.806,0,0,0-.638-.253.869.869,0,0,0-.7.308,1.218,1.218,0,0,0-.257.809H11.624a2.175,2.175,0,0,1,.289-1.107,2.04,2.04,0,0,1,.818-.786,2.486,2.486,0,0,1,1.2-.285,2.354,2.354,0,0,1,1.593.492A1.741,1.741,0,0,1,16.09.156a2.231,2.231,0,0,1-.255,1,5.571,5.571,0,0,1-.875,1.189l-1.508,1.59H16.3ZM30.589-3.789A4.025,4.025,0,0,1,29.233-.9,4.76,4.76,0,0,1,26.011.156a4.28,4.28,0,0,1-3.441-1.473,6.038,6.038,0,0,1-1.254-4.043v-.7a6.819,6.819,0,0,1,.578-2.891,4.332,4.332,0,0,1,1.652-1.918,4.629,4.629,0,0,1,2.5-.668,4.637,4.637,0,0,1,3.172,1.055A4.326,4.326,0,0,1,30.6-7.516H28.261a2.376,2.376,0,0,0-.613-1.6,2.271,2.271,0,0,0-1.605-.5,1.991,1.991,0,0,0-1.754.84,4.707,4.707,0,0,0-.6,2.605V-5.3a5.038,5.038,0,0,0,.559,2.7,1.954,1.954,0,0,0,1.762.852,2.314,2.314,0,0,0,1.621-.5,2.241,2.241,0,0,0,.613-1.535ZM35.136-1.7V-.619h-.128a2.237,2.237,0,0,0-1.438.465A1.889,1.889,0,0,0,32.917,1.1,1.794,1.794,0,0,1,34.252.561a1.69,1.69,0,0,1,1.376.62,2.484,2.484,0,0,1,.51,1.631,2.444,2.444,0,0,1-.28,1.171,2.01,2.01,0,0,1-.793.816,2.3,2.3,0,0,1-1.16.292,2.152,2.152,0,0,1-1.693-.729,2.83,2.83,0,0,1-.645-1.946V1.942A4.259,4.259,0,0,1,31.976.035a2.991,2.991,0,0,1,1.171-1.281,3.432,3.432,0,0,1,1.77-.458ZM33.851,1.623a1.052,1.052,0,0,0-.579.166,1,1,0,0,0-.383.439v.4a1.773,1.773,0,0,0,.26,1.03.839.839,0,0,0,.729.371.83.83,0,0,0,.686-.334,1.363,1.363,0,0,0,.262-.866,1.361,1.361,0,0,0-.264-.873A.861.861,0,0,0,33.851,1.623ZM50.725,0H48.381V-4.875h-4.57V0H41.467V-11.375h2.344v4.609h4.57v-4.609h2.344Zm5.807.129a1.543,1.543,0,0,1-.242.857,1.738,1.738,0,0,1-.665.6,1.924,1.924,0,0,1,.766.64,1.642,1.642,0,0,1,.283.959,1.739,1.739,0,0,1-.6,1.4,2.869,2.869,0,0,1-3.277,0,1.735,1.735,0,0,1-.606-1.394,1.653,1.653,0,0,1,.283-.962,1.889,1.889,0,0,1,.761-.638,1.721,1.721,0,0,1-.663-.6A1.554,1.554,0,0,1,52.33.129,1.72,1.72,0,0,1,52.9-1.223a2.225,2.225,0,0,1,1.536-.5,2.24,2.24,0,0,1,1.533.5A1.713,1.713,0,0,1,56.532.129Zm-1.18,2.958a.955.955,0,0,0-.251-.693,1,1,0,0,0-1.344,0,.954.954,0,0,0-.251.695.953.953,0,0,0,.246.684,1.028,1.028,0,0,0,1.356.009A.951.951,0,0,0,55.351,3.086ZM55.215.192A.911.911,0,0,0,55.01-.43a.728.728,0,0,0-.579-.235.733.733,0,0,0-.574.228.906.906,0,0,0-.205.629.952.952,0,0,0,.205.638.718.718,0,0,0,.579.242A.711.711,0,0,0,55.012.83.959.959,0,0,0,55.215.192ZM71.454-5.43a6.867,6.867,0,0,1-.594,2.945,4.472,4.472,0,0,1-1.7,1.953,4.7,4.7,0,0,1-2.535.688A4.732,4.732,0,0,1,64.1-.523a4.515,4.515,0,0,1-1.719-1.941,6.67,6.67,0,0,1-.617-2.9V-5.93a6.831,6.831,0,0,1,.605-2.957,4.508,4.508,0,0,1,1.711-1.961,4.706,4.706,0,0,1,2.527-.684,4.706,4.706,0,0,1,2.527.684,4.508,4.508,0,0,1,1.711,1.961,6.811,6.811,0,0,1,.605,2.949Zm-2.375-.516a4.787,4.787,0,0,0-.641-2.719,2.088,2.088,0,0,0-1.828-.93,2.088,2.088,0,0,0-1.82.918,4.732,4.732,0,0,0-.648,2.691v.555a4.847,4.847,0,0,0,.641,2.7,2.082,2.082,0,0,0,1.844.961,2.064,2.064,0,0,0,1.813-.926,4.819,4.819,0,0,0,.641-2.7ZM76.489,2.5h.752V3.565h-.752V5H75.172V3.565H72.452l-.059-.829,2.766-4.37h1.331ZM73.7,2.5h1.467V.16l-.087.15ZM89.988-4.289a4.954,4.954,0,0,1,.926-3.133,3,3,0,0,1,2.5-1.187,2.631,2.631,0,0,1,2.164.953l.094-.8h2.047V-.281a3.613,3.613,0,0,1-.5,1.93A3.236,3.236,0,0,1,95.793,2.9a4.985,4.985,0,0,1-2.141.43,4.635,4.635,0,0,1-1.812-.371A3.217,3.217,0,0,1,90.5,2l1-1.375a2.645,2.645,0,0,0,2.047.945,1.936,1.936,0,0,0,1.4-.48,1.8,1.8,0,0,0,.5-1.363V-.727a2.612,2.612,0,0,1-2.055.883A2.992,2.992,0,0,1,90.93-1.035a4.953,4.953,0,0,1-.941-3.16Zm2.258.168a3.085,3.085,0,0,0,.461,1.8,1.466,1.466,0,0,0,1.266.653,1.568,1.568,0,0,0,1.477-.775V-6a1.564,1.564,0,0,0-1.461-.775,1.476,1.476,0,0,0-1.277.665A3.477,3.477,0,0,0,92.246-4.121ZM112.84,0H110.5V-4.875h-4.57V0h-2.344V-11.375h2.344v4.609h4.57v-4.609h2.344Zm6.03,5h-4.548V4.1l2.146-2.288a5.3,5.3,0,0,0,.654-.843,1.354,1.354,0,0,0,.212-.684,1.014,1.014,0,0,0-.223-.695.806.806,0,0,0-.638-.253.869.869,0,0,0-.7.308,1.218,1.218,0,0,0-.257.809H114.19a2.175,2.175,0,0,1,.289-1.107,2.04,2.04,0,0,1,.818-.786,2.486,2.486,0,0,1,1.2-.285,2.354,2.354,0,0,1,1.593.492,1.741,1.741,0,0,1,.567,1.39,2.231,2.231,0,0,1-.255,1,5.571,5.571,0,0,1-.875,1.189l-1.508,1.59h2.853Zm14.285-8.789A4.025,4.025,0,0,1,131.8-.9,4.76,4.76,0,0,1,128.577.156a4.28,4.28,0,0,1-3.441-1.473,6.038,6.038,0,0,1-1.254-4.043v-.7a6.819,6.819,0,0,1,.578-2.891,4.332,4.332,0,0,1,1.652-1.918,4.629,4.629,0,0,1,2.5-.668,4.637,4.637,0,0,1,3.172,1.055,4.326,4.326,0,0,1,1.391,2.961h-2.344a2.376,2.376,0,0,0-.613-1.6,2.271,2.271,0,0,0-1.605-.5,1.991,1.991,0,0,0-1.754.84,4.707,4.707,0,0,0-.6,2.605V-5.3a5.038,5.038,0,0,0,.559,2.7,1.954,1.954,0,0,0,1.762.852,2.314,2.314,0,0,0,1.621-.5,2.241,2.241,0,0,0,.613-1.535ZM137.7-1.7V-.619h-.128a2.237,2.237,0,0,0-1.438.465,1.889,1.889,0,0,0-.654,1.253,1.794,1.794,0,0,1,1.335-.538,1.69,1.69,0,0,1,1.376.62,2.484,2.484,0,0,1,.51,1.631,2.444,2.444,0,0,1-.28,1.171,2.01,2.01,0,0,1-.793.816,2.3,2.3,0,0,1-1.16.292,2.152,2.152,0,0,1-1.693-.729,2.83,2.83,0,0,1-.645-1.946V1.942a4.259,4.259,0,0,1,.408-1.907,2.991,2.991,0,0,1,1.171-1.281,3.432,3.432,0,0,1,1.77-.458Zm-1.285,3.327a1.052,1.052,0,0,0-.579.166,1,1,0,0,0-.383.439v.4a1.773,1.773,0,0,0,.26,1.03.839.839,0,0,0,.729.371.83.83,0,0,0,.686-.334,1.363,1.363,0,0,0,.262-.866,1.361,1.361,0,0,0-.264-.873A.861.861,0,0,0,136.418,1.623ZM153.291,0h-2.344V-4.875h-4.57V0h-2.344V-11.375h2.344v4.609h4.57v-4.609h2.344ZM159.1.129a1.543,1.543,0,0,1-.242.857,1.738,1.738,0,0,1-.665.6,1.924,1.924,0,0,1,.766.64,1.642,1.642,0,0,1,.283.959,1.739,1.739,0,0,1-.6,1.4,2.869,2.869,0,0,1-3.277,0,1.735,1.735,0,0,1-.606-1.394,1.653,1.653,0,0,1,.283-.962,1.889,1.889,0,0,1,.761-.638,1.721,1.721,0,0,1-.663-.6A1.554,1.554,0,0,1,154.9.129a1.72,1.72,0,0,1,.565-1.351,2.225,2.225,0,0,1,1.536-.5,2.24,2.24,0,0,1,1.533.5A1.713,1.713,0,0,1,159.1.129Zm-1.18,2.958a.955.955,0,0,0-.251-.693,1,1,0,0,0-1.344,0,.954.954,0,0,0-.251.695.953.953,0,0,0,.246.684,1.028,1.028,0,0,0,1.356.009A.951.951,0,0,0,157.918,3.086ZM157.781.192a.912.912,0,0,0-.205-.622A.728.728,0,0,0,157-.664a.733.733,0,0,0-.574.228.906.906,0,0,0-.205.629.952.952,0,0,0,.205.638.718.718,0,0,0,.579.242.711.711,0,0,0,.576-.242A.959.959,0,0,0,157.781.192ZM174.021-5.43a6.867,6.867,0,0,1-.594,2.945,4.471,4.471,0,0,1-1.7,1.953,4.7,4.7,0,0,1-2.535.688,4.732,4.732,0,0,1-2.523-.68,4.515,4.515,0,0,1-1.719-1.941,6.67,6.67,0,0,1-.617-2.9V-5.93a6.831,6.831,0,0,1,.605-2.957,4.508,4.508,0,0,1,1.711-1.961,4.706,4.706,0,0,1,2.527-.684,4.706,4.706,0,0,1,2.527.684,4.508,4.508,0,0,1,1.711,1.961,6.811,6.811,0,0,1,.605,2.949Zm-2.375-.516a4.787,4.787,0,0,0-.641-2.719,2.088,2.088,0,0,0-1.828-.93,2.088,2.088,0,0,0-1.82.918,4.732,4.732,0,0,0-.648,2.691v.555a4.847,4.847,0,0,0,.641,2.7,2.082,2.082,0,0,0,1.844.961,2.064,2.064,0,0,0,1.813-.926,4.819,4.819,0,0,0,.641-2.7Zm7.41,8.448h.752V3.565h-.752V5h-1.317V3.565h-2.721l-.059-.829,2.766-4.37h1.331Zm-2.784,0h1.467V.16l-.087.15Z" transform="translate(437 16908)" fill="#12263f"/>
  </g>
</svg>
