<svg xmlns="http://www.w3.org/2000/svg" width="226" height="87" viewBox="0 0 226 87">
  <g id="Grupo_957983" data-name="Grupo 957983" transform="translate(-354 -4214)">
    <path id="Trazado_725360" data-name="Trazado 725360" d="M20,0H206a20,20,0,0,1,20,20V67a20,20,0,0,1-20,20H20A20,20,0,0,1,0,67V20A20,20,0,0,1,20,0Z" transform="translate(354 4214)" fill="#badc61"/>
    <path id="Trazado_725361" data-name="Trazado 725361" d="M9.945,13.211A4.025,4.025,0,0,1,8.59,16.1a4.76,4.76,0,0,1-3.223,1.055,4.28,4.28,0,0,1-3.441-1.473A6.038,6.038,0,0,1,.672,11.641v-.7A6.819,6.819,0,0,1,1.25,8.055,4.332,4.332,0,0,1,2.9,6.137a4.629,4.629,0,0,1,2.5-.668A4.637,4.637,0,0,1,8.57,6.523,4.326,4.326,0,0,1,9.961,9.484H7.617A2.376,2.376,0,0,0,7,7.887a2.271,2.271,0,0,0-1.605-.5,1.991,1.991,0,0,0-1.754.84,4.707,4.707,0,0,0-.6,2.605V11.7a5.038,5.038,0,0,0,.559,2.7,1.954,1.954,0,0,0,1.762.852,2.314,2.314,0,0,0,1.621-.5A2.241,2.241,0,0,0,7.6,13.211Zm20.523-2.039H23.484V9.328h6.984Zm0,3.383H23.484V12.711h6.984Zm15.039-1.344A4.025,4.025,0,0,1,44.152,16.1a4.76,4.76,0,0,1-3.223,1.055,4.28,4.28,0,0,1-3.441-1.473,6.038,6.038,0,0,1-1.254-4.043v-.7a6.819,6.819,0,0,1,.578-2.891,4.332,4.332,0,0,1,1.652-1.918,5.164,5.164,0,0,1,5.668.387,4.326,4.326,0,0,1,1.391,2.961H43.18a2.376,2.376,0,0,0-.613-1.6,2.271,2.271,0,0,0-1.605-.5,1.991,1.991,0,0,0-1.754.84,4.707,4.707,0,0,0-.6,2.605V11.7a5.038,5.038,0,0,0,.559,2.7,1.954,1.954,0,0,0,1.762.852,2.314,2.314,0,0,0,1.621-.5,2.241,2.241,0,0,0,.613-1.535ZM60.648,9.48,58.2,8.786l.461-1.413,2.43.976L60.93,5.625h1.531L62.3,8.4l2.367-.96.461,1.428-2.5.695,1.641,2.078-1.242.883-1.422-2.281-1.406,2.2-1.242-.844Z" transform="translate(391 4244)" fill="#12263f"/>
    <path id="Trazado_725362" data-name="Trazado 725362" d="M6.85,10.281a3.4,3.4,0,0,1-1.2,2.1,3.357,3.357,0,0,1-2.282.738,2.658,2.658,0,0,1-1.383-.39,2.462,2.462,0,0,1-.92-1.072A4,4,0,0,1,.7,10.105a4.967,4.967,0,0,1,.041-.937l.1-.7A5.307,5.307,0,0,1,2.194,5.433,3.408,3.408,0,0,1,4.811,4.352a2.552,2.552,0,0,1,1.9.776,3.088,3.088,0,0,1,.744,2.089h-1.1Q6.287,5.424,4.957,5.283l-.193-.012a2.264,2.264,0,0,0-1.849.823,4.457,4.457,0,0,0-.958,2.329l-.129.885-.035.516a2.9,2.9,0,0,0,.384,1.714,1.447,1.447,0,0,0,1.245.659A2.193,2.193,0,0,0,4.9,11.77,2.846,2.846,0,0,0,5.783,10.3Zm4.8-.727H9.68L9.082,13H7.975L9.457,4.469l2.566.006a2.86,2.86,0,0,1,2.045.68,2.123,2.123,0,0,1,.592,1.836A2.43,2.43,0,0,1,14.077,8.4a3.185,3.185,0,0,1-1.38.921l1.324,3.6L14.016,13H12.844ZM9.838,8.629l1.617.006a2.259,2.259,0,0,0,1.424-.448,1.745,1.745,0,0,0,.68-1.2,1.378,1.378,0,0,0-.293-1.148,1.565,1.565,0,0,0-1.16-.439L10.4,5.395Zm35.4,1.652a3.4,3.4,0,0,1-1.2,2.1,3.357,3.357,0,0,1-2.282.738,2.658,2.658,0,0,1-1.383-.39,2.462,2.462,0,0,1-.92-1.072,4,4,0,0,1-.363-1.55,4.967,4.967,0,0,1,.041-.937l.1-.7a5.307,5.307,0,0,1,1.351-3.032A3.408,3.408,0,0,1,43.2,4.352a2.552,2.552,0,0,1,1.9.776,3.088,3.088,0,0,1,.744,2.089h-1.1q-.076-1.793-1.406-1.934l-.193-.012a2.264,2.264,0,0,0-1.849.823,4.457,4.457,0,0,0-.958,2.329l-.129.885-.035.516a2.9,2.9,0,0,0,.384,1.714,1.447,1.447,0,0,0,1.245.659,2.193,2.193,0,0,0,1.474-.428,2.846,2.846,0,0,0,.888-1.471Zm2.4,1.8h3.926L51.4,13H46.371l1.482-8.531h1.107Z" transform="translate(399 4255)" fill="#12263f"/>
    <path id="Trazado_725363" data-name="Trazado 725363" d="M9.578,7.523H6.094V17H3.75V7.523H.313v-1.9H9.578ZM28.031,9.48l-2.453-.695.461-1.413,2.43.976-.156-2.724h1.531L29.688,8.4l2.367-.96.461,1.428-2.5.695,1.641,2.078-1.242.883-1.422-2.281-1.406,2.2-1.242-.844Zm11.93,3.512V17H37.617V5.625h4.438a5.134,5.134,0,0,1,2.254.469,3.454,3.454,0,0,1,1.5,1.332,3.714,3.714,0,0,1,.523,1.965,3.266,3.266,0,0,1-1.145,2.637,4.767,4.767,0,0,1-3.168.965Zm0-1.9h2.094a2.059,2.059,0,0,0,1.418-.437,1.591,1.591,0,0,0,.488-1.25,1.876,1.876,0,0,0-.492-1.352,1.839,1.839,0,0,0-1.359-.531H39.961Z" transform="translate(465 4230)" fill="#12263f"/>
    <path id="Trazado_725364" data-name="Trazado 725364" d="M7.266,10.293a3.139,3.139,0,0,1-1,2.089,3.274,3.274,0,0,1-2.235.735,3.006,3.006,0,0,1-2.423-1.084A4.361,4.361,0,0,1,.7,9.133v-.82a4.861,4.861,0,0,1,.425-2.092,3.173,3.173,0,0,1,1.2-1.386,3.353,3.353,0,0,1,1.8-.483,3.083,3.083,0,0,1,2.18.759,3.176,3.176,0,0,1,.955,2.1H6.135A2.451,2.451,0,0,0,5.5,5.73a1.924,1.924,0,0,0-1.368-.458,2.013,2.013,0,0,0-1.69.8,3.661,3.661,0,0,0-.612,2.269v.827a3.764,3.764,0,0,0,.58,2.211,1.874,1.874,0,0,0,1.623.821,2.165,2.165,0,0,0,1.438-.425,2.357,2.357,0,0,0,.665-1.479ZM9.932,12.08h4.043V13H8.8V4.469H9.932ZM45.3,10.293a3.139,3.139,0,0,1-1,2.089,3.274,3.274,0,0,1-2.235.735,3.006,3.006,0,0,1-2.423-1.084,4.361,4.361,0,0,1-.911-2.9v-.82a4.861,4.861,0,0,1,.425-2.092,3.173,3.173,0,0,1,1.2-1.386,3.353,3.353,0,0,1,1.8-.483,3.083,3.083,0,0,1,2.18.759,3.176,3.176,0,0,1,.955,2.1H44.168a2.451,2.451,0,0,0-.636-1.481,1.924,1.924,0,0,0-1.368-.458,2.013,2.013,0,0,0-1.69.8,3.661,3.661,0,0,0-.612,2.269v.827a3.764,3.764,0,0,0,.58,2.211,1.874,1.874,0,0,0,1.623.821,2.165,2.165,0,0,0,1.438-.425,2.357,2.357,0,0,0,.665-1.479Zm4.664-.744h-2V13H46.828V4.469h2.824a3.343,3.343,0,0,1,2.218.656,2.361,2.361,0,0,1,.776,1.91,2.3,2.3,0,0,1-.431,1.389,2.571,2.571,0,0,1-1.2.885l2,3.621V13H51.814Zm-2-.92h1.729a1.95,1.95,0,0,0,1.333-.434,1.469,1.469,0,0,0,.5-1.162,1.547,1.547,0,0,0-.472-1.215,2,2,0,0,0-1.362-.429H47.959Z" transform="translate(473 4238)" fill="#12263f"/>
    <path id="Trazado_725365" data-name="Trazado 725365" d="M84,0H0" transform="translate(458.5 4254.5)" fill="none" stroke="#707070" stroke-width="2"/>
    <path id="Trazado_725366" data-name="Trazado 725366" d="M9.578,7.523H6.094V17H3.75V7.523H.313v-1.9H9.578ZM28.031,9.48l-2.453-.695.461-1.413,2.43.976-.156-2.724h1.531L29.688,8.4l2.367-.96.461,1.428-2.5.695,1.641,2.078-1.242.883-1.422-2.281-1.406,2.2-1.242-.844Zm11.93,3.512V17H37.617V5.625h4.438a5.134,5.134,0,0,1,2.254.469,3.454,3.454,0,0,1,1.5,1.332,3.714,3.714,0,0,1,.523,1.965,3.266,3.266,0,0,1-1.145,2.637,4.767,4.767,0,0,1-3.168.965Zm0-1.9h2.094a2.059,2.059,0,0,0,1.418-.437,1.591,1.591,0,0,0,.488-1.25,1.876,1.876,0,0,0-.492-1.352,1.839,1.839,0,0,0-1.359-.531H39.961Z" transform="translate(465 4255)" fill="#12263f"/>
    <path id="Trazado_725367" data-name="Trazado 725367" d="M7.266,10.293a3.139,3.139,0,0,1-1,2.089,3.274,3.274,0,0,1-2.235.735,3.006,3.006,0,0,1-2.423-1.084A4.361,4.361,0,0,1,.7,9.133v-.82a4.861,4.861,0,0,1,.425-2.092,3.173,3.173,0,0,1,1.2-1.386,3.353,3.353,0,0,1,1.8-.483,3.083,3.083,0,0,1,2.18.759,3.176,3.176,0,0,1,.955,2.1H6.135A2.451,2.451,0,0,0,5.5,5.73a1.924,1.924,0,0,0-1.368-.458,2.013,2.013,0,0,0-1.69.8,3.661,3.661,0,0,0-.612,2.269v.827a3.764,3.764,0,0,0,.58,2.211,1.874,1.874,0,0,0,1.623.821,2.165,2.165,0,0,0,1.438-.425,2.357,2.357,0,0,0,.665-1.479Zm4.664-.744h-2V13H8.795V4.469h2.824a3.343,3.343,0,0,1,2.218.656,2.361,2.361,0,0,1,.776,1.91,2.3,2.3,0,0,1-.431,1.389,2.571,2.571,0,0,1-1.2.885l2,3.621V13H13.781Zm-2-.92h1.729a1.95,1.95,0,0,0,1.333-.434,1.469,1.469,0,0,0,.5-1.162,1.547,1.547,0,0,0-.472-1.215,2,2,0,0,0-1.362-.429H9.926Zm36.3,1.664a3.139,3.139,0,0,1-1,2.089A3.274,3.274,0,0,1,43,13.117a3.006,3.006,0,0,1-2.423-1.084,4.361,4.361,0,0,1-.911-2.9v-.82a4.861,4.861,0,0,1,.425-2.092,3.173,3.173,0,0,1,1.2-1.386,3.353,3.353,0,0,1,1.8-.483,3.083,3.083,0,0,1,2.18.759,3.176,3.176,0,0,1,.955,2.1H45.1a2.451,2.451,0,0,0-.636-1.481A1.924,1.924,0,0,0,43.1,5.271a2.013,2.013,0,0,0-1.69.8,3.661,3.661,0,0,0-.612,2.269v.827a3.764,3.764,0,0,0,.58,2.211A1.874,1.874,0,0,0,43,12.2a2.165,2.165,0,0,0,1.438-.425,2.357,2.357,0,0,0,.665-1.479ZM48.9,12.08h4.043V13H47.766V4.469H48.9Z" transform="translate(473 4263)" fill="#12263f"/>
  </g>
</svg>
