<svg xmlns="http://www.w3.org/2000/svg" width="634.683" height="28.091" viewBox="0 0 634.683 28.091">
  <g id="Grupo_957983" data-name="Grupo 957983" transform="translate(-180.403 -6088.909)">
    <path id="Trazado_725362" data-name="Trazado 725362" d="M1.88,13.927H6.46L6.269,15H.4L2.133,5.047H3.425ZM12.113,15a1.657,1.657,0,0,1-.048-.39l.021-.39a3.032,3.032,0,0,1-2.16.916,2.21,2.21,0,0,1-1.589-.619A1.872,1.872,0,0,1,7.779,13a2.277,2.277,0,0,1,1.029-1.835,4.38,4.38,0,0,1,2.526-.66l1.292.007.082-.588a1.352,1.352,0,0,0-.256-1.049,1.237,1.237,0,0,0-.974-.4,1.908,1.908,0,0,0-1.125.311,1.324,1.324,0,0,0-.6.858l-1.244.007A1.983,1.983,0,0,1,9.017,8.5a2.943,2.943,0,0,1,1.142-.779A3.688,3.688,0,0,1,11.6,7.46a2.452,2.452,0,0,1,1.8.7,2.173,2.173,0,0,1,.54,1.788l-.6,3.664-.034.526a2.58,2.58,0,0,0,.082.745L13.371,15Zm-1.941-.957a2.158,2.158,0,0,0,1.125-.284,2.847,2.847,0,0,0,.913-.824l.267-1.524-.937-.007a3.547,3.547,0,0,0-1.791.369,1.36,1.36,0,0,0-.7,1.046,1.059,1.059,0,0,0,.243.865A1.156,1.156,0,0,0,10.172,14.043ZM19.626,13q.1-.766-.841-1.08L17.5,11.541q-1.627-.561-1.572-1.859a2.048,2.048,0,0,1,.892-1.6,3.177,3.177,0,0,1,1.986-.612,2.649,2.649,0,0,1,1.822.653A2.068,2.068,0,0,1,21.3,9.784l-1.23-.007a1.154,1.154,0,0,0-.349-.9,1.379,1.379,0,0,0-.964-.362,1.8,1.8,0,0,0-1.107.314,1.151,1.151,0,0,0-.5.807q-.089.643.786.937l.622.171a4.005,4.005,0,0,1,1.8.854,1.632,1.632,0,0,1,.492,1.306,2.074,2.074,0,0,1-.451,1.2,2.58,2.58,0,0,1-1.094.783,3.658,3.658,0,0,1-1.456.25,2.885,2.885,0,0,1-1.941-.687,2.124,2.124,0,0,1-.738-1.733l1.237.007a1.311,1.311,0,0,0,.4,1A1.515,1.515,0,0,0,17.9,14.1a2.132,2.132,0,0,0,1.169-.284A1.091,1.091,0,0,0,19.626,13ZM25.9,11.288a5.755,5.755,0,0,1,.622-2.037,3.527,3.527,0,0,1,1.2-1.36,2.736,2.736,0,0,1,1.565-.431,2.31,2.31,0,0,1,1.9.9L31.9,4.5h1.237L31.315,15H30.188l.13-.793a2.727,2.727,0,0,1-2.16.93,2.043,2.043,0,0,1-1.634-.8,3.5,3.5,0,0,1-.656-2.082A6.648,6.648,0,0,1,25.9,11.288Zm1.189.707a2.563,2.563,0,0,0,.349,1.516,1.258,1.258,0,0,0,1.08.553,2.235,2.235,0,0,0,1.907-1.079l.588-3.414a1.535,1.535,0,0,0-1.49-1.038,1.875,1.875,0,0,0-1.289.44,2.849,2.849,0,0,0-.848,1.29A5.322,5.322,0,0,0,27.091,11.995ZM34.61,15H33.38l1.285-7.4H35.9ZM35.629,4.9a.677.677,0,0,1,.523.188.7.7,0,0,1,.208.53.73.73,0,0,1-.731.745.682.682,0,0,1-.526-.185.669.669,0,0,1-.2-.52.776.776,0,0,1,.205-.533A.723.723,0,0,1,35.629,4.9Zm5.113,2.563a2.666,2.666,0,0,1,1.593.506,2.874,2.874,0,0,1,.981,1.357,4.2,4.2,0,0,1,.215,1.89l-.014.15a4.975,4.975,0,0,1-.643,1.952,3.77,3.77,0,0,1-1.326,1.357,3.234,3.234,0,0,1-1.784.458,2.671,2.671,0,0,1-1.589-.506,2.809,2.809,0,0,1-.974-1.34,4.314,4.314,0,0,1-.219-1.866A5.04,5.04,0,0,1,37.6,9.36a3.858,3.858,0,0,1,1.336-1.418A3.2,3.2,0,0,1,40.742,7.467Zm-2.516,3.965a4.2,4.2,0,0,0,0,.9,2.194,2.194,0,0,0,.482,1.285,1.447,1.447,0,0,0,1.1.5,1.971,1.971,0,0,0,1.135-.3,2.554,2.554,0,0,0,.875-.981,4.131,4.131,0,0,0,.458-1.456,6.558,6.558,0,0,0,.021-1.06A2.277,2.277,0,0,0,41.8,9,1.479,1.479,0,0,0,40.694,8.5a2.016,2.016,0,0,0-1.627.752,3.715,3.715,0,0,0-.827,2.023ZM47.482,10.3,49.492,7.6H51.01l-2.967,3.719L49.848,15H48.5l-1.224-2.762L45.192,15H43.682l3.056-3.8-1.75-3.6h1.354ZM52.445,15h-1.23L52.5,7.6h1.23ZM53.464,4.9a.677.677,0,0,1,.523.188.7.7,0,0,1,.208.53.73.73,0,0,1-.731.745.682.682,0,0,1-.526-.185.669.669,0,0,1-.2-.52.776.776,0,0,1,.205-.533A.723.723,0,0,1,53.464,4.9ZM56.923,7.6l-.178.937a2.916,2.916,0,0,1,2.27-1.066,1.835,1.835,0,0,1,1.545.725,2.815,2.815,0,0,1,.369,1.962L60.122,15H58.885l.813-4.862a2.592,2.592,0,0,0,.007-.621,1.022,1.022,0,0,0-1.128-.976,2.329,2.329,0,0,0-1.955,1.188L55.706,15H54.469l1.285-7.4ZM66.555,15a1.657,1.657,0,0,1-.048-.39l.021-.39a3.032,3.032,0,0,1-2.16.916,2.21,2.21,0,0,1-1.589-.619A1.872,1.872,0,0,1,62.221,13a2.277,2.277,0,0,1,1.029-1.835,4.38,4.38,0,0,1,2.526-.66l1.292.007.082-.588a1.352,1.352,0,0,0-.256-1.049,1.237,1.237,0,0,0-.974-.4,1.908,1.908,0,0,0-1.125.311,1.324,1.324,0,0,0-.6.858l-1.244.007A1.983,1.983,0,0,1,63.458,8.5,2.943,2.943,0,0,1,64.6,7.723a3.688,3.688,0,0,1,1.442-.263,2.452,2.452,0,0,1,1.8.7,2.173,2.173,0,0,1,.54,1.788l-.6,3.664-.034.526a2.58,2.58,0,0,0,.082.745L67.813,15Zm-1.941-.957a2.158,2.158,0,0,0,1.125-.284,2.847,2.847,0,0,0,.913-.824l.267-1.524L65.98,11.4a3.547,3.547,0,0,0-1.791.369,1.36,1.36,0,0,0-.7,1.046,1.059,1.059,0,0,0,.243.865A1.156,1.156,0,0,0,64.613,14.043ZM74.067,13q.1-.766-.841-1.08l-1.285-.376q-1.627-.561-1.572-1.859a2.048,2.048,0,0,1,.892-1.6,3.177,3.177,0,0,1,1.986-.612,2.649,2.649,0,0,1,1.822.653,2.068,2.068,0,0,1,.673,1.665l-1.23-.007a1.154,1.154,0,0,0-.349-.9,1.379,1.379,0,0,0-.964-.362,1.8,1.8,0,0,0-1.107.314,1.151,1.151,0,0,0-.5.807q-.089.643.786.937l.622.171a4.005,4.005,0,0,1,1.8.854A1.632,1.632,0,0,1,75.3,12.9a2.074,2.074,0,0,1-.451,1.2,2.58,2.58,0,0,1-1.094.783,3.658,3.658,0,0,1-1.456.25,2.885,2.885,0,0,1-1.941-.687,2.124,2.124,0,0,1-.738-1.733l1.237.007a1.311,1.311,0,0,0,.4,1,1.515,1.515,0,0,0,1.087.376,2.132,2.132,0,0,0,1.169-.284A1.091,1.091,0,0,0,74.067,13Zm8.572.137L85.271,7.6h1.367L82.25,16.23A2.656,2.656,0,0,1,79.9,18.008a4.029,4.029,0,0,1-.745-.123l.109-1.025.321.034A1.622,1.622,0,0,0,80.6,16.63a2.426,2.426,0,0,0,.755-.94l.444-.848L80.521,7.6h1.292ZM90.515,15l1.121-6.419H90.494l.171-.978H91.8l.123-.875a2.9,2.9,0,0,1,.861-1.743,2.561,2.561,0,0,1,1.832-.643,4.274,4.274,0,0,1,.882.117L95.348,5.5a4.057,4.057,0,0,0-.663-.082,1.412,1.412,0,0,0-1.042.4,1.814,1.814,0,0,0-.5,1.06l-.109.729h1.531l-.171.978H92.866L91.752,15Zm8.88-.731a2.856,2.856,0,0,1-2.208.868,1.843,1.843,0,0,1-1.569-.759,2.9,2.9,0,0,1-.379-2L96.031,7.6h1.237l-.8,4.8a3.187,3.187,0,0,0-.014.588,1.223,1.223,0,0,0,.294.772,1,1,0,0,0,.725.3,2.219,2.219,0,0,0,2.051-1.073l.93-5.387h1.237L100.406,15H99.237Zm7.458-5.537-.581-.062A2.117,2.117,0,0,0,104.4,9.743L103.489,15h-1.237l1.285-7.4,1.2-.007-.185.861a2.211,2.211,0,0,1,1.853-1,2.27,2.27,0,0,1,.588.1ZM111.166,15a1.657,1.657,0,0,1-.048-.39l.021-.39a3.032,3.032,0,0,1-2.16.916,2.21,2.21,0,0,1-1.589-.619A1.872,1.872,0,0,1,106.832,13a2.277,2.277,0,0,1,1.029-1.835,4.38,4.38,0,0,1,2.526-.66l1.292.007.082-.588a1.352,1.352,0,0,0-.256-1.049,1.237,1.237,0,0,0-.974-.4,1.908,1.908,0,0,0-1.125.311,1.324,1.324,0,0,0-.6.858l-1.244.007a1.983,1.983,0,0,1,.506-1.152,2.943,2.943,0,0,1,1.142-.779,3.688,3.688,0,0,1,1.442-.263,2.452,2.452,0,0,1,1.8.7,2.173,2.173,0,0,1,.54,1.788l-.6,3.664-.034.526a2.58,2.58,0,0,0,.082.745l-.014.116Zm-1.941-.957a2.158,2.158,0,0,0,1.125-.284,2.847,2.847,0,0,0,.913-.824l.267-1.524-.937-.007a3.547,3.547,0,0,0-1.791.369,1.36,1.36,0,0,0-.7,1.046,1.059,1.059,0,0,0,.243.865A1.156,1.156,0,0,0,109.225,14.043ZM116.553,7.6l-.178.937a2.916,2.916,0,0,1,2.27-1.066,1.835,1.835,0,0,1,1.545.725,2.815,2.815,0,0,1,.369,1.962L119.752,15h-1.237l.813-4.862a2.592,2.592,0,0,0,.007-.621,1.022,1.022,0,0,0-1.128-.976,2.329,2.329,0,0,0-1.955,1.188L115.336,15H114.1l1.285-7.4Zm9.215-.13a2.666,2.666,0,0,1,1.593.506,2.875,2.875,0,0,1,.981,1.357,4.2,4.2,0,0,1,.215,1.89l-.014.15a4.975,4.975,0,0,1-.643,1.952,3.77,3.77,0,0,1-1.326,1.357,3.234,3.234,0,0,1-1.784.458,2.671,2.671,0,0,1-1.589-.506,2.809,2.809,0,0,1-.974-1.34,4.315,4.315,0,0,1-.219-1.866,5.04,5.04,0,0,1,.622-2.064,3.858,3.858,0,0,1,1.336-1.418A3.2,3.2,0,0,1,125.768,7.467Zm-2.516,3.965a4.2,4.2,0,0,0,0,.9,2.194,2.194,0,0,0,.482,1.285,1.447,1.447,0,0,0,1.1.5,1.971,1.971,0,0,0,1.135-.3,2.554,2.554,0,0,0,.875-.981,4.131,4.131,0,0,0,.458-1.456,6.557,6.557,0,0,0,.021-1.06,2.277,2.277,0,0,0-.5-1.306A1.479,1.479,0,0,0,125.72,8.5a2.016,2.016,0,0,0-1.627.752,3.715,3.715,0,0,0-.827,2.023ZM134.053,13q.1-.766-.841-1.08l-1.285-.376q-1.627-.561-1.572-1.859a2.048,2.048,0,0,1,.892-1.6,3.177,3.177,0,0,1,1.986-.612,2.649,2.649,0,0,1,1.822.653,2.068,2.068,0,0,1,.673,1.665l-1.23-.007a1.154,1.154,0,0,0-.349-.9,1.379,1.379,0,0,0-.964-.362,1.8,1.8,0,0,0-1.107.314,1.151,1.151,0,0,0-.5.807q-.089.643.786.937l.622.171a4.005,4.005,0,0,1,1.8.854,1.632,1.632,0,0,1,.492,1.306,2.074,2.074,0,0,1-.451,1.2,2.58,2.58,0,0,1-1.094.783,3.658,3.658,0,0,1-1.456.25,2.885,2.885,0,0,1-1.941-.687,2.124,2.124,0,0,1-.738-1.733l1.237.007a1.311,1.311,0,0,0,.4,1,1.515,1.515,0,0,0,1.087.376,2.132,2.132,0,0,0,1.169-.284A1.091,1.091,0,0,0,134.053,13Zm10.5,0q.1-.766-.841-1.08l-1.285-.376q-1.627-.561-1.572-1.859a2.048,2.048,0,0,1,.892-1.6,3.177,3.177,0,0,1,1.986-.612,2.649,2.649,0,0,1,1.822.653,2.068,2.068,0,0,1,.673,1.665L145,9.777a1.154,1.154,0,0,0-.349-.9,1.379,1.379,0,0,0-.964-.362,1.8,1.8,0,0,0-1.107.314,1.151,1.151,0,0,0-.5.807q-.089.643.786.937l.622.171a4.005,4.005,0,0,1,1.8.854,1.632,1.632,0,0,1,.492,1.306,2.074,2.074,0,0,1-.451,1.2,2.58,2.58,0,0,1-1.094.783,3.658,3.658,0,0,1-1.456.25,2.885,2.885,0,0,1-1.941-.687,2.124,2.124,0,0,1-.738-1.733l1.237.007a1.311,1.311,0,0,0,.4,1,1.515,1.515,0,0,0,1.087.376,2.132,2.132,0,0,0,1.169-.284A1.091,1.091,0,0,0,144.553,13Zm5.688,2.14a2.667,2.667,0,0,1-2.16-1.019,3.505,3.505,0,0,1-.656-2.536l.034-.294a4.921,4.921,0,0,1,.653-2.01,3.8,3.8,0,0,1,1.309-1.371,3.054,3.054,0,0,1,1.668-.441,2.352,2.352,0,0,1,1.791.759,3.121,3.121,0,0,1,.711,1.982,5.792,5.792,0,0,1-.027.889l-.075.567h-4.833a2.5,2.5,0,0,0,.332,1.709,1.57,1.57,0,0,0,1.357.731,2.631,2.631,0,0,0,2.023-.984l.711.6a3.253,3.253,0,0,1-1.2,1.049A3.4,3.4,0,0,1,150.24,15.137Zm.786-6.638a1.807,1.807,0,0,0-1.336.52,3.693,3.693,0,0,0-.906,1.606l3.6.007.027-.109a2.024,2.024,0,0,0-.277-1.432A1.3,1.3,0,0,0,151.026,8.5Zm9.905,6.638a2.667,2.667,0,0,1-2.16-1.019,3.505,3.505,0,0,1-.656-2.536l.034-.294a4.921,4.921,0,0,1,.653-2.01,3.8,3.8,0,0,1,1.309-1.371,3.054,3.054,0,0,1,1.668-.441,2.352,2.352,0,0,1,1.791.759,3.121,3.121,0,0,1,.711,1.982,5.792,5.792,0,0,1-.027.889l-.075.567h-4.833a2.5,2.5,0,0,0,.332,1.709,1.57,1.57,0,0,0,1.357.731,2.631,2.631,0,0,0,2.023-.984l.711.6a3.253,3.253,0,0,1-1.2,1.049A3.4,3.4,0,0,1,160.932,15.137Zm.786-6.638a1.807,1.807,0,0,0-1.336.52,3.693,3.693,0,0,0-.906,1.606l3.6.007.027-.109a2.024,2.024,0,0,0-.277-1.432A1.3,1.3,0,0,0,161.718,8.5Zm6.453,1.8,2.01-2.693H171.7l-2.967,3.719,1.8,3.678h-1.347l-1.224-2.762L165.881,15H164.37l3.056-3.8-1.75-3.6h1.354Zm10.322,1.039a5.868,5.868,0,0,1-.608,2.03,3.455,3.455,0,0,1-1.169,1.35,2.676,2.676,0,0,1-1.545.427,2.463,2.463,0,0,1-1.969-.868l-.663,3.568H171.3L173.079,7.6,174.2,7.6l-.137.827a2.806,2.806,0,0,1,2.194-.957,2.063,2.063,0,0,1,1.661.786,3.46,3.46,0,0,1,.629,2.092,7.36,7.36,0,0,1-.034.848Zm-1.217-.14.034-.573a2.6,2.6,0,0,0-.379-1.526,1.334,1.334,0,0,0-1.1-.556,2.194,2.194,0,0,0-1.853,1.017l-.622,3.544a1.548,1.548,0,0,0,1.5,1.01,1.946,1.946,0,0,0,1.569-.72A4.18,4.18,0,0,0,177.276,11.2Zm6.809-2.464L183.5,8.67a2.117,2.117,0,0,0-1.873,1.073L180.722,15h-1.237l1.285-7.4,1.2-.007-.185.861a2.212,2.212,0,0,1,1.853-1,2.27,2.27,0,0,1,.588.1Zm3.261,6.405a2.667,2.667,0,0,1-2.16-1.019,3.505,3.505,0,0,1-.656-2.536l.034-.294a4.921,4.921,0,0,1,.653-2.01,3.8,3.8,0,0,1,1.309-1.371,3.054,3.054,0,0,1,1.668-.441,2.352,2.352,0,0,1,1.791.759,3.121,3.121,0,0,1,.711,1.982,5.792,5.792,0,0,1-.027.889l-.075.567H185.76a2.5,2.5,0,0,0,.332,1.709,1.57,1.57,0,0,0,1.357.731,2.631,2.631,0,0,0,2.023-.984l.711.6a3.253,3.253,0,0,1-1.2,1.049A3.4,3.4,0,0,1,187.346,15.137Zm.786-6.638a1.807,1.807,0,0,0-1.336.52,3.693,3.693,0,0,0-.906,1.606l3.6.007.027-.109a2.024,2.024,0,0,0-.277-1.432A1.3,1.3,0,0,0,188.132,8.5Zm7.854,4.5q.1-.766-.841-1.08l-1.285-.376q-1.627-.561-1.572-1.859a2.048,2.048,0,0,1,.892-1.6,3.177,3.177,0,0,1,1.986-.612,2.649,2.649,0,0,1,1.822.653,2.068,2.068,0,0,1,.673,1.665l-1.23-.007a1.154,1.154,0,0,0-.349-.9,1.379,1.379,0,0,0-.964-.362,1.8,1.8,0,0,0-1.107.314,1.151,1.151,0,0,0-.5.807q-.089.643.786.937l.622.171a4.005,4.005,0,0,1,1.8.854,1.632,1.632,0,0,1,.492,1.306,2.074,2.074,0,0,1-.451,1.2,2.58,2.58,0,0,1-1.094.783,3.658,3.658,0,0,1-1.456.25,2.885,2.885,0,0,1-1.941-.687,2.124,2.124,0,0,1-.738-1.733l1.237.007a1.311,1.311,0,0,0,.4,1,1.515,1.515,0,0,0,1.087.376,2.132,2.132,0,0,0,1.169-.284A1.091,1.091,0,0,0,195.986,13ZM203,15a1.657,1.657,0,0,1-.048-.39l.021-.39a3.032,3.032,0,0,1-2.16.916,2.21,2.21,0,0,1-1.589-.619A1.872,1.872,0,0,1,198.666,13a2.277,2.277,0,0,1,1.029-1.835,4.38,4.38,0,0,1,2.526-.66l1.292.007.082-.588a1.352,1.352,0,0,0-.256-1.049,1.237,1.237,0,0,0-.974-.4,1.908,1.908,0,0,0-1.125.311,1.324,1.324,0,0,0-.6.858l-1.244.007A1.983,1.983,0,0,1,199.9,8.5a2.943,2.943,0,0,1,1.142-.779,3.688,3.688,0,0,1,1.442-.263,2.452,2.452,0,0,1,1.8.7,2.173,2.173,0,0,1,.54,1.788l-.6,3.664-.034.526a2.581,2.581,0,0,0,.082.745l-.014.116Zm-1.941-.957a2.158,2.158,0,0,0,1.125-.284,2.847,2.847,0,0,0,.913-.824l.267-1.524-.937-.007a3.547,3.547,0,0,0-1.791.369,1.36,1.36,0,0,0-.7,1.046,1.059,1.059,0,0,0,.243.865A1.156,1.156,0,0,0,201.059,14.043ZM208.387,7.6l-.178.937a2.916,2.916,0,0,1,2.27-1.066,1.835,1.835,0,0,1,1.545.725,2.815,2.815,0,0,1,.369,1.962L211.586,15h-1.237l.813-4.862a2.592,2.592,0,0,0,.007-.621,1.022,1.022,0,0,0-1.128-.976,2.329,2.329,0,0,0-1.955,1.188L207.17,15h-1.237l1.285-7.4Zm11.737,7.54a2.667,2.667,0,0,1-2.16-1.019,3.505,3.505,0,0,1-.656-2.536l.034-.294a4.921,4.921,0,0,1,.653-2.01A3.8,3.8,0,0,1,219.3,7.908a3.054,3.054,0,0,1,1.668-.441,2.352,2.352,0,0,1,1.791.759,3.121,3.121,0,0,1,.711,1.982,5.792,5.792,0,0,1-.027.889l-.075.567h-4.833a2.5,2.5,0,0,0,.332,1.709,1.57,1.57,0,0,0,1.357.731,2.631,2.631,0,0,0,2.023-.984l.711.6a3.253,3.253,0,0,1-1.2,1.049A3.4,3.4,0,0,1,220.124,15.137ZM220.91,8.5a1.807,1.807,0,0,0-1.336.52,3.693,3.693,0,0,0-.906,1.606l3.6.007.027-.109a2.024,2.024,0,0,0-.277-1.432A1.3,1.3,0,0,0,220.91,8.5Zm5.729-.9-.178.937a2.916,2.916,0,0,1,2.27-1.066,1.835,1.835,0,0,1,1.545.725,2.815,2.815,0,0,1,.369,1.962L229.838,15H228.6l.813-4.862a2.592,2.592,0,0,0,.007-.621,1.022,1.022,0,0,0-1.128-.976,2.329,2.329,0,0,0-1.955,1.188L225.422,15h-1.237l1.285-7.4Zm9.878,7.4h-1.23L237.1,4.5h1.237Zm6.549,0a1.657,1.657,0,0,1-.048-.39l.021-.39a3.032,3.032,0,0,1-2.16.916,2.21,2.21,0,0,1-1.589-.619A1.872,1.872,0,0,1,238.731,13a2.277,2.277,0,0,1,1.029-1.835,4.38,4.38,0,0,1,2.526-.66l1.292.007.082-.588a1.352,1.352,0,0,0-.256-1.049,1.237,1.237,0,0,0-.974-.4,1.908,1.908,0,0,0-1.125.311,1.324,1.324,0,0,0-.6.858l-1.244.007a1.983,1.983,0,0,1,.506-1.152,2.943,2.943,0,0,1,1.142-.779,3.688,3.688,0,0,1,1.442-.263,2.452,2.452,0,0,1,1.8.7,2.173,2.173,0,0,1,.54,1.788l-.6,3.664-.034.526a2.581,2.581,0,0,0,.082.745l-.014.116Zm-1.941-.957a2.158,2.158,0,0,0,1.125-.284,2.847,2.847,0,0,0,.913-.824l.267-1.524-.937-.007a3.547,3.547,0,0,0-1.791.369,1.36,1.36,0,0,0-.7,1.046,1.059,1.059,0,0,0,.243.865A1.156,1.156,0,0,0,241.124,14.043ZM250.578,13q.1-.766-.841-1.08l-1.285-.376q-1.627-.561-1.572-1.859a2.048,2.048,0,0,1,.892-1.6,3.177,3.177,0,0,1,1.986-.612,2.649,2.649,0,0,1,1.822.653,2.068,2.068,0,0,1,.673,1.665l-1.23-.007a1.154,1.154,0,0,0-.349-.9,1.379,1.379,0,0,0-.964-.362,1.8,1.8,0,0,0-1.107.314,1.151,1.151,0,0,0-.5.807q-.089.643.786.937l.622.171a4.005,4.005,0,0,1,1.8.854,1.632,1.632,0,0,1,.492,1.306,2.074,2.074,0,0,1-.451,1.2,2.58,2.58,0,0,1-1.094.783,3.658,3.658,0,0,1-1.456.25,2.885,2.885,0,0,1-1.941-.687,2.124,2.124,0,0,1-.738-1.733l1.237.007a1.311,1.311,0,0,0,.4,1,1.515,1.515,0,0,0,1.087.376,2.132,2.132,0,0,0,1.169-.284A1.091,1.091,0,0,0,250.578,13Zm10.5,0q.1-.766-.841-1.08l-1.285-.376q-1.627-.561-1.572-1.859a2.048,2.048,0,0,1,.892-1.6,3.177,3.177,0,0,1,1.986-.612,2.649,2.649,0,0,1,1.822.653,2.068,2.068,0,0,1,.673,1.665l-1.23-.007a1.154,1.154,0,0,0-.349-.9,1.379,1.379,0,0,0-.964-.362,1.8,1.8,0,0,0-1.107.314,1.151,1.151,0,0,0-.5.807q-.089.643.786.937l.622.171a4.005,4.005,0,0,1,1.8.854,1.632,1.632,0,0,1,.492,1.306,2.074,2.074,0,0,1-.451,1.2,2.58,2.58,0,0,1-1.094.783,3.658,3.658,0,0,1-1.456.25,2.885,2.885,0,0,1-1.941-.687,2.124,2.124,0,0,1-.738-1.733l1.237.007a1.311,1.311,0,0,0,.4,1,1.515,1.515,0,0,0,1.087.376,2.132,2.132,0,0,0,1.169-.284A1.091,1.091,0,0,0,261.078,13Zm3.828,2h-1.23l1.285-7.4h1.23Zm1.019-10.1a.677.677,0,0,1,.523.188.7.7,0,0,1,.208.53.73.73,0,0,1-.731.745.681.681,0,0,1-.526-.185.669.669,0,0,1-.2-.52.775.775,0,0,1,.205-.533A.723.723,0,0,1,265.925,4.9Zm1.367,6.385a6.028,6.028,0,0,1,.653-2.1,3.414,3.414,0,0,1,1.189-1.319,2.757,2.757,0,0,1,1.535-.407,2.276,2.276,0,0,1,1.941.971l.246-.827h1.135l-1.23,7.239a3.6,3.6,0,0,1-1.148,2.266,3.235,3.235,0,0,1-2.345.81,3.329,3.329,0,0,1-1.439-.355,2.736,2.736,0,0,1-1.083-.937l.7-.759a2.219,2.219,0,0,0,3.264.526,2.54,2.54,0,0,0,.81-1.477l.137-.656a2.8,2.8,0,0,1-2.112.875,2.175,2.175,0,0,1-1.2-.373,2.266,2.266,0,0,1-.79-1.019,4.164,4.164,0,0,1-.308-1.487A7.638,7.638,0,0,1,267.292,11.288Zm1.2.7a2.6,2.6,0,0,0,.338,1.512,1.279,1.279,0,0,0,1.083.563,2.241,2.241,0,0,0,1.907-1.086l.581-3.393a1.554,1.554,0,0,0-1.483-1.051,1.919,1.919,0,0,0-1.651.819,4.269,4.269,0,0,0-.762,2.287Zm10.828,2.281a2.856,2.856,0,0,1-2.208.868,1.843,1.843,0,0,1-1.569-.759,2.9,2.9,0,0,1-.379-2l.793-4.778h1.237l-.8,4.8a3.186,3.186,0,0,0-.014.588,1.223,1.223,0,0,0,.294.772,1,1,0,0,0,.725.3,2.219,2.219,0,0,0,2.051-1.073l.93-5.387h1.237L280.328,15h-1.169Zm4.2.731h-1.23l1.285-7.4h1.23Zm1.019-10.1a.677.677,0,0,1,.523.188.7.7,0,0,1,.208.53.73.73,0,0,1-.731.745.681.681,0,0,1-.526-.185.669.669,0,0,1-.2-.52.775.775,0,0,1,.205-.533A.723.723,0,0,1,284.532,4.9Zm4.2,10.233a2.667,2.667,0,0,1-2.16-1.019,3.505,3.505,0,0,1-.656-2.536l.034-.294a4.921,4.921,0,0,1,.653-2.01,3.8,3.8,0,0,1,1.309-1.371,3.054,3.054,0,0,1,1.668-.441,2.352,2.352,0,0,1,1.791.759,3.121,3.121,0,0,1,.711,1.982,5.794,5.794,0,0,1-.027.889l-.075.567H287.15a2.5,2.5,0,0,0,.332,1.709,1.57,1.57,0,0,0,1.357.731,2.631,2.631,0,0,0,2.023-.984l.711.6a3.254,3.254,0,0,1-1.2,1.049A3.4,3.4,0,0,1,288.736,15.137Zm.786-6.638a1.807,1.807,0,0,0-1.336.52,3.693,3.693,0,0,0-.906,1.606l3.6.007.027-.109a2.024,2.024,0,0,0-.277-1.432A1.3,1.3,0,0,0,289.522,8.5Zm5.729-.9-.178.937a2.916,2.916,0,0,1,2.27-1.066,1.835,1.835,0,0,1,1.545.725,2.815,2.815,0,0,1,.369,1.962L298.45,15h-1.237l.813-4.862a2.591,2.591,0,0,0,.007-.621,1.022,1.022,0,0,0-1.128-.976,2.329,2.329,0,0,0-1.955,1.188L294.034,15H292.8l1.285-7.4Zm8.374-1.784L303.311,7.6h1.347l-.171.978h-1.34l-.772,4.6a1.6,1.6,0,0,0-.007.328.521.521,0,0,0,.581.533,3.544,3.544,0,0,0,.6-.068l-.1,1.032a3.366,3.366,0,0,1-.9.123,1.292,1.292,0,0,1-1.107-.543,2.1,2.1,0,0,1-.287-1.425l.752-4.58H300.6l.171-.978h1.306l.314-1.791Zm4.437,9.324a2.667,2.667,0,0,1-2.16-1.019,3.505,3.505,0,0,1-.656-2.536l.034-.294a4.921,4.921,0,0,1,.653-2.01,3.8,3.8,0,0,1,1.309-1.371,3.054,3.054,0,0,1,1.668-.441,2.352,2.352,0,0,1,1.791.759,3.121,3.121,0,0,1,.711,1.982,5.794,5.794,0,0,1-.027.889l-.075.567h-4.833a2.5,2.5,0,0,0,.332,1.709,1.57,1.57,0,0,0,1.357.731,2.631,2.631,0,0,0,2.023-.984l.711.6a3.254,3.254,0,0,1-1.2,1.049A3.4,3.4,0,0,1,308.062,15.137Zm.786-6.638a1.807,1.807,0,0,0-1.336.52,3.693,3.693,0,0,0-.906,1.606l3.6.007.027-.109a2.024,2.024,0,0,0-.277-1.432A1.3,1.3,0,0,0,308.848,8.5ZM316.7,13q.1-.766-.841-1.08l-1.285-.376Q312.949,10.98,313,9.682a2.048,2.048,0,0,1,.892-1.6,3.177,3.177,0,0,1,1.986-.612,2.649,2.649,0,0,1,1.822.653,2.068,2.068,0,0,1,.673,1.665l-1.23-.007a1.154,1.154,0,0,0-.349-.9,1.379,1.379,0,0,0-.964-.362,1.8,1.8,0,0,0-1.107.314,1.151,1.151,0,0,0-.5.807q-.089.643.786.937l.622.171a4.005,4.005,0,0,1,1.8.854,1.632,1.632,0,0,1,.492,1.306,2.074,2.074,0,0,1-.451,1.2,2.58,2.58,0,0,1-1.094.783,3.658,3.658,0,0,1-1.456.25,2.885,2.885,0,0,1-1.941-.687,2.124,2.124,0,0,1-.738-1.733l1.237.007a1.311,1.311,0,0,0,.4,1,1.515,1.515,0,0,0,1.087.376,2.132,2.132,0,0,0,1.169-.284A1.091,1.091,0,0,0,316.7,13Zm10.616,1.271a2.856,2.856,0,0,1-2.208.868,1.843,1.843,0,0,1-1.569-.759,2.9,2.9,0,0,1-.379-2l.793-4.778h1.237l-.8,4.8a3.186,3.186,0,0,0-.014.588,1.223,1.223,0,0,0,.294.772,1,1,0,0,0,.725.3,2.219,2.219,0,0,0,2.051-1.073l.93-5.387h1.237L328.33,15h-1.169ZM332.63,7.6l-.178.937a2.916,2.916,0,0,1,2.27-1.066,1.835,1.835,0,0,1,1.545.725,2.815,2.815,0,0,1,.369,1.962L335.829,15h-1.237l.813-4.862a2.591,2.591,0,0,0,.007-.621,1.022,1.022,0,0,0-1.128-.976,2.329,2.329,0,0,0-1.955,1.188L331.413,15h-1.237l1.285-7.4Zm6.446,7.4h-1.23l1.285-7.4h1.23Zm1.019-10.1a.677.677,0,0,1,.523.188.7.7,0,0,1,.208.53.73.73,0,0,1-.731.745.681.681,0,0,1-.526-.185.669.669,0,0,1-.2-.52.775.775,0,0,1,.205-.533A.723.723,0,0,1,340.095,4.9Zm1.36,6.385a5.755,5.755,0,0,1,.622-2.037,3.527,3.527,0,0,1,1.2-1.36,2.736,2.736,0,0,1,1.565-.431,2.31,2.31,0,0,1,1.9.9L347.45,4.5h1.237L346.869,15h-1.128l.13-.793a2.727,2.727,0,0,1-2.16.93,2.043,2.043,0,0,1-1.634-.8,3.5,3.5,0,0,1-.656-2.082A6.646,6.646,0,0,1,341.455,11.288Zm1.189.707a2.563,2.563,0,0,0,.349,1.516,1.258,1.258,0,0,0,1.08.553,2.235,2.235,0,0,0,1.907-1.079l.588-3.414a1.535,1.535,0,0,0-1.49-1.038,1.875,1.875,0,0,0-1.289.44,2.849,2.849,0,0,0-.848,1.29A5.321,5.321,0,0,0,342.645,11.995ZM353.35,15a1.657,1.657,0,0,1-.048-.39l.021-.39a3.032,3.032,0,0,1-2.16.916,2.21,2.21,0,0,1-1.589-.619A1.872,1.872,0,0,1,349.016,13a2.277,2.277,0,0,1,1.029-1.835,4.38,4.38,0,0,1,2.526-.66l1.292.007.082-.588a1.352,1.352,0,0,0-.256-1.049,1.237,1.237,0,0,0-.974-.4,1.908,1.908,0,0,0-1.125.311,1.324,1.324,0,0,0-.6.858l-1.244.007a1.983,1.983,0,0,1,.506-1.152,2.943,2.943,0,0,1,1.142-.779,3.688,3.688,0,0,1,1.442-.263,2.452,2.452,0,0,1,1.8.7,2.173,2.173,0,0,1,.54,1.788l-.6,3.664-.034.526a2.58,2.58,0,0,0,.082.745l-.014.116Zm-1.941-.957a2.158,2.158,0,0,0,1.125-.284,2.848,2.848,0,0,0,.913-.824l.267-1.524-.937-.007a3.547,3.547,0,0,0-1.791.369,1.36,1.36,0,0,0-.7,1.046,1.059,1.059,0,0,0,.243.865A1.156,1.156,0,0,0,351.408,14.043Zm5.229-2.755a5.755,5.755,0,0,1,.622-2.037,3.527,3.527,0,0,1,1.2-1.36,2.736,2.736,0,0,1,1.565-.431,2.31,2.31,0,0,1,1.9.9l.711-3.862h1.237L362.052,15h-1.128l.13-.793a2.727,2.727,0,0,1-2.16.93,2.043,2.043,0,0,1-1.634-.8,3.5,3.5,0,0,1-.656-2.082A6.646,6.646,0,0,1,356.638,11.288Zm1.189.707a2.563,2.563,0,0,0,.349,1.516,1.258,1.258,0,0,0,1.08.553,2.235,2.235,0,0,0,1.907-1.079l.588-3.414a1.535,1.535,0,0,0-1.49-1.038,1.875,1.875,0,0,0-1.289.44,2.849,2.849,0,0,0-.848,1.29A5.321,5.321,0,0,0,357.827,11.995Zm9.379,3.142a2.667,2.667,0,0,1-2.16-1.019,3.505,3.505,0,0,1-.656-2.536l.034-.294a4.921,4.921,0,0,1,.653-2.01,3.8,3.8,0,0,1,1.309-1.371,3.054,3.054,0,0,1,1.668-.441,2.352,2.352,0,0,1,1.791.759,3.121,3.121,0,0,1,.711,1.982,5.794,5.794,0,0,1-.027.889l-.075.567H365.62a2.5,2.5,0,0,0,.332,1.709,1.57,1.57,0,0,0,1.357.731,2.631,2.631,0,0,0,2.023-.984l.711.6a3.254,3.254,0,0,1-1.2,1.049A3.4,3.4,0,0,1,367.206,15.137Zm.786-6.638a1.807,1.807,0,0,0-1.336.52,3.693,3.693,0,0,0-.906,1.606l3.6.007.027-.109A2.024,2.024,0,0,0,369.1,9.09,1.3,1.3,0,0,0,367.992,8.5Zm7.854,4.5q.1-.766-.841-1.08l-1.285-.376q-1.627-.561-1.572-1.859a2.048,2.048,0,0,1,.892-1.6,3.177,3.177,0,0,1,1.986-.612,2.649,2.649,0,0,1,1.822.653,2.068,2.068,0,0,1,.673,1.665l-1.23-.007a1.154,1.154,0,0,0-.349-.9,1.379,1.379,0,0,0-.964-.362,1.8,1.8,0,0,0-1.107.314,1.151,1.151,0,0,0-.5.807q-.089.643.786.937l.622.171a4.005,4.005,0,0,1,1.8.854,1.632,1.632,0,0,1,.492,1.306,2.074,2.074,0,0,1-.451,1.2,2.58,2.58,0,0,1-1.094.783,3.658,3.658,0,0,1-1.456.25,2.885,2.885,0,0,1-1.941-.687,2.124,2.124,0,0,1-.738-1.733l1.237.007a1.311,1.311,0,0,0,.4,1,1.515,1.515,0,0,0,1.087.376,2.132,2.132,0,0,0,1.169-.284A1.091,1.091,0,0,0,375.847,13Zm6.617-2.01a12.941,12.941,0,0,1,.837-3.076,9.532,9.532,0,0,1,1.5-2.553,6.164,6.164,0,0,1,1.982-1.6l.185.848A7.1,7.1,0,0,0,385.126,6.7,10.746,10.746,0,0,0,383.94,9.76a14.73,14.73,0,0,0-.4,3.5,7.744,7.744,0,0,0,.366,2.492,3.932,3.932,0,0,0,1.056,1.7l-.308.766a4.936,4.936,0,0,1-1.747-2.345,9.043,9.043,0,0,1-.55-3.555,10.809,10.809,0,0,1,.1-1.251ZM388.931,7.6l-.178.937a2.916,2.916,0,0,1,2.27-1.066,1.835,1.835,0,0,1,1.545.725,2.815,2.815,0,0,1,.369,1.962L392.13,15h-1.237l.813-4.862a2.591,2.591,0,0,0,.007-.621,1.022,1.022,0,0,0-1.128-.976,2.329,2.329,0,0,0-1.955,1.188L387.714,15h-1.237l1.285-7.4Zm5.469,3.691a6.028,6.028,0,0,1,.653-2.1,3.414,3.414,0,0,1,1.189-1.319,2.757,2.757,0,0,1,1.535-.407,2.276,2.276,0,0,1,1.941.971l.246-.827H401.1l-1.23,7.239a3.6,3.6,0,0,1-1.148,2.266,3.235,3.235,0,0,1-2.345.81,3.329,3.329,0,0,1-1.439-.355,2.736,2.736,0,0,1-1.083-.937l.7-.759a2.219,2.219,0,0,0,3.264.526,2.54,2.54,0,0,0,.81-1.477l.137-.656a2.8,2.8,0,0,1-2.112.875,2.175,2.175,0,0,1-1.2-.373,2.266,2.266,0,0,1-.79-1.019,4.164,4.164,0,0,1-.308-1.487A7.638,7.638,0,0,1,394.4,11.288Zm1.2.7a2.6,2.6,0,0,0,.338,1.512,1.279,1.279,0,0,0,1.083.563,2.241,2.241,0,0,0,1.907-1.086l.581-3.393a1.554,1.554,0,0,0-1.483-1.051,1.919,1.919,0,0,0-1.651.819,4.269,4.269,0,0,0-.762,2.287Zm9.338-.7h-3.247l.185-1.032h3.247ZM439.954,11a12.684,12.684,0,0,1-.868,3.155,9.486,9.486,0,0,1-1.507,2.509,6.268,6.268,0,0,1-1.945,1.555l-.191-.786a8.976,8.976,0,0,0,3.131-5.667,14.73,14.73,0,0,0,.3-3.028,5.572,5.572,0,0,0-1.422-4.2l.321-.766a4.532,4.532,0,0,1,1.3,1.418,6.69,6.69,0,0,1,.779,2.058,10.537,10.537,0,0,1,.222,2.43,11.676,11.676,0,0,1-.1,1.251Zm.991,5.988-.711-.513a4.514,4.514,0,0,0,.984-1.941L441.4,13.5h1.21l-.144.923A3.956,3.956,0,0,1,440.945,16.989Zm12.9-6.59h-4.184l-.615,3.527h4.867L453.722,15h-6.146l1.729-9.953h6.077l-.191,1.073H450.4l-.554,3.206h4.184Zm7.314,4.081,1.483,1.429-.95.772-1.736-1.661a4.775,4.775,0,0,1-1.012.109,3.069,3.069,0,0,1-1.647-.455,2.953,2.953,0,0,1-1.1-1.292,4.933,4.933,0,0,1-.434-1.911,9.087,9.087,0,0,1,.181-2.054,6.959,6.959,0,0,1,.762-2.153,5.017,5.017,0,0,1,1.306-1.548,3.885,3.885,0,0,1,2.5-.807,3.228,3.228,0,0,1,1.675.465,2.91,2.91,0,0,1,1.1,1.289,4.974,4.974,0,0,1,.431,1.911,7.341,7.341,0,0,1-.048,1.142l-.082.581A5.514,5.514,0,0,1,461.159,14.48Zm1.285-5.592a3.383,3.383,0,0,0-.472-2.1,1.81,1.81,0,0,0-1.518-.759,2.593,2.593,0,0,0-1.637.492,3.726,3.726,0,0,0-1.183,1.555,8.013,8.013,0,0,0-.584,2.622l-.021.444a4.415,4.415,0,0,0,.185,1.47,2.019,2.019,0,0,0,.673,1.039,1.9,1.9,0,0,0,1.131.376,2.588,2.588,0,0,0,2.116-.909,5.235,5.235,0,0,0,1.145-2.7A11.753,11.753,0,0,0,462.444,8.889ZM472.691,6.12h-3.1L468.057,15h-1.278l1.538-8.88h-3.1l.191-1.073h7.472Zm.6,7.444a.74.74,0,0,1,.554.205.706.706,0,0,1,.212.547.739.739,0,0,1-.226.543.813.813,0,0,1-.547.222.689.689,0,0,1-.752-.725.765.765,0,0,1,.759-.793Zm1.046-6.036a.74.74,0,0,1,.554.205.706.706,0,0,1,.212.547.739.739,0,0,1-.226.543.813.813,0,0,1-.547.222.689.689,0,0,1-.752-.725.765.765,0,0,1,.759-.793ZM485.7,10.4h-4.184l-.615,3.527h4.867L485.577,15h-6.146l1.729-9.953h6.077l-.191,1.073h-4.792L481.7,9.326h4.184Zm5.113-2.939a2.313,2.313,0,0,1,1.907.9l.226-.752h1.142l-1.777,10.24h-1.23l.67-3.527a2.8,2.8,0,0,1-2.064.82,2.062,2.062,0,0,1-1.661-.786,3.438,3.438,0,0,1-.67-2.085,6.053,6.053,0,0,1,.2-1.788,5.168,5.168,0,0,1,.714-1.641,3.186,3.186,0,0,1,1.125-1.049A2.8,2.8,0,0,1,490.813,7.46Zm-2.187,3.972-.034.574a2.592,2.592,0,0,0,.359,1.542,1.276,1.276,0,0,0,1.09.564,2.249,2.249,0,0,0,1.853-1l.643-3.637A1.579,1.579,0,0,0,491.06,8.5a1.953,1.953,0,0,0-1.579.718A4.253,4.253,0,0,0,488.626,11.432Zm10.883,2.837a2.856,2.856,0,0,1-2.208.868,1.843,1.843,0,0,1-1.569-.759,2.9,2.9,0,0,1-.379-2l.793-4.778h1.237l-.8,4.8a3.186,3.186,0,0,0-.014.588,1.223,1.223,0,0,0,.294.772,1,1,0,0,0,.725.3,2.219,2.219,0,0,0,2.051-1.073l.93-5.387h1.237L500.521,15h-1.169Zm4.2.731h-1.23l1.285-7.4h1.23Zm1.019-10.1a.677.677,0,0,1,.523.188.7.7,0,0,1,.208.53.73.73,0,0,1-.731.745.681.681,0,0,1-.526-.185.669.669,0,0,1-.2-.52.775.775,0,0,1,.205-.533A.723.723,0,0,1,504.725,4.9Zm3.691,8.367L511.082,7.6h1.306L508.662,15h-.943L506.27,7.6h1.217ZM516.8,15a1.656,1.656,0,0,1-.048-.39l.021-.39a3.032,3.032,0,0,1-2.16.916,2.21,2.21,0,0,1-1.589-.619A1.872,1.872,0,0,1,512.463,13a2.277,2.277,0,0,1,1.029-1.835,4.38,4.38,0,0,1,2.526-.66l1.292.007.082-.588a1.351,1.351,0,0,0-.256-1.049,1.237,1.237,0,0,0-.974-.4,1.908,1.908,0,0,0-1.125.311,1.324,1.324,0,0,0-.6.858l-1.244.007A1.983,1.983,0,0,1,513.7,8.5a2.943,2.943,0,0,1,1.142-.779,3.688,3.688,0,0,1,1.442-.263,2.452,2.452,0,0,1,1.8.7,2.173,2.173,0,0,1,.54,1.788l-.6,3.664-.034.526a2.582,2.582,0,0,0,.082.745l-.014.116Zm-1.941-.957a2.158,2.158,0,0,0,1.125-.284,2.847,2.847,0,0,0,.913-.824l.267-1.524-.937-.007a3.547,3.547,0,0,0-1.791.369,1.359,1.359,0,0,0-.7,1.046,1.059,1.059,0,0,0,.243.865A1.156,1.156,0,0,0,514.855,14.043Zm6.214.957h-1.23l1.818-10.5h1.237Zm5.223.137a2.667,2.667,0,0,1-2.16-1.019,3.505,3.505,0,0,1-.656-2.536l.034-.294a4.921,4.921,0,0,1,.653-2.01,3.8,3.8,0,0,1,1.309-1.371,3.054,3.054,0,0,1,1.668-.441,2.352,2.352,0,0,1,1.791.759,3.121,3.121,0,0,1,.711,1.982,5.791,5.791,0,0,1-.027.889l-.075.567h-4.833a2.5,2.5,0,0,0,.332,1.709,1.57,1.57,0,0,0,1.357.731,2.631,2.631,0,0,0,2.023-.984l.711.6a3.253,3.253,0,0,1-1.2,1.049A3.4,3.4,0,0,1,526.292,15.137Zm.786-6.638a1.807,1.807,0,0,0-1.336.52,3.693,3.693,0,0,0-.906,1.606l3.6.007.027-.109a2.023,2.023,0,0,0-.277-1.432A1.3,1.3,0,0,0,527.078,8.5Zm5.729-.9-.178.937a2.916,2.916,0,0,1,2.27-1.066,1.835,1.835,0,0,1,1.545.725,2.815,2.815,0,0,1,.369,1.962L536.006,15h-1.237l.813-4.862a2.593,2.593,0,0,0,.007-.621,1.022,1.022,0,0,0-1.128-.976,2.329,2.329,0,0,0-1.955,1.188L531.59,15h-1.237l1.285-7.4Zm8.23,6.515a1.877,1.877,0,0,0,1.2-.386,1.837,1.837,0,0,0,.7-1.049l1.169-.007a2.638,2.638,0,0,1-.557,1.271,3.22,3.22,0,0,1-2.56,1.2,2.64,2.64,0,0,1-1.562-.482,2.7,2.7,0,0,1-.94-1.306,4.351,4.351,0,0,1-.205-1.883l.034-.342a4.9,4.9,0,0,1,.622-1.907,3.6,3.6,0,0,1,1.285-1.309,3.192,3.192,0,0,1,1.75-.441,2.5,2.5,0,0,1,1.859.779,2.7,2.7,0,0,1,.7,1.907l-1.155-.007a1.775,1.775,0,0,0-.4-1.172,1.406,1.406,0,0,0-1.053-.475,1.972,1.972,0,0,0-1.6.718,3.76,3.76,0,0,0-.8,2.064l-.021.178a5.926,5.926,0,0,0-.014.9,2.061,2.061,0,0,0,.451,1.265A1.449,1.449,0,0,0,541.037,14.111Zm5.394.889H545.2l1.285-7.4h1.23Zm1.019-10.1a.677.677,0,0,1,.523.188.7.7,0,0,1,.208.53.73.73,0,0,1-.731.745.682.682,0,0,1-.526-.185.669.669,0,0,1-.2-.52.776.776,0,0,1,.205-.533A.723.723,0,0,1,547.449,4.9Zm5.53,10.1a1.656,1.656,0,0,1-.048-.39l.021-.39a3.032,3.032,0,0,1-2.16.916,2.21,2.21,0,0,1-1.589-.619A1.872,1.872,0,0,1,548.646,13a2.277,2.277,0,0,1,1.029-1.835,4.38,4.38,0,0,1,2.526-.66l1.292.007.082-.588a1.351,1.351,0,0,0-.256-1.049,1.237,1.237,0,0,0-.974-.4,1.908,1.908,0,0,0-1.125.311,1.324,1.324,0,0,0-.6.858l-1.244.007a1.983,1.983,0,0,1,.506-1.152,2.943,2.943,0,0,1,1.142-.779,3.688,3.688,0,0,1,1.442-.263,2.452,2.452,0,0,1,1.8.7,2.173,2.173,0,0,1,.54,1.788l-.6,3.664-.034.526a2.582,2.582,0,0,0,.082.745l-.014.116Zm-1.941-.957a2.158,2.158,0,0,0,1.125-.284,2.847,2.847,0,0,0,.913-.824l.267-1.524-.937-.007a3.547,3.547,0,0,0-1.791.369,1.359,1.359,0,0,0-.7,1.046,1.059,1.059,0,0,0,.243.865A1.156,1.156,0,0,0,551.038,14.043Zm8.661-2.755a5.755,5.755,0,0,1,.622-2.037,3.527,3.527,0,0,1,1.2-1.36,2.736,2.736,0,0,1,1.565-.431,2.31,2.31,0,0,1,1.9.9l.711-3.862h1.237L565.113,15h-1.128l.13-.793a2.727,2.727,0,0,1-2.16.93,2.043,2.043,0,0,1-1.634-.8,3.5,3.5,0,0,1-.656-2.082A6.651,6.651,0,0,1,559.7,11.288Zm1.189.707a2.563,2.563,0,0,0,.349,1.516,1.258,1.258,0,0,0,1.08.553,2.235,2.235,0,0,0,1.907-1.079l.588-3.414a1.535,1.535,0,0,0-1.49-1.038,1.875,1.875,0,0,0-1.289.44,2.849,2.849,0,0,0-.848,1.29A5.323,5.323,0,0,0,560.889,11.995Zm9.379,3.142a2.667,2.667,0,0,1-2.16-1.019,3.505,3.505,0,0,1-.656-2.536l.034-.294a4.921,4.921,0,0,1,.653-2.01,3.8,3.8,0,0,1,1.309-1.371,3.054,3.054,0,0,1,1.668-.441,2.352,2.352,0,0,1,1.791.759,3.121,3.121,0,0,1,.711,1.982,5.791,5.791,0,0,1-.027.889l-.075.567h-4.833a2.5,2.5,0,0,0,.332,1.709,1.57,1.57,0,0,0,1.357.731,2.631,2.631,0,0,0,2.023-.984l.711.6a3.253,3.253,0,0,1-1.2,1.049A3.4,3.4,0,0,1,570.268,15.137Zm.786-6.638a1.807,1.807,0,0,0-1.336.52,3.693,3.693,0,0,0-.906,1.606l3.6.007.027-.109a2.023,2.023,0,0,0-.277-1.432A1.3,1.3,0,0,0,571.054,8.5Zm9.974-2.687L580.713,7.6h1.347l-.171.978h-1.34l-.772,4.6a1.605,1.605,0,0,0-.007.328.521.521,0,0,0,.581.533,3.544,3.544,0,0,0,.6-.068l-.1,1.032a3.366,3.366,0,0,1-.9.123,1.292,1.292,0,0,1-1.107-.543,2.1,2.1,0,0,1-.287-1.425l.752-4.58h-1.306l.171-.978h1.306l.314-1.791Zm5.209,1.654a2.666,2.666,0,0,1,1.593.506,2.874,2.874,0,0,1,.981,1.357,4.2,4.2,0,0,1,.215,1.89l-.014.15a4.975,4.975,0,0,1-.643,1.952,3.771,3.771,0,0,1-1.326,1.357,3.234,3.234,0,0,1-1.784.458,2.671,2.671,0,0,1-1.589-.506,2.809,2.809,0,0,1-.974-1.34,4.314,4.314,0,0,1-.219-1.866A5.04,5.04,0,0,1,583.1,9.36a3.858,3.858,0,0,1,1.336-1.418A3.2,3.2,0,0,1,586.236,7.467Zm-2.516,3.965a4.2,4.2,0,0,0,0,.9,2.194,2.194,0,0,0,.482,1.285,1.447,1.447,0,0,0,1.1.5,1.971,1.971,0,0,0,1.135-.3,2.554,2.554,0,0,0,.875-.981,4.13,4.13,0,0,0,.458-1.456,6.562,6.562,0,0,0,.021-1.06A2.277,2.277,0,0,0,587.3,9a1.479,1.479,0,0,0-1.107-.506,2.016,2.016,0,0,0-1.627.752,3.715,3.715,0,0,0-.827,2.023Zm9.256-1.135,2.01-2.693H596.5l-2.967,3.719,1.8,3.678H594l-1.224-2.762L590.687,15h-1.511l3.056-3.8-1.75-3.6h1.354Zm4.963,4.7h-1.23l1.285-7.4h1.23Zm1.019-10.1a.677.677,0,0,1,.523.188.7.7,0,0,1,.208.53.73.73,0,0,1-.731.745.682.682,0,0,1-.526-.185.669.669,0,0,1-.2-.52.776.776,0,0,1,.205-.533A.723.723,0,0,1,598.958,4.9Zm4.129,9.208a1.877,1.877,0,0,0,1.2-.386,1.837,1.837,0,0,0,.7-1.049l1.169-.007a2.638,2.638,0,0,1-.557,1.271,3.22,3.22,0,0,1-2.56,1.2,2.64,2.64,0,0,1-1.562-.482,2.7,2.7,0,0,1-.94-1.306,4.351,4.351,0,0,1-.205-1.883l.034-.342a4.9,4.9,0,0,1,.622-1.907,3.6,3.6,0,0,1,1.285-1.309,3.192,3.192,0,0,1,1.75-.441,2.5,2.5,0,0,1,1.859.779,2.7,2.7,0,0,1,.7,1.907l-1.155-.007a1.775,1.775,0,0,0-.4-1.172,1.406,1.406,0,0,0-1.053-.475,1.972,1.972,0,0,0-1.6.718,3.76,3.76,0,0,0-.8,2.064l-.021.178a5.926,5.926,0,0,0-.014.9,2.061,2.061,0,0,0,.451,1.265A1.449,1.449,0,0,0,603.087,14.111ZM608.48,15h-1.23l1.285-7.4h1.23ZM609.5,4.9a.677.677,0,0,1,.523.188.7.7,0,0,1,.208.53.73.73,0,0,1-.731.745.682.682,0,0,1-.526-.185.669.669,0,0,1-.2-.52.776.776,0,0,1,.205-.533A.723.723,0,0,1,609.5,4.9Zm1.36,6.385a5.755,5.755,0,0,1,.622-2.037,3.527,3.527,0,0,1,1.2-1.36,2.736,2.736,0,0,1,1.565-.431,2.31,2.31,0,0,1,1.9.9l.711-3.862h1.237L616.273,15h-1.128l.13-.793a2.727,2.727,0,0,1-2.16.93,2.043,2.043,0,0,1-1.634-.8,3.5,3.5,0,0,1-.656-2.082A6.651,6.651,0,0,1,610.859,11.288Zm1.189.707a2.563,2.563,0,0,0,.349,1.516,1.258,1.258,0,0,0,1.08.553,2.235,2.235,0,0,0,1.907-1.079l.588-3.414a1.535,1.535,0,0,0-1.49-1.038,1.875,1.875,0,0,0-1.289.44,2.849,2.849,0,0,0-.848,1.29A5.323,5.323,0,0,0,612.049,11.995ZM622.754,15a1.656,1.656,0,0,1-.048-.39l.021-.39a3.032,3.032,0,0,1-2.16.916,2.21,2.21,0,0,1-1.589-.619A1.872,1.872,0,0,1,618.42,13a2.277,2.277,0,0,1,1.029-1.835,4.38,4.38,0,0,1,2.526-.66l1.292.007.082-.588a1.351,1.351,0,0,0-.256-1.049,1.237,1.237,0,0,0-.974-.4,1.908,1.908,0,0,0-1.125.311,1.324,1.324,0,0,0-.6.858l-1.244.007a1.983,1.983,0,0,1,.506-1.152,2.943,2.943,0,0,1,1.142-.779,3.688,3.688,0,0,1,1.442-.263,2.452,2.452,0,0,1,1.8.7,2.173,2.173,0,0,1,.54,1.788l-.6,3.664-.034.526a2.582,2.582,0,0,0,.082.745l-.014.116Zm-1.941-.957a2.158,2.158,0,0,0,1.125-.284,2.847,2.847,0,0,0,.913-.824l.267-1.524-.937-.007a3.547,3.547,0,0,0-1.791.369,1.359,1.359,0,0,0-.7,1.046,1.059,1.059,0,0,0,.243.865A1.156,1.156,0,0,0,620.813,14.043Zm5.229-2.755a5.755,5.755,0,0,1,.622-2.037,3.527,3.527,0,0,1,1.2-1.36,2.736,2.736,0,0,1,1.565-.431,2.31,2.31,0,0,1,1.9.9l.711-3.862h1.237L631.456,15h-1.128l.13-.793a2.727,2.727,0,0,1-2.16.93,2.043,2.043,0,0,1-1.634-.8,3.5,3.5,0,0,1-.656-2.082A6.651,6.651,0,0,1,626.042,11.288Zm1.189.707a2.563,2.563,0,0,0,.349,1.516,1.258,1.258,0,0,0,1.08.553,2.235,2.235,0,0,0,1.907-1.079l.588-3.414a1.535,1.535,0,0,0-1.49-1.038,1.875,1.875,0,0,0-1.289.44,2.849,2.849,0,0,0-.848,1.29A5.323,5.323,0,0,0,627.231,11.995Zm7.089,1.57a.74.74,0,0,1,.554.205.706.706,0,0,1,.212.547.739.739,0,0,1-.226.543.813.813,0,0,1-.547.222.689.689,0,0,1-.752-.725.765.765,0,0,1,.759-.793Z" transform="translate(180 6094)" fill="#12263f"/>
    <path id="Trazado_725360" data-name="Trazado 725360" d="M10.638,10.4H6.455l-.615,3.527h4.867L10.515,15H4.37L6.1,5.047h6.077L11.985,6.12H7.193L6.639,9.326h4.184Zm7.314,4.081,1.483,1.429-.95.772L16.75,15.021a4.775,4.775,0,0,1-1.012.109,3.069,3.069,0,0,1-1.647-.455,2.953,2.953,0,0,1-1.1-1.292,4.933,4.933,0,0,1-.434-1.911,9.087,9.087,0,0,1,.181-2.054A6.959,6.959,0,0,1,13.5,7.265,5.017,5.017,0,0,1,14.8,5.717a3.885,3.885,0,0,1,2.5-.807,3.228,3.228,0,0,1,1.675.465,2.91,2.91,0,0,1,1.1,1.289,4.974,4.974,0,0,1,.431,1.911,7.339,7.339,0,0,1-.048,1.142l-.082.581A5.514,5.514,0,0,1,17.953,14.48Zm1.285-5.592a3.383,3.383,0,0,0-.472-2.1,1.81,1.81,0,0,0-1.518-.759,2.593,2.593,0,0,0-1.637.492,3.726,3.726,0,0,0-1.183,1.555,8.013,8.013,0,0,0-.584,2.622l-.021.444a4.414,4.414,0,0,0,.185,1.47,2.019,2.019,0,0,0,.673,1.039,1.9,1.9,0,0,0,1.131.376,2.588,2.588,0,0,0,2.116-.909,5.235,5.235,0,0,0,1.145-2.7A11.753,11.753,0,0,0,19.238,8.889ZM29.485,6.12h-3.1L24.85,15H23.572L25.11,6.12h-3.1L22.2,5.047h7.472ZM13.167,25.6l-.157.827a2.892,2.892,0,0,1,2.249-.957,2.282,2.282,0,0,1,1.193.321,1.576,1.576,0,0,1,.673.868,3.054,3.054,0,0,1,2.454-1.189,1.956,1.956,0,0,1,1.634.745,2.662,2.662,0,0,1,.39,1.928L20.79,33h-1.23l.807-4.874a2.575,2.575,0,0,0,0-.649q-.13-.93-1.217-.95a1.869,1.869,0,0,0-1.227.42,1.945,1.945,0,0,0-.708,1.138L16.374,33H15.129l.82-4.867a1.563,1.563,0,0,0-.229-1.169,1.2,1.2,0,0,0-.988-.424,2.026,2.026,0,0,0-1.839,1.053L11.958,33H10.72l1.285-7.4Z" transform="translate(585 6084)" fill="#12263f"/>
    <path id="Trazado_725361" data-name="Trazado 725361" d="M3.782,6.006l.586,0a1.731,1.731,0,0,0,1.086-.339,1.286,1.286,0,0,0,.505-.92,1.134,1.134,0,0,0-.21-.891,1.008,1.008,0,0,0-.8-.334,1.359,1.359,0,0,0-.945.325,1.434,1.434,0,0,0-.476.9l-.874,0a2.026,2.026,0,0,1,.75-1.428A2.378,2.378,0,0,1,5,2.788a1.9,1.9,0,0,1,1.4.559,1.774,1.774,0,0,1,.442,1.423,1.644,1.644,0,0,1-.386.918,2.57,2.57,0,0,1-.947.688,1.405,1.405,0,0,1,.723.618,1.723,1.723,0,0,1,.2.989,2.182,2.182,0,0,1-.764,1.548A2.4,2.4,0,0,1,4,10.1a2.021,2.021,0,0,1-1.455-.566,1.8,1.8,0,0,1-.5-1.411l.884,0a1.187,1.187,0,0,0,.264.881,1.125,1.125,0,0,0,.85.354A1.421,1.421,0,0,0,5.081,9,1.487,1.487,0,0,0,5.555,8a1.088,1.088,0,0,0-.264-.906,1.329,1.329,0,0,0-.947-.344l-.679,0Z" transform="translate(606 6102)" fill="#12263f"/>
    <path id="Trazado_725363" data-name="Trazado 725363" d="M0,0H27" transform="translate(587.5 6102.5)" fill="none" stroke="#12263f" stroke-width="1"/>
  </g>
</svg>
