<svg xmlns="http://www.w3.org/2000/svg" width="130" height="130" viewBox="0 0 130 130">
  <g id="Grupo_957921" data-name="Grupo 957921" transform="translate(-378 -3175)">
    <circle id="Elipse_6687" data-name="Elipse 6687" cx="65" cy="65" r="65" transform="translate(378 3175)" fill="#ffe0ab"/>
    <g id="Grupo_956868" data-name="Grupo 956868" transform="translate(402.576 3206)">
      <g id="Grupo_956869" data-name="Grupo 956869" transform="translate(0 0)">
        <path id="Trazado_721018" data-name="Trazado 721018" d="M0,65.482a5.863,5.863,0,0,1,1.3-.834c4.033-1.271,8.079-2.5,12.128-3.727a1.427,1.427,0,0,0,1.012-.908c1.227-2.961,2.49-5.907,3.742-8.857.466-1.1.751-1.256,1.92-1.08a1.546,1.546,0,0,1,.344,2.024c-1.31,3.008-2.587,6.03-3.856,9.055a1.712,1.712,0,0,0-.157,1c.7,2.68,1.435,5.349,2.162,8.021.133.549.254,1.1.4,1.646q1.513,5.6,3.036,11.207Q23,86.739,23.97,90.451c.449,1.714.907,3.426,1.357,5.122H39.566c-.315-.183-.486-.28-.655-.383-1.152-.7-2.34-1.342-3.447-2.1a27.416,27.416,0,0,1-7.537-8.131l-.125-.222,0-.007c-.145-.289-.286-.579-.435-.865a25.228,25.228,0,0,1-2.442-17.917c2.482-10.461,9.038-17.177,19.393-20.15a1.466,1.466,0,0,0,.72-.307c1.627-2.04,2-4.721.425-6.791a5.152,5.152,0,0,0-6.594-1.719c-3.321,1.555-6.628,3.142-9.931,4.734a14.611,14.611,0,0,0-6.116,5.4A1.529,1.529,0,0,1,21,47.92c-.805-.779-.851-1.175-.248-2.106a17.712,17.712,0,0,1,7.5-6.484c3.122-1.47,6.23-2.97,9.345-4.455A7.734,7.734,0,0,1,48.3,44.737c-.028.073-.05.147-.1.279,1.314,0,2.592-.017,3.87,0,1.68.028,1.68.041,2.192-1.542.033-.1.07-.2.139-.4-.477-.173-.949-.334-1.413-.515a4.816,4.816,0,0,1-3.149-5.114,4.75,4.75,0,0,1,4.388-4.175,4.374,4.374,0,0,1,1.678.168c4.6,1.459,9.2,2.918,13.773,4.457a4.648,4.648,0,0,1,3.18,4.844,4.7,4.7,0,0,1-3.69,4.3,7.453,7.453,0,0,1-2.242-.01,10.417,10.417,0,0,1-1.618-.426L64.6,48.757a4.489,4.489,0,0,0,3.408,1.332,17.65,17.65,0,0,1,4.288.072,6.87,6.87,0,0,1,4.54,10.884c-.09.129-.182.257-.322.456a6.988,6.988,0,0,1,3.222,12.254c.2.15.376.291.559.427a6.9,6.9,0,0,1,2.512,7.5,6.8,6.8,0,0,1-6.163,4.931c-1.049.061-2.1.01-3.34.01.228.351.367.56.5.772A6.9,6.9,0,0,1,68.59,97.982c-.457.04-.918.052-1.377.052-13.823,0-27.645-.017-41.467.035a13.673,13.673,0,0,0-3.693.745c-3.569,1.048-7.117,2.17-10.674,3.26-1.273.39-1.769.106-2.116-1.2Q4.781,84.027.3,67.177a5.836,5.836,0,0,0-.3-.721v-.974M77.32,69.7v2.588a4.371,4.371,0,0,0-.875-8.2L77.32,69.7M73.707,58.015l.979,1.863a4.254,4.254,0,0,0,.99-3.175,9.136,9.136,0,0,0-.5-1.844,4.8,4.8,0,0,0-5.518-2.294l4.046,5.45m1.751,23.531L74.2,84.15c4.014.436,6.553-1.4,6.426-4.551a4.292,4.292,0,0,0-3.39-4.166l-1.783,6.113M65.751,92.91a5.59,5.59,0,0,1-.96,1.121c-.78.536-1.637.96-2.462,1.43,1.824.141,3.62.148,5.416.136a6.4,6.4,0,0,0,1.207-.11A4.365,4.365,0,0,0,72.4,90.959a3.765,3.765,0,0,0-.965-2.664c-.7.738-1.339,1.446-2.011,2.125-.726.733-1.142.76-2.046.2-.517-.876-.12-1.485.514-2.125a23.859,23.859,0,0,0,4.392-27.9A23.44,23.44,0,0,0,53.674,47.608,22.246,22.246,0,0,0,41.858,49.19l-.486.214.008,0a2.386,2.386,0,0,0-.307.087C27.783,55.178,22.619,72.029,30.42,84.269a23.552,23.552,0,0,0,10.622,9.2l.649.261.346.144c.271.116.535.251.814.344a23.871,23.871,0,0,0,20.615-2.206c.991-.589,1.266-.582,2.09.1l.2.8M57.594,41.532c3.261,1.041,6.514,2.106,9.787,3.11a2.33,2.33,0,0,0,2.9-1.44A2.253,2.253,0,0,0,69,40.249c-3.2-1.12-6.445-2.138-9.671-3.2-1.38-.429-2.746-.913-4.144-1.27a2.265,2.265,0,0,0-2.8,1.559,2.3,2.3,0,0,0,1.406,2.888c1.25.482,2.537.872,3.807,1.3M17.242,74.88q-.877-3.368-1.754-6.736c-.423-1.61-.857-3.218-1.31-4.916L2.71,66.742c.194.741.36,1.39.535,2.037q1.293,4.763,2.59,9.525a3.92,3.92,0,0,0,.069.478q1.718,6.451,3.442,12.9c.687,2.577,1.373,5.154,2.086,7.831l11.477-3.522c-.843-3.176-1.652-6.253-2.477-9.325q-1.584-5.9-3.189-11.786m45.739-29-6.264-2.026-.488,1.531L62.441,47.5l.54-1.619" transform="translate(0 -33.253)" fill="#040403"/>
        <path id="Trazado_721019" data-name="Trazado 721019" d="M80.262,59.423a1.529,1.529,0,0,0,1.829-.81,14.61,14.61,0,0,1,6.116-5.4c3.3-1.592,6.61-3.179,9.931-4.734a5.152,5.152,0,0,1,6.594,1.719,9.088,9.088,0,0,0-1.617.044,32.244,32.244,0,0,0-9.773,3.886,17.177,17.177,0,0,0-4.984,5,84.994,84.994,0,0,0-4.971,7.531,43.015,43.015,0,0,0-4.167,9.794c-.492,1.73-.907,3.481-1.358,5.223C77.135,79,76.4,76.335,75.7,73.655a1.711,1.711,0,0,1,.157-1c1.269-3.025,2.546-6.047,3.856-9.055a1.546,1.546,0,0,0-.344-2.024l.894-2.156" transform="translate(-59.265 -44.755)" fill="#fdc9bc"/>
        <path id="Trazado_721020" data-name="Trazado 721020" d="M145.544,144.838l-.649-.261a2.077,2.077,0,0,0-.409-.521,26.217,26.217,0,0,1-6.379-5.755,25.342,25.342,0,0,1-5.49-15.214,23.179,23.179,0,0,1,.482-5.2,24.883,24.883,0,0,1,10.194-15.906c.658-.476,1.294-.981,1.94-1.473l-.008,0,.486-.214a22.244,22.244,0,0,1,11.817-1.581A23.44,23.44,0,0,1,176.137,111.7a23.858,23.858,0,0,1-4.392,27.9c-.634.64-1.031,1.249-.515,2.125l-1.824,1.5c-.824-.683-1.1-.69-2.09-.1a23.871,23.871,0,0,1-20.615,2.206c-.279-.093-.543-.229-.814-.344l-.346-.144M134.136,122.59a20.561,20.561,0,1,0,20.59-20.555,20.6,20.6,0,0,0-20.59,20.555" transform="translate(-103.854 -84.36)" fill="#f3df65"/>
        <path id="Trazado_721021" data-name="Trazado 721021" d="M85.766,89.777c.45-1.742.865-3.493,1.357-5.223a43.026,43.026,0,0,1,4.168-9.794,85.018,85.018,0,0,1,4.971-7.531,17.174,17.174,0,0,1,4.984-5,32.243,32.243,0,0,1,9.774-3.886,9.1,9.1,0,0,1,1.616-.044c1.58,2.07,1.2,4.751-.424,6.791a1.462,1.462,0,0,1-.72.307C101.136,68.37,94.58,75.086,92.1,85.547a25.23,25.23,0,0,0,2.442,17.917c.15.286.291.577.435.865a6.149,6.149,0,0,1-1.242-.143c-1.519-.493-3.022-1.033-4.53-1.556q-1.519-5.6-3.036-11.207c-.147-.545-.268-1.1-.4-1.646" transform="translate(-67.17 -52.856)" fill="#fddbcc"/>
        <path id="Trazado_721022" data-name="Trazado 721022" d="M38.317,225.236q1.6,5.893,3.189,11.786c.825,3.072,1.634,6.149,2.477,9.325l-11.477,3.522c-.713-2.677-1.4-5.255-2.086-7.831q-1.721-6.45-3.442-12.9a3.929,3.929,0,0,1-.069-.478c2.386-.731,4.77-1.47,7.159-2.191,1.412-.426,2.832-.823,4.248-1.233" transform="translate(-21.076 -183.609)" fill="#db626d"/>
        <path id="Trazado_721023" data-name="Trazado 721023" d="M27.029,183.146c-1.416.41-2.836.807-4.248,1.233-2.389.721-4.773,1.46-7.159,2.191q-1.3-4.763-2.59-9.525c-.175-.646-.341-1.3-.535-2.037l11.468-3.515c.453,1.7.887,3.306,1.31,4.917q.884,3.367,1.754,6.736" transform="translate(-9.787 -141.519)" fill="#c95668"/>
        <path id="Trazado_721024" data-name="Trazado 721024" d="M101.618,262.809c1.509.523,3.012,1.064,4.53,1.556a6.127,6.127,0,0,0,1.242.143l0,.008.125.222a27.416,27.416,0,0,0,7.537,8.131c1.107.763,2.3,1.407,3.447,2.1.168.1.34.2.655.383H104.912c-.45-1.7-.908-3.408-1.357-5.122q-.973-3.711-1.936-7.424" transform="translate(-79.584 -213.035)" fill="#fac7ba"/>
        <path id="Trazado_721025" data-name="Trazado 721025" d="M138.018,107.72c-.646.492-1.283,1-1.94,1.473A24.884,24.884,0,0,0,125.883,125.1a23.181,23.181,0,0,0-.482,5.2,25.342,25.342,0,0,0,5.49,15.214,26.219,26.219,0,0,0,6.379,5.755,2.074,2.074,0,0,1,.409.521,23.55,23.55,0,0,1-10.622-9.2c-7.8-12.24-2.637-29.091,10.653-34.783a2.371,2.371,0,0,1,.307-.087" transform="translate(-96.638 -91.573)" fill="#fbcd62"/>
        <path id="Trazado_721026" data-name="Trazado 721026" d="M266.887,50.774c3.226,1.059,6.466,2.077,9.671,3.2a2.253,2.253,0,0,1,1.285,2.952,2.33,2.33,0,0,1-2.9,1.44c-3.272-1-6.526-2.069-9.787-3.11-.046-.667-.137-1.335-.128-2a2.987,2.987,0,0,1,1.859-2.478" transform="translate(-207.563 -46.975)" fill="#f3df65"/>
        <path id="Trazado_721027" data-name="Trazado 721027" d="M248.1,45.891a2.987,2.987,0,0,0-1.859,2.478c-.009.667.082,1.334.128,2-1.27-.43-2.557-.82-3.807-1.3a2.3,2.3,0,0,1-1.406-2.888,2.265,2.265,0,0,1,2.8-1.559c1.4.357,2.764.841,4.144,1.27" transform="translate(-188.773 -42.092)" fill="#fbcd62"/>
        <path id="Trazado_721028" data-name="Trazado 721028" d="M297.532,299.39a4.365,4.365,0,0,1-3.448,4.529,6.406,6.406,0,0,1-1.207.11c-1.8.011-3.591.005-5.415-.137.825-.47,1.682-.894,2.462-1.43a5.6,5.6,0,0,0,.96-1.121c2.459.177,4.764-.171,6.649-1.951" transform="translate(-225.131 -241.684)" fill="#f7c4b8"/>
        <path id="Trazado_721029" data-name="Trazado 721029" d="M348.006,233.9l1.783-6.113a4.292,4.292,0,0,1,3.39,4.166,1.546,1.546,0,0,0-.413.22,6.336,6.336,0,0,1-4.76,1.727" transform="translate(-272.549 -185.605)" fill="#fbd9cb"/>
        <path id="Trazado_721030" data-name="Trazado 721030" d="M325.319,127.251l-4.046-5.45a4.8,4.8,0,0,1,5.518,2.294,9.132,9.132,0,0,1,.5,1.844l-1.969,1.312" transform="translate(-251.612 -102.488)" fill="#fad9ca"/>
        <path id="Trazado_721031" data-name="Trazado 721031" d="M309.178,289.767c-1.885,1.78-4.19,2.128-6.649,1.951l-.2-.8,1.824-1.5c.9.562,1.321.536,2.046-.2.672-.68,1.316-1.388,2.011-2.125a3.765,3.765,0,0,1,.965,2.664" transform="translate(-236.778 -232.061)" fill="#fcdacb"/>
        <path id="Trazado_721032" data-name="Trazado 721032" d="M343.479,248.947a6.336,6.336,0,0,0,4.76-1.727,1.546,1.546,0,0,1,.413-.22c.127,3.155-2.412,4.987-6.427,4.551l1.253-2.6" transform="translate(-268.022 -200.654)" fill="#fac7ba"/>
        <path id="Trazado_721033" data-name="Trazado 721033" d="M353.435,181.062l-.875-5.614a4.216,4.216,0,0,1,3.368,4.152l-2.494,1.461" transform="translate(-276.115 -144.616)" fill="#f9d8c9"/>
        <path id="Trazado_721034" data-name="Trazado 721034" d="M266.076,84.16l-.54,1.619-6.212-2.115.488-1.531,6.264,2.026" transform="translate(-203.095 -71.535)" fill="#f6c961"/>
        <path id="Trazado_721035" data-name="Trazado 721035" d="M356.594,196.06l2.494-1.461a4.192,4.192,0,0,1-2.494,4.049Z" transform="translate(-279.274 -159.615)" fill="#f6c5b8"/>
        <path id="Trazado_721036" data-name="Trazado 721036" d="M339.932,142.72l1.969-1.312a4.255,4.255,0,0,1-.99,3.175l-.979-1.863" transform="translate(-266.225 -117.957)" fill="#f3c2b5"/>
        <path id="Trazado_721037" data-name="Trazado 721037" d="M191.291,106.754l-.486.214.486-.214" transform="translate(-149.433 -90.817)" fill="#fbcd62"/>
        <path id="Trazado_721038" data-name="Trazado 721038" d="M192.272,312.173l.346.144-.346-.144" transform="translate(-150.582 -251.695)" fill="#fbcd62"/>
        <path id="Trazado_721039" data-name="Trazado 721039" d="M128.351,270.9l-.125-.222.125.222" transform="translate(-100.423 -219.198)" fill="#fddbcc"/>
        <path id="Trazado_721040" data-name="Trazado 721040" d="M139.66,135.323a20.561,20.561,0,1,1,20.476,20.591,20.6,20.6,0,0,1-20.476-20.591M158.977,117.8c.079-.312.052-.548-.364-.5-.482.057-.968.1-1.446.177a16.917,16.917,0,0,0-4.909,1.6c.415.9,1.366,1.836.162,2.6-1.349.853-1.736-.568-2.33-1.35a17.87,17.87,0,0,0-4.892,4.894c.795.6,2.139.951,1.4,2.248-.753,1.326-1.758.3-2.678-.073a17.3,17.3,0,0,0-1.761,6.754c1.014,0,1.931-.033,2.845.01a1.162,1.162,0,0,1,1.082,1.592,1.282,1.282,0,0,1-1.351.824c-.853.008-1.706,0-2.6,0a17.626,17.626,0,0,0,1.791,6.691c1.768-.8,2.309-.838,2.67-.1.686,1.4-.622,1.7-1.4,2.306a17.876,17.876,0,0,0,4.892,4.878c1.052-1.55,1.5-1.828,2.237-1.443.762.4.761.9-.031,2.73a17.673,17.673,0,0,0,6.255,1.74c.438.036.528-.146.432-.518.012-.757,0-1.514.04-2.269a1.147,1.147,0,0,1,1.247-1.191c.707.027,1.154.529,1.175,1.375s0,1.716,0,2.633a17.409,17.409,0,0,0,6.709-1.79c-.837-1.694-.891-2.242-.151-2.638,1.422-.759,1.728.609,2.34,1.376a17.919,17.919,0,0,0,4.886-4.894c-.732-.587-2.127-.879-1.424-2.2.757-1.425,1.787-.312,2.7.018a17.375,17.375,0,0,0,1.763-6.7c-.9,0-1.731.016-2.563,0-.949-.023-1.46-.495-1.432-1.28.026-.752.506-1.139,1.457-1.151.828-.01,1.657,0,2.544,0a17.224,17.224,0,0,0-1.78-6.738c-1.639.816-2.245.879-2.633.165-.788-1.448.607-1.737,1.379-2.347a17.907,17.907,0,0,0-4.9-4.885c-1.026,1.519-1.53,1.872-2.219,1.437-1.356-.856-.3-1.81.033-2.719a17.391,17.391,0,0,0-6.707-1.766c0,.959.026,1.847-.008,2.732a1.234,1.234,0,0,1-1.277,1.282,1.209,1.209,0,0,1-1.145-1.313c-.023-.729-.025-1.459-.036-2.188" transform="translate(-109.378 -97.093)" fill="#040403"/>
        <path id="Trazado_721041" data-name="Trazado 721041" d="M187.4,126.891c.011.729.012,1.459.036,2.188a1.208,1.208,0,0,0,1.145,1.312,1.234,1.234,0,0,0,1.277-1.282c.034-.886.008-1.773.008-2.732a17.388,17.388,0,0,1,6.707,1.766c-.332.909-1.389,1.862-.033,2.719.689.435,1.193.082,2.219-1.437a17.905,17.905,0,0,1,4.9,4.885c-.772.609-2.167.9-1.379,2.346.389.714.995.651,2.633-.165a17.225,17.225,0,0,1,1.78,6.738c-.886,0-1.715-.008-2.544,0-.95.012-1.43.4-1.457,1.151-.028.785.483,1.257,1.432,1.28.832.02,1.665,0,2.563,0a17.377,17.377,0,0,1-1.763,6.7c-.912-.33-1.941-1.443-2.7-.018-.7,1.323.692,1.615,1.424,2.2a17.917,17.917,0,0,1-4.886,4.894c-.612-.768-.918-2.136-2.34-1.376-.74.4-.687.944.151,2.638a17.413,17.413,0,0,1-6.709,1.79c0-.916.016-1.775,0-2.633s-.467-1.349-1.175-1.376a1.148,1.148,0,0,0-1.247,1.191c-.036.755-.028,1.513-.04,2.269a5.307,5.307,0,0,1-.756-.25,19.289,19.289,0,0,1-2.872-32.762,33.341,33.341,0,0,1,3.627-2.049m4.924,14.362c0-1.026.016-2.053,0-3.079a3.661,3.661,0,0,0-3.618-3.7,3.578,3.578,0,0,0-3.723,3.564q-.095,3.237,0,6.48a3.651,3.651,0,0,0,3.713,3.6,3.711,3.711,0,0,0,3.628-3.71c.022-1.053,0-2.106,0-3.159" transform="translate(-137.804 -106.185)" fill="#d1edf9"/>
        <path id="Trazado_721042" data-name="Trazado 721042" d="M167.921,126.923a33.364,33.364,0,0,0-3.627,2.049,18.544,18.544,0,0,0-7.623,12.834,19.314,19.314,0,0,0,10.5,19.928,5.292,5.292,0,0,0,.756.25c.1.373.006.554-.432.518a17.674,17.674,0,0,1-6.255-1.74c.792-1.834.793-2.333.031-2.73-.739-.385-1.185-.107-2.237,1.443a17.876,17.876,0,0,1-4.892-4.878c.782-.6,2.089-.9,1.4-2.306-.361-.739-.9-.7-2.67.1a17.627,17.627,0,0,1-1.791-6.691c.9,0,1.749.006,2.6,0a1.281,1.281,0,0,0,1.351-.824,1.162,1.162,0,0,0-1.082-1.591c-.914-.043-1.831-.01-2.845-.01a17.3,17.3,0,0,1,1.761-6.754c.92.374,1.925,1.4,2.678.073.736-1.3-.608-1.649-1.4-2.248a17.87,17.87,0,0,1,4.892-4.894c.594.782.981,2.2,2.33,1.35,1.2-.761.253-1.7-.162-2.6a16.917,16.917,0,0,1,4.909-1.6c.478-.082.964-.12,1.446-.177.416-.049.443.187.364.5" transform="translate(-118.322 -106.217)" fill="#9bc3f7"/>
        <path id="Trazado_721043" data-name="Trazado 721043" d="M224.765,170.515c0,1.053.018,2.107,0,3.159a3.711,3.711,0,0,1-3.628,3.71,3.652,3.652,0,0,1-3.713-3.6q-.09-3.238,0-6.48a3.577,3.577,0,0,1,3.723-3.564,3.661,3.661,0,0,1,3.618,3.7c.02,1.026,0,2.052,0,3.079m-4.884.041c0,1-.008,2,0,2.993a1.248,1.248,0,0,0,1.222,1.4,1.3,1.3,0,0,0,1.22-1.37c.023-2.05.026-4.1,0-6.149a1.187,1.187,0,0,0-1.3-1.23c-.738.032-1.122.446-1.135,1.28-.017,1.025,0,2.05,0,3.074" transform="translate(-170.241 -135.446)" fill="#020303"/>
        <path id="Trazado_721044" data-name="Trazado 721044" d="M228.919,179.443c0-1.025-.013-2.05,0-3.074.013-.835.4-1.248,1.135-1.28a1.187,1.187,0,0,1,1.3,1.23c.029,2.049.026,4.1,0,6.149a1.3,1.3,0,0,1-1.22,1.37,1.248,1.248,0,0,1-1.223-1.4c-.01-1,0-2,0-2.994" transform="translate(-179.279 -144.333)" fill="#2a4c64"/>
      </g>
    </g>
  </g>
</svg>
