<svg xmlns="http://www.w3.org/2000/svg" xmlns:xlink="http://www.w3.org/1999/xlink" width="130" height="130" viewBox="0 0 130 130">
  <defs>
    <clipPath id="clip-path">
      <rect id="Rectángulo_339750" data-name="Rectángulo 339750" width="71" height="71" fill="none"/>
    </clipPath>
  </defs>
  <g id="Grupo_957919" data-name="Grupo 957919" transform="translate(-735 -3175)">
    <circle id="Elipse_6690" data-name="Elipse 6690" cx="65" cy="65" r="65" transform="translate(735 3175)" fill="#ffe0ab"/>
    <g id="Grupo_956874" data-name="Grupo 956874" transform="translate(765 3205)">
      <g id="Grupo_956873" data-name="Grupo 956873" clip-path="url(#clip-path)">
        <path id="Trazado_721081" data-name="Trazado 721081" d="M0,32.758a1.788,1.788,0,0,1,1.86-.986c1.559.052,3.121.015,4.719.015a10.756,10.756,0,0,1,4.3-7.283,10.429,10.429,0,0,1,6.839-2.095,10.81,10.81,0,0,1,10.171,9.338h2.491c0-.423-.02-.832,0-1.238A1.39,1.39,0,0,1,31.776,29.1a1.355,1.355,0,0,1,1.354,1.433q.022,3.1,0,6.208a1.325,1.325,0,0,1-1.292,1.412,1.351,1.351,0,0,1-1.447-1.341c-.041-.729-.008-1.462-.008-2.228H27.887a10.8,10.8,0,0,1-4.624,7.469A10.417,10.417,0,0,1,16.7,43.918,10.849,10.849,0,0,1,6.546,34.569H2.8V75.313h14c0-1.728-.008-3.422.007-5.116a2.644,2.644,0,0,1,.153-1c.287-.665.895-.78,1.553-.778,2.644.007,5.288-.017,7.931.018a1.068,1.068,0,0,0,1.149-.69c1.723-3.52,3.5-7.014,5.224-10.533a1.769,1.769,0,0,1,1.78-1.123c2.414.025,4.828.013,7.241.006A1.456,1.456,0,0,1,43.169,58.5c-.972,1.557-1.932,3.122-2.894,4.685-.116.188-.219.384-.388.682,1.2,0,2.289,0,3.381,0,.3,0,.6,0,.9.022a1.372,1.372,0,0,1,.877,2.35c-.686.637-1.407,1.237-2.113,1.853l.2.29c.212.013.423.036.635.036,2.207,0,4.414.025,6.621,0,3.588-.046,3.5,0,3.456,3.493-.015,1.121,0,2.242,0,3.4H67.875v-.739q0-7.208,0-14.416a1.385,1.385,0,0,1,1.973-1.418,1.433,1.433,0,0,1,.788,1.417c-.011,1.931,0,3.863,0,5.794q0,5.208,0,10.416c0,1.263-.483,1.747-1.755,1.747q-7.1,0-14.207,0h-.834c0,1.119,0,2.192,0,3.266,0,.759.016,1.518-.008,2.276a1.338,1.338,0,0,1-1.443,1.407c-.138,0-.276,0-.414,0H18.663c-1.471,0-1.865-.4-1.866-1.888,0-1.652,0-3.3,0-5.028-.28-.012-.521-.032-.763-.032-4.69,0-9.38-.016-14.069.012A2.031,2.031,0,0,1,0,77.189ZM19.6,82.265H51.038V71.236a1.312,1.312,0,0,0-.232-.049c-3.379,0-6.757-.014-10.136.013a1.311,1.311,0,0,0-.793.428c-2.387,2.455-4.753,4.932-7.137,7.39a2.3,2.3,0,0,1-.879.626,1.335,1.335,0,0,1-1.7-1.6c.38-1.725.816-3.437,1.225-5.155.13-.545.249-1.091.383-1.68H19.6Zm-2.365-57.1a8,8,0,1,0,7.977,8,8.015,8.015,0,0,0-7.977-8M39.7,58.854c-1.454,0-2.757.02-4.059-.011a.777.777,0,0,0-.825.525c-1.384,2.817-2.792,5.622-4.191,8.433-.087.175-.154.361-.233.548a1.033,1.033,0,0,0,.2.058c.9.005,1.791,0,2.686.013,1.288.02,1.846.734,1.552,1.971-.23.968-.466,1.935-.7,2.9l.164.145,6.556-6.815c-1.257,0-2.308,0-3.359,0a1.377,1.377,0,0,1-1.321-.708,1.441,1.441,0,0,1,.125-1.557c1.113-1.787,2.215-3.581,3.4-5.5" transform="translate(0 -18.273)" fill="#020202"/>
        <path id="Trazado_721082" data-name="Trazado 721082" d="M233.854,34.538h-3.777a10.766,10.766,0,0,1-21.355,0h-2.484c0,1.638,0,3.218,0,4.8a3.322,3.322,0,0,1-.079.817,1.354,1.354,0,0,1-2.663-.268c-.032-.619-.014-1.241-.014-1.862q0-5.172,0-10.344c0-.905.4-1.458,1.115-1.573a1.373,1.373,0,0,1,1.638,1.477c.022,1.241.006,2.483.006,3.724v.434h2.488a10.764,10.764,0,0,1,4.56-7.436,10.424,10.424,0,0,1,6.759-1.9,10.831,10.831,0,0,1,10.011,9.37c1.618,0,3.247,0,4.875,0,1.191,0,1.682.486,1.683,1.666q0,6.931,0,13.861a1.418,1.418,0,0,1-1.381,1.564,1.436,1.436,0,0,1-1.376-1.57c0-.161,0-.322,0-.483V34.538M219.39,25.155a8,8,0,1,0,7.963,8.008,8.015,8.015,0,0,0-7.963-8.008" transform="translate(-165.979 -18.262)" fill="#020202"/>
        <path id="Trazado_721083" data-name="Trazado 721083" d="M369.711,187.806a1.368,1.368,0,0,1-1.354-1.357,1.378,1.378,0,1,1,2.754.045,1.38,1.38,0,0,1-1.4,1.312" transform="translate(-300.48 -150.954)" fill="#060606"/>
        <path id="Trazado_721084" data-name="Trazado 721084" d="M106.338,298.213V287.16h12.178c-.134.589-.254,1.136-.383,1.68-.409,1.718-.844,3.43-1.225,5.155a1.335,1.335,0,0,0,1.7,1.6,2.3,2.3,0,0,0,.879-.626c2.384-2.458,4.75-4.935,7.137-7.39a1.311,1.311,0,0,1,.793-.428c3.378-.028,6.757-.017,10.136-.013a1.317,1.317,0,0,1,.232.049v11.029Z" transform="translate(-86.743 -234.22)" fill="#b6eaba"/>
        <path id="Trazado_721085" data-name="Trazado 721085" d="M58.23,37.405a8,8,0,1,1-7.968,8,8.016,8.016,0,0,1,7.968-8m.078,6.622H56.384c-.046,0-.092,0-.137,0A1.409,1.409,0,0,0,54.819,45.4a1.381,1.381,0,0,0,1.348,1.378q2.06.047,4.122,0a1.37,1.37,0,0,0,1.358-1.366,1.387,1.387,0,0,0-1.414-1.377c-.641-.018-1.283,0-1.924,0" transform="translate(-41 -30.512)" fill="#fd9caf"/>
        <path id="Trazado_721086" data-name="Trazado 721086" d="M174.231,220.177c-1.188,1.924-2.291,3.717-3.4,5.5a1.441,1.441,0,0,0-.125,1.557,1.377,1.377,0,0,0,1.321.708c1.051-.006,2.1,0,3.359,0l-6.556,6.815-.164-.145c.233-.967.469-1.934.7-2.9.294-1.237-.264-1.951-1.552-1.971-.9-.014-1.791-.008-2.686-.013a1.039,1.039,0,0,1-.2-.058c.079-.188.146-.373.233-.548,1.4-2.81,2.807-5.615,4.191-8.433a.777.777,0,0,1,.825-.525c1.3.031,2.605.011,4.059.011" transform="translate(-134.532 -179.595)" fill="#fad68c"/>
        <path id="Trazado_721087" data-name="Trazado 721087" d="M254.514,37.4a8,8,0,1,1-7.982,7.988,8.016,8.016,0,0,1,7.982-7.988m-1.421,9.424c.069,1.328.448,1.933,1.291,1.975a1.16,1.16,0,0,0,.88-.258,12.8,12.8,0,0,0,.864-1.748c1.134-.043,1.765-.488,1.79-1.362.025-.858-.53-1.27-1.989-1.475-.157-1.426-.537-1.964-1.4-1.982s-1.277.545-1.472,2c-1.4.148-1.959.552-1.965,1.419s.6,1.321,2,1.433" transform="translate(-201.103 -30.511)" fill="#97e9f7"/>
        <path id="Trazado_721088" data-name="Trazado 721088" d="M78.48,73.324c.641,0,1.283-.014,1.924,0a1.387,1.387,0,0,1,1.414,1.377,1.37,1.37,0,0,1-1.358,1.366q-2.06.045-4.122,0a1.381,1.381,0,0,1-1.348-1.378,1.409,1.409,0,0,1,1.428-1.368c.046,0,.092,0,.137,0H78.48" transform="translate(-61.172 -59.808)" fill="#030202"/>
        <path id="Trazado_721089" data-name="Trazado 721089" d="M273.277,67.076c-1.4-.112-2.007-.554-2-1.433s.566-1.271,1.965-1.419c.195-1.453.61-2.016,1.472-2s1.245.556,1.4,1.982c1.459.2,2.014.617,1.989,1.475-.026.874-.656,1.318-1.79,1.362a12.8,12.8,0,0,1-.864,1.748,1.16,1.16,0,0,1-.88.258c-.843-.042-1.222-.647-1.291-1.975" transform="translate(-221.287 -50.759)" fill="#020303"/>
      </g>
    </g>
  </g>
</svg>
