<svg xmlns="http://www.w3.org/2000/svg" width="130" height="130" viewBox="0 0 130 130">
  <g id="Grupo_957917" data-name="Grupo 957917" transform="translate(-1092 -3175)">
    <circle id="Elipse_6692" data-name="Elipse 6692" cx="65" cy="65" r="65" transform="translate(1092 3175)" fill="#ffe0ab"/>
    <g id="Grupo_956879" data-name="Grupo 956879" transform="translate(1103.609 3205.195)">
      <g id="Grupo_956880" data-name="Grupo 956880" transform="translate(22.39 0.805)">
        <path id="Trazado_721103" data-name="Trazado 721103" d="M45.432,261.209c-.437-.1-.871-.222-1.311-.311a17.463,17.463,0,0,1-7.566-3.546c-.29-.233-.59-.454-1.011-.776,0,.654.009,1.192,0,1.729a8.522,8.522,0,0,1-.078,1.19,1.455,1.455,0,0,1-1.577,1.382c-3.2.015-6.393.021-9.59,0a1.829,1.829,0,0,1-1.905-2.007q0-12.72,0-25.44a1.719,1.719,0,0,1,1.816-1.918c3.263-.031,6.526-.024,9.789,0a1.338,1.338,0,0,1,1.469,1.32c.091.878.036,1.771.1,2.655a.734.734,0,0,0,.385.542c3.219.97,6.43,1.977,9.683,2.824a16.172,16.172,0,0,0,3.832.352c3.418.045,6.837.012,10.256.016a4.769,4.769,0,0,1,4.712,2.846,14.036,14.036,0,0,1,.635,2.615c.1-.044.291-.125.479-.216q5.14-2.49,10.279-4.98a5.113,5.113,0,0,1,6.715,1.612,4.965,4.965,0,0,1-1.235,6.861c-3.091,2.194-6.239,4.309-9.378,6.434-2.4,1.627-4.79,3.287-7.264,4.8a13.826,13.826,0,0,1-6.1,1.9c-.07.006-.134.078-.2.12ZM35.6,239.387a3.042,3.042,0,0,0-.046.313c0,4.085-.008,8.17.01,12.255a.966.966,0,0,0,.326.653c1.17.952,2.334,1.918,3.561,2.794a12.734,12.734,0,0,0,7.253,2.475c3.2.063,6.394-.008,9.59.045a14.248,14.248,0,0,0,8.549-2.651c4.653-3.216,9.332-6.395,14-9.591a5.62,5.62,0,0,0,.691-.518,1.7,1.7,0,0,0-.675-2.912,2.7,2.7,0,0,0-1.639.262c-3.382,1.606-6.735,3.273-10.106,4.9a26.168,26.168,0,0,1-3.687,1.663,30.515,30.515,0,0,1-13.22,1.1,1.717,1.717,0,0,1-1.678-1.78,1.64,1.64,0,0,1,2-1.453,28.084,28.084,0,0,0,9.786-.479c1.342-.3,1.338-.318,1.335-1.73,0-1.735-.489-2.227-2.215-2.228-2.886,0-5.773-.038-8.658.009a30.306,30.306,0,0,1-10.521-1.653c-1.523-.528-3.073-.976-4.658-1.475m-9.844,18.163H32.2v-22.7H25.752Z" transform="translate(-22.39 -192.999)"/>
        <path id="Trazado_721104" data-name="Trazado 721104" d="M198.647,169.026a7.795,7.795,0,1,1,7.776,7.789,7.778,7.778,0,0,1-7.776-7.789m7.758-4.5a4.492,4.492,0,1,0,4.527,4.45,4.533,4.533,0,0,0-4.527-4.45" transform="translate(-169.238 -134.46)"/>
        <path id="Trazado_721105" data-name="Trazado 721105" d="M117.955,88.357a7.795,7.795,0,1,1,7.774,7.8,7.776,7.776,0,0,1-7.774-7.8m7.768-4.493a4.491,4.491,0,1,0,4.523,4.457,4.53,4.53,0,0,0-4.523-4.457" transform="translate(-102.009 -67.257)"/>
        <path id="Trazado_721106" data-name="Trazado 721106" d="M213.143,8.582A7.8,7.8,0,1,1,205.349.8a7.8,7.8,0,0,1,7.794,7.777m-7.8,4.508a4.489,4.489,0,1,0-4.507-4.48,4.521,4.521,0,0,0,4.507,4.48" transform="translate(-168.324 -0.805)"/>
        <path id="Trazado_721107" data-name="Trazado 721107" d="M101.29,278.816c1.585.5,3.135.947,4.657,1.475a30.307,30.307,0,0,0,10.521,1.652c2.885-.047,5.772-.011,8.658-.009,1.725,0,2.211.494,2.214,2.229,0,1.412.007,1.432-1.335,1.73a28.087,28.087,0,0,1-9.786.479,1.64,1.64,0,0,0-2,1.454,1.717,1.717,0,0,0,1.678,1.78,30.514,30.514,0,0,0,13.22-1.1,26.182,26.182,0,0,0,3.687-1.663c3.37-1.63,6.724-3.3,10.106-4.9a2.7,2.7,0,0,1,1.639-.262,1.7,1.7,0,0,1,.675,2.912,5.636,5.636,0,0,1-.691.518c-4.667,3.2-9.346,6.375-14,9.591a14.247,14.247,0,0,1-8.549,2.651c-3.2-.052-6.394.018-9.59-.045a12.734,12.734,0,0,1-7.253-2.474c-1.227-.876-2.39-1.842-3.561-2.794a.965.965,0,0,1-.326-.653c-.018-4.085-.012-8.17-.01-12.254a2.993,2.993,0,0,1,.046-.313" transform="translate(-88.084 -232.428)" fill="#fdc697"/>
        <rect id="Rectángulo_339751" data-name="Rectángulo 339751" width="6.446" height="22.699" transform="translate(3.361 41.851)" fill="#127480"/>
        <path id="Trazado_721108" data-name="Trazado 721108" d="M222.7,181a4.492,4.492,0,1,1-4.5,4.5,4.5,4.5,0,0,1,4.5-4.5" transform="translate(-185.528 -150.934)" fill="#f29e26"/>
        <path id="Trazado_721109" data-name="Trazado 721109" d="M142.029,100.329a4.491,4.491,0,1,1-4.5,4.487,4.5,4.5,0,0,1,4.5-4.487" transform="translate(-118.315 -83.723)" fill="#f29e26"/>
        <path id="Trazado_721110" data-name="Trazado 721110" d="M221.75,29.6a4.489,4.489,0,1,1,4.526-4.463A4.52,4.52,0,0,1,221.75,29.6" transform="translate(-184.731 -17.319)" fill="#f19e26"/>
      </g>
    </g>
  </g>
</svg>
