<svg xmlns="http://www.w3.org/2000/svg" width="278.086" height="16.717" viewBox="0 0 278.086 16.717">
  <g id="Grupo_957983" data-name="Grupo 957983" transform="translate(-864.468 -1441.027)">
    <path id="Trazado_725360" data-name="Trazado 725360" d="M7.04,19H4.5V9.209l-3.032.94V8.084l5.3-1.9H7.04ZM75.762,9.49v5.476a2.944,2.944,0,0,0,.356,1.63,1.375,1.375,0,0,0,1.226.523,1.857,1.857,0,0,0,1.8-.923V9.49h2.54V19H79.321l-.053-.6a2.68,2.68,0,0,1-1.978.782,2.829,2.829,0,0,1-1.529-.4v3.867h-2.54V9.49Zm7.928,4.685a5.573,5.573,0,0,1,1.042-3.524,3.375,3.375,0,0,1,2.808-1.336,2.96,2.96,0,0,1,2.435,1.072l.105-.9h2.3v9.193a4.064,4.064,0,0,1-.567,2.171,3.641,3.641,0,0,1-1.6,1.406,5.608,5.608,0,0,1-2.408.483,5.215,5.215,0,0,1-2.039-.417,3.619,3.619,0,0,1-1.5-1.077L85.395,19.7a2.975,2.975,0,0,0,2.3,1.063,2.178,2.178,0,0,0,1.573-.541,2.027,2.027,0,0,0,.563-1.534v-.51a2.938,2.938,0,0,1-2.312.993,3.366,3.366,0,0,1-2.773-1.34,5.572,5.572,0,0,1-1.059-3.555Zm2.54.189a3.47,3.47,0,0,0,.519,2.029,1.65,1.65,0,0,0,1.424.735,1.764,1.764,0,0,0,1.661-.871V12.251a1.76,1.76,0,0,0-1.644-.871,1.66,1.66,0,0,0-1.437.748A3.911,3.911,0,0,0,86.229,14.364Zm20.663-1.921H99.035V10.369h7.857Zm0,3.806H99.035V14.175h7.857Zm15.214-2.54a6.483,6.483,0,0,1-1.1,4.061,4.39,4.39,0,0,1-6.416.026,6.293,6.293,0,0,1-1.134-3.955V11.485a6.4,6.4,0,0,1,1.112-4.069,4.4,4.4,0,0,1,6.4-.013,6.273,6.273,0,0,1,1.134,3.951Zm-2.54-2.59a4.686,4.686,0,0,0-.435-2.318,1.47,1.47,0,0,0-1.358-.726,1.444,1.444,0,0,0-1.323.691,4.385,4.385,0,0,0-.453,2.16V14.04a4.919,4.919,0,0,0,.426,2.327,1.451,1.451,0,0,0,1.367.761,1.426,1.426,0,0,0,1.345-.73,4.8,4.8,0,0,0,.431-2.235Zm5.019,11.089-1.327-.694.316-.571a4.567,4.567,0,0,0,.606-2.136V16.838h2.145l-.009,1.758a4.566,4.566,0,0,1-.492,1.969A5.047,5.047,0,0,1,124.585,22.208Zm12.243-8.5a6.483,6.483,0,0,1-1.1,4.061,4.39,4.39,0,0,1-6.416.026,6.293,6.293,0,0,1-1.134-3.955V11.485a6.4,6.4,0,0,1,1.112-4.069,4.4,4.4,0,0,1,6.4-.013,6.273,6.273,0,0,1,1.134,3.951Zm-2.54-2.59a4.686,4.686,0,0,0-.435-2.318,1.47,1.47,0,0,0-1.358-.726,1.444,1.444,0,0,0-1.323.691,4.385,4.385,0,0,0-.453,2.16V14.04a4.919,4.919,0,0,0,.426,2.327,1.451,1.451,0,0,0,1.367.761,1.426,1.426,0,0,0,1.345-.73,4.8,4.8,0,0,0,.431-2.235Zm12.867,2.59a6.483,6.483,0,0,1-1.1,4.061,4.39,4.39,0,0,1-6.416.026,6.293,6.293,0,0,1-1.134-3.955V11.485a6.4,6.4,0,0,1,1.112-4.069,4.4,4.4,0,0,1,6.4-.013,6.273,6.273,0,0,1,1.134,3.951Zm-2.54-2.59A4.686,4.686,0,0,0,144.18,8.8a1.47,1.47,0,0,0-1.358-.726,1.444,1.444,0,0,0-1.323.691,4.385,4.385,0,0,0-.453,2.16V14.04a4.919,4.919,0,0,0,.426,2.327,1.451,1.451,0,0,0,1.367.761,1.426,1.426,0,0,0,1.345-.73,4.8,4.8,0,0,0,.431-2.235Zm12.867,2.59a6.483,6.483,0,0,1-1.1,4.061,4.39,4.39,0,0,1-6.416.026,6.293,6.293,0,0,1-1.134-3.955V11.485a6.4,6.4,0,0,1,1.112-4.069,4.4,4.4,0,0,1,6.4-.013,6.273,6.273,0,0,1,1.134,3.951Zm-2.54-2.59a4.686,4.686,0,0,0-.435-2.318,1.47,1.47,0,0,0-1.358-.726,1.444,1.444,0,0,0-1.323.691,4.385,4.385,0,0,0-.453,2.16V14.04a4.919,4.919,0,0,0,.426,2.327,1.451,1.451,0,0,0,1.367.761,1.426,1.426,0,0,0,1.345-.73,4.8,4.8,0,0,0,.431-2.235Zm17.35,2.59a6.483,6.483,0,0,1-1.1,4.061,4.39,4.39,0,0,1-6.416.026,6.293,6.293,0,0,1-1.134-3.955V11.485a6.4,6.4,0,0,1,1.112-4.069,4.4,4.4,0,0,1,6.4-.013,6.273,6.273,0,0,1,1.134,3.951Zm-2.54-2.59a4.686,4.686,0,0,0-.435-2.318,1.47,1.47,0,0,0-1.358-.726,1.444,1.444,0,0,0-1.323.691,4.385,4.385,0,0,0-.453,2.16V14.04a4.919,4.919,0,0,0,.426,2.327,1.451,1.451,0,0,0,1.367.761,1.426,1.426,0,0,0,1.345-.73,4.8,4.8,0,0,0,.431-2.235Zm12.867,2.59a6.483,6.483,0,0,1-1.1,4.061,4.39,4.39,0,0,1-6.416.026,6.293,6.293,0,0,1-1.134-3.955V11.485a6.4,6.4,0,0,1,1.112-4.069,4.4,4.4,0,0,1,6.4-.013,6.273,6.273,0,0,1,1.134,3.951Zm-2.54-2.59a4.686,4.686,0,0,0-.435-2.318,1.47,1.47,0,0,0-1.358-.726,1.444,1.444,0,0,0-1.323.691,4.385,4.385,0,0,0-.453,2.16V14.04a4.919,4.919,0,0,0,.426,2.327,1.451,1.451,0,0,0,1.367.761,1.426,1.426,0,0,0,1.345-.73,4.8,4.8,0,0,0,.431-2.235ZM190.5,19h-2.54V9.209l-3.032.94V8.084l5.3-1.9h.272Zm8.376-4.825a5.573,5.573,0,0,1,1.042-3.524,3.375,3.375,0,0,1,2.808-1.336,2.96,2.96,0,0,1,2.435,1.072l.105-.9h2.3v9.193A4.064,4.064,0,0,1,207,20.854a3.641,3.641,0,0,1-1.6,1.406,5.608,5.608,0,0,1-2.408.483,5.215,5.215,0,0,1-2.039-.417,3.619,3.619,0,0,1-1.5-1.077l1.125-1.547a2.975,2.975,0,0,0,2.3,1.063,2.178,2.178,0,0,0,1.573-.541,2.027,2.027,0,0,0,.563-1.534v-.51a2.938,2.938,0,0,1-2.312.993,3.366,3.366,0,0,1-2.773-1.34,5.572,5.572,0,0,1-1.059-3.555Zm2.54.189a3.47,3.47,0,0,0,.519,2.029,1.65,1.65,0,0,0,1.424.735,1.764,1.764,0,0,0,1.661-.871V12.251a1.76,1.76,0,0,0-1.644-.871,1.66,1.66,0,0,0-1.437.748A3.911,3.911,0,0,0,201.419,14.364Zm20.663-1.921h-7.857V10.369h7.857Zm0,3.806h-7.857V14.175h7.857ZM234.853,19h-2.54V9.209l-3.032.94V8.084l5.3-1.9h.272Zm12.771-5.291a6.483,6.483,0,0,1-1.1,4.061,4.39,4.39,0,0,1-6.416.026,6.293,6.293,0,0,1-1.134-3.955V11.485a6.4,6.4,0,0,1,1.112-4.069,4.4,4.4,0,0,1,6.4-.013,6.273,6.273,0,0,1,1.134,3.951Zm-2.54-2.59a4.686,4.686,0,0,0-.435-2.318,1.47,1.47,0,0,0-1.358-.726,1.444,1.444,0,0,0-1.323.691,4.385,4.385,0,0,0-.453,2.16V14.04a4.919,4.919,0,0,0,.426,2.327,1.451,1.451,0,0,0,1.367.761,1.426,1.426,0,0,0,1.345-.73,4.8,4.8,0,0,0,.431-2.235Zm9.3,3.425h-4.948V12.5h4.948Zm8.824-8.473V8.163h-.246a4.315,4.315,0,0,0-2.773.9,3.642,3.642,0,0,0-1.261,2.417,3.46,3.46,0,0,1,2.575-1.037,3.26,3.26,0,0,1,2.654,1.2,4.792,4.792,0,0,1,.984,3.146,4.713,4.713,0,0,1-.541,2.259,3.877,3.877,0,0,1-1.529,1.573,4.443,4.443,0,0,1-2.237.563,4.15,4.15,0,0,1-3.265-1.406,5.459,5.459,0,0,1-1.244-3.753V13.1a8.215,8.215,0,0,1,.787-3.678,5.768,5.768,0,0,1,2.259-2.47,6.619,6.619,0,0,1,3.415-.883Zm-2.479,6.416a2.029,2.029,0,0,0-1.116.32,1.929,1.929,0,0,0-.738.847v.772a3.42,3.42,0,0,0,.5,1.987,1.619,1.619,0,0,0,1.406.715,1.6,1.6,0,0,0,1.323-.645,2.63,2.63,0,0,0,.505-1.671,2.625,2.625,0,0,0-.51-1.684A1.661,1.661,0,0,0,260.728,12.487Zm10.134,1.688A5.573,5.573,0,0,1,271.9,10.65a3.375,3.375,0,0,1,2.808-1.336,2.96,2.96,0,0,1,2.435,1.072l.105-.9h2.3v9.193a4.064,4.064,0,0,1-.567,2.171,3.641,3.641,0,0,1-1.6,1.406,5.608,5.608,0,0,1-2.408.483,5.215,5.215,0,0,1-2.039-.417,3.619,3.619,0,0,1-1.5-1.077l1.125-1.547a2.975,2.975,0,0,0,2.3,1.063,2.178,2.178,0,0,0,1.573-.541A2.027,2.027,0,0,0,277,18.692v-.51a2.938,2.938,0,0,1-2.312.993,3.366,3.366,0,0,1-2.773-1.34,5.572,5.572,0,0,1-1.059-3.555Zm2.54.189a3.47,3.47,0,0,0,.519,2.029,1.65,1.65,0,0,0,1.424.735A1.764,1.764,0,0,0,277,16.256V12.251a1.76,1.76,0,0,0-1.644-.871,1.66,1.66,0,0,0-1.437.748A3.911,3.911,0,0,0,273.4,14.364Z" transform="translate(863 1435)" fill="#12263f"/>
  </g>
</svg>
