<svg xmlns="http://www.w3.org/2000/svg" width="209.202" height="17.285" viewBox="0 0 209.202 17.285">
  <g id="Grupo_958016" data-name="Grupo 958016" transform="translate(-902.468 -1440.459)">
    <path id="Trazado_726294" data-name="Trazado 726294" d="M7.04,19H4.5V9.209l-3.032.94V8.084l5.3-1.9H7.04Zm7.049-9.51v5.476a2.944,2.944,0,0,0,.356,1.63,1.375,1.375,0,0,0,1.226.523,1.857,1.857,0,0,0,1.8-.923V9.49h2.54V19H17.648l-.053-.6a2.68,2.68,0,0,1-1.978.782,2.829,2.829,0,0,1-1.529-.4v3.867h-2.54V9.49Zm7.928,4.685a5.573,5.573,0,0,1,1.042-3.524,3.375,3.375,0,0,1,2.808-1.336A2.96,2.96,0,0,1,28.3,10.387l.105-.9h2.3v9.193a4.064,4.064,0,0,1-.567,2.171,3.641,3.641,0,0,1-1.6,1.406,5.608,5.608,0,0,1-2.408.483,5.215,5.215,0,0,1-2.039-.417,3.619,3.619,0,0,1-1.5-1.077L23.722,19.7a2.975,2.975,0,0,0,2.3,1.063,2.178,2.178,0,0,0,1.573-.541,2.027,2.027,0,0,0,.563-1.534v-.51a2.938,2.938,0,0,1-2.312.993,3.366,3.366,0,0,1-2.773-1.34,5.572,5.572,0,0,1-1.059-3.555Zm2.54.189a3.47,3.47,0,0,0,.519,2.029,1.65,1.65,0,0,0,1.424.735,1.764,1.764,0,0,0,1.661-.871V12.251a1.76,1.76,0,0,0-1.644-.871,1.66,1.66,0,0,0-1.437.748A3.911,3.911,0,0,0,24.557,14.364ZM45.22,12.443H37.362V10.369H45.22Zm0,3.806H37.362V14.175H45.22Zm15.214-2.54a6.483,6.483,0,0,1-1.1,4.061,4.39,4.39,0,0,1-6.416.026,6.293,6.293,0,0,1-1.134-3.955V11.485A6.4,6.4,0,0,1,52.9,7.416,4.4,4.4,0,0,1,59.3,7.4a6.273,6.273,0,0,1,1.134,3.951Zm-2.54-2.59A4.686,4.686,0,0,0,57.458,8.8,1.47,1.47,0,0,0,56.1,8.075a1.444,1.444,0,0,0-1.323.691,4.385,4.385,0,0,0-.453,2.16V14.04a4.919,4.919,0,0,0,.426,2.327,1.451,1.451,0,0,0,1.367.761,1.426,1.426,0,0,0,1.345-.73,4.8,4.8,0,0,0,.431-2.235Zm5.019,11.089-1.327-.694.316-.571a4.567,4.567,0,0,0,.606-2.136V16.838h2.145L64.644,18.6a4.566,4.566,0,0,1-.492,1.969A5.047,5.047,0,0,1,62.912,22.208Zm12.243-8.5a6.483,6.483,0,0,1-1.1,4.061,4.39,4.39,0,0,1-6.416.026,6.293,6.293,0,0,1-1.134-3.955V11.485a6.4,6.4,0,0,1,1.112-4.069,4.4,4.4,0,0,1,6.4-.013,6.273,6.273,0,0,1,1.134,3.951Zm-2.54-2.59A4.686,4.686,0,0,0,72.18,8.8a1.47,1.47,0,0,0-1.358-.726,1.444,1.444,0,0,0-1.323.691,4.385,4.385,0,0,0-.453,2.16V14.04a4.919,4.919,0,0,0,.426,2.327,1.451,1.451,0,0,0,1.367.761,1.426,1.426,0,0,0,1.345-.73,4.8,4.8,0,0,0,.431-2.235Zm12.867,2.59a6.483,6.483,0,0,1-1.1,4.061,4.39,4.39,0,0,1-6.416.026,6.293,6.293,0,0,1-1.134-3.955V11.485a6.4,6.4,0,0,1,1.112-4.069,4.4,4.4,0,0,1,6.4-.013,6.273,6.273,0,0,1,1.134,3.951Zm-2.54-2.59A4.686,4.686,0,0,0,82.507,8.8a1.47,1.47,0,0,0-1.358-.726,1.444,1.444,0,0,0-1.323.691,4.385,4.385,0,0,0-.453,2.16V14.04a4.919,4.919,0,0,0,.426,2.327,1.451,1.451,0,0,0,1.367.761,1.426,1.426,0,0,0,1.345-.73,4.8,4.8,0,0,0,.431-2.235Zm12.867,2.59a6.483,6.483,0,0,1-1.1,4.061,4.39,4.39,0,0,1-6.416.026,6.293,6.293,0,0,1-1.134-3.955V11.485a6.4,6.4,0,0,1,1.112-4.069,4.4,4.4,0,0,1,6.4-.013,6.273,6.273,0,0,1,1.134,3.951Zm-2.54-2.59A4.686,4.686,0,0,0,92.834,8.8a1.47,1.47,0,0,0-1.358-.726,1.444,1.444,0,0,0-1.323.691,4.385,4.385,0,0,0-.453,2.16V14.04a4.919,4.919,0,0,0,.426,2.327,1.451,1.451,0,0,0,1.367.761,1.426,1.426,0,0,0,1.345-.73,4.8,4.8,0,0,0,.431-2.235Zm17.35,2.59a6.483,6.483,0,0,1-1.1,4.061,4.39,4.39,0,0,1-6.416.026,6.293,6.293,0,0,1-1.134-3.955V11.485a6.4,6.4,0,0,1,1.112-4.069,4.4,4.4,0,0,1,6.4-.013,6.273,6.273,0,0,1,1.134,3.951Zm-2.54-2.59a4.686,4.686,0,0,0-.435-2.318,1.47,1.47,0,0,0-1.358-.726,1.444,1.444,0,0,0-1.323.691,4.385,4.385,0,0,0-.453,2.16V14.04a4.919,4.919,0,0,0,.426,2.327,1.451,1.451,0,0,0,1.367.761,1.426,1.426,0,0,0,1.345-.73,4.8,4.8,0,0,0,.431-2.235Zm12.867,2.59a6.483,6.483,0,0,1-1.1,4.061,4.39,4.39,0,0,1-6.416.026,6.293,6.293,0,0,1-1.134-3.955V11.485a6.4,6.4,0,0,1,1.112-4.069,4.4,4.4,0,0,1,6.4-.013,6.273,6.273,0,0,1,1.134,3.951Zm-2.54-2.59a4.686,4.686,0,0,0-.435-2.318,1.47,1.47,0,0,0-1.358-.726,1.444,1.444,0,0,0-1.323.691,4.385,4.385,0,0,0-.453,2.16V14.04a4.919,4.919,0,0,0,.426,2.327,1.451,1.451,0,0,0,1.367.761,1.426,1.426,0,0,0,1.345-.73,4.8,4.8,0,0,0,.431-2.235ZM128.83,19h-2.54V9.209l-3.032.94V8.084l5.3-1.9h.272Zm8.376-4.825a5.573,5.573,0,0,1,1.042-3.524,3.375,3.375,0,0,1,2.808-1.336,2.96,2.96,0,0,1,2.435,1.072l.105-.9h2.3v9.193a4.064,4.064,0,0,1-.567,2.171,3.641,3.641,0,0,1-1.6,1.406,5.608,5.608,0,0,1-2.408.483,5.215,5.215,0,0,1-2.039-.417,3.619,3.619,0,0,1-1.5-1.077l1.125-1.547a2.975,2.975,0,0,0,2.3,1.063,2.178,2.178,0,0,0,1.573-.541,2.027,2.027,0,0,0,.563-1.534v-.51a2.938,2.938,0,0,1-2.312.993,3.366,3.366,0,0,1-2.773-1.34,5.572,5.572,0,0,1-1.059-3.555Zm2.54.189a3.47,3.47,0,0,0,.519,2.029,1.65,1.65,0,0,0,1.424.735,1.764,1.764,0,0,0,1.661-.871V12.251a1.76,1.76,0,0,0-1.644-.871,1.66,1.66,0,0,0-1.437.748A3.911,3.911,0,0,0,139.746,14.364Zm20.663-1.921h-7.857V10.369h7.857Zm0,3.806h-7.857V14.175h7.857ZM173.18,19h-2.54V9.209l-3.032.94V8.084l5.3-1.9h.272Zm12.771-5.291a6.483,6.483,0,0,1-1.1,4.061,4.39,4.39,0,0,1-6.416.026,6.293,6.293,0,0,1-1.134-3.955V11.485a6.4,6.4,0,0,1,1.112-4.069,4.4,4.4,0,0,1,6.4-.013,6.273,6.273,0,0,1,1.134,3.951Zm-2.54-2.59a4.686,4.686,0,0,0-.435-2.318,1.47,1.47,0,0,0-1.358-.726,1.444,1.444,0,0,0-1.323.691,4.385,4.385,0,0,0-.453,2.16V14.04a4.919,4.919,0,0,0,.426,2.327,1.451,1.451,0,0,0,1.367.761,1.426,1.426,0,0,0,1.345-.73,4.8,4.8,0,0,0,.431-2.235Zm6.834-.718h-2.886V9.206h2.886Zm5.147-4.942v1.22h-.144a2.517,2.517,0,0,0-1.617.523,2.125,2.125,0,0,0-.736,1.41,2.018,2.018,0,0,1,1.5-.6,1.9,1.9,0,0,1,1.548.7,2.8,2.8,0,0,1,.574,1.835,2.749,2.749,0,0,1-.315,1.318,2.261,2.261,0,0,1-.892.918,2.592,2.592,0,0,1-1.3.328,2.42,2.42,0,0,1-1.9-.82,3.184,3.184,0,0,1-.725-2.189V9.56a4.792,4.792,0,0,1,.459-2.146,3.365,3.365,0,0,1,1.318-1.441,3.861,3.861,0,0,1,1.992-.515ZM193.946,9.2a1.184,1.184,0,0,0-.651.187,1.125,1.125,0,0,0-.431.494v.45a2,2,0,0,0,.292,1.159.944.944,0,0,0,.82.417.934.934,0,0,0,.772-.376,1.534,1.534,0,0,0,.295-.975,1.531,1.531,0,0,0-.3-.982A.969.969,0,0,0,193.946,9.2Zm8.032,4.974a5.573,5.573,0,0,1,1.042-3.524,3.375,3.375,0,0,1,2.808-1.336,2.96,2.96,0,0,1,2.435,1.072l.105-.9h2.3v9.193a4.064,4.064,0,0,1-.567,2.171,3.641,3.641,0,0,1-1.6,1.406,5.608,5.608,0,0,1-2.408.483,5.215,5.215,0,0,1-2.039-.417,3.619,3.619,0,0,1-1.5-1.077l1.125-1.547a2.975,2.975,0,0,0,2.3,1.063,2.178,2.178,0,0,0,1.573-.541,2.027,2.027,0,0,0,.563-1.534v-.51a2.938,2.938,0,0,1-2.312.993,3.366,3.366,0,0,1-2.773-1.34,5.572,5.572,0,0,1-1.059-3.555Zm2.54.189a3.47,3.47,0,0,0,.519,2.029,1.65,1.65,0,0,0,1.424.735,1.764,1.764,0,0,0,1.661-.871V12.251a1.76,1.76,0,0,0-1.644-.871,1.66,1.66,0,0,0-1.437.748A3.911,3.911,0,0,0,204.517,14.364Z" transform="translate(901 1435)" fill="#12263f"/>
  </g>
</svg>
