<svg xmlns="http://www.w3.org/2000/svg" width="132" height="58.078" viewBox="0 0 132 58.078">
  <g id="Grupo_957984" data-name="Grupo 957984" transform="translate(-774.617 -16048.922)">
    <path id="Trazado_725366" data-name="Trazado 725366" d="M23.711,27.813,28.242,11.25h6.125L26.711,34h-6L13.117,11.25H19.2ZM47.367,34H42.086V17.188L36.9,18.7v-4l9.984-3.453h.484ZM21.023,52.094l.172,1.984a5.733,5.733,0,0,1,4.828-2.3,4.823,4.823,0,0,1,3.945,1.578,7.513,7.513,0,0,1,1.352,4.75V69H26.039V58.328a2.853,2.853,0,0,0-.516-1.883,2.385,2.385,0,0,0-1.875-.6,2.511,2.511,0,0,0-2.3,1.219V69H16.086V52.094ZM45.82,69H40.539V52.188L35.352,53.7v-4l9.984-3.453h.484Z" transform="translate(769 16038)" fill="#12263f"/>
    <path id="Trazado_725367" data-name="Trazado 725367" d="M23.711,27.813,28.242,11.25h6.125L26.711,34h-6L13.117,11.25H19.2ZM51.57,34H35.7V30.563l7.313-7.687q2.7-3.078,2.7-4.891a3.4,3.4,0,0,0-.641-2.234,2.287,2.287,0,0,0-1.859-.766,2.316,2.316,0,0,0-1.953,1.023,4.206,4.206,0,0,0-.75,2.555H35.227A7.471,7.471,0,0,1,36.273,14.7a7.341,7.341,0,0,1,2.906-2.773,8.633,8.633,0,0,1,4.156-1,8.493,8.493,0,0,1,5.68,1.7,6.08,6.08,0,0,1,1.992,4.891,7.1,7.1,0,0,1-.5,2.617A11.477,11.477,0,0,1,48.953,22.8a39.162,39.162,0,0,1-3.4,3.742l-2.937,3.391H51.57ZM21.023,52.094l.172,1.984a5.733,5.733,0,0,1,4.828-2.3,4.823,4.823,0,0,1,3.945,1.578,7.513,7.513,0,0,1,1.352,4.75V69H26.039V58.328a2.853,2.853,0,0,0-.516-1.883,2.385,2.385,0,0,0-1.875-.6,2.511,2.511,0,0,0-2.3,1.219V69H16.086V52.094ZM50.023,69H34.148V65.563l7.313-7.687q2.7-3.078,2.7-4.891a3.4,3.4,0,0,0-.641-2.234,2.287,2.287,0,0,0-1.859-.766,2.316,2.316,0,0,0-1.953,1.023,4.206,4.206,0,0,0-.75,2.555H33.68A7.471,7.471,0,0,1,34.727,49.7a7.341,7.341,0,0,1,2.906-2.773,8.633,8.633,0,0,1,4.156-1,8.493,8.493,0,0,1,5.68,1.7,6.08,6.08,0,0,1,1.992,4.891,7.1,7.1,0,0,1-.5,2.617A11.477,11.477,0,0,1,47.406,57.8a39.162,39.162,0,0,1-3.4,3.742L41.07,64.938h8.953Z" transform="translate(849 16038)" fill="#12263f"/>
    <path id="Trazado_725368" data-name="Trazado 725368" d="M18.1,22.719H3.633V18.656H18.1Zm0,6.859H3.633V25.516H18.1Z" transform="translate(830 16056)" fill="#12263f"/>
    <path id="Trazado_725369" data-name="Trazado 725369" d="M0,0H49" transform="translate(774.617 16074.5)" fill="none" stroke="#707070" stroke-width="2"/>
    <path id="Trazado_725370" data-name="Trazado 725370" d="M0,0H49" transform="translate(857.617 16074.5)" fill="none" stroke="#707070" stroke-width="2"/>
  </g>
</svg>
