<svg xmlns="http://www.w3.org/2000/svg" width="642.572" height="205.623" viewBox="0 0 642.572 205.623">
  <g id="Grupo_957983" data-name="Grupo 957983" transform="translate(-482 -20152)">
    <g id="Grupo_956840" data-name="Grupo 956840" transform="translate(482 20157)">
      <g id="Grupo_956846" data-name="Grupo 956846">
        <path id="Trazado_720964" data-name="Trazado 720964" d="M146.124,89.126A69.428,69.428,0,1,1,76.7,19.7a69.428,69.428,0,0,1,69.428,69.428" fill="#feb12e"/>
        <path id="Trazado_720965" data-name="Trazado 720965" d="M87.953,139.736A69.425,69.425,0,0,1,23.484,44.544a69.423,69.423,0,1,0,117.68,70.345,69.271,69.271,0,0,1-53.211,24.847" fill="#f5a927"/>
        <path id="Trazado_720968" data-name="Trazado 720968" d="M161.82,93.125a4,4,0,0,1-4-4A81.134,81.134,0,0,0,7.414,46.9,4,4,0,1,1,.587,42.727a89.133,89.133,0,0,1,165.233,46.4,4,4,0,0,1-4,4" fill="#feb12e"/>
        <path id="Trazado_720969" data-name="Trazado 720969" d="M164.1,98.66l7.12-12.331a2.628,2.628,0,0,0-2.276-3.942H154.7a2.628,2.628,0,0,0-2.276,3.942l7.12,12.331a2.627,2.627,0,0,0,4.551,0" fill="#feb12e"/>
      </g>
    </g>
    <g id="Grupo_957758" data-name="Grupo 957758" transform="translate(-57.656 56.623)">
      <path id="Trazado_720970" data-name="Trazado 720970" d="M94.567,59.862a29.446,29.446,0,0,0-22.374-7.917,29.709,29.709,0,0,0-20.677,48.723,58.4,58.4,0,0,1,6.695,9.609l3.527,6.487a4.957,4.957,0,0,0-1.4,8.255,4.957,4.957,0,0,0,3.323,8.643h4.449a6.308,6.308,0,0,0,12.356,0H84.92a4.957,4.957,0,0,0,3.322-8.643,4.957,4.957,0,0,0-1.395-8.255l3.531-6.494a56.177,56.177,0,0,1,6.6-9.5,29.706,29.706,0,0,0-2.414-40.911M87.341,121.34a2.416,2.416,0,0,1-2.23,2.4c-.064,0-.127-.01-.191-.01H63.666c-.065,0-.127.008-.191.01a2.416,2.416,0,0,1,.191-4.824H84.92a2.424,2.424,0,0,1,2.421,2.422m0,7.357a2.424,2.424,0,0,1-2.421,2.422H63.666a2.422,2.422,0,1,1,0-4.843H84.92a2.424,2.424,0,0,1,2.421,2.421m-16.576,4.965H77.82a3.743,3.743,0,0,1-7.055,0M67.847,116.2,62.258,94.279l3.011,2.758a1.249,1.249,0,0,0,.947.33,1.273,1.273,0,0,0,.892-.457l3.572-4.316,3.233,4.887a1.271,1.271,0,0,0,1.884.266l4.959-4.218.858,3.37a1.271,1.271,0,0,0,2.131.585l1.966-1.966-5.745,21.144a1.342,1.342,0,0,0-.041.291l-12.045-.4a1.275,1.275,0,0,0-.033-.356m16.317.179H82.68l6.739-24.8a1.271,1.271,0,0,0-2.126-1.233l-3.766,3.765-.809-3.179a1.271,1.271,0,0,0-2.056-.655l-5.42,4.609-3.388-5.121a1.274,1.274,0,0,0-.993-.568,1.3,1.3,0,0,0-1.047.46L66,94.258l-5.17-4.735a1.272,1.272,0,0,0-2.091,1.252l6.527,25.6h-.845l-3.977-7.314a60.812,60.812,0,0,0-6.981-10.027,27.175,27.175,0,1,1,41.576.1,58.65,58.65,0,0,0-6.9,9.926Z" transform="translate(543 20105.377)" fill="#fff"/>
      <path id="Trazado_720971" data-name="Trazado 720971" d="M74.293,47.023a1.273,1.273,0,0,0,1.272-1.272V38.559a1.272,1.272,0,1,0-2.544,0v7.192a1.273,1.273,0,0,0,1.272,1.272" transform="translate(543 20105.377)" fill="#fff"/>
      <path id="Trazado_720972" data-name="Trazado 720972" d="M59.992,48.361a1.272,1.272,0,0,0,1.2.842,1.292,1.292,0,0,0,.43-.074,1.272,1.272,0,0,0,.766-1.627l-2.432-6.769a1.271,1.271,0,1,0-2.393.859Z" transform="translate(543 20105.377)" fill="#fff"/>
      <path id="Trazado_720973" data-name="Trazado 720973" d="M49.535,55.65A1.272,1.272,0,1,0,51.28,53.8l-5.232-4.935a1.272,1.272,0,1,0-1.745,1.85Z" transform="translate(543 20105.377)" fill="#fff"/>
      <path id="Trazado_720974" data-name="Trazado 720974" d="M35.311,64.044l6.615,2.825a1.272,1.272,0,0,0,1-2.34L36.31,61.7a1.272,1.272,0,0,0-1,2.34" transform="translate(543 20105.377)" fill="#fff"/>
      <path id="Trazado_720975" data-name="Trazado 720975" d="M39.117,79.691a1.271,1.271,0,0,0,.043-2.541L31.971,76.9a1.271,1.271,0,1,0-.086,2.541l7.188.246h.044" transform="translate(543 20105.377)" fill="#fff"/>
      <path id="Trazado_720976" data-name="Trazado 720976" d="M41.3,89.988a1.271,1.271,0,0,0-1.653-.708l-6.678,2.673a1.272,1.272,0,0,0,.946,2.362l6.677-2.674a1.271,1.271,0,0,0,.708-1.653" transform="translate(543 20105.377)" fill="#fff"/>
      <path id="Trazado_720977" data-name="Trazado 720977" d="M45.649,100.4l-5.4,4.756a1.272,1.272,0,1,0,1.682,1.908l5.4-4.756a1.272,1.272,0,1,0-1.682-1.908" transform="translate(543 20105.377)" fill="#fff"/>
      <path id="Trazado_720978" data-name="Trazado 720978" d="M87.182,49.128a1.292,1.292,0,0,0,.43.074,1.272,1.272,0,0,0,1.2-.842l2.432-6.768a1.271,1.271,0,1,0-2.393-.86L86.415,47.5a1.273,1.273,0,0,0,.767,1.627" transform="translate(543 20105.377)" fill="#fff"/>
      <path id="Trazado_720979" data-name="Trazado 720979" d="M98.394,56a1.266,1.266,0,0,0,.872-.347l5.232-4.935a1.271,1.271,0,1,0-1.745-1.849L97.521,53.8a1.271,1.271,0,0,0,.873,2.2" transform="translate(543 20105.377)" fill="#fff"/>
      <path id="Trazado_720980" data-name="Trazado 720980" d="M106.377,66.971a1.259,1.259,0,0,0,.5-.1l6.615-2.825a1.272,1.272,0,0,0-1-2.339l-6.614,2.824a1.272,1.272,0,0,0,.5,2.442" transform="translate(543 20105.377)" fill="#fff"/>
      <path id="Trazado_720981" data-name="Trazado 720981" d="M116.83,76.9l-7.188.246a1.271,1.271,0,0,0,.042,2.542h.045l7.188-.246a1.272,1.272,0,0,0-.087-2.542" transform="translate(543 20105.377)" fill="#fff"/>
      <path id="Trazado_720982" data-name="Trazado 720982" d="M115.834,91.954l-6.677-2.673a1.272,1.272,0,1,0-.946,2.361l6.678,2.673a1.272,1.272,0,1,0,.945-2.361" transform="translate(543 20105.377)" fill="#fff"/>
      <path id="Trazado_720983" data-name="Trazado 720983" d="M103.152,100.4a1.271,1.271,0,1,0-1.681,1.908l5.395,4.756a1.272,1.272,0,1,0,1.682-1.908Z" transform="translate(543 20105.377)" fill="#fff"/>
    </g>
    <path id="Trazado_725364" data-name="Trazado 725364" d="M15,0H124a15,15,0,0,1,0,30H15A15,15,0,0,1,15,0Z" transform="translate(495 20322.623)" fill="#feb12e"/>
    <path id="Trazado_725365" data-name="Trazado 725365" d="M-28.309-4.93h-4.5v3.047h5.281V0h-7.625V-11.375h7.609v1.9h-5.266v2.711h4.5ZM-16.9,0h-2.344l-4.562-7.484V0h-2.344V-11.375h2.344l4.57,7.5v-7.5H-16.9ZM-6.293-9.477H-9.777V0h-2.344V-9.477h-3.437v-1.9h9.266ZM-.746-4.164H-2.613V0H-4.957V-11.375H-.73a4.778,4.778,0,0,1,3.109.9A3.1,3.1,0,0,1,3.473-7.937,3.5,3.5,0,0,1,2.969-6,3.437,3.437,0,0,1,1.441-4.758L3.9-.109V0H1.387Zm-1.867-1.9H-.723A1.936,1.936,0,0,0,.645-6.512,1.606,1.606,0,0,0,1.129-7.75,1.719,1.719,0,0,0,.672-9.016a1.9,1.9,0,0,0-1.4-.461H-2.613ZM11.676-2.344H7.566L6.785,0H4.293L8.527-11.375H10.7L14.957,0H12.465ZM8.2-4.242h2.844L9.613-8.5ZM16.02,0V-11.375h3.5A5.315,5.315,0,0,1,22.2-10.7a4.712,4.712,0,0,1,1.848,1.922,5.928,5.928,0,0,1,.664,2.832v.523a5.945,5.945,0,0,1-.652,2.82,4.672,4.672,0,0,1-1.84,1.914A5.355,5.355,0,0,1,19.543,0Zm2.344-9.477v7.594H19.5a2.545,2.545,0,0,0,2.1-.9,4.06,4.06,0,0,0,.742-2.57v-.6a4.124,4.124,0,0,0-.719-2.629,2.537,2.537,0,0,0-2.1-.895ZM32.84-2.344H28.73L27.949,0H25.457l4.234-11.375h2.172L36.121,0H33.629Zm-3.477-1.9h2.844L30.777-8.5Z" transform="translate(565 20343.623)" fill="#12263f"/>
    <path id="Trazado_720984" data-name="Trazado 720984" d="M178.3,141.653a69.428,69.428,0,1,0,69.428-69.428A69.428,69.428,0,0,0,178.3,141.653" transform="translate(514.252 20126.377)" fill="#49cf99"/>
    <g id="Grupo_957760" data-name="Grupo 957760" transform="translate(-28.748 21)">
      <path id="Trazado_720985" data-name="Trazado 720985" d="M247.444,228.623A88.58,88.58,0,0,1,171.335,185.9a4,4,0,0,1,6.827-4.17A81.134,81.134,0,0,0,328.569,139.5a4,4,0,1,1,8,0,89.225,89.225,0,0,1-89.125,89.124" transform="translate(543 20105.377)" fill="#34bc85"/>
      <path id="Trazado_720986" data-name="Trazado 720986" d="M334.845,129.964l7.119,12.331a2.627,2.627,0,0,1-2.275,3.942H325.45a2.628,2.628,0,0,1-2.276-3.942l7.12-12.331a2.627,2.627,0,0,1,4.551,0" transform="translate(543 20105.377)" fill="#34bc85"/>
    </g>
    <path id="Trazado_720987" data-name="Trazado 720987" d="M258.987,192.264a69.425,69.425,0,0,1-64.469-95.192A69.423,69.423,0,1,0,312.2,167.417a69.271,69.271,0,0,1-53.211,24.847" transform="translate(514.252 20126.377)" fill="#34bc85"/>
    <g id="Grupo_957759" data-name="Grupo 957759" transform="translate(-28.748 21)">
      <path id="Trazado_720988" data-name="Trazado 720988" d="M272.723,100.583H222.736a4.842,4.842,0,0,0-4.837,4.836V176.96a4.842,4.842,0,0,0,4.837,4.837h49.987a4.841,4.841,0,0,0,4.836-4.837V105.419a4.841,4.841,0,0,0-4.836-4.836m1.987,76.377a1.99,1.99,0,0,1-1.987,1.988H222.736a1.99,1.99,0,0,1-1.987-1.988V105.419a1.989,1.989,0,0,1,1.987-1.987h49.987a1.989,1.989,0,0,1,1.987,1.987Z" transform="translate(543 20105.377)" fill="#fff"/>
      <path id="Trazado_720989" data-name="Trazado 720989" d="M268.293,111.735H239.016a1.424,1.424,0,1,0,0,2.849h29.277a1.424,1.424,0,1,0,0-2.849" transform="translate(543 20105.377)" fill="#fff"/>
      <path id="Trazado_720990" data-name="Trazado 720990" d="M268.293,120.855H227.34a1.424,1.424,0,0,0,0,2.849h40.953a1.424,1.424,0,1,0,0-2.849" transform="translate(543 20105.377)" fill="#fff"/>
      <path id="Trazado_720991" data-name="Trazado 720991" d="M268.293,129.975H227.34a1.424,1.424,0,0,0,0,2.849h40.953a1.424,1.424,0,1,0,0-2.849" transform="translate(543 20105.377)" fill="#fff"/>
      <path id="Trazado_720992" data-name="Trazado 720992" d="M268.293,139.1H227.34a1.424,1.424,0,0,0,0,2.849h40.953a1.424,1.424,0,1,0,0-2.849" transform="translate(543 20105.377)" fill="#fff"/>
      <path id="Trazado_720993" data-name="Trazado 720993" d="M268.293,148.215H227.34a1.424,1.424,0,0,0,0,2.849h40.953a1.424,1.424,0,1,0,0-2.849" transform="translate(543 20105.377)" fill="#fff"/>
      <path id="Trazado_720994" data-name="Trazado 720994" d="M268.293,157.335H227.34a1.424,1.424,0,0,0,0,2.849h40.953a1.424,1.424,0,1,0,0-2.849" transform="translate(543 20105.377)" fill="#fff"/>
      <path id="Trazado_720995" data-name="Trazado 720995" d="M268.293,166.454H227.34a1.424,1.424,0,0,0,0,2.849h40.953a1.424,1.424,0,1,0,0-2.849" transform="translate(543 20105.377)" fill="#fff"/>
    </g>
    <path id="Trazado_725362" data-name="Trazado 725362" d="M15,0H124a15,15,0,0,1,0,30H15A15,15,0,0,1,15,0Z" transform="translate(692.252 20156)" fill="#34bc85"/>
    <path id="Trazado_725363" data-name="Trazado 725363" d="M-32.605-4.008V0h-2.344V-11.375h4.438a5.134,5.134,0,0,1,2.254.469,3.454,3.454,0,0,1,1.5,1.332,3.714,3.714,0,0,1,.523,1.965,3.266,3.266,0,0,1-1.145,2.637,4.767,4.767,0,0,1-3.168.965Zm0-1.9h2.094a2.059,2.059,0,0,0,1.418-.437,1.591,1.591,0,0,0,.488-1.25A1.876,1.876,0,0,0-29.1-8.945a1.839,1.839,0,0,0-1.359-.531h-2.148Zm12.188,1.742h-1.867V0h-2.344V-11.375H-20.4a4.778,4.778,0,0,1,3.109.9A3.1,3.1,0,0,1-16.2-7.937,3.5,3.5,0,0,1-16.7-6,3.437,3.437,0,0,1-18.23-4.758L-15.77-.109V0h-2.516Zm-1.867-1.9h1.891a1.936,1.936,0,0,0,1.367-.449,1.606,1.606,0,0,0,.484-1.238A1.719,1.719,0,0,0-19-9.016a1.9,1.9,0,0,0-1.4-.461h-1.883Zm17.211.633a6.867,6.867,0,0,1-.594,2.945,4.472,4.472,0,0,1-1.7,1.953A4.7,4.7,0,0,1-9.9.156a4.732,4.732,0,0,1-2.523-.68,4.515,4.515,0,0,1-1.719-1.941,6.67,6.67,0,0,1-.617-2.9V-5.93a6.831,6.831,0,0,1,.605-2.957,4.508,4.508,0,0,1,1.711-1.961,4.706,4.706,0,0,1,2.527-.684,4.706,4.706,0,0,1,2.527.684A4.508,4.508,0,0,1-5.68-8.887a6.811,6.811,0,0,1,.605,2.949Zm-2.375-.516A4.787,4.787,0,0,0-8.09-8.664a2.088,2.088,0,0,0-1.828-.93,2.088,2.088,0,0,0-1.82.918,4.732,4.732,0,0,0-.648,2.691v.555a4.847,4.847,0,0,0,.641,2.7A2.082,2.082,0,0,0-9.9-1.766,2.064,2.064,0,0,0-8.09-2.691a4.819,4.819,0,0,0,.641-2.7ZM5.559-3.789A4.025,4.025,0,0,1,4.2-.9,4.76,4.76,0,0,1,.98.156,4.28,4.28,0,0,1-2.461-1.316,6.038,6.038,0,0,1-3.715-5.359v-.7a6.819,6.819,0,0,1,.578-2.891,4.332,4.332,0,0,1,1.652-1.918,4.629,4.629,0,0,1,2.5-.668,4.637,4.637,0,0,1,3.172,1.055A4.326,4.326,0,0,1,5.574-7.516H3.23a2.376,2.376,0,0,0-.613-1.6,2.271,2.271,0,0,0-1.605-.5,1.991,1.991,0,0,0-1.754.84,4.707,4.707,0,0,0-.6,2.605V-5.3a5.038,5.038,0,0,0,.559,2.7A1.954,1.954,0,0,0,.98-1.758a2.314,2.314,0,0,0,1.621-.5,2.241,2.241,0,0,0,.613-1.535ZM13.941-4.93h-4.5v3.047h5.281V0H7.1V-11.375h7.609v1.9H9.441v2.711h4.5ZM22-2.984A1.2,1.2,0,0,0,21.527-4a6.148,6.148,0,0,0-1.687-.75,11.963,11.963,0,0,1-1.93-.777,3.153,3.153,0,0,1-1.937-2.82A2.747,2.747,0,0,1,16.492-10a3.389,3.389,0,0,1,1.492-1.129,5.616,5.616,0,0,1,2.184-.406,5.112,5.112,0,0,1,2.172.441,3.458,3.458,0,0,1,1.48,1.246,3.261,3.261,0,0,1,.527,1.828H22a1.534,1.534,0,0,0-.492-1.215,2.023,2.023,0,0,0-1.383-.434,2.162,2.162,0,0,0-1.336.363,1.146,1.146,0,0,0-.477.957,1.1,1.1,0,0,0,.559.93,6.311,6.311,0,0,0,1.645.7,7.106,7.106,0,0,1,2.914,1.492A2.972,2.972,0,0,1,24.348-3,2.737,2.737,0,0,1,23.23-.684a4.891,4.891,0,0,1-3.008.84,5.808,5.808,0,0,1-2.391-.48,3.783,3.783,0,0,1-1.645-1.316,3.371,3.371,0,0,1-.566-1.937h2.352q0,1.883,2.25,1.883a2.189,2.189,0,0,0,1.3-.34A1.106,1.106,0,0,0,22-2.984ZM35.277-5.43a6.867,6.867,0,0,1-.594,2.945,4.472,4.472,0,0,1-1.7,1.953,4.7,4.7,0,0,1-2.535.688,4.732,4.732,0,0,1-2.523-.68,4.515,4.515,0,0,1-1.719-1.941,6.67,6.67,0,0,1-.617-2.9V-5.93A6.831,6.831,0,0,1,26.2-8.887a4.508,4.508,0,0,1,1.711-1.961,4.706,4.706,0,0,1,2.527-.684,4.706,4.706,0,0,1,2.527.684,4.508,4.508,0,0,1,1.711,1.961,6.811,6.811,0,0,1,.605,2.949ZM32.9-5.945a4.787,4.787,0,0,0-.641-2.719,2.088,2.088,0,0,0-1.828-.93,2.088,2.088,0,0,0-1.82.918,4.732,4.732,0,0,0-.648,2.691v.555a4.847,4.847,0,0,0,.641,2.7,2.082,2.082,0,0,0,1.844.961,2.064,2.064,0,0,0,1.813-.926,4.819,4.819,0,0,0,.641-2.7Z" transform="translate(761.263 20176)" fill="#12263f"/>
    <g id="Grupo_956848" data-name="Grupo 956848" transform="translate(611.061 20152)">
      <path id="Trazado_720998" data-name="Trazado 720998" d="M488.064,89.126A69.428,69.428,0,1,1,418.636,19.7a69.428,69.428,0,0,1,69.428,69.428" fill="#0e494d"/>
      <path id="Trazado_720999" data-name="Trazado 720999" d="M503.76,93.125a4,4,0,0,1-4-4A81.134,81.134,0,0,0,349.354,46.9a4,4,0,1,1-6.827-4.169,89.133,89.133,0,0,1,165.233,46.4,4,4,0,0,1-4,4" fill="#0e494d"/>
      <path id="Trazado_721000" data-name="Trazado 721000" d="M506.036,98.66l7.119-12.331a2.627,2.627,0,0,0-2.275-3.942H496.641a2.628,2.628,0,0,0-2.276,3.942l7.12,12.331a2.627,2.627,0,0,0,4.551,0" fill="#0e494d"/>
      <path id="Trazado_721001" data-name="Trazado 721001" d="M429.9,139.736a69.425,69.425,0,0,1-64.469-95.192,69.423,69.423,0,1,0,117.68,70.345A69.271,69.271,0,0,1,429.9,139.736" fill="#0b3c40"/>
      <path id="Trazado_721002" data-name="Trazado 721002" d="M419.981,91.076a26.288,26.288,0,0,0,2.9-6.976h6.566a1.32,1.32,0,0,0,1.32-1.32V72.285a1.321,1.321,0,0,0-1.32-1.321h-6.566a26.329,26.329,0,0,0-2.9-6.975l4.647-4.647a1.319,1.319,0,0,0,0-1.867l-7.421-7.421a1.321,1.321,0,0,0-1.868,0L410.693,54.7a26.255,26.255,0,0,0-6.976-2.9V45.24a1.321,1.321,0,0,0-1.321-1.321H391.9a1.321,1.321,0,0,0-1.32,1.321v6.566a26.242,26.242,0,0,0-6.976,2.9l-4.647-4.647a1.319,1.319,0,0,0-1.867,0l-7.421,7.421a1.319,1.319,0,0,0,0,1.867l4.647,4.647a26.3,26.3,0,0,0-2.895,6.975h-6.566a1.321,1.321,0,0,0-1.32,1.321V82.78a1.32,1.32,0,0,0,1.32,1.32h6.566a26.275,26.275,0,0,0,2.895,6.976l-4.647,4.647a1.319,1.319,0,0,0,0,1.867l7.421,7.421a1.319,1.319,0,0,0,1.867,0l4.648-4.646a26.274,26.274,0,0,0,6.975,2.894v6.567a1.32,1.32,0,0,0,1.32,1.32H402.4a1.32,1.32,0,0,0,1.321-1.32v-6.567a26.274,26.274,0,0,0,6.975-2.894l4.647,4.646a1.321,1.321,0,0,0,1.868,0l7.421-7.421a1.319,1.319,0,0,0,0-1.867Zm-3.708,11.135-4.455-4.454a1.323,1.323,0,0,0-1.653-.174,23.67,23.67,0,0,1-8.042,3.336,1.321,1.321,0,0,0-1.047,1.292v6.295h-7.854v-6.295a1.321,1.321,0,0,0-1.048-1.292,23.674,23.674,0,0,1-8.041-3.336,1.323,1.323,0,0,0-1.653.174l-4.455,4.454-5.554-5.555,4.454-4.454a1.32,1.32,0,0,0,.174-1.654,23.674,23.674,0,0,1-3.337-8.041,1.321,1.321,0,0,0-1.292-1.047h-6.294V73.605h6.294a1.321,1.321,0,0,0,1.292-1.047,23.691,23.691,0,0,1,3.337-8.041,1.32,1.32,0,0,0-.174-1.654l-4.454-4.454,5.554-5.554,4.455,4.454a1.318,1.318,0,0,0,1.653.173,23.649,23.649,0,0,1,8.042-3.336,1.322,1.322,0,0,0,1.047-1.292V46.56h7.854v6.294a1.322,1.322,0,0,0,1.047,1.292,23.644,23.644,0,0,1,8.041,3.336,1.32,1.32,0,0,0,1.654-.173l4.455-4.454,5.554,5.554-4.454,4.454a1.32,1.32,0,0,0-.173,1.653,23.711,23.711,0,0,1,3.336,8.042,1.321,1.321,0,0,0,1.292,1.047h6.294V81.46h-6.294a1.321,1.321,0,0,0-1.292,1.047,23.711,23.711,0,0,1-3.336,8.042,1.32,1.32,0,0,0,.173,1.653l4.454,4.454Z" fill="#fff"/>
      <path id="Trazado_721003" data-name="Trazado 721003" d="M397.149,61.075a16.457,16.457,0,1,0,16.458,16.457,16.476,16.476,0,0,0-16.458-16.457m0,30.274a13.817,13.817,0,1,1,13.817-13.817,13.832,13.832,0,0,1-13.817,13.817" fill="#fff"/>
      <path id="Trazado_721004" data-name="Trazado 721004" d="M471.38,101.12h-4.135a18.314,18.314,0,0,0-1.763-4.247l2.926-2.927a1.319,1.319,0,0,0,0-1.867l-5.042-5.042a1.319,1.319,0,0,0-1.867,0l-2.927,2.927a18.212,18.212,0,0,0-4.248-1.764V84.064a1.319,1.319,0,0,0-1.32-1.32h-7.131a1.32,1.32,0,0,0-1.32,1.32V88.2a18.213,18.213,0,0,0-4.248,1.764l-2.927-2.927a1.319,1.319,0,0,0-1.867,0l-5.042,5.042a1.319,1.319,0,0,0,0,1.867l2.926,2.927a18.333,18.333,0,0,0-1.763,4.247H427.5a1.32,1.32,0,0,0-1.32,1.32v7.131a1.321,1.321,0,0,0,1.32,1.321h4.135a18.34,18.34,0,0,0,1.763,4.248l-2.926,2.927a1.319,1.319,0,0,0,0,1.867l5.042,5.042a1.319,1.319,0,0,0,1.867,0l2.927-2.927a18.26,18.26,0,0,0,4.248,1.763v4.136a1.321,1.321,0,0,0,1.32,1.321H453a1.32,1.32,0,0,0,1.32-1.321v-4.136a18.26,18.26,0,0,0,4.248-1.763l2.927,2.927a1.319,1.319,0,0,0,1.867,0l5.042-5.042a1.319,1.319,0,0,0,0-1.867l-2.926-2.927a18.3,18.3,0,0,0,1.763-4.248h4.135a1.321,1.321,0,0,0,1.321-1.321V102.44a1.32,1.32,0,0,0-1.321-1.32m-1.32,7.131h-3.853a1.321,1.321,0,0,0-1.292,1.047,15.7,15.7,0,0,1-2.207,5.322,1.32,1.32,0,0,0,.173,1.653L465.608,119l-3.176,3.175-2.727-2.727a1.321,1.321,0,0,0-1.653-.173,15.7,15.7,0,0,1-5.322,2.208,1.32,1.32,0,0,0-1.046,1.292v3.853h-4.491v-3.853a1.32,1.32,0,0,0-1.046-1.292,15.686,15.686,0,0,1-5.321-2.208,1.322,1.322,0,0,0-1.654.173l-2.727,2.727L433.269,119,436,116.273a1.32,1.32,0,0,0,.174-1.653,15.683,15.683,0,0,1-2.208-5.322,1.321,1.321,0,0,0-1.292-1.047h-3.853v-4.49h3.853a1.321,1.321,0,0,0,1.292-1.047,15.678,15.678,0,0,1,2.208-5.321A1.32,1.32,0,0,0,436,95.74l-2.727-2.728,3.176-3.175,2.727,2.728a1.32,1.32,0,0,0,1.654.172,15.68,15.68,0,0,1,5.32-2.207,1.32,1.32,0,0,0,1.047-1.292V85.385h4.491v3.853a1.321,1.321,0,0,0,1.047,1.292,15.693,15.693,0,0,1,5.321,2.207,1.318,1.318,0,0,0,1.653-.172l2.727-2.728,3.176,3.175-2.727,2.728a1.32,1.32,0,0,0-.173,1.653,15.689,15.689,0,0,1,2.207,5.321,1.321,1.321,0,0,0,1.292,1.047h3.853Z" fill="#fff"/>
      <path id="Trazado_721005" data-name="Trazado 721005" d="M449.439,94.4a11.606,11.606,0,1,0,11.606,11.606A11.619,11.619,0,0,0,449.439,94.4m0,20.571a8.965,8.965,0,1,1,8.965-8.965,8.975,8.975,0,0,1-8.965,8.965" fill="#fff"/>
    </g>
    <path id="Trazado_725360" data-name="Trazado 725360" d="M15,0H124a15,15,0,0,1,0,30H15A15,15,0,0,1,15,0Z" transform="translate(961 20327.623)" fill="#0e494d"/>
    <path id="Trazado_725361" data-name="Trazado 725361" d="M-20.633-2.984A1.2,1.2,0,0,0-21.1-4a6.148,6.148,0,0,0-1.687-.75,11.963,11.963,0,0,1-1.93-.777,3.153,3.153,0,0,1-1.937-2.82A2.747,2.747,0,0,1-26.137-10a3.389,3.389,0,0,1,1.492-1.129,5.616,5.616,0,0,1,2.184-.406,5.112,5.112,0,0,1,2.172.441,3.458,3.458,0,0,1,1.48,1.246,3.261,3.261,0,0,1,.527,1.828h-2.344a1.534,1.534,0,0,0-.492-1.215A2.023,2.023,0,0,0-22.5-9.664a2.162,2.162,0,0,0-1.336.363,1.146,1.146,0,0,0-.477.957,1.1,1.1,0,0,0,.559.93,6.311,6.311,0,0,0,1.645.7A7.106,7.106,0,0,1-19.2-5.219,2.972,2.972,0,0,1-18.281-3,2.737,2.737,0,0,1-19.4-.684a4.891,4.891,0,0,1-3.008.84A5.808,5.808,0,0,1-24.8-.324a3.783,3.783,0,0,1-1.645-1.316,3.371,3.371,0,0,1-.566-1.937h2.352q0,1.883,2.25,1.883a2.189,2.189,0,0,0,1.3-.34A1.106,1.106,0,0,0-20.633-2.984Zm10.359.641h-4.109L-15.164,0h-2.492l4.234-11.375h2.172L-6.992,0H-9.484Zm-3.477-1.9h2.844L-12.336-8.5ZM-3.586-1.883H1.391V0H-5.93V-11.375h2.344ZM5.227,0H2.883V-11.375H5.227ZM7.4,0V-11.375h3.5a5.315,5.315,0,0,1,2.684.676A4.712,4.712,0,0,1,15.43-8.777a5.928,5.928,0,0,1,.664,2.832v.523a5.945,5.945,0,0,1-.652,2.82A4.672,4.672,0,0,1,13.6-.687,5.355,5.355,0,0,1,10.922,0ZM9.742-9.477v7.594h1.133a2.545,2.545,0,0,0,2.1-.9,4.06,4.06,0,0,0,.742-2.57v-.6A4.124,4.124,0,0,0,13-8.582a2.537,2.537,0,0,0-2.1-.895ZM24.219-2.344H20.109L19.328,0H16.836L21.07-11.375h2.172L27.5,0H25.008Zm-3.477-1.9h2.844L22.156-8.5Z" transform="translate(1030 20348.623)" fill="#fff"/>
  </g>
</svg>
