<svg id="muestra-de-sangre" xmlns="http://www.w3.org/2000/svg" width="56" height="56" viewBox="0 0 56 56">
  <path id="Trazado_721025" data-name="Trazado 721025" d="M53.867,51.1V24.346a.82.82,0,0,0-1.641,0V51.078H50.586V18.594h1.641V20.9a.82.82,0,0,0,1.641,0V14.492a.82.82,0,0,0-.82-.82H47.634v-2a1.916,1.916,0,0,0,1.579-1.883V8.7a1.916,1.916,0,0,0-1.142-1.75V2.789A2.792,2.792,0,0,0,45.282,0h-5.25a2.792,2.792,0,0,0-2.789,2.789V6.9a1.915,1.915,0,0,0-1.265,1.8V9.789a1.916,1.916,0,0,0,1.7,1.9v1.981H33.038v-2a1.916,1.916,0,0,0,1.579-1.883V8.7a1.916,1.916,0,0,0-1.141-1.75V2.789A2.792,2.792,0,0,0,30.687,0h-5.25a2.792,2.792,0,0,0-2.789,2.789V6.9a1.916,1.916,0,0,0-1.265,1.8V9.789a1.916,1.916,0,0,0,1.7,1.9v1.981H18.443v-2a1.916,1.916,0,0,0,1.579-1.883V8.7a1.916,1.916,0,0,0-1.141-1.75V2.789A2.792,2.792,0,0,0,16.091,0h-5.25A2.792,2.792,0,0,0,8.052,2.789V6.9A1.916,1.916,0,0,0,6.787,8.7V9.789a1.916,1.916,0,0,0,1.7,1.9v1.981H2.953a.82.82,0,0,0-.82.82V45.445a.82.82,0,0,0,1.641,0V18.594H5.414V51.078H3.773V49.006a.82.82,0,0,0-1.641,0V51.1A2.466,2.466,0,0,0,0,53.541v1.31A1.15,1.15,0,0,0,1.148,56H42.026a.82.82,0,0,0,0-1.641H1.641v-.818a.823.823,0,0,1,.822-.822H53.537a.823.823,0,0,1,.822.822v.818H45.526a.82.82,0,0,0,0,1.641h9.325A1.15,1.15,0,0,0,56,54.852v-1.31a2.466,2.466,0,0,0-2.133-2.44ZM38.884,2.789a1.15,1.15,0,0,1,1.148-1.148h5.25A1.15,1.15,0,0,1,46.43,2.789V6.781H38.884ZM37.619,8.7a.274.274,0,0,1,.273-.273H47.3a.274.274,0,0,1,.273.273V9.789a.274.274,0,0,1-.273.273H37.892a.274.274,0,0,1-.273-.273Zm1.7,3.008h6.672v1.969H39.321ZM24.288,2.789a1.15,1.15,0,0,1,1.148-1.148h5.25a1.15,1.15,0,0,1,1.148,1.148V6.781H24.288ZM23.023,8.7a.274.274,0,0,1,.273-.273H32.7a.274.274,0,0,1,.273.273V9.789a.274.274,0,0,1-.273.273H23.3a.274.274,0,0,1-.273-.273Zm1.7,3.008H31.4v1.969H24.725ZM9.693,2.789a1.15,1.15,0,0,1,1.148-1.148h5.25A1.15,1.15,0,0,1,17.24,2.789V6.781H9.693ZM8.428,8.7A.274.274,0,0,1,8.7,8.422h9.406a.274.274,0,0,1,.273.273V9.789a.274.274,0,0,1-.273.273H8.7a.274.274,0,0,1-.273-.273Zm1.7,3.008H16.8v1.969H10.13Zm-6.357,5.25V15.312H52.227v1.641Zm35.548,8.213h6.672V39.758a3.336,3.336,0,1,1-6.672,0Zm6.672-1.641H39.321V18.594h6.672ZM24.725,25.166H31.4V39.758a3.336,3.336,0,1,1-6.672,0ZM31.4,23.525H24.725V18.594H31.4ZM10.13,25.166H16.8V39.758a3.336,3.336,0,1,1-6.672,0ZM16.8,23.525H10.13V18.594H16.8ZM7.055,18.594H8.49V39.758a4.977,4.977,0,0,0,9.953,0V18.594h4.642V39.758a4.977,4.977,0,0,0,9.953,0V18.594h4.643V39.758a4.977,4.977,0,0,0,9.953,0V18.594h1.311V51.078H7.055Z" fill="#badc61"/>
</svg>
