<svg xmlns="http://www.w3.org/2000/svg" xmlns:xlink="http://www.w3.org/1999/xlink" width="489.258" height="298.374" viewBox="0 0 489.258 298.374"><defs><clipPath id="a"><rect width="262.006" height="228.896" fill="none"/></clipPath><clipPath id="c"><rect width="126.322" height="46.53" fill="none"/></clipPath><clipPath id="d"><rect width="94.018" height="34.329" fill="none"/></clipPath><clipPath id="e"><rect width="34.929" height="93.785" fill="none"/></clipPath><clipPath id="f"><rect width="142.252" height="71.644" fill="none"/></clipPath><clipPath id="g"><rect width="203.186" height="102.333" fill="none"/></clipPath><clipPath id="h"><rect width="136.765" height="166.333" fill="none"/></clipPath><clipPath id="j"><rect width="115.178" height="75.818" fill="none"/></clipPath><clipPath id="k"><rect width="59.968" height="161.486" fill="none"/></clipPath><clipPath id="l"><rect width="143.891" height="175" fill="none"/></clipPath><clipPath id="n"><rect width="121.179" height="79.768" fill="none"/></clipPath><clipPath id="o"><rect width="63.092" height="169.9" fill="none"/></clipPath></defs><g transform="translate(11216.392 12296.813)"><g transform="translate(-10989.14 -12291.813)" clip-path="url(#a)"><g clip-path="url(#a)"><path d="M90.912,167.908a1.946,1.946,0,0,1,1.082-1.145c.108-.042.221-.091.333-.137a273.132,273.132,0,0,1,28.626-22.339,1.835,1.835,0,0,1,.292-.384c25.934-27.1,42.27-65.859,47.96-102.817.418-2.665,4.615-2.384,4.2.289-5.155,33.44-18.685,68-39.991,94.864a323.914,323.914,0,0,1,39.877-20.614c24.069-10.433,50.247-19.255,76.37-22.86,2.675-.372,3.47,3.755.782,4.126-25.218,3.488-50.245,11.967-73.6,21.788a295.758,295.758,0,0,0-72.027,42.76c32.1-12.36,68.877-19.206,102.685-14.148,2.673.4,2.4,4.6-.292,4.194-37.449-5.6-78.618,3.63-112.7,18.771a239.064,239.064,0,0,0-42.1,49.719c-1.446,2.289-4.917-.075-3.471-2.369a240.03,240.03,0,0,1,41.971-49.7" transform="translate(-48.597 7.989)" fill="#aed144"/><path d="M0,106.692l1.813,1.366c1.145.722,2.9,2.143,4.975,3.25a84.826,84.826,0,0,0,16.926,7.944,87.363,87.363,0,0,0,22.357,4.5,84.6,84.6,0,0,0,23.979-1.992,83.328,83.328,0,0,0,22.427-8.7,86.192,86.192,0,0,0,18.1-13.863,91.565,91.565,0,0,0,6.751-7.624c1.968-2.43,3.588-5,4.934-7.021a58.452,58.452,0,0,0,3.032-5.13c.687-1.248,1.023-2.038,1.023-2.038s-.645-.556-1.813-1.378c-1.145-.735-2.9-2.159-4.983-3.275-2.1-1.224-4.685-2.811-7.523-4.135a93.452,93.452,0,0,0-9.413-3.864A86.13,86.13,0,0,0,80.23,60.252,83.222,83.222,0,0,0,56.268,62.32a84.108,84.108,0,0,0-22.407,8.768,87.659,87.659,0,0,0-18.1,13.876,85.066,85.066,0,0,0-11.7,14.586c-1.373,1.909-2.33,3.955-3.037,5.112C.355,105.981,0,106.692,0,106.692" transform="translate(135.683 12.239)" fill="#aed144"/><path d="M37.6,73.258q-11.864,13.7-23.732,27.388l28.5-6.617a1.26,1.26,0,0,1,.17-.472Q55.1,79.06,67.647,64.574c.822-.944,2.143.472,1.336,1.4q-11.873,13.7-23.74,27.385l28.509-6.608a1.2,1.2,0,0,1,.175-.484q7.249-8.37,14.5-16.742c.822-.935,2.134.48,1.336,1.407Q83.193,78.524,76.634,86.09l39.059-9.065.364,1.566L77.824,87.464q8.628,4.129,17.24,8.262c1.134.526.09,2.168-1.015,1.621q-9.611-4.586-19.207-9.194l-28.4,6.586c.5.243,1,.477,1.5.715q5.619,2.694,11.257,5.4,8.533,4.091,17.066,8.183c1.131.53.093,2.168-1.017,1.629q-15.894-7.612-31.807-15.229l-28.388,6.583q.749.357,1.5.714,5.63,2.7,11.259,5.392,8.535,4.1,17.072,8.191c1.124.531.082,2.173-1.027,1.63q-15.9-7.6-31.806-15.225l-8.2,1.9-.372-1.566,7.494-1.733a1.155,1.155,0,0,1,.171-.485q12.561-14.5,25.119-28.983c.818-.945,2.129.472,1.328,1.407" transform="translate(141.753 13.088)" fill="#3a8931"/><g transform="translate(135.683 89.634)" opacity="0.1"><g clip-path="url(#c)"><path d="M126.322,74.467s-.337.794-1.023,2.039a58.7,58.7,0,0,1-3.033,5.129c-1.347,2.026-2.965,4.591-4.933,7.021a91.63,91.63,0,0,1-6.753,7.623,86.061,86.061,0,0,1-18.1,13.864,83.272,83.272,0,0,1-22.424,8.7,84.649,84.649,0,0,1-23.978,1.993,87.373,87.373,0,0,1-22.357-4.5A84.41,84.41,0,0,1,6.8,108.389c-2.08-1.107-3.842-2.527-4.978-3.25C.643,104.245.008,103.773,0,103.773Z" transform="translate(0 -74.467)" fill="#211a72"/></g></g><path d="M31.758,131.347s.267.526.773,1.5c.534.861,1.253,2.376,2.276,3.793a63.468,63.468,0,0,0,8.759,10.785A64.554,64.554,0,0,0,57.075,157.67,62.617,62.617,0,0,0,73.766,164.1a61.978,61.978,0,0,0,17.822,1.441,64.11,64.11,0,0,0,16.6-3.421,69.348,69.348,0,0,0,6.981-2.912c2.108-1,4.025-2.193,5.574-3.115a42.488,42.488,0,0,0,3.7-2.445c.858-.617,1.338-1.03,1.338-1.03s-.25-.581-.768-1.513c-.527-.864-1.247-2.384-2.273-3.8-1.006-1.5-2.227-3.4-3.7-5.2a66.684,66.684,0,0,0-5.048-5.631,64.28,64.28,0,0,0-13.508-10.242,61.507,61.507,0,0,0-16.707-6.361,62.323,62.323,0,0,0-17.834-1.391,64.888,64.888,0,0,0-16.6,3.434,62.729,62.729,0,0,0-12.547,5.973c-1.533.832-2.841,1.892-3.684,2.44-.881.664-1.349,1.023-1.349,1.023" transform="translate(98.002 24.1)" fill="#aed144"/><path d="M66.753,122.831q-12.371,5.332-24.743,10.648l21.213,4.8c.091-.1.159-.221.27-.264q13.1-5.639,26.185-11.274c.852-.364,1.281,1.006.439,1.375q-12.375,5.324-24.753,10.643l21.223,4.8c.082-.1.156-.221.272-.267l15.117-6.513c.856-.362,1.273,1.016.444,1.375q-6.854,2.952-13.689,5.9l29.071,6.574-.265,1.162-28.458-6.429q4.44,5.545,8.866,11.1c.589.722-.643,1.478-1.2.76q-4.954-6.177-9.882-12.368l-21.134-4.779c.261.326.514.639.773.961,1.923,2.415,3.864,4.841,5.788,7.256q4.384,5.494,8.775,11c.581.727-.645,1.487-1.208.764q-8.177-10.244-16.359-20.488l-21.132-4.783c.259.323.518.648.776.969C45.068,138.165,47,140.6,48.923,143q4.4,5.507,8.783,11.006c.575.719-.652,1.483-1.223.76q-8.17-10.23-16.357-20.488l-6.1-1.383.267-1.157L39.864,133c.091-.108.162-.226.262-.267q13.1-5.64,26.194-11.278c.856-.355,1.276,1.015.432,1.378" transform="translate(103.251 24.724)" fill="#3a8931"/><g transform="translate(129.76 155.45)" opacity="0.1"><g clip-path="url(#d)"><path d="M125.777,150.417s-.48.414-1.341,1.032a41.736,41.736,0,0,1-3.7,2.443c-1.552.923-3.47,2.118-5.575,3.116a69.961,69.961,0,0,1-6.98,2.912,64.2,64.2,0,0,1-16.6,3.421,62.529,62.529,0,0,1-34.509-7.87,64.309,64.309,0,0,1-13.509-10.247,63.128,63.128,0,0,1-8.759-10.785c-1.028-1.416-1.742-2.932-2.276-3.793l-.774-1.5Z" transform="translate(-31.759 -129.147)" fill="#211a72"/></g></g><path d="M107.773,93.785s.531-.264,1.512-.756c.865-.526,2.381-1.228,3.81-2.235a63.077,63.077,0,0,0,10.881-8.642,64.414,64.414,0,0,0,10.392-13.4,62.634,62.634,0,0,0,6.608-16.62A61.8,61.8,0,0,0,142.6,34.326,63.526,63.526,0,0,0,139.363,17.7a68.252,68.252,0,0,0-2.832-7.019c-.973-2.112-2.146-4.047-3.049-5.6a41.624,41.624,0,0,0-2.41-3.722C130.462.484,130.053,0,130.053,0s-.58.247-1.52.756a43.451,43.451,0,0,0-3.826,2.227c-1.507.994-3.421,2.189-5.237,3.642a65.585,65.585,0,0,0-5.685,5A63.989,63.989,0,0,0,103.4,25.011a61.245,61.245,0,0,0-6.536,16.637,62.429,62.429,0,0,0-1.588,17.814A65.06,65.06,0,0,0,98.525,76.1a62.327,62.327,0,0,0,5.839,12.606c.815,1.549,1.86,2.861,2.4,3.717.652.89,1.011,1.358,1.011,1.358" transform="translate(4.753 0)" fill="#aed144"/><path d="M100.66,54.779q5.2,12.424,10.372,24.857l5.033-21.169c-.1-.088-.225-.15-.262-.267q-5.5-13.164-10.986-26.3c-.355-.861,1.015-1.278,1.378-.431q5.182,12.436,10.372,24.865L121.6,35.167a.831.831,0,0,1-.267-.276Q118.156,27.3,114.991,19.7c-.355-.857,1.024-1.261,1.379-.426q2.869,6.884,5.743,13.754l6.884-29,1.165.28L123.42,32.695q5.6-4.373,11.2-8.747c.735-.58,1.475.661.744,1.212q-6.222,4.893-12.469,9.753L117.882,55.99c.333-.259.651-.506.977-.764,2.431-1.9,4.878-3.813,7.31-5.705q5.55-4.322,11.1-8.659c.723-.568,1.474.661.752,1.219q-10.338,8.071-20.668,16.136l-5.008,21.077c.326-.252.652-.506.969-.769,2.443-1.9,4.9-3.8,7.322-5.705q5.552-4.33,11.1-8.663c.726-.568,1.478.672.751,1.231q-10.318,8.063-20.667,16.136l-1.446,6.086-1.157-.28,1.319-5.551c-.1-.1-.221-.166-.267-.276q-5.494-13.151-10.994-26.31c-.342-.857,1.028-1.266,1.391-.414" transform="translate(4.272 0.821)" fill="#3a8931"/><g transform="translate(112.53)" opacity="0.1"><g transform="translate(0)"><g transform="translate(0)" clip-path="url(#e)"><path d="M117.442,0s.414.484,1.015,1.358a41.493,41.493,0,0,1,2.415,3.722c.906,1.553,2.08,3.487,3.054,5.6a67.427,67.427,0,0,1,2.827,7.017,63.537,63.537,0,0,1,3.241,16.629,61.792,61.792,0,0,1-1.625,17.806,62.886,62.886,0,0,1-6.608,16.621,64.3,64.3,0,0,1-10.4,13.4A62.725,62.725,0,0,1,100.483,90.8c-1.42,1.006-2.949,1.708-3.814,2.235-.981.489-1.5.756-1.5.756Z" transform="translate(-95.166)" fill="#211a72"/></g></g></g></g></g><g transform="translate(-11216.392 -12116.938)"><g transform="translate(0 0)" clip-path="url(#f)"><path d="M140.736.282A142.345,142.345,0,0,1,110.114,25.2c-1.622-2.688-5.106-7.833-9.794-11.031C93.736,9.7,88.061,9.361,85.6,13.394c-1.968,4.278,1.477,8.794,8.872,11.765a33.972,33.972,0,0,0,12.244,2.035A145.328,145.328,0,0,1,89.006,35.75c-1.05-2.617-3.894-8.814-8.452-12.952-5.908-5.344-11.482-6.46-14.476-2.812-2.535,3.976.253,8.926,7.165,12.883,4.437,2.546,9.887,3.519,13.2,3.877-2.45.938-4.932,1.825-7.433,2.629-4.524,1.451-9.14,2.676-13.788,3.719-.727-2.669-2.823-9.225-6.919-13.9-5.243-5.99-10.645-7.737-14.042-4.47-2.975,3.661-.786,8.9,5.613,13.629a35.6,35.6,0,0,0,12.547,5.355A156.45,156.45,0,0,1,44.281,46.38C43.7,43.735,41.889,37,37.98,32.087c-4.979-6.212-10.291-8.21-13.826-5.1-3.154,3.52-1.194,8.852,4.99,13.87A34.863,34.863,0,0,0,40.9,46.626c-3.08.194-6.157.331-9.229.353-1.277,0-2.641-.007-3.995-.043-2.4-1.664-8.04-5.218-13.991-6.188C5.826,39.454.537,41.526,0,46.221c.024,4.717,5.053,7.359,13,6.947,5.807-.3,11.584-3,14.29-4.454a135.576,135.576,0,0,0,21.633-1.077,35.208,35.208,0,0,0-9.929,8.7c-4.656,6.46-5.158,12.12-1.19,14.687,4.236,2.093,8.849-1.237,12.014-8.542,2.439-5.635,2.462-12.45,2.354-15.262a163.621,163.621,0,0,0,21.863-4.55c-2.478,2.05-6.912,6.153-9.335,11.135C61.224,60.973,61.7,66.637,66.039,68.5c4.527,1.323,8.509-2.735,10.381-10.478,1.532-6.34.151-13.524-.4-15.912A154.724,154.724,0,0,0,96.31,34.533c-1.723,1.3-7.666,6.083-10.619,12.17-3.485,7.156-3.009,12.823,1.338,14.671,4.524,1.342,8.5-2.73,10.365-10.459C99.146,43.7,97.124,35.4,96.831,34.3q5.35-2.456,10.463-5.352c1.1-.611,2.178-1.264,3.251-1.906.359-.035.576-.066.576-.066s-.043-.077-.117-.206c2.469-1.5,4.9-3.069,7.273-4.717a32.789,32.789,0,0,0-5.41,9.825C110.5,39.465,111.814,45,116.376,46.19c4.679.634,8-3.971,8.705-11.9.54-6.145-1.6-12.633-2.6-15.251a144.847,144.847,0,0,0,19.54-17.572A.873.873,0,0,0,140.736.282" transform="translate(0 0)" fill="#246b1a"/></g></g><g transform="matrix(0.259, 0.966, -0.966, 0.259, -11080.294, -12284.813)"><g transform="translate(0 0)" clip-path="url(#g)"><path d="M201.02.4A203.318,203.318,0,0,1,157.281,36c-2.317-3.839-7.294-11.189-13.989-15.756-9.405-6.383-17.511-6.871-21.033-1.111-2.811,6.111,2.11,12.561,12.673,16.8,5.915,2.384,12.687,2.907,17.488,2.907a207.579,207.579,0,0,1-25.29,12.221c-1.5-3.738-5.562-12.59-12.072-18.5-8.438-7.633-16.4-9.228-20.677-4.017-3.621,5.678.362,12.75,10.235,18.4,6.338,3.637,14.122,5.027,18.86,5.538-3.5,1.34-7.044,2.606-10.617,3.756C106.4,58.315,99.8,60.064,93.165,61.553c-1.039-3.812-4.033-13.177-9.882-19.85-7.489-8.555-15.205-11.051-20.056-6.384-4.249,5.229-1.122,12.706,8.017,19.467,5.816,4.294,13.267,6.561,17.922,7.649a223.465,223.465,0,0,1-25.917,3.812c-.832-3.778-3.416-13.395-9-20.416C47.137,36.958,39.549,34.1,34.5,38.553c-4.5,5.028-1.7,12.644,7.127,19.811C46.932,62.68,53.794,65.23,58.42,66.6c-4.4.277-8.794.472-13.182.5-1.823,0-3.772-.01-5.706-.061C36.11,64.664,28.05,59.587,19.549,58.2,8.322,56.353.767,59.314,0,66.02c.034,6.738,7.217,10.512,18.566,9.922,8.294-.427,16.545-4.29,20.412-6.362a193.651,193.651,0,0,0,30.9-1.538C65.761,70.57,59.733,74.87,55.694,80.474c-6.65,9.228-7.367,17.312-1.7,20.978,6.05,2.989,12.639-1.767,17.16-12.2,3.484-8.049,3.517-17.783,3.362-21.8a233.708,233.708,0,0,0,31.227-6.5c-3.54,2.928-9.873,8.789-13.334,15.905-4.96,10.233-4.278,18.322,1.918,20.978,6.466,1.889,12.154-3.906,14.828-14.967,2.188-9.056.216-19.317-.573-22.728a221,221,0,0,0,28.983-10.816c-2.461,1.86-10.95,8.688-15.167,17.383-4.977,10.222-4.3,18.316,1.911,20.956,6.461,1.916,12.14-3.9,14.805-14.94,2.5-10.31-.387-22.166-.805-23.732q7.641-3.508,14.944-7.644c1.572-.872,3.111-1.806,4.644-2.723.512-.05.823-.094.823-.094s-.061-.11-.166-.295c3.527-2.139,7.006-4.383,10.388-6.738a46.834,46.834,0,0,0-7.728,14.034c-3.384,10.838-1.5,18.739,5.011,20.444,6.684.906,11.434-5.672,12.434-17,.772-8.778-2.285-18.044-3.717-21.784a206.892,206.892,0,0,0,27.91-25.1A1.247,1.247,0,0,0,201.02.4" transform="translate(0 0.001)" fill="#246b1a"/></g></g><g transform="translate(-10898.39 -12204.948)"><g transform="translate(-92.666 40.177)" clip-path="url(#h)"><g clip-path="url(#h)"><path d="M16.742,142.492s.116-.81.337-2.341c.326-1.383.573-3.724,1.3-6.074a88.439,88.439,0,0,1,6.688-18.344A91.615,91.615,0,0,1,38.331,95.952,88.357,88.357,0,0,1,57.57,79.784,86.571,86.571,0,0,1,80.583,69.73,90.175,90.175,0,0,1,104.2,66.682a97.615,97.615,0,0,1,10.618.676c3.24.362,6.324,1.062,8.809,1.585a60.34,60.34,0,0,1,6.025,1.566c1.428.417,2.26.752,2.26.752s-.066.886-.321,2.355c-.31,1.392-.569,3.742-1.29,6.1-.653,2.457-1.4,5.529-2.524,8.595a100.234,100.234,0,0,1-4.137,9.8,89.933,89.933,0,0,1-13.267,19.768,86.806,86.806,0,0,1-19.288,16.1,88.069,88.069,0,0,1-23.053,9.992A91.53,91.53,0,0,1,44.418,147a88.882,88.882,0,0,1-19.408-2.2c-2.426-.408-4.642-1.223-6.012-1.558-1.473-.484-2.256-.752-2.256-.752" transform="translate(4.854 19.33)" fill="#4cad3e"/><path d="M71.231,133.127q-18.886-1.43-37.744-2.838l25.985-16.066a1.283,1.283,0,0,0,.479.228q19.975,1.5,39.938,3c1.3.085,1.231-1.928-.05-2.023Q80.971,114,62.09,112.6L88.079,96.525a1.189,1.189,0,0,0,.493.224q11.528.873,23.057,1.745c1.3.085,1.227-1.934-.045-2.028q-10.44-.786-20.877-1.566l35.622-22.029-.891-1.423L90.582,93q3.357-9.4,6.7-18.805c.458-1.231-1.535-1.683-1.946-.457Q91.583,84.2,87.86,94.685L61.969,110.7q.3-.813.591-1.634c1.46-4.083,2.906-8.191,4.369-12.288,2.2-6.208,4.427-12.417,6.616-18.616.462-1.231-1.521-1.679-1.952-.466q-6.17,17.356-12.359,34.7L33.353,128.4c.2-.547.39-1.1.591-1.63q2.177-6.143,4.378-12.291,3.3-9.318,6.621-18.621c.439-1.227-1.536-1.678-1.966-.457q-6.19,17.33-12.355,34.687l-7.484,4.623.891,1.437,6.821-4.226a1.122,1.122,0,0,0,.479.23q19.975,1.5,39.942,2.99c1.3.107,1.236-1.917-.04-2.015" transform="translate(6.708 20.713)" fill="#aacd44"/><g transform="translate(21.587 86.005)" opacity="0.1"><g clip-path="url(#j)"><path d="M131.913,71.258s-.837-.344-2.251-.756a59.605,59.605,0,0,0-6.03-1.576c-2.493-.511-5.578-1.212-8.823-1.575a95.1,95.1,0,0,0-10.613-.672,89.684,89.684,0,0,0-23.612,3.044,87.021,87.021,0,0,0-23.021,10.05A88.973,88.973,0,0,0,38.324,95.94a91.579,91.579,0,0,0-13.255,19.785,88.535,88.535,0,0,0-6.692,18.349,60.64,60.64,0,0,0-1.3,6.074c-.21,1.513-.332,2.336-.344,2.345Z" transform="translate(-16.735 -66.675)" fill="#211a72"/></g></g><path d="M43.98,122.724A112.392,112.392,0,0,1,54.786,93.57a29.152,29.152,0,0,0,11.057,3.568c6.257.395,10.246-1.642,10.308-5.362-.375-3.693-4.525-5.376-10.724-4.432A26.578,26.578,0,0,0,56.3,90.863a113.072,113.072,0,0,1,8.591-12.887c1.759,1.361,6.159,4.423,10.909,5.4,6.15,1.267,10.376-.2,10.944-3.876.13-3.716-3.737-5.954-10.008-5.878a27.961,27.961,0,0,0-10.5,2.655q1.925-2.43,3.983-4.758c2.493-2.789,5.13-5.474,7.868-8.039,1.558,1.517,5.6,5.129,10.247,6.665,5.953,1.965,10.318.984,11.316-2.588.55-3.67-3.022-6.351-9.258-7a27.989,27.989,0,0,0-10.657,1.387,122.233,122.233,0,0,1,11.244-9.068c1.455,1.562,5.371,5.407,9.986,7.18,5.864,2.22,10.264,1.455,11.423-2.077.725-3.649-2.736-6.482-8.935-7.409a27.533,27.533,0,0,0-10.282.788c2.015-1.365,4.043-2.686,6.124-3.934.863-.506,1.79-1.044,2.72-1.567,2.3.17,7.543.322,11.965-1.4,5.851-2.265,8.617-5.784,7.1-9.185-1.906-3.191-6.373-2.977-11.594.488a28.861,28.861,0,0,0-7.914,8.733,107.028,107.028,0,0,0-14.248,9.387,27.787,27.787,0,0,0,3.258-9.878c.578-6.25-1.352-10.287-5.067-10.434-3.711.272-5.505,4.378-4.735,10.594.609,4.8,3.311,9.432,4.507,11.294A129.175,129.175,0,0,0,72.28,67.291,28.738,28.738,0,0,0,74.159,56c-.515-6.244-3.1-9.9-6.781-9.428-3.6.922-4.688,5.265-2.852,11.267,1.495,4.911,5.3,9.231,6.634,10.631a120.293,120.293,0,0,0-10.733,13.25c.644-1.571,2.766-7.194,2.327-12.5-.5-6.253-3.084-9.91-6.773-9.419-3.607.9-4.677,5.251-2.847,11.236,1.707,5.6,6.4,10.42,7.029,11.052-1.768,2.537-3.412,5.143-4.956,7.816-.5.85-.971,1.723-1.446,2.591-.227.161-.366.273-.366.273s.062.035.165.089q-1.618,3.009-3.048,6.11a25.769,25.769,0,0,0-.255-8.827c-1.428-6.1-4.534-9.32-8.106-8.3C38.725,83.279,38.309,87.733,41,93.4c2.091,4.387,6.137,7.928,7.861,9.307a113.585,113.585,0,0,0-6.217,19.736.682.682,0,0,0,1.334.286" transform="translate(11.377 9.572)" fill="#aed144"/><path d="M21.766,161.48s-.6-.806-1.741-2.323c-.922-1.477-2.726-3.729-4.126-6.393a107.927,107.927,0,0,1-10.068-21.7A112,112,0,0,1,.186,102.43,108.274,108.274,0,0,1,2.881,71.759,106.145,106.145,0,0,1,14.13,43.115,110.6,110.6,0,0,1,31.968,20.026a117.429,117.429,0,0,1,9.8-8.6,109.6,109.6,0,0,1,9.015-6.262,71.291,71.291,0,0,1,6.576-3.858C58.955.43,59.967,0,59.967,0s.707.828,1.763,2.314c.931,1.482,2.744,3.743,4.159,6.411,1.558,2.7,3.572,6.016,5.251,9.646a120.447,120.447,0,0,1,4.893,12.068,110.4,110.4,0,0,1,5.612,28.626,106.569,106.569,0,0,1-2.78,30.662A107.439,107.439,0,0,1,67.5,118.356a111.708,111.708,0,0,1-17.851,23.075,108.773,108.773,0,0,1-18.715,14.892c-2.462,1.745-5.1,2.964-6.572,3.859-1.687.846-2.6,1.3-2.6,1.3" transform="translate(0.001 0.001)" fill="#3a8931"/><path d="M62.267,104.581q-17.605,15.1-35.178,30.215l8.617-36.428a1.467,1.467,0,0,0,.613-.219Q54.937,82.155,73.552,66.176c1.2-1.053-.6-2.74-1.792-1.71q-17.6,15.1-35.183,30.219L45.19,58.243a1.489,1.489,0,0,0,.631-.219q10.738-9.239,21.5-18.455c1.2-1.049-.613-2.749-1.79-1.716Q55.789,46.22,46.068,54.559L57.88,4.623l-2.01-.462L44.318,53.02q-5.232-11.06-10.484-22.1c-.667-1.459-2.778-.134-2.077,1.281q5.808,12.327,11.657,24.641L34.819,93.149c-.3-.649-.6-1.3-.9-1.928-2.27-4.809-4.566-9.629-6.844-14.446Q21.88,65.837,16.695,54.9c-.671-1.459-2.78-.138-2.091,1.286q9.655,20.4,19.311,40.792L25.333,133.27q-.457-.962-.912-1.935-3.425-7.209-6.827-14.44Q12.391,105.959,7.2,95.015c-.68-1.45-2.784-.134-2.091,1.3q9.636,20.4,19.307,40.782l-2.475,10.488,2,.489,2.26-9.584a1.394,1.394,0,0,0,.618-.215q18.619-15.994,37.229-31.987c1.222-1.033-.591-2.722-1.787-1.705" transform="translate(1.443 1.206)" fill="#aacd44"/><g opacity="0.1"><g clip-path="url(#k)"><path d="M59.968,0c-.009.005-1.02.426-2.619,1.3a75.983,75.983,0,0,0-6.589,3.85c-2.591,1.714-5.886,3.773-9.006,6.275a115.509,115.509,0,0,0-9.789,8.6A110.031,110.031,0,0,0,14.122,43.1,106.829,106.829,0,0,0,2.865,71.745,108.634,108.634,0,0,0,.183,102.427a111.529,111.529,0,0,0,5.632,28.626,108.633,108.633,0,0,0,10.07,21.714c1.4,2.662,3.214,4.933,4.132,6.388,1.133,1.49,1.747,2.323,1.747,2.332Z" transform="translate(0 0)" fill="#211a72"/></g></g></g></g></g><g transform="translate(-11108.363 -12173.438)"><g clip-path="url(#l)"><g clip-path="url(#l)"><path d="M137.912,146.442s-.122-.852-.354-2.463c-.343-1.455-.6-3.918-1.369-6.391a93.047,93.047,0,0,0-7.037-19.3A96.39,96.39,0,0,0,115.2,97.477a92.962,92.962,0,0,0-20.241-17.01A91.082,91.082,0,0,0,70.744,69.889,94.873,94.873,0,0,0,45.9,66.682a102.7,102.7,0,0,0-11.172.711c-3.409.381-6.654,1.117-9.268,1.668a63.479,63.479,0,0,0-6.339,1.648c-1.5.438-2.378.791-2.378.791s.069.932.338,2.478c.326,1.464.6,3.937,1.357,6.414.687,2.585,1.474,5.817,2.656,9.042a105.462,105.462,0,0,0,4.352,10.309A94.619,94.619,0,0,0,39.4,120.54,91.33,91.33,0,0,0,59.7,137.484,92.658,92.658,0,0,0,83.95,148a96.3,96.3,0,0,0,24.843,3.189,93.515,93.515,0,0,0,20.419-2.313c2.553-.429,4.884-1.287,6.326-1.639,1.55-.509,2.374-.791,2.374-.791" transform="translate(-16.742 23.812)" fill="#4cad3e"/><path d="M81.107,136.341q19.87-1.5,39.71-2.986l-27.339-16.9a1.35,1.35,0,0,1-.5.24q-21.016,1.576-42.019,3.155c-1.365.09-1.295-2.029.053-2.128q19.85-1.5,39.715-2.972L63.38,97.831a1.251,1.251,0,0,1-.518.236Q50.734,98.986,38.6,99.9c-1.371.09-1.291-2.034.047-2.133q10.985-.826,21.965-1.648L23.138,72.946l.938-1.5L60.748,94.121Q57.216,84.23,53.7,74.336c-.482-1.295,1.615-1.771,2.048-.48q3.943,11.013,7.86,22.041l27.24,16.846q-.311-.855-.622-1.719c-1.536-4.3-3.058-8.618-4.6-12.928-2.318-6.532-4.658-13.064-6.961-19.586-.486-1.295,1.6-1.767,2.053-.49q6.492,18.26,13,36.508l27.23,16.842c-.208-.575-.41-1.155-.622-1.715q-2.29-6.463-4.606-12.932-3.477-9.8-6.966-19.591c-.461-1.291,1.616-1.766,2.068-.48q6.512,18.234,13,36.494l7.874,4.864-.938,1.512-7.176-4.446a1.181,1.181,0,0,1-.5.242q-21.016,1.582-42.023,3.146c-1.371.113-1.3-2.017.042-2.12" transform="translate(-19.216 25.516)" fill="#aacd44"/><g transform="translate(0 90.486)" opacity="0.1"><g clip-path="url(#n)"><path d="M16.735,71.5s.881-.362,2.368-.8a62.707,62.707,0,0,1,6.344-1.658c2.623-.537,5.868-1.276,9.283-1.657A100.06,100.06,0,0,1,45.9,66.679a94.357,94.357,0,0,1,24.842,3.2,91.555,91.555,0,0,1,24.22,10.573A93.609,93.609,0,0,1,115.2,97.465a96.35,96.35,0,0,1,13.946,20.815,93.148,93.148,0,0,1,7.041,19.3,63.8,63.8,0,0,1,1.365,6.391c.221,1.592.349,2.458.362,2.467Z" transform="translate(-16.735 -66.675)" fill="#211a72"/></g></g><path d="M120.792,127.4a118.249,118.249,0,0,0-11.369-30.674c-2.294,1.235-6.942,3.443-11.633,3.754-6.583.415-10.78-1.728-10.845-5.642.395-3.885,4.761-5.656,11.283-4.663a27.963,27.963,0,0,1,9.6,3.7,118.965,118.965,0,0,0-9.038-13.559c-1.851,1.432-6.48,4.654-11.477,5.685C80.841,87.335,76.4,85.791,75.8,81.924c-.137-3.91,3.932-6.264,10.53-6.184A29.418,29.418,0,0,1,97.38,78.533q-2.025-2.557-4.191-5.006c-2.623-2.934-5.4-5.76-8.278-8.458-1.639,1.6-5.9,5.4-10.781,7.012-6.263,2.067-10.856,1.035-11.906-2.722-.578-3.861,3.18-6.682,9.74-7.365a29.447,29.447,0,0,1,11.212,1.459,128.6,128.6,0,0,0-11.83-9.541C69.816,55.556,65.7,59.6,60.84,61.466,54.67,63.8,50.041,63,48.821,59.281c-.763-3.839,2.878-6.819,9.4-7.8a28.968,28.968,0,0,1,10.818.829c-2.12-1.436-4.253-2.826-6.444-4.139-.908-.532-1.884-1.1-2.862-1.649-2.417.179-7.936.339-12.589-1.468-6.156-2.383-9.066-6.085-7.47-9.664,2.006-3.358,6.705-3.132,12.2.513,4.021,2.656,7,7.012,8.326,9.188A112.6,112.6,0,0,1,75.19,54.971a29.235,29.235,0,0,1-3.428-10.393C71.154,38,73.184,33.755,77.093,33.6c3.9.286,5.792,4.606,4.982,11.146-.641,5.05-3.484,9.923-4.742,11.883A135.906,135.906,0,0,1,91.018,69.077,30.236,30.236,0,0,1,89.041,57.2c.541-6.57,3.264-10.413,7.134-9.919,3.792.97,4.932,5.54,3,11.854C97.6,64.3,93.6,68.846,92.2,70.32a126.562,126.562,0,0,1,11.293,13.94c-.677-1.653-2.91-7.569-2.448-13.149.522-6.579,3.245-10.427,7.126-9.91,3.794.942,4.921,5.525,3,11.822-1.8,5.891-6.73,10.963-7.395,11.628,1.861,2.669,3.59,5.411,5.214,8.223.528.894,1.022,1.813,1.521,2.726.239.17.385.288.385.288s-.065.037-.174.094q1.7,3.165,3.207,6.429a27.112,27.112,0,0,1,.269-9.287c1.5-6.419,4.77-9.805,8.528-8.736,3.6,1.51,4.042,6.2,1.206,12.154-2.2,4.616-6.457,8.341-8.27,9.792A119.5,119.5,0,0,1,122.2,127.1a.718.718,0,0,1-1.4.3" transform="translate(-35.143 11.791)" fill="#aed144"/><path d="M63.186,169.894s.631-.848,1.832-2.444c.97-1.554,2.868-3.923,4.341-6.726A113.55,113.55,0,0,0,79.952,137.9a117.841,117.841,0,0,0,5.939-30.131A113.916,113.916,0,0,0,83.055,75.5,111.676,111.676,0,0,0,71.22,45.362,116.36,116.36,0,0,0,52.453,21.069a123.546,123.546,0,0,0-10.309-9.047,115.3,115.3,0,0,0-9.485-6.589A75.006,75.006,0,0,0,25.74,1.375C24.059.452,23,0,23,0s-.744.871-1.855,2.435C20.16,4,18.253,6.377,16.764,9.184c-1.639,2.839-3.758,6.33-5.525,10.149a126.722,126.722,0,0,0-5.148,12.7,116.152,116.152,0,0,0-5.9,30.117,113.121,113.121,0,0,0,14.877,62.377A117.529,117.529,0,0,0,33.845,148.8a114.442,114.442,0,0,0,19.69,15.668c2.591,1.836,5.365,3.119,6.914,4.06,1.775.89,2.736,1.365,2.736,1.365" transform="translate(57.803 0.001)" fill="#3a8931"/><path d="M17.267,109.814Q35.79,125.7,54.279,141.6l-9.066-38.326a1.544,1.544,0,0,1-.645-.231Q24.979,86.219,5.394,69.407c-1.266-1.107.631-2.883,1.885-1.8Q25.8,83.494,44.3,99.4l-9.061-38.34a1.566,1.566,0,0,1-.664-.231q-11.3-9.72-22.62-19.416c-1.262-1.1.645-2.892,1.884-1.8q10.25,8.8,20.476,17.576L21.883,4.647,24,4.161l12.154,51.4q5.5-11.636,11.031-23.251c.7-1.535,2.923-.141,2.185,1.348Q43.256,46.631,37.1,59.587l9.042,38.2c.316-.683.627-1.365.951-2.029,2.389-5.059,4.8-10.131,7.2-15.2q5.462-11.508,10.917-23.011c.706-1.535,2.925-.145,2.2,1.353Q57.256,80.36,47.1,101.818L56.126,140q.48-1.012.959-2.036,3.6-7.585,7.183-15.193,5.474-11.506,10.93-23.019c.715-1.525,2.929-.141,2.2,1.367q-10.138,21.46-20.313,42.907l2.6,11.035-2.1.514-2.378-10.083a1.467,1.467,0,0,1-.65-.227q-19.589-16.827-39.169-33.654c-1.285-1.087.622-2.864,1.88-1.794" transform="translate(59.594 1.486)" fill="#aacd44"/><g transform="translate(80.798)" opacity="0.1"><g clip-path="url(#o)"><path d="M0,0c.01.005,1.073.448,2.755,1.365A79.941,79.941,0,0,1,9.687,5.417c2.726,1.8,6.193,3.97,9.475,6.6a121.529,121.529,0,0,1,10.3,9.047A115.764,115.764,0,0,1,48.234,45.349,112.4,112.4,0,0,1,60.078,75.484a114.294,114.294,0,0,1,2.821,32.28,117.34,117.34,0,0,1-5.925,30.117,114.292,114.292,0,0,1-10.595,22.846c-1.475,2.8-3.382,5.19-4.347,6.72-1.192,1.567-1.838,2.444-1.838,2.454Z" transform="translate(0 0)" fill="#211a72"/></g></g></g></g></g><g transform="matrix(-0.259, 0.966, -0.966, -0.259, -11027.705, -12258.327)"><g transform="translate(-72.931 -225.819)" clip-path="url(#g)"><path d="M201.02,101.93a203.318,203.318,0,0,0-43.738-35.595c-2.317,3.839-7.294,11.189-13.989,15.756-9.405,6.383-17.511,6.871-21.033,1.111-2.811-6.111,2.11-12.561,12.673-16.8,5.915-2.384,12.687-2.907,17.488-2.907a207.579,207.579,0,0,0-25.29-12.221c-1.5,3.738-5.562,12.59-12.072,18.5C106.62,77.4,98.659,79,94.382,73.786c-3.621-5.678.362-12.75,10.235-18.4,6.338-3.637,14.122-5.027,18.86-5.538-3.5-1.34-7.044-2.606-10.617-3.756C106.4,44.019,99.8,42.269,93.165,40.78c-1.039,3.812-4.033,13.177-9.882,19.85-7.489,8.555-15.205,11.051-20.056,6.384-4.249-5.229-1.122-12.706,8.017-19.467C77.06,43.253,84.51,40.986,89.166,39.9a223.465,223.465,0,0,0-25.917-3.812c-.832,3.778-3.416,13.395-9,20.416-7.111,8.872-14.7,11.727-19.749,7.278-4.5-5.028-1.7-12.644,7.127-19.811,5.305-4.316,12.167-6.866,16.794-8.233-4.4-.277-8.794-.472-13.182-.5-1.823,0-3.772.01-5.706.061-3.423,2.377-11.483,7.454-19.984,8.839C8.322,45.98.767,43.02,0,36.313.034,29.575,7.217,25.8,18.566,26.391c8.294.427,16.545,4.29,20.412,6.362a193.649,193.649,0,0,1,30.9,1.538c-4.116-2.528-10.143-6.828-14.182-12.433-6.65-9.228-7.367-17.312-1.7-20.978,6.05-2.989,12.639,1.767,17.16,12.2,3.484,8.049,3.517,17.783,3.362,21.8a233.709,233.709,0,0,1,31.227,6.5c-3.54-2.928-9.873-8.789-13.334-15.905C87.45,15.242,88.132,7.153,94.327,4.5c6.466-1.889,12.154,3.906,14.828,14.967,2.188,9.056.216,19.317-.573,22.728a221,221,0,0,1,28.983,10.816c-2.461-1.86-10.95-8.688-15.167-17.383-4.977-10.222-4.3-18.316,1.911-20.956,6.461-1.916,12.14,3.9,14.805,14.94,2.5,10.31-.387,22.166-.805,23.732q7.641,3.508,14.944,7.644c1.572.872,3.111,1.806,4.644,2.723.512.05.823.094.823.094s-.061.11-.166.295c3.527,2.139,7.006,4.383,10.388,6.738A46.834,46.834,0,0,1,161.215,56.8c-3.384-10.838-1.5-18.739,5.011-20.444,6.684-.906,11.434,5.672,12.434,17,.772,8.778-2.285,18.044-3.717,21.784a206.892,206.892,0,0,1,27.91,25.1,1.247,1.247,0,0,1-1.833,1.689" transform="translate(0 -0.001)" fill="#246b1a"/></g></g></g></svg>