<svg xmlns="http://www.w3.org/2000/svg" xmlns:xlink="http://www.w3.org/1999/xlink" width="68" height="67" viewBox="0 0 68 67">
  <defs>
    <clipPath id="clip-path">
      <rect id="Rectángulo_339785" data-name="Rectángulo 339785" width="68" height="67" transform="translate(293 2900)" fill="none"/>
    </clipPath>
  </defs>
  <g id="Enmascarar_grupo_927263" data-name="Enmascarar grupo 927263" transform="translate(-293 -2900)" clip-path="url(#clip-path)">
    <g id="Grupo_956917" data-name="Grupo 956917" transform="translate(242.87 2893.37)">
      <g id="Grupo_956918" data-name="Grupo 956918" transform="translate(66.13 12.63)">
        <path id="Trazado_721185" data-name="Trazado 721185" d="M90.681,32.445a2.536,2.536,0,0,0,1.533-1.692c.105-.343.158-.7.264-1.044a.909.909,0,0,1,1.605-.361,8.176,8.176,0,0,1,.651,11.138,1.583,1.583,0,0,0,.147,2.369,1.612,1.612,0,0,0,2.382-.4c.574-.7,1.125-1.428,1.707-2.126a.876.876,0,0,1,1.57.128,33.54,33.54,0,0,1,2.283,6.326,16.454,16.454,0,0,1-4.392,14.808,17.466,17.466,0,0,1-13.114,5.636,20.855,20.855,0,0,1-8.7-1.5,17.594,17.594,0,0,1-6.385-27.375q3.541-4.3,7.093-8.584A5.3,5.3,0,0,0,78.236,24a6.958,6.958,0,0,1,2.642-8.68c1.187-.81,2.392-1.594,3.584-2.4a1.014,1.014,0,0,1,1.157-.171,1.1,1.1,0,0,1,.48,1.074c.054,1.738.05,3.484.228,5.211A8.451,8.451,0,0,0,87.958,23.1a13.746,13.746,0,0,1,2.682,8.892c0,.095,0,.19,0,.284a1.239,1.239,0,0,0,.04.169M84.1,15.357c-.719.478-1.527,1-2.317,1.543a5.148,5.148,0,0,0-1.9,6.319,7.132,7.132,0,0,1-1.251,7.83q-3.54,4.226-7.023,8.5A15.778,15.778,0,0,0,75.33,62.965c4.072,2.633,8.6,2.9,13.2,2.116A15.539,15.539,0,0,0,101.22,48.2a20.39,20.39,0,0,0-1.755-5.548c-.412.49-.752.948-1.146,1.354a3.375,3.375,0,0,1-4.074.605A3.32,3.32,0,0,1,92.582,40.8a4.926,4.926,0,0,1,.842-1.581,6.233,6.233,0,0,0,.346-7.258c-.016.009-.038.015-.047.029-.1.157-.2.316-.31.472a4.312,4.312,0,0,1-3.518,1.989.916.916,0,0,1-1.073-1.017c-.011-.587-.018-1.175,0-1.762a11.711,11.711,0,0,0-2.275-7.4,10.081,10.081,0,0,1-1.826-4.063c-.289-1.592-.417-3.214-.618-4.85" transform="translate(-66.13 -12.63)" fill="#030202"/>
        <path id="Trazado_721186" data-name="Trazado 721186" d="M295.19,74.8c0,.454.012.908,0,1.361a.906.906,0,1,1-1.811-.023q-.02-1.361,0-2.723a.87.87,0,0,1,.887-.9.891.891,0,0,1,.927.923c0,.019,0,.038,0,.057q0,.652,0,1.3" transform="translate(-258.857 -63.422)" fill="#040202"/>
        <path id="Trazado_721187" data-name="Trazado 721187" d="M77.757,68.336c0-.322-.014-.645,0-.966a.906.906,0,0,1,1.809,0c.021.643.022,1.289,0,1.932a.867.867,0,0,1-.934.853.882.882,0,0,1-.879-.855c0-.019,0-.038,0-.057q0-.455,0-.909" transform="translate(-75.987 -58.335)" fill="#040202"/>
        <path id="Trazado_721188" data-name="Trazado 721188" d="M103.5,92.277c0,.34.019.682,0,1.02a.875.875,0,0,1-.9.829.863.863,0,0,1-.9-.826c-.026-.661-.026-1.324,0-1.984a.861.861,0,0,1,.9-.828.875.875,0,0,1,.9.825c.024.32,0,.642,0,.964" transform="translate(-96.275 -78.665)" fill="#050303"/>
        <path id="Trazado_721189" data-name="Trazado 721189" d="M271.206,98.326c0,.321.02.643,0,.962a.881.881,0,0,1-.9.831.868.868,0,0,1-.9-.827c-.027-.659-.027-1.321,0-1.98a.866.866,0,0,1,.9-.83.879.879,0,0,1,.9.826c.025.338,0,.679,0,1.018" transform="translate(-238.514 -83.748)" fill="#050303"/>
        <path id="Trazado_721190" data-name="Trazado 721190" d="M85.538,122.315c0,.3.017.6,0,.905a.887.887,0,0,1-.932.858.872.872,0,0,1-.874-.856c-.023-.641-.023-1.283,0-1.924a.871.871,0,0,1,.872-.857.883.883,0,0,1,.933.855c.022.338,0,.679,0,1.019" transform="translate(-81.041 -104.069)" fill="#050303"/>
        <path id="Trazado_721191" data-name="Trazado 721191" d="M289.182,140.244c0,.3.012.605,0,.907a.885.885,0,0,1-.891.9.871.871,0,0,1-.919-.868c-.021-.642-.022-1.286,0-1.928a.862.862,0,0,1,.886-.842.879.879,0,0,1,.921.867c.018.32,0,.643,0,.964" transform="translate(-253.76 -119.312)" fill="#050303"/>
        <path id="Trazado_721192" data-name="Trazado 721192" d="M94.341,30.588c.2,1.637.329,3.258.618,4.85A10.08,10.08,0,0,0,96.785,39.5a11.711,11.711,0,0,1,2.275,7.4c-.018.587-.011,1.175,0,1.762a.916.916,0,0,0,1.073,1.017,4.313,4.313,0,0,0,3.518-1.989c.106-.156.206-.315.31-.472.009-.014.031-.02.047-.029a6.233,6.233,0,0,1-.346,7.258,4.93,4.93,0,0,0-.842,1.581,3.32,3.32,0,0,0,1.663,3.808,3.375,3.375,0,0,0,4.074-.605c.393-.406.734-.863,1.146-1.354a20.4,20.4,0,0,1,1.755,5.548A15.539,15.539,0,0,1,98.767,80.312c-4.6.783-9.127.518-13.2-2.116a15.778,15.778,0,0,1-3.723-23.417q3.494-4.264,7.023-8.5a7.133,7.133,0,0,0,1.251-7.83,5.148,5.148,0,0,1,1.9-6.319c.791-.545,1.6-1.065,2.317-1.543m.665,48.172a10.513,10.513,0,0,0,5.645-1.182,12.036,12.036,0,0,0,5.289-13.287c-.292-1.082-1.011-1.269-1.82-.468s-1.626,1.644-2.458,2.445a1.742,1.742,0,0,1-2.05.292,1.663,1.663,0,0,1-.9-1.853,2.86,2.86,0,0,1,.517-1.046,7.8,7.8,0,0,0,.931-8.308c-1.351-2.938-2.869-5.8-4.313-8.694a.907.907,0,0,0-1.049-.585.934.934,0,0,0-.744.95c-.193,2.187-.414,4.373-.576,6.563a6.1,6.1,0,0,1-2.455,4.661c-1.071.812-2.142,1.632-3.143,2.526a15.238,15.238,0,0,0-2.213,2.339,9.613,9.613,0,0,0-1.61,6.313,9.3,9.3,0,0,0,5.5,8.482,10.7,10.7,0,0,0,5.439.851" transform="translate(-76.368 -27.861)" fill="#e62f3d"/>
        <path id="Trazado_721193" data-name="Trazado 721193" d="M127.642,165.131a10.7,10.7,0,0,1-5.439-.851,9.3,9.3,0,0,1-5.5-8.482,9.611,9.611,0,0,1,1.61-6.313,15.219,15.219,0,0,1,2.212-2.339c1-.895,2.072-1.715,3.143-2.526a6.1,6.1,0,0,0,2.455-4.661c.162-2.19.383-4.375.576-6.563a.934.934,0,0,1,.744-.95.907.907,0,0,1,1.049.585c1.444,2.9,2.962,5.756,4.313,8.694a7.8,7.8,0,0,1-.931,8.308,2.857,2.857,0,0,0-.517,1.046,1.663,1.663,0,0,0,.9,1.853,1.742,1.742,0,0,0,2.05-.292c.832-.8,1.637-1.632,2.458-2.445s1.528-.614,1.82.468a12.036,12.036,0,0,1-5.289,13.287,10.513,10.513,0,0,1-5.645,1.182m9.42-12.7c-.556.569-.991,1.04-1.453,1.482a3.451,3.451,0,0,1-3.291.953,3.566,3.566,0,0,1-2.067-5.714,6.327,6.327,0,0,0,.629-7.275c-.771-1.5-1.509-3.009-2.263-4.514-.09-.179-.186-.354-.279-.531a19.794,19.794,0,0,0-.39,3.04,7.847,7.847,0,0,1-3.224,6.228c-.864.646-1.7,1.328-2.527,2.025a16.9,16.9,0,0,0-1.961,1.8,8.229,8.229,0,0,0-1.728,5.9,7.564,7.564,0,0,0,5.516,7.182,13.6,13.6,0,0,0,6.584.022c3.014-.691,4.749-2.88,5.852-5.624a9.875,9.875,0,0,0,.6-4.971" transform="translate(-109.005 -114.232)" fill="#040101"/>
        <path id="Trazado_721194" data-name="Trazado 721194" d="M147.237,177.068a9.874,9.874,0,0,1-.6,4.971c-1.1,2.744-2.838,4.934-5.852,5.624a13.6,13.6,0,0,1-6.584-.022,7.564,7.564,0,0,1-5.516-7.182,8.229,8.229,0,0,1,1.728-5.9,16.893,16.893,0,0,1,1.961-1.8c.824-.7,1.662-1.379,2.527-2.025a7.847,7.847,0,0,0,3.224-6.228,19.8,19.8,0,0,1,.39-3.04c.093.177.189.352.279.531.754,1.5,1.492,3.018,2.263,4.514a6.327,6.327,0,0,1-.629,7.275,3.566,3.566,0,0,0,2.067,5.714,3.451,3.451,0,0,0,3.291-.953c.462-.442.9-.913,1.453-1.482" transform="translate(-119.179 -138.867)" fill="#e89c2d"/>
      </g>
    </g>
  </g>
</svg>
