<svg xmlns="http://www.w3.org/2000/svg" xmlns:xlink="http://www.w3.org/1999/xlink" width="68" height="67" viewBox="0 0 68 67">
  <defs>
    <clipPath id="clip-path">
      <rect id="Rectángulo_339790" data-name="Rectángulo 339790" width="56" height="56" fill="none"/>
    </clipPath>
  </defs>
  <g id="Grupo_956946" data-name="Grupo 956946" transform="translate(-610 -3542)">
    <g id="Grupo_956939" data-name="Grupo 956939" transform="translate(2 642)">
      <rect id="Rectángulo_339786" data-name="Rectángulo 339786" width="68" height="67" transform="translate(608 2900)" fill="none"/>
    </g>
    <g id="Grupo_956945" data-name="Grupo 956945" transform="translate(616 3548)">
      <g id="Grupo_956919" data-name="Grupo 956919" clip-path="url(#clip-path)">
        <path id="Trazado_721196" data-name="Trazado 721196" d="M37.486,118.162v-3.469h1.751v1.756c3.371,1.268,4.488,4.175,2.635,6.982a5.436,5.436,0,0,1,4.9,1.873,5.17,5.17,0,0,1,.945,5.108,6.26,6.26,0,0,1,5.516,5.327,4.313,4.313,0,0,1,4.772,2.3,4.213,4.213,0,0,1-.672,5.013,15.644,15.644,0,0,1,1.958,1.9,4.844,4.844,0,0,1,.408,5.314,5.086,5.086,0,0,1-4.5,2.908c-.127.008-.255.006-.383.006q-21.695,0-43.389,0A5.252,5.252,0,0,1,9.01,143.18a4.419,4.419,0,0,1,4-7.433,6.249,6.249,0,0,1,5.5-5.326,5.393,5.393,0,0,1,5.8-7.034,4.457,4.457,0,0,1-.514-4.179,4.407,4.407,0,0,1,3.18-2.716v-1.8h1.786v5.19H26.984V118.4a2.492,2.492,0,0,0-1.072,4.057,5.339,5.339,0,0,1,7.216,1.49,5.363,5.363,0,0,1,7.245-1.481,2.529,2.529,0,0,0-1.125-4.074v1.493H37.486Zm-7.011,26.252H25.27v1.775h3.449v1.756H25.283a2.863,2.863,0,0,0,3.16,3.517c3.225-.1,6.455-.026,9.683-.027a2.649,2.649,0,0,0,2.881-2.895q0-7.056,0-14.112c0-.158-.013-.316-.02-.475H25.275v1.738h5.191v1.756H25.28V139.2h3.43v1.757H25.285V142.7h5.191Zm-6.983-3.557a4.423,4.423,0,0,1-2.273-7.373c-.494-.382-.944-.749-1.417-1.084a1.163,1.163,0,0,0-.583-.216,4.366,4.366,0,0,0-4.46,4,.856.856,0,0,0,.24.594,4.97,4.97,0,0,1,1.328,2.1.8.8,0,0,0,.45.408c.619.236,1.256.427,1.933.65l-.9,1.565a4.335,4.335,0,0,0-4.686.224,4.419,4.419,0,0,0-1.869,4.322l-1.7.281-.106-1.38c-.132.083-.225.133-.308.2a3.492,3.492,0,0,0,2.089,6.292c4.285.011,8.57,0,12.855,0a2.213,2.213,0,0,0,.273-.039,4.9,4.9,0,0,1-.873-3.036c.025-2.5.008-4.993.008-7.5m18.4,10.542a1.754,1.754,0,0,0,.215.035c4.321,0,8.643.012,12.964,0a3.494,3.494,0,0,0,3.432-3.073,3.3,3.3,0,0,0-1.7-3.339l-.109,1.308-1.7-.287a4.407,4.407,0,0,0-1.856-4.311,4.359,4.359,0,0,0-4.7-.235l-.9-1.566c.691-.226,1.3-.459,1.931-.616.27-.067.4-.155.467-.421a4.48,4.48,0,0,1,1.305-2.107.86.86,0,0,0,.247-.591,4.366,4.366,0,0,0-4.452-4.006,1.054,1.054,0,0,0-.547.174c-.495.357-.966.746-1.445,1.122a4.44,4.44,0,0,1-2.289,7.394c0,2.507-.015,5.022.007,7.536a4.85,4.85,0,0,1-.877,2.99m-9.643-22.728c0-.676.028-1.279-.006-1.877a3.5,3.5,0,0,0-5.56-2.69,3.528,3.528,0,0,0-1.456,2.789H23.453l.274-1.679a3.433,3.433,0,0,0-3.627,2.6,3.288,3.288,0,0,0,1.641,3.773c0-.351,0-.7,0-1.04a1.76,1.76,0,0,1,1.883-1.874c1.476-.005,2.953,0,4.429,0h4.192M42.8,126.9H41.025c-.013-.134-.02-.257-.037-.379a3.521,3.521,0,0,0-3.41-3.1,3.444,3.444,0,0,0-3.515,2.956,15.883,15.883,0,0,0-.018,2.3h8.433a1.8,1.8,0,0,1,2.033,2.055c0,.3,0,.593,0,.934a3.443,3.443,0,0,0,1.538-4.171,3.389,3.389,0,0,0-3.522-2.27L42.8,126.9m-19.284,5.241H42.72v-1.681H23.512Zm-8.966,7.126a2.529,2.529,0,0,0-2.4-1.837,2.66,2.66,0,0,0-2.537,1.807,2.466,2.466,0,0,0,.836,2.776,6.251,6.251,0,0,1,4.1-2.746m41.268,2.759a2.492,2.492,0,0,0,.774-2.907,2.626,2.626,0,0,0-2.673-1.682,2.49,2.49,0,0,0-2.2,1.836,6.238,6.238,0,0,1,4.1,2.754m-32.321-7.868a2.512,2.512,0,0,0,0,4.788v-4.788m19.283,4.788a2.52,2.52,0,0,0,1.734-2.515,2.459,2.459,0,0,0-1.734-2.258Z" transform="translate(-5.105 -97.926)" fill="#020202"/>
        <path id="Trazado_721197" data-name="Trazado 721197" d="M197.666,25.932c0-2.06-.025-4.121,0-6.181a2.447,2.447,0,0,1,1.4-2.241.546.546,0,0,0,.344-.579c-.013-1.6-.009-3.209-.006-4.814a1.774,1.774,0,0,1,1.927-1.941c.383,0,.766,0,1.149,0a1.891,1.891,0,0,1,2.232,1.751c1.871,0,3.748.006,5.625-.01a1.1,1.1,0,0,0,.534-.226q3.211-2.126,6.413-4.266a3.788,3.788,0,0,1,4.5-.023c.29.188.575.384.864.574a2.725,2.725,0,0,1,1.284,2.444q-.014,5.006,0,10.011a2.731,2.731,0,0,1-1.278,2.448c-.334.221-.662.452-1,.663a3.69,3.69,0,0,1-4.261-.039c-2.16-1.42-4.3-2.873-6.463-4.289a1.774,1.774,0,0,0-.9-.269c-1.768-.025-3.536-.012-5.3-.012-.37,1.374-.868,1.751-2.286,1.751h-.547c-1.478,0-1.511-.015-2.5-1.159v6.409h-1.728m24.508-10.566c0-1.26.007-2.609,0-3.957-.012-1.86.235-1.481-1.431-2.592a2.012,2.012,0,0,0-2.4.009c-2.121,1.412-4.244,2.822-6.351,4.254a.883.883,0,0,0-.308.6c-.042.573-.014,1.151-.014,1.716h-1.774V13.713h-1.755v1.68h-1.755V13.716H204.7V17.18c1.9,0,3.757-.026,5.615.012a2.954,2.954,0,0,0,2.043-.725A4.828,4.828,0,0,1,214,15.556a3.609,3.609,0,0,1,3.518.968c1.057.923,1.808.884,2.911.011.521-.412,1.1-.746,1.743-1.17M212.8,18.344c1.947,1.292,3.842,2.554,5.743,3.805a1.844,1.844,0,0,0,.556.216A3.624,3.624,0,0,0,222.072,21a.752.752,0,0,0,.092-.31c.007-1.066,0-2.132,0-3.305-.365.289-.644.513-.926.734a3.487,3.487,0,0,1-4.57-.034c-1.355-1.171-2.224-1.262-3.6.035-.065.062-.139.115-.275.226m-11.6.562h1.666V11.934H201.2Z" transform="translate(-168.758 -5.698)" fill="#020202"/>
        <path id="Trazado_721198" data-name="Trazado 721198" d="M30.514,36.147V29.834l-.12-.083a2.079,2.079,0,0,1-2.38,1.149c-.254-.017-.51,0-.766,0a1.817,1.817,0,0,1-2.025-1.751h-.58c-4.742,0-9.484.008-14.226,0a4.374,4.374,0,1,1-.04-8.747c3.994-.016,7.988,0,11.982,0h2.834c.315-1.337.849-1.751,2.231-1.751.42,0,.839-.005,1.258,0A1.744,1.744,0,0,1,30.5,20.471c.008,2.206.011,4.413-.007,6.619a.63.63,0,0,0,.4.658,2.449,2.449,0,0,1,1.356,2.217c.021,2.06,0,4.121,0,6.181H30.514M11.225,22.141H10.56a2.633,2.633,0,1,0-.013,5.252q7.111,0,14.222,0c.156,0,.312-.017.441-.024V22.181H23.48v1.688H21.743v-1.7H19.987v3.449H18.231V22.172H16.474V23.86H14.718V22.177H12.962v3.429H11.225Zm17.494-1.717H27.032V29.13h1.686Z" transform="translate(-5.11 -15.912)" fill="#010101"/>
        <path id="Trazado_721199" data-name="Trazado 721199" d="M30.215,108.637a6.129,6.129,0,1,1-6.112-6.131,6.146,6.146,0,0,1,6.112,6.131m-1.753.021a4.377,4.377,0,1,0-4.415,4.352,4.388,4.388,0,0,0,4.415-4.352" transform="translate(-15.332 -87.521)" fill="#030404"/>
        <path id="Trazado_721200" data-name="Trazado 721200" d="M143.01,138.413h6.976v1.72h1.762v-1.493a2.529,2.529,0,0,1,1.125,4.074,5.363,5.363,0,0,0-7.245,1.481,5.339,5.339,0,0,0-7.216-1.49,2.492,2.492,0,0,1,1.072-4.057v1.486h1.781v-1.722l1.745,0" transform="translate(-117.605 -118.179)" fill="#e4e7eb"/>
        <path id="Trazado_721201" data-name="Trazado 721201" d="M326.229,172.788a4.378,4.378,0,1,1-4.356-4.4,4.389,4.389,0,0,1,4.356,4.4m-1.753-.009a2.625,2.625,0,1,0-2.666,2.613,2.638,2.638,0,0,0,2.666-2.613" transform="translate(-271.063 -143.772)" fill="#030404"/>
        <path id="Trazado_721202" data-name="Trazado 721202" d="M274.8,129.137a2.627,2.627,0,1,1-2.551-2.673,2.64,2.64,0,0,1,2.551,2.673m-2.61.826a.874.874,0,1,0-.89-.844.884.884,0,0,0,.89.844" transform="translate(-230.146 -107.976)" fill="#030303"/>
        <path id="Trazado_721203" data-name="Trazado 721203" d="M142.937,256.9v-1.717h-5.191v-1.737h3.425v-1.756h-3.43v-1.756h5.187v-1.756h-5.192v-1.738h15.711c.007.159.02.317.02.475q0,7.056,0,14.112a2.649,2.649,0,0,1-2.881,2.894c-3.228,0-6.458-.073-9.683.027a2.863,2.863,0,0,1-3.16-3.517h3.437V258.68h-3.449V256.9Zm6.135-8.738a2.626,2.626,0,1,0,2.644,2.635,2.637,2.637,0,0,0-2.644-2.635m-1.716,14.007a2.626,2.626,0,1,0-2.644-2.636,2.638,2.638,0,0,0,2.644,2.636" transform="translate(-117.567 -210.417)" fill="#fde8a6"/>
        <path id="Trazado_721204" data-name="Trazado 721204" d="M33.728,243c0,2.51.017,5.007-.008,7.5a4.9,4.9,0,0,0,.873,3.036,2.19,2.19,0,0,1-.273.039c-4.285,0-8.57.008-12.855,0a3.492,3.492,0,0,1-2.089-6.292c.083-.062.176-.112.308-.2l.106,1.38,1.7-.281a4.419,4.419,0,0,1,1.869-4.322,4.335,4.335,0,0,1,4.686-.224l.9-1.565c-.677-.224-1.314-.414-1.933-.65a.8.8,0,0,1-.45-.408,4.969,4.969,0,0,0-1.328-2.1.857.857,0,0,1-.24-.594,4.366,4.366,0,0,1,4.46-4,1.161,1.161,0,0,1,.583.216c.473.335.923.7,1.417,1.084A4.423,4.423,0,0,0,33.728,243m-1.753,6.183a2.626,2.626,0,1,0-2.636,2.644,2.636,2.636,0,0,0,2.636-2.644" transform="translate(-15.341 -200.067)" fill="#e4e7eb"/>
        <path id="Trazado_721205" data-name="Trazado 721205" d="M251.62,253.531a4.85,4.85,0,0,0,.877-2.99c-.023-2.514-.007-5.029-.007-7.536a4.44,4.44,0,0,0,2.289-7.394c.479-.376.95-.765,1.445-1.121a1.051,1.051,0,0,1,.547-.174,4.366,4.366,0,0,1,4.452,4.006.86.86,0,0,1-.247.591,4.481,4.481,0,0,0-1.305,2.107c-.069.266-.2.354-.467.421-.63.157-1.24.39-1.931.616l.9,1.566a4.36,4.36,0,0,1,4.7.235,4.407,4.407,0,0,1,1.856,4.311l1.7.287.109-1.308a3.3,3.3,0,0,1,1.7,3.339,3.494,3.494,0,0,1-3.432,3.073c-4.321.017-8.643.006-12.964,0a1.753,1.753,0,0,1-.215-.035m5.233-6.967a2.626,2.626,0,1,0,2.641,2.638,2.637,2.637,0,0,0-2.641-2.638" transform="translate(-214.836 -200.059)" fill="#e4e7eb"/>
        <path id="Trazado_721206" data-name="Trazado 721206" d="M114.16,179.52h-4.192c-1.477,0-2.953,0-4.43,0a1.76,1.76,0,0,0-1.883,1.874c0,.344,0,.689,0,1.04a3.288,3.288,0,0,1-1.641-3.773,3.433,3.433,0,0,1,3.627-2.6l-.274,1.679h1.772a3.528,3.528,0,0,1,1.455-2.789,3.5,3.5,0,0,1,5.561,2.689c.033.6.006,1.2.006,1.877" transform="translate(-87.019 -148.775)" fill="#e4e7eb"/>
        <path id="Trazado_721207" data-name="Trazado 721207" d="M206.5,177.861c-.093-.582-.181-1.13-.269-1.678a3.388,3.388,0,0,1,3.522,2.269,3.443,3.443,0,0,1-1.538,4.171c0-.342,0-.638,0-.934a1.8,1.8,0,0,0-2.033-2.055h-8.433a15.862,15.862,0,0,1,.018-2.3,3.444,3.444,0,0,1,3.515-2.956,3.521,3.521,0,0,1,3.41,3.1c.017.122.024.245.037.379Z" transform="translate(-168.806 -148.89)" fill="#e4e7eb"/>
        <rect id="Rectángulo_339787" data-name="Rectángulo 339787" width="19.208" height="1.681" transform="translate(18.407 32.531)" fill="#a9b1bc"/>
        <path id="Trazado_721208" data-name="Trazado 721208" d="M34.988,272.04a6.251,6.251,0,0,0-4.1,2.746,2.466,2.466,0,0,1-.836-2.776,2.66,2.66,0,0,1,2.537-1.807,2.529,2.529,0,0,1,2.4,1.837" transform="translate(-25.547 -230.702)" fill="#67d2f0"/>
        <path id="Trazado_721209" data-name="Trazado 721209" d="M322.918,274.788a6.238,6.238,0,0,0-4.1-2.754,2.49,2.49,0,0,1,2.2-1.836,2.626,2.626,0,0,1,2.673,1.682,2.492,2.492,0,0,1-.774,2.907" transform="translate(-272.21 -230.691)" fill="#67d2f0"/>
        <path id="Trazado_721210" data-name="Trazado 721210" d="M115.551,247.828v4.788a2.512,2.512,0,0,1,0-4.788" transform="translate(-97.164 -211.598)" fill="#67d3f0"/>
        <path id="Trazado_721211" data-name="Trazado 721211" d="M257.686,252.705v-4.773a2.459,2.459,0,0,1,1.734,2.258,2.52,2.52,0,0,1-1.734,2.515" transform="translate(-220.015 -211.687)" fill="#67d3f0"/>
        <path id="Trazado_721212" data-name="Trazado 721212" d="M263.327,25.584c-.638.424-1.222.758-1.743,1.17-1.1.873-1.854.912-2.911-.011a3.609,3.609,0,0,0-3.518-.968,4.829,4.829,0,0,0-1.645.911,2.954,2.954,0,0,1-2.043.725c-1.858-.039-3.718-.012-5.615-.012V23.935h1.683v1.677h1.755v-1.68h1.755v1.683h1.774c0-.565-.028-1.143.014-1.716a.883.883,0,0,1,.308-.6c2.107-1.432,4.23-2.842,6.351-4.254a2.012,2.012,0,0,1,2.4-.009c1.666,1.111,1.419.732,1.431,2.592.009,1.348,0,2.7,0,3.957" transform="translate(-209.911 -15.916)" fill="#e4e7eb"/>
        <path id="Trazado_721213" data-name="Trazado 721213" d="M301.24,79.683c.135-.111.209-.164.274-.226,1.378-1.3,2.247-1.206,3.6-.035a3.487,3.487,0,0,0,4.57.034c.282-.221.562-.445.926-.734,0,1.173,0,2.239,0,3.305a.75.75,0,0,1-.092.31,3.624,3.624,0,0,1-2.978,1.366,1.846,1.846,0,0,1-.556-.216c-1.9-1.251-3.8-2.513-5.743-3.805" transform="translate(-257.202 -67.037)" fill="#68d3f1"/>
        <rect id="Rectángulo_339788" data-name="Rectángulo 339788" width="1.666" height="6.972" transform="translate(32.443 6.236)" fill="#b3dc7f"/>
        <path id="Trazado_721214" data-name="Trazado 721214" d="M21.45,42.608v3.465h1.737V42.643h1.756v1.683H26.7V42.638h1.756v3.444h1.756V42.633h1.756v1.7h1.737V42.647h1.729v5.188c-.129.007-.285.024-.441.024q-7.111,0-14.222,0a2.633,2.633,0,1,1,.013-5.252h.665" transform="translate(-15.335 -36.379)" fill="#fee9a6"/>
        <rect id="Rectángulo_339789" data-name="Rectángulo 339789" width="1.686" height="8.706" transform="translate(21.923 4.512)" fill="#fbd670"/>
        <path id="Trazado_721215" data-name="Trazado 721215" d="M38.7,118.89a4.377,4.377,0,1,1-4.366-4.4,4.391,4.391,0,0,1,4.366,4.4m-3.262-.024h1.5a2.542,2.542,0,0,0-2.6-2.571v1.485l1.1,1.086" transform="translate(-25.565 -97.753)" fill="#68d3f1"/>
        <path id="Trazado_721216" data-name="Trazado 721216" d="M334.711,183.009a2.625,2.625,0,1,1-2.585-2.638,2.639,2.639,0,0,1,2.585,2.638" transform="translate(-281.297 -154.003)" fill="#68d3f1"/>
        <path id="Trazado_721217" data-name="Trazado 721217" d="M282.426,140.195a.874.874,0,1,1,.857-.877.883.883,0,0,1-.857.877" transform="translate(-240.378 -118.207)" fill="#64cbe8"/>
        <path id="Trazado_721218" data-name="Trazado 721218" d="M200.277,258.23a2.626,2.626,0,1,1-2.608,2.616,2.635,2.635,0,0,1,2.608-2.616m.039,1.752a.875.875,0,1,0,.853.881.883.883,0,0,0-.853-.881" transform="translate(-168.772 -220.48)" fill="#030302"/>
        <path id="Trazado_721219" data-name="Trazado 721219" d="M188.331,323.375a2.626,2.626,0,1,1,2.609-2.617,2.638,2.638,0,0,1-2.609,2.617m-.021-1.752a.874.874,0,1,0-.87-.864.883.883,0,0,0,.87.864" transform="translate(-158.543 -271.617)" fill="#030302"/>
        <path id="Trazado_721220" data-name="Trazado 721220" d="M83.113,320.731a2.626,2.626,0,1,1-2.616-2.608,2.639,2.639,0,0,1,2.616,2.608m-2.606.892a.874.874,0,1,0-.894-.841.883.883,0,0,0,.894.841" transform="translate(-66.478 -271.617)" fill="#020303"/>
        <path id="Trazado_721221" data-name="Trazado 721221" d="M272.164,318.123a2.626,2.626,0,1,1-2.611,2.613,2.636,2.636,0,0,1,2.611-2.613m.889,2.606a.875.875,0,1,0-.841.894.881.881,0,0,0,.841-.894" transform="translate(-230.147 -271.617)" fill="#020303"/>
        <path id="Trazado_721222" data-name="Trazado 721222" d="M61.09,129.328l-1.1-1.086v-1.485a2.542,2.542,0,0,1,2.6,2.571h-1.5Z" transform="translate(-51.222 -108.214)" fill="#010303"/>
        <path id="Trazado_721223" data-name="Trazado 721223" d="M210.546,270.211a.875.875,0,1,1-.895.84.882.882,0,0,1,.895-.84" transform="translate(-179.003 -230.709)" fill="#4bb7dd"/>
        <path id="Trazado_721224" data-name="Trazado 721224" d="M198.545,331.85a.874.874,0,1,1,.878-.857.882.882,0,0,1-.878.857" transform="translate(-168.777 -281.844)" fill="#4bb7dd"/>
        <path id="Trazado_721225" data-name="Trazado 721225" d="M90.737,331.854a.874.874,0,1,1,.854-.881.883.883,0,0,1-.854.881" transform="translate(-76.709 -281.848)" fill="#64cbe8"/>
        <path id="Trazado_721226" data-name="Trazado 721226" d="M283.28,330.96a.875.875,0,1,1-.88-.854.884.884,0,0,1,.88.854" transform="translate(-240.375 -281.848)" fill="#64cbe8"/>
      </g>
    </g>
  </g>
</svg>
