<svg xmlns="http://www.w3.org/2000/svg" width="68" height="67" viewBox="0 0 68 67">
  <g id="Grupo_956955" data-name="Grupo 956955" transform="translate(-922 -2900)">
    <rect id="Rectángulo_339791" data-name="Rectángulo 339791" width="68" height="67" transform="translate(922 2900)" fill="none"/>
    <g id="Grupo_956925" data-name="Grupo 956925" transform="translate(919.537 2868.29)">
      <g id="Grupo_956926" data-name="Grupo 956926" transform="translate(6.463 40.71)">
        <path id="Trazado_721228" data-name="Trazado 721228" d="M35.676,61.873a9.011,9.011,0,0,1-4.69-.975l-3.948,5.638a7.465,7.465,0,0,1-1.766,12.122l.869,2.609a4.6,4.6,0,0,1,3.889,1.36,4.691,4.691,0,0,1,1.219,3,4.567,4.567,0,0,1-8.7,2.131,4.566,4.566,0,0,1,1.83-5.925l-.787-2.386a21.353,21.353,0,0,1-3.479-.405,21.275,21.275,0,0,1-3.171-1.472c-.987.832-2.135,1.784-3.257,2.765a.65.65,0,0,0-.09.558,3.631,3.631,0,0,1-.911,3.843,3.445,3.445,0,0,1-3.722.882,3.673,3.673,0,1,1,2.617-6.856c.221.1.431.219.682.348l3.611-3.054a7.619,7.619,0,0,1,.8-9.107l-1.594-1.915c-2.657,1.007-5.037.278-6.25-1.883a4.641,4.641,0,0,1,1.2-5.8,4.56,4.56,0,0,1,5.952.213,4.636,4.636,0,0,1,.494,6.262L18.1,65.788a7.634,7.634,0,0,1,7.429-.316l3.964-5.655a8.407,8.407,0,0,1-1.612-10.51l-2.6-2a3.832,3.832,0,0,1-4.393.128l-1.017.858a3.551,3.551,0,0,1,.008,3.171,3.643,3.643,0,0,1-6.2.739,3.64,3.64,0,0,1-.029-4.536c1.239-1.517,3.051-1.811,5.025-.812.048-.03.1-.058.15-.093.555-.407.907-.748.614-1.624a3.523,3.523,0,0,1,1.659-3.9,3.664,3.664,0,0,1,4.088.191,3.732,3.732,0,0,1,1.346,3.985c-.039.135-.075.27-.119.428.717.555,1.427,1.1,2.138,1.652.145.111.3.214.442.319a8.387,8.387,0,0,1,14.045,3.771l2.084-.277a3.7,3.7,0,0,1,1.608-2.619,3.811,3.811,0,0,1,2.523-.552,3.646,3.646,0,0,1,.649,7.091,3.647,3.647,0,0,1-4.552-2.085l-2.073.278a8.45,8.45,0,0,1-5.772,8.1l.424,2.193c.282.055.563.093.834.167A3.674,3.674,0,1,1,34.1,67.747a3.524,3.524,0,0,1,1.665-3.45.713.713,0,0,0,.281-.558c-.081-.621-.238-1.231-.37-1.867m-5.091-3.624c.481-.685.926-1.342,1.4-1.977.152-.2.375-.482.578-.493a1.51,1.51,0,0,1,.984.271.808.808,0,0,1,.042,1.12c-.487.722-.991,1.433-1.49,2.153a6.457,6.457,0,0,0,8.37-2.366A6.535,6.535,0,0,0,38.813,48.4a6.652,6.652,0,0,0-8.937,1.209,6.487,6.487,0,0,0,.709,8.64M17.38,74.784c.5-.423.993-.85,1.5-1.266.55-.455,1.085-.446,1.452.012a.963.963,0,0,1-.266,1.391c-.486.427-.981.845-1.472,1.267,1.626,1.79,5.025,1.745,7.126-.057a5.5,5.5,0,0,0,.673-7.619,5.719,5.719,0,0,0-7.738-.848,5.469,5.469,0,0,0-1.271,7.119M15.22,62.319a2.7,2.7,0,0,0-.58-3.473,2.777,2.777,0,0,0-3.594.029,2.908,2.908,0,0,0-.453,3.641,2.591,2.591,0,0,0,3.189.971c-.476-.572-.943-1.132-1.408-1.693-.489-.59-.515-1.129-.076-1.507.46-.4.956-.3,1.464.3.483.569.962,1.141,1.458,1.729M25,83.693A2.733,2.733,0,0,0,27.65,88.4,2.766,2.766,0,0,0,29.4,85.311a2.61,2.61,0,0,0-2.625-2.169c.242.743.483,1.47.717,2.2.206.645.022,1.144-.478,1.328-.552.2-1.023-.067-1.255-.732-.254-.73-.5-1.465-.759-2.244M47.4,52.866a1.663,1.663,0,0,0,2.046.577A1.748,1.748,0,0,0,50.6,51.561a1.817,1.817,0,0,0-1.585-1.621,1.694,1.694,0,0,0-1.862,1.1c.483-.065.942-.138,1.4-.187a.946.946,0,0,1,1.127.78.936.936,0,0,1-.881,1.043c-.442.069-.886.122-1.4.191M11.886,81.856c-.383.322-.689.584-1,.839a.967.967,0,0,1-1.46,0c-.36-.438-.277-.921.246-1.383.322-.285.651-.562,1.021-.881a1.786,1.786,0,0,0-2.119.709A1.823,1.823,0,0,0,10.879,83.8a1.7,1.7,0,0,0,1.006-1.939M24.757,44.564a1.663,1.663,0,0,0-1.019-1.854,1.844,1.844,0,0,0-2.122.463,2,2,0,0,0-.1,2.292,1.725,1.725,0,0,0,2.136.588c-.408-.315-.775-.585-1.127-.874a.926.926,0,0,1-.253-1.341.909.909,0,0,1,1.354-.124c.378.268.742.555,1.134.85m13.6,21.221c.092.466.183.9.263,1.337a.927.927,0,0,1-.69,1.176.9.9,0,0,1-1.11-.782c-.107-.46-.194-.924-.3-1.425a1.814,1.814,0,0,0,1.593,3.117,1.863,1.863,0,0,0,1.454-1.752,1.63,1.63,0,0,0-1.212-1.671M17.123,48.214a1.8,1.8,0,0,0-2.153.777,1.844,1.844,0,0,0,.222,2.16,1.948,1.948,0,0,0,2.205.387,1.663,1.663,0,0,0,.922-1.9c-.379.319-.725.627-1.088.914a.911.911,0,0,1-1.36-.04.961.961,0,0,1,.17-1.36c.33-.3.674-.583,1.082-.934" transform="translate(-6.463 -40.71)" fill="#030303"/>
        <path id="Trazado_721229" data-name="Trazado 721229" d="M229.959,132.1c.059.682.116,1.35.174,2.015a5.623,5.623,0,0,1,3.5,9.436c.618.851,1.225,1.719,1.877,2.552a.736.736,0,0,0,.615.119,3.692,3.692,0,0,1,4.036,1.631,3.871,3.871,0,0,1-.463,4.5,3.686,3.686,0,0,1-5.726-4.592c.067-.1.135-.2.212-.312-.585-.8-1.16-1.6-1.736-2.389-.1-.131-.2-.259-.3-.4a6.381,6.381,0,0,1-1.466.392,16.817,16.817,0,0,1-2.719-.16c-.348-.048-.539-.092-.734.253-.331.584-.718,1.137-1.114,1.752a7.036,7.036,0,0,1,2.592,6.058,7.457,7.457,0,0,1-2.325,4.993,7.364,7.364,0,0,1-11.352-9.135,7.456,7.456,0,0,1,9.52-2.9l1.376-2.124c-3.022-3.7-1.976-7.986,2.358-9.5-.051-.65-.1-1.317-.16-2.031a3.656,3.656,0,0,1-2.615-1.9,3.838,3.838,0,0,1-.322-2.562,3.646,3.646,0,0,1,7.1-.1,3.656,3.656,0,0,1-2.324,4.4m-6.436,15.411a5.5,5.5,0,0,0-5.067,9.73,5.66,5.66,0,0,0,7.518-1.587c1.5-2.288,1.073-5.676-.913-7.107-.356.548-.7,1.1-1.068,1.64a.923.923,0,1,1-1.545-.981c.338-.556.7-1.1,1.076-1.7m5.066-4.4a3.448,3.448,0,0,0,4.4-1.913,3.655,3.655,0,0,0-1.432-4.7,3.606,3.606,0,0,0-4.807.969,3.515,3.515,0,0,0,.235,4.618c.26-.364.5-.747.787-1.087a.885.885,0,0,1,1.469.953c-.188.381-.414.744-.648,1.158m8.424,8.5a1.818,1.818,0,1,0-1.78-1.834,1.717,1.717,0,0,0,1.78,1.834m-7.225-21.56a1.626,1.626,0,0,0,.681-2,1.772,1.772,0,0,0-1.811-1.271,1.882,1.882,0,0,0-1.726,1.49,1.744,1.744,0,0,0,1,1.931c-.031-.508-.071-.988-.086-1.469a.876.876,0,0,1,.764-1.007.864.864,0,0,1,1.027.8c.076.482.1.972.149,1.524" transform="translate(-179.987 -111.133)" fill="#040303"/>
        <path id="Trazado_721230" data-name="Trazado 721230" d="M143.261,91.358a6.488,6.488,0,0,1-.709-8.64,6.653,6.653,0,0,1,8.937-1.209,6.535,6.535,0,0,1,1.654,8.556,6.457,6.457,0,0,1-8.37,2.366c.5-.72,1-1.431,1.491-2.153a.808.808,0,0,0-.042-1.119,1.51,1.51,0,0,0-.984-.271c-.2.011-.426.289-.578.493-.474.635-.918,1.293-1.4,1.978m4.708-10.15c-.783-.037-1.161.21-1.214.792-.057.622.283.951,1.068,1.042a5.383,5.383,0,0,1,.725.1,3.673,3.673,0,0,1,2.777,3.467c.063.814.788,1.3,1.37.858a1.375,1.375,0,0,0,.447-.976,5.46,5.46,0,0,0-5.174-5.285" transform="translate(-119.139 -73.819)" fill="#f5814a"/>
        <path id="Trazado_721231" data-name="Trazado 721231" d="M68.914,206.517a5.469,5.469,0,0,1,1.271-7.119,5.719,5.719,0,0,1,7.738.848,5.5,5.5,0,0,1-.673,7.619c-2.1,1.8-5.5,1.847-7.126.057.491-.422.986-.84,1.472-1.267a.963.963,0,0,0,.266-1.391c-.367-.459-.9-.468-1.452-.012-.5.416-1,.842-1.5,1.266m9.289-2.762a4.448,4.448,0,0,0-1.245-3.168.879.879,0,0,0-1.3-.144.894.894,0,0,0-.077,1.35,2.755,2.755,0,0,1,.013,3.881.921.921,0,1,0,1.39,1.2,4.456,4.456,0,0,0,1.22-3.116" transform="translate(-57.997 -172.443)" fill="#f4814a"/>
        <path id="Trazado_721232" data-name="Trazado 721232" d="M34.038,151.523c-.5-.588-.974-1.161-1.458-1.729-.509-.6-1-.7-1.464-.3-.439.378-.412.917.076,1.507.465.561.932,1.121,1.408,1.693a2.591,2.591,0,0,1-3.189-.971,2.909,2.909,0,0,1,.453-3.641,2.778,2.778,0,0,1,3.594-.029,2.7,2.7,0,0,1,.58,3.473" transform="translate(-25.28 -129.914)" fill="#f9b653"/>
        <path id="Trazado_721233" data-name="Trazado 721233" d="M114.133,300.084c.263.779.5,1.513.759,2.244.231.665.7.934,1.255.732.5-.183.684-.683.478-1.328-.233-.729-.474-1.457-.717-2.2a2.61,2.61,0,0,1,2.625,2.169,2.765,2.765,0,0,1-1.751,3.089,2.734,2.734,0,0,1-2.649-4.707" transform="translate(-95.595 -257.101)" fill="#f9b653"/>
        <path id="Trazado_721234" data-name="Trazado 721234" d="M254.916,99.853c.515-.07.959-.123,1.4-.191a.935.935,0,0,0,.881-1.043.946.946,0,0,0-1.127-.78c-.462.049-.921.121-1.4.187a1.693,1.693,0,0,1,1.862-1.1,1.816,1.816,0,0,1,1.584,1.621,1.748,1.748,0,0,1-1.152,1.883,1.662,1.662,0,0,1-2.045-.577" transform="translate(-213.979 -87.697)" fill="#6ba5dd"/>
        <path id="Trazado_721235" data-name="Trazado 721235" d="M21.214,283.961a1.7,1.7,0,0,1-1.006,1.94A1.823,1.823,0,0,1,17.9,283.25a1.786,1.786,0,0,1,2.119-.71c-.37.319-.7.6-1.021.881-.523.462-.606.945-.246,1.383a.967.967,0,0,0,1.46,0c.311-.255.617-.517,1-.839" transform="translate(-15.792 -242.816)" fill="#7fb046"/>
        <path id="Trazado_721236" data-name="Trazado 721236" d="M99.915,53.977c-.393-.3-.757-.582-1.134-.85a.909.909,0,0,0-1.354.124.926.926,0,0,0,.253,1.341c.352.289.719.559,1.127.874a1.725,1.725,0,0,1-2.136-.588,2,2,0,0,1,.1-2.292,1.845,1.845,0,0,1,2.122-.463,1.663,1.663,0,0,1,1.019,1.854" transform="translate(-81.621 -50.123)" fill="#6ba5de"/>
        <path id="Trazado_721237" data-name="Trazado 721237" d="M188.544,193.671a1.629,1.629,0,0,1,1.212,1.671,1.862,1.862,0,0,1-1.454,1.752,1.814,1.814,0,0,1-1.593-3.117c.1.5.19.965.3,1.425a.9.9,0,0,0,1.11.782.927.927,0,0,0,.689-1.175c-.079-.437-.171-.871-.263-1.337" transform="translate(-156.652 -168.596)" fill="#6ba4dd"/>
        <path id="Trazado_721238" data-name="Trazado 721238" d="M59.238,86.081c-.408.351-.752.635-1.082.934a.961.961,0,0,0-.17,1.36.911.911,0,0,0,1.36.04c.363-.287.71-.594,1.088-.914a1.663,1.663,0,0,1-.922,1.9,1.948,1.948,0,0,1-2.205-.387,1.844,1.844,0,0,1-.222-2.16,1.8,1.8,0,0,1,2.153-.777" transform="translate(-48.578 -78.577)" fill="#7fb146"/>
        <path id="Trazado_721239" data-name="Trazado 721239" d="M232.927,260.2c-.379.6-.737,1.139-1.076,1.7a.923.923,0,1,0,1.545.981c.365-.54.712-1.092,1.068-1.64,1.985,1.43,2.41,4.818.913,7.107a5.661,5.661,0,0,1-7.518,1.587,5.5,5.5,0,0,1,5.067-9.73m-6.721,5.3a4.556,4.556,0,0,0,4.288,4.323c.735.036,1.113-.211,1.177-.768.07-.61-.249-.955-.982-1.058a2.713,2.713,0,0,1-2.66-2.682c-.1-.7-.429-1.008-1.018-.96-.57.047-.836.424-.8,1.146" transform="translate(-189.391 -223.825)" fill="#f4814a"/>
        <path id="Trazado_721240" data-name="Trazado 721240" d="M289.733,199.439c.233-.414.46-.777.648-1.159a.885.885,0,0,0-1.469-.953c-.288.34-.526.723-.787,1.087a3.514,3.514,0,0,1-.235-4.618,3.606,3.606,0,0,1,4.807-.969,3.655,3.655,0,0,1,1.432,4.7,3.448,3.448,0,0,1-4.4,1.913" transform="translate(-241.131 -167.456)" fill="#fcb854"/>
        <path id="Trazado_721241" data-name="Trazado 721241" d="M345.25,269.113a1.818,1.818,0,1,1,1.812-1.8,1.717,1.717,0,0,1-1.812,1.8" transform="translate(-288.224 -228.632)" fill="#82b448"/>
        <path id="Trazado_721242" data-name="Trazado 721242" d="M295.493,139.431c-.052-.552-.073-1.042-.149-1.524a.864.864,0,0,0-1.027-.8.876.876,0,0,0-.764,1.007c.015.481.055.961.086,1.469a1.744,1.744,0,0,1-1-1.931,1.882,1.882,0,0,1,1.726-1.49,1.772,1.772,0,0,1,1.811,1.271,1.626,1.626,0,0,1-.681,2" transform="translate(-245.692 -120.51)" fill="#69a2da"/>
        <path id="Trazado_721243" data-name="Trazado 721243" d="M176.109,85.771a5.46,5.46,0,0,1,5.174,5.285,1.375,1.375,0,0,1-.447.976c-.582.443-1.307-.044-1.37-.858a3.673,3.673,0,0,0-2.777-3.467,5.384,5.384,0,0,0-.725-.1c-.786-.091-1.125-.42-1.068-1.042.053-.582.431-.828,1.214-.792" transform="translate(-147.278 -78.381)" fill="#040201"/>
        <path id="Trazado_721244" data-name="Trazado 721244" d="M114.97,213.676a4.456,4.456,0,0,1-1.22,3.117.921.921,0,1,1-1.39-1.2,2.756,2.756,0,0,0-.013-3.881.894.894,0,0,1,.076-1.35.879.879,0,0,1,1.3.143,4.448,4.448,0,0,1,1.245,3.167" transform="translate(-94.764 -182.364)" fill="#040201"/>
        <path id="Trazado_721245" data-name="Trazado 721245" d="M231.028,289.094c-.031-.721.235-1.1.8-1.146.589-.048.917.261,1.018.96a2.713,2.713,0,0,0,2.66,2.682c.733.1,1.052.448.982,1.058-.064.557-.442.8-1.177.768a4.556,4.556,0,0,1-4.288-4.323" transform="translate(-194.213 -247.414)" fill="#040201"/>
      </g>
    </g>
  </g>
</svg>
