<svg xmlns="http://www.w3.org/2000/svg" width="68" height="67" viewBox="0 0 68 67">
  <g id="Grupo_956958" data-name="Grupo 956958" transform="translate(-1240 -2900.5)">
    <g id="Grupo_956933" data-name="Grupo 956933">
      <rect id="Rectángulo_339792" data-name="Rectángulo 339792" width="68" height="67" transform="translate(1240 2900.5)" fill="none"/>
      <g id="Grupo_956965" data-name="Grupo 956965" transform="translate(1242.924 2895.646)">
        <g id="Grupo_956931" data-name="Grupo 956931" transform="translate(4.076 11.854)">
          <path id="Trazado_721247" data-name="Trazado 721247" d="M110.778,259.909q0-.526,0-1.051c.449-.077.554-.374.552-.786-.01-2.02,0-4.041-.013-6.061a.58.58,0,0,1,.43-.643,1.851,1.851,0,0,1,1.96.368,2.867,2.867,0,0,0,4.132-.015,1.8,1.8,0,0,1,2.458-.026,2.876,2.876,0,0,0,4.213,0,1.8,1.8,0,0,1,2.42-.005,2.9,2.9,0,0,0,4.064.176c.008.216.024.432.024.648q0,5.981,0,11.961c0,.751,0,.752-.739.752h-15.8c-.162,0-.355-.048-.479.022-.164.093-.372.278-.379.431a.671.671,0,0,0,.3.52,1.634,1.634,0,0,0,.734.107q8.145.007,16.291,0a3.214,3.214,0,0,0,.486-.014.589.589,0,0,0,.588-.672C132,260.842,132,256.061,132,251.28a5.145,5.145,0,0,1,1.1.134.712.712,0,0,1,.367.546q.03,7.383.012,14.766c0,.734-.289,1-1.031,1q-10.033,0-20.066,0c-.794,0-1.055-.271-1.057-1.081,0-1.28-.008-2.56,0-3.84,0-.4-.138-.66-.551-.73q0-.526,0-1.052c.181-.186.5-.371.5-.559s-.323-.371-.5-.556m9.661,1.054a2.58,2.58,0,1,0-2.587,2.55,2.55,2.55,0,0,0,2.587-2.55m4.758-4.618a2.134,2.134,0,1,0-2.137,2.17,2.149,2.149,0,0,0,2.137-2.17m2.476,2.817A1.843,1.843,0,0,0,125.857,261a1.875,1.875,0,0,0,1.834,1.831,1.845,1.845,0,0,0,1.828-1.876,1.807,1.807,0,0,0-1.846-1.789" transform="translate(-95.345 -216.601)" fill="#8a71e7"/>
          <path id="Trazado_721248" data-name="Trazado 721248" d="M120.425,179.161a2.9,2.9,0,0,1-4.064-.176,1.8,1.8,0,0,0-2.42.005,2.876,2.876,0,0,1-4.213,0,1.8,1.8,0,0,0-2.458.026,2.867,2.867,0,0,1-4.132.015,1.852,1.852,0,0,0-1.96-.368.58.58,0,0,0-.43.643c.018,2.02,0,4.041.013,6.061,0,.413-.1.71-.552.786-.479-.1-.543-.434-.542-.853.007-4.419,0-8.838.01-13.256a.687.687,0,0,0-.371-.733,1.609,1.609,0,0,1-.857-1.414,18.547,18.547,0,0,1-.005-1.892,1.85,1.85,0,0,1,1.888-1.773c.847-.017,1.7,0,2.543,0H123a1.938,1.938,0,0,1,2.231,2.2c0,.379-.01.758,0,1.136a1.977,1.977,0,0,1-.992,1.854.7.7,0,0,0-.233.518c-.018,1.587-.01,3.174-.01,4.761q0,8.549,0,17.1c0,1.621-.683,2.308-2.295,2.309H101.957c-1.59,0-2.283-.688-2.283-2.261,0-1.244.007-2.489,0-3.733a.641.641,0,0,1,.542-.743c.413.07.554.328.551.73-.011,1.28-.006,2.56,0,3.84,0,.81.263,1.081,1.057,1.081q10.033,0,20.066,0c.742,0,1.03-.269,1.031-1q.009-7.383-.013-14.766a.712.712,0,0,0-.367-.546,5.147,5.147,0,0,0-1.1-.133l-1.006.583m.06-1.45,1.052-.275,1.341.132v-5.935h-14.81c-.162,0-.371.058-.477-.021-.191-.141-.425-.357-.441-.557-.013-.154.258-.37.447-.488.117-.073.316-.017.479-.017H121.5c.559,0,1.119,0,1.678,0,.7-.007.965-.282.973-.992,0-.343,0-.685,0-1.028,0-1-.211-1.212-1.193-1.212H100.713c-.072,0-.144,0-.217,0-.694.014-.968.288-.981,1q-.012.622,0,1.245c.013.73.284.989,1.033.992.848,0,1.7.01,2.544,0,.413-.007.757.095.748.561-.008.429-.338.536-.729.53-.77-.012-1.541,0-2.32,0v5.989a3.144,3.144,0,0,1,3.271.764,1.738,1.738,0,0,0,2.366-.064,2.874,2.874,0,0,1,4.171-.007,1.794,1.794,0,0,0,2.457.016,2.875,2.875,0,0,1,4.212.01,1.788,1.788,0,0,0,2.374.033c.278-.226.563-.442.844-.663" transform="translate(-84.777 -143.898)" fill="#040405"/>
          <path id="Trazado_721249" data-name="Trazado 721249" d="M17.716,71.738l-.81.61c-.245-.019-.584-.143-.712-.029-.159.141-.143.479-.2.732l-.779.67c-.365-.313-.673-.176-1.007.085q-3.274,2.562-6.562,5.1,0-3.953,0-7.906a4.9,4.9,0,0,0,.649-.365Q12.9,67.058,17.5,63.471a1.316,1.316,0,0,1,.712-.306c1.909-.025,3.819-.017,5.729-.008a.632.632,0,0,1,.435.133c.435.515.839,1.056,1.26,1.6-.18.146-.3.249-.431.349q-3.535,2.758-7.073,5.512c-.34.264-.6.527-.415.992m-6.642,1.784c.171.207.282.46.407.467a1.187,1.187,0,0,0,.737-.184q4.365-3.3,8.706-6.64,1.329-1.015,2.659-2.028c.279-.213.489-.461.232-.817s-.574-.294-.884-.05c-.085.067-.176.125-.262.19q-1.543,1.178-3.085,2.358-4.047,3.1-8.09,6.2a3.261,3.261,0,0,0-.42.5m-.55,1.306a.517.517,0,0,0-.73-.459,3.313,3.313,0,0,0-.826.592.5.5,0,0,0,.249.855c.375.122,1.328-.6,1.307-.989" transform="translate(-7.128 -55.729)" fill="#72c0e6"/>
          <path id="Trazado_721250" data-name="Trazado 721250" d="M269.192,70.955q0,3.942,0,7.883a1.512,1.512,0,0,1-.134-.085L255.761,68.382l-4.543-3.544c.383-.493.723-.981,1.12-1.417A1.027,1.027,0,0,1,253,63.1q2.757-.038,5.515,0a1.388,1.388,0,0,1,.778.271c2.864,2.215,5.712,4.451,8.572,6.673.423.328.884.608,1.327.911m-3.408,2.465a4.468,4.468,0,0,0-.487-.526q-3.559-2.735-7.129-5.455-2.106-1.608-4.217-3.21c-.456-.344-.927-.263-.971.186a.946.946,0,0,0,.361.687c2.838,2.194,5.692,4.367,8.542,6.546.931.712,1.85,1.439,2.8,2.125a1.111,1.111,0,0,0,.736.142c.124-.016.216-.28.367-.5m2.239,2.053c.05-.611-.89-1.34-1.3-1.2-.338.12-.524.52-.292.769a2.842,2.842,0,0,0,.975.719c.163.065.462-.213.613-.291" transform="translate(-215.471 -55.673)" fill="#f95d3e"/>
          <path id="Trazado_721251" data-name="Trazado 721251" d="M241.76,27.136c-.443-.3-.9-.582-1.327-.911-2.86-2.222-5.708-4.458-8.572-6.673a1.387,1.387,0,0,0-.778-.271q-2.757-.035-5.515,0a1.026,1.026,0,0,0-.663.319c-.4.436-.737.924-1.12,1.417l4.543,3.544,13.295,10.371c.042.032.089.057.134.085.309.286.8.557.377,1.046-.386.452-.742.069-1.065-.183Q232.24,29,223.412,22.109c-.085-.066-.171-.13-.253-.192-1.2.784-1.573.719-2.757-.117-1.493-1.054-1.672-1.994-.439-3.478,1.509-1.816,2.919-3.714,4.373-5.575a1.685,1.685,0,0,1,2.73-.35c.186.143.371.286.555.431a1.763,1.763,0,0,1,.636,2.519q2.2,1.718,4.416,3.45,4.521,3.527,9.043,7.051c.071.055.142.111.212.168.529.442.473.811-.169,1.119m-20.295-8.949c1.047,0,1.964.008,2.881-.008a.6.6,0,0,0,.41-.181c.862-1.086,1.709-2.183,2.554-3.281a.53.53,0,0,0-.083-.808c-.346-.287-.7-.564-1.062-.832a.5.5,0,0,0-.765.085c-1.289,1.636-2.57,3.279-3.936,5.025m2.305,1.079c-1.054,0-1.984-.032-2.908.024a.89.89,0,0,0-.58.513.768.768,0,0,0,.2.644,8.386,8.386,0,0,0,.962.775.561.561,0,0,0,.886-.11c.454-.577.9-1.157,1.441-1.845m6.339-1.1-2.559-1.994-1.539,1.994Z" transform="translate(-188.039 -11.854)" fill="#060505"/>
          <path id="Trazado_721252" data-name="Trazado 721252" d="M14.666,28.02c-.182-.465.074-.728.415-.992q3.544-2.746,7.073-5.512c.127-.1.251-.2.431-.349-.421-.54-.825-1.08-1.26-1.6a.633.633,0,0,0-.435-.133c-1.91-.009-3.819-.017-5.729.008a1.316,1.316,0,0,0-.712.306q-4.61,3.575-9.206,7.168a4.883,4.883,0,0,1-.649.365c-.67-.333-.687-.693-.053-1.188l13.3-10.377.249-.2c-.457-1.4-.306-1.706.824-2.684,1.4-1.214,2.355-1.039,3.436.436,1.417,1.932,2.938,3.788,4.408,5.681a1.669,1.669,0,0,1-.324,2.62c-.226.179-.455.354-.684.53a1.71,1.71,0,0,1-2.515-.056l-2.658,2.072c-1.635,1.274-3.274,2.542-4.9,3.828a.714.714,0,0,1-1.012.069m10.242-9.677c-1.365-1.742-2.647-3.4-3.97-5.029a.814.814,0,0,0-.744-.048,6.1,6.1,0,0,0-.949.707.615.615,0,0,0-.11,1.008c.818,1.029,1.615,2.074,2.432,3.1a.61.61,0,0,0,.375.246c.947.021,1.9.011,2.965.011M22.6,19.426c.564.713,1.038,1.358,1.571,1.95a.7.7,0,0,0,.662.045,5.4,5.4,0,0,0,1.1-.853.7.7,0,0,0,.157-.612c-.087-.213-.338-.5-.532-.506-.942-.052-1.889-.024-2.961-.024m-6.282-1.133h4.03l-1.528-1.955L16.938,17.8c-.184.143-.365.288-.621.49" transform="translate(-4.078 -12.011)" fill="#050506"/>
          <path id="Trazado_721253" data-name="Trazado 721253" d="M146.579,101.425a2.418,2.418,0,0,1-2.346-3.229,30.123,30.123,0,0,1,1.915-3.661.5.5,0,0,1,.917.028,29.75,29.75,0,0,1,1.883,3.559,2.438,2.438,0,0,1-2.37,3.3m.122-5.553-.207.007c-.421.87-.881,1.723-1.25,2.614a1.32,1.32,0,0,0,.551,1.6,1.468,1.468,0,0,0,1.668-.038,1.321,1.321,0,0,0,.476-1.578c-.374-.885-.821-1.74-1.237-2.608" transform="translate(-123.823 -82.326)" fill="#050506"/>
          <path id="Trazado_721254" data-name="Trazado 721254" d="M205.824,101.411a2.416,2.416,0,0,1-2.34-3.232,30.2,30.2,0,0,1,1.916-3.658.482.482,0,0,1,.882-.009,29.3,29.3,0,0,1,1.982,3.862,2.412,2.412,0,0,1-2.441,3.037m.129-5.536-.215,0c-.414.854-.861,1.693-1.229,2.567a1.32,1.32,0,0,0,.5,1.623,1.471,1.471,0,0,0,1.671,0,1.329,1.329,0,0,0,.5-1.624c-.369-.871-.813-1.711-1.225-2.563" transform="translate(-174.503 -82.314)" fill="#060404"/>
          <path id="Trazado_721255" data-name="Trazado 721255" d="M52.742,288.834c-.251-.292-.481-.437-.515-.62a2.446,2.446,0,0,0-1.763-2.109.528.528,0,0,1,.024-.969,2.457,2.457,0,0,0,1.722-2.02c.057-.2.344-.48.522-.478a.754.754,0,0,1,.536.471,2.417,2.417,0,0,0,1.711,2.025.6.6,0,0,1,.343.471.685.685,0,0,1-.36.518,2.391,2.391,0,0,0-1.683,1.986c-.059.23-.3.414-.536.727m.733-3.2-.747-.846-.773.879.858.708.662-.741" transform="translate(-43.492 -243.471)" fill="#050504"/>
          <path id="Trazado_721256" data-name="Trazado 721256" d="M313.468,247.138c-.26-.319-.511-.489-.549-.7a2.4,2.4,0,0,0-1.7-2.029.688.688,0,0,1-.351-.521.606.606,0,0,1,.352-.462,2.416,2.416,0,0,0,1.694-1.976.839.839,0,0,1,.557-.507c.146-.024.453.273.511.477a2.479,2.479,0,0,0,1.727,2.017.521.521,0,0,1,0,.962,2.439,2.439,0,0,0-1.725,2.016c-.058.217-.273.392-.515.72m-.754-3.234.77.818.7-.8-.731-.842-.742.824" transform="translate(-266.489 -207.809)" fill="#050504"/>
          <path id="Trazado_721257" data-name="Trazado 721257" d="M295.408,191.391a3.534,3.534,0,0,1,.576.58,3.738,3.738,0,0,1,.229.715,2.023,2.023,0,0,0,1.3,1.343c.226.087.52.349.53.544s-.275.492-.492.567a2.166,2.166,0,0,0-1.4,1.518c-.043.137-.04.308-.124.409-.165.2-.361.467-.572.5-.149.02-.353-.3-.516-.484a.564.564,0,0,1-.077-.255,2.129,2.129,0,0,0-1.448-1.666c-.22-.085-.5-.379-.5-.574s.3-.477.519-.55a2.373,2.373,0,0,0,1.486-1.841,4.044,4.044,0,0,1,.5-.8m-.684,3.207.826.747.664-.753-.742-.845-.748.852" transform="translate(-251.13 -165.423)" fill="#050504"/>
          <path id="Trazado_721258" data-name="Trazado 721258" d="M4.593,140.359q3.283-2.55,6.562-5.1c.334-.262.642-.4,1.007-.085.225.434,0,.694-.331.949Q8.5,138.7,5.189,141.3c-.316.247-.662.48-.978.068s-.025-.694.313-.927a.412.412,0,0,0,.069-.081" transform="translate(-4.076 -117.178)" fill="#050606"/>
          <path id="Trazado_721259" data-name="Trazado 721259" d="M65.362,127c.059-.253.043-.59.2-.732.128-.114.467.011.712.03.13.292.19.576-.107.808s-.559.086-.808-.106" transform="translate(-56.498 -109.678)" fill="#0a0a0a"/>
          <path id="Trazado_721260" data-name="Trazado 721260" d="M107.851,311.277c.181.185.505.372.5.556s-.323.373-.5.559c-.178-.186-.495-.372-.5-.558s.317-.371.495-.557" transform="translate(-92.418 -267.968)" fill="#0a0a0a"/>
          <path id="Trazado_721261" data-name="Trazado 721261" d="M147.783,252.2l1.006-.583c0,4.781,0,9.561.017,14.342a.589.589,0,0,1-.588.672,3.213,3.213,0,0,1-.486.014q-8.145,0-16.291,0a1.634,1.634,0,0,1-.734-.107.671.671,0,0,1-.3-.52c.007-.154.215-.338.379-.431.124-.071.317-.022.479-.022h15.8c.738,0,.739,0,.739-.752q0-5.981,0-11.961c0-.216-.015-.432-.024-.648" transform="translate(-112.134 -216.937)" fill="#b6a2fd"/>
          <path id="Trazado_721262" data-name="Trazado 721262" d="M147.055,303.094a2.58,2.58,0,0,1-5.16-.023,2.58,2.58,0,1,1,5.16.023m-2.6,1.465a1.494,1.494,0,0,0,.049-2.987,1.493,1.493,0,0,0-1.517,1.5,1.477,1.477,0,0,0,1.468,1.487" transform="translate(-121.961 -258.731)" fill="#040305"/>
          <path id="Trazado_721263" data-name="Trazado 721263" d="M185.229,274.032A2.134,2.134,0,1,1,183.1,271.9a2.137,2.137,0,0,1,2.132,2.131m-1.086.071a1.049,1.049,0,1,0-1.107,1.015,1.063,1.063,0,0,0,1.107-1.015" transform="translate(-155.377 -234.288)" fill="#040305"/>
          <path id="Trazado_721264" data-name="Trazado 721264" d="M216.847,306.107a1.807,1.807,0,0,1,1.846,1.789,1.845,1.845,0,0,1-1.828,1.876,1.875,1.875,0,0,1-1.834-1.831,1.843,1.843,0,0,1,1.816-1.834m.761,1.884a.733.733,0,0,0-.692-.8.74.74,0,0,0-.793.708.733.733,0,0,0,.674.777.743.743,0,0,0,.811-.685" transform="translate(-184.518 -263.546)" fill="#040305"/>
          <path id="Trazado_721265" data-name="Trazado 721265" d="M126.906,184.152c-.282.221-.567.437-.844.663a1.788,1.788,0,0,1-2.374-.033,2.875,2.875,0,0,0-4.212-.01,1.794,1.794,0,0,1-2.457-.016,2.874,2.874,0,0,0-4.171.007,1.738,1.738,0,0,1-2.366.064,3.144,3.144,0,0,0-3.271-.764v-5.989c.779,0,1.55-.008,2.32,0,.391.006.721-.1.729-.53.009-.466-.336-.568-.748-.561-.848.014-1.7.006-2.544,0-.749,0-1.02-.262-1.033-.992q-.011-.622,0-1.245c.014-.708.288-.982.982-1,.072,0,.144,0,.216,0h22.243c.983,0,1.193.214,1.193,1.212,0,.343,0,.686,0,1.028-.008.71-.276.985-.973.992-.559.005-1.119,0-1.678,0H114.5c-.162,0-.362-.056-.479.017-.189.118-.46.334-.447.488.017.2.251.416.441.557.106.079.314.021.477.021H129.3v5.935l-1.341-.132c0-1.117.021-2.235-.011-3.351-.01-.357-.054-.818-.58-.819s-.51.46-.593.816a.717.717,0,0,0,0,.162c0,.991-.006,1.982.006,2.973a2.078,2.078,0,0,0,.13.494m-1.53-1.71c0-.671-.266-1.018-.671-.874-.557.2-.419.695-.4,1.109a.491.491,0,0,0,.567.515c.492-.039.531-.4.509-.75m-6.353.3c-.334-.286-.5-.52-.719-.595-.305-.1-.84.435-.783.834a1.045,1.045,0,0,0,.468.557,7.854,7.854,0,0,0,1.034-.8m-7.326-.96c-.088-.489-.558-1.03-.857-.936a.873.873,0,0,0-.5.5c-.094.319.421.892.728.825a2.216,2.216,0,0,0,.633-.392m.327-4.878h-.254c-.134.211-.379.429-.368.632.01.185.33.518.46.494a.786.786,0,0,0,.543-.494c.03-.186-.241-.419-.38-.632" transform="translate(-91.197 -150.339)" fill="#ededed"/>
          <path id="Trazado_721266" data-name="Trazado 721266" d="M250.132,219.342a2.071,2.071,0,0,1-.13-.494c-.012-.991-.006-1.982-.006-2.973a.725.725,0,0,1,0-.162c.084-.356.066-.818.594-.816s.57.462.58.819c.032,1.116.011,2.234.011,3.351l-1.052.275" transform="translate(-214.423 -185.529)" fill="#fcfcfc"/>
          <path id="Trazado_721267" data-name="Trazado 721267" d="M31.355,78.953a3.253,3.253,0,0,1,.42-.5q4.039-3.109,8.09-6.2,1.542-1.18,3.085-2.358c.086-.065.177-.124.262-.19.311-.245.62-.316.884.05s.047.6-.232.817Q42.536,71.583,41.2,72.6q-4.35,3.324-8.706,6.64a1.186,1.186,0,0,1-.737.184c-.125-.007-.236-.26-.407-.467" transform="translate(-27.409 -61.16)" fill="#c2e3fc"/>
          <path id="Trazado_721268" data-name="Trazado 721268" d="M17.424,140.875c.021.391-.932,1.111-1.307.989a.5.5,0,0,1-.249-.855,3.313,3.313,0,0,1,.826-.592.517.517,0,0,1,.73.459" transform="translate(-14.028 -121.775)" fill="#c2e3fc"/>
          <path id="Trazado_721269" data-name="Trazado 721269" d="M276.189,78.938c-.151.216-.243.48-.367.5a1.112,1.112,0,0,1-.736-.142c-.949-.686-1.868-1.414-2.8-2.126-2.85-2.179-5.7-4.352-8.542-6.546a.947.947,0,0,1-.361-.687c.044-.448.514-.53.971-.186q2.115,1.6,4.217,3.21,3.567,2.724,7.13,5.455a4.465,4.465,0,0,1,.487.526" transform="translate(-225.876 -61.191)" fill="#fec7bf"/>
          <path id="Trazado_721270" data-name="Trazado 721270" d="M357.4,141.562c-.15.078-.45.356-.613.291a2.843,2.843,0,0,1-.975-.719c-.232-.249-.046-.649.292-.769.406-.144,1.345.585,1.3,1.2" transform="translate(-304.85 -121.762)" fill="#fec7bf"/>
          <path id="Trazado_721271" data-name="Trazado 721271" d="M235.171,24.6c1.366-1.746,2.646-3.389,3.935-5.025a.5.5,0,0,1,.765-.085c.36.269.716.545,1.062.832a.53.53,0,0,1,.083.808c-.846,1.1-1.693,2.2-2.554,3.281a.594.594,0,0,1-.41.181c-.916.016-1.833.008-2.88.008" transform="translate(-201.745 -18.272)" fill="#ebebeb"/>
          <path id="Trazado_721272" data-name="Trazado 721272" d="M230.367,63.043c-.537.688-.987,1.268-1.441,1.845a.561.561,0,0,1-.886.11,8.339,8.339,0,0,1-.962-.775.767.767,0,0,1-.2-.644.89.89,0,0,1,.58-.513c.924-.056,1.853-.024,2.908-.024" transform="translate(-194.636 -55.631)" fill="#f0593a"/>
          <path id="Trazado_721273" data-name="Trazado 721273" d="M270.7,43.731h-4.1l1.539-1.994,2.559,1.994" transform="translate(-228.633 -37.415)" fill="#eaeaea"/>
          <path id="Trazado_721274" data-name="Trazado 721274" d="M112.694,25.217c-1.07,0-2.018.01-2.965-.011a.61.61,0,0,1-.375-.246c-.816-1.03-1.614-2.075-2.432-3.1a.615.615,0,0,1,.11-1.008,6.109,6.109,0,0,1,.949-.707.814.814,0,0,1,.744.048c1.323,1.627,2.606,3.287,3.97,5.029" transform="translate(-91.864 -18.886)" fill="#ebebeb"/>
          <path id="Trazado_721275" data-name="Trazado 721275" d="M132.13,63.069c1.072,0,2.018-.029,2.961.024.194.011.446.293.532.506a.7.7,0,0,1-.157.612,5.4,5.4,0,0,1-1.1.853.7.7,0,0,1-.662-.045c-.533-.591-1.007-1.237-1.571-1.95" transform="translate(-113.608 -55.654)" fill="#6cb9de"/>
          <path id="Trazado_721276" data-name="Trazado 721276" d="M88.7,43.724c.255-.2.437-.347.621-.49L91.2,41.769l1.528,1.955Z" transform="translate(-76.457 -37.442)" fill="#eaeaea"/>
          <path id="Trazado_721277" data-name="Trazado 721277" d="M153.068,105.506c.416.868.863,1.723,1.237,2.608a1.322,1.322,0,0,1-.476,1.578,1.468,1.468,0,0,1-1.668.038,1.32,1.32,0,0,1-.551-1.6c.369-.891.829-1.745,1.25-2.614l.207-.007" transform="translate(-130.19 -91.96)" fill="#70bee4"/>
          <path id="Trazado_721278" data-name="Trazado 721278" d="M212.342,105.6c.412.853.856,1.692,1.225,2.563a1.329,1.329,0,0,1-.5,1.624,1.471,1.471,0,0,1-1.671,0,1.32,1.32,0,0,1-.5-1.623c.368-.873.815-1.713,1.229-2.567l.215,0" transform="translate(-180.891 -92.038)" fill="#f75b3c"/>
          <path id="Trazado_721279" data-name="Trazado 721279" d="M64.1,298.322l-.662.741-.858-.708.773-.879.747.846" transform="translate(-54.121 -256.163)" fill="#e4b61e"/>
          <path id="Trazado_721280" data-name="Trazado 721280" d="M323.66,256.526l.742-.824.731.842-.7.8-.77-.818" transform="translate(-277.435 -220.432)" fill="#e4b61e"/>
          <path id="Trazado_721281" data-name="Trazado 721281" d="M305.468,208.528l.748-.852.742.845-.664.753-.826-.747" transform="translate(-261.874 -179.352)" fill="#e4b61e"/>
          <path id="Trazado_721282" data-name="Trazado 721282" d="M150.912,311.027a1.477,1.477,0,0,1-1.468-1.487,1.492,1.492,0,1,1,2.983-.005,1.475,1.475,0,0,1-1.515,1.492" transform="translate(-128.418 -265.2)" fill="#eaeaea"/>
          <path id="Trazado_721283" data-name="Trazado 721283" d="M190.561,280.551a1.049,1.049,0,1,1-1.017-1.11,1.053,1.053,0,0,1,1.017,1.11" transform="translate(-161.794 -240.736)" fill="#e7e7e7"/>
          <path id="Trazado_721284" data-name="Trazado 721284" d="M224.067,314.4a.743.743,0,0,1-.811.685.733.733,0,0,1-.674-.777.74.74,0,0,1,.793-.708.733.733,0,0,1,.692.8" transform="translate(-190.978 -269.951)" fill="#e4e4e4"/>
          <path id="Trazado_721285" data-name="Trazado 721285" d="M233.868,228.448c.022.348-.017.711-.509.75a.491.491,0,0,1-.567-.515c-.015-.414-.153-.91.4-1.109.405-.144.674.2.671.874" transform="translate(-199.688 -196.345)" fill="#0a0a0a"/>
          <path id="Trazado_721286" data-name="Trazado 721286" d="M187.549,232.309a7.846,7.846,0,0,1-1.034.8,1.046,1.046,0,0,1-.468-.557c-.057-.4.478-.938.783-.834.22.074.385.308.719.595" transform="translate(-159.723 -199.902)" fill="#0a0a0a"/>
          <path id="Trazado_721287" data-name="Trazado 721287" d="M137.693,223.669a2.218,2.218,0,0,1-.633.392c-.306.066-.822-.506-.728-.825a.873.873,0,0,1,.5-.5c.3-.094.769.447.857.936" transform="translate(-117.193 -192.222)" fill="#0a0a0a"/>
          <path id="Trazado_721288" data-name="Trazado 721288" d="M144.382,195.537c.139.212.41.446.38.632a.786.786,0,0,1-.543.494c-.129.024-.449-.309-.46-.494-.012-.2.234-.421.368-.632h.254" transform="translate(-123.555 -168.968)" fill="#0a0a0a"/>
        </g>
      </g>
    </g>
  </g>
</svg>
