<svg xmlns="http://www.w3.org/2000/svg" width="1030" height="214" viewBox="0 0 1030 214">
  <g id="Grupo_957984" data-name="Grupo 957984" transform="translate(-285 -9726)">
    <path id="Trazado_725448" data-name="Trazado 725448" d="M10,0H1020a10,10,0,0,1,10,10V204a10,10,0,0,1-10,10H10A10,10,0,0,1,0,204V10A10,10,0,0,1,10,0Z" transform="translate(285 9726)" fill="#fff"/>
    <path id="Trazado_725449" data-name="Trazado 725449" d="M5.356,10H.483V9.033l2.3-2.451a5.674,5.674,0,0,0,.7-.9,1.451,1.451,0,0,0,.227-.732A1.086,1.086,0,0,0,3.472,4.2a.864.864,0,0,0-.684-.271.931.931,0,0,0-.754.33,1.306,1.306,0,0,0-.276.867H.342A2.331,2.331,0,0,1,.652,3.94,2.185,2.185,0,0,1,1.528,3.1a2.664,2.664,0,0,1,1.284-.305,2.522,2.522,0,0,1,1.707.527A1.866,1.866,0,0,1,5.127,4.81a2.39,2.39,0,0,1-.273,1.074,5.97,5.97,0,0,1-.937,1.274L2.3,8.862H5.356Z" transform="translate(666 9778)" fill="#12263f"/>
    <path id="Trazado_725450" data-name="Trazado 725450" d="M10.273,17H7.93V12.125H3.359V17H1.016V5.625H3.359v4.609H7.93V5.625h2.344Z" transform="translate(654 9771)" fill="#12263f"/>
    <path id="Trazado_725451" data-name="Trazado 725451" d="M5.234,10.9H8.406v1.367H5.234v3.594H3.781V12.266H.609V10.9H3.781V7.578H5.234Z" transform="translate(675 9771)" fill="#12263f"/>
    <path id="Trazado_725452" data-name="Trazado 725452" d="M5.7,17H4.242V7.367L1.328,8.438V7.125L5.469,5.57H5.7ZM8.4,37H.945V35.961l3.938-4.375A9.355,9.355,0,0,0,6.09,29.973a2.693,2.693,0,0,0,.332-1.285,2.041,2.041,0,0,0-.539-1.461,1.885,1.885,0,0,0-1.437-.57,2.232,2.232,0,0,0-1.676.613,2.343,2.343,0,0,0-.6,1.707H.727a3.355,3.355,0,0,1,1.012-2.539,3.751,3.751,0,0,1,2.707-.969,3.6,3.6,0,0,1,2.508.832,2.838,2.838,0,0,1,.922,2.215q0,1.68-2.141,4l-3.047,3.3H8.4Z" transform="translate(690 9761)" fill="#12263f"/>
    <path id="Trazado_725453" data-name="Trazado 725453" d="M0,0H14" transform="translate(687.5 9780.5)" fill="none" stroke="#707070" stroke-width="1"/>
    <path id="Trazado_725454" data-name="Trazado 725454" d="M5.356,10H.483V9.033l2.3-2.451a5.674,5.674,0,0,0,.7-.9,1.451,1.451,0,0,0,.227-.732A1.086,1.086,0,0,0,3.472,4.2a.864.864,0,0,0-.684-.271.931.931,0,0,0-.754.33,1.306,1.306,0,0,0-.276.867H.342A2.331,2.331,0,0,1,.652,3.94,2.185,2.185,0,0,1,1.528,3.1a2.664,2.664,0,0,1,1.284-.305,2.522,2.522,0,0,1,1.707.527A1.866,1.866,0,0,1,5.127,4.81a2.39,2.39,0,0,1-.273,1.074,5.97,5.97,0,0,1-.937,1.274L2.3,8.862H5.356Z" transform="translate(715 9778)" fill="#12263f"/>
    <path id="Trazado_725455" data-name="Trazado 725455" d="M8.078,12.148a6.61,6.61,0,0,1-.867,3.773A3.084,3.084,0,0,1,4.5,17.156a3.107,3.107,0,0,1-2.7-1.207A6.274,6.274,0,0,1,.9,12.344v-1.93a6.463,6.463,0,0,1,.867-3.727A3.108,3.108,0,0,1,4.484,5.469a3.136,3.136,0,0,1,2.7,1.176,6.237,6.237,0,0,1,.891,3.629ZM6.633,10.172A5.3,5.3,0,0,0,6.117,7.5a1.775,1.775,0,0,0-1.633-.84,1.751,1.751,0,0,0-1.617.836,5.171,5.171,0,0,0-.523,2.57v2.313A5.381,5.381,0,0,0,2.879,15.1a1.771,1.771,0,0,0,1.621.879,1.747,1.747,0,0,0,1.59-.828,5.186,5.186,0,0,0,.543-2.609Z" transform="translate(703 9771)" fill="#12263f"/>
    <path id="Trazado_725456" data-name="Trazado 725456" d="M2.256,15.516H13.877l-1.2-1.172V12.9L15.8,16.141v.039l-3.125,3.242V17.977l1.182-1.152H2.256Z" transform="translate(722 9765)" fill="#707070"/>
    <path id="Trazado_725457" data-name="Trazado 725457" d="M5.356,10H.483V9.033l2.3-2.451a5.674,5.674,0,0,0,.7-.9,1.451,1.451,0,0,0,.227-.732A1.086,1.086,0,0,0,3.472,4.2a.864.864,0,0,0-.684-.271.931.931,0,0,0-.754.33,1.306,1.306,0,0,0-.276.867H.342A2.331,2.331,0,0,1,.652,3.94,2.185,2.185,0,0,1,1.528,3.1a2.664,2.664,0,0,1,1.284-.305,2.522,2.522,0,0,1,1.707.527A1.866,1.866,0,0,1,5.127,4.81a2.39,2.39,0,0,1-.273,1.074,5.97,5.97,0,0,1-.937,1.274L2.3,8.862H5.356Z" transform="translate(752 9778)" fill="#12263f"/>
    <path id="Trazado_725458" data-name="Trazado 725458" d="M10.063,17H8.555V11.742H2.82V17H1.32V5.625h1.5v4.891H8.555V5.625h1.508ZM29.4,11.68a7.037,7.037,0,0,1-.562,2.918,4.261,4.261,0,0,1-1.594,1.9,4.4,4.4,0,0,1-6.4-1.887,6.752,6.752,0,0,1-.59-2.832v-.82a6.953,6.953,0,0,1,.57-2.9,4.218,4.218,0,0,1,4-2.594,4.41,4.41,0,0,1,2.41.66,4.253,4.253,0,0,1,1.605,1.914,7.071,7.071,0,0,1,.563,2.918Zm-1.492-.734a5.1,5.1,0,0,0-.812-3.105A2.68,2.68,0,0,0,24.82,6.758,2.651,2.651,0,0,0,22.582,7.84a5,5,0,0,0-.84,3v.836a5.107,5.107,0,0,0,.824,3.082,2.888,2.888,0,0,0,4.52.063,5.079,5.079,0,0,0,.82-3.035Z" transform="translate(740 9771)" fill="#12263f"/>
    <path id="Trazado_725459" data-name="Trazado 725459" d="M5.7,0H4.242V-9.633L1.328-8.562V-9.875L5.469-11.43H5.7Zm7.5-5.289L11.8-3.844V0H10.3V-11.375h1.5V-5.75l5.055-5.625h1.813L14.2-6.352,19.023,0h-1.8Zm8.273-3.164.039.938a3.122,3.122,0,0,1,2.508-1.094A2.417,2.417,0,0,1,26.43-7.25a3.2,3.2,0,0,1,1.1-.984,3.242,3.242,0,0,1,1.6-.375q2.781,0,2.828,2.945V0H30.508V-5.578a1.941,1.941,0,0,0-.414-1.355A1.823,1.823,0,0,0,28.7-7.383a1.916,1.916,0,0,0-1.336.48,1.949,1.949,0,0,0-.617,1.293V0H25.3V-5.539a1.613,1.613,0,0,0-1.8-1.844,1.934,1.934,0,0,0-1.945,1.211V0H20.1V-8.453ZM33.75-4.3a4.993,4.993,0,0,1,.488-2.234A3.643,3.643,0,0,1,35.6-8.07a3.7,3.7,0,0,1,1.988-.539,3.565,3.565,0,0,1,2.793,1.2,4.6,4.6,0,0,1,1.066,3.18v.1a5.036,5.036,0,0,1-.473,2.215A3.589,3.589,0,0,1,39.621-.391,3.743,3.743,0,0,1,37.6.156a3.556,3.556,0,0,1-2.785-1.2A4.575,4.575,0,0,1,33.75-4.2Zm1.453.172a3.616,3.616,0,0,0,.652,2.258,2.088,2.088,0,0,0,1.746.852,2.075,2.075,0,0,0,1.75-.863A3.955,3.955,0,0,0,40-4.3a3.61,3.61,0,0,0-.66-2.254,2.1,2.1,0,0,0-1.754-.863,2.075,2.075,0,0,0-1.727.852A3.925,3.925,0,0,0,35.2-4.133ZM44.828,0H43.383V-12h1.445ZM60.07,0H58.563V-5.258H52.828V0h-1.5V-11.375h1.5v4.891h5.734v-4.891H60.07Zm14.5-6.1h3.172v1.367H74.57v3.594H73.117V-4.734H69.945V-6.1h3.172v-3.32H74.57Zm15.875,1.25a6.61,6.61,0,0,1-.867,3.773A3.084,3.084,0,0,1,86.867.156a3.107,3.107,0,0,1-2.7-1.207,6.274,6.274,0,0,1-.906-3.605v-1.93a6.463,6.463,0,0,1,.867-3.727,3.108,3.108,0,0,1,2.719-1.219,3.136,3.136,0,0,1,2.7,1.176,6.237,6.237,0,0,1,.891,3.629ZM89-6.828A5.3,5.3,0,0,0,88.484-9.5a1.775,1.775,0,0,0-1.633-.84,1.751,1.751,0,0,0-1.617.836,5.171,5.171,0,0,0-.523,2.57v2.313A5.381,5.381,0,0,0,85.246-1.9a1.771,1.771,0,0,0,1.621.879,1.747,1.747,0,0,0,1.59-.828A5.186,5.186,0,0,0,89-4.461Zm3.477,6.07a.905.905,0,0,1,.223-.625.848.848,0,0,1,.668-.25.874.874,0,0,1,.676.25.887.887,0,0,1,.23.625.839.839,0,0,1-.23.6.89.89,0,0,1-.676.242A.863.863,0,0,1,92.7-.156.855.855,0,0,1,92.477-.758Zm4.7-4.945.578-5.672h5.828v1.336h-4.6l-.344,3.1a3.671,3.671,0,0,1,1.9-.492A3.138,3.138,0,0,1,103-6.4a4.026,4.026,0,0,1,.914,2.777,3.886,3.886,0,0,1-.949,2.77A3.46,3.46,0,0,1,100.313.156,3.6,3.6,0,0,1,97.852-.68a3.337,3.337,0,0,1-1.086-2.312h1.367a2.3,2.3,0,0,0,.7,1.473,2.162,2.162,0,0,0,1.484.5,1.95,1.95,0,0,0,1.582-.687,2.874,2.874,0,0,0,.574-1.9,2.638,2.638,0,0,0-.621-1.832,2.113,2.113,0,0,0-1.652-.691,2.383,2.383,0,0,0-1.484.414l-.383.313Zm15.547.414-1.391,1.445V0h-1.5V-11.375h1.5V-5.75l5.055-5.625H118.2l-4.477,5.023L118.547,0h-1.8Zm8.273-3.164.039.938a3.122,3.122,0,0,1,2.508-1.094,2.417,2.417,0,0,1,2.414,1.359,3.2,3.2,0,0,1,1.1-.984,3.242,3.242,0,0,1,1.6-.375q2.781,0,2.828,2.945V0h-1.445V-5.578a1.941,1.941,0,0,0-.414-1.355,1.823,1.823,0,0,0-1.391-.449,1.916,1.916,0,0,0-1.336.48,1.949,1.949,0,0,0-.617,1.293V0H124.82V-5.539a1.613,1.613,0,0,0-1.8-1.844,1.934,1.934,0,0,0-1.945,1.211V0h-1.445V-8.453ZM133.273-4.3a4.993,4.993,0,0,1,.488-2.234,3.642,3.642,0,0,1,1.359-1.531,3.7,3.7,0,0,1,1.988-.539,3.565,3.565,0,0,1,2.793,1.2,4.6,4.6,0,0,1,1.066,3.18v.1a5.036,5.036,0,0,1-.473,2.215,3.589,3.589,0,0,1-1.352,1.527,3.743,3.743,0,0,1-2.02.547,3.556,3.556,0,0,1-2.785-1.2A4.575,4.575,0,0,1,133.273-4.2Zm1.453.172a3.616,3.616,0,0,0,.652,2.258,2.088,2.088,0,0,0,1.746.852,2.075,2.075,0,0,0,1.75-.863,3.954,3.954,0,0,0,.648-2.418,3.61,3.61,0,0,0-.66-2.254,2.1,2.1,0,0,0-1.754-.863,2.075,2.075,0,0,0-1.727.852A3.925,3.925,0,0,0,134.727-4.133ZM144.352,0h-1.445V-12h1.445ZM159.6-5.32a7.037,7.037,0,0,1-.562,2.918,4.261,4.261,0,0,1-1.594,1.9,4.385,4.385,0,0,1-2.406.656,4.347,4.347,0,0,1-2.383-.66,4.363,4.363,0,0,1-1.613-1.883,6.752,6.752,0,0,1-.59-2.832v-.82a6.953,6.953,0,0,1,.57-2.9,4.347,4.347,0,0,1,1.613-1.926,4.329,4.329,0,0,1,2.387-.668,4.41,4.41,0,0,1,2.41.66,4.253,4.253,0,0,1,1.605,1.914,7.071,7.071,0,0,1,.563,2.918Zm-1.492-.734A5.1,5.1,0,0,0,157.3-9.16a2.68,2.68,0,0,0-2.273-1.082,2.651,2.651,0,0,0-2.238,1.082,5,5,0,0,0-.84,3v.836a5.107,5.107,0,0,0,.824,3.082,2.662,2.662,0,0,0,2.27,1.121,2.652,2.652,0,0,0,2.25-1.059,5.079,5.079,0,0,0,.82-3.035Zm12.148.867h9.3l-.961-.937V-7.281l2.5,2.594v.031l-2.5,2.594V-3.219l.945-.922h-9.281ZM191.914,0h-1.453V-9.633l-2.914,1.07V-9.875l4.141-1.555h.227Zm11.461-5.289-1.391,1.445V0h-1.5V-11.375h1.5V-5.75l5.055-5.625h1.813l-4.477,5.023L209.2,0h-1.8Zm8.273-3.164.039.938A3.122,3.122,0,0,1,214.2-8.609a2.417,2.417,0,0,1,2.414,1.359,3.2,3.2,0,0,1,1.1-.984,3.242,3.242,0,0,1,1.6-.375q2.781,0,2.828,2.945V0h-1.445V-5.578a1.941,1.941,0,0,0-.414-1.355,1.823,1.823,0,0,0-1.391-.449,1.917,1.917,0,0,0-1.336.48,1.949,1.949,0,0,0-.617,1.293V0h-1.453V-5.539a1.613,1.613,0,0,0-1.8-1.844,1.934,1.934,0,0,0-1.945,1.211V0h-1.445V-8.453ZM223.93-4.3a4.993,4.993,0,0,1,.488-2.234,3.642,3.642,0,0,1,1.359-1.531,3.7,3.7,0,0,1,1.988-.539,3.565,3.565,0,0,1,2.793,1.2,4.6,4.6,0,0,1,1.066,3.18v.1a5.036,5.036,0,0,1-.473,2.215A3.589,3.589,0,0,1,229.8-.391a3.743,3.743,0,0,1-2.02.547A3.556,3.556,0,0,1,225-1.039,4.575,4.575,0,0,1,223.93-4.2Zm1.453.172a3.616,3.616,0,0,0,.652,2.258,2.088,2.088,0,0,0,1.746.852,2.075,2.075,0,0,0,1.75-.863A3.954,3.954,0,0,0,230.18-4.3a3.61,3.61,0,0,0-.66-2.254,2.1,2.1,0,0,0-1.754-.863,2.075,2.075,0,0,0-1.727.852A3.925,3.925,0,0,0,225.383-4.133ZM235.008,0h-1.445V-12h1.445ZM250.25,0h-1.508V-5.258h-5.734V0h-1.5V-11.375h1.5v4.891h5.734v-4.891h1.508Zm19.336-5.32a7.037,7.037,0,0,1-.562,2.918A4.261,4.261,0,0,1,267.43-.5a4.385,4.385,0,0,1-2.406.656,4.347,4.347,0,0,1-2.383-.66,4.362,4.362,0,0,1-1.613-1.883,6.751,6.751,0,0,1-.59-2.832v-.82a6.953,6.953,0,0,1,.57-2.9,4.347,4.347,0,0,1,1.613-1.926,4.329,4.329,0,0,1,2.387-.668,4.41,4.41,0,0,1,2.41.66,4.253,4.253,0,0,1,1.605,1.914,7.071,7.071,0,0,1,.563,2.918Zm-1.492-.734a5.1,5.1,0,0,0-.812-3.105,2.68,2.68,0,0,0-2.273-1.082A2.651,2.651,0,0,0,262.77-9.16a5,5,0,0,0-.84,3v.836a5.108,5.108,0,0,0,.824,3.082,2.662,2.662,0,0,0,2.27,1.121,2.652,2.652,0,0,0,2.25-1.059,5.079,5.079,0,0,0,.82-3.035Z" transform="translate(653 9829)" fill="#12263f"/>
    <path id="Trazado_725460" data-name="Trazado 725460" d="M5.356,10H.483V9.033l2.3-2.451a5.674,5.674,0,0,0,.7-.9,1.451,1.451,0,0,0,.227-.732A1.086,1.086,0,0,0,3.472,4.2a.864.864,0,0,0-.684-.271.931.931,0,0,0-.754.33,1.306,1.306,0,0,0-.276.867H.342A2.331,2.331,0,0,1,.652,3.94,2.185,2.185,0,0,1,1.528,3.1a2.664,2.664,0,0,1,1.284-.305,2.522,2.522,0,0,1,1.707.527A1.866,1.866,0,0,1,5.127,4.81a2.39,2.39,0,0,1-.273,1.074,5.97,5.97,0,0,1-.937,1.274L2.3,8.862H5.356Z" transform="translate(715 9821)" fill="#12263f"/>
    <path id="Trazado_725461" data-name="Trazado 725461" d="M5.356,10H.483V9.033l2.3-2.451a5.674,5.674,0,0,0,.7-.9,1.451,1.451,0,0,0,.227-.732A1.086,1.086,0,0,0,3.472,4.2a.864.864,0,0,0-.684-.271.931.931,0,0,0-.754.33,1.306,1.306,0,0,0-.276.867H.342A2.331,2.331,0,0,1,.652,3.94,2.185,2.185,0,0,1,1.528,3.1a2.664,2.664,0,0,1,1.284-.305,2.522,2.522,0,0,1,1.707.527A1.866,1.866,0,0,1,5.127,4.81a2.39,2.39,0,0,1-.273,1.074,5.97,5.97,0,0,1-.937,1.274L2.3,8.862H5.356Z" transform="translate(813 9821)" fill="#12263f"/>
    <path id="Trazado_725462" data-name="Trazado 725462" d="M5.356,10H.483V9.033l2.3-2.451a5.674,5.674,0,0,0,.7-.9,1.451,1.451,0,0,0,.227-.732A1.086,1.086,0,0,0,3.472,4.2a.864.864,0,0,0-.684-.271.931.931,0,0,0-.754.33,1.306,1.306,0,0,0-.276.867H.342A2.331,2.331,0,0,1,.652,3.94,2.185,2.185,0,0,1,1.528,3.1a2.664,2.664,0,0,1,1.284-.305,2.522,2.522,0,0,1,1.707.527A1.866,1.866,0,0,1,5.127,4.81a2.39,2.39,0,0,1-.273,1.074,5.97,5.97,0,0,1-.937,1.274L2.3,8.862H5.356Z" transform="translate(905 9821)" fill="#12263f"/>
    <path id="Trazado_725463" data-name="Trazado 725463" d="M11.32,14.667a4.673,4.673,0,0,1-.721,2.36,4.35,4.35,0,0,1-1.85,1.586,6.3,6.3,0,0,1-2.72.563,5.025,5.025,0,0,1-3.973-1.644,6.786,6.786,0,0,1-1.45-4.641v-.633a7.746,7.746,0,0,1,.655-3.292,4.961,4.961,0,0,1,1.885-2.18,5.26,5.26,0,0,1,2.848-.769A5.516,5.516,0,0,1,9.738,7.245a4.844,4.844,0,0,1,1.608,3.379H8.271a2.292,2.292,0,0,0-.589-1.679,2.422,2.422,0,0,0-1.687-.51A1.843,1.843,0,0,0,4.307,9.3a5.536,5.536,0,0,0-.562,2.751v.905a6.125,6.125,0,0,0,.514,2.927,1.882,1.882,0,0,0,1.771.879,2.369,2.369,0,0,0,1.626-.5,2.126,2.126,0,0,0,.6-1.591Zm.949-.51a5.613,5.613,0,0,1,.554-2.536,3.96,3.96,0,0,1,1.591-1.709,4.791,4.791,0,0,1,2.435-.6,4.373,4.373,0,0,1,3.366,1.323,5.076,5.076,0,0,1,1.23,3.6v.105a4.925,4.925,0,0,1-1.235,3.529,4.384,4.384,0,0,1-3.344,1.305,4.434,4.434,0,0,1-3.261-1.217,4.761,4.761,0,0,1-1.327-3.3Zm2.962.185a3.538,3.538,0,0,0,.413,1.934,1.376,1.376,0,0,0,1.222.615q1.582,0,1.617-2.435v-.3q0-2.558-1.635-2.558-1.485,0-1.608,2.206ZM25.471,9.49l.1,1.116a3.225,3.225,0,0,1,2.716-1.292A2.713,2.713,0,0,1,30.5,10.2a4.226,4.226,0,0,1,.76,2.672V19H28.292V13A1.6,1.6,0,0,0,28,11.938a1.342,1.342,0,0,0-1.055-.338,1.413,1.413,0,0,0-1.292.686V19H22.693V9.49ZM40.509,19H37.538V5.5h2.971Zm1.45-4.843a5.613,5.613,0,0,1,.554-2.536A3.96,3.96,0,0,1,44.1,9.912a4.791,4.791,0,0,1,2.435-.6A4.373,4.373,0,0,1,49.9,10.637a5.076,5.076,0,0,1,1.23,3.6v.105A4.925,4.925,0,0,1,49.9,17.871a4.384,4.384,0,0,1-3.344,1.305,4.434,4.434,0,0,1-3.261-1.217,4.761,4.761,0,0,1-1.327-3.3Zm2.962.185a3.538,3.538,0,0,0,.413,1.934,1.376,1.376,0,0,0,1.222.615q1.582,0,1.617-2.435v-.3q0-2.558-1.635-2.558-1.485,0-1.608,2.206Zm12.5,1.986a.684.684,0,0,0-.4-.606,6.016,6.016,0,0,0-1.5-.475,6.853,6.853,0,0,1-1.828-.646,3.062,3.062,0,0,1-1.1-.971,2.319,2.319,0,0,1-.378-1.31A2.628,2.628,0,0,1,53.3,10.163a4.453,4.453,0,0,1,2.83-.848,4.934,4.934,0,0,1,3.023.853,2.666,2.666,0,0,1,1.143,2.241H57.322q0-1.143-1.2-1.143a1.194,1.194,0,0,0-.782.259.8.8,0,0,0-.316.646.737.737,0,0,0,.387.642,3.654,3.654,0,0,0,1.235.4,10.671,10.671,0,0,1,1.49.378,2.706,2.706,0,0,1,2.145,2.646,2.491,2.491,0,0,1-1.156,2.118,5.068,5.068,0,0,1-2.993.817,5.172,5.172,0,0,1-2.18-.439,3.645,3.645,0,0,1-1.494-1.2,2.707,2.707,0,0,1-.536-1.591h2.769a1.145,1.145,0,0,0,.439.962,1.808,1.808,0,0,0,1.081.3,1.422,1.422,0,0,0,.91-.246A.787.787,0,0,0,57.419,16.328Zm17.552-2.013a5.735,5.735,0,0,1-1,3.538,3.2,3.2,0,0,1-2.694,1.323,2.742,2.742,0,0,1-2.153-.958v4.438H66.164V9.49h2.769l.088.879a2.742,2.742,0,0,1,2.241-1.055A3.224,3.224,0,0,1,74,10.611a5.805,5.805,0,0,1,.976,3.564Zm-2.962-.185q0-2.531-1.477-2.531a1.394,1.394,0,0,0-1.406.756V16.1a1.439,1.439,0,0,0,1.424.791q1.415,0,1.459-2.443Zm8.868,5.045a4.889,4.889,0,0,1-3.542-1.305,4.507,4.507,0,0,1-1.354-3.4v-.246a5.84,5.84,0,0,1,.541-2.575A3.955,3.955,0,0,1,78.1,9.925a4.763,4.763,0,0,1,2.461-.611,4.117,4.117,0,0,1,3.164,1.244,4.887,4.887,0,0,1,1.16,3.467v1.151H79a2.135,2.135,0,0,0,.694,1.257,2.066,2.066,0,0,0,1.389.457,2.662,2.662,0,0,0,2.2-.984l1.354,1.6a3.784,3.784,0,0,1-1.569,1.217A5.3,5.3,0,0,1,80.877,19.176ZM80.543,11.6q-1.3,0-1.547,1.723h2.988v-.229a1.467,1.467,0,0,0-.36-1.1A1.434,1.434,0,0,0,80.543,11.6Zm10.512,4.729a.684.684,0,0,0-.4-.606,6.016,6.016,0,0,0-1.5-.475,6.853,6.853,0,0,1-1.828-.646,3.062,3.062,0,0,1-1.1-.971,2.319,2.319,0,0,1-.378-1.31,2.628,2.628,0,0,1,1.081-2.158,4.453,4.453,0,0,1,2.83-.848,4.934,4.934,0,0,1,3.023.853,2.666,2.666,0,0,1,1.143,2.241H90.958q0-1.143-1.2-1.143a1.194,1.194,0,0,0-.782.259.8.8,0,0,0-.316.646.737.737,0,0,0,.387.642,3.654,3.654,0,0,0,1.235.4,10.671,10.671,0,0,1,1.49.378,2.706,2.706,0,0,1,2.145,2.646,2.491,2.491,0,0,1-1.156,2.118,5.068,5.068,0,0,1-2.993.817,5.172,5.172,0,0,1-2.18-.439,3.645,3.645,0,0,1-1.494-1.2,2.707,2.707,0,0,1-.536-1.591h2.769a1.145,1.145,0,0,0,.439.962,1.808,1.808,0,0,0,1.081.3,1.422,1.422,0,0,0,.91-.246A.787.787,0,0,0,91.055,16.328Zm3.867-2.171a5.613,5.613,0,0,1,.554-2.536,3.96,3.96,0,0,1,1.591-1.709,4.791,4.791,0,0,1,2.435-.6,4.373,4.373,0,0,1,3.366,1.323,5.076,5.076,0,0,1,1.23,3.6v.105a4.925,4.925,0,0,1-1.235,3.529,4.384,4.384,0,0,1-3.344,1.305,4.434,4.434,0,0,1-3.261-1.217,4.761,4.761,0,0,1-1.327-3.3Zm2.962.185a3.538,3.538,0,0,0,.413,1.934,1.376,1.376,0,0,0,1.222.615q1.582,0,1.617-2.435v-.3q0-2.558-1.635-2.558-1.485,0-1.608,2.206Zm12.5,1.986a.684.684,0,0,0-.4-.606,6.016,6.016,0,0,0-1.5-.475,6.853,6.853,0,0,1-1.828-.646,3.062,3.062,0,0,1-1.1-.971,2.319,2.319,0,0,1-.378-1.31,2.628,2.628,0,0,1,1.081-2.158,4.453,4.453,0,0,1,2.83-.848,4.934,4.934,0,0,1,3.023.853,2.666,2.666,0,0,1,1.143,2.241h-2.971q0-1.143-1.2-1.143a1.194,1.194,0,0,0-.782.259.8.8,0,0,0-.316.646.737.737,0,0,0,.387.642,3.654,3.654,0,0,0,1.235.4,10.671,10.671,0,0,1,1.49.378,2.706,2.706,0,0,1,2.145,2.646,2.491,2.491,0,0,1-1.156,2.118,5.068,5.068,0,0,1-2.993.817,5.172,5.172,0,0,1-2.18-.439,3.645,3.645,0,0,1-1.494-1.2,2.707,2.707,0,0,1-.536-1.591h2.769a1.145,1.145,0,0,0,.439.962,1.808,1.808,0,0,0,1.081.3,1.422,1.422,0,0,0,.91-.246A.787.787,0,0,0,110.382,16.328ZM121.9,9.49l.1,1.116a3.27,3.27,0,0,1,2.716-1.292,2.407,2.407,0,0,1,2.435,1.433,3.165,3.165,0,0,1,2.795-1.433q2.892,0,2.971,3.5V19h-2.971V13a1.813,1.813,0,0,0-.246-1.063,1.048,1.048,0,0,0-.9-.334,1.4,1.4,0,0,0-1.31.782l.009.123V19h-2.971V13.015a1.906,1.906,0,0,0-.237-1.081,1.045,1.045,0,0,0-.905-.334,1.42,1.42,0,0,0-1.3.782V19h-2.962V9.49Zm12.331,4.667a5.613,5.613,0,0,1,.554-2.536,3.96,3.96,0,0,1,1.591-1.709,4.791,4.791,0,0,1,2.435-.6,4.373,4.373,0,0,1,3.366,1.323,5.076,5.076,0,0,1,1.23,3.6v.105a4.925,4.925,0,0,1-1.235,3.529,4.384,4.384,0,0,1-3.344,1.305,4.434,4.434,0,0,1-3.261-1.217,4.761,4.761,0,0,1-1.327-3.3Zm2.962.185a3.538,3.538,0,0,0,.413,1.934,1.376,1.376,0,0,0,1.222.615q1.582,0,1.617-2.435v-.3q0-2.558-1.635-2.558-1.485,0-1.608,2.206ZM147.841,19H144.87V5.5h2.971Zm6.425.176a4.889,4.889,0,0,1-3.542-1.305,4.507,4.507,0,0,1-1.354-3.4v-.246a5.84,5.84,0,0,1,.541-2.575,3.955,3.955,0,0,1,1.578-1.727,4.763,4.763,0,0,1,2.461-.611,4.117,4.117,0,0,1,3.164,1.244,4.887,4.887,0,0,1,1.16,3.467v1.151h-5.889a2.135,2.135,0,0,0,.694,1.257,2.066,2.066,0,0,0,1.389.457,2.662,2.662,0,0,0,2.2-.984l1.354,1.6a3.784,3.784,0,0,1-1.569,1.217A5.3,5.3,0,0,1,154.266,19.176Zm-.334-7.576q-1.3,0-1.547,1.723h2.988v-.229a1.467,1.467,0,0,0-.36-1.1A1.434,1.434,0,0,0,153.932,11.6Zm9.554,5.291a1.317,1.317,0,0,0,.967-.338,1.241,1.241,0,0,0,.334-.945h2.777a3.288,3.288,0,0,1-1.121,2.566,4.168,4.168,0,0,1-2.887,1,4.22,4.22,0,0,1-3.27-1.3,5.125,5.125,0,0,1-1.2-3.6v-.123a5.792,5.792,0,0,1,.532-2.544,3.872,3.872,0,0,1,1.534-1.7,4.573,4.573,0,0,1,2.373-.593,4.116,4.116,0,0,1,2.944,1.028,3.647,3.647,0,0,1,1.09,2.786h-2.777a1.626,1.626,0,0,0-.36-1.134,1.244,1.244,0,0,0-.967-.4q-1.151,0-1.345,1.468a10.357,10.357,0,0,0-.062,1.283,4.068,4.068,0,0,0,.343,1.986A1.187,1.187,0,0,0,163.485,16.891Zm11,1.081a3.054,3.054,0,0,1-2.54,1.2,3,3,0,0,1-2.369-.91,3.826,3.826,0,0,1-.8-2.615V9.49h2.962v6.179a1.065,1.065,0,0,0,1.187,1.222,1.548,1.548,0,0,0,1.45-.729V9.49h2.979V19h-2.777ZM182.092,19h-2.971V5.5h2.971Zm7.181,0a3.344,3.344,0,0,1-.281-.853,2.754,2.754,0,0,1-2.285,1.028,3.374,3.374,0,0,1-2.285-.813,2.588,2.588,0,0,1-.94-2.043,2.66,2.66,0,0,1,1.143-2.338,5.821,5.821,0,0,1,3.322-.791h.914v-.5q0-1.316-1.134-1.316a.927.927,0,0,0-1.055,1.042h-2.962a2.655,2.655,0,0,1,1.173-2.239,4.931,4.931,0,0,1,2.993-.86,4.323,4.323,0,0,1,2.874.888,3.086,3.086,0,0,1,1.081,2.435v4.21a4.311,4.311,0,0,0,.4,2V19Zm-1.854-1.934a1.652,1.652,0,0,0,.918-.237,1.487,1.487,0,0,0,.523-.536V14.772H188q-1.547,0-1.547,1.389a.848.848,0,0,0,.272.655A.986.986,0,0,0,187.418,17.066Zm11.8-4.9-.976-.07a1.752,1.752,0,0,0-1.793.879V19h-2.962V9.49h2.777l.1,1.222a2.294,2.294,0,0,1,2.083-1.4,2.888,2.888,0,0,1,.826.105Zm5.669,7a4.889,4.889,0,0,1-3.542-1.305,4.507,4.507,0,0,1-1.354-3.4v-.246a5.84,5.84,0,0,1,.541-2.575,3.955,3.955,0,0,1,1.578-1.727,4.763,4.763,0,0,1,2.461-.611,4.117,4.117,0,0,1,3.164,1.244,4.887,4.887,0,0,1,1.16,3.467v1.151H203.01a2.135,2.135,0,0,0,.694,1.257,2.066,2.066,0,0,0,1.389.457,2.662,2.662,0,0,0,2.2-.984l1.354,1.6a3.784,3.784,0,0,1-1.569,1.217A5.3,5.3,0,0,1,204.891,19.176Zm-.334-7.576q-1.3,0-1.547,1.723H206v-.229a1.467,1.467,0,0,0-.36-1.1A1.434,1.434,0,0,0,204.557,11.6Zm10.512,4.729a.684.684,0,0,0-.4-.606,6.016,6.016,0,0,0-1.5-.475,6.853,6.853,0,0,1-1.828-.646,3.062,3.062,0,0,1-1.1-.971,2.319,2.319,0,0,1-.378-1.31,2.628,2.628,0,0,1,1.081-2.158,4.453,4.453,0,0,1,2.83-.848,4.934,4.934,0,0,1,3.023.853,2.666,2.666,0,0,1,1.143,2.241h-2.971q0-1.143-1.2-1.143a1.194,1.194,0,0,0-.782.259.8.8,0,0,0-.316.646.737.737,0,0,0,.387.642,3.654,3.654,0,0,0,1.235.4,10.671,10.671,0,0,1,1.49.378,2.706,2.706,0,0,1,2.145,2.646,2.491,2.491,0,0,1-1.156,2.118,5.068,5.068,0,0,1-2.993.817,5.172,5.172,0,0,1-2.18-.439,3.645,3.645,0,0,1-1.494-1.2,2.707,2.707,0,0,1-.536-1.591h2.769a1.145,1.145,0,0,0,.439.962,1.808,1.808,0,0,0,1.081.3,1.422,1.422,0,0,0,.91-.246A.787.787,0,0,0,215.068,16.328Zm6.082-.2a1.686,1.686,0,0,1,1.169.417,1.457,1.457,0,0,1,0,2.136,1.844,1.844,0,0,1-2.342,0,1.456,1.456,0,0,1,0-2.127A1.672,1.672,0,0,1,221.15,16.126Zm0-7.014a1.686,1.686,0,0,1,1.169.417,1.457,1.457,0,0,1,0,2.136,1.844,1.844,0,0,1-2.342,0,1.456,1.456,0,0,1,0-2.127A1.672,1.672,0,0,1,221.15,9.112ZM240.917,6.2,245.1,16.645,249.284,6.2h2.188V19h-1.687V14.017l.158-5.379L245.742,19H244.45L240.258,8.664l.167,5.353V19h-1.687V6.2Zm13.219,7.6a13.589,13.589,0,0,1,.532-3.814,11.081,11.081,0,0,1,1.586-3.322,6.749,6.749,0,0,1,2.188-2.109l.334,1.072a7,7,0,0,0-2.1,3.006,13.031,13.031,0,0,0-.9,4.526l-.009.747A13.1,13.1,0,0,0,257,19.8a7.033,7.033,0,0,0,1.775,2.338l-.334.993a6.966,6.966,0,0,1-2.232-2.18A12.217,12.217,0,0,1,254.136,13.806ZM270.439,19h-1.7V13.085h-6.451V19H260.6V6.2h1.688v5.5h6.451V6.2h1.7Zm15.407-5.106a13.6,13.6,0,0,1-.514,3.757,11.11,11.11,0,0,1-1.573,3.318,6.893,6.893,0,0,1-2.219,2.162l-.343-.993a7.066,7.066,0,0,0,2.175-3.221,13.935,13.935,0,0,0,.839-4.847v-.281a14.469,14.469,0,0,0-.387-3.432,11.583,11.583,0,0,0-1.077-2.843,6.567,6.567,0,0,0-1.551-1.96l.343-.993A6.866,6.866,0,0,1,283.75,6.7a11.134,11.134,0,0,1,1.573,3.313A13.909,13.909,0,0,1,285.847,13.894Zm14.4-2.048h-7.33V10.431h7.33Zm0,3.647h-7.33V14.087h7.33ZM315.36,19h-8.385V17.831l4.43-4.922a10.524,10.524,0,0,0,1.358-1.815,3.029,3.029,0,0,0,.374-1.446A2.3,2.3,0,0,0,312.53,8a2.12,2.12,0,0,0-1.617-.642,2.511,2.511,0,0,0-1.885.69,2.635,2.635,0,0,0-.672,1.92h-1.626a3.774,3.774,0,0,1,1.138-2.856,4.219,4.219,0,0,1,3.045-1.09,4.054,4.054,0,0,1,2.821.936,3.193,3.193,0,0,1,1.037,2.492q0,1.89-2.408,4.5l-3.428,3.718h6.425Zm9-4.4-1.02,1.063V19h-1.626V5.5h1.626v8.165l.87-1.046,2.962-3.129h1.978l-3.7,3.973L329.581,19h-1.907Zm6.082-.431a5.589,5.589,0,0,1,1.028-3.538,3.545,3.545,0,0,1,5.44-.083l.079-1.055h1.485v9.281a3.869,3.869,0,0,1-1.094,2.909,4.038,4.038,0,0,1-2.94,1.063,4.891,4.891,0,0,1-2.013-.439,3.465,3.465,0,0,1-1.5-1.2l.844-.976a3.18,3.18,0,0,0,2.558,1.292,2.491,2.491,0,0,0,1.85-.668,2.553,2.553,0,0,0,.664-1.881v-.817a3.342,3.342,0,0,1-2.663,1.125,3.248,3.248,0,0,1-2.7-1.345A5.876,5.876,0,0,1,330.442,14.166Zm1.635.185a4.264,4.264,0,0,0,.659,2.527,2.142,2.142,0,0,0,1.846.918,2.382,2.382,0,0,0,2.259-1.4V12.057a2.41,2.41,0,0,0-2.241-1.362,2.161,2.161,0,0,0-1.854.923A4.644,4.644,0,0,0,332.077,14.351Zm9.176,5.748h-1.4L345.2,6.2h1.389ZM351,14.6l-1.02,1.063V19h-1.626V5.5h1.626v8.165l.87-1.046,2.962-3.129h1.978l-3.7,3.973L356.221,19h-1.907Zm8-5.106.044,1.055a3.512,3.512,0,0,1,2.821-1.23,2.719,2.719,0,0,1,2.716,1.529,3.6,3.6,0,0,1,1.235-1.107,3.647,3.647,0,0,1,1.8-.422q3.129,0,3.182,3.313V19h-1.626V12.725A2.184,2.184,0,0,0,368.7,11.2a2.051,2.051,0,0,0-1.564-.505,2.156,2.156,0,0,0-1.5.541,2.193,2.193,0,0,0-.694,1.455V19H363.3V12.769a1.814,1.814,0,0,0-2.03-2.074,2.175,2.175,0,0,0-2.188,1.362V19H357.46V9.49Zm13.816,4.667a5.617,5.617,0,0,1,.549-2.514,4.1,4.1,0,0,1,1.529-1.723,4.163,4.163,0,0,1,2.237-.606,4.01,4.01,0,0,1,3.142,1.345,5.174,5.174,0,0,1,1.2,3.577v.114a5.666,5.666,0,0,1-.532,2.492,4.038,4.038,0,0,1-1.521,1.718,4.211,4.211,0,0,1-2.272.615,4,4,0,0,1-3.133-1.345,5.147,5.147,0,0,1-1.2-3.56Zm1.635.193a4.068,4.068,0,0,0,.734,2.54,2.487,2.487,0,0,0,3.933-.013,4.449,4.449,0,0,0,.729-2.72,4.061,4.061,0,0,0-.743-2.536,2.361,2.361,0,0,0-1.973-.971,2.335,2.335,0,0,0-1.942.958A4.416,4.416,0,0,0,374.449,14.351ZM385.277,19h-1.626V5.5h1.626Zm2.549-.853a1.018,1.018,0,0,1,.25-.7.954.954,0,0,1,.751-.281.983.983,0,0,1,.76.281,1,1,0,0,1,.259.7.944.944,0,0,1-.259.677,1,1,0,0,1-.76.272.9.9,0,0,1-1-.949Zm.009-7.761a1.018,1.018,0,0,1,.25-.7.954.954,0,0,1,.751-.281.983.983,0,0,1,.76.281,1,1,0,0,1,.259.7.944.944,0,0,1-.259.677,1,1,0,0,1-.76.272.9.9,0,0,1-1-.949ZM399.129,6.2l4.184,10.441L407.5,6.2h2.188V19H408V14.017l.158-5.379L403.954,19h-1.292L398.47,8.664l.167,5.353V19h-1.687V6.2Zm17.675,7.6a13.589,13.589,0,0,1,.532-3.814,11.081,11.081,0,0,1,1.586-3.322A6.749,6.749,0,0,1,421.11,4.56l.334,1.072a7,7,0,0,0-2.1,3.006,13.031,13.031,0,0,0-.9,4.526l-.009.747a13.1,13.1,0,0,0,1.239,5.889,7.033,7.033,0,0,0,1.775,2.338l-.334.993a6.966,6.966,0,0,1-2.232-2.18A12.217,12.217,0,0,1,416.8,13.806Zm16.313-.791a7.916,7.916,0,0,1-.633,3.283,4.793,4.793,0,0,1-1.793,2.14,4.948,4.948,0,0,1-7.2-2.123,7.6,7.6,0,0,1-.664-3.186v-.923a7.822,7.822,0,0,1,.642-3.261,4.745,4.745,0,0,1,4.5-2.918,4.961,4.961,0,0,1,2.711.743,4.784,4.784,0,0,1,1.806,2.153,7.955,7.955,0,0,1,.633,3.283Zm-1.679-.826a5.738,5.738,0,0,0-.914-3.494,3.015,3.015,0,0,0-2.558-1.217,2.982,2.982,0,0,0-2.518,1.217,5.62,5.62,0,0,0-.945,3.379v.94a5.746,5.746,0,0,0,.927,3.467,3.249,3.249,0,0,0,5.084.07,5.714,5.714,0,0,0,.923-3.415ZM443.6,13.894a13.6,13.6,0,0,1-.514,3.757,11.11,11.11,0,0,1-1.573,3.318,6.893,6.893,0,0,1-2.219,2.162l-.343-.993a7.066,7.066,0,0,0,2.175-3.221,13.935,13.935,0,0,0,.839-4.847v-.281a14.469,14.469,0,0,0-.387-3.432A11.583,11.583,0,0,0,440.5,7.513a6.567,6.567,0,0,0-1.551-1.96l.343-.993a6.866,6.866,0,0,1,2.21,2.145,11.134,11.134,0,0,1,1.573,3.313A13.909,13.909,0,0,1,443.6,13.894ZM458,11.846h-7.33V10.431H458Zm0,3.647h-7.33V14.087H458Zm9.1-3.683h1.222a2.685,2.685,0,0,0,1.811-.606,2.026,2.026,0,0,0,.659-1.591,1.985,1.985,0,0,0-2.241-2.25,2.331,2.331,0,0,0-1.683.6,2.107,2.107,0,0,0-.628,1.6h-1.626a3.264,3.264,0,0,1,1.112-2.527,4.05,4.05,0,0,1,2.826-1.006,4,4,0,0,1,2.839.958,3.461,3.461,0,0,1,1.028,2.663,2.809,2.809,0,0,1-.541,1.617,3.264,3.264,0,0,1-1.472,1.169,3.145,3.145,0,0,1,1.63,1.107,3.076,3.076,0,0,1,.576,1.89,3.491,3.491,0,0,1-1.125,2.733,4.213,4.213,0,0,1-2.927,1.011,4.324,4.324,0,0,1-2.931-.976,3.236,3.236,0,0,1-1.129-2.575h1.635a2.092,2.092,0,0,0,.659,1.617,2.507,2.507,0,0,0,1.767.606,2.46,2.46,0,0,0,1.8-.615,2.371,2.371,0,0,0,.624-1.767,2.151,2.151,0,0,0-.686-1.714,2.987,2.987,0,0,0-1.978-.615h-1.222ZM483.223,19h-8.385V17.831l4.43-4.922a10.524,10.524,0,0,0,1.358-1.815A3.029,3.029,0,0,0,481,9.648,2.3,2.3,0,0,0,480.393,8a2.12,2.12,0,0,0-1.617-.642,2.511,2.511,0,0,0-1.885.69,2.635,2.635,0,0,0-.672,1.92h-1.626a3.774,3.774,0,0,1,1.138-2.856,4.219,4.219,0,0,1,3.045-1.09,4.054,4.054,0,0,1,2.821.936,3.193,3.193,0,0,1,1.037,2.492q0,1.89-2.408,4.5L476.8,17.673h6.425Zm9-4.4L491.2,15.66V19h-1.626V5.5H491.2v8.165l.87-1.046,2.962-3.129h1.978l-3.7,3.973L497.443,19h-1.907Zm6.082-.431a5.589,5.589,0,0,1,1.028-3.538,3.545,3.545,0,0,1,5.44-.083l.079-1.055h1.485v9.281a3.869,3.869,0,0,1-1.094,2.909,4.038,4.038,0,0,1-2.94,1.063,4.891,4.891,0,0,1-2.013-.439,3.465,3.465,0,0,1-1.5-1.2l.844-.976a3.18,3.18,0,0,0,2.558,1.292,2.491,2.491,0,0,0,1.85-.668,2.553,2.553,0,0,0,.664-1.881v-.817a3.342,3.342,0,0,1-2.663,1.125,3.248,3.248,0,0,1-2.7-1.345A5.876,5.876,0,0,1,498.3,14.166Zm1.635.185a4.264,4.264,0,0,0,.659,2.527,2.142,2.142,0,0,0,1.846.918,2.382,2.382,0,0,0,2.259-1.4V12.057a2.41,2.41,0,0,0-2.241-1.362,2.161,2.161,0,0,0-1.854.923A4.644,4.644,0,0,0,499.939,14.351ZM513.571,20.1h-1.4l5.344-13.9h1.389Zm10.6-7.049-1.564,1.626V19h-1.687V6.2h1.688v6.328L528.293,6.2h2.039L525.3,11.854,530.728,19h-2.021Zm9.308-3.56.044,1.055a3.512,3.512,0,0,1,2.821-1.23,2.719,2.719,0,0,1,2.716,1.529,3.6,3.6,0,0,1,1.235-1.107,3.647,3.647,0,0,1,1.8-.422q3.129,0,3.182,3.313V19h-1.626V12.725a2.184,2.184,0,0,0-.466-1.525,2.051,2.051,0,0,0-1.564-.505,2.156,2.156,0,0,0-1.5.541,2.193,2.193,0,0,0-.694,1.455V19h-1.635V12.769a1.814,1.814,0,0,0-2.03-2.074,2.175,2.175,0,0,0-2.188,1.362V19H531.94V9.49Zm13.816,4.667a5.617,5.617,0,0,1,.549-2.514,4.1,4.1,0,0,1,1.529-1.723,4.163,4.163,0,0,1,2.237-.606,4.01,4.01,0,0,1,3.142,1.345,5.174,5.174,0,0,1,1.2,3.577v.114a5.666,5.666,0,0,1-.532,2.492,4.038,4.038,0,0,1-1.521,1.718,4.211,4.211,0,0,1-2.272.615,4,4,0,0,1-3.133-1.345,5.147,5.147,0,0,1-1.2-3.56Zm1.635.193a4.068,4.068,0,0,0,.734,2.54,2.487,2.487,0,0,0,3.933-.013,4.449,4.449,0,0,0,.729-2.72,4.061,4.061,0,0,0-.743-2.536,2.361,2.361,0,0,0-1.973-.971,2.335,2.335,0,0,0-1.942.958A4.416,4.416,0,0,0,548.93,14.351ZM559.758,19h-1.626V5.5h1.626Zm2.549-.853a1.018,1.018,0,0,1,.25-.7.954.954,0,0,1,.751-.281.983.983,0,0,1,.76.281,1,1,0,0,1,.259.7.944.944,0,0,1-.259.677,1,1,0,0,1-.76.272.9.9,0,0,1-1-.949Zm.009-7.761a1.018,1.018,0,0,1,.25-.7.954.954,0,0,1,.751-.281.983.983,0,0,1,.76.281,1,1,0,0,1,.259.7.944.944,0,0,1-.259.677,1,1,0,0,1-.76.272.9.9,0,0,1-1-.949ZM573.609,6.2l4.184,10.441L581.977,6.2h2.188V19h-1.687V14.017l.158-5.379L578.435,19h-1.292L572.95,8.664l.167,5.353V19H571.43V6.2Zm13.219,7.6a13.589,13.589,0,0,1,.532-3.814,11.081,11.081,0,0,1,1.586-3.322,6.749,6.749,0,0,1,2.188-2.109l.334,1.072a7,7,0,0,0-2.1,3.006,13.031,13.031,0,0,0-.9,4.526l-.009.747a13.1,13.1,0,0,0,1.239,5.889,7.033,7.033,0,0,0,1.775,2.338l-.334.993a6.966,6.966,0,0,1-2.232-2.18A12.217,12.217,0,0,1,586.828,13.806ZM603.132,19h-1.7V13.085h-6.451V19H593.3V6.2h1.688v5.5h6.451V6.2h1.7Zm15.056-5.458a7.436,7.436,0,0,1-.976,4.245,4.054,4.054,0,0,1-6.082.031,7.058,7.058,0,0,1-1.02-4.056V11.591a7.271,7.271,0,0,1,.976-4.192,4.127,4.127,0,0,1,6.1-.048,7.017,7.017,0,0,1,1,4.083Zm-1.626-2.224a5.958,5.958,0,0,0-.58-3.01,2,2,0,0,0-1.837-.945,1.97,1.97,0,0,0-1.819.94,5.817,5.817,0,0,0-.589,2.892v2.6a6.053,6.053,0,0,0,.6,3.063,1.993,1.993,0,0,0,1.824.989,1.966,1.966,0,0,0,1.789-.932,5.834,5.834,0,0,0,.611-2.936Zm7.629,2.575a13.6,13.6,0,0,1-.514,3.757,11.11,11.11,0,0,1-1.573,3.318,6.893,6.893,0,0,1-2.219,2.162l-.343-.993a7.066,7.066,0,0,0,2.175-3.221,13.935,13.935,0,0,0,.839-4.847v-.281a14.469,14.469,0,0,0-.387-3.432,11.583,11.583,0,0,0-1.077-2.843,6.567,6.567,0,0,0-1.551-1.96l.343-.993a6.866,6.866,0,0,1,2.21,2.145,11.134,11.134,0,0,1,1.573,3.313A13.909,13.909,0,0,1,624.19,13.894Zm14.4-2.048h-7.33V10.431h7.33Zm0,3.647h-7.33V14.087h7.33ZM650.663,19h-1.635V8.163l-3.278,1.2V7.891l4.658-1.749h.255Zm12.524-9.457a2.972,2.972,0,0,1-.505,1.705,3.439,3.439,0,0,1-1.367,1.169,3.668,3.668,0,0,1,1.586,1.257,3.163,3.163,0,0,1,.584,1.872,3.344,3.344,0,0,1-1.121,2.646,4.913,4.913,0,0,1-5.906,0,3.36,3.36,0,0,1-1.112-2.641,3.257,3.257,0,0,1,.567-1.872,3.528,3.528,0,0,1,1.569-1.266,3.354,3.354,0,0,1-1.345-1.169,3.014,3.014,0,0,1-.492-1.7,3.308,3.308,0,0,1,1.037-2.566,4.4,4.4,0,0,1,5.462,0A3.3,3.3,0,0,1,663.188,9.543Zm-1.327,5.968a2.359,2.359,0,0,0-.681-1.749,2.416,2.416,0,0,0-1.78-.677,2.288,2.288,0,0,0-2.426,2.426,2.271,2.271,0,0,0,.646,1.714,2.886,2.886,0,0,0,3.59,0A2.266,2.266,0,0,0,661.86,15.511Zm-2.443-8.147a2.1,2.1,0,0,0-1.551.593,2.179,2.179,0,0,0-.593,1.613,2.169,2.169,0,0,0,.584,1.578,2.322,2.322,0,0,0,3.12,0,2.169,2.169,0,0,0,.584-1.578,2.17,2.17,0,0,0-.606-1.591A2.068,2.068,0,0,0,659.417,7.363ZM672.812,14.6l-1.02,1.063V19h-1.626V5.5h1.626v8.165l.87-1.046,2.962-3.129H677.6l-3.7,3.973L678.032,19h-1.907Zm6.082-.431a5.589,5.589,0,0,1,1.028-3.538,3.545,3.545,0,0,1,5.44-.083l.079-1.055h1.485v9.281a3.869,3.869,0,0,1-1.094,2.909,4.038,4.038,0,0,1-2.94,1.063,4.891,4.891,0,0,1-2.013-.439,3.465,3.465,0,0,1-1.5-1.2l.844-.976a3.18,3.18,0,0,0,2.558,1.292,2.491,2.491,0,0,0,1.85-.668,2.553,2.553,0,0,0,.664-1.881v-.817a3.342,3.342,0,0,1-2.663,1.125,3.248,3.248,0,0,1-2.7-1.345A5.876,5.876,0,0,1,678.894,14.166Zm1.635.185a4.264,4.264,0,0,0,.659,2.527,2.142,2.142,0,0,0,1.846.918,2.382,2.382,0,0,0,2.259-1.4V12.057a2.41,2.41,0,0,0-2.241-1.362,2.161,2.161,0,0,0-1.854.923A4.644,4.644,0,0,0,680.528,14.351ZM689.7,20.1h-1.4L693.65,6.2h1.389Zm10.6-7.049-1.564,1.626V19h-1.687V6.2h1.688v6.328L704.426,6.2h2.039l-5.036,5.651L706.86,19h-2.021Zm9.308-3.56.044,1.055a3.512,3.512,0,0,1,2.821-1.23,2.719,2.719,0,0,1,2.716,1.529,3.6,3.6,0,0,1,1.235-1.107,3.647,3.647,0,0,1,1.8-.422q3.129,0,3.182,3.313V19H719.78V12.725a2.184,2.184,0,0,0-.466-1.525,2.051,2.051,0,0,0-1.564-.505,2.156,2.156,0,0,0-1.5.541,2.193,2.193,0,0,0-.694,1.455V19h-1.635V12.769a1.814,1.814,0,0,0-2.03-2.074,2.175,2.175,0,0,0-2.188,1.362V19h-1.626V9.49Zm13.816,4.667a5.617,5.617,0,0,1,.549-2.514,4.1,4.1,0,0,1,1.529-1.723,4.163,4.163,0,0,1,2.237-.606,4.01,4.01,0,0,1,3.142,1.345,5.174,5.174,0,0,1,1.2,3.577v.114a5.666,5.666,0,0,1-.532,2.492,4.038,4.038,0,0,1-1.521,1.718,4.211,4.211,0,0,1-2.272.615,4,4,0,0,1-3.133-1.345,5.147,5.147,0,0,1-1.2-3.56Zm1.635.193a4.068,4.068,0,0,0,.734,2.54,2.487,2.487,0,0,0,3.933-.013,4.449,4.449,0,0,0,.729-2.72,4.061,4.061,0,0,0-.743-2.536,2.361,2.361,0,0,0-1.973-.971,2.335,2.335,0,0,0-1.942.958A4.416,4.416,0,0,0,725.063,14.351ZM735.891,19h-1.626V5.5h1.626Z" transform="translate(423 9849)" fill="#12263f"/>
    <path id="Trazado_725464" data-name="Trazado 725464" d="M5.356,10H.483V9.033l2.3-2.451a5.674,5.674,0,0,0,.7-.9,1.451,1.451,0,0,0,.227-.732A1.086,1.086,0,0,0,3.472,4.2a.864.864,0,0,0-.684-.271.931.931,0,0,0-.754.33,1.306,1.306,0,0,0-.276.867H.342A2.331,2.331,0,0,1,.652,3.94,2.185,2.185,0,0,1,1.528,3.1a2.664,2.664,0,0,1,1.284-.305,2.522,2.522,0,0,1,1.707.527A1.866,1.866,0,0,1,5.127,4.81a2.39,2.39,0,0,1-.273,1.074,5.97,5.97,0,0,1-.937,1.274L2.3,8.862H5.356Z" transform="translate(696 9858)" fill="#12263f"/>
    <path id="Trazado_725465" data-name="Trazado 725465" d="M5.356,10H.483V9.033l2.3-2.451a5.674,5.674,0,0,0,.7-.9,1.451,1.451,0,0,0,.227-.732A1.086,1.086,0,0,0,3.472,4.2a.864.864,0,0,0-.684-.271.931.931,0,0,0-.754.33,1.306,1.306,0,0,0-.276.867H.342A2.331,2.331,0,0,1,.652,3.94,2.185,2.185,0,0,1,1.528,3.1a2.664,2.664,0,0,1,1.284-.305,2.522,2.522,0,0,1,1.707.527A1.866,1.866,0,0,1,5.127,4.81a2.39,2.39,0,0,1-.273,1.074,5.97,5.97,0,0,1-.937,1.274L2.3,8.862H5.356Z" transform="translate(857 9858)" fill="#12263f"/>
    <path id="Trazado_725466" data-name="Trazado 725466" d="M5.356,10H.483V9.033l2.3-2.451a5.674,5.674,0,0,0,.7-.9,1.451,1.451,0,0,0,.227-.732A1.086,1.086,0,0,0,3.472,4.2a.864.864,0,0,0-.684-.271.931.931,0,0,0-.754.33,1.306,1.306,0,0,0-.276.867H.342A2.331,2.331,0,0,1,.652,3.94,2.185,2.185,0,0,1,1.528,3.1a2.664,2.664,0,0,1,1.284-.305,2.522,2.522,0,0,1,1.707.527A1.866,1.866,0,0,1,5.127,4.81a2.39,2.39,0,0,1-.273,1.074,5.97,5.97,0,0,1-.937,1.274L2.3,8.862H5.356Z" transform="translate(1027 9859)" fill="#12263f"/>
    <path id="Trazado_725467" data-name="Trazado 725467" d="M8.4,17H.945V15.961l3.938-4.375A9.355,9.355,0,0,0,6.09,9.973a2.693,2.693,0,0,0,.332-1.285,2.041,2.041,0,0,0-.539-1.461,1.885,1.885,0,0,0-1.437-.57A2.232,2.232,0,0,0,2.77,7.27a2.343,2.343,0,0,0-.6,1.707H.727A3.355,3.355,0,0,1,1.738,6.438a3.751,3.751,0,0,1,2.707-.969A3.6,3.6,0,0,1,6.953,6.3a2.838,2.838,0,0,1,.922,2.215q0,1.68-2.141,4l-3.047,3.3H8.4Zm4.039-3.914-.906.945V17H10.086V5h1.445v7.258l.773-.93,2.633-2.781H16.7l-3.289,3.531L17.078,17h-1.7Zm5.406-.383a4.968,4.968,0,0,1,.914-3.145A2.923,2.923,0,0,1,21.18,8.391a2.908,2.908,0,0,1,2.414,1.094l.07-.937h1.32V16.8a3.439,3.439,0,0,1-.973,2.586,3.589,3.589,0,0,1-2.613.945,4.348,4.348,0,0,1-1.789-.391,3.08,3.08,0,0,1-1.336-1.07l.75-.867A2.826,2.826,0,0,0,21.3,19.148a2.214,2.214,0,0,0,1.645-.594,2.269,2.269,0,0,0,.59-1.672v-.727a2.971,2.971,0,0,1-2.367,1,2.887,2.887,0,0,1-2.4-1.2A5.224,5.224,0,0,1,17.844,12.7Zm1.453.164a3.79,3.79,0,0,0,.586,2.246,1.9,1.9,0,0,0,1.641.816,2.117,2.117,0,0,0,2.008-1.242V10.828a2.142,2.142,0,0,0-1.992-1.211,1.921,1.921,0,0,0-1.648.82A4.128,4.128,0,0,0,19.3,12.867ZM40.094,17H38.586V11.742H32.852V17h-1.5V5.625h1.5v4.891h5.734V5.625h1.508Zm14.5-6.1h3.172v1.367H54.594v3.594H53.141V12.266H49.969V10.9h3.172V7.578h1.453ZM68.086,17H66.633V7.367l-2.914,1.07V7.125L67.859,5.57h.227ZM77.992,5.617V6.844h-.266a3.805,3.805,0,0,0-2.687,1,4.161,4.161,0,0,0-1.156,2.727,3.085,3.085,0,0,1,2.453-1.031,2.95,2.95,0,0,1,2.371,1.047,4.038,4.038,0,0,1,.887,2.7,4.025,4.025,0,0,1-.957,2.813,3.3,3.3,0,0,1-2.566,1.055A3.247,3.247,0,0,1,73.422,15.9a4.97,4.97,0,0,1-1.016-3.23v-.555a7.488,7.488,0,0,1,1.34-4.8,4.921,4.921,0,0,1,3.988-1.7Zm-1.9,5.125A2.429,2.429,0,0,0,73.859,12.3v.531a3.731,3.731,0,0,0,.633,2.266,1.9,1.9,0,0,0,1.578.859,1.838,1.838,0,0,0,1.535-.719,2.982,2.982,0,0,0,.559-1.883,2.983,2.983,0,0,0-.566-1.895A1.816,1.816,0,0,0,76.094,10.742Zm7.719,2.344-.906.945V17H81.461V5h1.445v7.258l.773-.93,2.633-2.781H88.07l-3.289,3.531L88.453,17h-1.7Zm5.406-.383a4.968,4.968,0,0,1,.914-3.145,3.151,3.151,0,0,1,4.836-.074l.07-.937h1.32V16.8a3.439,3.439,0,0,1-.973,2.586,3.589,3.589,0,0,1-2.613.945,4.348,4.348,0,0,1-1.789-.391,3.08,3.08,0,0,1-1.336-1.07L90.4,18a2.826,2.826,0,0,0,2.273,1.148,2.214,2.214,0,0,0,1.645-.594,2.269,2.269,0,0,0,.59-1.672v-.727a2.971,2.971,0,0,1-2.367,1,2.887,2.887,0,0,1-2.4-1.2A5.224,5.224,0,0,1,89.219,12.7Zm1.453.164a3.79,3.79,0,0,0,.586,2.246,1.9,1.9,0,0,0,1.641.816,2.117,2.117,0,0,0,2.008-1.242V10.828a2.142,2.142,0,0,0-1.992-1.211,1.921,1.921,0,0,0-1.648.82A4.128,4.128,0,0,0,90.672,12.867Zm20.8-1.187a7.037,7.037,0,0,1-.562,2.918,4.261,4.261,0,0,1-1.594,1.9,4.4,4.4,0,0,1-6.4-1.887,6.752,6.752,0,0,1-.59-2.832v-.82a6.953,6.953,0,0,1,.57-2.9,4.218,4.218,0,0,1,4-2.594,4.41,4.41,0,0,1,2.41.66,4.253,4.253,0,0,1,1.605,1.914,7.071,7.071,0,0,1,.563,2.918Zm-1.492-.734a5.1,5.1,0,0,0-.812-3.105A2.68,2.68,0,0,0,106.9,6.758,2.651,2.651,0,0,0,104.66,7.84a5,5,0,0,0-.84,3v.836a5.107,5.107,0,0,0,.824,3.082,2.888,2.888,0,0,0,4.52.063,5.079,5.079,0,0,0,.82-3.035Zm12.148.867h9.3l-.961-.937V9.719l2.5,2.594v.031l-2.5,2.594V13.781l.945-.922h-9.281ZM143.789,17h-1.453V7.367l-2.914,1.07V7.125l4.141-1.555h.227Zm11.133-8.406a2.641,2.641,0,0,1-.449,1.516,3.057,3.057,0,0,1-1.215,1.039,3.26,3.26,0,0,1,1.41,1.117,2.811,2.811,0,0,1,.52,1.664,2.972,2.972,0,0,1-1,2.352,4.367,4.367,0,0,1-5.25,0,2.986,2.986,0,0,1-.988-2.348,2.9,2.9,0,0,1,.5-1.664,3.136,3.136,0,0,1,1.395-1.125,2.981,2.981,0,0,1-1.2-1.039,2.679,2.679,0,0,1-.437-1.508,2.94,2.94,0,0,1,.922-2.281,3.915,3.915,0,0,1,4.855,0A2.934,2.934,0,0,1,154.922,8.594Zm-1.18,5.3a2.1,2.1,0,0,0-.605-1.555,2.147,2.147,0,0,0-1.582-.6A2.034,2.034,0,0,0,149.4,13.9a2.019,2.019,0,0,0,.574,1.523,2.565,2.565,0,0,0,3.191,0A2.014,2.014,0,0,0,153.742,13.9ZM151.57,6.656a1.865,1.865,0,0,0-1.379.527,1.937,1.937,0,0,0-.527,1.434,1.928,1.928,0,0,0,.52,1.4,2.064,2.064,0,0,0,2.773,0,1.928,1.928,0,0,0,.52-1.4,1.929,1.929,0,0,0-.539-1.414A1.839,1.839,0,0,0,151.57,6.656Zm11.906,6.43-.906.945V17h-1.445V5h1.445v7.258l.773-.93,2.633-2.781h1.758l-3.289,3.531L168.117,17h-1.7Zm5.406-.383a4.968,4.968,0,0,1,.914-3.145,3.151,3.151,0,0,1,4.836-.074l.07-.937h1.32V16.8a3.439,3.439,0,0,1-.973,2.586,3.589,3.589,0,0,1-2.613.945,4.348,4.348,0,0,1-1.789-.391,3.08,3.08,0,0,1-1.336-1.07l.75-.867a2.826,2.826,0,0,0,2.273,1.148,2.214,2.214,0,0,0,1.645-.594,2.269,2.269,0,0,0,.59-1.672v-.727a2.971,2.971,0,0,1-2.367,1,2.887,2.887,0,0,1-2.4-1.2A5.224,5.224,0,0,1,168.883,12.7Zm1.453.164a3.79,3.79,0,0,0,.586,2.246,1.9,1.9,0,0,0,1.641.816,2.117,2.117,0,0,0,2.008-1.242V10.828a2.142,2.142,0,0,0-1.992-1.211,1.921,1.921,0,0,0-1.648.82A4.128,4.128,0,0,0,170.336,12.867ZM191.133,17h-1.508V11.742h-5.734V17h-1.5V5.625h1.5v4.891h5.734V5.625h1.508Zm19.336-5.32a7.037,7.037,0,0,1-.562,2.918,4.261,4.261,0,0,1-1.594,1.9,4.4,4.4,0,0,1-6.4-1.887,6.752,6.752,0,0,1-.59-2.832v-.82a6.953,6.953,0,0,1,.57-2.9,4.218,4.218,0,0,1,4-2.594,4.41,4.41,0,0,1,2.41.66,4.253,4.253,0,0,1,1.605,1.914,7.071,7.071,0,0,1,.563,2.918Zm-1.492-.734a5.1,5.1,0,0,0-.812-3.105,2.68,2.68,0,0,0-2.273-1.082,2.651,2.651,0,0,0-2.238,1.082,5,5,0,0,0-.84,3v.836a5.107,5.107,0,0,0,.824,3.082,2.888,2.888,0,0,0,4.52.063,5.079,5.079,0,0,0,.82-3.035Z" transform="translate(657 9884)" fill="#12263f"/>
    <path id="Trazado_725468" data-name="Trazado 725468" d="M5.356,10H.483V9.033l2.3-2.451a5.674,5.674,0,0,0,.7-.9,1.451,1.451,0,0,0,.227-.732A1.086,1.086,0,0,0,3.472,4.2a.864.864,0,0,0-.684-.271.931.931,0,0,0-.754.33,1.306,1.306,0,0,0-.276.867H.342A2.331,2.331,0,0,1,.652,3.94,2.185,2.185,0,0,1,1.528,3.1a2.664,2.664,0,0,1,1.284-.305,2.522,2.522,0,0,1,1.707.527A1.866,1.866,0,0,1,5.127,4.81a2.39,2.39,0,0,1-.273,1.074,5.97,5.97,0,0,1-.937,1.274L2.3,8.862H5.356Z" transform="translate(698 9893)" fill="#12263f"/>
    <path id="Trazado_725469" data-name="Trazado 725469" d="M5.356,10H.483V9.033l2.3-2.451a5.674,5.674,0,0,0,.7-.9,1.451,1.451,0,0,0,.227-.732A1.086,1.086,0,0,0,3.472,4.2a.864.864,0,0,0-.684-.271.931.931,0,0,0-.754.33,1.306,1.306,0,0,0-.276.867H.342A2.331,2.331,0,0,1,.652,3.94,2.185,2.185,0,0,1,1.528,3.1a2.664,2.664,0,0,1,1.284-.305,2.522,2.522,0,0,1,1.707.527A1.866,1.866,0,0,1,5.127,4.81a2.39,2.39,0,0,1-.273,1.074,5.97,5.97,0,0,1-.937,1.274L2.3,8.862H5.356Z" transform="translate(770 9893)" fill="#12263f"/>
    <path id="Trazado_725470" data-name="Trazado 725470" d="M5.356,10H.483V9.033l2.3-2.451a5.674,5.674,0,0,0,.7-.9,1.451,1.451,0,0,0,.227-.732A1.086,1.086,0,0,0,3.472,4.2a.864.864,0,0,0-.684-.271.931.931,0,0,0-.754.33,1.306,1.306,0,0,0-.276.867H.342A2.331,2.331,0,0,1,.652,3.94,2.185,2.185,0,0,1,1.528,3.1a2.664,2.664,0,0,1,1.284-.305,2.522,2.522,0,0,1,1.707.527A1.866,1.866,0,0,1,5.127,4.81a2.39,2.39,0,0,1-.273,1.074,5.97,5.97,0,0,1-.937,1.274L2.3,8.862H5.356Z" transform="translate(850 9893)" fill="#12263f"/>
  </g>
</svg>
