<svg xmlns="http://www.w3.org/2000/svg" width="213.745" height="19.973" viewBox="0 0 213.745 19.973">
  <g id="Grupo_957985" data-name="Grupo 957985" transform="translate(-180.967 -10860.203)">
    <path id="Trazado_725359" data-name="Trazado 725359" d="M11.654,19H8.587L4.052,11.037V19H.967V6.2H4.052l4.526,7.963V6.2h3.076ZM45.7,11.74h3v2.54h-3v3.437H42.935V14.28H39.929V11.74h3.006V8.4H45.7ZM83.224,19H80.156V13.656H75.612V19H72.527V6.2h3.085v5.08h4.544V6.2h3.067Zm62.807-5.836h10.459l-1.081-1.055v-1.3l2.813,2.918v.035l-2.812,2.918v-1.3l1.063-1.037H146.03ZM189.114,19h-3.067l-4.535-7.963V19h-3.085V6.2h3.085l4.526,7.963V6.2h3.076Zm12.647,0h-3.067V13.656H194.15V19h-3.085V6.2h3.085v5.08h4.544V6.2h3.067Z" transform="translate(180 10854)" fill="#12263f"/>
    <path id="Trazado_725356" data-name="Trazado 725356" d="M9.712,17H.782V15.066L4.9,10.742A4.909,4.909,0,0,0,6.416,7.991a1.913,1.913,0,0,0-.36-1.257A1.287,1.287,0,0,0,5.01,6.3a1.3,1.3,0,0,0-1.1.576,2.366,2.366,0,0,0-.422,1.437H.519a4.2,4.2,0,0,1,.589-2.175,4.129,4.129,0,0,1,1.635-1.56A4.856,4.856,0,0,1,5.08,4.019a4.777,4.777,0,0,1,3.195.958A3.42,3.42,0,0,1,9.4,7.728,4,4,0,0,1,9.114,9.2a6.456,6.456,0,0,1-.875,1.5,22.029,22.029,0,0,1-1.912,2.1L4.676,14.715H9.712Z" transform="translate(196 10863)" fill="#12263f"/>
    <path id="Trazado_725357" data-name="Trazado 725357" d="M9.712,17H.782V15.066L4.9,10.742A4.909,4.909,0,0,0,6.416,7.991a1.913,1.913,0,0,0-.36-1.257A1.287,1.287,0,0,0,5.01,6.3a1.3,1.3,0,0,0-1.1.576,2.366,2.366,0,0,0-.422,1.437H.519a4.2,4.2,0,0,1,.589-2.175,4.129,4.129,0,0,1,1.635-1.56A4.856,4.856,0,0,1,5.08,4.019a4.777,4.777,0,0,1,3.195.958A3.42,3.42,0,0,1,9.4,7.728,4,4,0,0,1,9.114,9.2a6.456,6.456,0,0,1-.875,1.5,22.029,22.029,0,0,1-1.912,2.1L4.676,14.715H9.712Z" transform="translate(266 10863)" fill="#12263f"/>
    <path id="Trazado_725358" data-name="Trazado 725358" d="M3.489,9.362h1.4A1.453,1.453,0,0,0,6.548,7.736a1.406,1.406,0,0,0-.4-1.033,1.5,1.5,0,0,0-1.116-.4,1.606,1.606,0,0,0-1.024.343,1.046,1.046,0,0,0-.435.853H.615a3.032,3.032,0,0,1,.563-1.8,3.715,3.715,0,0,1,1.56-1.235,5.334,5.334,0,0,1,2.193-.444,5.241,5.241,0,0,1,3.357.976A3.243,3.243,0,0,1,9.51,7.675,2.7,2.7,0,0,1,9,9.235a3.6,3.6,0,0,1-1.472,1.191,3.441,3.441,0,0,1,1.6,1.121,2.951,2.951,0,0,1,.58,1.859,3.3,3.3,0,0,1-1.318,2.742,5.472,5.472,0,0,1-3.463,1.028A5.675,5.675,0,0,1,2.6,16.7,3.656,3.656,0,0,1,.967,15.37,3.45,3.45,0,0,1,.413,13.44H3.393a1.334,1.334,0,0,0,.475,1.02,1.676,1.676,0,0,0,1.169.431,1.755,1.755,0,0,0,1.248-.435,1.454,1.454,0,0,0,.466-1.112,1.7,1.7,0,0,0-.483-1.371,2.021,2.021,0,0,0-1.336-.4H3.489Z" transform="translate(385 10863)" fill="#12263f"/>
  </g>
</svg>
