<svg xmlns="http://www.w3.org/2000/svg" width="440" height="58" viewBox="0 0 440 58">
  <g id="Grupo_958022" data-name="Grupo 958022" transform="translate(-953 -13934)">
    <path id="Trazado_726366" data-name="Trazado 726366" d="M20,0H420a20,20,0,0,1,20,20V38a20,20,0,0,1-20,20H20A20,20,0,0,1,0,38V20A20,20,0,0,1,20,0Z" transform="translate(953 13934)" fill="#badc61"/>
    <path id="Trazado_726367" data-name="Trazado 726367" d="M-183.939,0h-7.8V-1.547l3.68-3.922a9.078,9.078,0,0,0,1.121-1.445,2.322,2.322,0,0,0,.363-1.172,1.738,1.738,0,0,0-.383-1.191,1.382,1.382,0,0,0-1.094-.434,1.49,1.49,0,0,0-1.207.527A2.089,2.089,0,0,0-189.7-7.8h-2.266a3.729,3.729,0,0,1,.5-1.9,3.5,3.5,0,0,1,1.4-1.348,4.262,4.262,0,0,1,2.055-.488,4.036,4.036,0,0,1,2.73.844,2.985,2.985,0,0,1,.973,2.383,3.825,3.825,0,0,1-.437,1.719,9.552,9.552,0,0,1-1.5,2.039L-188.83-1.82h4.891Zm10.555-3.789A4.025,4.025,0,0,1-174.74-.9,4.76,4.76,0,0,1-177.963.156,4.281,4.281,0,0,1-181.4-1.316a6.038,6.038,0,0,1-1.254-4.043v-.7a6.819,6.819,0,0,1,.578-2.891,4.332,4.332,0,0,1,1.652-1.918,4.629,4.629,0,0,1,2.5-.668,4.637,4.637,0,0,1,3.172,1.055,4.326,4.326,0,0,1,1.391,2.961h-2.344a2.376,2.376,0,0,0-.613-1.6,2.271,2.271,0,0,0-1.605-.5,1.991,1.991,0,0,0-1.754.84,4.707,4.707,0,0,0-.6,2.605V-5.3a5.038,5.038,0,0,0,.559,2.7,1.954,1.954,0,0,0,1.762.852,2.314,2.314,0,0,0,1.621-.5,2.241,2.241,0,0,0,.613-1.535Zm4.547,2.086V-.619h-.128a2.237,2.237,0,0,0-1.438.465,1.889,1.889,0,0,0-.654,1.253,1.794,1.794,0,0,1,1.335-.538,1.69,1.69,0,0,1,1.376.62,2.484,2.484,0,0,1,.51,1.631,2.444,2.444,0,0,1-.28,1.171,2.01,2.01,0,0,1-.793.816,2.3,2.3,0,0,1-1.16.292,2.152,2.152,0,0,1-1.693-.729,2.83,2.83,0,0,1-.645-1.946V1.942A4.259,4.259,0,0,1-172,.035a2.991,2.991,0,0,1,1.171-1.281,3.432,3.432,0,0,1,1.77-.458Zm-1.285,3.327a1.052,1.052,0,0,0-.579.166,1,1,0,0,0-.383.439v.4a1.773,1.773,0,0,0,.26,1.03.839.839,0,0,0,.729.371.83.83,0,0,0,.686-.334,1.363,1.363,0,0,0,.262-.866,1.361,1.361,0,0,0-.264-.873A.861.861,0,0,0-170.122,1.623ZM-153.249,0h-2.344V-4.875h-4.57V0h-2.344V-11.375h2.344v4.609h4.57v-4.609h2.344Zm4.681,5h-1.317V-.077l-1.572.488V-.66l2.748-.984h.141Zm6.7,0h-4.548V4.1l2.146-2.288a5.3,5.3,0,0,0,.654-.843A1.354,1.354,0,0,0-143.4.283a1.013,1.013,0,0,0-.223-.695.806.806,0,0,0-.638-.253.869.869,0,0,0-.7.308,1.218,1.218,0,0,0-.257.809h-1.322a2.175,2.175,0,0,1,.289-1.107,2.04,2.04,0,0,1,.818-.786,2.486,2.486,0,0,1,1.2-.285,2.354,2.354,0,0,1,1.593.492,1.741,1.741,0,0,1,.567,1.39,2.231,2.231,0,0,1-.255,1,5.572,5.572,0,0,1-.875,1.189l-1.508,1.59h2.853Zm5.309-9.625a11.99,11.99,0,0,1,.477-3.406,8.989,8.989,0,0,1,1.406-2.863,5.251,5.251,0,0,1,2.016-1.73l.438,1.219A5.438,5.438,0,0,0-134-8.8a12.082,12.082,0,0,0-.641,4.125v.242a12.313,12.313,0,0,0,.633,4.141,5.544,5.544,0,0,0,1.789,2.648l-.437,1.2a5.253,5.253,0,0,1-1.98-1.684,8.838,8.838,0,0,1-1.4-2.785,11.918,11.918,0,0,1-.516-3.3Zm7.9,4.625h-2.266V-12h2.266Zm5.75-4.445a11.377,11.377,0,0,1-.508,3.4,9.225,9.225,0,0,1-1.461,2.883,5.263,5.263,0,0,1-2.039,1.719l-.437-1.2A5.494,5.494,0,0,0-125.6-.219a11.939,11.939,0,0,0,.664-4.008v-.414a12.209,12.209,0,0,0-.637-4.117,5.727,5.727,0,0,0-1.777-2.672l.438-1.2a5.265,5.265,0,0,1,2,1.672,9.106,9.106,0,0,1,1.461,2.82,11.3,11.3,0,0,1,.543,3.336Zm10.289-1.922h2.82v2.039h-2.82v3.188h-2.148V-4.328h-2.828V-6.367h2.828V-9.422h2.148Zm8.406.773.656-5.781h6.375v1.883H-101.7l-.281,2.445a3.58,3.58,0,0,1,1.711-.43,3.279,3.279,0,0,1,2.547,1.008,4.026,4.026,0,0,1,.922,2.82,4.124,4.124,0,0,1-.465,1.973A3.281,3.281,0,0,1-98.6-.324a4.158,4.158,0,0,1-2.047.48,4.416,4.416,0,0,1-1.914-.418,3.4,3.4,0,0,1-1.395-1.176,3.2,3.2,0,0,1-.543-1.727h2.234a1.669,1.669,0,0,0,.5,1.105,1.573,1.573,0,0,0,1.113.395,1.388,1.388,0,0,0,1.18-.551,2.551,2.551,0,0,0,.414-1.559,2.11,2.11,0,0,0-.477-1.484,1.749,1.749,0,0,0-1.352-.516,1.954,1.954,0,0,0-1.3.422l-.219.2Zm18.43.164a6.867,6.867,0,0,1-.594,2.945,4.472,4.472,0,0,1-1.7,1.953A4.7,4.7,0,0,1-90.61.156a4.732,4.732,0,0,1-2.523-.68,4.515,4.515,0,0,1-1.719-1.941,6.67,6.67,0,0,1-.617-2.9V-5.93a6.831,6.831,0,0,1,.605-2.957,4.508,4.508,0,0,1,1.711-1.961,4.706,4.706,0,0,1,2.527-.684,4.706,4.706,0,0,1,2.527.684,4.508,4.508,0,0,1,1.711,1.961,6.811,6.811,0,0,1,.605,2.949Zm-2.375-.516A4.787,4.787,0,0,0-88.8-8.664a2.088,2.088,0,0,0-1.828-.93,2.088,2.088,0,0,0-1.82.918,4.732,4.732,0,0,0-.648,2.691v.555a4.847,4.847,0,0,0,.641,2.7,2.082,2.082,0,0,0,1.844.961A2.064,2.064,0,0,0-88.8-2.691a4.819,4.819,0,0,0,.641-2.7ZM-80.1,5h-4.548V4.1L-82.5,1.81a5.3,5.3,0,0,0,.654-.843,1.354,1.354,0,0,0,.212-.684,1.014,1.014,0,0,0-.223-.695.806.806,0,0,0-.638-.253.869.869,0,0,0-.7.308,1.218,1.218,0,0,0-.257.809h-1.322a2.175,2.175,0,0,1,.289-1.107,2.04,2.04,0,0,1,.818-.786,2.486,2.486,0,0,1,1.2-.285,2.354,2.354,0,0,1,1.593.492,1.741,1.741,0,0,1,.567,1.39,2.231,2.231,0,0,1-.255,1,5.571,5.571,0,0,1-.875,1.189l-1.508,1.59H-80.1ZM-70.8-4.625a11.99,11.99,0,0,1,.477-3.406,8.989,8.989,0,0,1,1.406-2.863,5.251,5.251,0,0,1,2.016-1.73l.438,1.219A5.438,5.438,0,0,0-68.248-8.8a12.082,12.082,0,0,0-.641,4.125v.242a12.313,12.313,0,0,0,.633,4.141,5.544,5.544,0,0,0,1.789,2.648l-.437,1.2a5.253,5.253,0,0,1-1.98-1.684,8.838,8.838,0,0,1-1.4-2.785,11.918,11.918,0,0,1-.516-3.3Zm5.188.336a4.954,4.954,0,0,1,.926-3.133,3,3,0,0,1,2.5-1.187,2.631,2.631,0,0,1,2.164.953l.094-.8h2.047V-.281a3.613,3.613,0,0,1-.5,1.93A3.236,3.236,0,0,1-59.81,2.9a4.985,4.985,0,0,1-2.141.43,4.635,4.635,0,0,1-1.812-.371A3.217,3.217,0,0,1-65.1,2l1-1.375a2.645,2.645,0,0,0,2.047.945,1.936,1.936,0,0,0,1.4-.48,1.8,1.8,0,0,0,.5-1.363V-.727a2.612,2.612,0,0,1-2.055.883,2.992,2.992,0,0,1-2.465-1.191,4.953,4.953,0,0,1-.941-3.16Zm2.258.168a3.085,3.085,0,0,0,.461,1.8,1.466,1.466,0,0,0,1.266.653,1.568,1.568,0,0,0,1.477-.775V-6a1.564,1.564,0,0,0-1.461-.775,1.476,1.476,0,0,0-1.277.665A3.477,3.477,0,0,0-63.357-4.121Zm11.094-.324a11.377,11.377,0,0,1-.508,3.4,9.225,9.225,0,0,1-1.461,2.883,5.264,5.264,0,0,1-2.039,1.719l-.437-1.2a5.494,5.494,0,0,0,1.75-2.578,11.939,11.939,0,0,0,.664-4.008v-.414a12.208,12.208,0,0,0-.637-4.117,5.727,5.727,0,0,0-1.777-2.672l.438-1.2a5.265,5.265,0,0,1,2,1.672,9.106,9.106,0,0,1,1.461,2.82A11.3,11.3,0,0,1-52.263-4.8ZM16.956,0h-7.8V-1.547l3.68-3.922a9.078,9.078,0,0,0,1.121-1.445,2.322,2.322,0,0,0,.363-1.172,1.738,1.738,0,0,0-.383-1.191,1.382,1.382,0,0,0-1.094-.434,1.49,1.49,0,0,0-1.207.527A2.089,2.089,0,0,0,11.2-7.8H8.932a3.729,3.729,0,0,1,.5-1.9,3.5,3.5,0,0,1,1.4-1.348,4.262,4.262,0,0,1,2.055-.488,4.036,4.036,0,0,1,2.73.844A2.985,2.985,0,0,1,16.588-8.3a3.825,3.825,0,0,1-.437,1.719,9.551,9.551,0,0,1-1.5,2.039L12.065-1.82h4.891ZM27.838,0H25.495V-4.875h-4.57V0H18.581V-11.375h2.344v4.609h4.57v-4.609h2.344Zm6.03,5H29.321V4.1L31.467,1.81a5.3,5.3,0,0,0,.654-.843,1.354,1.354,0,0,0,.212-.684,1.013,1.013,0,0,0-.223-.695.806.806,0,0,0-.638-.253.869.869,0,0,0-.7.308,1.218,1.218,0,0,0-.257.809H29.189a2.175,2.175,0,0,1,.289-1.107,2.04,2.04,0,0,1,.818-.786,2.486,2.486,0,0,1,1.2-.285,2.354,2.354,0,0,1,1.593.492,1.741,1.741,0,0,1,.567,1.39,2.231,2.231,0,0,1-.255,1,5.571,5.571,0,0,1-.875,1.189l-1.508,1.59h2.853ZM48.154-3.789A4.025,4.025,0,0,1,46.8-.9,4.76,4.76,0,0,1,43.576.156a4.28,4.28,0,0,1-3.441-1.473A6.038,6.038,0,0,1,38.88-5.359v-.7a6.819,6.819,0,0,1,.578-2.891,4.332,4.332,0,0,1,1.652-1.918,4.629,4.629,0,0,1,2.5-.668,4.637,4.637,0,0,1,3.172,1.055,4.326,4.326,0,0,1,1.391,2.961H45.826a2.376,2.376,0,0,0-.613-1.6,2.271,2.271,0,0,0-1.605-.5,1.991,1.991,0,0,0-1.754.84,4.707,4.707,0,0,0-.6,2.605V-5.3a5.038,5.038,0,0,0,.559,2.7,1.954,1.954,0,0,0,1.762.852,2.314,2.314,0,0,0,1.621-.5,2.241,2.241,0,0,0,.613-1.535ZM52.7-1.7V-.619h-.128a2.237,2.237,0,0,0-1.438.465A1.889,1.889,0,0,0,50.482,1.1,1.794,1.794,0,0,1,51.817.561a1.69,1.69,0,0,1,1.376.62,2.484,2.484,0,0,1,.51,1.631,2.444,2.444,0,0,1-.28,1.171,2.01,2.01,0,0,1-.793.816,2.3,2.3,0,0,1-1.16.292,2.152,2.152,0,0,1-1.693-.729,2.83,2.83,0,0,1-.645-1.946V1.942A4.259,4.259,0,0,1,49.541.035a2.991,2.991,0,0,1,1.171-1.281,3.432,3.432,0,0,1,1.77-.458ZM51.416,1.623a1.052,1.052,0,0,0-.579.166,1,1,0,0,0-.383.439v.4a1.773,1.773,0,0,0,.26,1.03.839.839,0,0,0,.729.371.83.83,0,0,0,.686-.334,1.363,1.363,0,0,0,.262-.866,1.361,1.361,0,0,0-.264-.873A.861.861,0,0,0,51.416,1.623ZM68.29,0H65.946V-4.875h-4.57V0H59.032V-11.375h2.344v4.609h4.57v-4.609H68.29ZM74.1.129a1.543,1.543,0,0,1-.242.857,1.738,1.738,0,0,1-.665.6,1.924,1.924,0,0,1,.766.64,1.642,1.642,0,0,1,.283.959,1.739,1.739,0,0,1-.6,1.4,2.869,2.869,0,0,1-3.277,0,1.735,1.735,0,0,1-.606-1.394,1.653,1.653,0,0,1,.283-.962,1.889,1.889,0,0,1,.761-.638,1.721,1.721,0,0,1-.663-.6A1.554,1.554,0,0,1,69.9.129a1.72,1.72,0,0,1,.565-1.351A2.225,2.225,0,0,1,72-1.726a2.24,2.24,0,0,1,1.533.5A1.713,1.713,0,0,1,74.1.129Zm-1.18,2.958a.955.955,0,0,0-.251-.693,1,1,0,0,0-1.344,0,.954.954,0,0,0-.251.695.953.953,0,0,0,.246.684,1.028,1.028,0,0,0,1.356.009A.951.951,0,0,0,72.916,3.086ZM72.78.192a.911.911,0,0,0-.205-.622A.728.728,0,0,0,72-.664a.733.733,0,0,0-.574.228.906.906,0,0,0-.205.629.952.952,0,0,0,.205.638A.718.718,0,0,0,72,1.072.711.711,0,0,0,72.577.83.959.959,0,0,0,72.78.192ZM89.019-5.43a6.867,6.867,0,0,1-.594,2.945,4.472,4.472,0,0,1-1.7,1.953,4.7,4.7,0,0,1-2.535.688,4.732,4.732,0,0,1-2.523-.68,4.515,4.515,0,0,1-1.719-1.941,6.67,6.67,0,0,1-.617-2.9V-5.93a6.831,6.831,0,0,1,.605-2.957,4.508,4.508,0,0,1,1.711-1.961,4.706,4.706,0,0,1,2.527-.684,4.706,4.706,0,0,1,2.527.684,4.508,4.508,0,0,1,1.711,1.961,6.811,6.811,0,0,1,.605,2.949Zm-2.375-.516A4.787,4.787,0,0,0,86-8.664a2.088,2.088,0,0,0-1.828-.93,2.088,2.088,0,0,0-1.82.918,4.732,4.732,0,0,0-.648,2.691v.555a4.847,4.847,0,0,0,.641,2.7,2.082,2.082,0,0,0,1.844.961A2.064,2.064,0,0,0,86-2.691a4.819,4.819,0,0,0,.641-2.7ZM94.054,2.5h.752V3.565h-.752V5H92.737V3.565H90.016l-.059-.829,2.766-4.37h1.331Zm-2.784,0h1.467V.16l-.087.15Zm8.745-7.128a11.99,11.99,0,0,1,.477-3.406,8.989,8.989,0,0,1,1.406-2.863,5.251,5.251,0,0,1,2.016-1.73l.438,1.219A5.438,5.438,0,0,0,102.569-8.8a12.082,12.082,0,0,0-.641,4.125v.242a12.313,12.313,0,0,0,.633,4.141,5.544,5.544,0,0,0,1.789,2.648l-.437,1.2a5.253,5.253,0,0,1-1.98-1.684,8.838,8.838,0,0,1-1.4-2.785,11.918,11.918,0,0,1-.516-3.3ZM107.913,0h-2.266V-12h2.266Zm5.75-4.445a11.377,11.377,0,0,1-.508,3.4,9.225,9.225,0,0,1-1.461,2.883,5.263,5.263,0,0,1-2.039,1.719l-.437-1.2a5.494,5.494,0,0,0,1.75-2.578,11.939,11.939,0,0,0,.664-4.008v-.414a12.209,12.209,0,0,0-.637-4.117,5.727,5.727,0,0,0-1.777-2.672l.438-1.2a5.265,5.265,0,0,1,2,1.672,9.106,9.106,0,0,1,1.461,2.82,11.3,11.3,0,0,1,.543,3.336Zm10.289-1.922h2.82v2.039h-2.82v3.188H121.8V-4.328h-2.828V-6.367H121.8V-9.422h2.148ZM139.819,0h-7.8V-1.547l3.68-3.922a9.078,9.078,0,0,0,1.121-1.445,2.322,2.322,0,0,0,.363-1.172,1.738,1.738,0,0,0-.383-1.191,1.382,1.382,0,0,0-1.094-.434,1.49,1.49,0,0,0-1.207.527,2.089,2.089,0,0,0-.441,1.387H131.8a3.729,3.729,0,0,1,.5-1.9,3.5,3.5,0,0,1,1.4-1.348,4.262,4.262,0,0,1,2.055-.488,4.036,4.036,0,0,1,2.73.844,2.985,2.985,0,0,1,.973,2.383,3.825,3.825,0,0,1-.437,1.719,9.552,9.552,0,0,1-1.5,2.039L134.928-1.82h4.891ZM150.7,0h-2.344V-4.875h-4.57V0h-2.344V-11.375h2.344v4.609h4.57v-4.609H150.7Zm6.03,5h-4.548V4.1L154.33,1.81a5.3,5.3,0,0,0,.654-.843A1.354,1.354,0,0,0,155.2.283a1.013,1.013,0,0,0-.223-.695.806.806,0,0,0-.638-.253.869.869,0,0,0-.7.308,1.218,1.218,0,0,0-.257.809h-1.322a2.175,2.175,0,0,1,.289-1.107,2.04,2.04,0,0,1,.818-.786,2.486,2.486,0,0,1,1.2-.285,2.354,2.354,0,0,1,1.593.492,1.741,1.741,0,0,1,.567,1.39,2.231,2.231,0,0,1-.255,1,5.572,5.572,0,0,1-.875,1.189l-1.508,1.59h2.853Zm14.7-10.43a6.867,6.867,0,0,1-.594,2.945,4.471,4.471,0,0,1-1.7,1.953A4.7,4.7,0,0,1,166.6.156a4.732,4.732,0,0,1-2.523-.68,4.515,4.515,0,0,1-1.719-1.941,6.67,6.67,0,0,1-.617-2.9V-5.93a6.831,6.831,0,0,1,.605-2.957,4.508,4.508,0,0,1,1.711-1.961,4.706,4.706,0,0,1,2.527-.684,4.706,4.706,0,0,1,2.527.684,4.508,4.508,0,0,1,1.711,1.961,6.811,6.811,0,0,1,.605,2.949Zm-2.375-.516a4.787,4.787,0,0,0-.641-2.719,2.088,2.088,0,0,0-1.828-.93,2.088,2.088,0,0,0-1.82.918,4.732,4.732,0,0,0-.648,2.691v.555a4.847,4.847,0,0,0,.641,2.7,2.082,2.082,0,0,0,1.844.961,2.064,2.064,0,0,0,1.813-.926,4.819,4.819,0,0,0,.641-2.7Zm4.031,1.32a11.99,11.99,0,0,1,.477-3.406,8.989,8.989,0,0,1,1.406-2.863,5.251,5.251,0,0,1,2.016-1.73l.438,1.219A5.438,5.438,0,0,0,175.642-8.8,12.082,12.082,0,0,0,175-4.672v.242a12.313,12.313,0,0,0,.633,4.141,5.544,5.544,0,0,0,1.789,2.648l-.437,1.2a5.253,5.253,0,0,1-1.98-1.684,8.838,8.838,0,0,1-1.4-2.785,11.918,11.918,0,0,1-.516-3.3Zm5.188.336a4.954,4.954,0,0,1,.926-3.133,3,3,0,0,1,2.5-1.187,2.631,2.631,0,0,1,2.164.953l.094-.8H186V-.281a3.613,3.613,0,0,1-.5,1.93A3.236,3.236,0,0,1,184.08,2.9a4.985,4.985,0,0,1-2.141.43,4.635,4.635,0,0,1-1.812-.371A3.217,3.217,0,0,1,178.791,2l1-1.375a2.645,2.645,0,0,0,2.047.945,1.936,1.936,0,0,0,1.4-.48,1.8,1.8,0,0,0,.5-1.363V-.727a2.612,2.612,0,0,1-2.055.883,2.992,2.992,0,0,1-2.465-1.191,4.953,4.953,0,0,1-.941-3.16Zm2.258.168a3.085,3.085,0,0,0,.461,1.8,1.466,1.466,0,0,0,1.266.653,1.568,1.568,0,0,0,1.477-.775V-6a1.564,1.564,0,0,0-1.461-.775A1.476,1.476,0,0,0,181-6.108,3.477,3.477,0,0,0,180.533-4.121Zm11.094-.324a11.377,11.377,0,0,1-.508,3.4,9.225,9.225,0,0,1-1.461,2.883,5.264,5.264,0,0,1-2.039,1.719l-.437-1.2a5.494,5.494,0,0,0,1.75-2.578,11.939,11.939,0,0,0,.664-4.008v-.414a12.208,12.208,0,0,0-.637-4.117,5.727,5.727,0,0,0-1.777-2.672l.438-1.2a5.265,5.265,0,0,1,2,1.672,9.106,9.106,0,0,1,1.461,2.82,11.3,11.3,0,0,1,.543,3.336Z" transform="translate(1170 13967)" fill="#12263f"/>
    <path id="Icon_awesome-long-arrow-alt-right" data-name="Icon awesome-long-arrow-alt-right" d="M13.024,13.166H-19.5a.5.5,0,0,0-.5.5v2.323a.5.5,0,0,0,.5.5H13.024V18.4a1,1,0,0,0,1.7.7l3.57-3.57a1,1,0,0,0,0-1.408l-3.57-3.57a1,1,0,0,0-1.7.7Z" transform="translate(1151.415 13947)" fill="#12263f"/>
  </g>
</svg>
