<svg xmlns="http://www.w3.org/2000/svg" width="190" height="44" viewBox="0 0 190 44">
  <g id="Grupo_957985" data-name="Grupo 957985" transform="translate(-1020 -1808)">
    <rect id="Rectángulo_339939" data-name="Rectángulo 339939" width="190" height="44" rx="20" transform="translate(1020 1808)" fill="#badc61"/>
    <path id="Trazado_725488" data-name="Trazado 725488" d="M33.579,14.658V19H30.494V6.2H35.6a5.948,5.948,0,0,1,2.6.541,4.074,4.074,0,0,1,1.749,1.538,4.2,4.2,0,0,1,.62,2.263,3.7,3.7,0,0,1-1.34,2.993,5.561,5.561,0,0,1-3.678,1.121Zm0-2.382H35.6a1.906,1.906,0,0,0,1.367-.448,1.665,1.665,0,0,0,.47-1.266,2.059,2.059,0,0,0-.483-1.433,1.712,1.712,0,0,0-1.318-.545H33.579Zm13.6,3.243L49.724,6.2h3.445L48.863,19H45.488L41.216,6.2h3.419ZM62.4,12.654H54.259V10.369H62.4Zm0,3.858H54.259V14.228H62.4ZM67.223,9.49l.1,1.116a3.225,3.225,0,0,1,2.716-1.292,2.713,2.713,0,0,1,2.219.888,4.226,4.226,0,0,1,.76,2.672V19H70.044V13a1.6,1.6,0,0,0-.29-1.059A1.342,1.342,0,0,0,68.7,11.6a1.413,1.413,0,0,0-1.292.686V19H64.446V9.49Zm12.322,4.983h-1.67V19H74.791V6.2h5.036a5.621,5.621,0,0,1,3.56,1.01,3.421,3.421,0,0,1,1.283,2.853,4.155,4.155,0,0,1-.541,2.213A3.837,3.837,0,0,1,82.437,13.7l2.672,5.167V19H81.8ZM77.875,12.1h1.951a1.751,1.751,0,0,0,1.323-.463,1.788,1.788,0,0,0,.444-1.291,1.809,1.809,0,0,0-.448-1.3,1.735,1.735,0,0,0-1.318-.471H77.875ZM96.139,8.585H92.3V19H89.213V8.585H85.443V6.2h10.7Z" transform="translate(1051 1819)" fill="#12263f"/>
  </g>
</svg>
