<svg xmlns="http://www.w3.org/2000/svg" width="276.315" height="222.461" viewBox="0 0 276.315 222.461">
  <g id="Grupo_957987" data-name="Grupo 957987" transform="translate(-601.016 -2327.398)">
    <path id="Trazado_725489" data-name="Trazado 725489" d="M3.359,12.992V17H1.016V5.625H5.453a5.134,5.134,0,0,1,2.254.469A3.454,3.454,0,0,1,9.2,7.426a3.714,3.714,0,0,1,.523,1.965,3.266,3.266,0,0,1-1.145,2.637,4.767,4.767,0,0,1-3.168.965Zm0-1.9H5.453a2.059,2.059,0,0,0,1.418-.437,1.591,1.591,0,0,0,.488-1.25,1.876,1.876,0,0,0-.492-1.352,1.839,1.839,0,0,0-1.359-.531H3.359Zm13.086,2.1a1.44,1.44,0,0,1-1.016-.375,1.206,1.206,0,0,1-.406-.922,1.161,1.161,0,0,1,.418-.922,1.543,1.543,0,0,1,1.043-.359,1.486,1.486,0,0,1,1.035.363,1.258,1.258,0,0,1-.008,1.852A1.549,1.549,0,0,1,16.445,13.2Zm11.4.984,2.578-8.555h2.609L29.07,17H26.625L22.68,5.625h2.6Zm17.273-3.008H38.133V9.328h6.984Zm0,3.383H38.133V12.711h6.984Zm7.531-6.008L52.7,9.609a3.08,3.08,0,0,1,2.531-1.219q2.68,0,2.7,3.023V17H56.484V11.406a1.946,1.946,0,0,0-.418-1.352,1.675,1.675,0,0,0-1.277-.437,2.086,2.086,0,0,0-1.234.375,2.546,2.546,0,0,0-.828.984V17H51.281V8.547Zm12.07,4.469a.829.829,0,0,1-.613-.258.849.849,0,0,1-.254-.617.858.858,0,0,1,.254-.625.829.829,0,0,1,.613-.258.88.88,0,0,1,.883.883.842.842,0,0,1-.258.617A.851.851,0,0,1,64.719,13.016ZM75.9,12.4H73.227V17H71.719V5.625h3.766a4.457,4.457,0,0,1,2.957.875,3.148,3.148,0,0,1,1.035,2.547A3.062,3.062,0,0,1,78.9,10.9a3.428,3.428,0,0,1-1.6,1.18l2.672,4.828V17H78.367Zm-2.672-1.227h2.3a2.6,2.6,0,0,0,1.777-.579,1.959,1.959,0,0,0,.66-1.55,2.062,2.062,0,0,0-.629-1.62,2.663,2.663,0,0,0-1.816-.571h-2.3Zm12.734,1.844a.829.829,0,0,1-.613-.258.849.849,0,0,1-.254-.617.858.858,0,0,1,.254-.625.829.829,0,0,1,.613-.258.88.88,0,0,1,.883.883.842.842,0,0,1-.258.617A.851.851,0,0,1,85.961,13.016Zm14.555-6.164H96.859V17H95.367V6.852H91.719V5.625h8.8Z" transform="translate(690.689 2321.773)" fill="#12263f"/>
    <path id="Trazado_725490" data-name="Trazado 725490" d="M3.359,12.992V17H1.016V5.625H5.453a5.134,5.134,0,0,1,2.254.469A3.454,3.454,0,0,1,9.2,7.426a3.714,3.714,0,0,1,.523,1.965,3.266,3.266,0,0,1-1.145,2.637,4.767,4.767,0,0,1-3.168.965Zm0-1.9H5.453a2.059,2.059,0,0,0,1.418-.437,1.591,1.591,0,0,0,.488-1.25,1.876,1.876,0,0,0-.492-1.352,1.839,1.839,0,0,0-1.359-.531H3.359Zm13.086,2.1a1.44,1.44,0,0,1-1.016-.375,1.206,1.206,0,0,1-.406-.922,1.161,1.161,0,0,1,.418-.922,1.543,1.543,0,0,1,1.043-.359,1.486,1.486,0,0,1,1.035.363,1.258,1.258,0,0,1-.008,1.852A1.549,1.549,0,0,1,16.445,13.2Zm11.4.984,2.578-8.555h2.609L29.07,17H26.625L22.68,5.625h2.6Zm17.273-3.008H38.133V9.328h6.984Zm0,3.383H38.133V12.711h6.984Z" transform="translate(655.247 2364.512)" fill="#12263f"/>
    <path id="Trazado_725491" data-name="Trazado 725491" d="M34.622,8.539l-.18.945a3.305,3.305,0,0,1,2.57-1.094,2.608,2.608,0,0,1,1.363.367,1.8,1.8,0,0,1,.77.992,3.49,3.49,0,0,1,2.8-1.359,2.235,2.235,0,0,1,1.867.852,3.042,3.042,0,0,1,.445,2.2L43.333,17H41.926l.922-5.57a2.943,2.943,0,0,0,0-.742Q42.7,9.625,41.458,9.6a2.136,2.136,0,0,0-1.4.48,2.222,2.222,0,0,0-.809,1.3L38.286,17H36.864l.938-5.562A1.786,1.786,0,0,0,37.54,10.1a1.377,1.377,0,0,0-1.129-.484,2.315,2.315,0,0,0-2.1,1.2L33.239,17H31.825l1.469-8.453ZM51.333,13.2a1.44,1.44,0,0,1-1.016-.375,1.206,1.206,0,0,1-.406-.922,1.161,1.161,0,0,1,.418-.922,1.543,1.543,0,0,1,1.043-.359,1.486,1.486,0,0,1,1.035.363,1.258,1.258,0,0,1-.008,1.852A1.549,1.549,0,0,1,51.333,13.2ZM62.8,12.406H60.176L59.38,17H57.9L59.88,5.625l3.422.008a3.814,3.814,0,0,1,2.727.907,2.83,2.83,0,0,1,.789,2.448,3.241,3.241,0,0,1-.777,1.885A4.247,4.247,0,0,1,64.2,12.1l1.766,4.8-.008.1H64.4Zm-2.414-1.234,2.156.008a3.012,3.012,0,0,0,1.9-.6,2.326,2.326,0,0,0,.906-1.6,1.837,1.837,0,0,0-.391-1.531,2.087,2.087,0,0,0-1.547-.586l-2.273-.008ZM73.145,13.2a1.44,1.44,0,0,1-1.016-.375,1.206,1.206,0,0,1-.406-.922,1.161,1.161,0,0,1,.418-.922,1.543,1.543,0,0,1,1.043-.359,1.486,1.486,0,0,1,1.035.363,1.258,1.258,0,0,1-.008,1.852A1.549,1.549,0,0,1,73.145,13.2ZM88.8,6.852H85.262L83.5,17H82.044L83.8,6.852H80.262l.219-1.227H89.02Z" transform="translate(702.156 2352.003)" fill="#12263f"/>
    <path id="Trazado_725492" data-name="Trazado 725492" d="M50.727,12.547V17h-1.5V5.625h4.2a4.215,4.215,0,0,1,2.926.953A3.231,3.231,0,0,1,57.407,9.1a3.189,3.189,0,0,1-1.035,2.551,4.4,4.4,0,0,1-2.965.895Zm0-1.227h2.7a2.7,2.7,0,0,0,1.844-.567,2.075,2.075,0,0,0,.641-1.64,2.143,2.143,0,0,0-.641-1.628,2.525,2.525,0,0,0-1.758-.634H50.727Zm10.531-5.7,3.719,9.281L68.7,5.625h1.945V17h-1.5V12.57l.141-4.781L65.548,17H64.4L60.673,7.813l.148,4.758V17h-1.5V5.625Z" transform="translate(702.156 2378.063)" fill="#12263f"/>
    <path id="Trazado_725493" data-name="Trazado 725493" d="M0,0H106.325" transform="translate(716.228 2375.457)" fill="none" stroke="#12263f" stroke-width="2"/>
    <path id="Trazado_725494" data-name="Trazado 725494" d="M3.359,12.992V17H1.016V5.625H5.453a5.134,5.134,0,0,1,2.254.469A3.454,3.454,0,0,1,9.2,7.426a3.714,3.714,0,0,1,.523,1.965,3.266,3.266,0,0,1-1.145,2.637,4.767,4.767,0,0,1-3.168.965Zm0-1.9H5.453a2.059,2.059,0,0,0,1.418-.437,1.591,1.591,0,0,0,.488-1.25,1.876,1.876,0,0,0-.492-1.352,1.839,1.839,0,0,0-1.359-.531H3.359Zm18.992.078H15.367V9.328h6.984Zm0,3.383H15.367V12.711h6.984Z" transform="translate(600 2417.674)" fill="#12263f"/>
    <path id="Trazado_725495" data-name="Trazado 725495" d="M12.349,8.539l-.18.945a3.305,3.305,0,0,1,2.57-1.094,2.608,2.608,0,0,1,1.363.367,1.8,1.8,0,0,1,.77.992,3.49,3.49,0,0,1,2.8-1.359,2.235,2.235,0,0,1,1.867.852,3.042,3.042,0,0,1,.445,2.2L21.06,17H19.653l.922-5.57a2.943,2.943,0,0,0,0-.742Q20.427,9.625,19.185,9.6a2.136,2.136,0,0,0-1.4.48,2.222,2.222,0,0,0-.809,1.3L16.013,17H14.591l.938-5.562a1.786,1.786,0,0,0-.262-1.336,1.377,1.377,0,0,0-1.129-.484,2.315,2.315,0,0,0-2.1,1.2L10.966,17H9.552l1.469-8.453Z" transform="translate(646.908 2405.165)" fill="#12263f"/>
    <path id="Trazado_725496" data-name="Trazado 725496" d="M15.665,14.992l4.617-9.367h1.656L16.063,17h-1.3l-2.3-11.375H14Z" transform="translate(646.908 2431.226)" fill="#12263f"/>
    <path id="Trazado_725497" data-name="Trazado 725497" d="M0,0H41.7" transform="translate(642.217 2427.577)" fill="none" stroke="#12263f" stroke-width="2"/>
    <path id="Trazado_725498" data-name="Trazado 725498" d="M8.83,14.72A1.62,1.62,0,0,1,7.687,14.3a1.356,1.356,0,0,1-.457-1.037,1.306,1.306,0,0,1,.47-1.037,1.736,1.736,0,0,1,1.173-.4,1.671,1.671,0,0,1,1.165.409,1.415,1.415,0,0,1-.009,2.083A1.742,1.742,0,0,1,8.83,14.72Z" transform="translate(681.307 2414.547)" fill="#12263f"/>
    <path id="Trazado_725499" data-name="Trazado 725499" d="M8.259,12.406H5.634L4.837,17H3.36L5.337,5.625l3.422.008a3.814,3.814,0,0,1,2.727.907,2.83,2.83,0,0,1,.789,2.448,3.241,3.241,0,0,1-.777,1.885A4.247,4.247,0,0,1,9.657,12.1l1.766,4.8-.008.1H9.853ZM5.845,11.172,8,11.18a3.012,3.012,0,0,0,1.9-.6,2.326,2.326,0,0,0,.906-1.6,1.837,1.837,0,0,0-.391-1.531,2.087,2.087,0,0,0-1.547-.586L6.595,6.859Zm24.078-4.32H26.384L24.626,17H23.165L24.923,6.852H21.384L21.6,5.625h8.539Z" transform="translate(701.113 2405.165)" fill="#12263f"/>
    <path id="Trazado_725500" data-name="Trazado 725500" d="M7.114,12.547,6.341,17H4.872L6.849,5.625l3.8.008a3.713,3.713,0,0,1,2.711.934,2.937,2.937,0,0,1,.82,2.48,3.541,3.541,0,0,1-1.3,2.57,4.718,4.718,0,0,1-3.059.938Zm.211-1.227,2.531.008a3.079,3.079,0,0,0,1.961-.6,2.407,2.407,0,0,0,.9-1.672,1.886,1.886,0,0,0-.4-1.559,2.005,2.005,0,0,0-1.523-.629L8.1,6.859Zm11.242-5.7,1.992,9.266,5.219-9.266h1.93L25.731,17H24.271l.781-4.5.93-4.578L20.825,17H19.7L17.669,7.742l-.7,4.906L16.208,17H14.739L16.716,5.625Z" transform="translate(701.113 2431.226)" fill="#12263f"/>
    <path id="Trazado_725501" data-name="Trazado 725501" d="M0,0H41.7" transform="translate(696.422 2427.577)" fill="none" stroke="#12263f" stroke-width="2"/>
    <path id="Trazado_725502" data-name="Trazado 725502" d="M6.224,14.72A1.62,1.62,0,0,1,5.081,14.3a1.356,1.356,0,0,1-.457-1.037,1.306,1.306,0,0,1,.47-1.037,1.736,1.736,0,0,1,1.173-.4,1.671,1.671,0,0,1,1.165.409,1.415,1.415,0,0,1-.009,2.083A1.742,1.742,0,0,1,6.224,14.72Z" transform="translate(711.537 2402.038)" fill="#12263f"/>
    <path id="Trazado_725503" data-name="Trazado 725503" d="M.976,10.387a1.018,1.018,0,0,1,.25-.7A.954.954,0,0,1,1.978,9.4a.983.983,0,0,1,.76.281,1,1,0,0,1,.259.7.944.944,0,0,1-.259.677,1,1,0,0,1-.76.272.971.971,0,0,1-.751-.272A.962.962,0,0,1,.976,10.387Zm.308,11.162L.36,20.916a4.241,4.241,0,0,0,.861-2.373V17.075H2.813V18.35a4,4,0,0,1-.435,1.775A4.156,4.156,0,0,1,1.283,21.549Zm12.023-3.7a2.342,2.342,0,0,0,1.521-.527A1.855,1.855,0,0,0,15.548,16h1.538a2.949,2.949,0,0,1-.562,1.556,3.7,3.7,0,0,1-1.384,1.178,3.994,3.994,0,0,1-1.833.439,3.918,3.918,0,0,1-3.089-1.3A5.163,5.163,0,0,1,9.07,14.333v-.272a5.725,5.725,0,0,1,.51-2.47,3.883,3.883,0,0,1,1.463-1.679,4.157,4.157,0,0,1,2.254-.6,3.814,3.814,0,0,1,2.659.958,3.424,3.424,0,0,1,1.129,2.487H15.548a2.241,2.241,0,0,0-.7-1.516A2.174,2.174,0,0,0,13.3,10.65a2.276,2.276,0,0,0-1.92.892,4.19,4.19,0,0,0-.681,2.58v.308a4.106,4.106,0,0,0,.677,2.531A2.287,2.287,0,0,0,13.307,17.849Zm5.177-3.691a5.617,5.617,0,0,1,.549-2.514,4.1,4.1,0,0,1,1.529-1.723A4.163,4.163,0,0,1,22.8,9.314a4.01,4.01,0,0,1,3.142,1.345,5.174,5.174,0,0,1,1.2,3.577v.114a5.666,5.666,0,0,1-.532,2.492,4.038,4.038,0,0,1-1.521,1.718,4.211,4.211,0,0,1-2.272.615,4,4,0,0,1-3.133-1.345,5.147,5.147,0,0,1-1.2-3.56Zm1.635.193a4.068,4.068,0,0,0,.734,2.54,2.487,2.487,0,0,0,3.933-.013,4.449,4.449,0,0,0,.729-2.72,4.061,4.061,0,0,0-.743-2.536A2.361,2.361,0,0,0,22.8,10.65a2.335,2.335,0,0,0-1.942.958A4.416,4.416,0,0,0,20.118,14.351ZM30.709,9.49l.044,1.055a3.512,3.512,0,0,1,2.821-1.23,2.719,2.719,0,0,1,2.716,1.529,3.6,3.6,0,0,1,1.235-1.107,3.647,3.647,0,0,1,1.8-.422q3.129,0,3.182,3.313V19H40.878V12.725a2.184,2.184,0,0,0-.466-1.525,2.051,2.051,0,0,0-1.564-.505,2.156,2.156,0,0,0-1.5.541,2.193,2.193,0,0,0-.694,1.455V19H35.016V12.769a1.814,1.814,0,0,0-2.03-2.074A2.175,2.175,0,0,0,30.8,12.057V19H29.171V9.49Zm13.816,4.667a5.617,5.617,0,0,1,.549-2.514A4.1,4.1,0,0,1,46.6,9.921a4.163,4.163,0,0,1,2.237-.606,4.01,4.01,0,0,1,3.142,1.345,5.174,5.174,0,0,1,1.2,3.577v.114a5.666,5.666,0,0,1-.532,2.492,4.038,4.038,0,0,1-1.521,1.718,4.211,4.211,0,0,1-2.272.615,4,4,0,0,1-3.133-1.345,5.147,5.147,0,0,1-1.2-3.56Zm1.635.193a4.068,4.068,0,0,0,.734,2.54,2.487,2.487,0,0,0,3.933-.013,4.449,4.449,0,0,0,.729-2.72,4.061,4.061,0,0,0-.743-2.536,2.361,2.361,0,0,0-1.973-.971,2.335,2.335,0,0,0-1.942.958A4.416,4.416,0,0,0,46.16,14.351Zm65.9-1.907H104.2V10.369h7.857Zm0,3.806H104.2V14.175h7.857Zm21.4-1.512a4.528,4.528,0,0,1-1.525,3.252,5.355,5.355,0,0,1-3.625,1.187,4.816,4.816,0,0,1-3.872-1.657,6.793,6.793,0,0,1-1.411-4.548v-.782a7.671,7.671,0,0,1,.65-3.252,4.874,4.874,0,0,1,1.859-2.158,5.809,5.809,0,0,1,6.376.435,4.866,4.866,0,0,1,1.564,3.331h-2.637a2.673,2.673,0,0,0-.69-1.8,2.555,2.555,0,0,0-1.806-.558,2.24,2.24,0,0,0-1.973.945,5.3,5.3,0,0,0-.672,2.931v.967a5.667,5.667,0,0,0,.628,3.032,2.2,2.2,0,0,0,1.982.958,2.6,2.6,0,0,0,1.824-.558,2.521,2.521,0,0,0,.69-1.727Z" transform="translate(743.852 2416.632)" fill="#12263f"/>
    <path id="Trazado_725504" data-name="Trazado 725504" d="M12.349,8.539l-.18.945a3.305,3.305,0,0,1,2.57-1.094,2.608,2.608,0,0,1,1.363.367,1.8,1.8,0,0,1,.77.992,3.49,3.49,0,0,1,2.8-1.359,2.235,2.235,0,0,1,1.867.852,3.042,3.042,0,0,1,.445,2.2L21.06,17H19.653l.922-5.57a2.943,2.943,0,0,0,0-.742Q20.427,9.625,19.185,9.6a2.136,2.136,0,0,0-1.4.48,2.222,2.222,0,0,0-.809,1.3L16.013,17H14.591l.938-5.562a1.786,1.786,0,0,0-.262-1.336,1.377,1.377,0,0,0-1.129-.484,2.315,2.315,0,0,0-2.1,1.2L10.966,17H9.552l1.469-8.453Z" transform="translate(809.523 2405.165)" fill="#12263f"/>
    <path id="Trazado_725505" data-name="Trazado 725505" d="M15.665,14.992l4.617-9.367h1.656L16.063,17h-1.3l-2.3-11.375H14Z" transform="translate(809.523 2431.226)" fill="#12263f"/>
    <path id="Trazado_725506" data-name="Trazado 725506" d="M0,0H41.7" transform="translate(804.832 2427.577)" fill="none" stroke="#12263f" stroke-width="2"/>
    <path id="Trazado_725507" data-name="Trazado 725507" d="M3.359,12.992V17H1.016V5.625H5.453a5.134,5.134,0,0,1,2.254.469A3.454,3.454,0,0,1,9.2,7.426a3.714,3.714,0,0,1,.523,1.965,3.266,3.266,0,0,1-1.145,2.637,4.767,4.767,0,0,1-3.168.965Zm0-1.9H5.453a2.059,2.059,0,0,0,1.418-.437,1.591,1.591,0,0,0,.488-1.25,1.876,1.876,0,0,0-.492-1.352,1.839,1.839,0,0,0-1.359-.531H3.359Zm18.992.078H15.367V9.328h6.984Zm0,3.383H15.367V12.711h6.984Zm19.023-1.344A4.025,4.025,0,0,1,40.02,16.1,4.76,4.76,0,0,1,36.8,17.156a4.28,4.28,0,0,1-3.441-1.473A6.038,6.038,0,0,1,32.1,11.641v-.7a6.819,6.819,0,0,1,.578-2.891,4.332,4.332,0,0,1,1.652-1.918A5.164,5.164,0,0,1,40,6.523a4.326,4.326,0,0,1,1.391,2.961H39.047a2.376,2.376,0,0,0-.613-1.6,2.271,2.271,0,0,0-1.605-.5,1.991,1.991,0,0,0-1.754.84,4.707,4.707,0,0,0-.6,2.605V11.7a5.038,5.038,0,0,0,.559,2.7,1.954,1.954,0,0,0,1.762.852,2.314,2.314,0,0,0,1.621-.5,2.241,2.241,0,0,0,.613-1.535Zm6.648-.016a1.44,1.44,0,0,1-1.016-.375A1.206,1.206,0,0,1,46.6,11.9a1.161,1.161,0,0,1,.418-.922,1.543,1.543,0,0,1,1.043-.359,1.486,1.486,0,0,1,1.035.363,1.258,1.258,0,0,1-.008,1.852A1.549,1.549,0,0,1,48.023,13.2Z" transform="translate(679.483 2465.625)" fill="#12263f"/>
    <path id="Trazado_725508" data-name="Trazado 725508" d="M27.794,12.406H25.169L24.372,17H22.9L24.872,5.625l3.422.008a3.814,3.814,0,0,1,2.727.907,2.83,2.83,0,0,1,.789,2.448,3.241,3.241,0,0,1-.777,1.885,4.247,4.247,0,0,1-1.84,1.228l1.766,4.8-.008.1H29.388ZM25.38,11.172l2.156.008a3.012,3.012,0,0,0,1.9-.6,2.326,2.326,0,0,0,.906-1.6,1.837,1.837,0,0,0-.391-1.531A2.087,2.087,0,0,0,28.4,6.867L26.13,6.859ZM38.138,13.2a1.44,1.44,0,0,1-1.016-.375,1.206,1.206,0,0,1-.406-.922,1.161,1.161,0,0,1,.418-.922,1.543,1.543,0,0,1,1.043-.359,1.486,1.486,0,0,1,1.035.363,1.258,1.258,0,0,1-.008,1.852A1.549,1.549,0,0,1,38.138,13.2ZM54.169,6.852H50.63L48.872,17H47.411L49.169,6.852H45.63l.219-1.227h8.539Z" transform="translate(737.858 2454.158)" fill="#12263f"/>
    <path id="Trazado_725509" data-name="Trazado 725509" d="M29,12.547,28.231,17H26.763L28.739,5.625l3.8.008a3.713,3.713,0,0,1,2.711.934,2.937,2.937,0,0,1,.82,2.48,3.541,3.541,0,0,1-1.3,2.57,4.718,4.718,0,0,1-3.059.938Zm.211-1.227,2.531.008a3.079,3.079,0,0,0,1.961-.6,2.407,2.407,0,0,0,.9-1.672,1.886,1.886,0,0,0-.4-1.559,2.005,2.005,0,0,0-1.523-.629l-2.7-.008Zm11.242-5.7,1.992,9.266,5.219-9.266H49.6L47.622,17H46.161l.781-4.5.93-4.578L42.716,17H41.591L39.559,7.742l-.7,4.906L38.1,17H36.63L38.606,5.625Z" transform="translate(737.858 2480.219)" fill="#12263f"/>
    <path id="Trazado_725510" data-name="Trazado 725510" d="M0,0H76.1" transform="translate(738.379 2477.612)" fill="none" stroke="#12263f" stroke-width="2"/>
    <path id="Trazado_725511" data-name="Trazado 725511" d="M9.945,13.211A4.025,4.025,0,0,1,8.59,16.1a4.76,4.76,0,0,1-3.223,1.055,4.28,4.28,0,0,1-3.441-1.473A6.038,6.038,0,0,1,.672,11.641v-.7A6.819,6.819,0,0,1,1.25,8.055,4.332,4.332,0,0,1,2.9,6.137a4.629,4.629,0,0,1,2.5-.668A4.637,4.637,0,0,1,8.57,6.523,4.326,4.326,0,0,1,9.961,9.484H7.617A2.376,2.376,0,0,0,7,7.887a2.271,2.271,0,0,0-1.605-.5,1.991,1.991,0,0,0-1.754.84,4.707,4.707,0,0,0-.6,2.605V11.7a5.038,5.038,0,0,0,.559,2.7,1.954,1.954,0,0,0,1.762.852,2.314,2.314,0,0,0,1.621-.5A2.241,2.241,0,0,0,7.6,13.211ZM22.5,11.172H15.516V9.328H22.5Zm0,3.383H15.516V12.711H22.5Z" transform="translate(691.992 2522.436)" fill="#12263f"/>
    <path id="Trazado_725512" data-name="Trazado 725512" d="M17.981,12.547,17.208,17H15.739L17.716,5.625l3.8.008a3.713,3.713,0,0,1,2.711.934,2.937,2.937,0,0,1,.82,2.48,3.541,3.541,0,0,1-1.3,2.57,4.718,4.718,0,0,1-3.059.938Zm.211-1.227,2.531.008a3.079,3.079,0,0,0,1.961-.6,2.407,2.407,0,0,0,.9-1.672,1.886,1.886,0,0,0-.4-1.559,2.005,2.005,0,0,0-1.523-.629l-2.7-.008ZM31.208,13.2a1.44,1.44,0,0,1-1.016-.375,1.206,1.206,0,0,1-.406-.922,1.161,1.161,0,0,1,.418-.922,1.543,1.543,0,0,1,1.043-.359,1.486,1.486,0,0,1,1.035.363,1.258,1.258,0,0,1-.008,1.852A1.549,1.549,0,0,1,31.208,13.2Zm8.82-.648L39.255,17H37.786L39.763,5.625l3.8.008a3.713,3.713,0,0,1,2.711.934,2.937,2.937,0,0,1,.82,2.48,3.541,3.541,0,0,1-1.3,2.57,4.718,4.718,0,0,1-3.059.938Zm.211-1.227,2.531.008a3.079,3.079,0,0,0,1.961-.6,2.407,2.407,0,0,0,.9-1.672,1.886,1.886,0,0,0-.4-1.559,2.005,2.005,0,0,0-1.523-.629l-2.7-.008Zm11.242-5.7,1.992,9.266,5.219-9.266h1.93L58.645,17H57.184l.781-4.5.93-4.578L53.739,17H52.614L50.583,7.742l-.7,4.906L49.122,17H47.653L49.63,5.625Z" transform="translate(725.349 2509.405)" fill="#12263f"/>
    <path id="Trazado_725513" data-name="Trazado 725513" d="M0,0H76.1" transform="translate(725.87 2532.859)" fill="none" stroke="#12263f" stroke-width="2"/>
    <path id="Trazado_725514" data-name="Trazado 725514" d="M27.981,12.406H25.356L24.559,17H23.083L25.059,5.625l3.422.008a3.814,3.814,0,0,1,2.727.907A2.83,2.83,0,0,1,32,8.988a3.241,3.241,0,0,1-.777,1.885A4.247,4.247,0,0,1,29.38,12.1l1.766,4.8-.008.1H29.575Zm-2.414-1.234,2.156.008a3.012,3.012,0,0,0,1.9-.6,2.326,2.326,0,0,0,.906-1.6,1.837,1.837,0,0,0-.391-1.531,2.087,2.087,0,0,0-1.547-.586l-2.273-.008ZM38.325,13.2a1.44,1.44,0,0,1-1.016-.375A1.206,1.206,0,0,1,36.9,11.9a1.161,1.161,0,0,1,.418-.922,1.543,1.543,0,0,1,1.043-.359,1.486,1.486,0,0,1,1.035.363,1.258,1.258,0,0,1-.008,1.852A1.549,1.549,0,0,1,38.325,13.2ZM53.981,6.852H50.442L48.684,17H47.223L48.981,6.852H45.442l.219-1.227H54.2Z" transform="translate(721.179 2532.859)" fill="#12263f"/>
  </g>
</svg>
