<svg xmlns="http://www.w3.org/2000/svg" width="295" height="87" viewBox="0 0 295 87">
  <g id="Grupo_957987" data-name="Grupo 957987" transform="translate(-285 -3057)">
    <path id="Trazado_725525" data-name="Trazado 725525" d="M20,0H275a20,20,0,0,1,20,20V67a20,20,0,0,1-20,20H20A20,20,0,0,1,0,67V20A20,20,0,0,1,20,0Z" transform="translate(285 3057)" fill="#badc61"/>
    <path id="Trazado_725526" data-name="Trazado 725526" d="M.969,12.375a11.99,11.99,0,0,1,.477-3.406A8.989,8.989,0,0,1,2.852,6.105a5.251,5.251,0,0,1,2.016-1.73L5.3,5.594A5.438,5.438,0,0,0,3.523,8.2a12.082,12.082,0,0,0-.641,4.125v.242a12.313,12.313,0,0,0,.633,4.141A5.544,5.544,0,0,0,5.3,19.359l-.437,1.2a5.253,5.253,0,0,1-1.98-1.684,8.838,8.838,0,0,1-1.4-2.785,11.918,11.918,0,0,1-.516-3.3Zm14.594.836A4.025,4.025,0,0,1,14.207,16.1a4.76,4.76,0,0,1-3.223,1.055,4.28,4.28,0,0,1-3.441-1.473,6.038,6.038,0,0,1-1.254-4.043v-.7a6.819,6.819,0,0,1,.578-2.891A4.332,4.332,0,0,1,8.52,6.137a4.629,4.629,0,0,1,2.5-.668,4.637,4.637,0,0,1,3.172,1.055,4.326,4.326,0,0,1,1.391,2.961H13.234a2.376,2.376,0,0,0-.613-1.6,2.271,2.271,0,0,0-1.605-.5,1.991,1.991,0,0,0-1.754.84,4.707,4.707,0,0,0-.6,2.605V11.7a5.038,5.038,0,0,0,.559,2.7,1.954,1.954,0,0,0,1.762.852,2.314,2.314,0,0,0,1.621-.5,2.241,2.241,0,0,0,.613-1.535Zm13.25-.656a11.377,11.377,0,0,1-.508,3.4,9.225,9.225,0,0,1-1.461,2.883A5.263,5.263,0,0,1,24.8,20.555l-.437-1.2a5.494,5.494,0,0,0,1.75-2.578,11.939,11.939,0,0,0,.664-4.008v-.414a12.208,12.208,0,0,0-.637-4.117A5.727,5.727,0,0,0,24.367,5.57l.438-1.2a5.265,5.265,0,0,1,2,1.672,9.106,9.106,0,0,1,1.461,2.82,11.3,11.3,0,0,1,.543,3.336ZM53.68,11.172H46.7V9.328H53.68Zm0,3.383H46.7V12.711H53.68Z" transform="translate(362 3089)" fill="#12263f"/>
    <path id="Trazado_725527" data-name="Trazado 725527" d="M2.664,17H1.219V8.547H2.664ZM1.1,6.3a.863.863,0,0,1,.215-.594.807.807,0,0,1,.637-.242.819.819,0,0,1,.641.242.854.854,0,0,1,.219.594.826.826,0,0,1-.219.586.834.834,0,0,1-.641.234.821.821,0,0,1-.637-.234A.834.834,0,0,1,1.1,6.3Zm17.25,2.242v9.43q0,2.438-2.211,2.438a2.7,2.7,0,0,1-.883-.14V19.125a2.794,2.794,0,0,0,.656.063.982.982,0,0,0,.738-.262,1.3,1.3,0,0,0,.254-.911V8.547ZM16.758,6.3a.867.867,0,0,1,.215-.59.79.79,0,0,1,.629-.246.819.819,0,0,1,.641.242.854.854,0,0,1,.219.594.826.826,0,0,1-.219.586.834.834,0,0,1-.641.234.808.808,0,0,1-.633-.234A.843.843,0,0,1,16.758,6.3Z" transform="translate(378 3097)" fill="#12263f"/>
    <path id="Trazado_725528" data-name="Trazado 725528" d="M.969,12.375a11.99,11.99,0,0,1,.477-3.406A8.989,8.989,0,0,1,2.852,6.105a5.251,5.251,0,0,1,2.016-1.73L5.3,5.594A5.438,5.438,0,0,0,3.523,8.2a12.082,12.082,0,0,0-.641,4.125v.242a12.313,12.313,0,0,0,.633,4.141A5.544,5.544,0,0,0,5.3,19.359l-.437,1.2a5.253,5.253,0,0,1-1.98-1.684,8.838,8.838,0,0,1-1.4-2.785,11.918,11.918,0,0,1-.516-3.3Zm14.594.836A4.025,4.025,0,0,1,14.207,16.1a4.76,4.76,0,0,1-3.223,1.055,4.28,4.28,0,0,1-3.441-1.473,6.038,6.038,0,0,1-1.254-4.043v-.7a6.819,6.819,0,0,1,.578-2.891A4.332,4.332,0,0,1,8.52,6.137a4.629,4.629,0,0,1,2.5-.668,4.637,4.637,0,0,1,3.172,1.055,4.326,4.326,0,0,1,1.391,2.961H13.234a2.376,2.376,0,0,0-.613-1.6,2.271,2.271,0,0,0-1.605-.5,1.991,1.991,0,0,0-1.754.84,4.707,4.707,0,0,0-.6,2.605V11.7a5.038,5.038,0,0,0,.559,2.7,1.954,1.954,0,0,0,1.762.852,2.314,2.314,0,0,0,1.621-.5,2.241,2.241,0,0,0,.613-1.535Zm5.078-.656a11.377,11.377,0,0,1-.508,3.4,9.225,9.225,0,0,1-1.461,2.883,5.263,5.263,0,0,1-2.039,1.719l-.437-1.2a5.494,5.494,0,0,0,1.75-2.578,11.939,11.939,0,0,0,.664-4.008v-.414a12.208,12.208,0,0,0-.637-4.117A5.727,5.727,0,0,0,16.2,5.57l.438-1.2a5.265,5.265,0,0,1,2,1.672A9.106,9.106,0,0,1,20.1,8.867a11.3,11.3,0,0,1,.543,3.336Z" transform="translate(423 3074)" fill="#12263f"/>
    <path id="Trazado_725529" data-name="Trazado 725529" d="M6.547,8.547v9.43q0,2.438-2.211,2.438a2.7,2.7,0,0,1-.883-.14V19.125a2.794,2.794,0,0,0,.656.063.982.982,0,0,0,.738-.262,1.3,1.3,0,0,0,.254-.911V8.547ZM4.953,6.3a.867.867,0,0,1,.215-.59A.79.79,0,0,1,5.8,5.469a.819.819,0,0,1,.641.242.854.854,0,0,1,.219.594.826.826,0,0,1-.219.586.834.834,0,0,1-.641.234.808.808,0,0,1-.633-.234A.843.843,0,0,1,4.953,6.3Zm7.914,9.938a.905.905,0,0,1,.223-.625.848.848,0,0,1,.668-.25.874.874,0,0,1,.676.25.887.887,0,0,1,.23.625.839.839,0,0,1-.23.6.89.89,0,0,1-.676.242.8.8,0,0,1-.891-.844Zm9.867-3.7V17h-1.5V5.625h4.2a4.215,4.215,0,0,1,2.926.953A3.231,3.231,0,0,1,29.414,9.1a3.189,3.189,0,0,1-1.035,2.551,4.4,4.4,0,0,1-2.965.895Zm0-1.227h2.7a2.7,2.7,0,0,0,1.844-.567,2.075,2.075,0,0,0,.641-1.64,2.143,2.143,0,0,0-.641-1.628,2.525,2.525,0,0,0-1.758-.634H22.734Zm10.531-5.7,3.719,9.281L40.7,5.625h1.945V17h-1.5V12.57l.141-4.781L37.555,17H36.406L32.68,7.813l.148,4.758V17h-1.5V5.625Z" transform="translate(444 3080)" fill="#12263f"/>
    <path id="Trazado_725530" data-name="Trazado 725530" d="M2.664,17H1.219V8.547H2.664ZM1.1,6.3a.863.863,0,0,1,.215-.594.807.807,0,0,1,.637-.242.819.819,0,0,1,.641.242.854.854,0,0,1,.219.594.826.826,0,0,1-.219.586.834.834,0,0,1-.641.234.821.821,0,0,1-.637-.234A.834.834,0,0,1,1.1,6.3Z" transform="translate(493 3083)" fill="#12263f"/>
    <path id="Trazado_725531" data-name="Trazado 725531" d="M84,0H0" transform="translate(419.5 3101.5)" fill="none" stroke="#707070" stroke-width="2"/>
    <path id="Trazado_725532" data-name="Trazado 725532" d="M5.492,12.4H2.82V17H1.313V5.625H5.078A4.457,4.457,0,0,1,8.035,6.5,3.148,3.148,0,0,1,9.07,9.047,3.062,3.062,0,0,1,8.5,10.9a3.428,3.428,0,0,1-1.6,1.18L9.57,16.906V17H7.961ZM2.82,11.172h2.3A2.6,2.6,0,0,0,6.9,10.593a1.959,1.959,0,0,0,.66-1.55,2.062,2.062,0,0,0-.629-1.62,2.663,2.663,0,0,0-1.816-.571H2.82Zm19.953,1.211a12.079,12.079,0,0,1,.473-3.391,9.85,9.85,0,0,1,1.41-2.953A6,6,0,0,1,26.6,4.164l.3.953a6.222,6.222,0,0,0-1.871,2.672,11.583,11.583,0,0,0-.8,4.023l-.008.664a11.643,11.643,0,0,0,1.1,5.234A6.252,6.252,0,0,0,26.9,19.789l-.3.883a6.192,6.192,0,0,1-1.984-1.937A10.859,10.859,0,0,1,22.773,12.383ZM36.383,6.852H32.727V17H31.234V6.852H27.586V5.625h8.8Zm4.8,5.609a12.084,12.084,0,0,1-.457,3.34,9.876,9.876,0,0,1-1.4,2.949,6.127,6.127,0,0,1-1.973,1.922l-.3-.883a6.281,6.281,0,0,0,1.934-2.863,12.387,12.387,0,0,0,.746-4.309v-.25a12.861,12.861,0,0,0-.344-3.051,10.3,10.3,0,0,0-.957-2.527,5.838,5.838,0,0,0-1.379-1.742l.3-.883A6.1,6.1,0,0,1,39.316,6.07a9.9,9.9,0,0,1,1.4,2.945A12.363,12.363,0,0,1,41.18,12.461Z" transform="translate(432 3104)" fill="#12263f"/>
    <path id="Trazado_725533" data-name="Trazado 725533" d="M1.266,18.147a1.018,1.018,0,0,1,.25-.7.954.954,0,0,1,.751-.281.983.983,0,0,1,.76.281,1,1,0,0,1,.259.7.944.944,0,0,1-.259.677,1,1,0,0,1-.76.272.971.971,0,0,1-.751-.272A.962.962,0,0,1,1.266,18.147Z" transform="translate(445 3098)" fill="#12263f"/>
    <path id="Trazado_725534" data-name="Trazado 725534" d="M6.547,8.547v9.43q0,2.438-2.211,2.438a2.7,2.7,0,0,1-.883-.14V19.125a2.794,2.794,0,0,0,.656.063.982.982,0,0,0,.738-.262,1.3,1.3,0,0,0,.254-.911V8.547ZM4.953,6.3a.867.867,0,0,1,.215-.59A.79.79,0,0,1,5.8,5.469a.819.819,0,0,1,.641.242.854.854,0,0,1,.219.594.826.826,0,0,1-.219.586.834.834,0,0,1-.641.234.808.808,0,0,1-.633-.234A.843.843,0,0,1,4.953,6.3Z" transform="translate(474 3109)" fill="#12263f"/>
  </g>
</svg>
