<svg xmlns="http://www.w3.org/2000/svg" width="256" height="87" viewBox="0 0 256 87">
  <g id="Grupo_957983" data-name="Grupo 957983" transform="translate(-346 -4645)">
    <path id="Trazado_725360" data-name="Trazado 725360" d="M20,0H236a20,20,0,0,1,20,20V67a20,20,0,0,1-20,20H20A20,20,0,0,1,0,67V20A20,20,0,0,1,20,0Z" transform="translate(346 4645)" fill="#badc61"/>
    <path id="Trazado_725361" data-name="Trazado 725361" d="M9.945,13.211A4.025,4.025,0,0,1,8.59,16.1a4.76,4.76,0,0,1-3.223,1.055,4.28,4.28,0,0,1-3.441-1.473A6.038,6.038,0,0,1,.672,11.641v-.7A6.819,6.819,0,0,1,1.25,8.055,4.332,4.332,0,0,1,2.9,6.137a4.629,4.629,0,0,1,2.5-.668A4.637,4.637,0,0,1,8.57,6.523,4.326,4.326,0,0,1,9.961,9.484H7.617A2.376,2.376,0,0,0,7,7.887a2.271,2.271,0,0,0-1.605-.5,1.991,1.991,0,0,0-1.754.84,4.707,4.707,0,0,0-.6,2.605V11.7a5.038,5.038,0,0,0,.559,2.7,1.954,1.954,0,0,0,1.762.852,2.314,2.314,0,0,0,1.621-.5A2.241,2.241,0,0,0,7.6,13.211ZM74.3,11.172H67.313V9.328H74.3Zm0,3.383H67.313V12.711H74.3Zm15.039-1.344A4.025,4.025,0,0,1,87.98,16.1a4.76,4.76,0,0,1-3.223,1.055,4.28,4.28,0,0,1-3.441-1.473,6.038,6.038,0,0,1-1.254-4.043v-.7a6.819,6.819,0,0,1,.578-2.891,4.332,4.332,0,0,1,1.652-1.918,5.164,5.164,0,0,1,5.668.387,4.326,4.326,0,0,1,1.391,2.961H87.008a2.376,2.376,0,0,0-.613-1.6,2.271,2.271,0,0,0-1.605-.5,1.991,1.991,0,0,0-1.754.84,4.707,4.707,0,0,0-.6,2.605V11.7a5.038,5.038,0,0,0,.559,2.7,1.954,1.954,0,0,0,1.762.852,2.314,2.314,0,0,0,1.621-.5,2.241,2.241,0,0,0,.613-1.535Z" transform="translate(362 4681)" fill="#12263f"/>
    <path id="Trazado_725362" data-name="Trazado 725362" d="M6.85,10.281a3.4,3.4,0,0,1-1.2,2.1,3.357,3.357,0,0,1-2.282.738,2.658,2.658,0,0,1-1.383-.39,2.462,2.462,0,0,1-.92-1.072A4,4,0,0,1,.7,10.105a4.967,4.967,0,0,1,.041-.937l.1-.7A5.307,5.307,0,0,1,2.194,5.433,3.408,3.408,0,0,1,4.811,4.352a2.552,2.552,0,0,1,1.9.776,3.088,3.088,0,0,1,.744,2.089h-1.1Q6.287,5.424,4.957,5.283l-.193-.012a2.264,2.264,0,0,0-1.849.823,4.457,4.457,0,0,0-.958,2.329l-.129.885-.035.516a2.9,2.9,0,0,0,.384,1.714,1.447,1.447,0,0,0,1.245.659A2.193,2.193,0,0,0,4.9,11.77,2.846,2.846,0,0,0,5.783,10.3Zm4.8-.727H9.68L9.082,13H7.975L9.457,4.469l2.566.006a2.86,2.86,0,0,1,2.045.68,2.123,2.123,0,0,1,.592,1.836A2.43,2.43,0,0,1,14.077,8.4a3.185,3.185,0,0,1-1.38.921l1.324,3.6L14.016,13H12.844ZM9.838,8.629l1.617.006a2.259,2.259,0,0,0,1.424-.448,1.745,1.745,0,0,0,.68-1.2,1.378,1.378,0,0,0-.293-1.148,1.565,1.565,0,0,0-1.16-.439L10.4,5.395Zm5.8.932a11.092,11.092,0,0,1,.718-2.637,8.171,8.171,0,0,1,1.286-2.188,5.284,5.284,0,0,1,1.7-1.368l.158.727a6.081,6.081,0,0,0-1.579,1.79A9.211,9.211,0,0,0,16.9,8.509a12.626,12.626,0,0,0-.346,3,6.637,6.637,0,0,0,.313,2.136,3.371,3.371,0,0,0,.905,1.456l-.264.656a4.231,4.231,0,0,1-1.5-2.01,7.752,7.752,0,0,1-.472-3.047,9.263,9.263,0,0,1,.082-1.072Zm6.023,3.557a1.925,1.925,0,0,1-1.617-.765,3.394,3.394,0,0,1-.492-2.136q.012-.434.064-.855l.211-1.424A5.282,5.282,0,0,1,20.9,5.219a2.564,2.564,0,0,1,2.086-.867,1.948,1.948,0,0,1,1.626.747,3.319,3.319,0,0,1,.5,2.1q-.018.439-.07.861l-.205,1.377a5.6,5.6,0,0,1-1.1,2.818A2.548,2.548,0,0,1,21.662,13.117Zm2.35-5.25a9.069,9.069,0,0,0,.076-1.1q-.029-1.488-1.154-1.529a1.54,1.54,0,0,0-1.327.606,4.2,4.2,0,0,0-.706,2l-.252,1.7a8.643,8.643,0,0,0-.076,1.107q.029,1.553,1.148,1.594a1.505,1.505,0,0,0,1.286-.574A4.072,4.072,0,0,0,23.73,9.73Zm31.16,1.705a10.872,10.872,0,0,1-.744,2.7,8.131,8.131,0,0,1-1.292,2.15,5.372,5.372,0,0,1-1.667,1.333l-.164-.674a7.693,7.693,0,0,0,2.684-4.857,12.625,12.625,0,0,0,.258-2.6,4.776,4.776,0,0,0-1.219-3.6l.275-.656a3.884,3.884,0,0,1,1.11,1.216,5.734,5.734,0,0,1,.668,1.764,9.032,9.032,0,0,1,.19,2.083,10.008,10.008,0,0,1-.088,1.072Z" transform="translate(372 4689)" fill="#12263f"/>
    <path id="Trazado_725363" data-name="Trazado 725363" d="M8.4,17H.945V15.961l3.938-4.375A9.355,9.355,0,0,0,6.09,9.973a2.693,2.693,0,0,0,.332-1.285,2.041,2.041,0,0,0-.539-1.461,1.885,1.885,0,0,0-1.437-.57A2.232,2.232,0,0,0,2.77,7.27a2.343,2.343,0,0,0-.6,1.707H.727A3.355,3.355,0,0,1,1.738,6.438a3.751,3.751,0,0,1,2.707-.969A3.6,3.6,0,0,1,6.953,6.3a2.838,2.838,0,0,1,.922,2.215q0,1.68-2.141,4l-3.047,3.3H8.4Zm6.281,0H13.227V7.367l-2.914,1.07V7.125L14.453,5.57h.227Zm11.352-4.242H22.219v-1.18h3.813Zm5.094-4.945a2.308,2.308,0,0,1,.652-1.687,2.451,2.451,0,0,1,3.359,0,2.388,2.388,0,0,1,.645,1.73v.555a2.278,2.278,0,0,1-.652,1.684,2.249,2.249,0,0,1-1.66.652,2.3,2.3,0,0,1-1.68-.652,2.326,2.326,0,0,1-.664-1.738Zm1.078.6a1.478,1.478,0,0,0,.344,1.006,1.16,1.16,0,0,0,.922.4,1.137,1.137,0,0,0,.895-.384A1.527,1.527,0,0,0,34.7,8.38V7.808a1.515,1.515,0,0,0-.336-1.01,1.246,1.246,0,0,0-1.828,0A1.563,1.563,0,0,0,32.2,7.839Zm4.461,5.8a2.3,2.3,0,0,1,.652-1.684,2.467,2.467,0,0,1,3.355,0,2.355,2.355,0,0,1,.656,1.742v.555a2.3,2.3,0,0,1-.652,1.684,2.244,2.244,0,0,1-1.668.66,2.3,2.3,0,0,1-1.68-.652,2.326,2.326,0,0,1-.664-1.738Zm1.078.606a1.49,1.49,0,0,0,.344,1.014,1.16,1.16,0,0,0,.922.4,1.129,1.129,0,0,0,.9-.388,1.553,1.553,0,0,0,.336-1.053v-.579a1.485,1.485,0,0,0-.34-1.01,1.249,1.249,0,0,0-1.812,0,1.508,1.508,0,0,0-.348,1.045ZM33.8,16.141l-.82-.516,5.555-8.891.82.516Zm16.3-3.992a6.61,6.61,0,0,1-.867,3.773,3.084,3.084,0,0,1-2.711,1.234,3.107,3.107,0,0,1-2.7-1.207,6.274,6.274,0,0,1-.906-3.605v-1.93a6.463,6.463,0,0,1,.867-3.727,3.108,3.108,0,0,1,2.719-1.219,3.136,3.136,0,0,1,2.7,1.176,6.237,6.237,0,0,1,.891,3.629Zm-1.445-1.977A5.3,5.3,0,0,0,48.141,7.5a1.775,1.775,0,0,0-1.633-.84,1.751,1.751,0,0,0-1.617.836,5.171,5.171,0,0,0-.523,2.57v2.313A5.381,5.381,0,0,0,44.9,15.1a1.771,1.771,0,0,0,1.621.879,1.747,1.747,0,0,0,1.59-.828,5.186,5.186,0,0,0,.543-2.609Z" transform="translate(508 4667)" fill="#12263f"/>
    <path id="Trazado_725364" data-name="Trazado 725364" d="M5.566,13H.135l.129-.826L3.41,9.115l.574-.568a3.363,3.363,0,0,0,1.1-1.828,1.355,1.355,0,0,0-.252-1.052A1.185,1.185,0,0,0,3.9,5.236a1.746,1.746,0,0,0-1.283.448,2.059,2.059,0,0,0-.627,1.292L.943,6.982a2.967,2.967,0,0,1,.483-1.392A2.693,2.693,0,0,1,2.5,4.659a3.081,3.081,0,0,1,1.444-.308,2.367,2.367,0,0,1,1.685.642,1.9,1.9,0,0,1,.536,1.6A4.084,4.084,0,0,1,4.869,8.963l-.539.545L1.588,12.115H5.707Zm5.156-5.373-.5-.053a1.815,1.815,0,0,0-1.605.92L7.84,13H6.779l1.1-6.34,1.025-.006-.158.738a1.9,1.9,0,0,1,1.588-.861,1.945,1.945,0,0,1,.5.088Zm2.795,5.49a2.286,2.286,0,0,1-1.852-.873A3,3,0,0,1,11.1,10.07l.029-.252a4.218,4.218,0,0,1,.56-1.723,3.254,3.254,0,0,1,1.122-1.175,2.618,2.618,0,0,1,1.43-.378,2.016,2.016,0,0,1,1.535.65,2.675,2.675,0,0,1,.609,1.7,4.966,4.966,0,0,1-.023.762l-.064.486H12.158a2.142,2.142,0,0,0,.284,1.465,1.346,1.346,0,0,0,1.163.627,2.255,2.255,0,0,0,1.734-.844l.609.516a2.789,2.789,0,0,1-1.028.9A2.914,2.914,0,0,1,13.518,13.117Zm.674-5.689a1.549,1.549,0,0,0-1.146.445A3.165,3.165,0,0,0,12.27,9.25l3.082.006.023-.094a1.734,1.734,0,0,0-.237-1.228A1.116,1.116,0,0,0,14.191,7.428ZM17.514,13l.961-5.5H17.5l.146-.838h.973l.105-.75a2.488,2.488,0,0,1,.738-1.494,2.195,2.195,0,0,1,1.57-.551,3.663,3.663,0,0,1,.756.1l-.129.89a3.477,3.477,0,0,0-.568-.07,1.211,1.211,0,0,0-.894.342,1.555,1.555,0,0,0-.425.908l-.094.625h1.313l-.146.838H19.529L18.574,13Z" transform="translate(561 4675)" fill="#12263f"/>
    <path id="Trazado_725365" data-name="Trazado 725365" d="M84,0H0" transform="translate(501.5 4691.5)" fill="none" stroke="#12263f" stroke-width="2"/>
    <path id="Trazado_725366" data-name="Trazado 725366" d="M8.4,17H.945V15.961l3.938-4.375A9.355,9.355,0,0,0,6.09,9.973a2.693,2.693,0,0,0,.332-1.285,2.041,2.041,0,0,0-.539-1.461,1.885,1.885,0,0,0-1.437-.57A2.232,2.232,0,0,0,2.77,7.27a2.343,2.343,0,0,0-.6,1.707H.727A3.355,3.355,0,0,1,1.738,6.438a3.751,3.751,0,0,1,2.707-.969A3.6,3.6,0,0,1,6.953,6.3a2.838,2.838,0,0,1,.922,2.215q0,1.68-2.141,4l-3.047,3.3H8.4Zm6.281,0H13.227V7.367l-2.914,1.07V7.125L14.453,5.57h.227Zm4.109-9.187a2.308,2.308,0,0,1,.652-1.687,2.451,2.451,0,0,1,3.359,0,2.388,2.388,0,0,1,.645,1.73v.555a2.278,2.278,0,0,1-.652,1.684,2.249,2.249,0,0,1-1.66.652,2.3,2.3,0,0,1-1.68-.652,2.326,2.326,0,0,1-.664-1.738Zm1.078.6a1.478,1.478,0,0,0,.344,1.006,1.16,1.16,0,0,0,.922.4,1.137,1.137,0,0,0,.895-.384,1.527,1.527,0,0,0,.34-1.049V7.808a1.515,1.515,0,0,0-.336-1.01,1.246,1.246,0,0,0-1.828,0,1.563,1.563,0,0,0-.336,1.041Zm4.461,5.8a2.3,2.3,0,0,1,.652-1.684,2.467,2.467,0,0,1,3.355,0,2.355,2.355,0,0,1,.656,1.742v.555A2.3,2.3,0,0,1,28.34,16.5a2.244,2.244,0,0,1-1.668.66,2.3,2.3,0,0,1-1.68-.652,2.326,2.326,0,0,1-.664-1.738Zm1.078.606a1.49,1.49,0,0,0,.344,1.014,1.16,1.16,0,0,0,.922.4,1.129,1.129,0,0,0,.9-.388,1.553,1.553,0,0,0,.336-1.053v-.579a1.485,1.485,0,0,0-.34-1.01,1.249,1.249,0,0,0-1.812,0,1.508,1.508,0,0,0-.348,1.045Zm-3.945,1.323-.82-.516L26.2,6.734l.82.516ZM37.75,12.758H33.938v-1.18H37.75Zm4.242-1.125,1.875-3.086h1.688l-2.766,4.18L45.641,17H43.969l-1.953-3.164L40.063,17h-1.68l2.852-4.273-2.766-4.18h1.672Zm4.82-3.82a2.308,2.308,0,0,1,.652-1.687,2.451,2.451,0,0,1,3.359,0,2.388,2.388,0,0,1,.645,1.73v.555a2.278,2.278,0,0,1-.652,1.684,2.249,2.249,0,0,1-1.66.652,2.3,2.3,0,0,1-1.68-.652,2.326,2.326,0,0,1-.664-1.738Zm1.078.6a1.478,1.478,0,0,0,.344,1.006,1.16,1.16,0,0,0,.922.4,1.137,1.137,0,0,0,.895-.384,1.527,1.527,0,0,0,.34-1.049V7.808a1.515,1.515,0,0,0-.336-1.01,1.246,1.246,0,0,0-1.828,0,1.563,1.563,0,0,0-.336,1.041Zm4.461,5.8A2.3,2.3,0,0,1,53,12.527a2.467,2.467,0,0,1,3.355,0,2.355,2.355,0,0,1,.656,1.742v.555a2.3,2.3,0,0,1-.652,1.684,2.244,2.244,0,0,1-1.668.66,2.3,2.3,0,0,1-1.68-.652,2.326,2.326,0,0,1-.664-1.738Zm1.078.606a1.49,1.49,0,0,0,.344,1.014,1.16,1.16,0,0,0,.922.4,1.129,1.129,0,0,0,.9-.388,1.553,1.553,0,0,0,.336-1.053v-.579a1.485,1.485,0,0,0-.34-1.01,1.249,1.249,0,0,0-1.812,0,1.508,1.508,0,0,0-.348,1.045Zm-3.945,1.323-.82-.516,5.555-8.891.82.516Z" transform="translate(515 4692)" fill="#12263f"/>
    <path id="Trazado_725367" data-name="Trazado 725367" d="M5.566,13H.135l.129-.826L3.41,9.115l.574-.568a3.363,3.363,0,0,0,1.1-1.828,1.355,1.355,0,0,0-.252-1.052A1.185,1.185,0,0,0,3.9,5.236a1.746,1.746,0,0,0-1.283.448,2.059,2.059,0,0,0-.627,1.292L.943,6.982a2.967,2.967,0,0,1,.483-1.392A2.693,2.693,0,0,1,2.5,4.659a3.081,3.081,0,0,1,1.444-.308,2.367,2.367,0,0,1,1.685.642,1.9,1.9,0,0,1,.536,1.6A4.084,4.084,0,0,1,4.869,8.963l-.539.545L1.588,12.115H5.707Zm8.1-5.373-.5-.053a1.815,1.815,0,0,0-1.605.92L10.781,13H9.721l1.1-6.34,1.025-.006-.158.738a1.9,1.9,0,0,1,1.588-.861,1.945,1.945,0,0,1,.5.088Zm2.795,5.49a2.286,2.286,0,0,1-1.852-.873,3,3,0,0,1-.562-2.174l.029-.252a4.218,4.218,0,0,1,.56-1.723,3.254,3.254,0,0,1,1.122-1.175,2.618,2.618,0,0,1,1.43-.378,2.016,2.016,0,0,1,1.535.65,2.675,2.675,0,0,1,.609,1.7,4.966,4.966,0,0,1-.023.762l-.064.486H15.1a2.142,2.142,0,0,0,.284,1.465,1.346,1.346,0,0,0,1.163.627,2.255,2.255,0,0,0,1.734-.844l.609.516a2.789,2.789,0,0,1-1.028.9A2.914,2.914,0,0,1,16.459,13.117Zm.674-5.689a1.549,1.549,0,0,0-1.146.445,3.165,3.165,0,0,0-.776,1.377l3.082.006.023-.094a1.734,1.734,0,0,0-.237-1.228A1.116,1.116,0,0,0,17.133,7.428ZM20.455,13l.961-5.5h-.979l.146-.838h.973l.105-.75A2.488,2.488,0,0,1,22.4,4.416a2.195,2.195,0,0,1,1.57-.551,3.663,3.663,0,0,1,.756.1l-.129.89a3.477,3.477,0,0,0-.568-.07,1.211,1.211,0,0,0-.894.342,1.555,1.555,0,0,0-.425.908l-.094.625H23.93l-.146.838H22.471L21.516,13Z" transform="translate(397 4694)" fill="#12263f"/>
    <path id="Trazado_725368" data-name="Trazado 725368" d="M6.85,10.281a3.4,3.4,0,0,1-1.2,2.1,3.357,3.357,0,0,1-2.282.738,2.658,2.658,0,0,1-1.383-.39,2.462,2.462,0,0,1-.92-1.072A4,4,0,0,1,.7,10.105a4.967,4.967,0,0,1,.041-.937l.1-.7A5.307,5.307,0,0,1,2.194,5.433,3.408,3.408,0,0,1,4.811,4.352a2.552,2.552,0,0,1,1.9.776,3.088,3.088,0,0,1,.744,2.089h-1.1Q6.287,5.424,4.957,5.283l-.193-.012a2.264,2.264,0,0,0-1.849.823,4.457,4.457,0,0,0-.958,2.329l-.129.885-.035.516a2.9,2.9,0,0,0,.384,1.714,1.447,1.447,0,0,0,1.245.659A2.193,2.193,0,0,0,4.9,11.77,2.846,2.846,0,0,0,5.783,10.3Zm4.8-.727H9.68L9.082,13H7.975L9.457,4.469l2.566.006a2.86,2.86,0,0,1,2.045.68,2.123,2.123,0,0,1,.592,1.836A2.43,2.43,0,0,1,14.077,8.4a3.185,3.185,0,0,1-1.38.921l1.324,3.6L14.016,13H12.844ZM9.838,8.629l1.617.006a2.259,2.259,0,0,0,1.424-.448,1.745,1.745,0,0,0,.68-1.2,1.378,1.378,0,0,0-.293-1.148,1.565,1.565,0,0,0-1.16-.439L10.4,5.395Zm5.8.932a11.092,11.092,0,0,1,.718-2.637,8.171,8.171,0,0,1,1.286-2.188,5.284,5.284,0,0,1,1.7-1.368l.158.727a6.081,6.081,0,0,0-1.579,1.79A9.211,9.211,0,0,0,16.9,8.509a12.626,12.626,0,0,0-.346,3,6.637,6.637,0,0,0,.313,2.136,3.371,3.371,0,0,0,.905,1.456l-.264.656a4.231,4.231,0,0,1-1.5-2.01,7.752,7.752,0,0,1-.472-3.047,9.263,9.263,0,0,1,.082-1.072ZM22.8,7.732l2.49-3.264h1.359L23.326,8.752,25.313,13H24.076L22.564,9.678,20,13H18.639l3.393-4.354L20.1,4.469h1.219Zm15.48,1.84a10.872,10.872,0,0,1-.744,2.7,8.131,8.131,0,0,1-1.292,2.15,5.372,5.372,0,0,1-1.667,1.333l-.164-.674A7.693,7.693,0,0,0,37.1,10.229a12.625,12.625,0,0,0,.258-2.6,4.776,4.776,0,0,0-1.219-3.6l.275-.656a3.884,3.884,0,0,1,1.11,1.216,5.734,5.734,0,0,1,.668,1.764,9.032,9.032,0,0,1,.19,2.083,10.008,10.008,0,0,1-.088,1.072Zm5.777-2.335-1.77-.527.27-.884,1.77.656-.053-2.014h.9l-.059,2.043,1.74-.644.27.89-1.8.533,1.16,1.588-.727.551-1.09-1.687L43.611,9.388l-.732-.533Z" transform="translate(451 4689)" fill="#12263f"/>
    <path id="Trazado_725369" data-name="Trazado 725369" d="M3.076,4.34A1.47,1.47,0,0,1,4.2,4.858a1.7,1.7,0,0,1,.372,1.251l-.035.451a2,2,0,0,1-.618,1.283,1.7,1.7,0,0,1-1.263.475A1.45,1.45,0,0,1,1.523,7.8a1.679,1.679,0,0,1-.381-1.242l.035-.375A2.037,2.037,0,0,1,1.79,4.835,1.764,1.764,0,0,1,3.076,4.34ZM1.934,6.57a1.137,1.137,0,0,0,.173.755.7.7,0,0,0,.577.291.909.909,0,0,0,.694-.285,1.306,1.306,0,0,0,.36-.772L3.791,6.1a1.147,1.147,0,0,0-.152-.746.676.676,0,0,0-.586-.311.921.921,0,0,0-.7.288,1.311,1.311,0,0,0-.363.775ZM6.27,9.145a1.471,1.471,0,0,1,1.143.524,1.7,1.7,0,0,1,.369,1.239l-.035.393A2.055,2.055,0,0,1,7.14,12.64a1.694,1.694,0,0,1-1.28.489,1.46,1.46,0,0,1-1.134-.51,1.68,1.68,0,0,1-.384-1.254l.035-.4a2.051,2.051,0,0,1,.6-1.324A1.739,1.739,0,0,1,6.27,9.145Zm-1.137,2.23a1.172,1.172,0,0,0,.167.755.689.689,0,0,0,.583.3.9.9,0,0,0,.7-.288,1.338,1.338,0,0,0,.354-.775L6.99,10.9a1.135,1.135,0,0,0-.152-.74.676.676,0,0,0-.586-.311.917.917,0,0,0-.709.288,1.323,1.323,0,0,0-.357.769Zm-3.023.969-.58-.422L6.691,5.313l.58.416Z" transform="translate(476 4694)" fill="#12263f"/>
  </g>
</svg>
