<svg xmlns="http://www.w3.org/2000/svg" width="208" height="87" viewBox="0 0 208 87">
  <g id="Grupo_957983" data-name="Grupo 957983" transform="translate(-372 -5062)">
    <path id="Trazado_725360" data-name="Trazado 725360" d="M20,0H188a20,20,0,0,1,20,20V67a20,20,0,0,1-20,20H20A20,20,0,0,1,0,67V20A20,20,0,0,1,20,0Z" transform="translate(372 5062)" fill="#badc61"/>
    <path id="Trazado_725361" data-name="Trazado 725361" d="M7.859,12.352h-4.5V17H1.016V5.625H8.422v1.9H3.359v2.938h4.5Zm10.852.859A4.025,4.025,0,0,1,17.355,16.1a4.76,4.76,0,0,1-3.223,1.055,4.28,4.28,0,0,1-3.441-1.473,6.038,6.038,0,0,1-1.254-4.043v-.7a6.819,6.819,0,0,1,.578-2.891,4.332,4.332,0,0,1,1.652-1.918,4.629,4.629,0,0,1,2.5-.668,4.637,4.637,0,0,1,3.172,1.055,4.326,4.326,0,0,1,1.391,2.961H16.383a2.376,2.376,0,0,0-.613-1.6,2.271,2.271,0,0,0-1.605-.5,1.991,1.991,0,0,0-1.754.84,4.707,4.707,0,0,0-.6,2.605V11.7a5.038,5.038,0,0,0,.559,2.7,1.954,1.954,0,0,0,1.762.852,2.314,2.314,0,0,0,1.621-.5,2.241,2.241,0,0,0,.613-1.535Zm12.555-2.039H24.281V9.328h6.984Zm0,3.383H24.281V12.711h6.984Z" transform="translate(414 5101)" fill="#12263f"/>
    <path id="Trazado_725362" data-name="Trazado 725362" d="M84,0H0" transform="translate(454.5 5110.5)" fill="none" stroke="#12263f" stroke-width="2"/>
    <path id="Trazado_725363" data-name="Trazado 725363" d="M5.7,17H4.242V7.367L1.328,8.438V7.125L5.469,5.57H5.7Zm11.367-4.852a6.61,6.61,0,0,1-.867,3.773,3.084,3.084,0,0,1-2.711,1.234,3.107,3.107,0,0,1-2.7-1.207,6.274,6.274,0,0,1-.906-3.605v-1.93a6.463,6.463,0,0,1,.867-3.727,3.108,3.108,0,0,1,2.719-1.219,3.136,3.136,0,0,1,2.7,1.176,6.237,6.237,0,0,1,.891,3.629Zm-1.445-1.977A5.3,5.3,0,0,0,15.1,7.5a1.775,1.775,0,0,0-1.633-.84,1.751,1.751,0,0,0-1.617.836,5.171,5.171,0,0,0-.523,2.57v2.313a5.381,5.381,0,0,0,.535,2.723,1.771,1.771,0,0,0,1.621.879,1.747,1.747,0,0,0,1.59-.828,5.186,5.186,0,0,0,.543-2.609Zm10.43,1.977a6.61,6.61,0,0,1-.867,3.773,3.084,3.084,0,0,1-2.711,1.234,3.107,3.107,0,0,1-2.7-1.207,6.274,6.274,0,0,1-.906-3.605v-1.93a6.463,6.463,0,0,1,.867-3.727,3.108,3.108,0,0,1,2.719-1.219,3.136,3.136,0,0,1,2.7,1.176,6.237,6.237,0,0,1,.891,3.629ZM24.6,10.172A5.3,5.3,0,0,0,24.086,7.5a1.775,1.775,0,0,0-1.633-.84,1.751,1.751,0,0,0-1.617.836,5.171,5.171,0,0,0-.523,2.57v2.313a5.381,5.381,0,0,0,.535,2.723,1.771,1.771,0,0,0,1.621.879,1.747,1.747,0,0,0,1.59-.828,5.186,5.186,0,0,0,.543-2.609Zm10.43,1.977a6.61,6.61,0,0,1-.867,3.773,3.084,3.084,0,0,1-2.711,1.234,3.107,3.107,0,0,1-2.7-1.207,6.274,6.274,0,0,1-.906-3.605v-1.93a6.463,6.463,0,0,1,.867-3.727,3.108,3.108,0,0,1,2.719-1.219,3.136,3.136,0,0,1,2.7,1.176,6.237,6.237,0,0,1,.891,3.629Zm-1.445-1.977A5.3,5.3,0,0,0,33.07,7.5a1.775,1.775,0,0,0-1.633-.84,1.751,1.751,0,0,0-1.617.836,5.171,5.171,0,0,0-.523,2.57v2.313a5.381,5.381,0,0,0,.535,2.723,1.771,1.771,0,0,0,1.621.879,1.747,1.747,0,0,0,1.59-.828,5.186,5.186,0,0,0,.543-2.609Zm10.43,1.977a6.61,6.61,0,0,1-.867,3.773,3.084,3.084,0,0,1-2.711,1.234,3.107,3.107,0,0,1-2.7-1.207,6.274,6.274,0,0,1-.906-3.605v-1.93A6.463,6.463,0,0,1,37.7,6.688a3.108,3.108,0,0,1,2.719-1.219,3.136,3.136,0,0,1,2.7,1.176,6.237,6.237,0,0,1,.891,3.629ZM42.57,10.172A5.3,5.3,0,0,0,42.055,7.5a1.775,1.775,0,0,0-1.633-.84,1.751,1.751,0,0,0-1.617.836,5.171,5.171,0,0,0-.523,2.57v2.313a5.381,5.381,0,0,0,.535,2.723,1.771,1.771,0,0,0,1.621.879,1.747,1.747,0,0,0,1.59-.828,5.186,5.186,0,0,0,.543-2.609ZM53,12.148a6.61,6.61,0,0,1-.867,3.773,3.6,3.6,0,0,1-5.406.027,6.274,6.274,0,0,1-.906-3.605v-1.93a6.463,6.463,0,0,1,.867-3.727,3.668,3.668,0,0,1,5.422-.043A6.237,6.237,0,0,1,53,10.273Zm-1.445-1.977A5.3,5.3,0,0,0,51.039,7.5a1.775,1.775,0,0,0-1.633-.84,1.751,1.751,0,0,0-1.617.836,5.171,5.171,0,0,0-.523,2.57v2.313A5.381,5.381,0,0,0,47.8,15.1a1.771,1.771,0,0,0,1.621.879,1.747,1.747,0,0,0,1.59-.828,5.186,5.186,0,0,0,.543-2.609Zm10.43,1.977a6.61,6.61,0,0,1-.867,3.773,3.6,3.6,0,0,1-5.406.027,6.274,6.274,0,0,1-.906-3.605v-1.93a6.463,6.463,0,0,1,.867-3.727,3.668,3.668,0,0,1,5.422-.043,6.237,6.237,0,0,1,.891,3.629Zm-1.445-1.977A5.3,5.3,0,0,0,60.023,7.5a1.775,1.775,0,0,0-1.633-.84,1.751,1.751,0,0,0-1.617.836,5.171,5.171,0,0,0-.523,2.57v2.313a5.381,5.381,0,0,0,.535,2.723,1.771,1.771,0,0,0,1.621.879A1.747,1.747,0,0,0,60,15.148a5.186,5.186,0,0,0,.543-2.609Z" transform="translate(463 5111)" fill="#12263f"/>
    <path id="Trazado_725364" data-name="Trazado 725364" d="M9.133,13.375a4.535,4.535,0,0,1-1.6,2.8,4.476,4.476,0,0,1-3.043.984,3.544,3.544,0,0,1-1.844-.52,3.283,3.283,0,0,1-1.227-1.43,5.34,5.34,0,0,1-.484-2.066,6.623,6.623,0,0,1,.055-1.25l.133-.937a7.076,7.076,0,0,1,1.8-4.043A4.544,4.544,0,0,1,6.414,5.469,3.4,3.4,0,0,1,8.953,6.5a4.117,4.117,0,0,1,.992,2.785H8.484Q8.383,6.9,6.609,6.711L6.352,6.7a3.019,3.019,0,0,0-2.465,1.1A5.942,5.942,0,0,0,2.609,10.9l-.172,1.18-.047.688A3.867,3.867,0,0,0,2.9,15.051a1.929,1.929,0,0,0,1.66.879,2.924,2.924,0,0,0,1.965-.57A3.8,3.8,0,0,0,7.711,13.4Z" transform="translate(462 5080)" fill="#12263f"/>
    <path id="Trazado_725365" data-name="Trazado 725365" d="M9.133,13.375a4.535,4.535,0,0,1-1.6,2.8,4.476,4.476,0,0,1-3.043.984,3.544,3.544,0,0,1-1.844-.52,3.283,3.283,0,0,1-1.227-1.43,5.34,5.34,0,0,1-.484-2.066,6.623,6.623,0,0,1,.055-1.25l.133-.937a7.076,7.076,0,0,1,1.8-4.043A4.544,4.544,0,0,1,6.414,5.469,3.4,3.4,0,0,1,8.953,6.5a4.117,4.117,0,0,1,.992,2.785H8.484Q8.383,6.9,6.609,6.711L6.352,6.7a3.019,3.019,0,0,0-2.465,1.1A5.942,5.942,0,0,0,2.609,10.9l-.172,1.18-.047.688A3.867,3.867,0,0,0,2.9,15.051a1.929,1.929,0,0,0,1.66.879,2.924,2.924,0,0,0,1.965-.57A3.8,3.8,0,0,0,7.711,13.4Zm6.4-.969H12.906L12.109,17H10.633L12.609,5.625l3.422.008a3.814,3.814,0,0,1,2.727.907,2.83,2.83,0,0,1,.789,2.448,3.241,3.241,0,0,1-.777,1.885A4.247,4.247,0,0,1,16.93,12.1L18.7,16.9l-.008.1H17.125Zm-2.414-1.234,2.156.008a3.012,3.012,0,0,0,1.9-.6,2.326,2.326,0,0,0,.906-1.6,1.837,1.837,0,0,0-.391-1.531,2.087,2.087,0,0,0-1.547-.586l-2.273-.008ZM26.734,9.285l-2.164-.7L25.1,7.459l2.172.882.4-2.716h1.172L28.3,8.31l2.367-.843.148,1.241-2.461.71L29.5,11.566l-1,.688L27.477,9.988l-1.734,2.188-.891-.766Zm10.852,7.121,1.7,1.633-1.086.883-1.984-1.9a5.457,5.457,0,0,1-1.156.125,3.507,3.507,0,0,1-1.883-.52,3.375,3.375,0,0,1-1.262-1.477,5.638,5.638,0,0,1-.5-2.184,10.385,10.385,0,0,1,.207-2.348,7.953,7.953,0,0,1,.871-2.461,5.733,5.733,0,0,1,1.492-1.77,4.44,4.44,0,0,1,2.859-.922A3.69,3.69,0,0,1,38.758,6a3.325,3.325,0,0,1,1.258,1.473,5.684,5.684,0,0,1,.492,2.184,8.388,8.388,0,0,1-.055,1.3l-.094.664A6.3,6.3,0,0,1,37.586,16.406Zm1.469-6.391a3.866,3.866,0,0,0-.539-2.4,2.068,2.068,0,0,0-1.734-.867,2.963,2.963,0,0,0-1.871.563A4.258,4.258,0,0,0,33.559,9.09a9.158,9.158,0,0,0-.668,3l-.023.508a5.045,5.045,0,0,0,.211,1.68,2.307,2.307,0,0,0,.77,1.188,2.169,2.169,0,0,0,1.293.43,2.957,2.957,0,0,0,2.418-1.039,5.983,5.983,0,0,0,1.309-3.086A13.433,13.433,0,0,0,39.055,10.016Z" transform="translate(471 5088)" fill="#12263f"/>
    <path id="Trazado_725366" data-name="Trazado 725366" d="M7.42,11.055a3.684,3.684,0,0,1-1.3,2.272,3.637,3.637,0,0,1-2.472.8,2.879,2.879,0,0,1-1.5-.422,2.667,2.667,0,0,1-1-1.162,4.339,4.339,0,0,1-.394-1.679A5.381,5.381,0,0,1,.806,9.849l.108-.762A5.749,5.749,0,0,1,2.377,5.8,3.692,3.692,0,0,1,5.211,4.631a2.765,2.765,0,0,1,2.063.841,3.345,3.345,0,0,1,.806,2.263H6.894Q6.811,5.792,5.37,5.64l-.209-.013a2.453,2.453,0,0,0-2,.892A4.828,4.828,0,0,0,2.12,9.042L1.98,10l-.038.559a3.142,3.142,0,0,0,.416,1.857,1.568,1.568,0,0,0,1.349.714,2.376,2.376,0,0,0,1.6-.463,3.083,3.083,0,0,0,.962-1.593Zm5.2-.787H10.486L9.839,14h-1.2l1.606-9.242,2.78.006a3.1,3.1,0,0,1,2.215.737,2.3,2.3,0,0,1,.641,1.989,2.633,2.633,0,0,1-.632,1.532,3.45,3.45,0,0,1-1.495,1l1.435,3.9L15.184,14h-1.27Zm-1.961-1,1.752.006a2.447,2.447,0,0,0,1.542-.486,1.89,1.89,0,0,0,.736-1.3,1.493,1.493,0,0,0-.317-1.244,1.7,1.7,0,0,0-1.257-.476l-1.847-.006Z" transform="translate(514 5095)" fill="#12263f"/>
  </g>
</svg>
