<svg xmlns="http://www.w3.org/2000/svg" width="130" height="130" viewBox="0 0 130 130">
  <g id="Grupo_957920" data-name="Grupo 957920" transform="translate(-557 -3175)">
    <circle id="Elipse_6688" data-name="Elipse 6688" cx="65" cy="65" r="65" transform="translate(557 3175)" fill="#ffe0ab"/>
    <g id="Grupo_956871" data-name="Grupo 956871" transform="translate(587.147 3206)">
      <g id="Grupo_956872" data-name="Grupo 956872" transform="translate(0 0)">
        <path id="Trazado_721046" data-name="Trazado 721046" d="M0,41.544c1.391-1.364,2.793-2.717,4.163-4.1A1.344,1.344,0,0,1,5.264,37c.928.034,1.859.01,2.8.01a7.69,7.69,0,0,1,5.64-6.607,7.735,7.735,0,0,1,8.388,2.253V8.9h.76c3.953,0,7.906-.007,11.859.01a1.091,1.091,0,0,0,.958-.437c.868-1.068,1.752-2.124,2.672-3.147a1.465,1.465,0,0,1,.876-.412A19.055,19.055,0,0,1,41.131,4.9V.927h8.029V4.9c.689,0,1.309-.042,1.919.018a1.5,1.5,0,0,1,.889.391c.944,1,1.862,2.029,2.742,3.087a1.364,1.364,0,0,0,1.192.52c3.864-.019,7.728-.01,11.593-.01h.746V69.137h-6a.143.143,0,0,0-.031-.113q0-.421,0-.841c.015-.342.03-.684.048-1.078h3.953V65.134c.008-.133.023-.265.023-.4q0-26.622,0-53.243c0-.189-.025-.377-.037-.534H55.3v1.976h8.93v.681q0,25.455,0,50.911c0,.2-.012.4-.019.6H32.171v2.041H56.184l.062.9q0,.533,0,1.066H0V41.544M45.186,4.872h1.947V2.915H43.217V4.872ZM11.464,34.218l0-.006a5.893,5.893,0,0,0-.671,6.81l-.7.482L9,42.042l-1.005-3c-1.342-.057-2.788-.36-3.69,1.132l-.033.058c-.6.589-1.189,1.195-1.813,1.759a1.34,1.34,0,0,0-.461,1.1Q2.014,54.752,2,66.411v.681H30.1V65c.006-.066.018-.132.018-.2q0-10.957-.011-21.914a1.189,1.189,0,0,0-.314-.741c-.92-.962-1.87-1.9-2.82-2.831a.883.883,0,0,0-.486-.292c-.815-.03-1.631-.014-2.423-.014a7.826,7.826,0,0,1-6.08,6.73,7.448,7.448,0,0,1-7.329-1.791l.679-.822.655-.624c2.6,1.905,5.3,2.034,7.5.376a5.5,5.5,0,0,0,2.5-5.851,5.675,5.675,0,0,0-4.306-4.8,5.514,5.514,0,0,0-6.094,1.841l-.117.151m14.671-21.3h9.012V10.941H24.153V36.954h1.993V26.929l1.044-.053.924.073c0,3.363.008,6.671-.009,9.978a1.432,1.432,0,0,0,.463,1.163c1.045.995,2.037,2.045,3.079,3.044a1.44,1.44,0,0,1,.486,1.152q-.026,10.027-.012,20.053v.746H62.2V61.134c.01-.177.027-.354.027-.531q0-22.522,0-45.044c0-.192-.019-.384-.03-.592H55.249v1.938H41.191c-.02-.295-.038-.556-.056-.818.021-.369.043-.738.068-1.173h12.02V13.138a13.816,13.816,0,0,1,.056-1.588A3.229,3.229,0,0,0,52.1,8.438c-.382-.33-.651-.791-1.033-1.122a1.533,1.533,0,0,0-.891-.4c-3.3-.028-6.6-.006-9.9-.029A1.039,1.039,0,0,0,39.16,7.5a9.164,9.164,0,0,1-.845.933,3.4,3.4,0,0,0-1.137,3.137c.09,1.095.019,2.2.019,3.382h1.928c.023.43.042.782.061,1.134l-.066.812H35.166V14.977H28.1V25.031H26.262c-.05-.11-.144-.22-.144-.329q0-5.892.017-11.784" transform="translate(0 -0.927)" fill="#020202"/>
        <path id="Trazado_721047" data-name="Trazado 721047" d="M328.85,374.962h-2q-.028-.529-.056-1.058c.019-.3.038-.6.057-.9h1.959c.018.329.033.611.048.894q0,.532-.01,1.064" transform="translate(-268.606 -306.752)" fill="#030304"/>
        <path id="Trazado_721050" data-name="Trazado 721050" d="M348.819,383.478l.1-.113a.144.144,0,0,1,.031.113Z" transform="translate(-286.709 -315.268)" fill="#a3d5f3"/>
        <path id="Trazado_721051" data-name="Trazado 721051" d="M169.217,79.789h5.035v1.919h3.955l.066-.812,1.948,0c.018.262.036.523.057.818h14.058V79.779h6.949c.011.207.03.4.03.592q0,22.522,0,45.044c0,.177-.018.354-.027.531l-27.1,0c-.845,0-.846,0-.846-.882,0-6.149-.01-12.3.016-18.448a1.834,1.834,0,0,0-.641-1.5c-1.062-.972-2.1-1.974-3.116-2.992a1.267,1.267,0,0,1-.371-.79c-.017-5.172-.007-10.345,0-15.518.221,0,.443.011.664.011,1.555,0,1.545,0,1.459-1.531-.019-.333-.113-.485-.463-.472-.553.02-1.106.011-1.66.015q0-2.025-.006-4.05m13.2,8.033L180,100.754h2.1l1.545-8.484c.162.4.278.635.352.882q.935,3.116,1.856,6.237c.434,1.469.432,1.483,2,1.384a.728.728,0,0,0,.521-.41c.35-1.119.646-2.255.964-3.385q.663-2.357,1.332-4.712l.1.012,1.679,8.483h2.1L191.933,87.8c-.579,0-1.133-.036-1.678.02a.742.742,0,0,0-.512.415c-.263.775-.463,1.571-.687,2.358-.587,2.06-1.174,4.121-1.809,6.349l-2.737-9.123Zm-12.283,12.956c1.689,0,3.349.042,5.005-.01a3.983,3.983,0,0,0,3.738-4.509,4.034,4.034,0,0,0-1.849-2.916c.049-.1.073-.165.105-.222a3.477,3.477,0,0,0-3.054-5.318c-.488,0-.977,0-1.465,0h-2.481Zm27.139,6.03H180.285v1.922h16.988Zm-17,12.026h16.992v-1.925H180.273Zm16.12-18.084h1.941V87.729h-1.941Zm-16.124,12.022h4.94v-1.939h-4.94Zm-.021,10.059h4.958v-1.969h-4.958v1.969Zm-4.91-37.971c-.012-1.1.139-1.036-.885-1.03-1.2.006-1.117-.156-1.112.866,0,1.237-.158,1.131.915,1.129,1.2,0,1.072.148,1.082-.965" transform="translate(-139.085 -65.739)" fill="#e3e9f2"/>
        <path id="Trazado_721052" data-name="Trazado 721052" d="M23.887,215.885c.011-.019.022-.039.033-.058.9-1.491,2.347-1.189,3.689-1.131l1.006,3,1.1-.538,1.236,1.625-.679.822A7.448,7.448,0,0,0,37.6,221.4a7.826,7.826,0,0,0,6.08-6.73c.791,0,1.608-.017,2.423.014a.885.885,0,0,1,.486.292c.95.934,1.9,1.869,2.82,2.831a1.189,1.189,0,0,1,.314.741q.024,10.957.011,21.914c0,.066-.012.132-.018.2l-22.412.007c-.975,0-1.951-.011-2.926.005-.368.006-.512-.118-.507-.5.022-1.6.024-3.192.033-4.788.041.077.088.151.123.23a4.92,4.92,0,0,0,5.126,3,4.568,4.568,0,0,0,4.334-4.139,32.72,32.72,0,0,0,.085-5.111,4.668,4.668,0,0,0-2.5-3.995,4.97,4.97,0,0,0-7.078,2.5,4.318,4.318,0,0,1-.114-.693c-.012-2.16-.011-4.32-.013-6.481h1.958v-2.037H23.882q0-1.387,0-2.774m23.852,15.727-.105,0c0-.821.058-1.646-.011-2.461a4.947,4.947,0,0,0-9.857.181c-.066,1.551-.061,3.109,0,4.661a4.951,4.951,0,0,0,9.768.8,24.585,24.585,0,0,0,.205-3.182" transform="translate(-19.62 -176.58)" fill="#de8da1"/>
        <path id="Trazado_721053" data-name="Trazado 721053" d="M151.36,79.833q0,2.025.006,4.05,0,.989,0,1.978c0,5.173-.015,10.345,0,15.518a1.266,1.266,0,0,0,.371.79c1.018,1.019,2.054,2.02,3.116,2.992a1.835,1.835,0,0,1,.641,1.5c-.026,6.149-.015,12.3-.015,18.448,0,.881,0,.882.846.882l27.1,0v1.951H153.35V127.2q0-10.027.012-20.054a1.44,1.44,0,0,0-.486-1.152c-1.041-1-2.033-2.049-3.079-3.044a1.432,1.432,0,0,1-.463-1.163c.018-3.307.009-6.614.009-9.978l-.924-.073c0-.153,0-.307,0-.461,0-1.1,0-1.1-.927-1.385h1.841V79.833Z" transform="translate(-121.229 -65.783)" fill="#c8d5e7"/>
        <path id="Trazado_721054" data-name="Trazado 721054" d="M319.506,111.437c.007-.2.019-.4.019-.6q0-25.455,0-50.911v-.68H310.6V57.271h10.9c.011.156.037.345.037.534q0,26.622,0,53.243c0,.133-.015.265-.023.4l-2-.008" transform="translate(-255.292 -47.238)" fill="#c2e3f6"/>
        <path id="Trazado_721055" data-name="Trazado 721055" d="M13.47,221.667q0,1.387,0,2.774l-.012,2.037c0,2.16,0,4.32.014,6.481a4.317,4.317,0,0,0,.114.693,7.63,7.63,0,0,0-.318,1.618c.035,1.966.145,3.931.226,5.9-.009,1.6-.011,3.192-.033,4.788-.005.379.138.5.507.5.975-.017,1.951-.005,2.926-.006l22.412-.007v2.089H11.206v-.681q0-11.659-.01-23.319a1.339,1.339,0,0,1,.461-1.1c.624-.565,1.211-1.171,1.813-1.759" transform="translate(-9.202 -182.362)" fill="#cf5573"/>
        <path id="Trazado_721056" data-name="Trazado 721056" d="M64.39,177.324a5.514,5.514,0,0,1,6.094-1.841,5.676,5.676,0,0,1,4.306,4.8,5.5,5.5,0,0,1-2.5,5.851c-.4,0-.8,0-1.2,0a6.792,6.792,0,0,1-6.717-5.33,17.832,17.832,0,0,1-.1-3.341l0,.005.117-.15m3.439,4.917h1.945v-4.023H67.829Z" transform="translate(-52.809 -144.183)" fill="#faf3bc"/>
        <path id="Trazado_721057" data-name="Trazado 721057" d="M219.926,35.027a1.038,1.038,0,0,1,1.117-.608c3.3.024,6.6,0,9.9.029a1.533,1.533,0,0,1,.891.4c.382.331.65.792,1.033,1.122a3.23,3.23,0,0,1,1.175,3.112,13.9,13.9,0,0,0-.056,1.588c-4.48,0-8.96,0-13.441.021-.463,0-.611-.137-.606-.6.016-1.685-.007-3.371-.016-5.056m.96,3.558h1.934V36.642h-1.934Z" transform="translate(-180.766 -28.455)" fill="#e6a94b"/>
        <path id="Trazado_721058" data-name="Trazado 721058" d="M212.721,361.475l2,.008v1.971h-3.953l-.048,1.078-1.958-.111-.048-.893h-1.959c-.019.3-.038.6-.057.9l-1.943-.008c-.019-.284-.039-.569-.061-.9H180.678v-2.041Z" transform="translate(-148.507 -297.276)" fill="#a3d5f3"/>
        <path id="Trazado_721059" data-name="Trazado 721059" d="M137.757,71.254c.927.288.927.288.928,1.385q0,.231,0,.461l-1.044.053V83.178h-1.993V57.164h1.976q0,.988.006,1.977-.012,5.892-.017,11.784c0,.11.094.22.144.33" transform="translate(-111.495 -47.15)" fill="#a1d3f0"/>
        <path id="Trazado_721060" data-name="Trazado 721060" d="M210.679,37.835c.009,1.686.032,3.371.016,5.056,0,.467.143.605.607.6,4.48-.019,8.96-.017,13.441-.021v1.777h-12.02c-.025.435-.047.8-.068,1.173l-1.948,0c-.019-.352-.038-.7-.061-1.134h-1.928c0-1.179.071-2.287-.019-3.382a3.4,3.4,0,0,1,1.137-3.136,9.183,9.183,0,0,0,.845-.933" transform="translate(-171.519 -31.263)" fill="#de7539"/>
        <path id="Trazado_721061" data-name="Trazado 721061" d="M57.723,187.861a17.847,17.847,0,0,0,.1,3.341,6.791,6.791,0,0,0,6.716,5.33c.4,0,.8,0,1.2,0-2.195,1.659-4.9,1.53-7.5-.376l-.655.624-1.236-1.625.7-.482a5.893,5.893,0,0,1,.671-6.809" transform="translate(-46.255 -154.576)" fill="#f3e467"/>
        <path id="Trazado_721062" data-name="Trazado 721062" d="M146.75,59.141q0-.988-.006-1.977h9.018v1.977Z" transform="translate(-120.615 -47.15)" fill="#c3e4f8"/>
        <path id="Trazado_721063" data-name="Trazado 721063" d="M244.683,14.049h-1.969V12.092h1.97q0,.978,0,1.957" transform="translate(-199.496 -10.104)" fill="#de7539"/>
        <path id="Trazado_721064" data-name="Trazado 721064" d="M253.77,14.049q0-.978,0-1.957h1.946v1.957Z" transform="translate(-208.584 -10.104)" fill="#e6a94b"/>
        <path id="Trazado_721065" data-name="Trazado 721065" d="M64.5,187.047l-.117.15.117-.15" transform="translate(-52.919 -153.907)" fill="#f3e467"/>
        <path id="Trazado_721066" data-name="Trazado 721066" d="M232.213,124.8h2.093l2.737,9.123c.635-2.228,1.222-4.289,1.809-6.349.224-.788.424-1.584.687-2.358a.742.742,0,0,1,.512-.415c.545-.056,1.1-.02,1.677-.02l2.616,12.96h-2.1l-1.679-8.483-.1-.012q-.666,2.356-1.332,4.712c-.318,1.129-.614,2.265-.964,3.385a.729.729,0,0,1-.521.41c-1.563.1-1.561.085-2-1.384q-.923-3.12-1.856-6.237c-.074-.246-.19-.48-.352-.882l-1.545,8.484h-2.1l2.415-12.933" transform="translate(-188.88 -102.722)" fill="#030303"/>
        <path id="Trazado_721067" data-name="Trazado 721067" d="M174.378,137.808V124.833h2.481c.488,0,.977,0,1.465,0a3.477,3.477,0,0,1,3.054,5.318c-.032.057-.056.118-.105.221a4.035,4.035,0,0,1,1.849,2.916,3.983,3.983,0,0,1-3.738,4.509c-1.657.052-3.317.01-5.006.01m2-2.007c1.01,0,1.96.029,2.908-.008a1.884,1.884,0,0,0,1.835-1.833,1.819,1.819,0,0,0-1.472-2.061,28.267,28.267,0,0,0-3.295-.029c0,1.214,0,2.41,0,3.606,0,.085.012.171.023.325m0-5.994c.894-.047,1.715-.033,2.517-.148.739-.106,1.013-.572,1-1.405a1.243,1.243,0,0,0-1.08-1.371c-.805-.064-1.619-.015-2.432-.015Z" transform="translate(-143.328 -102.77)" fill="#030303"/>
        <rect id="Rectángulo_339744" data-name="Rectángulo 339744" width="16.988" height="1.922" transform="translate(41.2 41.068)" fill="#030304"/>
        <rect id="Rectángulo_339745" data-name="Rectángulo 339745" width="16.992" height="1.925" transform="translate(41.188 51.169)" fill="#030304"/>
        <rect id="Rectángulo_339746" data-name="Rectángulo 339746" width="1.941" height="13.02" transform="translate(57.307 21.99)" fill="#050505"/>
        <rect id="Rectángulo_339747" data-name="Rectángulo 339747" width="4.94" height="1.939" transform="translate(41.183 45.093)" fill="#060606"/>
        <path id="Trazado_721068" data-name="Trazado 721068" d="M231.171,312.472V310.5h4.958v1.969Z" transform="translate(-190.009 -255.38)" fill="#030303"/>
        <path id="Trazado_721069" data-name="Trazado 721069" d="M169.254,104.484q0-.989,0-1.978c.553,0,1.107.005,1.66-.015.35-.013.445.14.464.472.086,1.534.1,1.534-1.459,1.531-.221,0-.443-.007-.664-.011" transform="translate(-139.117 -84.406)" fill="#fcfcfd"/>
        <path id="Trazado_721070" data-name="Trazado 721070" d="M194.348,103.531c-.01,1.113.113.963-1.082.965-1.073,0-.911.108-.915-1.129,0-1.022-.083-.86,1.112-.866,1.024-.006.873-.069.885,1.03" transform="translate(-158.096 -84.41)" fill="#fefefe"/>
        <path id="Trazado_721071" data-name="Trazado 721071" d="M111.667,278.13a24.551,24.551,0,0,1-.205,3.182,4.951,4.951,0,0,1-9.768-.8c-.061-1.552-.066-3.11,0-4.661a4.947,4.947,0,0,1,9.857-.18c.069.815.011,1.641.011,2.461l.105,0m-3.709,4.7a2.489,2.489,0,0,0,1.592-2.328c.061-1.372.046-2.748.032-4.122a2.857,2.857,0,0,0-3.5-3.039,2.786,2.786,0,0,0-2.394,2.828c-.029,1.372-.039,2.746,0,4.118a2.893,2.893,0,0,0,4.271,2.544" transform="translate(-83.547 -223.098)" fill="#040304"/>
        <path id="Trazado_721072" data-name="Trazado 721072" d="M23.025,281.928c-.082-1.966-.192-3.931-.226-5.9a7.631,7.631,0,0,1,.318-1.618,4.97,4.97,0,0,1,7.078-2.5,4.667,4.667,0,0,1,2.5,3.995,32.7,32.7,0,0,1-.085,5.111,4.568,4.568,0,0,1-4.334,4.139,4.92,4.92,0,0,1-5.126-3c-.035-.079-.082-.154-.123-.23m6.117.891a2.67,2.67,0,0,0,1.569-2.623c.041-1.261.021-2.524.008-3.786a2.883,2.883,0,0,0-3.449-3.05,2.586,2.586,0,0,0-2.4,2.44,35.041,35.041,0,0,0,0,4.915,2.85,2.85,0,0,0,4.269,2.1" transform="translate(-18.739 -223.124)" fill="#030203"/>
        <path id="Trazado_721073" data-name="Trazado 721073" d="M23.87,239.284l.012-2.037h1.946v2.037Z" transform="translate(-19.62 -195.168)" fill="#fcfcfd"/>
        <rect id="Rectángulo_339748" data-name="Rectángulo 339748" width="1.945" height="4.023" transform="translate(15.02 34.034)" fill="#12110d"/>
        <rect id="Rectángulo_339749" data-name="Rectángulo 339749" width="1.934" height="1.943" transform="translate(40.12 8.186)" fill="#fcf8f1"/>
        <path id="Trazado_721074" data-name="Trazado 721074" d="M185.508,168.126c-.011-.154-.023-.239-.023-.325,0-1.2,0-2.392,0-3.606a28.258,28.258,0,0,1,3.295.029,1.819,1.819,0,0,1,1.473,2.061,1.884,1.884,0,0,1-1.835,1.832c-.948.037-1.9.008-2.908.008" transform="translate(-152.457 -135.095)" fill="#e2e9f2"/>
        <path id="Trazado_721075" data-name="Trazado 721075" d="M185.626,139.123v-2.94c.813,0,1.627-.049,2.432.015a1.243,1.243,0,0,1,1.08,1.371c.017.833-.257,1.3-1,1.405-.8.115-1.623.1-2.516.148" transform="translate(-152.574 -112.085)" fill="#e1e8f1"/>
        <path id="Trazado_721076" data-name="Trazado 721076" d="M124.6,282.959a2.857,2.857,0,0,1,3.5,3.039c.015,1.374.03,2.75-.032,4.122a2.489,2.489,0,0,1-1.592,2.328,1.672,1.672,0,0,0-.233-.222,4.049,4.049,0,0,1-2.058-3.688c.026-1.107-.045-2.219.022-3.323a19.573,19.573,0,0,1,.389-2.256" transform="translate(-102.072 -232.713)" fill="#9f6fcd"/>
        <path id="Trazado_721077" data-name="Trazado 721077" d="M115.371,283.115a19.584,19.584,0,0,0-.389,2.256c-.067,1.1,0,2.215-.022,3.323a4.049,4.049,0,0,0,2.058,3.688,1.665,1.665,0,0,1,.233.222,2.893,2.893,0,0,1-4.271-2.544c-.041-1.371-.031-2.746,0-4.117a2.787,2.787,0,0,1,2.394-2.828" transform="translate(-92.84 -232.869)" fill="#7e3fbb"/>
        <path id="Trazado_721078" data-name="Trazado 721078" d="M45.981,282.949A2.883,2.883,0,0,1,49.43,286c.013,1.262.033,2.525-.008,3.786a2.669,2.669,0,0,1-1.569,2.623,2.067,2.067,0,0,0-.257-.2,3.756,3.756,0,0,1-2.021-3.546c.006-1.264-.042-2.529.019-3.79a12.594,12.594,0,0,1,.386-1.924" transform="translate(-37.45 -232.713)" fill="#9e6fcc"/>
        <path id="Trazado_721079" data-name="Trazado 721079" d="M36.435,283.059a12.588,12.588,0,0,0-.386,1.924c-.062,1.26-.013,2.526-.019,3.79a3.756,3.756,0,0,0,2.021,3.546,2.06,2.06,0,0,1,.257.2,2.85,2.85,0,0,1-4.269-2.1,34.988,34.988,0,0,1,0-4.915,2.586,2.586,0,0,1,2.4-2.44" transform="translate(-27.905 -232.823)" fill="#7d3fba"/>
      </g>
    </g>
  </g>
</svg>
