<svg xmlns="http://www.w3.org/2000/svg" width="130" height="130" viewBox="0 0 130 130">
  <g id="Grupo_957918" data-name="Grupo 957918" transform="translate(-914 -3175)">
    <circle id="Elipse_6689" data-name="Elipse 6689" cx="65" cy="65" r="65" transform="translate(914 3175)" fill="#ffe0ab"/>
    <g id="Grupo_956876" data-name="Grupo 956876" transform="translate(873.205 3200.308)">
      <g id="Grupo_956877" data-name="Grupo 956877" transform="translate(83.795 0.693)">
        <path id="Trazado_721091" data-name="Trazado 721091" d="M95,21.917c-1.176-.233-1.551-.679-1.553-1.882,0-2.865-.019-5.73,0-8.595a10.736,10.736,0,0,1,21.311-1.864,13.374,13.374,0,0,1,.175,2.367q.017,14.427-.005,28.854a1.22,1.22,0,0,0,.632,1.162,20.412,20.412,0,0,1-7.6,37.013c-.582.11-1.162.229-1.743.344h-4.3c-.654-.15-1.307-.307-1.963-.448A20.207,20.207,0,0,1,84.025,61.976c-1.124-8.344,1.881-15.063,8.756-19.983a1.376,1.376,0,0,0,.684-1.289c-.035-2.581-.018-5.163-.013-7.744,0-1.2.38-1.649,1.553-1.879a1.652,1.652,0,0,1,1.516,1.944c0,2.865-.047,5.732.024,8.6a2.6,2.6,0,0,1-1.434,2.53,16.741,16.741,0,0,0-8.2,13.319,17.343,17.343,0,1,0,26.252-13.395,2.34,2.34,0,0,1-1.309-2.272c.037-7.93.02-15.861.02-23.792,0-2.149.024-4.3-.005-6.447a7.669,7.669,0,1,0-15.337-.188c-.045,2.864-.007,5.73-.013,8.6A1.655,1.655,0,0,1,95,21.917" transform="translate(-83.795 -0.693)" fill="#030303"/>
        <path id="Trazado_721092" data-name="Trazado 721092" d="M106.84,33.877a1.655,1.655,0,0,0,1.516-1.946c.005-2.865-.032-5.731.013-8.6a7.669,7.669,0,1,1,15.336.188c.03,2.148.006,4.3.006,6.447,0,7.931.017,15.861-.02,23.792A2.34,2.34,0,0,0,125,56.034,17.331,17.331,0,1,1,98.748,69.429a16.741,16.741,0,0,1,8.2-13.319,2.6,2.6,0,0,0,1.435-2.529c-.071-2.864-.02-5.73-.024-8.6a1.652,1.652,0,0,0-1.516-1.944q0-1.511,0-3.022c1-.249,1.509-.778,1.509-1.561s-.512-1.313-1.509-1.56Zm4.588,23.435c-.21.087-.4.167-.585.241a14.3,14.3,0,1,0,10.5.08.984.984,0,0,1-.721-1.113q.029-15.507.013-31.014c0-1.572-.506-2.086-2.051-2.088q-2.533,0-5.067,0c-1.64,0-2.093.455-2.094,2.1q0,15.469,0,30.937Z" transform="translate(-95.63 -12.653)" fill="#bdecf7"/>
        <path id="Trazado_721093" data-name="Trazado 721093" d="M261.276,56.2c-.919,0-1.839.014-2.757,0a1.529,1.529,0,1,1-.048-3.056c1.889-.026,3.779-.029,5.667,0a1.526,1.526,0,0,1-.028,3.053c-.944.022-1.889,0-2.834.005" transform="translate(-221.401 -42.368)" fill="#030303"/>
        <path id="Trazado_721094" data-name="Trazado 721094" d="M261.345,98.125c-.945,0-1.89.014-2.834,0a1.529,1.529,0,1,1-.031-3.057q2.795-.039,5.591,0a1.532,1.532,0,1,1-.045,3.06c-.893.014-1.787,0-2.681,0" transform="translate(-221.401 -75.692)" fill="#030303"/>
        <path id="Trazado_721095" data-name="Trazado 721095" d="M261.241,140.042c-.893,0-1.787.011-2.681,0a1.533,1.533,0,1,1-.051-3.061q2.8-.034,5.591,0a1.529,1.529,0,1,1-.025,3.057c-.944.019-1.889,0-2.834,0" transform="translate(-221.402 -109.011)" fill="#030303"/>
        <path id="Trazado_721096" data-name="Trazado 721096" d="M261.295,181.963c-.919,0-1.838.012-2.757,0a1.533,1.533,0,1,1-.014-3.061q2.757-.032,5.514,0a1.535,1.535,0,1,1-.062,3.063c-.893.011-1.787,0-2.681,0" transform="translate(-221.398 -142.333)" fill="#030303"/>
        <path id="Trazado_721097" data-name="Trazado 721097" d="M132.442,118.9c1,.247,1.51.777,1.509,1.56s-.512,1.312-1.509,1.561c-1.061-.21-1.548-.7-1.549-1.561s.49-1.351,1.549-1.56" transform="translate(-121.232 -94.65)" fill="#060707"/>
        <path id="Trazado_721098" data-name="Trazado 721098" d="M123.22,87.065v-.859q0-15.469,0-30.937c0-1.643.454-2.1,2.094-2.1q2.533,0,5.067,0c1.545,0,2.051.515,2.051,2.088q0,15.507-.013,31.014a.984.984,0,0,0,.721,1.113,14.26,14.26,0,1,1-10.5-.08c.189-.074.375-.154.585-.241m3.072-30.8v.975q0,15.238,0,30.475c0,1.363-.3,1.761-1.592,2.143a11.195,11.195,0,1,0,14.3,11.33,11.082,11.082,0,0,0-8-11.315c-1.388-.408-1.637-.731-1.637-2.165q0-15.276,0-30.552v-.891Z" transform="translate(-107.423 -42.406)" fill="#030202"/>
        <path id="Trazado_721099" data-name="Trazado 721099" d="M138.18,68.239h3.07v.891q0,15.276,0,30.552c0,1.434.249,1.757,1.637,2.165a11.2,11.2,0,0,1-1.581,21.817,11.193,11.193,0,0,1-4.719-21.832c1.294-.382,1.592-.78,1.592-2.143q0-15.238,0-30.475v-.975m1.732,52.492c.32-.039.884-.072,1.432-.185a8.528,8.528,0,0,0,1.461-.449,8.2,8.2,0,0,0,5.039-7.355,1.585,1.585,0,0,0-1.437-1.685,1.531,1.531,0,0,0-1.625,1.478,9.181,9.181,0,0,1-.224,1.435,5.066,5.066,0,0,1-7.462,2.967,1.524,1.524,0,0,0-2.248.521,1.543,1.543,0,0,0,.735,2.138,8.394,8.394,0,0,0,4.33,1.136m-8.328-8.146a1.514,1.514,0,0,0,1.477,1.536,1.536,1.536,0,1,0,0-3.07,1.509,1.509,0,0,0-1.478,1.534" transform="translate(-119.311 -54.384)" fill="#fc6270"/>
        <path id="Trazado_721100" data-name="Trazado 721100" d="M163.857,286.648a8.393,8.393,0,0,1-4.331-1.136,1.543,1.543,0,0,1-.735-2.138,1.524,1.524,0,0,1,2.248-.521,5.066,5.066,0,0,0,7.462-2.967,9.157,9.157,0,0,0,.225-1.435,1.531,1.531,0,0,1,1.625-1.478,1.585,1.585,0,0,1,1.437,1.685,8.2,8.2,0,0,1-5.039,7.355,8.524,8.524,0,0,1-1.461.449c-.548.113-1.112.146-1.432.185" transform="translate(-143.255 -220.3)" fill="#040102"/>
        <path id="Trazado_721101" data-name="Trazado 721101" d="M143.631,278.491a1.509,1.509,0,0,1,1.478-1.534,1.536,1.536,0,1,1,0,3.07,1.514,1.514,0,0,1-1.477-1.536" transform="translate(-131.358 -220.29)" fill="#060303"/>
      </g>
    </g>
  </g>
</svg>
