<svg xmlns="http://www.w3.org/2000/svg" width="130" height="130" viewBox="0 0 130 130">
  <g id="Grupo_957916" data-name="Grupo 957916" transform="translate(-1271 -3175)">
    <circle id="Elipse_6691" data-name="Elipse 6691" cx="65" cy="65" r="65" transform="translate(1271 3175)" fill="#ffe0ab"/>
    <g id="Grupo_956882" data-name="Grupo 956882" transform="translate(1299 3203)">
      <g id="Grupo_956883" data-name="Grupo 956883">
        <path id="Trazado_721112" data-name="Trazado 721112" d="M0,175.859c.05.044.121.078.146.133.99,2.2,2.226,2.9,4.611,2.682,1.175-.109,2.356-.148,3.533-.235a3.866,3.866,0,0,0,3.7-3.339,3.946,3.946,0,0,0-2.64-4.507,6,6,0,0,0-1.276-.212c-1.224-.1-2.451-.165-3.676-.264a3.869,3.869,0,0,0-4.174,2.517,2.1,2.1,0,0,1-.223.334v2.891m2.169-1.421c0-1.7.672-2.286,2.368-2.131,1.15.1,2.3.164,3.457.237,1.226.079,1.839.69,1.845,1.847.006,1.2-.606,1.815-1.871,1.894-1.177.074-2.354.143-3.529.245-1.587.138-2.27-.479-2.27-2.093" transform="translate(0 -137.408)" fill="#040403"/>
        <path id="Trazado_721113" data-name="Trazado 721113" d="M172.2,321.759a1.469,1.469,0,0,1-.268.192,3.89,3.89,0,0,0-2.578,4.276c.108,1.272.17,2.547.266,3.82a3.859,3.859,0,0,0,3.41,3.7c2.182.208,3.976-.829,4.45-2.712a15.679,15.679,0,0,0,.319-2.936,15.924,15.924,0,0,0,.031-3.3,3.367,3.367,0,0,0-2.893-2.91c-.051-.01-.089-.087-.134-.132Zm1.437,2.168c1.66,0,2.268.677,2.121,2.311-.1,1.15-.169,2.3-.238,3.457-.077,1.276-.682,1.9-1.865,1.9s-1.8-.618-1.881-1.886c-.071-1.153-.136-2.306-.239-3.457-.148-1.647.453-2.328,2.1-2.328" transform="translate(-136.632 -321.759)" fill="#040403"/>
        <path id="Trazado_721114" data-name="Trazado 721114" d="M111.965,49.3c.939.056,1.287-.179,1.445-1.083a11.973,11.973,0,0,0,.161-1.792c.024-1.155.038-2.313,0-3.467a5.721,5.721,0,0,1,1.912-4.555,21.29,21.29,0,0,0,6.463-12.358A21.756,21.756,0,0,0,106.023,1.561,21.317,21.317,0,0,0,87.935,4.724c-.806.547-.9.866-.576,1.755a1.253,1.253,0,0,0,1.806.037A19.269,19.269,0,0,1,103.7,3.3a2.643,2.643,0,0,1,.43.027c7.488,1.693,12.673,6.114,14.976,13.429,2.294,7.288.618,13.893-4.568,19.514-1.372,1.487-2.754,2.891-3.042,5.016h-.854L97.35,41.254h-8.1A8.66,8.66,0,0,0,86.43,36.5,19.089,19.089,0,0,1,80.717,23.12a19.2,19.2,0,0,1,4.84-13.368c.663-.772.7-1.063.228-1.852-.818-.427-1.168-.367-1.76.3A21.743,21.743,0,0,0,85.1,38.228a6.343,6.343,0,0,1,2.1,5,24.917,24.917,0,0,0,.191,5.037,7.935,7.935,0,0,0,5.662,6.33.879.879,0,0,1,.709.81,4.981,4.981,0,0,0,4.059,4.089,20.69,20.69,0,0,0,5.027.017,4.979,4.979,0,0,0,4.172-4.223c.068-.418.275-.511.6-.669a25.337,25.337,0,0,0,2.954-1.6c.816-.544.831-.985.347-1.84a1.3,1.3,0,0,0-1.75.2,5.139,5.139,0,0,1-3.176,1.367c-1.77.073-3.543.039-5.316.05-1.849.005-3.705.116-5.545-.008a5.942,5.942,0,0,1-5.638-4.994,27.407,27.407,0,0,1-.039-4.3h8.038q6.9-.009,13.8-.014c.036,0,.073.058.011.006,0,1.5.058,2.923-.025,4.335-.041.69.068,1.177.7,1.491M98.793,57.463a2.95,2.95,0,0,1-2.811-2.428h8.837a3.074,3.074,0,0,1-2.854,2.449c-1.056.033-2.114-.011-3.172-.021" transform="translate(-63.363 14.348)" fill="#030303"/>
        <path id="Trazado_721115" data-name="Trazado 721115" d="M112.826,96.389a19.27,19.27,0,0,0-14.538,3.217,1.253,1.253,0,0,1-1.806-.037l-1.573,1.42c.469.79.434,1.08-.228,1.852a19.616,19.616,0,0,0,.873,26.75,8.66,8.66,0,0,1,2.815,4.752h8.1c-.032-.188-.053-.379-.1-.563a7.188,7.188,0,0,0-2.348-3.471,17.8,17.8,0,0,1-3.437-4.5,20.345,20.345,0,0,1-2.208-14.04c1.228-6.25,4.477-11.076,10.333-13.89a41.39,41.39,0,0,1,4.111-1.486" transform="translate(-72.487 -78.741)" fill="#efd133"/>
        <path id="Trazado_721116" data-name="Trazado 721116" d="M179.829,45.626c1.772-.012,3.546.022,5.315-.05a5.139,5.139,0,0,0,3.176-1.367,1.3,1.3,0,0,1,1.75-.2l1.053-1.871c-.629-.314-.738-.8-.7-1.491.083-1.413.025-2.834.025-4.335.061.052.025-.006-.011-.006q-6.9,0-13.8.014c0,1.129-.036,2.259.008,3.386a6.729,6.729,0,0,0,1.4,3.991c.54.685,1.182,1.289,1.779,1.929" transform="translate(-142.522 21.515)" fill="#f0f0f3"/>
        <path id="Trazado_721117" data-name="Trazado 721117" d="M25.981,246.46a10.228,10.228,0,0,0-1.125.222,5.312,5.312,0,0,0-3.132,4.245,3.873,3.873,0,0,0,2.495,3.842c1.142.557,2.276,1.131,3.421,1.682a4.027,4.027,0,0,0,4.052-6.933c-1.106-.765-2.2-1.557-3.355-2.24a17.342,17.342,0,0,0-2.273-.957l-.084.138m5.484,6.177a2.006,2.006,0,0,1-2.848,1.865q-1.856-.877-3.691-1.8a1.634,1.634,0,0,1-.742-2.476c.125-.232.256-.463.4-.685A1.617,1.617,0,0,1,27,248.987c1.193.768,2.388,1.54,3.522,2.389a5.489,5.489,0,0,1,.939,1.261" transform="translate(-17.523 -230.329)" fill="#040403"/>
        <path id="Trazado_721118" data-name="Trazado 721118" d="M26.176,94.25a14.476,14.476,0,0,0,2.087-.862c1.213-.728,2.374-1.547,3.536-2.357A4.025,4.025,0,0,0,27.792,84.1q-1.954.915-3.877,1.9a3.8,3.8,0,0,0-1.653,5.334,4.426,4.426,0,0,0,2.855,2.644c.325.075.66.108.99.16l.069.117m5.3-6.31a4.39,4.39,0,0,1-.806,1.195c-1.215.9-2.482,1.739-3.759,2.553a1.581,1.581,0,0,1-2.217-.507,8.286,8.286,0,0,1-.477-.806,1.634,1.634,0,0,1,.739-2.476q1.832-.927,3.691-1.8a1.988,1.988,0,0,1,2.83,1.842" transform="translate(-17.558 -36.257)" fill="#040403"/>
        <path id="Trazado_721119" data-name="Trazado 721119" d="M308.047,246.279a13.523,13.523,0,0,0-2.1.835c-1.235.738-2.415,1.572-3.6,2.4a4.023,4.023,0,0,0,3.987,6.931c1.326-.617,2.643-1.253,3.944-1.922a3.78,3.78,0,0,0,1.648-5.28,11.947,11.947,0,0,0-.7-1.176,4.324,4.324,0,0,0-3.186-1.784m-.172,2.329c1.251-.027,1.642.746,2.053,1.49a1.657,1.657,0,0,1-.791,2.566q-1.8.907-3.627,1.77a1.632,1.632,0,0,1-2.376-.752,1.664,1.664,0,0,1,.535-2.446q1.691-1.169,3.417-2.288a4.07,4.07,0,0,1,.788-.341" transform="translate(-242.592 -230.255)" fill="#040403"/>
        <path id="Trazado_721120" data-name="Trazado 721120" d="M256.08,305.58a9.883,9.883,0,0,0-.244-1.193,5.332,5.332,0,0,0-4.219-3.068,3.887,3.887,0,0,0-3.848,2.486c-.571,1.162-1.155,2.317-1.709,3.487a4.027,4.027,0,0,0,6.956,4c.79-1.147,1.606-2.281,2.316-3.477a14.711,14.711,0,0,0,.873-2.157l-.124-.076m-6.188,5.467a2.008,2.008,0,0,1-1.945-2.637c.618-1.38,1.3-2.736,2-4.074a1.559,1.559,0,0,1,2.172-.663,8.2,8.2,0,0,1,.875.5,1.613,1.613,0,0,1,.556,2.418c-.782,1.212-1.57,2.425-2.432,3.58a4.933,4.933,0,0,1-1.228.874" transform="translate(-198.188 -297.116)" fill="#040403"/>
        <path id="Trazado_721121" data-name="Trazado 721121" d="M308.074,94.053a10.628,10.628,0,0,0,1.127-.208,5.246,5.246,0,0,0,3.191-4.2,3.894,3.894,0,0,0-2.432-3.885c-1.16-.574-2.319-1.151-3.488-1.706a4.029,4.029,0,0,0-3.979,6.985c1.112.756,2.205,1.545,3.359,2.232a16.16,16.16,0,0,0,2.143.9l.078-.126m-.163-2.219a2.877,2.877,0,0,1-.732-.277c-1.212-.783-2.414-1.581-3.6-2.406a1.647,1.647,0,0,1-.458-2.4,1.63,1.63,0,0,1,2.319-.766c1.239.581,2.467,1.188,3.691,1.8a1.6,1.6,0,0,1,1.043,1.91c-.419,1.185-1.026,2.168-2.265,2.142" transform="translate(-242.573 -36.172)" fill="#040403"/>
        <path id="Trazado_721122" data-name="Trazado 721122" d="M82.959,305.665a13.464,13.464,0,0,0,.833,2.1c.738,1.235,1.573,2.414,2.4,3.6a4.022,4.022,0,0,0,6.946-3.96c-.624-1.348-1.27-2.689-1.956-4.007A3.778,3.778,0,0,0,86,301.753a4.477,4.477,0,0,0-2.766,2.927c-.068.3-.1.613-.151.92l-.125.066m2.333.177c-.017-1.283.8-1.666,1.562-2.08a1.63,1.63,0,0,1,2.47.763q.927,1.833,1.8,3.692a1.642,1.642,0,0,1-.761,2.376,1.666,1.666,0,0,1-2.442-.542c-.777-1.13-1.545-2.266-2.29-3.416a3.976,3.976,0,0,1-.339-.793" transform="translate(-66.939 -297.109)" fill="#040403"/>
        <path id="Trazado_721123" data-name="Trazado 721123" d="M333.09,174.409c0-2.937-1.781-4.536-4.7-4.257-1.2.115-2.4.151-3.6.243a3.863,3.863,0,0,0-3.688,3.35,3.924,3.924,0,0,0,2.583,4.472,6.367,6.367,0,0,0,1.417.238c1.08.091,2.165.121,3.244.225,2.985.287,4.748-1.288,4.747-4.272m-2.17.02c0,1.649-.682,2.25-2.328,2.1-1.174-.105-2.353-.165-3.529-.244a1.869,1.869,0,0,1,.015-3.736c1.177-.077,2.355-.14,3.529-.244,1.634-.145,2.313.463,2.312,2.122" transform="translate(-259.064 -137.414)" fill="#040403"/>
        <path id="Trazado_721124" data-name="Trazado 721124" d="M11.232,183.454c0,1.614.684,2.231,2.27,2.093,1.175-.1,2.352-.172,3.529-.245,1.265-.079,1.876-.692,1.871-1.894-.005-1.158-.619-1.769-1.845-1.847-1.153-.074-2.307-.132-3.457-.237-1.7-.154-2.369.436-2.368,2.131" transform="translate(-9.063 -146.423)" fill="#f5eb61"/>
        <path id="Trazado_721125" data-name="Trazado 721125" d="M182.748,333.042c-1.65,0-2.251.681-2.1,2.328.1,1.15.168,2.3.239,3.457.078,1.269.689,1.889,1.881,1.886s1.789-.628,1.865-1.9c.069-1.153.135-2.307.238-3.457.147-1.634-.46-2.311-2.121-2.311" transform="translate(-145.745 -330.873)" fill="#f5eb61"/>
        <path id="Trazado_721126" data-name="Trazado 721126" d="M146.845,95.89a41.387,41.387,0,0,0-4.111,1.486c-5.857,2.814-9.106,7.64-10.333,13.89a20.345,20.345,0,0,0,2.208,14.04,17.8,17.8,0,0,0,3.437,4.5,7.188,7.188,0,0,1,2.348,3.471c.045.185.066.376.1.563l13.294.032h.854c.289-2.125,1.671-3.529,3.043-5.016,5.186-5.621,6.862-12.226,4.568-19.514-2.3-7.315-7.488-11.736-14.976-13.429a2.647,2.647,0,0,0-.43-.027" transform="translate(-106.505 -78.241)" fill="#f8ee62"/>
        <path id="Trazado_721127" data-name="Trazado 721127" d="M146,45.352c-.6-.64-1.239-1.244-1.779-1.929a6.73,6.73,0,0,1-1.4-3.991c-.044-1.127-.008-2.257-.008-3.386h-8.038a27.4,27.4,0,0,0,.039,4.3,5.942,5.942,0,0,0,5.638,4.994c1.84.124,3.7.014,5.545.008" transform="translate(-108.692 21.789)" fill="#dce7ec"/>
        <path id="Trazado_721128" data-name="Trazado 721128" d="M179.211,14.374c1.057.01,2.116.054,3.172.021a3.074,3.074,0,0,0,2.854-2.449H178.19a6.109,6.109,0,0,0,.266,1.078,15.292,15.292,0,0,0,.754,1.351" transform="translate(-143.781 57.438)" fill="#534e56"/>
        <path id="Trazado_721129" data-name="Trazado 721129" d="M171.732,14.541a15.3,15.3,0,0,1-.754-1.351,6.111,6.111,0,0,1-.266-1.078h-1.79a2.95,2.95,0,0,0,2.811,2.428" transform="translate(-136.302 57.271)" fill="#443f44"/>
        <path id="Trazado_721130" data-name="Trazado 721130" d="M40.561,261.747a5.487,5.487,0,0,0-.939-1.261c-1.135-.849-2.329-1.621-3.522-2.389a1.617,1.617,0,0,0-2.421.553c-.143.222-.274.453-.4.685a1.634,1.634,0,0,0,.742,2.476q1.833.926,3.691,1.8a2.006,2.006,0,0,0,2.848-1.865" transform="translate(-26.619 -239.44)" fill="#f5eb62"/>
        <path id="Trazado_721131" data-name="Trazado 721131" d="M40.541,97.64a1.988,1.988,0,0,0-2.83-1.842q-1.858.874-3.691,1.8a1.634,1.634,0,0,0-.739,2.476,8.29,8.29,0,0,0,.477.806,1.581,1.581,0,0,0,2.217.507c1.278-.814,2.544-1.651,3.759-2.553a4.39,4.39,0,0,0,.806-1.195" transform="translate(-26.618 -45.958)" fill="#f5eb62"/>
        <path id="Trazado_721132" data-name="Trazado 721132" d="M316.94,257.542a4.071,4.071,0,0,0-.788.341q-1.726,1.117-3.417,2.288a1.664,1.664,0,0,0-.535,2.446,1.632,1.632,0,0,0,2.375.752q1.823-.865,3.627-1.77a1.657,1.657,0,0,0,.791-2.566c-.41-.745-.8-1.517-2.053-1.49" transform="translate(-251.657 -239.189)" fill="#f5eb62"/>
        <path id="Trazado_721133" data-name="Trazado 721133" d="M259.02,319.426a4.928,4.928,0,0,0,1.228-.874c.862-1.155,1.65-2.368,2.432-3.58a1.613,1.613,0,0,0-.556-2.418,8.212,8.212,0,0,0-.875-.5,1.559,1.559,0,0,0-2.172.663c-.706,1.338-1.383,2.694-2,4.074a2.008,2.008,0,0,0,1.945,2.637" transform="translate(-207.316 -305.495)" fill="#f5eb62"/>
        <path id="Trazado_721134" data-name="Trazado 721134" d="M317,101.812c1.239.026,1.846-.957,2.265-2.142a1.6,1.6,0,0,0-1.043-1.91c-1.224-.613-2.452-1.22-3.691-1.8a1.63,1.63,0,0,0-2.319.766,1.647,1.647,0,0,0,.458,2.4c1.183.826,2.386,1.624,3.6,2.406a2.878,2.878,0,0,0,.732.277" transform="translate(-251.658 -46.149)" fill="#f5eb62"/>
        <path id="Trazado_721135" data-name="Trazado 721135" d="M95.04,314.91a3.976,3.976,0,0,0,.339.793c.746,1.15,1.514,2.286,2.29,3.416a1.666,1.666,0,0,0,2.442.542,1.642,1.642,0,0,0,.761-2.376q-.877-1.857-1.8-3.692a1.63,1.63,0,0,0-2.47-.763c-.764.414-1.579.8-1.562,2.08" transform="translate(-76.687 -306.176)" fill="#f5eb62"/>
        <path id="Trazado_721136" data-name="Trazado 721136" d="M340.063,183.455c0-1.659-.678-2.267-2.312-2.122-1.174.1-2.352.167-3.529.244a1.869,1.869,0,0,0-.015,3.736c1.177.079,2.355.139,3.529.244,1.645.147,2.327-.454,2.328-2.1" transform="translate(-268.207 -146.441)" fill="#f5eb61"/>
      </g>
    </g>
  </g>
</svg>
