<svg xmlns="http://www.w3.org/2000/svg" width="85" height="85" viewBox="0 0 85 85">
  <g id="Grupo_957613" data-name="Grupo 957613" transform="translate(-667 -756)">
    <circle id="Elipse_6682" data-name="Elipse 6682" cx="42.5" cy="42.5" r="42.5" transform="translate(667 756)" fill="#fce9c7"/>
    <g id="quimica" transform="translate(673 768)">
      <g id="Grupo_956716" data-name="Grupo 956716" transform="translate(1.177 1.177)">
        <g id="Grupo_956690" data-name="Grupo 956690" transform="translate(17.661 47.097)">
          <path id="Trazado_721027" data-name="Trazado 721027" d="M21.71,42l2.037,14.235v.012a1.894,1.894,0,0,0-.683-.118,2.182,2.182,0,0,0-1.955,1.2l-.577,1.154H17L19.355,42Z" transform="translate(-17 -42)" fill="#ffeaa7"/>
        </g>
        <g id="Grupo_956691" data-name="Grupo 956691" transform="translate(17.956 42.387)">
          <path id="Trazado_721028" data-name="Trazado 721028" d="M23.726,39.613l-2.06,3.1H19.31l-2.06-3.085L20.488,38Z" transform="translate(-17.25 -38)" fill="#fcd770"/>
        </g>
        <g id="Grupo_956692" data-name="Grupo 956692" transform="translate(22.371 44)">
          <path id="Trazado_721029" data-name="Trazado 721029" d="M26.887,53.063v6.1a3.264,3.264,0,0,0-1.177-.212H24.532v-.177a2.16,2.16,0,0,0-1.5-2.06V56.7L21,42.467l2.06-3.1,3.827,1.919Z" transform="translate(-21 -39.37)" fill="#b4dd7f"/>
        </g>
        <g id="Grupo_956693" data-name="Grupo 956693" transform="translate(14.129 44.012)">
          <path id="Trazado_721030" data-name="Trazado 721030" d="M17.827,39.38l2.06,3.085L17.532,58.949H14V41.287Z" transform="translate(-14 -39.38)" fill="#b4dd7f"/>
        </g>
        <g id="Grupo_956694" data-name="Grupo 956694" transform="translate(21.194 37.678)">
          <path id="Trazado_721031" data-name="Trazado 721031" d="M27.065,34v8.242l-3.827-1.919L20,38.71,24.71,34Z" transform="translate(-20 -34)" fill="#a0d468"/>
        </g>
        <g id="Grupo_956695" data-name="Grupo 956695" transform="translate(14.129 37.678)">
          <path id="Trazado_721032" data-name="Trazado 721032" d="M21.065,38.71l-3.238,1.625L14,42.242V34.33A17.177,17.177,0,0,1,16.355,34Z" transform="translate(-14 -34)" fill="#a0d468"/>
        </g>
        <g id="Grupo_956696" data-name="Grupo 956696" transform="translate(28.258 18.839)">
          <path id="Trazado_721033" data-name="Trazado 721033" d="M30.71,36.839A18.834,18.834,0,0,0,49.549,18v3.532A2.372,2.372,0,0,0,51.9,23.887a2.362,2.362,0,0,0,2.355-2.355V19.177a2.372,2.372,0,0,0,2.355,2.355v3.273a24.727,24.727,0,0,1-9.419,19.428V42.726a1.181,1.181,0,0,0-1.177-1.177H43.661a1.181,1.181,0,0,0-1.177,1.177v4.427a25.334,25.334,0,0,1-5.746,1.907l-3.674.73v5.887H27.177A1.181,1.181,0,0,0,26,56.855V36.839Z" transform="translate(-26 -18)" fill="#e6e9ed"/>
        </g>
        <g id="Grupo_956697" data-name="Grupo 956697" transform="translate(0 38.007)">
          <path id="Trazado_721034" data-name="Trazado 721034" d="M16.129,59.854h7.065v7.065H13.774A11.779,11.779,0,0,1,2,55.144V51.659A17.737,17.737,0,0,1,16.129,34.28V59.854Z" transform="translate(-2 -34.28)" fill="#e6e9ed"/>
        </g>
        <g id="Grupo_956698" data-name="Grupo 956698" transform="translate(51.807 4.71)">
          <path id="Trazado_721035" data-name="Trazado 721035" d="M50.71,8.355v5.887H46V8.355A2.362,2.362,0,0,1,48.355,6,2.372,2.372,0,0,1,50.71,8.355Z" transform="translate(-46 -6)" fill="#ccd1d9"/>
        </g>
        <g id="Grupo_956699" data-name="Grupo 956699" transform="translate(51.807 12.952)">
          <path id="Trazado_721036" data-name="Trazado 721036" d="M50.71,20.065v2.355a2.362,2.362,0,0,1-2.355,2.355A2.372,2.372,0,0,1,46,22.419V13h4.71v7.065Z" transform="translate(-46 -13)" fill="#69d6f4"/>
        </g>
        <g id="Grupo_956700" data-name="Grupo 956700" transform="translate(2.355)">
          <path id="Trazado_721037" data-name="Trazado 721037" d="M41.678,20.839A7.07,7.07,0,0,1,34.613,27.9h-.082a6.051,6.051,0,0,0,.082-1.036V22.982a3.518,3.518,0,0,0,0-6.641V13.774a2.362,2.362,0,0,0-2.355-2.355H22.839a4.708,4.708,0,0,0-4.71,4.71v2.355h-1.8a2.907,2.907,0,0,0-1.3,5.51l3.1,1.554v8.784a4.58,4.58,0,0,1-2.355.636,4.708,4.708,0,0,1-4.71-4.71A4.705,4.705,0,0,1,7.65,22.311,7.063,7.063,0,0,1,11.065,9.065,7.07,7.07,0,0,1,18.129,2a6.983,6.983,0,0,1,4.71,1.813,7.048,7.048,0,0,1,10.149.742,6.676,6.676,0,0,1,1.625-.2,7.07,7.07,0,0,1,7.065,7.065,6.983,6.983,0,0,1-1.813,4.71A6.983,6.983,0,0,1,41.678,20.839Z" transform="translate(-4 -2)" fill="#656d78"/>
        </g>
        <g id="Grupo_956701" data-name="Grupo 956701" transform="translate(16.484 9.419)">
          <path id="Trazado_721038" data-name="Trazado 721038" d="M32.484,14.91v.012a3.264,3.264,0,0,0-1.177-.212,3.494,3.494,0,0,0-3.32,2.355h-5.11l-.024.012a3.515,3.515,0,0,0-6.664.059L16,17.065V14.71A4.708,4.708,0,0,1,20.71,10h9.419a2.362,2.362,0,0,1,2.355,2.355Z" transform="translate(-16 -10)" fill="#f0d0b4"/>
        </g>
        <g id="Grupo_956702" data-name="Grupo 956702" transform="translate(11.774 16.484)">
          <path id="Trazado_721039" data-name="Trazado 721039" d="M33.194,20.51v3.874a6.051,6.051,0,0,1-.082,1.036,8.044,8.044,0,0,1-7.877,7.053v.012l.895,4.71-4.71,4.71-4.71-4.71V23.065l-3.1-1.554a2.907,2.907,0,0,1,1.3-5.51h1.8l.188.071a3.124,3.124,0,0,0-.188,1.107,3.532,3.532,0,1,0,7.065,0,3.2,3.2,0,0,0-.212-1.166L23.586,16H28.7a3.264,3.264,0,0,0-.212,1.177,3.528,3.528,0,0,0,3.532,3.532,3.264,3.264,0,0,0,1.177-.212Z" transform="translate(-12 -16)" fill="#f0d0b4"/>
        </g>
        <g id="Grupo_956703" data-name="Grupo 956703" transform="translate(28.258 14.129)">
          <path id="Trazado_721040" data-name="Trazado 721040" d="M29.532,14a3.264,3.264,0,0,1,1.177.212,3.518,3.518,0,0,1,0,6.641,3.264,3.264,0,0,1-1.177.212A3.528,3.528,0,0,1,26,17.532a3.264,3.264,0,0,1,.212-1.177A3.494,3.494,0,0,1,29.532,14Z" transform="translate(-26 -14)" fill="#69d6f4"/>
        </g>
        <g id="Grupo_956704" data-name="Grupo 956704" transform="translate(16.484 14.129)">
          <path id="Trazado_721041" data-name="Trazado 721041" d="M22.853,16.367a3.2,3.2,0,0,1,.212,1.166,3.532,3.532,0,0,1-7.065,0,3.123,3.123,0,0,1,.188-1.107,3.515,3.515,0,0,1,6.664-.059Z" transform="translate(-16 -14)" fill="#69d6f4"/>
        </g>
        <g id="Grupo_956705" data-name="Grupo 956705" transform="translate(56.516 12.952)">
          <path id="Trazado_721042" data-name="Trazado 721042" d="M54.71,20.065a2.362,2.362,0,0,1-2.355,2.355A2.372,2.372,0,0,1,50,20.065v-4.71A2.362,2.362,0,0,1,52.355,13a2.372,2.372,0,0,1,2.355,2.355Z" transform="translate(-50 -13)" fill="#f0d0b4"/>
        </g>
        <g id="Grupo_956706" data-name="Grupo 956706" transform="translate(47.097 12.952)">
          <path id="Trazado_721043" data-name="Trazado 721043" d="M46.015,13.695a2.355,2.355,0,0,1-1.66,4.015A2.362,2.362,0,0,1,42,15.355a2.348,2.348,0,0,1,4.015-1.66Z" transform="translate(-42 -13)" fill="#f0d0b4"/>
        </g>
        <g id="Grupo_956707" data-name="Grupo 956707" transform="translate(21.194 61.226)">
          <path id="Trazado_721044" data-name="Trazado 721044" d="M29.419,59.887a3.519,3.519,0,0,1-1.554,2.932h-.012a3.525,3.525,0,0,1-1.966.6H20V56.355l.577-1.154A2.182,2.182,0,0,1,22.531,54a1.894,1.894,0,0,1,.683.118,2.16,2.16,0,0,1,1.5,2.06v.177h1.177a3.264,3.264,0,0,1,1.177.212,3.341,3.341,0,0,1,1.319.824A3.524,3.524,0,0,1,29.419,59.887Z" transform="translate(-20 -54)" fill="#f0d0b4"/>
        </g>
        <g id="Grupo_956708" data-name="Grupo 956708" transform="translate(28.258 56.516)">
          <path id="Trazado_721045" data-name="Trazado 721045" d="M37.774,59.419v2.355A2.362,2.362,0,0,1,36.7,63.752a2.409,2.409,0,0,1-1.283.377H28.355a2.285,2.285,0,0,1-1.554-.6,3.535,3.535,0,0,0,.518-5.428A3.341,3.341,0,0,0,26,57.276v-6.1A1.181,1.181,0,0,1,27.177,50H36.6a1.181,1.181,0,0,1,1.177,1.177v8.242Z" transform="translate(-26 -50)" fill="#ffeaa7"/>
        </g>
        <g id="Grupo_956709" data-name="Grupo 956709" transform="translate(58.871 42.387)">
          <path id="Trazado_721046" data-name="Trazado 721046" d="M56.71,39.177v5.887H52V39.177A1.181,1.181,0,0,1,53.177,38h2.355A1.181,1.181,0,0,1,56.71,39.177Z" transform="translate(-52 -38)" fill="#cf9e76"/>
        </g>
        <g id="Grupo_956710" data-name="Grupo 956710" transform="translate(44.742 42.387)">
          <path id="Trazado_721047" data-name="Trazado 721047" d="M44.71,40.685v4.38H40V39.177A1.181,1.181,0,0,1,41.177,38h2.355a1.181,1.181,0,0,1,1.177,1.177Z" transform="translate(-40 -38)" fill="#cf9e76"/>
        </g>
        <g id="Grupo_956711" data-name="Grupo 956711" transform="translate(44.742 49.452)">
          <path id="Trazado_721048" data-name="Trazado 721048" d="M40,44h4.71v4.71H40Z" transform="translate(-40 -44)" fill="#ccd1d9"/>
        </g>
        <g id="Grupo_956712" data-name="Grupo 956712" transform="translate(40.032 54.162)">
          <path id="Trazado_721049" data-name="Trazado 721049" d="M46.208,57.419c-3.144,0-3.144,2.355-6.287,2.355-2.072,0-2.779-1.024-3.921-1.731v-.235l4.71-6.276V48h4.71v3.532L48.1,55.112l3.438,4.58C49.3,59.28,48.987,57.419,46.208,57.419Z" transform="translate(-36 -48)" fill="#e6e9ed"/>
        </g>
        <g id="Grupo_956713" data-name="Grupo 956713" transform="translate(52.148 49.452)">
          <path id="Trazado_721050" data-name="Trazado 721050" d="M64.787,57.976a.672.672,0,0,1-.012.153c-3.132-.012-3.132-2.355-6.264-2.355s-3.144,2.355-6.287,2.355c-3.014,0-3.132-2.178-5.934-2.343a7.168,7.168,0,0,1,2.261-3.356l4.462-3.721V44h4.71v4.71l4.462,3.721A7.223,7.223,0,0,1,64.787,57.976Z" transform="translate(-46.29 -44)" fill="#e6e9ed"/>
        </g>
        <g id="Grupo_956714" data-name="Grupo 956714" transform="translate(38.961 63.581)">
          <path id="Trazado_721051" data-name="Trazado 721051" d="M36.161,56.624c1.142.706,1.849,1.731,3.921,1.731,3.144,0,3.144-2.355,6.287-2.355,2.779,0,3.1,1.86,5.334,2.272l.412.553a2.646,2.646,0,0,1-.235,3.45l-.012.012A2.634,2.634,0,0,1,50,63.065H36.456a2.7,2.7,0,0,1-1.366-.377,2.361,2.361,0,0,0,1.071-1.978V56.624Z" transform="translate(-35.09 -56)" fill="#4fc1e9"/>
        </g>
        <g id="Grupo_956715" data-name="Grupo 956715" transform="translate(52.136 61.226)">
          <path id="Trazado_721052" data-name="Trazado 721052" d="M46.292,54.012c2.8.165,2.92,2.343,5.934,2.343C55.37,56.355,55.37,54,58.513,54s3.132,2.343,6.264,2.355a7.192,7.192,0,0,1-7.206,7.065h-4.4a7.109,7.109,0,0,1-3.273-.789,2.646,2.646,0,0,0,.235-3.45l-.412-.553-3.438-4.58c0-.012.012-.024.012-.035Z" transform="translate(-46.28 -54)" fill="#69d6f4"/>
        </g>
      </g>
      <g id="Grupo_956717" data-name="Grupo 956717" transform="translate(0 0)">
        <path id="Trazado_721053" data-name="Trazado 721053" d="M26.046,23.8a2.633,2.633,0,0,1-4.71,0l-.124-.248-2.106,1.054.124.247a4.988,4.988,0,0,0,8.923,0l.124-.248-2.106-1.054Z" transform="translate(2.212 3.001)"/>
        <path id="Trazado_721054" data-name="Trazado 721054" d="M70.981,59.158l-4.046-3.37V45.742a2.357,2.357,0,0,0-2.355-2.355H62.226a2.357,2.357,0,0,0-2.355,2.355V55.788l-4.046,3.37a8.354,8.354,0,0,0-1.741,2.024l-1.278-1.7V47.8a25.754,25.754,0,0,0,9.419-19.97V25.51a3.527,3.527,0,0,0,2.355-3.316v-4.71a3.537,3.537,0,0,0-3.532-3.532,3.493,3.493,0,0,0-1.177.217V9.242a3.532,3.532,0,1,0-7.065,0v4.926a3.493,3.493,0,0,0-1.177-.217,3.532,3.532,0,1,0,0,7.065,3.492,3.492,0,0,0,1.177-.217v.217A17.681,17.681,0,0,1,35.145,38.678h-6.09l-.472-2.494a9.293,9.293,0,0,0,7.474-6.979,8.23,8.23,0,0,0,5.842-12.9A8.23,8.23,0,0,0,33.942,3.448a8.224,8.224,0,0,0-10.571-.961A8.232,8.232,0,0,0,10.492,8.139,8.24,8.24,0,0,0,6.5,22.785a5.83,5.83,0,0,0-.795,2.941,5.9,5.9,0,0,0,4.809,5.788,5.821,5.821,0,0,0,6.966,4.677v2.621A18.986,18.986,0,0,0,1,57.559v3.49A12.967,12.967,0,0,0,13.952,74H29.258a4.669,4.669,0,0,0,1.906-.411A3.517,3.517,0,0,0,32.79,74h7.065a3.5,3.5,0,0,0,1.3-.254A3.83,3.83,0,0,0,42.5,74h13.54a3.793,3.793,0,0,0,2.049-.606A8.424,8.424,0,0,0,61.2,74h4.406a8.395,8.395,0,0,0,5.375-14.843Zm-6.4-13.416v4.71H62.226v-4.71ZM57.335,60.966l4.891-4.076V52.807h2.355V56.89l4.891,4.076a6.02,6.02,0,0,1,2.037,3.371,5.353,5.353,0,0,1-1.12-.7,5.944,5.944,0,0,0-7.694,0,3.612,3.612,0,0,1-4.865,0A7,7,0,0,0,56,62.564a5.981,5.981,0,0,1,1.334-1.6Zm-3.529,3.769a6.153,6.153,0,0,0-1.394-.154,5.784,5.784,0,0,0-3.847,1.413,3.5,3.5,0,0,1-2.434.942,3.42,3.42,0,0,1-2.368-.895L48.1,60.263V57.516h2.355v2.747ZM38.678,53.772l2.725-.545a26.042,26.042,0,0,0,4.34-1.275v7.527l-2.355,3.14V59.871a2.357,2.357,0,0,0-2.355-2.355H38.678Zm11.774,1.389H48.1V52.807h2.355Zm0-4.71H48.1v-4.71h2.355Zm10.6-34.145a1.179,1.179,0,0,1,1.177,1.177v4.71a1.177,1.177,0,1,1-2.355,0v-4.71A1.179,1.179,0,0,1,61.049,16.307Zm-4.71-8.242a1.179,1.179,0,0,1,1.177,1.177v4.71H55.162V9.242A1.179,1.179,0,0,1,56.339,8.065Zm-4.71,10.6a1.177,1.177,0,1,1,1.177-1.177A1.179,1.179,0,0,1,51.629,18.661Zm3.532-2.355h2.355v8.242a1.177,1.177,0,0,1-2.355,0ZM54.14,27.291a3.495,3.495,0,0,0,5.6-1.824c.044.018.092.026.137.042v2.318A23.4,23.4,0,0,1,52.617,44.82a2.356,2.356,0,0,0-2.165-1.433H48.1a2.357,2.357,0,0,0-2.355,2.355V49.4a23.628,23.628,0,0,1-4.8,1.519l-2.263.452V48.1H36.323v9.419h-4.71V41.032h3.532A20.04,20.04,0,0,0,54.14,27.291ZM29.258,64.581H29.1a3.363,3.363,0,0,0-1.442-1.841L25.778,49.552,27.012,47.7l2.247,1.123Zm-6.366-.5-.248.5H21.2l2.018-14.129h.312l1.7,11.868A3.318,3.318,0,0,0,22.892,64.084ZM18.233,41.091l3.151,3.151-3.9,1.95v-5.01c.247-.038.5-.065.749-.091Zm10.335-.059h.69v5.159l-3.9-1.95ZM23.919,48.1h-1.1l-.971-1.456,1.519-.759,1.519.759Zm-6.435.728L19.73,47.7l1.234,1.851L18.817,64.581H17.484ZM33.968,27.041a6.926,6.926,0,0,1-9.117,6.571l-2.284-.762-.745,2.234,2.284.762a9.29,9.29,0,0,0,2.095.409l.608,3.207L23.371,42.9l-3.532-3.532V25l-3.752-1.876a1.734,1.734,0,0,1,.776-3.284h.622a4.71,4.71,0,1,0,9.419,0h2.355a4.714,4.714,0,0,0,4.71,4.71ZM32.79,12.774a1.179,1.179,0,0,1,1.177,1.177v1.177a4.694,4.694,0,0,0-4.055,2.355H26.248a4.628,4.628,0,0,0-6.355-1.73,3.531,3.531,0,0,1,3.478-2.98Zm1.177,9.419a2.355,2.355,0,1,1,2.355-2.355A2.357,2.357,0,0,1,33.968,22.194Zm-11.774-4.71a2.355,2.355,0,1,1-2.355,2.355A2.357,2.357,0,0,1,22.194,17.484ZM16.307,33.968a3.537,3.537,0,0,1-3.532-3.532V29.258H11.6A3.522,3.522,0,0,1,9.041,23.3l1.048-1.1-1.333-.736A5.887,5.887,0,0,1,11.6,10.419h1.177V9.242a5.879,5.879,0,0,1,9.811-4.379l.785.7.785-.7a5.875,5.875,0,0,1,8.454.618l.466.562.711-.168a5.876,5.876,0,0,1,5.736,9.645l-.706.787.706.787a5.877,5.877,0,0,1-3.2,9.691V23.894a4.669,4.669,0,0,0,0-8.11V13.952a3.537,3.537,0,0,0-3.532-3.532h-4.71a1.177,1.177,0,0,1,0-2.355h1.177V5.71H28.081a3.537,3.537,0,0,0-3.532,3.532,3.493,3.493,0,0,0,.217,1.177H23.371a5.894,5.894,0,0,0-5.887,5.887v1.177h-.622a4.088,4.088,0,0,0-1.829,7.744l2.45,1.226v7.286a3.516,3.516,0,0,1-1.177.228ZM3.355,61.049v-3.49A16.635,16.635,0,0,1,15.129,41.717V64.581H13.952a3.537,3.537,0,0,1-3.532-3.532V52.807H8.065v8.242a5.894,5.894,0,0,0,5.887,5.887h8.242v4.71H13.952A10.609,10.609,0,0,1,3.355,61.049Zm21.194,10.6V66.036l.45-.9a1.006,1.006,0,0,1,1.905.45v1.349h2.355a2.355,2.355,0,0,1,0,4.71Zm8.765,0a4.635,4.635,0,0,0-1.7-6.41V59.871h9.419v2.355h-4.71v2.355h4.71v2.355H38.678v2.355h2.355v1.177a1.179,1.179,0,0,1-1.177,1.177Zm22.731,0H43.171a3.492,3.492,0,0,0,.217-1.177V68.617a5.447,5.447,0,0,0,2.745.673,5.784,5.784,0,0,0,3.847-1.413,3.617,3.617,0,0,1,4.869,0,6.625,6.625,0,0,0,2.2,1.177l.177.235a1.472,1.472,0,0,1-1.177,2.355Zm9.562,0H61.2a6.05,6.05,0,0,1-1.56-.21,3.773,3.773,0,0,0,.231-1.262,3.846,3.846,0,0,0-.765-2.3L58.1,66.537a5.619,5.619,0,0,0,2.161.4,5.784,5.784,0,0,0,3.847-1.413,3.617,3.617,0,0,1,4.869,0,6.156,6.156,0,0,0,2.548,1.282,6.049,6.049,0,0,1-5.918,4.84Z" transform="translate(-1 -1)"/>
      </g>
    </g>
  </g>
</svg>
