<svg id="Grupo_956885" data-name="Grupo 956885" xmlns="http://www.w3.org/2000/svg" width="75.243" height="53.504" viewBox="0 0 75.243 53.504">
  <g id="Grupo_956886" data-name="Grupo 956886" transform="translate(0 0)">
    <path id="Trazado_721138" data-name="Trazado 721138" d="M76.018,108.639c-.185.408-.359.822-.558,1.223a5.931,5.931,0,0,1-5.289,3.477c-.171.01-.343.008-.514.008q-31.253,0-62.505,0a5.838,5.838,0,0,1-5.715-3.36,6.735,6.735,0,0,1-.63-2.822Q.748,86.6.784,66.036a5.949,5.949,0,0,1,6.21-6.185q31.4-.013,62.8,0A5.936,5.936,0,0,1,75.8,64.283a2.778,2.778,0,0,0,.216.417Zm-2.372-40.26c.068-.312.022-.5-.376-.485-1.183.033-2.368.034-3.552.047l-4.541-.017-4.268.02-4.447-.007-4.358.012-4.448-.015H43.4l-4.544,0-4.263.007-4.543-.01-4.265.013-4.541-.016-4.268.019-4.447-.006-4.359.014H6.67v1.49l-.041.547h3.965l4.43.016H19.3l4.526,0L28.109,70l4.553.022L36.916,70l4.562.031,4.246-.034,4.57.038,4.24-.041,4.43.015h4.277l4.528,0L72.048,70h1.6ZM6.618,72.419v.808c0,11.24.034,22.48-.025,33.72a3.885,3.885,0,0,0,4.058,4.072q29.459-.064,58.919-.026c2.657,0,4.1-1.429,4.1-4.068q0-16.86,0-33.72v-.785Zm66.962-6.842A3.505,3.505,0,0,0,69.9,62.2q-29.783,0-59.565,0A3.612,3.612,0,0,0,6.87,64.55c-.392.962-.349,1.027.69,1.027H73.579ZM4.97,110.379a8.236,8.236,0,0,1-.7-3.947q.017-16.567.006-33.134c0-1.008-.094-1.076-1.15-.8v.859q0,16.714,0,33.428a8.416,8.416,0,0,0,.012.881,3.175,3.175,0,0,0,1.83,2.708M4.239,67.954H3.176v2.064H4.239Zm.683-5.107A2.585,2.585,0,0,0,3.3,65.523h.849l.774-2.676" transform="translate(-0.776 -59.844)" fill="#010202"/>
    <path id="Trazado_721139" data-name="Trazado 721139" d="M32.407,128.17h67.05v.785q0,16.86,0,33.72c0,2.638-1.44,4.068-4.1,4.068q-29.459,0-58.919.026a3.885,3.885,0,0,1-4.058-4.072c.059-11.24.025-22.48.025-33.72v-.808m17.811,18.883a15.718,15.718,0,1,0,15.7-15.7,15.705,15.705,0,0,0-15.7,15.7" transform="translate(-26.565 -115.595)" fill="#badc61"/>
    <path id="Trazado_721140" data-name="Trazado 721140" d="M99.583,76.033H33.564c-1.04,0-1.083-.065-.69-1.027a3.611,3.611,0,0,1,3.466-2.347q29.783,0,59.566,0a3.505,3.505,0,0,1,3.678,3.373" transform="translate(-26.78 -70.3)" fill="#afafaf"/>
    <path id="Trazado_721141" data-name="Trazado 721141" d="M15.377,165.865a3.174,3.174,0,0,1-1.83-2.708,8.415,8.415,0,0,1-.012-.881q0-16.714,0-33.428v-.859c1.056-.28,1.15-.212,1.15.8q0,16.567-.006,33.134a8.232,8.232,0,0,0,.7,3.947" transform="translate(-11.182 -115.331)" fill="#badc61"/>
    <path id="Trazado_721142" data-name="Trazado 721142" d="M151.225,103.765l4.543.01-1.926,2.085-4.553-.022,1.936-2.073" transform="translate(-121.956 -95.682)" fill="#badc61"/>
    <path id="Trazado_721143" data-name="Trazado 721143" d="M199.074,103.781l4.544,0-1.918,2.093-4.561-.031,1.935-2.066" transform="translate(-160.999 -95.695)" fill="#badc61"/>
    <path id="Trazado_721144" data-name="Trazado 721144" d="M246.932,103.8l4.448.015c-.181.219-.355.443-.542.655-.42.478-.846.951-1.27,1.425L245,105.86l1.933-2.059" transform="translate(-200.051 -95.711)" fill="#badc61"/>
    <path id="Trazado_721145" data-name="Trazado 721145" d="M105.952,105.833l-4.526,0,1.939-2.08,4.541.016-1.953,2.068" transform="translate(-82.902 -95.669)" fill="#badc61"/>
    <path id="Trazado_721146" data-name="Trazado 721146" d="M342.1,103.747l4.54.017-1.952,2.067-4.528,0,1.939-2.08" transform="translate(-277.702 -95.667)" fill="#badc61"/>
    <path id="Trazado_721147" data-name="Trazado 721147" d="M56.053,103.82l4.447.006-1.947,2.061-4.429-.016,1.93-2.051" transform="translate(-44.305 -95.726)" fill="#badc61"/>
    <path id="Trazado_721148" data-name="Trazado 721148" d="M297.292,105.887l-4.429-.015,1.93-2.051,4.447.007-1.947,2.06" transform="translate(-239.105 -95.726)" fill="#badc61"/>
    <path id="Trazado_721149" data-name="Trazado 721149" d="M275.995,103.82l-1.93,2.051-4.24.041c.423-.475.85-.947,1.27-1.426.187-.213.361-.436.542-.655l4.358-.012" transform="translate(-220.308 -95.726)" fill="#fcfdfd"/>
    <path id="Trazado_721150" data-name="Trazado 721150" d="M78.19,105.829l1.947-2.061,4.268-.019-1.939,2.08H78.19" transform="translate(-63.942 -95.669)" fill="#fcfdfe"/>
    <path id="Trazado_721151" data-name="Trazado 721151" d="M126.02,105.846l1.953-2.068,4.266-.013-1.936,2.073-4.283.008" transform="translate(-102.969 -95.682)" fill="#fdfdfe"/>
    <path id="Trazado_721152" data-name="Trazado 721152" d="M180.214,103.781l-1.935,2.066-4.254.026,1.926-2.085,4.263-.007" transform="translate(-142.139 -95.695)" fill="#fdfdfe"/>
    <path id="Trazado_721153" data-name="Trazado 721153" d="M228.1,103.8l-1.933,2.059-4.247.034,1.918-2.093H228.1" transform="translate(-181.223 -95.711)" fill="#fdfdfe"/>
    <path id="Trazado_721154" data-name="Trazado 721154" d="M316.929,105.827l1.947-2.06,4.268-.02-1.939,2.08h-4.276" transform="translate(-258.742 -95.667)" fill="#fcfdfe"/>
    <path id="Trazado_721155" data-name="Trazado 721155" d="M38.472,103.82l-1.93,2.051H32.576c.014-.184.027-.366.041-.548l1.5-1.489,4.359-.014" transform="translate(-26.723 -95.726)" fill="#fcfdfd"/>
    <path id="Trazado_721156" data-name="Trazado 721156" d="M364.767,105.7l1.952-2.067c1.184-.013,2.368-.014,3.552-.047.4-.011.445.173.376.485l-1.6,1.62-4.281.01" transform="translate(-297.776 -95.532)" fill="#fdfdfe"/>
    <rect id="Rectángulo_339759" data-name="Rectángulo 339759" width="1.064" height="2.064" transform="translate(2.4 8.109)" fill="#badc61"/>
    <path id="Trazado_721157" data-name="Trazado 721157" d="M15.991,76.158l-.774,2.676h-.849a2.585,2.585,0,0,1,1.623-2.676" transform="translate(-11.845 -73.156)" fill="#afafaf"/>
    <path id="Trazado_721158" data-name="Trazado 721158" d="M388.025,107.837l1.6-1.62v1.62Z" transform="translate(-316.753 -97.682)" fill="#badc61"/>
    <path id="Trazado_721159" data-name="Trazado 721159" d="M34.3,103.894l-1.5,1.489v-1.489Z" transform="translate(-26.906 -95.787)" fill="#badc61"/>
    <path id="Trazado_721160" data-name="Trazado 721160" d="M129.292,161.152a15.718,15.718,0,1,1,15.64,15.733,15.757,15.757,0,0,1-15.64-15.733m15.68,13.385A13.368,13.368,0,1,0,131.64,161.17a13.407,13.407,0,0,0,13.331,13.367" transform="translate(-105.639 -129.694)" fill="#020303"/>
    <path id="Trazado_721161" data-name="Trazado 721161" d="M155.383,184.962a13.368,13.368,0,1,1,13.406-13.312,13.364,13.364,0,0,1-13.406,13.312m-4.439-13.373c0,.269,0,.538,0,.807.014,1.687-.025,3.376.06,5.059.064,1.274.972,1.722,2.113,1.141a8.548,8.548,0,0,0,.751-.455q3.414-2.208,6.824-4.422a10.784,10.784,0,0,0,1.2-.839,1.6,1.6,0,0,0,.023-2.544,5.4,5.4,0,0,0-.708-.519q-3.718-2.411-7.442-4.814a6.563,6.563,0,0,0-.757-.444A1.281,1.281,0,0,0,151,165.651a7.415,7.415,0,0,0-.054.95c0,1.663,0,3.326,0,4.988" transform="translate(-116.051 -140.119)" fill="#fdfdfd"/>
    <path id="Trazado_721162" data-name="Trazado 721162" d="M190.363,198.783c0-1.663,0-3.326,0-4.988a7.411,7.411,0,0,1,.054-.95,1.281,1.281,0,0,1,2.007-1.091,6.568,6.568,0,0,1,.757.444q3.723,2.4,7.442,4.814a5.413,5.413,0,0,1,.708.519,1.6,1.6,0,0,1-.023,2.544,10.773,10.773,0,0,1-1.2.839q-3.409,2.216-6.824,4.422a8.531,8.531,0,0,1-.752.455c-1.141.581-2.048.133-2.113-1.141-.085-1.683-.046-3.372-.06-5.059,0-.269,0-.538,0-.807" transform="translate(-155.469 -167.313)" fill="#272c31"/>
  </g>
</svg>
