<svg xmlns="http://www.w3.org/2000/svg" width="131.188" height="32.125" viewBox="0 0 131.188 32.125">
  <path id="Trazado_725360" data-name="Trazado 725360" d="M20.6,24.75a23.878,23.878,0,0,1,1.016-7.094,17.119,17.119,0,0,1,2.8-5.562A9.961,9.961,0,0,1,28.4,8.906l1,2.594a10.187,10.187,0,0,0-3.383,5.023A24.5,24.5,0,0,0,24.8,24.531v.688A24.979,24.979,0,0,0,26,33.375a10.144,10.144,0,0,0,3.4,5.063l-1,2.594a9.861,9.861,0,0,1-3.977-3.2,16.861,16.861,0,0,1-2.8-5.539A23.993,23.993,0,0,1,20.6,25.453Zm16.625,1.531V34H31.742V11.25H40.82a10.574,10.574,0,0,1,4.617.961,7.242,7.242,0,0,1,3.109,2.734,7.468,7.468,0,0,1,1.1,4.023,6.583,6.583,0,0,1-2.383,5.32,9.887,9.887,0,0,1-6.539,1.992Zm0-4.234H40.82a3.389,3.389,0,0,0,2.43-.8A2.961,2.961,0,0,0,44.086,19a3.66,3.66,0,0,0-.859-2.547,3.043,3.043,0,0,0-2.344-.969H37.227Zm19.125-2.992-5.094-1.4,1.016-2.95,4.984,2.045-.391-5.494h3.344l-.406,5.6,4.844-2,1.016,2.981-5.156,1.4,3.422,4.141-2.7,1.844-2.859-4.594L55.492,25.07l-2.7-1.766Zm19.922,8.758L80.8,11.25H86.93L79.273,34h-6L65.68,11.25h6.078ZM111.3,22.719H96.836V18.656H111.3Zm0,6.859H96.836V25.516H111.3Zm19.688-4.047L128.742,28v6h-5.484V11.25h5.484V21.281l1.906-2.891,4.906-7.141h6.781l-7.687,10.063L142.336,34h-6.5Zm20.8-.344a22.28,22.28,0,0,1-1.078,6.969,17.792,17.792,0,0,1-2.977,5.664,9.909,9.909,0,0,1-4.1,3.211l-1-2.594a10.288,10.288,0,0,0,3.359-5,24.136,24.136,0,0,0,1.234-7.766v-.953a24.979,24.979,0,0,0-1.2-8.156,10.144,10.144,0,0,0-3.4-5.062l1-2.594a10.091,10.091,0,0,1,4.07,3.18,17.574,17.574,0,0,1,2.969,5.578,22.091,22.091,0,0,1,1.117,6.836Z" transform="translate(-20.602 -8.906)" fill="#12263f"/>
</svg>
