<svg xmlns="http://www.w3.org/2000/svg" width="189.75" height="23.078" viewBox="0 0 189.75 23.078">
  <path id="Trazado_725361" data-name="Trazado 725361" d="M44.836,26.281V34H39.352V11.25H48.43a10.574,10.574,0,0,1,4.617.961,7.242,7.242,0,0,1,3.109,2.734,7.468,7.468,0,0,1,1.1,4.023,6.583,6.583,0,0,1-2.383,5.32,9.887,9.887,0,0,1-6.539,1.992Zm0-4.234H48.43a3.389,3.389,0,0,0,2.43-.8A2.961,2.961,0,0,0,51.7,19a3.66,3.66,0,0,0-.859-2.547,3.043,3.043,0,0,0-2.344-.969H44.836ZM71.523,34H66.242V17.188L61.055,18.7v-4l9.984-3.453h.484Zm16.016-6.187L92.07,11.25H98.2L90.539,34h-6L76.945,11.25h6.078ZM111.2,34h-5.281V17.188L100.727,18.7v-4l9.984-3.453h.484ZM141.1,22.719H126.633V18.656H141.1Zm0,6.859H126.633V25.516H141.1Zm17.438-3.3V34h-5.484V11.25h9.078a10.574,10.574,0,0,1,4.617.961,7.242,7.242,0,0,1,3.109,2.734,7.468,7.468,0,0,1,1.1,4.023,6.583,6.583,0,0,1-2.383,5.32,9.887,9.887,0,0,1-6.539,1.992Zm0-4.234h3.594a3.389,3.389,0,0,0,2.43-.8A2.961,2.961,0,0,0,165.4,19a3.66,3.66,0,0,0-.859-2.547,3.043,3.043,0,0,0-2.344-.969h-3.656ZM189.43,34H173.555V30.563l7.313-7.687q2.7-3.078,2.7-4.891a3.4,3.4,0,0,0-.641-2.234,2.287,2.287,0,0,0-1.859-.766,2.316,2.316,0,0,0-1.953,1.023,4.206,4.206,0,0,0-.75,2.555h-5.281a7.471,7.471,0,0,1,1.047-3.867,7.341,7.341,0,0,1,2.906-2.773,8.633,8.633,0,0,1,4.156-1,8.493,8.493,0,0,1,5.68,1.7,6.08,6.08,0,0,1,1.992,4.891,7.1,7.1,0,0,1-.5,2.617,11.477,11.477,0,0,1-1.555,2.672,39.162,39.162,0,0,1-3.4,3.742l-2.937,3.391h8.953Zm11.813-6.187,4.531-16.562H211.9L204.242,34h-6l-7.594-22.75h6.078ZM229.1,34H213.227V30.563l7.313-7.687q2.7-3.078,2.7-4.891a3.4,3.4,0,0,0-.641-2.234,2.287,2.287,0,0,0-1.859-.766,2.316,2.316,0,0,0-1.953,1.023,4.206,4.206,0,0,0-.75,2.555h-5.281A7.471,7.471,0,0,1,213.8,14.7a7.341,7.341,0,0,1,2.906-2.773,8.633,8.633,0,0,1,4.156-1,8.493,8.493,0,0,1,5.68,1.7,6.08,6.08,0,0,1,1.992,4.891,7.1,7.1,0,0,1-.5,2.617,11.477,11.477,0,0,1-1.555,2.672,39.162,39.162,0,0,1-3.4,3.742l-2.937,3.391H229.1Z" transform="translate(-39.352 -10.922)" fill="#12263f"/>
</svg>
