<svg xmlns="http://www.w3.org/2000/svg" width="193.971" height="58.078" viewBox="0 0 193.971 58.078">
  <g id="Grupo_957985" data-name="Grupo 957985" transform="translate(-976.029 -16830.922)">
    <path id="Trazado_725371" data-name="Trazado 725371" d="M15.188,26.281V34H9.7V11.25h9.078a10.574,10.574,0,0,1,4.617.961,7.242,7.242,0,0,1,3.109,2.734,7.468,7.468,0,0,1,1.1,4.023,6.583,6.583,0,0,1-2.383,5.32,9.887,9.887,0,0,1-6.539,1.992Zm0-4.234h3.594a3.389,3.389,0,0,0,2.43-.8A2.961,2.961,0,0,0,22.047,19a3.66,3.66,0,0,0-.859-2.547,3.043,3.043,0,0,0-2.344-.969H15.188ZM41.875,34H36.594V17.188L31.406,18.7v-4l9.984-3.453h.484Zm16.016-6.187L62.422,11.25h6.125L60.891,34h-6L47.3,11.25h6.078ZM81.547,34H76.266V17.188L71.078,18.7v-4l9.984-3.453h.484ZM47.727,50.484H40.9V69H35.414V50.484h-6.7V46.25H47.727ZM61.383,69H56.1V52.188L50.914,53.7v-4L60.9,46.25h.484Z" transform="translate(973 16820)" fill="#12263f"/>
    <path id="Trazado_725372" data-name="Trazado 725372" d="M10.188,26.281V34H4.7V11.25h9.078a10.574,10.574,0,0,1,4.617.961,7.242,7.242,0,0,1,3.109,2.734,7.468,7.468,0,0,1,1.1,4.023,6.583,6.583,0,0,1-2.383,5.32,9.887,9.887,0,0,1-6.539,1.992Zm0-4.234h3.594a3.389,3.389,0,0,0,2.43-.8A2.961,2.961,0,0,0,17.047,19a3.66,3.66,0,0,0-.859-2.547,3.043,3.043,0,0,0-2.344-.969H10.188ZM41.078,34H25.2V30.563l7.313-7.687q2.7-3.078,2.7-4.891a3.4,3.4,0,0,0-.641-2.234,2.287,2.287,0,0,0-1.859-.766,2.316,2.316,0,0,0-1.953,1.023,4.206,4.206,0,0,0-.75,2.555H24.734A7.471,7.471,0,0,1,25.781,14.7a7.341,7.341,0,0,1,2.906-2.773,8.633,8.633,0,0,1,4.156-1,8.493,8.493,0,0,1,5.68,1.7,6.08,6.08,0,0,1,1.992,4.891,7.1,7.1,0,0,1-.5,2.617A11.477,11.477,0,0,1,38.461,22.8a39.162,39.162,0,0,1-3.4,3.742l-2.937,3.391h8.953Zm11.813-6.187L57.422,11.25h6.125L55.891,34h-6L42.3,11.25h6.078ZM80.75,34H64.875V30.563l7.313-7.687q2.7-3.078,2.7-4.891a3.4,3.4,0,0,0-.641-2.234,2.287,2.287,0,0,0-1.859-.766,2.316,2.316,0,0,0-1.953,1.023,4.206,4.206,0,0,0-.75,2.555H64.406A7.471,7.471,0,0,1,65.453,14.7a7.341,7.341,0,0,1,2.906-2.773,8.633,8.633,0,0,1,4.156-1,8.493,8.493,0,0,1,5.68,1.7,6.08,6.08,0,0,1,1.992,4.891,7.1,7.1,0,0,1-.5,2.617A11.478,11.478,0,0,1,78.133,22.8a39.162,39.162,0,0,1-3.4,3.742L71.8,29.938H80.75ZM42.727,50.484H35.9V69H30.414V50.484h-6.7V46.25H42.727ZM60.586,69H44.711V65.563l7.313-7.687q2.7-3.078,2.7-4.891a3.4,3.4,0,0,0-.641-2.234,2.287,2.287,0,0,0-1.859-.766,2.316,2.316,0,0,0-1.953,1.023,4.206,4.206,0,0,0-.75,2.555H44.242A7.471,7.471,0,0,1,45.289,49.7,7.341,7.341,0,0,1,48.2,46.922a8.633,8.633,0,0,1,4.156-1,8.493,8.493,0,0,1,5.68,1.7,6.08,6.08,0,0,1,1.992,4.891,7.1,7.1,0,0,1-.5,2.617A11.477,11.477,0,0,1,57.969,57.8a39.162,39.162,0,0,1-3.4,3.742l-2.937,3.391h8.953Z" transform="translate(1083 16820)" fill="#12263f"/>
    <path id="Trazado_725373" data-name="Trazado 725373" d="M18.1,22.719H3.633V18.656H18.1Zm0,6.859H3.633V25.516H18.1Z" transform="translate(1062 16837)" fill="#12263f"/>
    <path id="Trazado_725374" data-name="Trazado 725374" d="M0,0H84.471" transform="translate(976.029 16856.5)" fill="none" stroke="#707070" stroke-width="2"/>
    <path id="Trazado_725375" data-name="Trazado 725375" d="M0,0H84.5" transform="translate(1085.5 16856.5)" fill="none" stroke="#707070" stroke-width="2"/>
  </g>
</svg>
