<svg xmlns="http://www.w3.org/2000/svg" width="49.5" height="31.531" viewBox="0 0 49.5 31.531">
  <g id="Grupo_957983" data-name="Grupo 957983" transform="translate(-555.5 -178.625)">
    <path id="Trazado_725360" data-name="Trazado 725360" d="M3.957,15.773H9.348V17h-6.9V5.625H3.957Zm16.93,2.406H13.73V17h7.156ZM27.23,17a3.036,3.036,0,0,1-.2-.891,3.225,3.225,0,0,1-2.406,1.047,2.984,2.984,0,0,1-2.051-.707,2.287,2.287,0,0,1-.8-1.793,2.39,2.39,0,0,1,1-2.051,4.733,4.733,0,0,1,2.824-.73H27v-.664A1.623,1.623,0,0,0,26.551,10a1.821,1.821,0,0,0-1.336-.449,2.107,2.107,0,0,0-1.3.391,1.151,1.151,0,0,0-.523.945H21.941a2,2,0,0,1,.449-1.223,3.066,3.066,0,0,1,1.219-.934A4.1,4.1,0,0,1,25.3,8.391a3.342,3.342,0,0,1,2.289.73,2.635,2.635,0,0,1,.859,2.012v3.891a4.757,4.757,0,0,0,.3,1.852V17Zm-2.4-1.1a2.54,2.54,0,0,0,1.289-.352A2.127,2.127,0,0,0,27,14.633V12.9H25.871q-2.656,0-2.656,1.555a1.316,1.316,0,0,0,.453,1.063A1.742,1.742,0,0,0,24.832,15.9Zm7.844-9.4V8.547h1.578V9.664H32.676v5.249a1.173,1.173,0,0,0,.211.763.888.888,0,0,0,.719.254,3.5,3.5,0,0,0,.688-.094V17a4.215,4.215,0,0,1-1.109.155,1.8,1.8,0,0,1-1.461-.586,2.517,2.517,0,0,1-.492-1.664V9.664H29.691V8.547H31.23V6.5ZM37.3,8.547l.039.938a3.122,3.122,0,0,1,2.508-1.094A2.417,2.417,0,0,1,42.262,9.75a3.2,3.2,0,0,1,1.1-.984,3.242,3.242,0,0,1,1.6-.375q2.781,0,2.828,2.945V17H46.34V11.422a1.941,1.941,0,0,0-.414-1.355,1.823,1.823,0,0,0-1.391-.449,1.917,1.917,0,0,0-1.336.48,1.949,1.949,0,0,0-.617,1.293V17H41.129V11.461a1.613,1.613,0,0,0-1.8-1.844,1.934,1.934,0,0,0-1.945,1.211V17H35.934V8.547Zm-30.359,20,.039.938a3.122,3.122,0,0,1,2.508-1.094A2.417,2.417,0,0,1,11.9,29.75a3.2,3.2,0,0,1,1.1-.984,3.242,3.242,0,0,1,1.6-.375q2.781,0,2.828,2.945V37H15.98V31.422a1.941,1.941,0,0,0-.414-1.355,1.823,1.823,0,0,0-1.391-.449,1.916,1.916,0,0,0-1.336.48,1.949,1.949,0,0,0-.617,1.293V37H10.77V31.461a1.613,1.613,0,0,0-1.8-1.844A1.934,1.934,0,0,0,7.02,30.828V37H5.574V28.547ZM19.223,32.7a4.993,4.993,0,0,1,.488-2.234A3.643,3.643,0,0,1,21.07,28.93a3.7,3.7,0,0,1,1.988-.539,3.565,3.565,0,0,1,2.793,1.2,4.6,4.6,0,0,1,1.066,3.18v.1a5.036,5.036,0,0,1-.473,2.215,3.589,3.589,0,0,1-1.352,1.527,3.743,3.743,0,0,1-2.02.547,3.556,3.556,0,0,1-2.785-1.2A4.575,4.575,0,0,1,19.223,32.8Zm1.453.172a3.616,3.616,0,0,0,.652,2.258,2.211,2.211,0,0,0,3.5-.012,3.955,3.955,0,0,0,.648-2.418,3.61,3.61,0,0,0-.66-2.254,2.1,2.1,0,0,0-1.754-.863,2.075,2.075,0,0,0-1.727.852A3.925,3.925,0,0,0,20.676,32.867ZM30.3,37H28.855V25H30.3Zm9.391-5.289L38.3,33.156V37H36.8V25.625h1.5V31.25l5.055-5.625h1.813l-4.477,5.023L45.52,37h-1.8Z" transform="translate(555 173)" fill="#12263f"/>
    <g id="Grupo_956693" data-name="Grupo 956693" transform="translate(555.5 184)">
      <line id="Línea_327" data-name="Línea 327" x1="49.5" transform="translate(0 9.5)" fill="none" stroke="#707070" stroke-width="1"/>
    </g>
  </g>
</svg>
