<svg xmlns="http://www.w3.org/2000/svg" width="49.5" height="31.531" viewBox="0 0 49.5 31.531">
  <g id="Grupo_957984" data-name="Grupo 957984" transform="translate(-555.5 -235.625)">
    <path id="Trazado_725361" data-name="Trazado 725361" d="M26.672,5.625H28.18V13.68a3.336,3.336,0,0,1-.98,2.555,3.66,3.66,0,0,1-2.613.922,3.762,3.762,0,0,1-2.641-.867A3.132,3.132,0,0,1,21,13.859h1.5a1.885,1.885,0,0,0,2.086,2.07,2.012,2.012,0,0,0,1.5-.586,2.27,2.27,0,0,0,.582-1.641ZM6.941,28.547l.039.938a3.122,3.122,0,0,1,2.508-1.094A2.417,2.417,0,0,1,11.9,29.75a3.2,3.2,0,0,1,1.1-.984,3.242,3.242,0,0,1,1.6-.375q2.781,0,2.828,2.945V37H15.98V31.422a1.941,1.941,0,0,0-.414-1.355,1.823,1.823,0,0,0-1.391-.449,1.916,1.916,0,0,0-1.336.48,1.949,1.949,0,0,0-.617,1.293V37H10.77V31.461a1.613,1.613,0,0,0-1.8-1.844A1.934,1.934,0,0,0,7.02,30.828V37H5.574V28.547ZM19.223,32.7a4.993,4.993,0,0,1,.488-2.234A3.643,3.643,0,0,1,21.07,28.93a3.7,3.7,0,0,1,1.988-.539,3.565,3.565,0,0,1,2.793,1.2,4.6,4.6,0,0,1,1.066,3.18v.1a5.036,5.036,0,0,1-.473,2.215,3.589,3.589,0,0,1-1.352,1.527,3.743,3.743,0,0,1-2.02.547,3.556,3.556,0,0,1-2.785-1.2A4.575,4.575,0,0,1,19.223,32.8Zm1.453.172a3.616,3.616,0,0,0,.652,2.258,2.211,2.211,0,0,0,3.5-.012,3.955,3.955,0,0,0,.648-2.418,3.61,3.61,0,0,0-.66-2.254,2.1,2.1,0,0,0-1.754-.863,2.075,2.075,0,0,0-1.727.852A3.925,3.925,0,0,0,20.676,32.867ZM30.3,37H28.855V25H30.3Zm9.391-5.289L38.3,33.156V37H36.8V25.625h1.5V31.25l5.055-5.625h1.813l-4.477,5.023L45.52,37h-1.8Z" transform="translate(555 230)" fill="#12263f"/>
    <path id="Trazado_725362" data-name="Trazado 725362" d="M49.5,0H0" transform="translate(555.5 250.5)" fill="none" stroke="#707070" stroke-width="1"/>
  </g>
</svg>
