<svg xmlns="http://www.w3.org/2000/svg" width="49.5" height="32.156" viewBox="0 0 49.5 32.156">
  <g id="Grupo_957985" data-name="Grupo 957985" transform="translate(-555.5 -288)">
    <path id="Trazado_725363" data-name="Trazado 725363" d="M19,15.977a2.082,2.082,0,0,0,1.352-.469A1.649,1.649,0,0,0,21,14.336h1.367a2.621,2.621,0,0,1-.5,1.383,3.293,3.293,0,0,1-1.23,1.047A3.55,3.55,0,0,1,19,17.156,3.482,3.482,0,0,1,16.258,16a4.59,4.59,0,0,1-1.02-3.152v-.242a5.089,5.089,0,0,1,.453-2.2,3.451,3.451,0,0,1,1.3-1.492,3.7,3.7,0,0,1,2-.531,3.39,3.39,0,0,1,2.363.852,3.043,3.043,0,0,1,1,2.211H21a1.992,1.992,0,0,0-.621-1.348A1.932,1.932,0,0,0,19,9.578a2.023,2.023,0,0,0-1.707.793,3.724,3.724,0,0,0-.605,2.293v.273a3.65,3.65,0,0,0,.6,2.25A2.033,2.033,0,0,0,19,15.977ZM29.207,17a3.036,3.036,0,0,1-.2-.891A3.225,3.225,0,0,1,26.6,17.156a2.984,2.984,0,0,1-2.051-.707,2.287,2.287,0,0,1-.8-1.793,2.39,2.39,0,0,1,1-2.051,4.733,4.733,0,0,1,2.824-.73H28.98v-.664A1.623,1.623,0,0,0,28.527,10a1.821,1.821,0,0,0-1.336-.449,2.107,2.107,0,0,0-1.3.391,1.151,1.151,0,0,0-.523.945H23.918a2,2,0,0,1,.449-1.223,3.066,3.066,0,0,1,1.219-.934,4.1,4.1,0,0,1,1.691-.344,3.342,3.342,0,0,1,2.289.73,2.635,2.635,0,0,1,.859,2.012v3.891a4.757,4.757,0,0,0,.3,1.852V17Zm-2.4-1.1a2.54,2.54,0,0,0,1.289-.352,2.127,2.127,0,0,0,.883-.914V12.9H27.848q-2.656,0-2.656,1.555a1.316,1.316,0,0,0,.453,1.063A1.742,1.742,0,0,0,26.809,15.9ZM34.262,17H32.816V5h1.445ZM6.941,28.547l.039.938a3.122,3.122,0,0,1,2.508-1.094A2.417,2.417,0,0,1,11.9,29.75a3.2,3.2,0,0,1,1.1-.984,3.242,3.242,0,0,1,1.6-.375q2.781,0,2.828,2.945V37H15.98V31.422a1.941,1.941,0,0,0-.414-1.355,1.823,1.823,0,0,0-1.391-.449,1.916,1.916,0,0,0-1.336.48,1.949,1.949,0,0,0-.617,1.293V37H10.77V31.461a1.613,1.613,0,0,0-1.8-1.844A1.934,1.934,0,0,0,7.02,30.828V37H5.574V28.547ZM19.223,32.7a4.993,4.993,0,0,1,.488-2.234A3.643,3.643,0,0,1,21.07,28.93a3.7,3.7,0,0,1,1.988-.539,3.565,3.565,0,0,1,2.793,1.2,4.6,4.6,0,0,1,1.066,3.18v.1a5.036,5.036,0,0,1-.473,2.215,3.589,3.589,0,0,1-1.352,1.527,3.743,3.743,0,0,1-2.02.547,3.556,3.556,0,0,1-2.785-1.2A4.575,4.575,0,0,1,19.223,32.8Zm1.453.172a3.616,3.616,0,0,0,.652,2.258,2.211,2.211,0,0,0,3.5-.012,3.955,3.955,0,0,0,.648-2.418,3.61,3.61,0,0,0-.66-2.254,2.1,2.1,0,0,0-1.754-.863,2.075,2.075,0,0,0-1.727.852A3.925,3.925,0,0,0,20.676,32.867ZM30.3,37H28.855V25H30.3Zm9.391-5.289L38.3,33.156V37H36.8V25.625h1.5V31.25l5.055-5.625h1.813l-4.477,5.023L45.52,37h-1.8Z" transform="translate(555 283)" fill="#12263f"/>
    <path id="Trazado_725364" data-name="Trazado 725364" d="M49.5,0H0" transform="translate(555.5 303.5)" fill="none" stroke="#707070" stroke-width="1"/>
  </g>
</svg>
