<svg xmlns="http://www.w3.org/2000/svg" xmlns:xlink="http://www.w3.org/1999/xlink" width="537.731" height="177" viewBox="0 0 537.731 177">
  <defs>
    <clipPath id="clip-path">
      <path id="path627" d="M0-682.665H71.407v71.407H0Z" transform="translate(0 682.665)" stroke="#707070" stroke-linecap="round" stroke-width="1.333"/>
    </clipPath>
    <clipPath id="clip-path-2">
      <path id="path2082" d="M0-682.665H58.578v58.578H0Z" transform="translate(0 682.665)"/>
    </clipPath>
  </defs>
  <g id="Grupo_958019" data-name="Grupo 958019" transform="translate(-532 -18608)">
    <path id="Trazado_720964" data-name="Trazado 720964" d="M146.124,89.126A69.428,69.428,0,1,1,76.7,19.7a69.428,69.428,0,0,1,69.428,69.428" transform="translate(524.734 18588.303)" fill="#feb12e"/>
    <path id="Trazado_725392" data-name="Trazado 725392" d="M110.125,71.127A51.429,51.429,0,1,1,58.7,19.7a51.429,51.429,0,0,1,51.429,51.429" transform="translate(542.733 18606.303)" fill="#fff" opacity="0.5"/>
    <path id="Trazado_726308" data-name="Trazado 726308" d="M15,0H124a15,15,0,0,1,0,30H15A15,15,0,0,1,15,0Z" transform="translate(532 18755)" fill="#feb12e"/>
    <path id="Trazado_726309" data-name="Trazado 726309" d="M-28.309-4.93h-4.5v3.047h5.281V0h-7.625V-11.375h7.609v1.9h-5.266v2.711h4.5ZM-16.9,0h-2.344l-4.562-7.484V0h-2.344V-11.375h2.344l4.57,7.5v-7.5H-16.9ZM-6.293-9.477H-9.777V0h-2.344V-9.477h-3.437v-1.9h9.266ZM-.746-4.164H-2.613V0H-4.957V-11.375H-.73a4.778,4.778,0,0,1,3.109.9A3.1,3.1,0,0,1,3.473-7.937,3.5,3.5,0,0,1,2.969-6,3.437,3.437,0,0,1,1.441-4.758L3.9-.109V0H1.387Zm-1.867-1.9H-.723A1.936,1.936,0,0,0,.645-6.512,1.606,1.606,0,0,0,1.129-7.75,1.719,1.719,0,0,0,.672-9.016a1.9,1.9,0,0,0-1.4-.461H-2.613ZM11.676-2.344H7.566L6.785,0H4.293L8.527-11.375H10.7L14.957,0H12.465ZM8.2-4.242h2.844L9.613-8.5ZM16.02,0V-11.375h3.5A5.315,5.315,0,0,1,22.2-10.7a4.712,4.712,0,0,1,1.848,1.922,5.928,5.928,0,0,1,.664,2.832v.523a5.945,5.945,0,0,1-.652,2.82,4.672,4.672,0,0,1-1.84,1.914A5.355,5.355,0,0,1,19.543,0Zm2.344-9.477v7.594H19.5a2.545,2.545,0,0,0,2.1-.9,4.06,4.06,0,0,0,.742-2.57v-.6a4.124,4.124,0,0,0-.719-2.629,2.537,2.537,0,0,0-2.1-.895ZM32.84-2.344H28.73L27.949,0H25.457l4.234-11.375h2.172L36.121,0H33.629Zm-3.477-1.9h2.844L30.777-8.5Z" transform="translate(601 18776)" fill="#12263f"/>
    <path id="Trazado_725386" data-name="Trazado 725386" d="M52.166,5V62.226c0,3.327-9.439,6.024-21.083,6.024S10,65.553,10,62.226V5s1.506,6.024,21.083,6.024S52.166,5,52.166,5Z" transform="translate(569.997 18643.516)" fill="#ef4136"/>
    <path id="Trazado_725387" data-name="Trazado 725387" d="M17.53,9.629C10.713,7.85,10,5,10,5V62.226c0,1.852,2.929,3.506,7.53,4.611Z" transform="translate(569.997 18643.516)" fill="#be3c36"/>
    <path id="Trazado_726310" data-name="Trazado 726310" d="M21.374,0c11.8,0,21.374,2.77,21.374,6.187s-9.569,6.187-21.374,6.187S0,9.6,0,6.187,9.569,0,21.374,0Z" transform="translate(579.616 18642.402)" fill="#be3c36"/>
    <path id="Trazado_725388" data-name="Trazado 725388" d="M52.166,37.577c0,3.327-9.439,6.024-21.083,6.024S10,40.9,10,37.577V18s3.012,6.024,21.083,6.024S52.166,18,52.166,18Z" transform="translate(569.997 18650.094)" fill="#f1f2f2"/>
    <path id="Trazado_725389" data-name="Trazado 725389" d="M17.53,22.443C11.336,20.658,10,18,10,18V37.577c0,1.852,2.929,3.506,7.53,4.611Z" transform="translate(569.997 18650.094)" fill="#d1d3d4"/>
    <path id="Trazado_725390" data-name="Trazado 725390" d="M31.589,0C20.709,0,9,2.356,9,7.53V64.755c0,5.174,11.709,7.53,22.589,7.53s22.589-2.356,22.589-7.53V7.53C54.178,2.356,42.469,0,31.589,0Zm0,3.012c12.917,0,19.577,3.167,19.577,4.518s-6.661,4.518-19.577,4.518S12.012,8.881,12.012,7.53,18.672,3.012,31.589,3.012Zm0,66.261c-12.917,0-19.577-3.166-19.577-4.518V50.7c4.179,2.392,12.074,3.514,19.577,3.514s15.4-1.122,19.577-3.514V64.755C51.166,66.107,44.506,69.273,31.589,69.273Zm0-18.071c-12.917,0-19.577-3.166-19.577-4.518V31.123c4.179,2.392,12.074,3.514,19.577,3.514s15.4-1.122,19.577-3.514V46.684C51.166,48.036,44.506,51.2,31.589,51.2Zm0-19.577c-12.917,0-19.577-3.167-19.577-4.518V11.545c4.179,2.392,12.074,3.514,19.577,3.514s15.4-1.122,19.577-3.514V27.107C51.166,28.458,44.506,31.625,31.589,31.625Z" transform="translate(569.491 18640.986)"/>
    <path id="Trazado_725391" data-name="Trazado 725391" d="M29,4h6.024V7.012H29Z" transform="translate(579.61 18643.01)"/>
    <path id="Trazado_720984" data-name="Trazado 720984" d="M178.3,141.653a69.428,69.428,0,1,0,69.428-69.428A69.428,69.428,0,0,0,178.3,141.653" transform="translate(552.699 18535.775)" fill="#49cf99"/>
    <path id="Trazado_726311" data-name="Trazado 726311" d="M15,0H124a15,15,0,0,1,0,30H15A15,15,0,0,1,15,0Z" transform="translate(731 18755)" fill="#34bc85"/>
    <path id="Trazado_726312" data-name="Trazado 726312" d="M-32.605-4.008V0h-2.344V-11.375h4.438a5.134,5.134,0,0,1,2.254.469,3.454,3.454,0,0,1,1.5,1.332,3.714,3.714,0,0,1,.523,1.965,3.266,3.266,0,0,1-1.145,2.637,4.767,4.767,0,0,1-3.168.965Zm0-1.9h2.094a2.059,2.059,0,0,0,1.418-.437,1.591,1.591,0,0,0,.488-1.25A1.876,1.876,0,0,0-29.1-8.945a1.839,1.839,0,0,0-1.359-.531h-2.148Zm12.188,1.742h-1.867V0h-2.344V-11.375H-20.4a4.778,4.778,0,0,1,3.109.9A3.1,3.1,0,0,1-16.2-7.937,3.5,3.5,0,0,1-16.7-6,3.437,3.437,0,0,1-18.23-4.758L-15.77-.109V0h-2.516Zm-1.867-1.9h1.891a1.936,1.936,0,0,0,1.367-.449,1.606,1.606,0,0,0,.484-1.238A1.719,1.719,0,0,0-19-9.016a1.9,1.9,0,0,0-1.4-.461h-1.883Zm17.211.633a6.867,6.867,0,0,1-.594,2.945,4.472,4.472,0,0,1-1.7,1.953A4.7,4.7,0,0,1-9.9.156a4.732,4.732,0,0,1-2.523-.68,4.515,4.515,0,0,1-1.719-1.941,6.67,6.67,0,0,1-.617-2.9V-5.93a6.831,6.831,0,0,1,.605-2.957,4.508,4.508,0,0,1,1.711-1.961,4.706,4.706,0,0,1,2.527-.684,4.706,4.706,0,0,1,2.527.684A4.508,4.508,0,0,1-5.68-8.887a6.811,6.811,0,0,1,.605,2.949Zm-2.375-.516A4.787,4.787,0,0,0-8.09-8.664a2.088,2.088,0,0,0-1.828-.93,2.088,2.088,0,0,0-1.82.918,4.732,4.732,0,0,0-.648,2.691v.555a4.847,4.847,0,0,0,.641,2.7A2.082,2.082,0,0,0-9.9-1.766,2.064,2.064,0,0,0-8.09-2.691a4.819,4.819,0,0,0,.641-2.7ZM5.559-3.789A4.025,4.025,0,0,1,4.2-.9,4.76,4.76,0,0,1,.98.156,4.28,4.28,0,0,1-2.461-1.316,6.038,6.038,0,0,1-3.715-5.359v-.7a6.819,6.819,0,0,1,.578-2.891,4.332,4.332,0,0,1,1.652-1.918,4.629,4.629,0,0,1,2.5-.668,4.637,4.637,0,0,1,3.172,1.055A4.326,4.326,0,0,1,5.574-7.516H3.23a2.376,2.376,0,0,0-.613-1.6,2.271,2.271,0,0,0-1.605-.5,1.991,1.991,0,0,0-1.754.84,4.707,4.707,0,0,0-.6,2.605V-5.3a5.038,5.038,0,0,0,.559,2.7A1.954,1.954,0,0,0,.98-1.758a2.314,2.314,0,0,0,1.621-.5,2.241,2.241,0,0,0,.613-1.535ZM13.941-4.93h-4.5v3.047h5.281V0H7.1V-11.375h7.609v1.9H9.441v2.711h4.5ZM22-2.984A1.2,1.2,0,0,0,21.527-4a6.148,6.148,0,0,0-1.687-.75,11.963,11.963,0,0,1-1.93-.777,3.153,3.153,0,0,1-1.937-2.82A2.747,2.747,0,0,1,16.492-10a3.389,3.389,0,0,1,1.492-1.129,5.616,5.616,0,0,1,2.184-.406,5.112,5.112,0,0,1,2.172.441,3.458,3.458,0,0,1,1.48,1.246,3.261,3.261,0,0,1,.527,1.828H22a1.534,1.534,0,0,0-.492-1.215,2.023,2.023,0,0,0-1.383-.434,2.162,2.162,0,0,0-1.336.363,1.146,1.146,0,0,0-.477.957,1.1,1.1,0,0,0,.559.93,6.311,6.311,0,0,0,1.645.7,7.106,7.106,0,0,1,2.914,1.492A2.972,2.972,0,0,1,24.348-3,2.737,2.737,0,0,1,23.23-.684a4.891,4.891,0,0,1-3.008.84,5.808,5.808,0,0,1-2.391-.48,3.783,3.783,0,0,1-1.645-1.316,3.371,3.371,0,0,1-.566-1.937h2.352q0,1.883,2.25,1.883a2.189,2.189,0,0,0,1.3-.34A1.106,1.106,0,0,0,22-2.984ZM35.277-5.43a6.867,6.867,0,0,1-.594,2.945,4.472,4.472,0,0,1-1.7,1.953,4.7,4.7,0,0,1-2.535.688,4.732,4.732,0,0,1-2.523-.68,4.515,4.515,0,0,1-1.719-1.941,6.67,6.67,0,0,1-.617-2.9V-5.93A6.831,6.831,0,0,1,26.2-8.887a4.508,4.508,0,0,1,1.711-1.961,4.706,4.706,0,0,1,2.527-.684,4.706,4.706,0,0,1,2.527.684,4.508,4.508,0,0,1,1.711,1.961,6.811,6.811,0,0,1,.605,2.949ZM32.9-5.945a4.787,4.787,0,0,0-.641-2.719,2.088,2.088,0,0,0-1.828-.93,2.088,2.088,0,0,0-1.82.918,4.732,4.732,0,0,0-.648,2.691v.555a4.847,4.847,0,0,0,.641,2.7,2.082,2.082,0,0,0,1.844.961,2.064,2.064,0,0,0,1.813-.926,4.819,4.819,0,0,0,.641-2.7Z" transform="translate(800.011 18776)" fill="#12263f"/>
    <path id="Trazado_725393" data-name="Trazado 725393" d="M110.125,71.127A51.429,51.429,0,1,1,58.7,19.7a51.429,51.429,0,0,1,51.429,51.429" transform="translate(741.732 18606.301)" fill="#fff" opacity="0.5"/>
    <g id="g623" transform="translate(764.296 18641.297)">
      <g id="g625" clip-path="url(#clip-path)">
        <g id="g631" transform="translate(6.276 1.046)">
          <path id="path633" d="M-450.563-340.063a4.189,4.189,0,0,0,4.19-4.189,4.189,4.189,0,0,0-4.473-4.18,5.566,5.566,0,0,0-5.484-6.506,5.563,5.563,0,0,0-5.563,5.563,5.57,5.57,0,0,0,7.146,5.334,4.19,4.19,0,0,0,4.184,3.977M-494.829-367.6c4.633-.192,6.195-3.562,6.271-5.69h8.306a4.191,4.191,0,0,0-4.117,4.184,4.184,4.184,0,0,0,4.184,4.184v4.234H-476V-367.6a5.733,5.733,0,0,0,4.626-.176,8.264,8.264,0,0,0,8.245,7.722,8.25,8.25,0,0,0,6.589-3.276,9.913,9.913,0,0,0,7.492,3.409,9.937,9.937,0,0,0,9.937-9.937,9.937,9.937,0,0,0-9.937-9.937,9.935,9.935,0,0,0-8.728,5.183,8.231,8.231,0,0,0-5.353-1.969,8.225,8.225,0,0,0-4.707,1.472,6.278,6.278,0,0,0-6.073-4.686h-18.828a6.275,6.275,0,0,0-6.271,6.5A4.19,4.19,0,0,0-503.2-369.1a4.184,4.184,0,0,0,4.184,4.184v4.234h4.184Z" transform="translate(503.197 379.79)" fill="#dededf" stroke="#707070" stroke-linecap="round" stroke-width="1.333" fill-rule="evenodd"/>
        </g>
        <g id="g635" transform="translate(7.74 28.521)">
          <path id="path637" d="M0-71.631H9.623L9-80H.628Z" transform="translate(0 79.998)" fill="#6b809a" stroke="#707070" stroke-linecap="round" stroke-width="1.333" fill-rule="evenodd"/>
        </g>
        <path id="path639" d="M53.138-481.632h8.368V-490H53.138ZM50-439.792H64.644l-2.51-33.472H52.51Z" transform="translate(-44.77 510.153)" fill="#6b809a" stroke="#707070" stroke-linecap="round" stroke-width="1.333" fill-rule="evenodd"/>
        <g id="g641" transform="translate(18.305 49.441)">
          <path id="path643" d="M-13.431-179.079h4.184L-7.678-200H-15Z" transform="translate(15 200)" fill="#a8c6e2" stroke="#707070" stroke-linecap="round" stroke-width="1.333" fill-rule="evenodd"/>
        </g>
        <g id="g645" transform="translate(37.133 45.257)">
          <path id="path647" d="M-13.431-214.9H14.044V-240l-14.4,4.114V-240L-15-235.815Z" transform="translate(15 239.999)" fill="#e3edf6" stroke="#707070" stroke-linecap="round" stroke-width="1.333" fill-rule="evenodd"/>
        </g>
        <g id="g649" transform="translate(7.74 28.521)">
          <path id="path651" d="M0-71.631H3.138L3.766-80H.628Z" transform="translate(0 79.998)" fill="#6b809a" stroke="#707070" stroke-linecap="round" stroke-width="1.333" fill-rule="evenodd"/>
        </g>
        <path id="path653" d="M53.138-481.632h3.138V-490H53.138ZM50-439.792h3.138l2.51-33.472H52.51Z" transform="translate(-44.77 510.153)" fill="#6b809a" stroke="#707070" stroke-linecap="round" stroke-width="1.333" fill-rule="evenodd"/>
        <path id="path655" d="M53.138-481.632h8.368V-490H53.138Zm18.828,0h8.368V-490H71.966Zm-3.138,41.84H83.472l-2.51-33.472H71.338Zm-18.828,0H64.644l-2.51-33.472H52.51Z" transform="translate(-44.77 510.153)" fill="#f88fa4" stroke="#707070" stroke-linecap="round" stroke-width="1.333" fill-rule="evenodd"/>
        <g id="g657" transform="translate(7.74 28.521)">
          <path id="path659" d="M0-71.631H9.623L9-80H.628Zm18.828,0h9.623L27.824-80H19.456Z" transform="translate(0 79.998)" fill="#e3edf6" stroke="#707070" stroke-linecap="round" stroke-width="1.333" fill-rule="evenodd"/>
        </g>
        <g id="g661" transform="translate(7.74 28.521)">
          <path id="path663" d="M-161.171-71.631h3.138l.628-8.368h-3.138Zm-18.828,0h3.138l.628-8.368h-3.138Z" transform="translate(180 79.998)" fill="#6b809a" stroke="#707070" stroke-linecap="round" stroke-width="1.333" fill-rule="evenodd"/>
        </g>
        <path id="path665" d="M53.138-481.632h3.138V-490H53.138Zm18.828,0H75.1V-490H71.966Zm-3.138,41.84h3.138l2.51-33.472H71.338Zm-18.828,0h3.138l2.51-33.472H52.51Z" transform="translate(-44.77 510.153)" fill="#f05475" stroke="#707070" stroke-linecap="round" stroke-width="1.333" fill-rule="evenodd"/>
        <g id="g667" transform="translate(37.133 48.475)">
          <path id="path669" d="M-125.356-187.352h3.138v-21.886l-3.138.9Zm-13.075,0h3.138l-1.656-21.792-3.051.872Z" transform="translate(140 209.238)" fill="#a8c6e2" stroke="#707070" stroke-linecap="round" stroke-width="1.333" fill-rule="evenodd"/>
        </g>
        <path id="path671" d="M100-581.926h4.184v-3.138H100Zm27.638-7.088a8.264,8.264,0,0,0,8.245,7.722,8.25,8.25,0,0,0,6.589-3.276,9.913,9.913,0,0,0,7.492,3.409,9.941,9.941,0,0,0,9.813-11.506c-1.328,8.37-13.092,9.87-17.305,3.913-2.909,6.6-11.763,5.972-14.834-.262m16.617,13.057a5.572,5.572,0,0,0-7.135,5.34,5.57,5.57,0,0,0,7.137,5.337,5.559,5.559,0,0,1-4-5.337,5.566,5.566,0,0,1,4-5.34m-25.428-5.969h4.184v-3.138h-4.184Z" transform="translate(-89.54 602.079)" fill="#9c9a9f" stroke="#707070" stroke-linecap="round" stroke-width="1.333" fill-rule="evenodd"/>
        <g id="g673" transform="translate(11.506 7.845)">
          <path id="path675" d="M-161.171-141.173h2.092m-20.92,0h2.092m48.918-16.492h2.092" transform="translate(180 157.665)" fill="none" stroke="#fff" stroke-linecap="round" stroke-miterlimit="2.613" stroke-width="2"/>
        </g>
        <g id="g677" transform="translate(5.23 20.153)">
          <path id="path679" d="M-11.415-277.6l1.8-24.061v-8.368m-3.138,50.208,1.177-15.693m10.329-34.515v8.368L1.9-259.819m-14.644-50.208H1.9" transform="translate(12.748 310.027)" fill="none" stroke="#000" stroke-linecap="round" stroke-miterlimit="22.926" stroke-width="2"/>
        </g>
        <g id="g681" transform="translate(24.058 20.153)">
          <path id="path683" d="M0-429.792l3.138-41.84V-480m8.368,0v8.368l3.138,41.84M0-480H14.644" transform="translate(0 480)" fill="none" stroke="#000" stroke-linecap="round" stroke-miterlimit="22.926" stroke-width="2"/>
        </g>
        <g id="g685" transform="translate(37.133 45.257)">
          <path id="path687" d="M0-35.816,14.644-40v25.1m0-20.99L29.044-40v25.1" transform="translate(0 40)" fill="none" stroke="#000" stroke-linecap="round" stroke-miterlimit="22.926" stroke-width="2"/>
        </g>
        <g id="g689" transform="translate(0 70.361)">
          <path id="path691" d="M-611.261,0h-71.408" transform="translate(682.669)" fill="none" stroke="#000" stroke-linecap="round" stroke-miterlimit="22.926" stroke-width="2"/>
        </g>
        <g id="g693" transform="translate(29.288 10.739)">
          <path id="path695" d="M0-80.586v-7.372M4.184-90v9.414" transform="translate(0 90)" fill="none" stroke="#000" stroke-linecap="round" stroke-miterlimit="22.926" stroke-width="2"/>
        </g>
        <g id="g697" transform="translate(10.46 10.103)">
          <path id="path699" d="M0-86.033v-7.372m4.184-2.678v10.05" transform="translate(0 96.084)" fill="none" stroke="#000" stroke-linecap="round" stroke-miterlimit="22.926" stroke-width="2"/>
        </g>
        <g id="g701" transform="translate(6.276 1.046)">
          <path id="path703" d="M-196.987-127.315a4.184,4.184,0,0,1-4.184-4.184,4.19,4.19,0,0,1,4.189-4.184h-8.377c-.076,2.128-1.638,5.5-6.271,5.69m53.506-8.506a9.894,9.894,0,0,1,2.211,6.249,9.937,9.937,0,0,1-9.937,9.937,9.913,9.913,0,0,1-7.492-3.409,8.25,8.25,0,0,1-6.589,3.276,8.264,8.264,0,0,1-8.245-7.722,5.733,5.733,0,0,1-4.626.176m-23.012,2.678A4.184,4.184,0,0,1-220-131.5a4.19,4.19,0,0,1,4.189-4.184,6.275,6.275,0,0,1,6.271-6.5h18.828a6.279,6.279,0,0,1,6.073,4.686,8.225,8.225,0,0,1,4.707-1.472A8.23,8.23,0,0,1-174.579-137a9.934,9.934,0,0,1,8.728-5.183,9.894,9.894,0,0,1,6.249,2.211" transform="translate(219.999 142.188)" fill="none" stroke="#000" stroke-linecap="round" stroke-miterlimit="22.926" stroke-width="2"/>
        </g>
        <g id="g705" transform="translate(47.58 25.898)">
          <path id="path707" d="M-47.623,0A5.566,5.566,0,0,1-42.14,6.506a4.189,4.189,0,0,1,4.473,4.18,4.189,4.189,0,0,1-4.189,4.189A4.189,4.189,0,0,1-46.04,10.9a5.57,5.57,0,0,1-7.146-5.334A5.563,5.563,0,0,1-47.623,0Z" transform="translate(53.187)" fill="none" stroke="#000" stroke-linecap="round" stroke-miterlimit="22.926" stroke-width="2"/>
        </g>
        <g id="g709" transform="translate(7.74 28.521)">
          <path id="path711" d="M0-71.631H9.623m9.2,0h9.623m-9-8.368h8.368m-9.937,20.92H10.565M.628-80H9" transform="translate(0 79.998)" fill="none" stroke="#000" stroke-linecap="round" stroke-miterlimit="22.926" stroke-width="2"/>
        </g>
        <g id="g713" transform="translate(43.409 53.555)">
          <path id="path715" d="M-35.816,0V13.668M-25.6,0V13.668M-21.416,0V13.668M-40,0V13.668" transform="translate(40)" fill="none" stroke="#000" stroke-linecap="round" stroke-miterlimit="22.926" stroke-width="2"/>
        </g>
      </g>
    </g>
    <path id="Trazado_720998" data-name="Trazado 720998" d="M488.064,89.126A69.428,69.428,0,1,1,418.636,19.7a69.428,69.428,0,0,1,69.428,69.428" transform="translate(580.792 18588.303)" fill="#0e494d"/>
    <path id="Trazado_726313" data-name="Trazado 726313" d="M15,0H124a15,15,0,0,1,0,30H15A15,15,0,0,1,15,0Z" transform="translate(930.731 18755)" fill="#0e494d"/>
    <path id="Trazado_726314" data-name="Trazado 726314" d="M-20.633-2.984A1.2,1.2,0,0,0-21.1-4a6.148,6.148,0,0,0-1.687-.75,11.963,11.963,0,0,1-1.93-.777,3.153,3.153,0,0,1-1.937-2.82A2.747,2.747,0,0,1-26.137-10a3.389,3.389,0,0,1,1.492-1.129,5.616,5.616,0,0,1,2.184-.406,5.112,5.112,0,0,1,2.172.441,3.458,3.458,0,0,1,1.48,1.246,3.261,3.261,0,0,1,.527,1.828h-2.344a1.534,1.534,0,0,0-.492-1.215A2.023,2.023,0,0,0-22.5-9.664a2.162,2.162,0,0,0-1.336.363,1.146,1.146,0,0,0-.477.957,1.1,1.1,0,0,0,.559.93,6.311,6.311,0,0,0,1.645.7A7.106,7.106,0,0,1-19.2-5.219,2.972,2.972,0,0,1-18.281-3,2.737,2.737,0,0,1-19.4-.684a4.891,4.891,0,0,1-3.008.84A5.808,5.808,0,0,1-24.8-.324a3.783,3.783,0,0,1-1.645-1.316,3.371,3.371,0,0,1-.566-1.937h2.352q0,1.883,2.25,1.883a2.189,2.189,0,0,0,1.3-.34A1.106,1.106,0,0,0-20.633-2.984Zm10.359.641h-4.109L-15.164,0h-2.492l4.234-11.375h2.172L-6.992,0H-9.484Zm-3.477-1.9h2.844L-12.336-8.5ZM-3.586-1.883H1.391V0H-5.93V-11.375h2.344ZM5.227,0H2.883V-11.375H5.227ZM7.4,0V-11.375h3.5a5.315,5.315,0,0,1,2.684.676A4.712,4.712,0,0,1,15.43-8.777a5.928,5.928,0,0,1,.664,2.832v.523a5.945,5.945,0,0,1-.652,2.82A4.672,4.672,0,0,1,13.6-.687,5.355,5.355,0,0,1,10.922,0ZM9.742-9.477v7.594h1.133a2.545,2.545,0,0,0,2.1-.9,4.06,4.06,0,0,0,.742-2.57v-.6A4.124,4.124,0,0,0,13-8.582a2.537,2.537,0,0,0-2.1-.895ZM24.219-2.344H20.109L19.328,0H16.836L21.07-11.375h2.172L27.5,0H25.008Zm-3.477-1.9h2.844L22.156-8.5Z" transform="translate(999.731 18776)" fill="#fff"/>
    <path id="Trazado_725394" data-name="Trazado 725394" d="M110.125,71.127A51.429,51.429,0,1,1,58.7,19.7a51.429,51.429,0,0,1,51.429,51.429" transform="translate(940.732 18606.301)" fill="#fff" opacity="0.5"/>
    <g id="g2078" transform="translate(970 18648)">
      <g id="g2080" transform="translate(0 0)" clip-path="url(#clip-path-2)">
        <g id="g2086" transform="translate(1.144 35.693)">
          <path id="path2088" d="M-148.516-165.81a4.823,4.823,0,0,0,4.823-4.823,4.822,4.822,0,0,0-4.685-4.82,4.833,4.833,0,0,0,.127-1.1,4.823,4.823,0,0,0-4.823-4.823,4.823,4.823,0,0,0-4.823,4.823,4.826,4.826,0,0,0,.127,1.1,4.822,4.822,0,0,0-4.685,4.82,4.823,4.823,0,0,0,4.823,4.823Z" transform="translate(162.456 181.373)" fill="#d8ec84"/>
        </g>
        <g id="g2090" transform="translate(19.907 35.693)">
          <path id="path2092" d="M-148.516-165.81a4.823,4.823,0,0,0,4.823-4.823,4.822,4.822,0,0,0-4.685-4.82,4.833,4.833,0,0,0,.127-1.1,4.823,4.823,0,0,0-4.823-4.823,4.823,4.823,0,0,0-4.823,4.823,4.826,4.826,0,0,0,.127,1.1,4.822,4.822,0,0,0-4.685,4.82,4.823,4.823,0,0,0,4.823,4.823Z" transform="translate(162.456 181.373)" fill="#d8ec84"/>
        </g>
        <g id="g2094" transform="translate(38.671 35.693)">
          <path id="path2096" d="M-148.516-165.81a4.823,4.823,0,0,0,4.823-4.823,4.822,4.822,0,0,0-4.685-4.82,4.833,4.833,0,0,0,.127-1.1,4.823,4.823,0,0,0-4.823-4.823,4.823,4.823,0,0,0-4.823,4.823,4.826,4.826,0,0,0,.127,1.1,4.822,4.822,0,0,0-4.685,4.82,4.823,4.823,0,0,0,4.823,4.823Z" transform="translate(162.456 181.373)" fill="#d8ec84"/>
        </g>
        <g id="g2098" transform="translate(7.924 1.144)">
          <path id="path2100" d="M-73.717-253.535h-1.538a5.382,5.382,0,0,1-5.382-5.382,5.382,5.382,0,0,1,3.36-4.988,5.392,5.392,0,0,1-.132-1.183,5.382,5.382,0,0,1,5.382-5.382,5.36,5.36,0,0,1,2.337.533,11.534,11.534,0,0,1,10.766-7.4,11.534,11.534,0,0,1,11.276,9.115,7.507,7.507,0,0,1,2.232-.337,7.51,7.51,0,0,1,7.51,7.51,7.51,7.51,0,0,1-7.51,7.51h-28.3Z" transform="translate(80.636 277.333)" fill="#b0e7f8"/>
        </g>
        <g id="g2102" transform="translate(7.924 2.291)">
          <path id="path2104" d="M-284.809,0a11.551,11.551,0,0,1,6.256,7.967,7.51,7.51,0,0,1,2.232-.337,7.51,7.51,0,0,1,7.51,7.51,7.51,7.51,0,0,1-7.51,7.51H-306.16a5.382,5.382,0,0,1-5.382-5.382,5.382,5.382,0,0,1,3.36-4.988,5.4,5.4,0,0,1-.132-1.184,5.382,5.382,0,0,1,5.382-5.382,5.361,5.361,0,0,1,2.337.533A11.571,11.571,0,0,1-294.848,0" transform="translate(311.542 0.004)" fill="none" stroke="#000" stroke-linecap="round" stroke-linejoin="round" stroke-miterlimit="10" stroke-width="2"/>
        </g>
        <g id="g2106" transform="translate(19.357 12.014)">
          <path id="path2108" d="M-41.213-79.482h-1.924a1.944,1.944,0,0,1-1.944-1.944V-85a1.944,1.944,0,0,1,1.944-1.944h1.924" transform="translate(45.081 86.942)" fill="none" stroke="#000" stroke-linecap="round" stroke-linejoin="round" stroke-miterlimit="10" stroke-width="2"/>
        </g>
        <g id="g2110" transform="translate(26.429 12.014)">
          <path id="path2112" d="M-26.213-79.482h0a2.46,2.46,0,0,1-2.46-2.46v-2.54a2.46,2.46,0,0,1,2.46-2.46h0a2.46,2.46,0,0,1,2.46,2.46v2.54A2.46,2.46,0,0,1-26.213-79.482Z" transform="translate(28.673 86.942)" fill="none" stroke="#000" stroke-linecap="round" stroke-linejoin="round" stroke-miterlimit="10" stroke-width="2"/>
        </g>
        <g id="g2114" transform="translate(35.03 14.658)">
          <path id="path2116" d="M0-19.2A1.8,1.8,0,0,1,1.8-21h0a1.664,1.664,0,0,1,1.8,1.8c0,1.827-3.6,4.384-3.6,4.384H4.191" transform="translate(0 21.003)" fill="none" stroke="#000" stroke-linecap="round" stroke-linejoin="round" stroke-miterlimit="10" stroke-width="2"/>
        </g>
        <g id="g2118" transform="translate(1.144 35.693)">
          <path id="path2120" d="M-148.516-165.81a4.823,4.823,0,0,0,4.823-4.823,4.822,4.822,0,0,0-4.685-4.82,4.833,4.833,0,0,0,.127-1.1,4.823,4.823,0,0,0-4.823-4.823,4.823,4.823,0,0,0-4.823,4.823,4.826,4.826,0,0,0,.127,1.1,4.822,4.822,0,0,0-4.685,4.82,4.823,4.823,0,0,0,4.823,4.823Z" transform="translate(162.456 181.373)" fill="none" stroke="#000" stroke-linecap="round" stroke-linejoin="round" stroke-miterlimit="10" stroke-width="2"/>
        </g>
        <g id="g2122" transform="translate(19.907 35.693)">
          <path id="path2124" d="M-148.516-165.81a4.823,4.823,0,0,0,4.823-4.823,4.822,4.822,0,0,0-4.685-4.82,4.833,4.833,0,0,0,.127-1.1,4.823,4.823,0,0,0-4.823-4.823,4.823,4.823,0,0,0-4.823,4.823,4.826,4.826,0,0,0,.127,1.1,4.822,4.822,0,0,0-4.685,4.82,4.823,4.823,0,0,0,4.823,4.823Z" transform="translate(162.456 181.373)" fill="none" stroke="#000" stroke-linecap="round" stroke-linejoin="round" stroke-miterlimit="10" stroke-width="2"/>
        </g>
        <g id="g2126" transform="translate(38.671 35.693)">
          <path id="path2128" d="M-148.516-165.81a4.823,4.823,0,0,0,4.823-4.823,4.822,4.822,0,0,0-4.685-4.82,4.833,4.833,0,0,0,.127-1.1,4.823,4.823,0,0,0-4.823-4.823,4.823,4.823,0,0,0-4.823,4.823,4.826,4.826,0,0,0,.127,1.1,4.822,4.822,0,0,0-4.685,4.82,4.823,4.823,0,0,0,4.823,4.823Z" transform="translate(162.456 181.373)" fill="none" stroke="#000" stroke-linecap="round" stroke-linejoin="round" stroke-miterlimit="10" stroke-width="2"/>
        </g>
        <g id="g2130" transform="translate(10.526 46.851)">
          <path id="path2132" d="M0,0V10.583" fill="none" stroke="#000" stroke-linecap="round" stroke-linejoin="round" stroke-miterlimit="10" stroke-width="2"/>
        </g>
        <g id="g2134" transform="translate(29.289 46.851)">
          <path id="path2136" d="M0,0V10.583" fill="none" stroke="#000" stroke-linecap="round" stroke-linejoin="round" stroke-miterlimit="10" stroke-width="2"/>
        </g>
        <g id="g2138" transform="translate(48.052 46.851)">
          <path id="path2140" d="M0,0V10.583" fill="none" stroke="#000" stroke-linecap="round" stroke-linejoin="round" stroke-miterlimit="10" stroke-width="2"/>
        </g>
        <g id="g2142" transform="translate(38.671 29.304)">
          <path id="path2144" d="M0-64.514v-6.055" transform="translate(0 70.569)" fill="none" stroke="#000" stroke-linecap="round" stroke-linejoin="round" stroke-miterlimit="10" stroke-width="2"/>
        </g>
        <g id="g2146" transform="translate(36.843 34.076)">
          <path id="path2148" d="M0,0,1.828,1.828,3.656,0" fill="none" stroke="#000" stroke-linecap="round" stroke-linejoin="round" stroke-miterlimit="10" stroke-width="2"/>
        </g>
        <g id="g2150" transform="translate(19.907 29.304)">
          <path id="path2152" d="M0-64.514v-6.055" transform="translate(0 70.569)" fill="none" stroke="#000" stroke-linecap="round" stroke-linejoin="round" stroke-miterlimit="10" stroke-width="2"/>
        </g>
        <g id="g2154" transform="translate(18.08 34.076)">
          <path id="path2156" d="M0,0,1.828,1.828,3.656,0" fill="none" stroke="#000" stroke-linecap="round" stroke-linejoin="round" stroke-miterlimit="10" stroke-width="2"/>
        </g>
        <g id="g2158" transform="translate(29.636 1.144)">
          <path id="path2160" d="M0,0H0" fill="none" stroke="#000" stroke-linecap="round" stroke-linejoin="round" stroke-miterlimit="10" stroke-width="2"/>
        </g>
      </g>
    </g>
    <path id="Icon_awesome-long-arrow-alt-right" data-name="Icon awesome-long-arrow-alt-right" d="M22.074,15.188H.844A.844.844,0,0,0,0,16.031v3.938a.844.844,0,0,0,.844.844h21.23v3.239a1.688,1.688,0,0,0,2.881,1.193l6.051-6.051a1.687,1.687,0,0,0,0-2.386l-6.051-6.051a1.688,1.688,0,0,0-2.881,1.193Z" transform="translate(685 18661.742)" fill="#0e494d"/>
    <path id="Icon_awesome-long-arrow-alt-right-2" data-name="Icon awesome-long-arrow-alt-right" d="M22.074,15.188H.844A.844.844,0,0,0,0,16.031v3.938a.844.844,0,0,0,.844.844h21.23v3.239a1.688,1.688,0,0,0,2.881,1.193l6.051-6.051a1.687,1.687,0,0,0,0-2.386l-6.051-6.051a1.688,1.688,0,0,0-2.881,1.193Z" transform="translate(883.5 18661.742)" fill="#0e494d"/>
  </g>
</svg>
