<svg xmlns="http://www.w3.org/2000/svg" width="1121.453" height="292" viewBox="0 0 1121.453 292">
  <g id="Grupo_957984" data-name="Grupo 957984" transform="translate(-244 -13312.617)">
    <g id="Trazado_725454" data-name="Trazado 725454" transform="translate(244 13312.617)" fill="#fff">
      <path d="M 819.5 291.5 L 0.5 291.5 L 0.5 0.5 L 819.5 0.5 L 819.5 291.5 Z" stroke="none"/>
      <path d="M 1 1 L 1 291 L 819 291 L 819 1 L 1 1 M 0 0 L 820 0 L 820 292 L 0 292 L 0 0 Z" stroke="none" fill="#707070"/>
    </g>
    <g id="Trazado_725455" data-name="Trazado 725455" transform="translate(253 13320.617)" fill="#fff">
      <path d="M 802.5 276.5 L 0.5 276.5 L 0.5 0.5 L 802.5 0.5 L 802.5 276.5 Z" stroke="none"/>
      <path d="M 1 1 L 1 276 L 802 276 L 802 1 L 1 1 M 0 0 L 803 0 L 803 277 L 0 277 L 0 0 Z" stroke="none" fill="#707070"/>
    </g>
    <g id="Trazado_725456" data-name="Trazado 725456" transform="translate(483 13348.617)" fill="#fff">
      <path d="M 266 208.5 L 20 208.5 C 17.36728477478027 208.5 14.81360721588135 207.9844970703125 12.40989303588867 206.9677886962891 C 10.08789253234863 205.9856719970703 8.002429008483887 204.5796051025391 6.211428642272949 202.78857421875 C 4.42042875289917 200.9975738525391 3.014321327209473 198.912109375 2.032214403152466 196.5901489257812 C 1.015499949455261 194.1863861083984 0.5 191.6327209472656 0.5 189 L 0.5 20 C 0.5 17.36728477478027 1.015499949455261 14.81360721588135 2.032214403152466 12.40989303588867 C 3.014321327209473 10.08789253234863 4.42042875289917 8.002429008483887 6.211428642272949 6.211428642272949 C 8.002429008483887 4.42042875289917 10.08789253234863 3.014321327209473 12.40989303588867 2.032214403152466 C 14.81360721588135 1.015499949455261 17.36728477478027 0.5 20 0.5 L 266 0.5 C 268.6327209472656 0.5 271.1864013671875 1.015499949455261 273.5901184082031 2.032214403152466 C 275.912109375 3.014321327209473 277.99755859375 4.42042875289917 279.78857421875 6.211428642272949 C 281.5795593261719 8.002429008483887 282.9856872558594 10.08789253234863 283.9677734375 12.40989303588867 C 284.9844970703125 14.81360721588135 285.5 17.36728477478027 285.5 20 L 285.5 189 C 285.5 191.6327209472656 284.9844970703125 194.1863861083984 283.9677734375 196.5901489257812 C 282.9856872558594 198.912109375 281.5795593261719 200.9975738525391 279.78857421875 202.78857421875 C 277.99755859375 204.5796051025391 275.912109375 205.9856719970703 273.5901184082031 206.9677886962891 C 271.1864013671875 207.9844970703125 268.6327209472656 208.5 266 208.5 Z" stroke="none"/>
      <path d="M 20 1 C 17.4345703125 1 14.94644165039062 1.502212524414062 12.60464477539062 2.492721557617188 C 10.34228515625 3.449600219726562 8.310211181640625 4.819717407226562 6.564971923828125 6.564956665039062 C 4.8197021484375 8.310211181640625 3.449615478515625 10.34225463867188 2.492706298828125 12.60464477539062 C 1.502227783203125 14.94642639160156 1 17.4345703125 1 20 L 1 189 C 1 191.5654296875 1.502227783203125 194.0535736083984 2.492706298828125 196.3953552246094 C 3.449615478515625 198.65771484375 4.8197021484375 200.6897888183594 6.564971923828125 202.4350280761719 C 8.310211181640625 204.1802825927734 10.34228515625 205.5503997802734 12.60464477539062 206.5072784423828 C 14.94644165039062 207.4977874755859 17.4345703125 208 20 208 L 266 208 C 268.5654296875 208 271.0535583496094 207.4977874755859 273.3953552246094 206.5072784423828 C 275.65771484375 205.5503997802734 277.6897888183594 204.1802825927734 279.4350280761719 202.4350280761719 C 281.1802978515625 200.6897888183594 282.5503845214844 198.65771484375 283.5072937011719 196.3953552246094 C 284.4977722167969 194.0535736083984 285 191.5654296875 285 189 L 285 20 C 285 17.4345703125 284.4977722167969 14.94642639160156 283.5072937011719 12.60464477539062 C 282.5503845214844 10.34225463867188 281.1802978515625 8.310211181640625 279.4350280761719 6.564956665039062 C 277.6897888183594 4.819717407226562 275.65771484375 3.449600219726562 273.3953552246094 2.492721557617188 C 271.0535583496094 1.502212524414062 268.5654296875 1 266 1 L 20 1 M 20 0 L 266 0 C 277.0456848144531 0 286 8.95428466796875 286 20 L 286 189 C 286 200.0456848144531 277.0456848144531 209 266 209 L 20 209 C 8.954315185546875 209 0 200.0456848144531 0 189 L 0 20 C 0 8.95428466796875 8.954315185546875 0 20 0 Z" stroke="none" fill="#707070"/>
    </g>
    <g id="Trazado_725457" data-name="Trazado 725457" transform="translate(495 13357.617)" fill="#fff">
      <path d="M 242 191.5 L 20 191.5 C 17.36730003356934 191.5 14.81359958648682 190.9844970703125 12.40986633300781 189.9678039550781 C 10.08790016174316 188.9856719970703 8.002433776855469 187.5796051025391 6.211400032043457 185.7886047363281 C 4.420400142669678 183.9975738525391 3.014333248138428 181.9120941162109 2.03220009803772 179.5901336669922 C 1.015499949455261 177.1864013671875 0.5 174.6327056884766 0.5 172 L 0.5 20 C 0.5 17.36730003356934 1.015499949455261 14.81359958648682 2.03220009803772 12.40986633300781 C 3.014333248138428 10.08790016174316 4.420400142669678 8.002433776855469 6.211400032043457 6.211400032043457 C 8.002433776855469 4.420400142669678 10.08790016174316 3.014333248138428 12.40986633300781 2.03220009803772 C 14.81359958648682 1.015499949455261 17.36730003356934 0.5 20 0.5 L 242 0.5 C 244.6327056884766 0.5 247.1864013671875 1.015499949455261 249.5901336669922 2.03220009803772 C 251.9120941162109 3.014333248138428 253.9975738525391 4.420400142669678 255.7886047363281 6.211400032043457 C 257.57958984375 8.002433776855469 258.9856567382812 10.08790016174316 259.9678039550781 12.40986633300781 C 260.9844970703125 14.81359958648682 261.5 17.36730003356934 261.5 20 L 261.5 172 C 261.5 174.6327056884766 260.9844970703125 177.1864013671875 259.9678039550781 179.5901336669922 C 258.9856567382812 181.9120941162109 257.57958984375 183.9975738525391 255.7886047363281 185.7886047363281 C 253.9975738525391 187.5796051025391 251.9120941162109 188.9856719970703 249.5901336669922 189.9678039550781 C 247.1864013671875 190.9844970703125 244.6327056884766 191.5 242 191.5 Z" stroke="none"/>
      <path d="M 20 1 C 17.4345703125 1 14.94642639160156 1.502227783203125 12.60462951660156 2.492706298828125 C 10.34226989746094 3.449600219726562 8.310226440429688 4.819732666015625 6.564971923828125 6.564971923828125 C 4.819732666015625 8.310226440429688 3.4495849609375 10.34226989746094 2.492706298828125 12.60462951660156 C 1.502227783203125 14.94642639160156 1 17.4345703125 1 20 L 1 172 C 1 174.5654296875 1.502227783203125 177.0535736083984 2.492706298828125 179.3953704833984 C 3.4495849609375 181.6577301025391 4.819732666015625 183.6897735595703 6.564971923828125 185.4350280761719 C 8.310226440429688 187.1802673339844 10.34226989746094 188.5503997802734 12.60462951660156 189.5072937011719 C 14.94642639160156 190.4977722167969 17.4345703125 191 20 191 L 242 191 C 244.5654296875 191 247.0535736083984 190.4977722167969 249.3953704833984 189.5072937011719 C 251.6577301025391 188.5503997802734 253.6897735595703 187.1802673339844 255.4350280761719 185.4350280761719 C 257.1802673339844 183.6897735595703 258.5504150390625 181.6577301025391 259.5072937011719 179.3953704833984 C 260.4977722167969 177.0535736083984 261 174.5654296875 261 172 L 261 20 C 261 17.4345703125 260.4977722167969 14.94642639160156 259.5072937011719 12.60462951660156 C 258.5504150390625 10.34226989746094 257.1802673339844 8.310226440429688 255.4350280761719 6.564971923828125 C 253.6897735595703 4.819732666015625 251.6577301025391 3.449600219726562 249.3953704833984 2.492706298828125 C 247.0535736083984 1.502227783203125 244.5654296875 1 242 1 L 20 1 M 20 0 L 242 0 C 253.0457000732422 0 262 8.954299926757812 262 20 L 262 172 C 262 183.0457000732422 253.0457000732422 192 242 192 L 20 192 C 8.954299926757812 192 0 183.0457000732422 0 172 L 0 20 C 0 8.954299926757812 8.954299926757812 0 20 0 Z" stroke="none" fill="#707070"/>
    </g>
    <path id="Trazado_725458" data-name="Trazado 725458" d="M19.516,11.68a7.037,7.037,0,0,1-.562,2.918,4.261,4.261,0,0,1-1.594,1.9,4.385,4.385,0,0,1-2.406.656,4.244,4.244,0,0,1-4-2.543,6.752,6.752,0,0,1-.59-2.832v-.82a6.953,6.953,0,0,1,.57-2.9,4.218,4.218,0,0,1,4-2.594,4.41,4.41,0,0,1,2.41.66,4.253,4.253,0,0,1,1.605,1.914,7.071,7.071,0,0,1,.563,2.918Zm-1.492-.734a5.1,5.1,0,0,0-.812-3.105,2.68,2.68,0,0,0-2.273-1.082A2.651,2.651,0,0,0,12.7,7.84a5,5,0,0,0-.84,3v.836a5.107,5.107,0,0,0,.824,3.082,2.662,2.662,0,0,0,2.27,1.121,2.652,2.652,0,0,0,2.25-1.059,5.079,5.079,0,0,0,.82-3.035Zm5.242,1.6V17h-1.5V5.625h4.2a4.215,4.215,0,0,1,2.926.953A3.231,3.231,0,0,1,29.945,9.1a3.189,3.189,0,0,1-1.035,2.551,4.4,4.4,0,0,1-2.965.895Zm0-1.227h2.7a2.7,2.7,0,0,0,1.844-.567,2.075,2.075,0,0,0,.641-1.64A2.143,2.143,0,0,0,27.8,7.485a2.525,2.525,0,0,0-1.758-.634H23.266Zm15.023.422h-4.93v4.031h5.727V17H31.859V5.625h7.148V6.852H33.359v3.664h4.93Zm6.836.656H42.453V17H40.945V5.625h3.766a4.457,4.457,0,0,1,2.957.875A3.148,3.148,0,0,1,48.7,9.047a3.062,3.062,0,0,1-.574,1.852,3.428,3.428,0,0,1-1.6,1.18L49.2,16.906V17H47.594Zm-2.672-1.227h2.3a2.6,2.6,0,0,0,1.777-.579,1.959,1.959,0,0,0,.66-1.55,2.062,2.062,0,0,0-.629-1.62,2.663,2.663,0,0,0-1.816-.571h-2.3Zm14.633,2.852H52.32L51.25,17H49.7L54.047,5.625h1.313L59.711,17H58.172ZM52.773,12.8h3.867L54.7,7.477Zm16.836.594a4.185,4.185,0,0,1-1.332,2.785,4.365,4.365,0,0,1-2.98.98,4.008,4.008,0,0,1-3.23-1.445,5.815,5.815,0,0,1-1.215-3.867V10.75a6.481,6.481,0,0,1,.566-2.789,4.231,4.231,0,0,1,1.605-1.848,4.47,4.47,0,0,1,2.406-.645A4.11,4.11,0,0,1,68.336,6.48a4.235,4.235,0,0,1,1.273,2.8H68.1a3.268,3.268,0,0,0-.848-1.975A2.565,2.565,0,0,0,65.43,6.7a2.684,2.684,0,0,0-2.254,1.063,4.882,4.882,0,0,0-.816,3.026v1.1a5.018,5.018,0,0,0,.773,2.948A2.5,2.5,0,0,0,65.3,15.93a2.886,2.886,0,0,0,1.918-.566,3.143,3.143,0,0,0,.887-1.973ZM73.266,17h-1.5V5.625h1.5Zm11.492-5.32A7.037,7.037,0,0,1,84.2,14.6,4.261,4.261,0,0,1,82.6,16.5a4.4,4.4,0,0,1-6.4-1.887,6.752,6.752,0,0,1-.59-2.832v-.82a6.953,6.953,0,0,1,.57-2.9,4.218,4.218,0,0,1,4-2.594,4.41,4.41,0,0,1,2.41.66A4.253,4.253,0,0,1,84.2,8.043a7.071,7.071,0,0,1,.563,2.918Zm-1.492-.734a5.1,5.1,0,0,0-.812-3.105A2.68,2.68,0,0,0,80.18,6.758,2.651,2.651,0,0,0,77.941,7.84a5,5,0,0,0-.84,3v.836a5.107,5.107,0,0,0,.824,3.082,2.888,2.888,0,0,0,4.52.063,5.079,5.079,0,0,0,.82-3.035ZM80.914,2.563h1.75l-2.094,2.3-1.164,0ZM95.75,17H94.242L88.516,8.234V17H87.008V5.625h1.508l5.742,8.8v-8.8H95.75Zm6.688.977H101.2l4.75-12.352h1.234Zm11.992-5.43V17h-1.5V5.625h4.2a4.215,4.215,0,0,1,2.926.953A3.231,3.231,0,0,1,121.109,9.1a3.189,3.189,0,0,1-1.035,2.551,4.4,4.4,0,0,1-2.965.895Zm0-1.227h2.7a2.7,2.7,0,0,0,1.844-.567,2.075,2.075,0,0,0,.641-1.64,2.143,2.143,0,0,0-.641-1.628,2.525,2.525,0,0,0-1.758-.634H114.43ZM127.2,12.4h-2.672V17h-1.508V5.625h3.766a4.457,4.457,0,0,1,2.957.875,3.148,3.148,0,0,1,1.035,2.547A3.062,3.062,0,0,1,130.2,10.9a3.428,3.428,0,0,1-1.6,1.18l2.672,4.828V17h-1.609Zm-2.672-1.227h2.3a2.6,2.6,0,0,0,1.777-.579,1.959,1.959,0,0,0,.66-1.55,2.062,2.062,0,0,0-.629-1.62,2.663,2.663,0,0,0-1.816-.571h-2.3Zm17.1.508a7.037,7.037,0,0,1-.562,2.918,4.261,4.261,0,0,1-1.594,1.9,4.4,4.4,0,0,1-6.4-1.887,6.752,6.752,0,0,1-.59-2.832v-.82a6.953,6.953,0,0,1,.57-2.9,4.218,4.218,0,0,1,4-2.594,4.41,4.41,0,0,1,2.41.66,4.253,4.253,0,0,1,1.605,1.914,7.071,7.071,0,0,1,.563,2.918Zm-1.492-.734a5.1,5.1,0,0,0-.812-3.105,2.68,2.68,0,0,0-2.273-1.082,2.651,2.651,0,0,0-2.238,1.082,5,5,0,0,0-.84,3v.836a5.107,5.107,0,0,0,.824,3.082,2.888,2.888,0,0,0,4.52.063,5.079,5.079,0,0,0,.82-3.035Zm12.109,2.445a4.185,4.185,0,0,1-1.332,2.785,4.365,4.365,0,0,1-2.98.98,4.008,4.008,0,0,1-3.23-1.445,5.815,5.815,0,0,1-1.215-3.867V10.75a6.481,6.481,0,0,1,.566-2.789,4.231,4.231,0,0,1,1.605-1.848,4.47,4.47,0,0,1,2.406-.645,4.11,4.11,0,0,1,2.906,1.012,4.235,4.235,0,0,1,1.273,2.8h-1.508a3.268,3.268,0,0,0-.848-1.975,2.565,2.565,0,0,0-1.824-.611,2.684,2.684,0,0,0-2.254,1.063,4.882,4.882,0,0,0-.816,3.026v1.1a5.018,5.018,0,0,0,.773,2.948,2.5,2.5,0,0,0,2.164,1.095,2.887,2.887,0,0,0,1.918-.566,3.143,3.143,0,0,0,.887-1.973Zm8.477-1.648h-4.93v4.031h5.727V17h-7.227V5.625h7.148V6.852h-5.648v3.664h4.93Zm6.016.188a7.053,7.053,0,0,1-2.809-1.363,2.6,2.6,0,0,1-.879-2,2.752,2.752,0,0,1,1.074-2.223,4.269,4.269,0,0,1,2.793-.879,4.66,4.66,0,0,1,2.09.453,3.436,3.436,0,0,1,1.422,1.25,3.2,3.2,0,0,1,.5,1.742h-1.508a2.08,2.08,0,0,0-.656-1.627,2.669,2.669,0,0,0-1.852-.592,2.732,2.732,0,0,0-1.73.489,1.632,1.632,0,0,0-.621,1.358,1.468,1.468,0,0,0,.59,1.178,5.786,5.786,0,0,0,2.008.88,9.316,9.316,0,0,1,2.219.88,3.367,3.367,0,0,1,1.188,1.121,2.861,2.861,0,0,1,.387,1.508,2.658,2.658,0,0,1-1.078,2.215,4.6,4.6,0,0,1-2.883.832,5.347,5.347,0,0,1-2.187-.449,3.681,3.681,0,0,1-1.566-1.23,3,3,0,0,1-.551-1.773H164.2a1.959,1.959,0,0,0,.762,1.629,3.207,3.207,0,0,0,2.035.6,2.948,2.948,0,0,0,1.82-.484,1.573,1.573,0,0,0,.633-1.32,1.545,1.545,0,0,0-.586-1.293A6.755,6.755,0,0,0,166.734,11.93Zm14.891-.25a7.037,7.037,0,0,1-.562,2.918,4.261,4.261,0,0,1-1.594,1.9,4.4,4.4,0,0,1-6.4-1.887,6.752,6.752,0,0,1-.59-2.832v-.82a6.953,6.953,0,0,1,.57-2.9,4.218,4.218,0,0,1,4-2.594,4.41,4.41,0,0,1,2.41.66,4.253,4.253,0,0,1,1.605,1.914,7.071,7.071,0,0,1,.563,2.918Zm-1.492-.734a5.1,5.1,0,0,0-.812-3.105,2.68,2.68,0,0,0-2.273-1.082,2.651,2.651,0,0,0-2.238,1.082,5,5,0,0,0-.84,3v.836a5.107,5.107,0,0,0,.824,3.082,2.888,2.888,0,0,0,4.52.063,5.079,5.079,0,0,0,.82-3.035Z" transform="translate(530 13443.617)" fill="#12263f"/>
    <path id="Trazado_725459" data-name="Trazado 725459" d="M3.258,5.625l3.719,9.281L10.7,5.625h1.945V17h-1.5V12.57l.141-4.781L7.547,17H6.4L2.672,7.813,2.82,12.57V17H1.32V5.625ZM18.338,17h-1.5V5.625h1.5Zm13.5-6.1h3.172v1.367H31.836v3.594H30.383V12.266H27.211V10.9h3.172V7.578h1.453ZM45.77,5.625l3.719,9.281,3.719-9.281h1.945V17h-1.5V12.57l.141-4.781L50.059,17H48.911L45.184,7.813l.148,4.758V17h-1.5V5.625ZM60.851,17h-1.5V5.625h1.5Zm13.5-6.1H77.52v1.367H74.348v3.594H72.895V12.266H69.723V10.9h3.172V7.578h1.453ZM88.283,5.625,92,14.906,95.72,5.625h1.945V17h-1.5V12.57l.141-4.781L92.572,17H91.423L87.7,7.813l.148,4.758V17h-1.5V5.625ZM103.363,17h-1.5V5.625h1.5Zm13.5-6.1h3.172v1.367h-3.172v3.594h-1.453V12.266h-3.172V10.9h3.172V7.578h1.453ZM130.8,5.625l3.719,9.281,3.719-9.281h1.945V17h-1.5V12.57l.141-4.781L135.084,17h-1.148l-3.727-9.187.148,4.758V17h-1.5V5.625ZM145.876,17h-1.5V5.625h1.5Z" transform="translate(275 13484.617)" fill="#12263f"/>
    <path id="Trazado_725460" data-name="Trazado 725460" d="M4.129,15H2.885L4.348,6.605,1.7,7.535l.212-1.2L5.605,5h.219Zm46.336,0H44.128l.15-.964,3.671-3.568.67-.663A3.923,3.923,0,0,0,49.9,7.672,1.581,1.581,0,0,0,49.6,6.445a1.383,1.383,0,0,0-1.08-.5,2.037,2.037,0,0,0-1.5.523,2.4,2.4,0,0,0-.731,1.507l-1.224.007a3.462,3.462,0,0,1,.564-1.624,3.142,3.142,0,0,1,1.251-1.087,3.6,3.6,0,0,1,1.685-.359,2.762,2.762,0,0,1,1.965.749,2.218,2.218,0,0,1,.625,1.87,4.764,4.764,0,0,1-1.511,2.762l-.629.636-3.2,3.042h4.806Zm40.32-5.592.82.007a2.423,2.423,0,0,0,1.521-.475,1.8,1.8,0,0,0,.708-1.289A1.587,1.587,0,0,0,93.539,6.4a1.412,1.412,0,0,0-1.114-.468A1.9,1.9,0,0,0,91.1,6.39a2.008,2.008,0,0,0-.667,1.261l-1.224.007a2.836,2.836,0,0,1,1.049-2A3.329,3.329,0,0,1,92.487,4.9a2.66,2.66,0,0,1,1.965.783,2.484,2.484,0,0,1,.619,1.993,2.3,2.3,0,0,1-.54,1.285,3.6,3.6,0,0,1-1.326.964,1.967,1.967,0,0,1,1.012.865,2.413,2.413,0,0,1,.28,1.384,3.055,3.055,0,0,1-1.07,2.167,3.364,3.364,0,0,1-2.334.793,2.83,2.83,0,0,1-2.037-.793,2.514,2.514,0,0,1-.7-1.976l1.237.007a1.662,1.662,0,0,0,.369,1.234,1.575,1.575,0,0,0,1.189.5,1.989,1.989,0,0,0,1.456-.5,2.082,2.082,0,0,0,.663-1.408,1.523,1.523,0,0,0-.369-1.268,1.861,1.861,0,0,0-1.326-.482l-.95-.007ZM134.577,7.6l-.178.937a2.916,2.916,0,0,1,2.27-1.066,1.835,1.835,0,0,1,1.545.725,2.815,2.815,0,0,1,.369,1.962L137.776,15h-1.237l.813-4.862a2.592,2.592,0,0,0,.007-.621,1.022,1.022,0,0,0-1.128-.976,2.329,2.329,0,0,0-1.955,1.188L133.36,15h-1.237l1.285-7.4Z" transform="translate(293 13493.617)" fill="#12263f"/>
    <path id="Trazado_725461" data-name="Trazado 725461" d="M7.859,12.07h-4.5v3.047H8.641V17H1.016V5.625H8.625v1.9H3.359v2.711h4.5Z" transform="translate(474 13562.617)" fill="#12263f"/>
    <path id="Trazado_725462" data-name="Trazado 725462" d="M6.914,14.016A1.2,1.2,0,0,0,6.445,13a6.148,6.148,0,0,0-1.687-.75,11.963,11.963,0,0,1-1.93-.777A3.153,3.153,0,0,1,.891,8.648,2.747,2.747,0,0,1,1.41,7,3.389,3.389,0,0,1,2.9,5.875a5.616,5.616,0,0,1,2.184-.406,5.112,5.112,0,0,1,2.172.441,3.458,3.458,0,0,1,1.48,1.246,3.261,3.261,0,0,1,.527,1.828H6.922A1.534,1.534,0,0,0,6.43,7.77a2.023,2.023,0,0,0-1.383-.434A2.162,2.162,0,0,0,3.711,7.7a1.146,1.146,0,0,0-.477.957,1.1,1.1,0,0,0,.559.93,6.311,6.311,0,0,0,1.645.7,7.106,7.106,0,0,1,2.914,1.492A2.972,2.972,0,0,1,9.266,14a2.737,2.737,0,0,1-1.117,2.316,4.891,4.891,0,0,1-3.008.84,5.808,5.808,0,0,1-2.391-.48,3.783,3.783,0,0,1-1.645-1.316,3.371,3.371,0,0,1-.566-1.937H2.891q0,1.883,2.25,1.883a2.189,2.189,0,0,0,1.3-.34A1.106,1.106,0,0,0,6.914,14.016Z" transform="translate(769 13562.617)" fill="#12263f"/>
    <path id="Trazado_725463" data-name="Trazado 725463" d="M3.258,5.625l3.719,9.281L10.7,5.625h1.945V17h-1.5V12.57l.141-4.781L7.547,17H6.4L2.672,7.813,2.82,12.57V17H1.32V5.625Zm18.313,8.4H16.8L15.734,17H14.188L18.531,5.625h1.313L24.2,17H22.656ZM17.258,12.8h3.867l-1.937-5.32Zm11.82-.867a7.053,7.053,0,0,1-2.809-1.363,2.6,2.6,0,0,1-.879-2,2.751,2.751,0,0,1,1.074-2.223,4.269,4.269,0,0,1,2.793-.879,4.66,4.66,0,0,1,2.09.453,3.436,3.436,0,0,1,1.422,1.25,3.2,3.2,0,0,1,.5,1.742H31.766a2.08,2.08,0,0,0-.656-1.627A2.669,2.669,0,0,0,29.258,6.7a2.732,2.732,0,0,0-1.73.489,1.632,1.632,0,0,0-.621,1.358A1.468,1.468,0,0,0,27.5,9.72a5.785,5.785,0,0,0,2.008.88,9.316,9.316,0,0,1,2.219.88A3.367,3.367,0,0,1,32.91,12.6a2.861,2.861,0,0,1,.387,1.508,2.658,2.658,0,0,1-1.078,2.215,4.6,4.6,0,0,1-2.883.832,5.347,5.347,0,0,1-2.187-.449,3.681,3.681,0,0,1-1.566-1.23,3,3,0,0,1-.551-1.773h1.508a1.959,1.959,0,0,0,.762,1.629,3.207,3.207,0,0,0,2.035.6,2.948,2.948,0,0,0,1.82-.484,1.573,1.573,0,0,0,.633-1.32,1.545,1.545,0,0,0-.586-1.293A6.755,6.755,0,0,0,29.078,11.93ZM41.5,14.023H36.734L35.664,17H34.117L38.461,5.625h1.313L44.125,17H42.586ZM37.188,12.8h3.867l-1.937-5.32ZM49.617,17V5.625h3.211a5.169,5.169,0,0,1,2.625.656,4.438,4.438,0,0,1,1.762,1.867,6.078,6.078,0,0,1,.629,2.781v.727a6.1,6.1,0,0,1-.621,2.82,4.369,4.369,0,0,1-1.773,1.859A5.5,5.5,0,0,1,52.766,17Zm1.5-10.148v8.922H52.7a3.434,3.434,0,0,0,2.7-1.079,4.458,4.458,0,0,0,.965-3.073v-.665a4.529,4.529,0,0,0-.91-3.014,3.239,3.239,0,0,0-2.582-1.091Zm15.422,4.891h-4.93v4.031h5.727V17H60.109V5.625h7.148V6.852H61.609v3.664h4.93Zm8.125.8V17h-1.5V5.625h4.2a4.215,4.215,0,0,1,2.926.953A3.231,3.231,0,0,1,81.344,9.1a3.189,3.189,0,0,1-1.035,2.551,4.4,4.4,0,0,1-2.965.895Zm0-1.227h2.7a2.7,2.7,0,0,0,1.844-.567,2.075,2.075,0,0,0,.641-1.64A2.143,2.143,0,0,0,79.2,7.485a2.525,2.525,0,0,0-1.758-.634H74.664ZM87.43,12.4H84.758V17H83.25V5.625h3.766a4.457,4.457,0,0,1,2.957.875,3.148,3.148,0,0,1,1.035,2.547,3.062,3.062,0,0,1-.574,1.852,3.428,3.428,0,0,1-1.6,1.18l2.672,4.828V17H89.9Zm-2.672-1.227h2.3a2.6,2.6,0,0,0,1.777-.579,1.959,1.959,0,0,0,.66-1.55,2.062,2.062,0,0,0-.629-1.62,2.663,2.663,0,0,0-1.816-.571h-2.3Zm17.1.508A7.037,7.037,0,0,1,101.3,14.6,4.261,4.261,0,0,1,99.7,16.5a4.4,4.4,0,0,1-6.4-1.887,6.752,6.752,0,0,1-.59-2.832v-.82a6.953,6.953,0,0,1,.57-2.9,4.218,4.218,0,0,1,4-2.594,4.41,4.41,0,0,1,2.41.66A4.253,4.253,0,0,1,101.3,8.043a7.071,7.071,0,0,1,.563,2.918Zm-1.492-.734a5.1,5.1,0,0,0-.812-3.105,2.68,2.68,0,0,0-2.273-1.082A2.651,2.651,0,0,0,95.043,7.84a5,5,0,0,0-.84,3v.836a5.107,5.107,0,0,0,.824,3.082,2.888,2.888,0,0,0,4.52.063,5.079,5.079,0,0,0,.82-3.035ZM104.109,17V5.625h3.211a5.169,5.169,0,0,1,2.625.656,4.438,4.438,0,0,1,1.762,1.867,6.078,6.078,0,0,1,.629,2.781v.727a6.1,6.1,0,0,1-.621,2.82,4.369,4.369,0,0,1-1.773,1.859,5.5,5.5,0,0,1-2.684.664Zm1.5-10.148v8.922h1.578a3.434,3.434,0,0,0,2.7-1.079,4.458,4.458,0,0,0,.965-3.073v-.665a4.529,4.529,0,0,0-.91-3.014,3.239,3.239,0,0,0-2.582-1.091Zm17-1.227v7.734a3.628,3.628,0,0,1-1.012,2.633,4.077,4.077,0,0,1-2.723,1.148l-.4.016a4.258,4.258,0,0,1-2.977-1.008,3.6,3.6,0,0,1-1.125-2.773V5.625h1.484v7.7a2.6,2.6,0,0,0,.68,1.918,3.111,3.111,0,0,0,3.887,0,2.6,2.6,0,0,0,.676-1.914V5.625Zm10.734,7.766a4.185,4.185,0,0,1-1.332,2.785,4.365,4.365,0,0,1-2.98.98,4.008,4.008,0,0,1-3.23-1.445,5.815,5.815,0,0,1-1.215-3.867V10.75a6.481,6.481,0,0,1,.566-2.789,4.231,4.231,0,0,1,1.605-1.848,4.47,4.47,0,0,1,2.406-.645A4.11,4.11,0,0,1,132.07,6.48a4.235,4.235,0,0,1,1.273,2.8h-1.508a3.268,3.268,0,0,0-.848-1.975,2.565,2.565,0,0,0-1.824-.611,2.684,2.684,0,0,0-2.254,1.063,4.882,4.882,0,0,0-.816,3.026v1.1a5.018,5.018,0,0,0,.773,2.948,2.5,2.5,0,0,0,2.164,1.095,2.887,2.887,0,0,0,1.918-.566,3.143,3.143,0,0,0,.887-1.973Zm9.68-6.539h-3.656V17h-1.492V6.852h-3.648V5.625h8.8Zm10.219,4.828a7.037,7.037,0,0,1-.562,2.918,4.261,4.261,0,0,1-1.594,1.9,4.4,4.4,0,0,1-6.4-1.887,6.752,6.752,0,0,1-.59-2.832v-.82a6.953,6.953,0,0,1,.57-2.9,4.218,4.218,0,0,1,4-2.594,4.41,4.41,0,0,1,2.41.66,4.253,4.253,0,0,1,1.605,1.914,7.071,7.071,0,0,1,.563,2.918Zm-1.492-.734a5.1,5.1,0,0,0-.812-3.105,2.68,2.68,0,0,0-2.273-1.082,2.651,2.651,0,0,0-2.238,1.082,5,5,0,0,0-.84,3v.836a5.107,5.107,0,0,0,.824,3.082,2.888,2.888,0,0,0,4.52.063,5.079,5.079,0,0,0,.82-3.035Zm13.6-5.32,3.719,9.281,3.719-9.281h1.945V17h-1.5V12.57l.141-4.781L169.641,17h-1.148l-3.727-9.187.148,4.758V17h-1.5V5.625Z" transform="translate(780 13391.617)" fill="#12263f"/>
    <path id="Trazado_725464" data-name="Trazado 725464" d="M2.365,11.1,1.688,15H.4L2.133,5.047l3.322.007a3.249,3.249,0,0,1,2.372.817,2.57,2.57,0,0,1,.718,2.17A3.1,3.1,0,0,1,7.407,10.29a4.128,4.128,0,0,1-2.676.82ZM2.55,10.03l2.215.007A2.694,2.694,0,0,0,6.48,9.511a2.106,2.106,0,0,0,.786-1.463,1.65,1.65,0,0,0-.349-1.364,1.755,1.755,0,0,0-1.333-.55L3.227,6.127Z" transform="translate(957 13401.617)" fill="#12263f"/>
    <path id="Trazado_725465" data-name="Trazado 725465" d="M3.258,5.625l3.719,9.281L10.7,5.625h1.945V17h-1.5V12.57l.141-4.781L7.547,17H6.4L2.672,7.813,2.82,12.57V17H1.32V5.625Zm18.313,8.4H16.8L15.734,17H14.188L18.531,5.625h1.313L24.2,17H22.656ZM17.258,12.8h3.867l-1.937-5.32Zm11.82-.867a7.053,7.053,0,0,1-2.809-1.363,2.6,2.6,0,0,1-.879-2,2.751,2.751,0,0,1,1.074-2.223,4.269,4.269,0,0,1,2.793-.879,4.66,4.66,0,0,1,2.09.453,3.436,3.436,0,0,1,1.422,1.25,3.2,3.2,0,0,1,.5,1.742H31.766a2.08,2.08,0,0,0-.656-1.627A2.669,2.669,0,0,0,29.258,6.7a2.732,2.732,0,0,0-1.73.489,1.632,1.632,0,0,0-.621,1.358A1.468,1.468,0,0,0,27.5,9.72a5.785,5.785,0,0,0,2.008.88,9.316,9.316,0,0,1,2.219.88A3.367,3.367,0,0,1,32.91,12.6a2.861,2.861,0,0,1,.387,1.508,2.658,2.658,0,0,1-1.078,2.215,4.6,4.6,0,0,1-2.883.832,5.347,5.347,0,0,1-2.187-.449,3.681,3.681,0,0,1-1.566-1.23,3,3,0,0,1-.551-1.773h1.508a1.959,1.959,0,0,0,.762,1.629,3.207,3.207,0,0,0,2.035.6,2.948,2.948,0,0,0,1.82-.484,1.573,1.573,0,0,0,.633-1.32,1.545,1.545,0,0,0-.586-1.293A6.755,6.755,0,0,0,29.078,11.93ZM41.5,14.023H36.734L35.664,17H34.117L38.461,5.625h1.313L44.125,17H42.586ZM37.188,12.8h3.867l-1.937-5.32ZM58.359,17H56.852L51.125,8.234V17H49.617V5.625h1.508l5.742,8.8v-8.8h1.492Zm11.414-5.32a7.037,7.037,0,0,1-.562,2.918,4.261,4.261,0,0,1-1.594,1.9,4.4,4.4,0,0,1-6.4-1.887,6.752,6.752,0,0,1-.59-2.832v-.82a6.953,6.953,0,0,1,.57-2.9,4.218,4.218,0,0,1,4-2.594,4.41,4.41,0,0,1,2.41.66,4.253,4.253,0,0,1,1.605,1.914,7.071,7.071,0,0,1,.563,2.918Zm-1.492-.734a5.1,5.1,0,0,0-.812-3.105A2.68,2.68,0,0,0,65.2,6.758,2.651,2.651,0,0,0,62.957,7.84a5,5,0,0,0-.84,3v.836a5.107,5.107,0,0,0,.824,3.082,2.888,2.888,0,0,0,4.52.063,5.079,5.079,0,0,0,.82-3.035ZM77.594,17h-1.5V5.625h1.5Zm2.742,0V5.625h3.211a5.169,5.169,0,0,1,2.625.656,4.438,4.438,0,0,1,1.762,1.867,6.078,6.078,0,0,1,.629,2.781v.727a6.1,6.1,0,0,1-.621,2.82,4.369,4.369,0,0,1-1.773,1.859A5.5,5.5,0,0,1,83.484,17Zm1.5-10.148v8.922h1.578a3.434,3.434,0,0,0,2.7-1.079,4.458,4.458,0,0,0,.965-3.073v-.665a4.529,4.529,0,0,0-.91-3.014,3.239,3.239,0,0,0-2.582-1.091Zm15.422,4.891h-4.93v4.031h5.727V17H90.828V5.625h7.148V6.852H92.328v3.664h4.93ZM108.664,17h-1.508L101.43,8.234V17H99.922V5.625h1.508l5.742,8.8v-8.8h1.492ZM119.188,6.852h-3.656V17h-1.492V6.852h-3.648V5.625h8.8ZM122.484,17h-1.5V5.625h1.5Zm9.016-5.023h-4.773V17h-1.5V5.625h7.047V6.852h-5.547v3.9H131.5ZM135.68,17h-1.5V5.625h1.5Zm11.109-3.609a4.185,4.185,0,0,1-1.332,2.785,4.365,4.365,0,0,1-2.98.98,4.008,4.008,0,0,1-3.23-1.445,5.815,5.815,0,0,1-1.215-3.867V10.75a6.481,6.481,0,0,1,.566-2.789A4.231,4.231,0,0,1,140.2,6.113a4.47,4.47,0,0,1,2.406-.645,4.11,4.11,0,0,1,2.906,1.012,4.235,4.235,0,0,1,1.273,2.8h-1.508a3.268,3.268,0,0,0-.848-1.975,2.565,2.565,0,0,0-1.824-.611,2.684,2.684,0,0,0-2.254,1.063,4.882,4.882,0,0,0-.816,3.026v1.1a5.018,5.018,0,0,0,.773,2.948,2.5,2.5,0,0,0,2.164,1.095,2.887,2.887,0,0,0,1.918-.566,3.143,3.143,0,0,0,.887-1.973Zm8.328.633h-4.766L149.281,17h-1.547l4.344-11.375h1.313L157.742,17H156.2ZM150.8,12.8h3.867l-1.937-5.32Zm8.469,4.2V5.625h3.211a5.169,5.169,0,0,1,2.625.656,4.438,4.438,0,0,1,1.762,1.867,6.077,6.077,0,0,1,.629,2.781v.727a6.1,6.1,0,0,1-.621,2.82,4.369,4.369,0,0,1-1.773,1.859,5.5,5.5,0,0,1-2.684.664Zm1.5-10.148v8.922h1.578a3.434,3.434,0,0,0,2.7-1.079,4.458,4.458,0,0,0,.965-3.073v-.665a4.529,4.529,0,0,0-.91-3.014,3.239,3.239,0,0,0-2.582-1.091Zm15.273,7.172h-4.766L170.211,17h-1.547l4.344-11.375h1.313L178.672,17h-1.539ZM171.734,12.8H175.6l-1.937-5.32Zm18.328-7.172,3.719,9.281L197.5,5.625h1.945V17h-1.5V12.57l.141-4.781L194.352,17H193.2l-3.727-9.187.148,4.758V17h-1.5V5.625Z" transform="translate(780 13443.617)" fill="#12263f"/>
    <path id="Trazado_725466" data-name="Trazado 725466" d="M1.777,15H.5L2.229,5.047H3.507Zm3.76,0H4.259L5.988,5.047H7.267Z" transform="translate(980 13452.617)" fill="#12263f"/>
    <path id="Trazado_725467" data-name="Trazado 725467" d="M3.258,5.625l3.719,9.281L10.7,5.625h1.945V17h-1.5V12.57l.141-4.781L7.547,17H6.4L2.672,7.813,2.82,12.57V17H1.32V5.625Zm18.313,8.4H16.8L15.734,17H14.188L18.531,5.625h1.313L24.2,17H22.656ZM17.258,12.8h3.867l-1.937-5.32Zm11.82-.867a7.053,7.053,0,0,1-2.809-1.363,2.6,2.6,0,0,1-.879-2,2.751,2.751,0,0,1,1.074-2.223,4.269,4.269,0,0,1,2.793-.879,4.66,4.66,0,0,1,2.09.453,3.436,3.436,0,0,1,1.422,1.25,3.2,3.2,0,0,1,.5,1.742H31.766a2.08,2.08,0,0,0-.656-1.627A2.669,2.669,0,0,0,29.258,6.7a2.732,2.732,0,0,0-1.73.489,1.632,1.632,0,0,0-.621,1.358A1.468,1.468,0,0,0,27.5,9.72a5.785,5.785,0,0,0,2.008.88,9.316,9.316,0,0,1,2.219.88A3.367,3.367,0,0,1,32.91,12.6a2.861,2.861,0,0,1,.387,1.508,2.658,2.658,0,0,1-1.078,2.215,4.6,4.6,0,0,1-2.883.832,5.347,5.347,0,0,1-2.187-.449,3.681,3.681,0,0,1-1.566-1.23,3,3,0,0,1-.551-1.773h1.508a1.959,1.959,0,0,0,.762,1.629,3.207,3.207,0,0,0,2.035.6,2.948,2.948,0,0,0,1.82-.484,1.573,1.573,0,0,0,.633-1.32,1.545,1.545,0,0,0-.586-1.293A6.755,6.755,0,0,0,29.078,11.93ZM41.5,14.023H36.734L35.664,17H34.117L38.461,5.625h1.313L44.125,17H42.586ZM37.188,12.8h3.867l-1.937-5.32ZM49.617,17V5.625h3.211a5.169,5.169,0,0,1,2.625.656,4.438,4.438,0,0,1,1.762,1.867,6.078,6.078,0,0,1,.629,2.781v.727a6.1,6.1,0,0,1-.621,2.82,4.369,4.369,0,0,1-1.773,1.859A5.5,5.5,0,0,1,52.766,17Zm1.5-10.148v8.922H52.7a3.434,3.434,0,0,0,2.7-1.079,4.458,4.458,0,0,0,.965-3.073v-.665a4.529,4.529,0,0,0-.91-3.014,3.239,3.239,0,0,0-2.582-1.091Zm15.422,4.891h-4.93v4.031h5.727V17H60.109V5.625h7.148V6.852H61.609v3.664h4.93Zm13.055,0h-4.93v4.031h5.727V17H73.164V5.625h7.148V6.852H74.664v3.664h4.93Zm4.6-6.117,3.719,9.281,3.719-9.281h1.945V17h-1.5V12.57l.141-4.781L88.484,17H87.336L83.609,7.813l.148,4.758V17h-1.5V5.625ZM97.836,17h-1.5V5.625h1.5Zm6.094-5.07a7.053,7.053,0,0,1-2.809-1.363,2.6,2.6,0,0,1-.879-2,2.751,2.751,0,0,1,1.074-2.223,4.269,4.269,0,0,1,2.793-.879,4.66,4.66,0,0,1,2.09.453,3.436,3.436,0,0,1,1.422,1.25,3.2,3.2,0,0,1,.5,1.742h-1.508a2.08,2.08,0,0,0-.656-1.627,2.669,2.669,0,0,0-1.852-.592,2.732,2.732,0,0,0-1.73.489,1.632,1.632,0,0,0-.621,1.358,1.468,1.468,0,0,0,.59,1.178,5.785,5.785,0,0,0,2.008.88,9.316,9.316,0,0,1,2.219.88,3.367,3.367,0,0,1,1.188,1.121,2.861,2.861,0,0,1,.387,1.508,2.658,2.658,0,0,1-1.078,2.215,4.6,4.6,0,0,1-2.883.832A5.347,5.347,0,0,1,102,16.707a3.681,3.681,0,0,1-1.566-1.23,3,3,0,0,1-.551-1.773h1.508a1.959,1.959,0,0,0,.762,1.629,3.207,3.207,0,0,0,2.035.6,2.948,2.948,0,0,0,1.82-.484,1.573,1.573,0,0,0,.633-1.32,1.545,1.545,0,0,0-.586-1.293A6.755,6.755,0,0,0,103.93,11.93ZM111.68,17h-1.5V5.625h1.5Zm11.492-5.32a7.037,7.037,0,0,1-.562,2.918,4.261,4.261,0,0,1-1.594,1.9,4.4,4.4,0,0,1-6.4-1.887,6.752,6.752,0,0,1-.59-2.832v-.82a6.953,6.953,0,0,1,.57-2.9,4.218,4.218,0,0,1,4-2.594,4.41,4.41,0,0,1,2.41.66,4.253,4.253,0,0,1,1.605,1.914,7.071,7.071,0,0,1,.563,2.918Zm-1.492-.734a5.1,5.1,0,0,0-.812-3.105,2.68,2.68,0,0,0-2.273-1.082,2.651,2.651,0,0,0-2.238,1.082,5,5,0,0,0-.84,3v.836a5.107,5.107,0,0,0,.824,3.082,2.888,2.888,0,0,0,4.52.063,5.079,5.079,0,0,0,.82-3.035ZM134.164,17h-1.508L126.93,8.234V17h-1.508V5.625h1.508l5.742,8.8v-8.8h1.492Zm9.094-5.258h-4.93v4.031h5.727V17h-7.227V5.625h7.148V6.852h-5.648v3.664h4.93Zm6.016.188a7.053,7.053,0,0,1-2.809-1.363,2.6,2.6,0,0,1-.879-2,2.752,2.752,0,0,1,1.074-2.223,4.269,4.269,0,0,1,2.793-.879,4.66,4.66,0,0,1,2.09.453,3.436,3.436,0,0,1,1.422,1.25,3.2,3.2,0,0,1,.5,1.742h-1.508a2.08,2.08,0,0,0-.656-1.627,2.669,2.669,0,0,0-1.852-.592,2.732,2.732,0,0,0-1.73.489,1.632,1.632,0,0,0-.621,1.358,1.468,1.468,0,0,0,.59,1.178,5.786,5.786,0,0,0,2.008.88,9.316,9.316,0,0,1,2.219.88,3.367,3.367,0,0,1,1.188,1.121,2.861,2.861,0,0,1,.387,1.508,2.658,2.658,0,0,1-1.078,2.215,4.6,4.6,0,0,1-2.883.832,5.347,5.347,0,0,1-2.187-.449,3.681,3.681,0,0,1-1.566-1.23,3,3,0,0,1-.551-1.773h1.508a1.959,1.959,0,0,0,.762,1.629,3.207,3.207,0,0,0,2.035.6,2.948,2.948,0,0,0,1.82-.484,1.573,1.573,0,0,0,.633-1.32,1.545,1.545,0,0,0-.586-1.293A6.755,6.755,0,0,0,149.273,11.93Zm16-6.3,3.719,9.281,3.719-9.281h1.945V17h-1.5V12.57l.141-4.781L169.563,17h-1.148l-3.727-9.187.148,4.758V17h-1.5V5.625Z" transform="translate(780 13495.617)" fill="#12263f"/>
    <path id="Trazado_725468" data-name="Trazado 725468" d="M4.683,10.98h-2.3L1.688,15H.4L2.126,5.047l2.994.007a3.337,3.337,0,0,1,2.386.794A2.477,2.477,0,0,1,8.2,7.99a2.836,2.836,0,0,1-.68,1.649,3.716,3.716,0,0,1-1.61,1.074l1.545,4.2L7.444,15H6.077ZM2.57,9.9l1.887.007a2.635,2.635,0,0,0,1.661-.523,2.036,2.036,0,0,0,.793-1.4,1.608,1.608,0,0,0-.342-1.34,1.826,1.826,0,0,0-1.354-.513L3.227,6.127Z" transform="translate(956 13505.617)" fill="#12263f"/>
    <path id="Trazado_725469" data-name="Trazado 725469" d="M3.258,5.625l3.719,9.281L10.7,5.625h1.945V17h-1.5V12.57l.141-4.781L7.547,17H6.4L2.672,7.813,2.82,12.57V17H1.32V5.625Zm18.313,8.4H16.8L15.734,17H14.188L18.531,5.625h1.313L24.2,17H22.656ZM17.258,12.8h3.867l-1.937-5.32Zm11.82-.867a7.053,7.053,0,0,1-2.809-1.363,2.6,2.6,0,0,1-.879-2,2.751,2.751,0,0,1,1.074-2.223,4.269,4.269,0,0,1,2.793-.879,4.66,4.66,0,0,1,2.09.453,3.436,3.436,0,0,1,1.422,1.25,3.2,3.2,0,0,1,.5,1.742H31.766a2.08,2.08,0,0,0-.656-1.627A2.669,2.669,0,0,0,29.258,6.7a2.732,2.732,0,0,0-1.73.489,1.632,1.632,0,0,0-.621,1.358A1.468,1.468,0,0,0,27.5,9.72a5.785,5.785,0,0,0,2.008.88,9.316,9.316,0,0,1,2.219.88A3.367,3.367,0,0,1,32.91,12.6a2.861,2.861,0,0,1,.387,1.508,2.658,2.658,0,0,1-1.078,2.215,4.6,4.6,0,0,1-2.883.832,5.347,5.347,0,0,1-2.187-.449,3.681,3.681,0,0,1-1.566-1.23,3,3,0,0,1-.551-1.773h1.508a1.959,1.959,0,0,0,.762,1.629,3.207,3.207,0,0,0,2.035.6,2.948,2.948,0,0,0,1.82-.484,1.573,1.573,0,0,0,.633-1.32,1.545,1.545,0,0,0-.586-1.293A6.755,6.755,0,0,0,29.078,11.93ZM41.5,14.023H36.734L35.664,17H34.117L38.461,5.625h1.313L44.125,17H42.586ZM37.188,12.8h3.867l-1.937-5.32ZM49.617,17V5.625h3.211a5.169,5.169,0,0,1,2.625.656,4.438,4.438,0,0,1,1.762,1.867,6.078,6.078,0,0,1,.629,2.781v.727a6.1,6.1,0,0,1-.621,2.82,4.369,4.369,0,0,1-1.773,1.859A5.5,5.5,0,0,1,52.766,17Zm1.5-10.148v8.922H52.7a3.434,3.434,0,0,0,2.7-1.079,4.458,4.458,0,0,0,.965-3.073v-.665a4.529,4.529,0,0,0-.91-3.014,3.239,3.239,0,0,0-2.582-1.091Zm15.422,4.891h-4.93v4.031h5.727V17H60.109V5.625h7.148V6.852H61.609v3.664h4.93Zm13.055,0h-4.93v4.031h5.727V17H73.164V5.625h7.148V6.852H74.664v3.664h4.93ZM91,17H89.492L83.766,8.234V17H82.258V5.625h1.508l5.742,8.8v-8.8H91ZM101.523,6.852H97.867V17H96.375V6.852H92.727V5.625h8.8Zm5.859,5.547h-2.672V17H103.2V5.625h3.766a4.457,4.457,0,0,1,2.957.875,3.148,3.148,0,0,1,1.035,2.547,3.062,3.062,0,0,1-.574,1.852,3.428,3.428,0,0,1-1.6,1.18l2.672,4.828V17h-1.609Zm-2.672-1.227h2.3a2.6,2.6,0,0,0,1.777-.579,1.959,1.959,0,0,0,.66-1.55,2.062,2.062,0,0,0-.629-1.62,2.663,2.663,0,0,0-1.816-.571h-2.3Zm14.633,2.852h-4.766L113.508,17h-1.547L116.3,5.625h1.313L121.969,17H120.43ZM115.031,12.8H118.9l-1.937-5.32ZM123.5,17V5.625h3.211a5.169,5.169,0,0,1,2.625.656A4.438,4.438,0,0,1,131.1,8.148a6.077,6.077,0,0,1,.629,2.781v.727a6.1,6.1,0,0,1-.621,2.82,4.369,4.369,0,0,1-1.773,1.859,5.5,5.5,0,0,1-2.684.664ZM125,6.852v8.922h1.578a3.434,3.434,0,0,0,2.7-1.079,4.458,4.458,0,0,0,.965-3.073v-.665a4.529,4.529,0,0,0-.91-3.014,3.239,3.239,0,0,0-2.582-1.091Zm15.273,7.172h-4.766L134.438,17h-1.547l4.344-11.375h1.313L142.9,17h-1.539ZM135.961,12.8h3.867l-1.937-5.32ZM158.25,5.625l3.719,9.281,3.719-9.281h1.945V17h-1.5V12.57l.141-4.781L162.539,17h-1.148l-3.727-9.187.148,4.758V17h-1.5V5.625Z" transform="translate(275 13443.617)" fill="#12263f"/>
    <path id="Trazado_725470" data-name="Trazado 725470" d="M6.672,10.4H2.488l-.615,3.527H6.74L6.549,15H.4L2.133,5.047H8.21L8.019,6.12H3.227L2.673,9.326H6.856Z" transform="translate(444 13453.617)" fill="#12263f"/>
    <path id="Trazado_725471" data-name="Trazado 725471" d="M208,0H0" transform="translate(262.5 13475.117)" fill="none" stroke="#707070" stroke-width="2"/>
    <g id="Trazado_725472" data-name="Trazado 725472" transform="translate(479 13468.617) rotate(90)" fill="#707070">
      <path d="M 13.03966903686523 9.5 L 0.9603310227394104 9.5 L 7 0.8719014525413513 L 13.03966903686523 9.5 Z" stroke="none"/>
      <path d="M 7 1.743788719177246 L 1.920652389526367 9 L 12.07934761047363 9 L 7 1.743788719177246 M 7 0 L 14 10 L 0 10 L 7 0 Z" stroke="none" fill="#707070"/>
    </g>
    <path id="Trazado_725473" data-name="Trazado 725473" d="M216.155,0H0" transform="translate(777.5 13419.117)" fill="none" stroke="#707070" stroke-width="2"/>
    <g id="Trazado_725474" data-name="Trazado 725474" transform="translate(1002 13412.617) rotate(90)" fill="#707070">
      <path d="M 13.03966903686523 9.5 L 0.9603310227394104 9.5 L 7 0.8719014525413513 L 13.03966903686523 9.5 Z" stroke="none"/>
      <path d="M 7 1.743788719177246 L 1.920652389526367 9 L 12.07934761047363 9 L 7 1.743788719177246 M 7 0 L 14 10 L 0 10 L 7 0 Z" stroke="none" fill="#707070"/>
    </g>
    <path id="Trazado_725475" data-name="Trazado 725475" d="M216.155,0H0" transform="translate(777.5 13475.117)" fill="none" stroke="#707070" stroke-width="2"/>
    <g id="Trazado_725476" data-name="Trazado 725476" transform="translate(1002 13468.617) rotate(90)" fill="#707070">
      <path d="M 13.03966903686523 9.5 L 0.9603310227394104 9.5 L 7 0.8719014525413513 L 13.03966903686523 9.5 Z" stroke="none"/>
      <path d="M 7 1.743788719177246 L 1.920652389526367 9 L 12.07934761047363 9 L 7 1.743788719177246 M 7 0 L 14 10 L 0 10 L 7 0 Z" stroke="none" fill="#707070"/>
    </g>
    <path id="Trazado_725477" data-name="Trazado 725477" d="M216.155,0H0" transform="translate(777.5 13524.117)" fill="none" stroke="#707070" stroke-width="2"/>
    <g id="Trazado_725478" data-name="Trazado 725478" transform="translate(1002 13517.617) rotate(90)" fill="#707070">
      <path d="M 13.03966903686523 9.5 L 0.9603310227394104 9.5 L 7 0.8719014525413513 L 13.03966903686523 9.5 Z" stroke="none"/>
      <path d="M 7 1.743788719177246 L 1.920652389526367 9 L 12.07934761047363 9 L 7 1.743788719177246 M 7 0 L 14 10 L 0 10 L 7 0 Z" stroke="none" fill="#707070"/>
    </g>
    <path id="Trazado_725479" data-name="Trazado 725479" d="M1.32,17V5.625H4.531a5.169,5.169,0,0,1,2.625.656A4.438,4.438,0,0,1,8.918,8.148a6.078,6.078,0,0,1,.629,2.781v.727a6.1,6.1,0,0,1-.621,2.82,4.369,4.369,0,0,1-1.773,1.859A5.5,5.5,0,0,1,4.469,17ZM2.82,6.852v8.922H4.4a3.434,3.434,0,0,0,2.7-1.079,4.458,4.458,0,0,0,.965-3.073v-.665a4.529,4.529,0,0,0-.91-3.014A3.239,3.239,0,0,0,4.57,6.852ZM11.2,12.7a4.993,4.993,0,0,1,.488-2.234A3.643,3.643,0,0,1,13.051,8.93a3.7,3.7,0,0,1,1.988-.539,3.565,3.565,0,0,1,2.793,1.2,4.6,4.6,0,0,1,1.066,3.18v.1a5.036,5.036,0,0,1-.473,2.215,3.589,3.589,0,0,1-1.352,1.527,3.743,3.743,0,0,1-2.02.547,3.556,3.556,0,0,1-2.785-1.2A4.575,4.575,0,0,1,11.2,12.8Zm1.453.172a3.616,3.616,0,0,0,.652,2.258,2.211,2.211,0,0,0,3.5-.012,3.955,3.955,0,0,0,.648-2.418,3.61,3.61,0,0,0-.66-2.254,2.1,2.1,0,0,0-1.754-.863,2.075,2.075,0,0,0-1.727.852A3.925,3.925,0,0,0,12.656,12.867Zm9.422-4.32.047,1.063a3.08,3.08,0,0,1,2.531-1.219q2.68,0,2.7,3.023V17H25.914V11.406a1.946,1.946,0,0,0-.418-1.352,1.675,1.675,0,0,0-1.277-.437,2.086,2.086,0,0,0-1.234.375,2.546,2.546,0,0,0-.828.984V17H20.711V8.547ZM29.188,12.7a4.952,4.952,0,0,1,.922-3.129,3.137,3.137,0,0,1,4.766-.168V5H36.32V17H34.992l-.07-.906a2.943,2.943,0,0,1-2.414,1.063,2.887,2.887,0,0,1-2.395-1.2,5.008,5.008,0,0,1-.926-3.141Zm1.445.164a3.749,3.749,0,0,0,.594,2.25,1.92,1.92,0,0,0,1.641.813A2.108,2.108,0,0,0,34.875,14.7V10.813a2.125,2.125,0,0,0-1.992-1.2,1.929,1.929,0,0,0-1.656.82A4.128,4.128,0,0,0,30.633,12.867ZM42.07,17.156a3.693,3.693,0,0,1-2.8-1.129,4.19,4.19,0,0,1-1.078-3.02v-.266a5.073,5.073,0,0,1,.48-2.246A3.748,3.748,0,0,1,40.02,8.949a3.378,3.378,0,0,1,1.871-.559,3.166,3.166,0,0,1,2.563,1.086,4.7,4.7,0,0,1,.914,3.109v.6H39.641a3,3,0,0,0,.73,2.02,2.3,2.3,0,0,0,1.777.77,2.517,2.517,0,0,0,1.3-.312,3.259,3.259,0,0,0,.93-.828l.883.688A3.55,3.55,0,0,1,42.07,17.156Zm-.18-7.578a1.928,1.928,0,0,0-1.469.637A3.1,3.1,0,0,0,39.688,12h4.234v-.109a2.753,2.753,0,0,0-.594-1.707A1.815,1.815,0,0,0,41.891,9.578Zm5.1,6.664a.905.905,0,0,1,.223-.625.848.848,0,0,1,.668-.25.874.874,0,0,1,.676.25.887.887,0,0,1,.23.625.839.839,0,0,1-.23.6.89.89,0,0,1-.676.242.8.8,0,0,1-.891-.844ZM47,9.344a.905.905,0,0,1,.223-.625.848.848,0,0,1,.668-.25.874.874,0,0,1,.676.25.887.887,0,0,1,.23.625.839.839,0,0,1-.23.6.89.89,0,0,1-.676.242A.8.8,0,0,1,47,9.344ZM3.258,29.625l3.719,9.281L10.7,29.625h1.945V41h-1.5V36.57l.141-4.781L7.547,41H6.4L2.672,31.813,2.82,36.57V41H1.32V29.625ZM16.9,41H15.4V29.625h1.5Zm17.047-6.359H27.43V33.383h6.516Zm0,3.242H27.43v-1.25h6.516Zm16.219-8.258,3.719,9.281L57.6,29.625h1.945V41h-1.5V36.57l.141-4.781L54.453,41H53.3l-3.727-9.187.148,4.758V41h-1.5V29.625ZM63.8,41H62.3V29.625h1.5Zm14.578-6.1h3.172v1.367H78.383v3.594H76.93V36.266H73.758V34.9H76.93v-3.32h1.453Zm11.055-5.273,3.719,9.281,3.719-9.281H98.82V41h-1.5V36.57l.141-4.781L93.727,41H92.578l-3.727-9.187L89,36.57V41H87.5V29.625ZM103.078,41h-1.5V29.625h1.5Zm14.578-6.1h3.172v1.367h-3.172v3.594H116.2V36.266h-3.172V34.9H116.2v-3.32h1.453Zm11.055-5.273,3.719,9.281,3.719-9.281h1.945V41h-1.5V36.57l.141-4.781L133,41h-1.148l-3.727-9.187.148,4.758V41h-1.5V29.625ZM142.352,41h-1.5V29.625h1.5Zm14.578-6.1H160.1v1.367H156.93v3.594h-1.453V36.266H152.3V34.9h3.172v-3.32h1.453Zm11.055-5.273,3.719,9.281,3.719-9.281h1.945V41h-1.5V36.57l.141-4.781L172.273,41h-1.148L167.4,31.813l.148,4.758V41h-1.5V29.625ZM181.625,41h-1.5V29.625h1.5ZM3.258,53.625l3.719,9.281L10.7,53.625h1.945V65h-1.5V60.57l.141-4.781L7.547,65H6.4L2.672,55.813,2.82,60.57V65H1.32V53.625Zm30.3,5.016H27.039V57.383h6.516Zm0,3.242H27.039v-1.25h6.516Zm16.219-8.258,3.719,9.281,3.719-9.281h1.945V65h-1.5V60.57l.141-4.781L54.063,65H52.914l-3.727-9.187.148,4.758V65h-1.5V53.625ZM73.641,58.9h3.172v1.367H73.641v3.594H72.188V60.266H69.016V58.9h3.172v-3.32h1.453ZM84.7,53.625l3.719,9.281,3.719-9.281h1.945V65h-1.5V60.57l.141-4.781L88.984,65H87.836l-3.727-9.187.148,4.758V65h-1.5V53.625ZM108.563,58.9h3.172v1.367h-3.172v3.594h-1.453V60.266h-3.172V58.9h3.172v-3.32h1.453Zm11.055-5.273,3.719,9.281,3.719-9.281H129V65h-1.5V60.57l.141-4.781L123.906,65h-1.148l-3.727-9.187.148,4.758V65h-1.5V53.625Zm-116.359,24,3.719,9.281L10.7,77.625h1.945V89h-1.5V84.57l.141-4.781L7.547,89H6.4L2.672,79.813,2.82,84.57V89H1.32V77.625Zm30.3,5.016H27.039V81.383h6.516Zm0,3.242H27.039v-1.25h6.516Zm16.219-8.258,3.719,9.281,3.719-9.281h1.945V89h-1.5V84.57l.141-4.781L54.063,89H52.914l-3.727-9.187.148,4.758V89h-1.5V77.625Zm-46.516,24,3.719,9.281,3.719-9.281h1.945V113h-1.5v-4.43l.141-4.781L7.547,113H6.4l-3.727-9.187.148,4.758V113H1.32V101.625Zm30.3,5.016H27.039v-1.258h6.516Zm0,3.242H27.039v-1.25h6.516Zm16.219-8.258,3.719,9.281,3.719-9.281h1.945V113h-1.5v-4.43l.141-4.781L54.063,113H52.914l-3.727-9.187.148,4.758V113h-1.5V101.625ZM66.8,113a3.036,3.036,0,0,1-.2-.891,3.225,3.225,0,0,1-2.406,1.047,2.984,2.984,0,0,1-2.051-.707,2.287,2.287,0,0,1-.8-1.793,2.39,2.39,0,0,1,1-2.051,4.733,4.733,0,0,1,2.824-.73H66.57v-.664A1.623,1.623,0,0,0,66.117,106a1.821,1.821,0,0,0-1.336-.449,2.108,2.108,0,0,0-1.3.391,1.151,1.151,0,0,0-.523.945H61.508a2,2,0,0,1,.449-1.223,3.066,3.066,0,0,1,1.219-.934,4.1,4.1,0,0,1,1.691-.344,3.342,3.342,0,0,1,2.289.73,2.635,2.635,0,0,1,.859,2.012v3.891a4.757,4.757,0,0,0,.3,1.852V113Zm-2.4-1.1a2.54,2.54,0,0,0,1.289-.352,2.127,2.127,0,0,0,.883-.914V108.9H65.438q-2.656,0-2.656,1.555a1.316,1.316,0,0,0,.453,1.063A1.742,1.742,0,0,0,64.4,111.9Zm10.8-1.141a1.064,1.064,0,0,0-.441-.91,4.249,4.249,0,0,0-1.539-.559,7.277,7.277,0,0,1-1.742-.562,2.478,2.478,0,0,1-.953-.781,1.869,1.869,0,0,1-.309-1.078,2.193,2.193,0,0,1,.879-1.758,3.432,3.432,0,0,1,2.246-.719,3.532,3.532,0,0,1,2.332.742,2.357,2.357,0,0,1,.895,1.9H75.117a1.3,1.3,0,0,0-.5-1.023,1.888,1.888,0,0,0-1.27-.43,1.976,1.976,0,0,0-1.234.344,1.082,1.082,0,0,0-.445.9.877.877,0,0,0,.414.789,5.1,5.1,0,0,0,1.5.508,7.8,7.8,0,0,1,1.754.578,2.559,2.559,0,0,1,1,.809,1.988,1.988,0,0,1,.324,1.152,2.163,2.163,0,0,1-.906,1.816,3.8,3.8,0,0,1-2.352.684,4.257,4.257,0,0,1-1.8-.359,2.922,2.922,0,0,1-1.223-1,2.42,2.42,0,0,1-.441-1.395h1.445a1.5,1.5,0,0,0,.582,1.152,2.258,2.258,0,0,0,1.434.426,2.331,2.331,0,0,0,1.316-.332A1.02,1.02,0,0,0,75.2,110.758ZM83.75,113a3.036,3.036,0,0,1-.2-.891,3.225,3.225,0,0,1-2.406,1.047,2.984,2.984,0,0,1-2.051-.707,2.287,2.287,0,0,1-.8-1.793,2.39,2.39,0,0,1,1-2.051,4.733,4.733,0,0,1,2.824-.73h1.406v-.664A1.623,1.623,0,0,0,83.07,106a1.821,1.821,0,0,0-1.336-.449,2.108,2.108,0,0,0-1.3.391,1.151,1.151,0,0,0-.523.945H78.461a2,2,0,0,1,.449-1.223,3.066,3.066,0,0,1,1.219-.934,4.1,4.1,0,0,1,1.691-.344,3.342,3.342,0,0,1,2.289.73,2.635,2.635,0,0,1,.859,2.012v3.891a4.757,4.757,0,0,0,.3,1.852V113Zm-2.4-1.1a2.54,2.54,0,0,0,1.289-.352,2.127,2.127,0,0,0,.883-.914V108.9H82.391q-2.656,0-2.656,1.555a1.316,1.316,0,0,0,.453,1.063A1.742,1.742,0,0,0,81.352,111.9ZM7.75,131.742H2.82v4.031H8.547V137H1.32V125.625H8.469v1.227H2.82v3.664H7.75Zm24.891-1.1H26.125v-1.258h6.516Zm0,3.242H26.125v-1.25h6.516Zm20.711-2.141h-4.93v4.031h5.727V137H46.922V125.625H54.07v1.227H48.422v3.664h4.93Zm3.8-3.2.047,1.063a3.08,3.08,0,0,1,2.531-1.219q2.68,0,2.7,3.023V137H60.992v-5.594a1.946,1.946,0,0,0-.418-1.352,1.675,1.675,0,0,0-1.277-.437,2.086,2.086,0,0,0-1.234.375,2.546,2.546,0,0,0-.828.984V137H55.789v-8.453Zm9.422-2.047v2.047h1.578v1.117H66.578v5.249a1.173,1.173,0,0,0,.211.763.888.888,0,0,0,.719.254,3.5,3.5,0,0,0,.688-.094V137a4.215,4.215,0,0,1-1.109.155,1.8,1.8,0,0,1-1.461-.586,2.517,2.517,0,0,1-.492-1.664v-5.242H63.594v-1.117h1.539V126.5Zm7.352,3.344a4.332,4.332,0,0,0-.711-.055A1.9,1.9,0,0,0,71.289,131v6H69.844v-8.453H71.25l.023.977a2.251,2.251,0,0,1,2.016-1.133,1.476,1.476,0,0,1,.641.109ZM80.164,137a3.036,3.036,0,0,1-.2-.891,3.225,3.225,0,0,1-2.406,1.047,2.984,2.984,0,0,1-2.051-.707,2.288,2.288,0,0,1-.8-1.793,2.39,2.39,0,0,1,1-2.051,4.733,4.733,0,0,1,2.824-.73h1.406v-.664A1.623,1.623,0,0,0,79.484,130a1.821,1.821,0,0,0-1.336-.449,2.107,2.107,0,0,0-1.3.391,1.151,1.151,0,0,0-.523.945H74.875a2,2,0,0,1,.449-1.223,3.066,3.066,0,0,1,1.219-.934,4.1,4.1,0,0,1,1.691-.344,3.342,3.342,0,0,1,2.289.73,2.635,2.635,0,0,1,.859,2.012v3.891a4.757,4.757,0,0,0,.3,1.852V137Zm-2.4-1.1a2.54,2.54,0,0,0,1.289-.352,2.127,2.127,0,0,0,.883-.914V132.9H78.8q-2.656,0-2.656,1.555a1.316,1.316,0,0,0,.453,1.063A1.742,1.742,0,0,0,77.766,135.9Zm5.531-3.2a4.952,4.952,0,0,1,.922-3.129,3.137,3.137,0,0,1,4.766-.168V125H90.43v12H89.1l-.07-.906a2.943,2.943,0,0,1-2.414,1.063,2.887,2.887,0,0,1-2.395-1.2,5.008,5.008,0,0,1-.926-3.141Zm1.445.164a3.749,3.749,0,0,0,.594,2.25,1.919,1.919,0,0,0,1.641.813,2.108,2.108,0,0,0,2.008-1.234v-3.883a2.125,2.125,0,0,0-1.992-1.2,1.929,1.929,0,0,0-1.656.82A4.128,4.128,0,0,0,84.742,132.867ZM97.891,137a3.036,3.036,0,0,1-.2-.891,3.225,3.225,0,0,1-2.406,1.047,2.984,2.984,0,0,1-2.051-.707,2.288,2.288,0,0,1-.8-1.793,2.39,2.39,0,0,1,1-2.051,4.733,4.733,0,0,1,2.824-.73h1.406v-.664A1.623,1.623,0,0,0,97.211,130a1.821,1.821,0,0,0-1.336-.449,2.107,2.107,0,0,0-1.3.391,1.151,1.151,0,0,0-.523.945H92.6a2,2,0,0,1,.449-1.223,3.066,3.066,0,0,1,1.219-.934,4.1,4.1,0,0,1,1.691-.344,3.342,3.342,0,0,1,2.289.73,2.635,2.635,0,0,1,.859,2.012v3.891a4.757,4.757,0,0,0,.3,1.852V137Zm-2.4-1.1a2.54,2.54,0,0,0,1.289-.352,2.127,2.127,0,0,0,.883-.914V132.9H96.531q-2.656,0-2.656,1.555a1.316,1.316,0,0,0,.453,1.063A1.742,1.742,0,0,0,95.492,135.9ZM2.93,161H1.43V149.625h1.5Zm28.93-6.359H25.344v-1.258h6.516Zm0,3.242H25.344v-1.25h6.516ZM47.75,161h-1.5V149.625h1.5Zm3.883-8.453.047,1.063a3.08,3.08,0,0,1,2.531-1.219q2.68,0,2.7,3.023V161H55.469v-5.594a1.946,1.946,0,0,0-.418-1.352,1.675,1.675,0,0,0-1.277-.437,2.086,2.086,0,0,0-1.234.375,2.546,2.546,0,0,0-.828.984V161H50.266v-8.453Zm12.383,6.211a1.064,1.064,0,0,0-.441-.91,4.249,4.249,0,0,0-1.539-.559,7.277,7.277,0,0,1-1.742-.562,2.479,2.479,0,0,1-.953-.781,1.869,1.869,0,0,1-.309-1.078,2.193,2.193,0,0,1,.879-1.758,3.432,3.432,0,0,1,2.246-.719,3.532,3.532,0,0,1,2.332.742,2.357,2.357,0,0,1,.895,1.9H63.93a1.3,1.3,0,0,0-.5-1.023,1.888,1.888,0,0,0-1.27-.43,1.976,1.976,0,0,0-1.234.344,1.082,1.082,0,0,0-.445.9.877.877,0,0,0,.414.789,5.1,5.1,0,0,0,1.5.508,7.8,7.8,0,0,1,1.754.578,2.558,2.558,0,0,1,1,.809,1.988,1.988,0,0,1,.324,1.152,2.163,2.163,0,0,1-.906,1.816,3.8,3.8,0,0,1-2.352.684,4.257,4.257,0,0,1-1.8-.359,2.922,2.922,0,0,1-1.223-1,2.42,2.42,0,0,1-.441-1.395h1.445a1.5,1.5,0,0,0,.582,1.152,2.258,2.258,0,0,0,1.434.426,2.331,2.331,0,0,0,1.316-.332A1.02,1.02,0,0,0,64.016,158.758Zm8.547,1.406a3.07,3.07,0,0,1-2.477.992,2.628,2.628,0,0,1-2.059-.785,3.4,3.4,0,0,1-.715-2.324v-5.5h1.445v5.461q0,1.922,1.563,1.922a2.163,2.163,0,0,0,2.2-1.234v-6.148h1.445V161H72.594Zm4.961-7.617.039.938a3.122,3.122,0,0,1,2.508-1.094,2.417,2.417,0,0,1,2.414,1.359,3.2,3.2,0,0,1,1.1-.984,3.242,3.242,0,0,1,1.6-.375q2.781,0,2.828,2.945V161H86.563v-5.578a1.941,1.941,0,0,0-.414-1.355,1.823,1.823,0,0,0-1.391-.449,1.916,1.916,0,0,0-1.336.48,1.949,1.949,0,0,0-.617,1.293V161H81.352v-5.539a1.613,1.613,0,0,0-1.8-1.844,1.934,1.934,0,0,0-1.945,1.211V161H76.156v-8.453ZM89.8,156.7a4.993,4.993,0,0,1,.488-2.234,3.643,3.643,0,0,1,1.359-1.531,3.7,3.7,0,0,1,1.988-.539,3.565,3.565,0,0,1,2.793,1.2,4.6,4.6,0,0,1,1.066,3.18v.1a5.036,5.036,0,0,1-.473,2.215,3.589,3.589,0,0,1-1.352,1.527,3.743,3.743,0,0,1-2.02.547,3.556,3.556,0,0,1-2.785-1.2A4.575,4.575,0,0,1,89.8,156.8Zm1.453.172a3.616,3.616,0,0,0,.652,2.258,2.211,2.211,0,0,0,3.5-.012,3.955,3.955,0,0,0,.648-2.418,3.61,3.61,0,0,0-.66-2.254,2.1,2.1,0,0,0-1.754-.863,2.075,2.075,0,0,0-1.727.852A3.925,3.925,0,0,0,91.258,156.867Zm-88,16.758,3.719,9.281,3.719-9.281h1.945V185h-1.5v-4.43l.141-4.781L7.547,185H6.4l-3.727-9.187.148,4.758V185H1.32V173.625Zm30.3,5.016H27.039v-1.258h6.516Zm0,3.242H27.039v-1.25h6.516Zm15.781-1.336V185h-1.5V173.625h4.2a4.215,4.215,0,0,1,2.926.953,3.231,3.231,0,0,1,1.059,2.523,3.189,3.189,0,0,1-1.035,2.551,4.4,4.4,0,0,1-2.965.895Zm0-1.227h2.7a2.7,2.7,0,0,0,1.844-.567,2.075,2.075,0,0,0,.641-1.64,2.143,2.143,0,0,0-.641-1.628,2.525,2.525,0,0,0-1.758-.634H49.336Zm12.453-1.477a4.332,4.332,0,0,0-.711-.055A1.9,1.9,0,0,0,59.148,179v6H57.7v-8.453h1.406l.023.977a2.251,2.251,0,0,1,2.016-1.133,1.476,1.476,0,0,1,.641.109Zm.789,2.852a4.993,4.993,0,0,1,.488-2.234,3.643,3.643,0,0,1,1.359-1.531,3.7,3.7,0,0,1,1.988-.539,3.565,3.565,0,0,1,2.793,1.2,4.6,4.6,0,0,1,1.066,3.18v.1a5.036,5.036,0,0,1-.473,2.215,3.589,3.589,0,0,1-1.352,1.527,3.743,3.743,0,0,1-2.02.547,3.556,3.556,0,0,1-2.785-1.2,4.575,4.575,0,0,1-1.066-3.164Zm1.453.172a3.616,3.616,0,0,0,.652,2.258,2.211,2.211,0,0,0,3.5-.012,3.955,3.955,0,0,0,.648-2.418,3.61,3.61,0,0,0-.66-2.254,2.1,2.1,0,0,0-1.754-.863,2.075,2.075,0,0,0-1.727.852A3.925,3.925,0,0,0,64.031,180.867Zm7.7-.164a4.952,4.952,0,0,1,.922-3.129,3.137,3.137,0,0,1,4.766-.168V173h1.445v12H77.539l-.07-.906a2.943,2.943,0,0,1-2.414,1.063,2.887,2.887,0,0,1-2.395-1.2,5.008,5.008,0,0,1-.926-3.141Zm1.445.164a3.749,3.749,0,0,0,.594,2.25,1.919,1.919,0,0,0,1.641.813,2.108,2.108,0,0,0,2.008-1.234v-3.883a2.125,2.125,0,0,0-1.992-1.2,1.929,1.929,0,0,0-1.656.82A4.128,4.128,0,0,0,73.18,180.867Zm13.148,3.3a3.07,3.07,0,0,1-2.477.992,2.628,2.628,0,0,1-2.059-.785,3.4,3.4,0,0,1-.715-2.324v-5.5h1.445v5.461q0,1.922,1.563,1.922a2.163,2.163,0,0,0,2.2-1.234v-6.148h1.445V185H86.359Zm6.992-.187a2.082,2.082,0,0,0,1.352-.469,1.649,1.649,0,0,0,.641-1.172H96.68a2.621,2.621,0,0,1-.5,1.383,3.293,3.293,0,0,1-1.23,1.047,3.55,3.55,0,0,1-1.629.391A3.482,3.482,0,0,1,90.574,184a4.59,4.59,0,0,1-1.02-3.152v-.242a5.089,5.089,0,0,1,.453-2.2,3.451,3.451,0,0,1,1.3-1.492,3.7,3.7,0,0,1,2-.531,3.39,3.39,0,0,1,2.363.852,3.043,3.043,0,0,1,1,2.211H95.313a1.992,1.992,0,0,0-.621-1.348,1.932,1.932,0,0,0-1.379-.527,2.023,2.023,0,0,0-1.707.793A3.724,3.724,0,0,0,91,180.664v.273a3.65,3.65,0,0,0,.6,2.25A2.033,2.033,0,0,0,93.32,183.977Zm6.945-9.477v2.047h1.578v1.117h-1.578v5.249a1.173,1.173,0,0,0,.211.763.888.888,0,0,0,.719.254,3.5,3.5,0,0,0,.688-.094V185a4.215,4.215,0,0,1-1.109.155,1.8,1.8,0,0,1-1.461-.586,2.517,2.517,0,0,1-.492-1.664v-5.242H97.281v-1.117H98.82V174.5Zm2.727,6.2a4.993,4.993,0,0,1,.488-2.234,3.643,3.643,0,0,1,1.359-1.531,3.7,3.7,0,0,1,1.988-.539,3.565,3.565,0,0,1,2.793,1.2,4.6,4.6,0,0,1,1.066,3.18v.1a5.036,5.036,0,0,1-.473,2.215,3.589,3.589,0,0,1-1.352,1.527,3.743,3.743,0,0,1-2.02.547,3.556,3.556,0,0,1-2.785-1.2,4.575,4.575,0,0,1-1.066-3.164Zm1.453.172a3.616,3.616,0,0,0,.652,2.258,2.211,2.211,0,0,0,3.5-.012,3.955,3.955,0,0,0,.648-2.418,3.61,3.61,0,0,0-.66-2.254,2.1,2.1,0,0,0-1.754-.863,2.075,2.075,0,0,0-1.727.852A3.925,3.925,0,0,0,104.445,180.867ZM3.258,197.625l3.719,9.281,3.719-9.281h1.945V209h-1.5v-4.43l.141-4.781L7.547,209H6.4l-3.727-9.187.148,4.758V209H1.32V197.625Zm30.3,5.016H27.039v-1.258h6.516Zm0,3.242H27.039v-1.25h6.516ZM52.008,204.4H49.336V209H47.828V197.625h3.766a4.457,4.457,0,0,1,2.957.875,3.148,3.148,0,0,1,1.035,2.547,3.062,3.062,0,0,1-.574,1.852,3.428,3.428,0,0,1-1.6,1.18l2.672,4.828V209H54.477Zm-2.672-1.227h2.3a2.6,2.6,0,0,0,1.777-.579,1.959,1.959,0,0,0,.66-1.55,2.062,2.062,0,0,0-.629-1.62,2.663,2.663,0,0,0-1.816-.571h-2.3Zm11.633,5.984a3.693,3.693,0,0,1-2.8-1.129,4.19,4.19,0,0,1-1.078-3.02v-.266a5.073,5.073,0,0,1,.48-2.246,3.748,3.748,0,0,1,1.344-1.547,3.379,3.379,0,0,1,1.871-.559,3.166,3.166,0,0,1,2.563,1.086,4.7,4.7,0,0,1,.914,3.109v.6H58.539a3,3,0,0,0,.73,2.02,2.3,2.3,0,0,0,1.777.77,2.517,2.517,0,0,0,1.3-.312,3.258,3.258,0,0,0,.93-.828l.883.688A3.55,3.55,0,0,1,60.969,209.156Zm-.18-7.578a1.928,1.928,0,0,0-1.469.637A3.1,3.1,0,0,0,58.586,204H62.82v-.109a2.753,2.753,0,0,0-.594-1.707A1.815,1.815,0,0,0,60.789,201.578Zm10.07,5.18a1.064,1.064,0,0,0-.441-.91,4.249,4.249,0,0,0-1.539-.559,7.277,7.277,0,0,1-1.742-.562,2.479,2.479,0,0,1-.953-.781,1.869,1.869,0,0,1-.309-1.078,2.193,2.193,0,0,1,.879-1.758A3.432,3.432,0,0,1,69,200.391a3.532,3.532,0,0,1,2.332.742,2.357,2.357,0,0,1,.895,1.9H70.773a1.3,1.3,0,0,0-.5-1.023,1.888,1.888,0,0,0-1.27-.43,1.976,1.976,0,0,0-1.234.344,1.082,1.082,0,0,0-.445.9.877.877,0,0,0,.414.789,5.1,5.1,0,0,0,1.5.508,7.8,7.8,0,0,1,1.754.578,2.558,2.558,0,0,1,1,.809,1.988,1.988,0,0,1,.324,1.152,2.163,2.163,0,0,1-.906,1.816,3.8,3.8,0,0,1-2.352.684,4.257,4.257,0,0,1-1.8-.359,2.922,2.922,0,0,1-1.223-1,2.42,2.42,0,0,1-.441-1.395h1.445a1.5,1.5,0,0,0,.582,1.152,2.258,2.258,0,0,0,1.434.426,2.331,2.331,0,0,0,1.316-.332A1.02,1.02,0,0,0,70.859,206.758Zm4.9,2.242H74.313v-8.453h1.445ZM74.2,198.3a.863.863,0,0,1,.215-.594.807.807,0,0,1,.637-.242.819.819,0,0,1,.641.242.854.854,0,0,1,.219.594.826.826,0,0,1-.219.586.834.834,0,0,1-.641.234.821.821,0,0,1-.637-.234A.834.834,0,0,1,74.2,198.3Zm3.523,6.4a4.952,4.952,0,0,1,.922-3.129,3.137,3.137,0,0,1,4.766-.168V197h1.445v12H83.523l-.07-.906a2.943,2.943,0,0,1-2.414,1.063,2.887,2.887,0,0,1-2.395-1.2,5.008,5.008,0,0,1-.926-3.141Zm1.445.164a3.749,3.749,0,0,0,.594,2.25,1.919,1.919,0,0,0,1.641.813,2.108,2.108,0,0,0,2.008-1.234v-3.883a2.125,2.125,0,0,0-1.992-1.2,1.929,1.929,0,0,0-1.656.82A4.128,4.128,0,0,0,79.164,204.867Zm13.148,3.3a3.07,3.07,0,0,1-2.477.992,2.628,2.628,0,0,1-2.059-.785,3.4,3.4,0,0,1-.715-2.324v-5.5h1.445v5.461q0,1.922,1.563,1.922a2.163,2.163,0,0,0,2.2-1.234v-6.148h1.445V209H92.344Zm3.219-3.469a4.993,4.993,0,0,1,.488-2.234,3.643,3.643,0,0,1,1.359-1.531,3.7,3.7,0,0,1,1.988-.539,3.565,3.565,0,0,1,2.793,1.2,4.6,4.6,0,0,1,1.066,3.18v.1a5.036,5.036,0,0,1-.473,2.215,3.589,3.589,0,0,1-1.352,1.527,3.743,3.743,0,0,1-2.02.547,3.556,3.556,0,0,1-2.785-1.2,4.575,4.575,0,0,1-1.066-3.164Zm1.453.172a3.616,3.616,0,0,0,.652,2.258,2.211,2.211,0,0,0,3.5-.012,3.955,3.955,0,0,0,.648-2.418,3.61,3.61,0,0,0-.66-2.254,2.1,2.1,0,0,0-1.754-.863,2.075,2.075,0,0,0-1.727.852A3.925,3.925,0,0,0,96.984,204.867Zm12.977,1.891a1.064,1.064,0,0,0-.441-.91,4.249,4.249,0,0,0-1.539-.559,7.277,7.277,0,0,1-1.742-.562,2.479,2.479,0,0,1-.953-.781,1.869,1.869,0,0,1-.309-1.078,2.193,2.193,0,0,1,.879-1.758,3.432,3.432,0,0,1,2.246-.719,3.532,3.532,0,0,1,2.332.742,2.357,2.357,0,0,1,.895,1.9h-1.453a1.3,1.3,0,0,0-.5-1.023,1.888,1.888,0,0,0-1.27-.43,1.976,1.976,0,0,0-1.234.344,1.082,1.082,0,0,0-.445.9.877.877,0,0,0,.414.789,5.1,5.1,0,0,0,1.5.508,7.8,7.8,0,0,1,1.754.578,2.558,2.558,0,0,1,1,.809,1.988,1.988,0,0,1,.324,1.152,2.163,2.163,0,0,1-.906,1.816,3.8,3.8,0,0,1-2.352.684,4.257,4.257,0,0,1-1.8-.359,2.922,2.922,0,0,1-1.223-1,2.42,2.42,0,0,1-.441-1.395h1.445a1.5,1.5,0,0,0,.582,1.152,2.258,2.258,0,0,0,1.434.426,2.331,2.331,0,0,0,1.316-.332A1.02,1.02,0,0,0,109.961,206.758Zm3.617,3.219h-1.242l4.75-12.352h1.234Zm12.961-6.234h-4.93v4.031h5.727V209h-7.227V197.625h7.148v1.227h-5.648v3.664h4.93Zm3.8-3.2.039.938a3.122,3.122,0,0,1,2.508-1.094,2.417,2.417,0,0,1,2.414,1.359,3.2,3.2,0,0,1,1.1-.984,3.242,3.242,0,0,1,1.6-.375q2.781,0,2.828,2.945V209h-1.445v-5.578a1.941,1.941,0,0,0-.414-1.355,1.823,1.823,0,0,0-1.391-.449,1.917,1.917,0,0,0-1.336.48,1.949,1.949,0,0,0-.617,1.293V209h-1.453v-5.539a1.613,1.613,0,0,0-1.8-1.844,1.934,1.934,0,0,0-1.945,1.211V209h-1.445v-8.453ZM144.57,209h-1.445v-8.453h1.445Zm-1.562-10.7a.863.863,0,0,1,.215-.594.807.807,0,0,1,.637-.242.819.819,0,0,1,.641.242.854.854,0,0,1,.219.594.826.826,0,0,1-.219.586.834.834,0,0,1-.641.234.821.821,0,0,1-.637-.234A.834.834,0,0,1,143.008,198.3Zm8.8,8.453a1.064,1.064,0,0,0-.441-.91,4.249,4.249,0,0,0-1.539-.559,7.277,7.277,0,0,1-1.742-.562,2.479,2.479,0,0,1-.953-.781,1.869,1.869,0,0,1-.309-1.078,2.193,2.193,0,0,1,.879-1.758,3.432,3.432,0,0,1,2.246-.719,3.532,3.532,0,0,1,2.332.742,2.357,2.357,0,0,1,.895,1.9h-1.453a1.3,1.3,0,0,0-.5-1.023,1.888,1.888,0,0,0-1.27-.43,1.976,1.976,0,0,0-1.234.344,1.082,1.082,0,0,0-.445.9.877.877,0,0,0,.414.789,5.1,5.1,0,0,0,1.5.508,7.8,7.8,0,0,1,1.754.578,2.558,2.558,0,0,1,1,.809,1.988,1.988,0,0,1,.324,1.152,2.163,2.163,0,0,1-.906,1.816,3.8,3.8,0,0,1-2.352.684,4.257,4.257,0,0,1-1.8-.359,2.922,2.922,0,0,1-1.223-1,2.42,2.42,0,0,1-.441-1.395h1.445a1.5,1.5,0,0,0,.582,1.152,2.258,2.258,0,0,0,1.434.426,2.331,2.331,0,0,0,1.316-.332A1.02,1.02,0,0,0,151.8,206.758ZM156.7,209h-1.445v-8.453H156.7Zm-1.562-10.7a.863.863,0,0,1,.215-.594.807.807,0,0,1,.637-.242.819.819,0,0,1,.641.242.854.854,0,0,1,.219.594.826.826,0,0,1-.219.586.834.834,0,0,1-.641.234.821.821,0,0,1-.637-.234A.834.834,0,0,1,155.141,198.3Zm3.492,6.391a4.993,4.993,0,0,1,.488-2.234,3.642,3.642,0,0,1,1.359-1.531,3.7,3.7,0,0,1,1.988-.539,3.565,3.565,0,0,1,2.793,1.2,4.6,4.6,0,0,1,1.066,3.18v.1a5.036,5.036,0,0,1-.473,2.215,3.589,3.589,0,0,1-1.352,1.527,3.743,3.743,0,0,1-2.02.547,3.556,3.556,0,0,1-2.785-1.2,4.575,4.575,0,0,1-1.066-3.164Zm1.453.172a3.616,3.616,0,0,0,.652,2.258,2.211,2.211,0,0,0,3.5-.012,3.954,3.954,0,0,0,.648-2.418,3.61,3.61,0,0,0-.66-2.254,2.1,2.1,0,0,0-1.754-.863,2.075,2.075,0,0,0-1.727.852A3.925,3.925,0,0,0,160.086,204.867Zm9.422-4.32.047,1.063a3.08,3.08,0,0,1,2.531-1.219q2.68,0,2.7,3.023V209h-1.445v-5.594a1.946,1.946,0,0,0-.418-1.352,1.675,1.675,0,0,0-1.277-.437,2.086,2.086,0,0,0-1.234.375,2.546,2.546,0,0,0-.828.984V209h-1.445v-8.453Zm10.969,8.609a3.693,3.693,0,0,1-2.8-1.129,4.19,4.19,0,0,1-1.078-3.02v-.266a5.073,5.073,0,0,1,.48-2.246,3.748,3.748,0,0,1,1.344-1.547,3.379,3.379,0,0,1,1.871-.559,3.166,3.166,0,0,1,2.563,1.086,4.7,4.7,0,0,1,.914,3.109v.6h-5.727a3,3,0,0,0,.73,2.02,2.3,2.3,0,0,0,1.777.77,2.517,2.517,0,0,0,1.3-.312,3.258,3.258,0,0,0,.93-.828l.883.688A3.55,3.55,0,0,1,180.477,209.156Zm-.18-7.578a1.928,1.928,0,0,0-1.469.637,3.1,3.1,0,0,0-.734,1.785h4.234v-.109a2.753,2.753,0,0,0-.594-1.707A1.815,1.815,0,0,0,180.3,201.578Zm10.07,5.18a1.064,1.064,0,0,0-.441-.91,4.249,4.249,0,0,0-1.539-.559,7.277,7.277,0,0,1-1.742-.562,2.479,2.479,0,0,1-.953-.781,1.869,1.869,0,0,1-.309-1.078,2.193,2.193,0,0,1,.879-1.758,3.432,3.432,0,0,1,2.246-.719,3.532,3.532,0,0,1,2.332.742,2.357,2.357,0,0,1,.895,1.9h-1.453a1.3,1.3,0,0,0-.5-1.023,1.888,1.888,0,0,0-1.27-.43,1.976,1.976,0,0,0-1.234.344,1.082,1.082,0,0,0-.445.9.877.877,0,0,0,.414.789,5.1,5.1,0,0,0,1.5.508,7.8,7.8,0,0,1,1.754.578,2.558,2.558,0,0,1,1,.809,1.988,1.988,0,0,1,.324,1.152,2.163,2.163,0,0,1-.906,1.816,3.8,3.8,0,0,1-2.352.684,4.257,4.257,0,0,1-1.8-.359,2.922,2.922,0,0,1-1.223-1,2.42,2.42,0,0,1-.441-1.395h1.445a1.5,1.5,0,0,0,.582,1.152,2.258,2.258,0,0,0,1.434.426,2.331,2.331,0,0,0,1.316-.332A1.02,1.02,0,0,0,190.367,206.758Zm3.617,3.219h-1.242l4.75-12.352h1.234Zm10.3-2.969,3.25-9.383h1.641L204.953,209h-1.328l-4.211-11.375h1.633Zm9.7,2.148a3.693,3.693,0,0,1-2.8-1.129,4.19,4.19,0,0,1-1.078-3.02v-.266a5.073,5.073,0,0,1,.48-2.246,3.748,3.748,0,0,1,1.344-1.547,3.379,3.379,0,0,1,1.871-.559,3.166,3.166,0,0,1,2.563,1.086,4.7,4.7,0,0,1,.914,3.109v.6h-5.727a3,3,0,0,0,.73,2.02,2.3,2.3,0,0,0,1.777.77,2.517,2.517,0,0,0,1.3-.312,3.258,3.258,0,0,0,.93-.828l.883.688A3.55,3.55,0,0,1,213.977,209.156Zm-.18-7.578a1.928,1.928,0,0,0-1.469.637,3.1,3.1,0,0,0-.734,1.785h4.234v-.109a2.753,2.753,0,0,0-.594-1.707A1.815,1.815,0,0,0,213.8,201.578Zm9.234.266a4.332,4.332,0,0,0-.711-.055,1.9,1.9,0,0,0-1.93,1.211v6h-1.445v-8.453h1.406l.023.977a2.251,2.251,0,0,1,2.016-1.133,1.476,1.476,0,0,1,.641.109Zm3.68-3.344v2.047h1.578v1.117h-1.578v5.249a1.173,1.173,0,0,0,.211.763.888.888,0,0,0,.719.254,3.5,3.5,0,0,0,.688-.094V209a4.215,4.215,0,0,1-1.109.155,1.8,1.8,0,0,1-1.461-.586,2.517,2.517,0,0,1-.492-1.664v-5.242h-1.539v-1.117h1.539V198.5Zm4.836,10.5H230.1v-8.453h1.445Zm-1.562-10.7a.863.863,0,0,1,.215-.594.807.807,0,0,1,.637-.242.819.819,0,0,1,.641.242.854.854,0,0,1,.219.594.826.826,0,0,1-.219.586.834.834,0,0,1-.641.234.821.821,0,0,1-.637-.234A.834.834,0,0,1,229.984,198.3Zm5.234,2.242.039.938a3.122,3.122,0,0,1,2.508-1.094,2.417,2.417,0,0,1,2.414,1.359,3.2,3.2,0,0,1,1.1-.984,3.242,3.242,0,0,1,1.6-.375q2.781,0,2.828,2.945V209h-1.445v-5.578a1.941,1.941,0,0,0-.414-1.355,1.823,1.823,0,0,0-1.391-.449,1.917,1.917,0,0,0-1.336.48,1.949,1.949,0,0,0-.617,1.293V209h-1.453v-5.539a1.613,1.613,0,0,0-1.8-1.844,1.934,1.934,0,0,0-1.945,1.211V209h-1.445v-8.453ZM249.453,209h-1.445v-8.453h1.445Zm-1.562-10.7a.863.863,0,0,1,.215-.594.807.807,0,0,1,.637-.242.819.819,0,0,1,.641.242.854.854,0,0,1,.219.594.826.826,0,0,1-.219.586.834.834,0,0,1-.641.234.821.821,0,0,1-.637-.234A.834.834,0,0,1,247.891,198.3Zm7.383,10.852a3.693,3.693,0,0,1-2.8-1.129,4.19,4.19,0,0,1-1.078-3.02v-.266a5.073,5.073,0,0,1,.48-2.246,3.748,3.748,0,0,1,1.344-1.547,3.379,3.379,0,0,1,1.871-.559,3.166,3.166,0,0,1,2.563,1.086,4.7,4.7,0,0,1,.914,3.109v.6h-5.727a3,3,0,0,0,.73,2.02,2.3,2.3,0,0,0,1.777.77,2.517,2.517,0,0,0,1.3-.312,3.259,3.259,0,0,0,.93-.828l.883.688A3.55,3.55,0,0,1,255.273,209.156Zm-.18-7.578a1.928,1.928,0,0,0-1.469.637,3.1,3.1,0,0,0-.734,1.785h4.234v-.109a2.753,2.753,0,0,0-.594-1.707A1.815,1.815,0,0,0,255.094,201.578Zm6.516-1.031.047,1.063a3.08,3.08,0,0,1,2.531-1.219q2.68,0,2.7,3.023V209h-1.445v-5.594a1.946,1.946,0,0,0-.418-1.352,1.675,1.675,0,0,0-1.277-.437,2.086,2.086,0,0,0-1.234.375,2.546,2.546,0,0,0-.828.984V209h-1.445v-8.453Zm9.422-2.047v2.047h1.578v1.117h-1.578v5.249a1.173,1.173,0,0,0,.211.763.888.888,0,0,0,.719.254,3.5,3.5,0,0,0,.688-.094V209a4.215,4.215,0,0,1-1.109.155,1.8,1.8,0,0,1-1.461-.586,2.517,2.517,0,0,1-.492-1.664v-5.242h-1.539v-1.117h1.539V198.5Zm2.727,6.2a4.993,4.993,0,0,1,.488-2.234,3.643,3.643,0,0,1,1.359-1.531,3.7,3.7,0,0,1,1.988-.539,3.565,3.565,0,0,1,2.793,1.2,4.6,4.6,0,0,1,1.066,3.18v.1a5.036,5.036,0,0,1-.473,2.215,3.589,3.589,0,0,1-1.352,1.527,3.743,3.743,0,0,1-2.02.547,3.556,3.556,0,0,1-2.785-1.2,4.575,4.575,0,0,1-1.066-3.164Zm1.453.172a3.616,3.616,0,0,0,.652,2.258,2.211,2.211,0,0,0,3.5-.012,3.955,3.955,0,0,0,.648-2.418,3.61,3.61,0,0,0-.66-2.254,2.1,2.1,0,0,0-1.754-.863,2.075,2.075,0,0,0-1.727.852A3.925,3.925,0,0,0,275.211,204.867ZM3.258,221.625l3.719,9.281,3.719-9.281h1.945V233h-1.5v-4.43l.141-4.781L7.547,233H6.4l-3.727-9.187.148,4.758V233H1.32V221.625Zm30.3,5.016H27.039v-1.258h6.516Zm0,3.242H27.039v-1.25h6.516ZM56.578,233H55.07l-5.727-8.766V233H47.836V221.625h1.508l5.742,8.8v-8.8h1.492Zm2.055-4.3a4.993,4.993,0,0,1,.488-2.234,3.643,3.643,0,0,1,1.359-1.531,3.7,3.7,0,0,1,1.988-.539,3.565,3.565,0,0,1,2.793,1.2,4.6,4.6,0,0,1,1.066,3.18v.1a5.036,5.036,0,0,1-.473,2.215,3.589,3.589,0,0,1-1.352,1.527,3.743,3.743,0,0,1-2.02.547,3.556,3.556,0,0,1-2.785-1.2,4.575,4.575,0,0,1-1.066-3.164Zm1.453.172a3.616,3.616,0,0,0,.652,2.258,2.211,2.211,0,0,0,3.5-.012,3.955,3.955,0,0,0,.648-2.418,3.61,3.61,0,0,0-.66-2.254,2.1,2.1,0,0,0-1.754-.863,2.075,2.075,0,0,0-1.727.852A3.925,3.925,0,0,0,60.086,228.867ZM73.672,233H72.227v-8.453h1.445Zm-1.562-10.7a.863.863,0,0,1,.215-.594.807.807,0,0,1,.637-.242.819.819,0,0,1,.641.242.854.854,0,0,1,.219.594.826.826,0,0,1-.219.586.834.834,0,0,1-.641.234.821.821,0,0,1-.637-.234A.834.834,0,0,1,72.109,222.3Zm3.523,6.4a4.952,4.952,0,0,1,.922-3.129,3.137,3.137,0,0,1,4.766-.168V221h1.445v12H81.438l-.07-.906a2.943,2.943,0,0,1-2.414,1.063,2.887,2.887,0,0,1-2.395-1.2,5.008,5.008,0,0,1-.926-3.141Zm1.445.164a3.749,3.749,0,0,0,.594,2.25,1.919,1.919,0,0,0,1.641.813A2.108,2.108,0,0,0,81.32,230.7v-3.883a2.125,2.125,0,0,0-1.992-1.2,1.929,1.929,0,0,0-1.656.82A4.128,4.128,0,0,0,77.078,228.867Zm11.438,4.289a3.693,3.693,0,0,1-2.8-1.129,4.19,4.19,0,0,1-1.078-3.02v-.266a5.073,5.073,0,0,1,.48-2.246,3.748,3.748,0,0,1,1.344-1.547,3.379,3.379,0,0,1,1.871-.559,3.166,3.166,0,0,1,2.563,1.086,4.7,4.7,0,0,1,.914,3.109v.6H86.086a3,3,0,0,0,.73,2.02,2.3,2.3,0,0,0,1.777.77,2.517,2.517,0,0,0,1.3-.312,3.258,3.258,0,0,0,.93-.828l.883.688A3.55,3.55,0,0,1,88.516,233.156Zm-.18-7.578a1.928,1.928,0,0,0-1.469.637A3.1,3.1,0,0,0,86.133,228h4.234v-.109a2.753,2.753,0,0,0-.594-1.707A1.815,1.815,0,0,0,88.336,225.578Zm6.516-1.031.047,1.063a3.08,3.08,0,0,1,2.531-1.219q2.68,0,2.7,3.023V233H98.688v-5.594a1.946,1.946,0,0,0-.418-1.352,1.675,1.675,0,0,0-1.277-.437,2.086,2.086,0,0,0-1.234.375,2.546,2.546,0,0,0-.828.984V233H93.484v-8.453Zm9.422-2.047v2.047h1.578v1.117h-1.578v5.249a1.173,1.173,0,0,0,.211.763.888.888,0,0,0,.719.254,3.5,3.5,0,0,0,.688-.094V233a4.215,4.215,0,0,1-1.109.155,1.8,1.8,0,0,1-1.461-.586,2.517,2.517,0,0,1-.492-1.664v-5.242h-1.539v-1.117h1.539V222.5Zm4.836,10.5h-1.445v-8.453h1.445Zm-1.562-10.7a.863.863,0,0,1,.215-.594.807.807,0,0,1,.637-.242.819.819,0,0,1,.641.242.854.854,0,0,1,.219.594.826.826,0,0,1-.219.586.834.834,0,0,1-.641.234.821.821,0,0,1-.637-.234A.834.834,0,0,1,107.547,222.3Zm4.359,10.7v-7.336H110.57v-1.117h1.336v-.719a2.937,2.937,0,0,1,.809-2.2,3.136,3.136,0,0,1,2.285-.789,6.881,6.881,0,0,1,2.211.477l-.242,1.219a5.007,5.007,0,0,0-1.859-.391,1.819,1.819,0,0,0-1.34.418,1.723,1.723,0,0,0-.41,1.254v.734h1.727v1.117h-1.727V233Zm6.023,0h-1.453v-8.453h1.453Zm5.742-1.023a2.082,2.082,0,0,0,1.352-.469,1.649,1.649,0,0,0,.641-1.172h1.367a2.621,2.621,0,0,1-.5,1.383,3.293,3.293,0,0,1-1.23,1.047,3.55,3.55,0,0,1-1.629.391A3.482,3.482,0,0,1,120.926,232a4.59,4.59,0,0,1-1.02-3.152v-.242a5.089,5.089,0,0,1,.453-2.2,3.451,3.451,0,0,1,1.3-1.492,3.7,3.7,0,0,1,2-.531,3.39,3.39,0,0,1,2.363.852,3.043,3.043,0,0,1,1,2.211h-1.367a1.992,1.992,0,0,0-.621-1.348,1.932,1.932,0,0,0-1.379-.527,2.023,2.023,0,0,0-1.707.793,3.724,3.724,0,0,0-.605,2.293v.273a3.65,3.65,0,0,0,.6,2.25A2.033,2.033,0,0,0,123.672,231.977Zm10.2,1.023a3.036,3.036,0,0,1-.2-.891,3.225,3.225,0,0,1-2.406,1.047,2.984,2.984,0,0,1-2.051-.707,2.287,2.287,0,0,1-.8-1.793,2.39,2.39,0,0,1,1-2.051,4.733,4.733,0,0,1,2.824-.73h1.406v-.664A1.623,1.623,0,0,0,133.2,226a1.821,1.821,0,0,0-1.336-.449,2.107,2.107,0,0,0-1.3.391,1.151,1.151,0,0,0-.523.945h-1.453a2,2,0,0,1,.449-1.223,3.066,3.066,0,0,1,1.219-.934,4.1,4.1,0,0,1,1.691-.344,3.342,3.342,0,0,1,2.289.73,2.635,2.635,0,0,1,.859,2.012v3.891a4.757,4.757,0,0,0,.3,1.852V233Zm-2.4-1.1a2.54,2.54,0,0,0,1.289-.352,2.127,2.127,0,0,0,.883-.914V228.9h-1.133q-2.656,0-2.656,1.555a1.316,1.316,0,0,0,.453,1.063A1.742,1.742,0,0,0,131.477,231.9Zm5.531-3.2a4.952,4.952,0,0,1,.922-3.129,3.137,3.137,0,0,1,4.766-.168V221h1.445v12h-1.328l-.07-.906a2.943,2.943,0,0,1-2.414,1.063,2.887,2.887,0,0,1-2.395-1.2,5.008,5.008,0,0,1-.926-3.141Zm1.445.164a3.749,3.749,0,0,0,.594,2.25,1.919,1.919,0,0,0,1.641.813A2.108,2.108,0,0,0,142.7,230.7v-3.883a2.125,2.125,0,0,0-1.992-1.2,1.929,1.929,0,0,0-1.656.82A4.128,4.128,0,0,0,138.453,228.867ZM146,228.7a4.993,4.993,0,0,1,.488-2.234,3.642,3.642,0,0,1,1.359-1.531,3.7,3.7,0,0,1,1.988-.539,3.565,3.565,0,0,1,2.793,1.2,4.6,4.6,0,0,1,1.066,3.18v.1a5.036,5.036,0,0,1-.473,2.215,3.589,3.589,0,0,1-1.352,1.527,3.743,3.743,0,0,1-2.02.547,3.556,3.556,0,0,1-2.785-1.2A4.575,4.575,0,0,1,146,228.8Zm1.453.172a3.616,3.616,0,0,0,.652,2.258,2.211,2.211,0,0,0,3.5-.012,3.954,3.954,0,0,0,.648-2.418,3.61,3.61,0,0,0-.66-2.254,2.1,2.1,0,0,0-1.754-.863,2.075,2.075,0,0,0-1.727.852A3.925,3.925,0,0,0,147.453,228.867ZM3.258,245.625l3.719,9.281,3.719-9.281h1.945V257h-1.5v-4.43l.141-4.781L7.547,257H6.4l-3.727-9.187.148,4.758V257H1.32V245.625Zm30.3,5.016H27.039v-1.258h6.516Zm0,3.242H27.039v-1.25h6.516Zm17.633-1.953a7.053,7.053,0,0,1-2.809-1.363,2.6,2.6,0,0,1-.879-2,2.752,2.752,0,0,1,1.074-2.223,4.269,4.269,0,0,1,2.793-.879,4.66,4.66,0,0,1,2.09.453,3.436,3.436,0,0,1,1.422,1.25,3.2,3.2,0,0,1,.5,1.742H53.875a2.08,2.08,0,0,0-.656-1.627,2.669,2.669,0,0,0-1.852-.592,2.732,2.732,0,0,0-1.73.489,1.632,1.632,0,0,0-.621,1.358,1.468,1.468,0,0,0,.59,1.178,5.786,5.786,0,0,0,2.008.88,9.316,9.316,0,0,1,2.219.88A3.367,3.367,0,0,1,55.02,252.6a2.861,2.861,0,0,1,.387,1.508,2.658,2.658,0,0,1-1.078,2.215,4.6,4.6,0,0,1-2.883.832,5.347,5.347,0,0,1-2.187-.449,3.681,3.681,0,0,1-1.566-1.23,3,3,0,0,1-.551-1.773h1.508a1.959,1.959,0,0,0,.762,1.629,3.207,3.207,0,0,0,2.035.6,2.948,2.948,0,0,0,1.82-.484,1.573,1.573,0,0,0,.633-1.32,1.545,1.545,0,0,0-.586-1.293A6.755,6.755,0,0,0,51.188,251.93ZM62.32,257a3.036,3.036,0,0,1-.2-.891,3.225,3.225,0,0,1-2.406,1.047,2.984,2.984,0,0,1-2.051-.707,2.288,2.288,0,0,1-.8-1.793,2.39,2.39,0,0,1,1-2.051,4.733,4.733,0,0,1,2.824-.73h1.406v-.664A1.623,1.623,0,0,0,61.641,250a1.821,1.821,0,0,0-1.336-.449,2.107,2.107,0,0,0-1.3.391,1.151,1.151,0,0,0-.523.945H57.031a2,2,0,0,1,.449-1.223,3.066,3.066,0,0,1,1.219-.934,4.1,4.1,0,0,1,1.691-.344,3.342,3.342,0,0,1,2.289.73,2.635,2.635,0,0,1,.859,2.012v3.891a4.757,4.757,0,0,0,.3,1.852V257Zm-2.4-1.1a2.54,2.54,0,0,0,1.289-.352,2.127,2.127,0,0,0,.883-.914V252.9H60.961q-2.656,0-2.656,1.555a1.316,1.316,0,0,0,.453,1.063A1.742,1.742,0,0,0,59.922,255.9Zm7.453,1.1H65.93V245h1.445Zm3.883,0H69.813v-8.453h1.445ZM69.7,246.3a.863.863,0,0,1,.215-.594.807.807,0,0,1,.637-.242.819.819,0,0,1,.641.242.854.854,0,0,1,.219.594.826.826,0,0,1-.219.586.834.834,0,0,1-.641.234.821.821,0,0,1-.637-.234A.834.834,0,0,1,69.7,246.3Zm3.523,6.4a4.952,4.952,0,0,1,.922-3.129,3.137,3.137,0,0,1,4.766-.168V245h1.445v12H79.023l-.07-.906a2.943,2.943,0,0,1-2.414,1.063,2.887,2.887,0,0,1-2.395-1.2,5.008,5.008,0,0,1-.926-3.141Zm1.445.164a3.749,3.749,0,0,0,.594,2.25,1.919,1.919,0,0,0,1.641.813,2.108,2.108,0,0,0,2.008-1.234v-3.883a2.125,2.125,0,0,0-1.992-1.2,1.929,1.929,0,0,0-1.656.82A4.128,4.128,0,0,0,74.664,252.867ZM87.813,257a3.036,3.036,0,0,1-.2-.891,3.225,3.225,0,0,1-2.406,1.047,2.984,2.984,0,0,1-2.051-.707,2.288,2.288,0,0,1-.8-1.793,2.39,2.39,0,0,1,1-2.051,4.733,4.733,0,0,1,2.824-.73h1.406v-.664A1.623,1.623,0,0,0,87.133,250a1.821,1.821,0,0,0-1.336-.449,2.107,2.107,0,0,0-1.3.391,1.151,1.151,0,0,0-.523.945H82.523a2,2,0,0,1,.449-1.223,3.066,3.066,0,0,1,1.219-.934,4.1,4.1,0,0,1,1.691-.344,3.342,3.342,0,0,1,2.289.73,2.635,2.635,0,0,1,.859,2.012v3.891a4.757,4.757,0,0,0,.3,1.852V257Zm-2.4-1.1a2.54,2.54,0,0,0,1.289-.352,2.127,2.127,0,0,0,.883-.914V252.9H86.453q-2.656,0-2.656,1.555a1.316,1.316,0,0,0,.453,1.063A1.742,1.742,0,0,0,85.414,255.9Zm11.8-9.4v2.047H98.8v1.117H97.219v5.249a1.173,1.173,0,0,0,.211.763.888.888,0,0,0,.719.254,3.5,3.5,0,0,0,.688-.094V257a4.215,4.215,0,0,1-1.109.155,1.8,1.8,0,0,1-1.461-.586,2.517,2.517,0,0,1-.492-1.664v-5.242H94.234v-1.117h1.539V246.5Zm2.727,6.2a4.993,4.993,0,0,1,.488-2.234,3.643,3.643,0,0,1,1.359-1.531,3.7,3.7,0,0,1,1.988-.539,3.565,3.565,0,0,1,2.793,1.2,4.6,4.6,0,0,1,1.066,3.18v.1a5.036,5.036,0,0,1-.473,2.215,3.589,3.589,0,0,1-1.352,1.527,3.743,3.743,0,0,1-2.02.547,3.556,3.556,0,0,1-2.785-1.2,4.575,4.575,0,0,1-1.066-3.164Zm1.453.172a3.616,3.616,0,0,0,.652,2.258,2.211,2.211,0,0,0,3.5-.012,3.955,3.955,0,0,0,.648-2.418,3.61,3.61,0,0,0-.66-2.254,2.1,2.1,0,0,0-1.754-.863,2.075,2.075,0,0,0-1.727.852A3.925,3.925,0,0,0,101.4,252.867Zm10.016-6.367v2.047h1.578v1.117h-1.578v5.249a1.173,1.173,0,0,0,.211.763.888.888,0,0,0,.719.254,3.5,3.5,0,0,0,.688-.094V257a4.215,4.215,0,0,1-1.109.155,1.8,1.8,0,0,1-1.461-.586,2.517,2.517,0,0,1-.492-1.664v-5.242H108.43v-1.117h1.539V246.5ZM119.9,257a3.036,3.036,0,0,1-.2-.891,3.225,3.225,0,0,1-2.406,1.047,2.984,2.984,0,0,1-2.051-.707,2.288,2.288,0,0,1-.8-1.793,2.39,2.39,0,0,1,1-2.051,4.733,4.733,0,0,1,2.824-.73h1.406v-.664a1.623,1.623,0,0,0-.453-1.207,1.821,1.821,0,0,0-1.336-.449,2.107,2.107,0,0,0-1.3.391,1.151,1.151,0,0,0-.523.945h-1.453a2,2,0,0,1,.449-1.223,3.066,3.066,0,0,1,1.219-.934,4.1,4.1,0,0,1,1.691-.344,3.342,3.342,0,0,1,2.289.73,2.635,2.635,0,0,1,.859,2.012v3.891a4.757,4.757,0,0,0,.3,1.852V257Zm-2.4-1.1a2.54,2.54,0,0,0,1.289-.352,2.127,2.127,0,0,0,.883-.914V252.9h-1.133q-2.656,0-2.656,1.555a1.316,1.316,0,0,0,.453,1.063A1.742,1.742,0,0,0,117.5,255.9Zm7.453,1.1h-1.445V245h1.445Zm5.922-4.3a4.952,4.952,0,0,1,.922-3.129,3.137,3.137,0,0,1,4.766-.168V245h1.445v12H136.68l-.07-.906a2.943,2.943,0,0,1-2.414,1.063,2.887,2.887,0,0,1-2.395-1.2,5.008,5.008,0,0,1-.926-3.141Zm1.445.164a3.749,3.749,0,0,0,.594,2.25,1.919,1.919,0,0,0,1.641.813,2.108,2.108,0,0,0,2.008-1.234v-3.883a2.125,2.125,0,0,0-1.992-1.2,1.929,1.929,0,0,0-1.656.82A4.128,4.128,0,0,0,132.32,252.867Zm11.438,4.289a3.693,3.693,0,0,1-2.8-1.129,4.19,4.19,0,0,1-1.078-3.02v-.266a5.073,5.073,0,0,1,.48-2.246,3.748,3.748,0,0,1,1.344-1.547,3.379,3.379,0,0,1,1.871-.559,3.166,3.166,0,0,1,2.563,1.086,4.7,4.7,0,0,1,.914,3.109v.6h-5.727a3,3,0,0,0,.73,2.02,2.3,2.3,0,0,0,1.777.77,2.517,2.517,0,0,0,1.3-.312,3.258,3.258,0,0,0,.93-.828l.883.688A3.55,3.55,0,0,1,143.758,257.156Zm-.18-7.578a1.928,1.928,0,0,0-1.469.637,3.1,3.1,0,0,0-.734,1.785h4.234v-.109a2.753,2.753,0,0,0-.594-1.707A1.815,1.815,0,0,0,143.578,249.578ZM150.3,257h-1.445V245H150.3Zm13.414-4.133a5.062,5.062,0,0,1-.883,3.109,2.829,2.829,0,0,1-2.391,1.18,3.1,3.1,0,0,1-2.422-.977v4.07H156.57v-11.7h1.32l.07.938a2.977,2.977,0,0,1,2.453-1.094,2.882,2.882,0,0,1,2.41,1.148,5.117,5.117,0,0,1,.887,3.2Zm-1.445-.164a3.735,3.735,0,0,0-.609-2.258,1.963,1.963,0,0,0-1.672-.828,2.125,2.125,0,0,0-1.969,1.164v4.039A2.129,2.129,0,0,0,160,255.977a1.954,1.954,0,0,0,1.652-.824A4.077,4.077,0,0,0,162.266,252.7Zm7.367-2.859a4.332,4.332,0,0,0-.711-.055,1.9,1.9,0,0,0-1.93,1.211v6h-1.445v-8.453h1.406l.023.977a2.251,2.251,0,0,1,2.016-1.133,1.476,1.476,0,0,1,.641.109Zm.789,2.852a4.993,4.993,0,0,1,.488-2.234,3.642,3.642,0,0,1,1.359-1.531,3.7,3.7,0,0,1,1.988-.539,3.565,3.565,0,0,1,2.793,1.2,4.6,4.6,0,0,1,1.066,3.18v.1a5.036,5.036,0,0,1-.473,2.215,3.589,3.589,0,0,1-1.352,1.527,3.743,3.743,0,0,1-2.02.547,3.556,3.556,0,0,1-2.785-1.2,4.575,4.575,0,0,1-1.066-3.164Zm1.453.172a3.616,3.616,0,0,0,.652,2.258,2.211,2.211,0,0,0,3.5-.012,3.954,3.954,0,0,0,.648-2.418,3.61,3.61,0,0,0-.66-2.254,2.1,2.1,0,0,0-1.754-.863,2.075,2.075,0,0,0-1.727.852A3.925,3.925,0,0,0,171.875,252.867Zm11.445,3.109a2.082,2.082,0,0,0,1.352-.469,1.649,1.649,0,0,0,.641-1.172h1.367a2.621,2.621,0,0,1-.5,1.383,3.293,3.293,0,0,1-1.23,1.047,3.551,3.551,0,0,1-1.629.391A3.482,3.482,0,0,1,180.574,256a4.59,4.59,0,0,1-1.02-3.152v-.242a5.089,5.089,0,0,1,.453-2.2,3.451,3.451,0,0,1,1.3-1.492,3.7,3.7,0,0,1,2-.531,3.39,3.39,0,0,1,2.363.852,3.043,3.043,0,0,1,1,2.211h-1.367a1.992,1.992,0,0,0-.621-1.348,1.932,1.932,0,0,0-1.379-.527,2.023,2.023,0,0,0-1.707.793,3.724,3.724,0,0,0-.605,2.293v.273a3.65,3.65,0,0,0,.6,2.25A2.033,2.033,0,0,0,183.32,255.977Zm8.492,1.18a3.693,3.693,0,0,1-2.8-1.129,4.19,4.19,0,0,1-1.078-3.02v-.266a5.073,5.073,0,0,1,.48-2.246,3.748,3.748,0,0,1,1.344-1.547,3.379,3.379,0,0,1,1.871-.559,3.166,3.166,0,0,1,2.563,1.086,4.7,4.7,0,0,1,.914,3.109v.6h-5.727a3,3,0,0,0,.73,2.02,2.3,2.3,0,0,0,1.777.77,2.517,2.517,0,0,0,1.3-.312,3.258,3.258,0,0,0,.93-.828l.883.688A3.55,3.55,0,0,1,191.813,257.156Zm-.18-7.578a1.928,1.928,0,0,0-1.469.637A3.1,3.1,0,0,0,189.43,252h4.234v-.109a2.753,2.753,0,0,0-.594-1.707A1.815,1.815,0,0,0,191.633,249.578Zm10.07,5.18a1.064,1.064,0,0,0-.441-.91,4.249,4.249,0,0,0-1.539-.559,7.277,7.277,0,0,1-1.742-.562,2.479,2.479,0,0,1-.953-.781,1.869,1.869,0,0,1-.309-1.078,2.193,2.193,0,0,1,.879-1.758,3.432,3.432,0,0,1,2.246-.719,3.532,3.532,0,0,1,2.332.742,2.357,2.357,0,0,1,.895,1.9h-1.453a1.3,1.3,0,0,0-.5-1.023,1.888,1.888,0,0,0-1.27-.43,1.976,1.976,0,0,0-1.234.344,1.082,1.082,0,0,0-.445.9.877.877,0,0,0,.414.789,5.1,5.1,0,0,0,1.5.508,7.8,7.8,0,0,1,1.754.578,2.558,2.558,0,0,1,1,.809,1.988,1.988,0,0,1,.324,1.152,2.163,2.163,0,0,1-.906,1.816,3.8,3.8,0,0,1-2.352.684,4.257,4.257,0,0,1-1.8-.359,2.923,2.923,0,0,1-1.223-1,2.42,2.42,0,0,1-.441-1.395h1.445a1.5,1.5,0,0,0,.582,1.152,2.258,2.258,0,0,0,1.434.426,2.331,2.331,0,0,0,1.316-.332A1.02,1.02,0,0,0,201.7,254.758Zm2.945-2.062a4.993,4.993,0,0,1,.488-2.234,3.642,3.642,0,0,1,1.359-1.531,3.7,3.7,0,0,1,1.988-.539,3.565,3.565,0,0,1,2.793,1.2,4.6,4.6,0,0,1,1.066,3.18v.1a5.036,5.036,0,0,1-.473,2.215,3.589,3.589,0,0,1-1.352,1.527,3.743,3.743,0,0,1-2.02.547,3.556,3.556,0,0,1-2.785-1.2,4.575,4.575,0,0,1-1.066-3.164Zm1.453.172a3.616,3.616,0,0,0,.652,2.258,2.211,2.211,0,0,0,3.5-.012,3.954,3.954,0,0,0,.648-2.418,3.61,3.61,0,0,0-.66-2.254,2.1,2.1,0,0,0-1.754-.863,2.075,2.075,0,0,0-1.727.852A3.925,3.925,0,0,0,206.1,252.867Z" transform="translate(1084 13312.617)" fill="#12263f"/>
    <path id="Trazado_725480" data-name="Trazado 725480" d="M5.719,9.057H2.133L1.605,12.08H5.777L5.613,13H.346L1.828,4.469H7.037l-.164.92H2.766L2.291,8.137H5.877ZM52.648,13H51.582l1.254-7.2-2.268.8L50.75,5.57l3.164-1.143H54.1Zm39.716,0H86.933l.129-.826,3.146-3.059.574-.568a3.363,3.363,0,0,0,1.1-1.828,1.355,1.355,0,0,0-.252-1.052,1.185,1.185,0,0,0-.926-.431,1.746,1.746,0,0,0-1.283.448,2.059,2.059,0,0,0-.627,1.292l-1.049.006a2.967,2.967,0,0,1,.483-1.392A2.693,2.693,0,0,1,89.3,4.659a3.081,3.081,0,0,1,1.444-.308,2.367,2.367,0,0,1,1.685.642,1.9,1.9,0,0,1,.536,1.6,4.084,4.084,0,0,1-1.295,2.367l-.539.545-2.742,2.607h4.119Zm34.56-4.793.7.006a2.077,2.077,0,0,0,1.3-.407,1.543,1.543,0,0,0,.606-1.1,1.36,1.36,0,0,0-.252-1.069,1.21,1.21,0,0,0-.955-.4,1.631,1.631,0,0,0-1.134.39,1.721,1.721,0,0,0-.571,1.081l-1.049.006a2.431,2.431,0,0,1,.9-1.714,2.854,2.854,0,0,1,1.907-.647,2.28,2.28,0,0,1,1.685.671,2.129,2.129,0,0,1,.53,1.708,1.973,1.973,0,0,1-.463,1.1A3.084,3.084,0,0,1,129,8.652a1.686,1.686,0,0,1,.867.741,2.068,2.068,0,0,1,.24,1.187,2.619,2.619,0,0,1-.917,1.857,2.883,2.883,0,0,1-2,.68,2.425,2.425,0,0,1-1.746-.68,2.155,2.155,0,0,1-.6-1.693l1.061.006a1.425,1.425,0,0,0,.316,1.058,1.35,1.35,0,0,0,1.02.425,1.7,1.7,0,0,0,1.248-.428,1.785,1.785,0,0,0,.568-1.207,1.305,1.305,0,0,0-.316-1.087A1.6,1.6,0,0,0,127.6,9.1l-.814-.006Zm41.318-1.553-.152.8a2.5,2.5,0,0,1,1.945-.914,1.573,1.573,0,0,1,1.324.621,2.413,2.413,0,0,1,.316,1.682L170.985,13h-1.061l.7-4.167a2.222,2.222,0,0,0,.006-.533.876.876,0,0,0-.967-.837,2,2,0,0,0-1.676,1.018L167.2,13h-1.061l1.1-6.34Z" transform="translate(1102 13343.617)" fill="#12263f"/>
    <path id="Trazado_725481" data-name="Trazado 725481" d="M5.139,10.8q.129-.937-.973-1.371L3.152,9.063l-.34-.146Q1.1,8.137,1.213,6.725A2.292,2.292,0,0,1,1.7,5.471,2.767,2.767,0,0,1,2.833,4.63a3.637,3.637,0,0,1,1.5-.278,3,3,0,0,1,1.38.346,2.222,2.222,0,0,1,.923.917A2.5,2.5,0,0,1,6.92,6.941L5.813,6.936a1.528,1.528,0,0,0-.352-1.22,1.574,1.574,0,0,0-1.172-.444,2.183,2.183,0,0,0-1.342.376A1.466,1.466,0,0,0,2.326,6.7Q2.209,7.579,3.4,8.031l.873.311.439.188A2.206,2.206,0,0,1,6.24,10.791a2.259,2.259,0,0,1-.486,1.245,2.719,2.719,0,0,1-1.146.812,3.949,3.949,0,0,1-1.556.27,3.255,3.255,0,0,1-1.468-.343,2.4,2.4,0,0,1-1.011-.923,2.308,2.308,0,0,1-.3-1.33l1.1.006a1.451,1.451,0,0,0,.413,1.21A1.859,1.859,0,0,0,3.1,12.2a2.349,2.349,0,0,0,1.4-.369A1.437,1.437,0,0,0,5.139,10.8ZM47.648,9.66,47.068,13h-1.1l1.482-8.531,2.848.006a2.785,2.785,0,0,1,2.033.7,2.2,2.2,0,0,1,.615,1.86,2.656,2.656,0,0,1-.976,1.928,3.539,3.539,0,0,1-2.294.7Zm.158-.92,1.9.006a2.309,2.309,0,0,0,1.471-.451,1.805,1.805,0,0,0,.674-1.254,1.414,1.414,0,0,0-.3-1.169A1.5,1.5,0,0,0,50.408,5.4l-2.021-.006Zm36.538.814H82.376L81.778,13H80.671l1.482-8.531,2.566.006a2.86,2.86,0,0,1,2.045.68,2.123,2.123,0,0,1,.592,1.836A2.43,2.43,0,0,1,86.773,8.4a3.185,3.185,0,0,1-1.38.921l1.324,3.6L86.712,13H85.54Zm-1.811-.926,1.617.006a2.259,2.259,0,0,0,1.424-.448,1.745,1.745,0,0,0,.68-1.2,1.378,1.378,0,0,0-.293-1.148A1.565,1.565,0,0,0,84.8,5.4L83.1,5.395ZM121.58,13h-1.066l-3.047-6.621L116.319,13h-1.107l1.482-8.531h1.066l3.053,6.65,1.154-6.65h1.1Z" transform="translate(1100 13368.617)" fill="#12263f"/>
    <path id="Trazado_725482" data-name="Trazado 725482" d="M5.719,9.057H2.133L1.605,12.08H5.777L5.613,13H.346L1.828,4.469H7.037l-.164.92H2.766L2.291,8.137H5.877ZM50.467,10.8q.129-.937-.973-1.371L48.48,9.063l-.34-.146q-1.711-.779-1.6-2.191a2.292,2.292,0,0,1,.486-1.254,2.767,2.767,0,0,1,1.134-.841,3.637,3.637,0,0,1,1.5-.278,3,3,0,0,1,1.38.346,2.222,2.222,0,0,1,.923.917,2.5,2.5,0,0,1,.281,1.327L51.14,6.936a1.528,1.528,0,0,0-.352-1.22,1.574,1.574,0,0,0-1.172-.444,2.183,2.183,0,0,0-1.342.376A1.466,1.466,0,0,0,47.654,6.7q-.117.875,1.072,1.327l.873.311.439.188a2.206,2.206,0,0,1,1.529,2.262,2.259,2.259,0,0,1-.486,1.245,2.719,2.719,0,0,1-1.146.812,3.949,3.949,0,0,1-1.556.27,3.255,3.255,0,0,1-1.468-.343,2.4,2.4,0,0,1-1.011-.923,2.308,2.308,0,0,1-.3-1.33l1.1.006a1.451,1.451,0,0,0,.413,1.21,1.859,1.859,0,0,0,1.315.46,2.349,2.349,0,0,0,1.4-.369A1.437,1.437,0,0,0,50.467,10.8Z" transform="translate(1100 13392.617)" fill="#12263f"/>
    <path id="Trazado_725483" data-name="Trazado 725483" d="M5.719,9.057H2.133L1.605,12.08H5.777L5.613,13H.346L1.828,4.469H7.037l-.164.92H2.766L2.291,8.137H5.877Z" transform="translate(1100 13490.617)" fill="#12263f"/>
    <path id="Trazado_725484" data-name="Trazado 725484" d="M4.014,9.555H2.045L1.447,13H.34L1.822,4.469l2.566.006a2.86,2.86,0,0,1,2.045.68,2.123,2.123,0,0,1,.592,1.836A2.43,2.43,0,0,1,6.442,8.4a3.185,3.185,0,0,1-1.38.921l1.324,3.6L6.381,13H5.209ZM2.2,8.629l1.617.006a2.259,2.259,0,0,0,1.424-.448,1.745,1.745,0,0,0,.68-1.2A1.378,1.378,0,0,0,5.631,5.84,1.565,1.565,0,0,0,4.471,5.4L2.766,5.395Z" transform="translate(1100 13513.617)" fill="#12263f"/>
    <path id="Trazado_725485" data-name="Trazado 725485" d="M6.715,13H5.648L2.6,6.379,1.453,13H.346L1.828,4.469H2.895l3.053,6.65L7.1,4.469H8.2Z" transform="translate(1100 13536.617)" fill="#12263f"/>
    <path id="Trazado_725486" data-name="Trazado 725486" d="M5.139,10.8q.129-.937-.973-1.371L3.152,9.063l-.34-.146Q1.1,8.137,1.213,6.725A2.292,2.292,0,0,1,1.7,5.471,2.767,2.767,0,0,1,2.833,4.63a3.637,3.637,0,0,1,1.5-.278,3,3,0,0,1,1.38.346,2.222,2.222,0,0,1,.923.917A2.5,2.5,0,0,1,6.92,6.941L5.813,6.936a1.528,1.528,0,0,0-.352-1.22,1.574,1.574,0,0,0-1.172-.444,2.183,2.183,0,0,0-1.342.376A1.466,1.466,0,0,0,2.326,6.7Q2.209,7.579,3.4,8.031l.873.311.439.188A2.206,2.206,0,0,1,6.24,10.791a2.259,2.259,0,0,1-.486,1.245,2.719,2.719,0,0,1-1.146.812,3.949,3.949,0,0,1-1.556.27,3.255,3.255,0,0,1-1.468-.343,2.4,2.4,0,0,1-1.011-.923,2.308,2.308,0,0,1-.3-1.33l1.1.006a1.451,1.451,0,0,0,.413,1.21A1.859,1.859,0,0,0,3.1,12.2a2.349,2.349,0,0,0,1.4-.369A1.437,1.437,0,0,0,5.139,10.8Z" transform="translate(1100 13560.617)" fill="#12263f"/>
  </g>
</svg>
