<svg xmlns="http://www.w3.org/2000/svg" width="229" height="139" viewBox="0 0 229 139">
  <g id="Grupo_957984" data-name="Grupo 957984" transform="translate(-180 -15478)">
    <rect id="Rect치ngulo_340074" data-name="Rect치ngulo 340074" width="229" height="139" transform="translate(180 15478)" fill="#ffefd5"/>
    <g id="Grupo_957964" data-name="Grupo 957964">
      <rect id="Rect치ngulo_340075" data-name="Rect치ngulo 340075" width="211" height="67" rx="10" transform="translate(189 15514)" fill="#fff"/>
      <path id="Trazado_725333" data-name="Trazado 725333" d="M7.859-4.93h-4.5v3.047H8.641V0H1.016V-11.375H8.625v1.9H3.359v2.711h4.5Zm13.172-.9H14.047V-7.672h6.984Zm0,3.383H14.047V-4.289h6.984Zm12.531.1H29.453L28.672,0H26.18l4.234-11.375h2.172L36.844,0H34.352Zm-3.477-1.9H32.93L31.5-8.5ZM44.961-5.93l1.422-2.523H48.8L46.391-4.312,48.9,0H46.477L44.969-2.656,43.469,0h-2.43l2.508-4.312-2.4-4.141H43.57Zm15.9,1h-4.5v3.047h5.281V0H54.016V-11.375h7.609v1.9H56.359v2.711h4.5Zm9,.281h-4.5V0H63.016V-11.375h7.406v1.9H65.359v2.938h4.5ZM78.836-5.93l1.422-2.523h2.414L80.266-4.312,82.773,0H80.352L78.844-2.656,77.344,0h-2.43l2.508-4.312-2.4-4.141h2.422Zm9.008,1.3a11.99,11.99,0,0,1,.477-3.406,8.989,8.989,0,0,1,1.406-2.863,5.251,5.251,0,0,1,2.016-1.73l.438,1.219A5.438,5.438,0,0,0,90.4-8.8a12.082,12.082,0,0,0-.641,4.125v.242a12.313,12.313,0,0,0,.633,4.141A5.544,5.544,0,0,0,92.18,2.359l-.437,1.2a5.253,5.253,0,0,1-1.98-1.684,8.838,8.838,0,0,1-1.4-2.785,11.918,11.918,0,0,1-.516-3.3ZM98.75,0H96.492V-8.7l-2.7.836V-9.7l4.711-1.687h.242Zm8.18-3.961h-4.4v-1.82h4.4Zm8.8-.969h-4.5v3.047h5.281V0h-7.625V-11.375H116.5v1.9h-5.266v2.711h4.5Zm6.367.766h-1.867V0h-2.344V-11.375h4.227a4.778,4.778,0,0,1,3.109.9,3.1,3.1,0,0,1,1.094,2.539,3.5,3.5,0,0,1-.5,1.941,3.437,3.437,0,0,1-1.527,1.238L126.75-.109V0h-2.516Zm-1.867-1.9h1.891a1.936,1.936,0,0,0,1.367-.449,1.606,1.606,0,0,0,.484-1.238,1.719,1.719,0,0,0-.457-1.266,1.9,1.9,0,0,0-1.4-.461h-1.883ZM132.648.977h-1.68l4.188-12.352h1.68ZM147.289,0h-2.258V-8.7l-2.7.836V-9.7l4.711-1.687h.242Zm11.352-4.7a5.762,5.762,0,0,1-.977,3.609A3.409,3.409,0,0,1,154.8.156a3.433,3.433,0,0,1-2.844-1.227,5.594,5.594,0,0,1-1.008-3.516V-6.68a5.687,5.687,0,0,1,.988-3.617,3.434,3.434,0,0,1,2.848-1.234,3.437,3.437,0,0,1,2.844,1.223A5.576,5.576,0,0,1,158.641-6.8Zm-2.258-2.3A4.165,4.165,0,0,0,156-9.066a1.307,1.307,0,0,0-1.207-.645,1.284,1.284,0,0,0-1.176.614,3.9,3.9,0,0,0-.4,1.92v2.768a4.372,4.372,0,0,0,.379,2.068,1.29,1.29,0,0,0,1.215.676,1.268,1.268,0,0,0,1.2-.649,4.268,4.268,0,0,0,.383-1.986ZM167.82-4.7a5.762,5.762,0,0,1-.977,3.609,3.409,3.409,0,0,1-2.859,1.25,3.433,3.433,0,0,1-2.844-1.227,5.594,5.594,0,0,1-1.008-3.516V-6.68a5.687,5.687,0,0,1,.988-3.617,3.434,3.434,0,0,1,2.848-1.234,3.437,3.437,0,0,1,2.844,1.223A5.576,5.576,0,0,1,167.82-6.8Zm-2.258-2.3a4.165,4.165,0,0,0-.387-2.061,1.307,1.307,0,0,0-1.207-.645,1.284,1.284,0,0,0-1.176.614,3.9,3.9,0,0,0-.4,1.92v2.768a4.372,4.372,0,0,0,.379,2.068,1.29,1.29,0,0,0,1.215.676,1.268,1.268,0,0,0,1.2-.649,4.268,4.268,0,0,0,.383-1.986Zm7.766,2.56a11.377,11.377,0,0,1-.508,3.4,9.225,9.225,0,0,1-1.461,2.883,5.264,5.264,0,0,1-2.039,1.719l-.437-1.2a5.494,5.494,0,0,0,1.75-2.578,11.939,11.939,0,0,0,.664-4.008v-.414a12.208,12.208,0,0,0-.637-4.117,5.727,5.727,0,0,0-1.777-2.672l.438-1.2a5.265,5.265,0,0,1,2,1.672,9.106,9.106,0,0,1,1.461,2.82,11.3,11.3,0,0,1,.543,3.336Z" transform="translate(207 15553)" fill="#12263f"/>
    </g>
  </g>
</svg>
